%TF.GenerationSoftware,KiCad,Pcbnew,10.0.5*%
%TF.CreationDate,2026-09-11T17:04:42-03:00*%
%TF.ProjectId,MainPCB_SMD_V3.1,4d61696e-5043-4425-9f53-4d445f56332e,rev?*%
%TF.SameCoordinates,Original*%
%TF.FileFunction,Soldermask,Bot*%
%TF.FilePolarity,Negative*%
%FSLAX46Y46*%
G04 Gerber Fmt 4.6, Leading zero omitted, Abs format (unit mm)*
G04 Created by KiCad (PCBNEW 10.0.5) date 2026-09-11 17:04:42*
%MOMM*%
%LPD*%
G01*
G04 APERTURE LIST*
G04 Aperture macros list*
%AMRoundRect*
0 Rectangle with rounded corners*
0 $1 Rounding radius*
0 $2 $3 $4 $5 $6 $7 $8 $9 X,Y pos of 4 corners*
0 Add a 4 corners polygon primitive as box body*
4,1,4,$2,$3,$4,$5,$6,$7,$8,$9,$2,$3,0*
0 Add four circle primitives for the rounded corners*
1,1,$1+$1,$2,$3*
1,1,$1+$1,$4,$5*
1,1,$1+$1,$6,$7*
1,1,$1+$1,$8,$9*
0 Add four rect primitives between the rounded corners*
20,1,$1+$1,$2,$3,$4,$5,0*
20,1,$1+$1,$4,$5,$6,$7,0*
20,1,$1+$1,$6,$7,$8,$9,0*
20,1,$1+$1,$8,$9,$2,$3,0*%
G04 Aperture macros list end*
%ADD10R,1.700000X1.700000*%
%ADD11C,1.700000*%
%ADD12RoundRect,0.412500X0.412500X-0.412500X0.412500X0.412500X-0.412500X0.412500X-0.412500X-0.412500X0*%
%ADD13C,1.650000*%
%ADD14C,2.200000*%
%ADD15O,1.700000X1.700000*%
G04 APERTURE END LIST*
D10*
%TO.C,J2*%
X133083928Y-57460000D03*
D11*
X133083928Y-60000000D03*
X133083928Y-62540000D03*
X133083928Y-65080000D03*
X133083928Y-67620000D03*
X133083928Y-70160000D03*
X133083928Y-72700000D03*
X133083928Y-75240000D03*
%TD*%
D10*
%TO.C,J1*%
X107283928Y-83320000D03*
D11*
X107283928Y-85860000D03*
X107283928Y-88400000D03*
X107283928Y-90940000D03*
X107283928Y-93480000D03*
X107283928Y-96020000D03*
X107283928Y-98560000D03*
X107283928Y-101100000D03*
%TD*%
D12*
%TO.C,RV1*%
X130283928Y-146700000D03*
D13*
X130283928Y-144160000D03*
X130283928Y-141620000D03*
%TD*%
D10*
%TO.C,J6*%
X110148928Y-56559750D03*
D11*
X110148928Y-59099750D03*
X110148928Y-61639750D03*
X110148928Y-64179750D03*
X110148928Y-66719750D03*
X110148928Y-69259750D03*
X110148928Y-71799750D03*
%TD*%
D14*
%TO.C,H2*%
X119883928Y-113150000D03*
%TD*%
D15*
%TO.C,J10*%
X130998928Y-92690000D03*
X128458928Y-92690000D03*
X130998928Y-95230000D03*
X128458928Y-95230000D03*
X130998928Y-97770000D03*
X128458928Y-97770000D03*
X130998928Y-100310000D03*
X128458928Y-100310000D03*
X130998928Y-102850000D03*
X128458928Y-102850000D03*
%TD*%
D12*
%TO.C,RV2*%
X116658928Y-146700000D03*
D13*
X116658928Y-144160000D03*
X116658928Y-141620000D03*
%TD*%
D12*
%TO.C,RV4*%
X109883928Y-146700000D03*
D13*
X109883928Y-144160000D03*
X109883928Y-141620000D03*
%TD*%
D12*
%TO.C,RV3*%
X123483928Y-146700000D03*
D13*
X123483928Y-144160000D03*
X123483928Y-141620000D03*
%TD*%
D10*
%TO.C,J7*%
X125056753Y-71699750D03*
D11*
X125056753Y-69159750D03*
X125056753Y-66619750D03*
X125056753Y-64079750D03*
X125056753Y-61539750D03*
X125056753Y-58999750D03*
X125056753Y-56459750D03*
%TD*%
D14*
%TO.C,H1*%
X119883928Y-75050000D03*
%TD*%
D10*
%TO.C,J9*%
X111550000Y-113910000D03*
D11*
X109010000Y-113910000D03*
X111550000Y-116450000D03*
X109010000Y-116450000D03*
X111550000Y-118990000D03*
X109010000Y-118990000D03*
X111550000Y-121530000D03*
X109010000Y-121530000D03*
%TD*%
M02*
