%TF.GenerationSoftware,KiCad,Pcbnew,10.0.5*%
%TF.CreationDate,2026-09-11T17:04:42-03:00*%
%TF.ProjectId,MainPCB_SMD_V3.1,4d61696e-5043-4425-9f53-4d445f56332e,rev?*%
%TF.SameCoordinates,Original*%
%TF.FileFunction,Legend,Top*%
%TF.FilePolarity,Positive*%
%FSLAX46Y46*%
G04 Gerber Fmt 4.6, Leading zero omitted, Abs format (unit mm)*
G04 Created by KiCad (PCBNEW 10.0.5) date 2026-09-11 17:04:42*
%MOMM*%
%LPD*%
G01*
G04 APERTURE LIST*
G04 Aperture macros list*
%AMRoundRect*
0 Rectangle with rounded corners*
0 $1 Rounding radius*
0 $2 $3 $4 $5 $6 $7 $8 $9 X,Y pos of 4 corners*
0 Add a 4 corners polygon primitive as box body*
4,1,4,$2,$3,$4,$5,$6,$7,$8,$9,$2,$3,0*
0 Add four circle primitives for the rounded corners*
1,1,$1+$1,$2,$3*
1,1,$1+$1,$4,$5*
1,1,$1+$1,$6,$7*
1,1,$1+$1,$8,$9*
0 Add four rect primitives between the rounded corners*
20,1,$1+$1,$2,$3,$4,$5,0*
20,1,$1+$1,$4,$5,$6,$7,0*
20,1,$1+$1,$6,$7,$8,$9,0*
20,1,$1+$1,$8,$9,$2,$3,0*%
%AMOutline4P*
0 Free polygon, 4 corners , with rotation*
0 The origin of the aperture is its center*
0 number of corners: always 4*
0 $1 to $8 corner X, Y*
0 $9 Rotation angle, in degrees counterclockwise*
0 create outline with 4 corners*
4,1,4,$1,$2,$3,$4,$5,$6,$7,$8,$1,$2,$9*%
G04 Aperture macros list end*
%ADD10C,0.150000*%
%ADD11C,0.100000*%
%ADD12C,0.120000*%
%ADD13C,0.152400*%
%ADD14R,1.000000X1.000000*%
%ADD15RoundRect,0.087500X-0.087500X0.662500X-0.087500X-0.662500X0.087500X-0.662500X0.087500X0.662500X0*%
%ADD16R,2.200000X1.200000*%
%ADD17R,6.400000X5.800000*%
%ADD18RoundRect,0.250000X-0.550000X1.050000X-0.550000X-1.050000X0.550000X-1.050000X0.550000X1.050000X0*%
%ADD19R,1.700000X1.700000*%
%ADD20C,1.700000*%
%ADD21RoundRect,0.112500X-0.187500X-0.112500X0.187500X-0.112500X0.187500X0.112500X-0.187500X0.112500X0*%
%ADD22R,1.500000X1.000000*%
%ADD23R,1.800000X1.000000*%
%ADD24Outline4P,-1.100000X-0.500000X1.100000X-0.500000X0.400000X0.500000X-0.400000X0.500000X90.000000*%
%ADD25R,1.840000X2.200000*%
%ADD26Outline4P,-1.100000X-0.425000X1.100000X-0.425000X0.500000X0.425000X-0.500000X0.425000X270.000000*%
%ADD27RoundRect,0.112500X0.112500X-0.187500X0.112500X0.187500X-0.112500X0.187500X-0.112500X-0.187500X0*%
%ADD28RoundRect,0.150000X0.587500X0.150000X-0.587500X0.150000X-0.587500X-0.150000X0.587500X-0.150000X0*%
%ADD29RoundRect,0.150000X-0.587500X-0.150000X0.587500X-0.150000X0.587500X0.150000X-0.587500X0.150000X0*%
%ADD30RoundRect,0.250000X0.550000X-1.050000X0.550000X1.050000X-0.550000X1.050000X-0.550000X-1.050000X0*%
%ADD31RoundRect,0.250000X-1.050000X-0.550000X1.050000X-0.550000X1.050000X0.550000X-1.050000X0.550000X0*%
%ADD32RoundRect,0.218750X-0.381250X0.218750X-0.381250X-0.218750X0.381250X-0.218750X0.381250X0.218750X0*%
%ADD33RoundRect,0.150000X-0.150000X0.825000X-0.150000X-0.825000X0.150000X-0.825000X0.150000X0.825000X0*%
%ADD34R,0.700000X1.300000*%
%ADD35RoundRect,0.112500X-0.112500X0.187500X-0.112500X-0.187500X0.112500X-0.187500X0.112500X0.187500X0*%
%ADD36RoundRect,0.218750X0.218750X0.381250X-0.218750X0.381250X-0.218750X-0.381250X0.218750X-0.381250X0*%
%ADD37RoundRect,0.225000X0.225000X0.250000X-0.225000X0.250000X-0.225000X-0.250000X0.225000X-0.250000X0*%
%ADD38RoundRect,0.250000X1.050000X0.550000X-1.050000X0.550000X-1.050000X-0.550000X1.050000X-0.550000X0*%
%ADD39RoundRect,0.243750X0.243750X0.456250X-0.243750X0.456250X-0.243750X-0.456250X0.243750X-0.456250X0*%
%ADD40RoundRect,0.150000X-0.825000X-0.150000X0.825000X-0.150000X0.825000X0.150000X-0.825000X0.150000X0*%
%ADD41RoundRect,0.412500X0.412500X-0.412500X0.412500X0.412500X-0.412500X0.412500X-0.412500X-0.412500X0*%
%ADD42C,1.650000*%
%ADD43C,2.200000*%
%ADD44O,1.700000X1.700000*%
G04 APERTURE END LIST*
D10*
X109042902Y-65067857D02*
X108733378Y-65284524D01*
X109042902Y-65439286D02*
X108392902Y-65439286D01*
X108392902Y-65439286D02*
X108392902Y-65191667D01*
X108392902Y-65191667D02*
X108423854Y-65129762D01*
X108423854Y-65129762D02*
X108454807Y-65098809D01*
X108454807Y-65098809D02*
X108516711Y-65067857D01*
X108516711Y-65067857D02*
X108609569Y-65067857D01*
X108609569Y-65067857D02*
X108671473Y-65098809D01*
X108671473Y-65098809D02*
X108702426Y-65129762D01*
X108702426Y-65129762D02*
X108733378Y-65191667D01*
X108733378Y-65191667D02*
X108733378Y-65439286D01*
X108392902Y-64851190D02*
X108392902Y-64448809D01*
X108392902Y-64448809D02*
X108640521Y-64665476D01*
X108640521Y-64665476D02*
X108640521Y-64572619D01*
X108640521Y-64572619D02*
X108671473Y-64510714D01*
X108671473Y-64510714D02*
X108702426Y-64479762D01*
X108702426Y-64479762D02*
X108764330Y-64448809D01*
X108764330Y-64448809D02*
X108919092Y-64448809D01*
X108919092Y-64448809D02*
X108980997Y-64479762D01*
X108980997Y-64479762D02*
X109011950Y-64510714D01*
X109011950Y-64510714D02*
X109042902Y-64572619D01*
X109042902Y-64572619D02*
X109042902Y-64758333D01*
X109042902Y-64758333D02*
X109011950Y-64820238D01*
X109011950Y-64820238D02*
X108980997Y-64851190D01*
X108454807Y-64201190D02*
X108423854Y-64170238D01*
X108423854Y-64170238D02*
X108392902Y-64108333D01*
X108392902Y-64108333D02*
X108392902Y-63953571D01*
X108392902Y-63953571D02*
X108423854Y-63891666D01*
X108423854Y-63891666D02*
X108454807Y-63860714D01*
X108454807Y-63860714D02*
X108516711Y-63829761D01*
X108516711Y-63829761D02*
X108578616Y-63829761D01*
X108578616Y-63829761D02*
X108671473Y-63860714D01*
X108671473Y-63860714D02*
X109042902Y-64232142D01*
X109042902Y-64232142D02*
X109042902Y-63829761D01*
X110216070Y-95480997D02*
X110185118Y-95511950D01*
X110185118Y-95511950D02*
X110092260Y-95542902D01*
X110092260Y-95542902D02*
X110030356Y-95542902D01*
X110030356Y-95542902D02*
X109937499Y-95511950D01*
X109937499Y-95511950D02*
X109875594Y-95450045D01*
X109875594Y-95450045D02*
X109844641Y-95388140D01*
X109844641Y-95388140D02*
X109813689Y-95264330D01*
X109813689Y-95264330D02*
X109813689Y-95171473D01*
X109813689Y-95171473D02*
X109844641Y-95047664D01*
X109844641Y-95047664D02*
X109875594Y-94985759D01*
X109875594Y-94985759D02*
X109937499Y-94923854D01*
X109937499Y-94923854D02*
X110030356Y-94892902D01*
X110030356Y-94892902D02*
X110092260Y-94892902D01*
X110092260Y-94892902D02*
X110185118Y-94923854D01*
X110185118Y-94923854D02*
X110216070Y-94954807D01*
X110835118Y-95542902D02*
X110463689Y-95542902D01*
X110649403Y-95542902D02*
X110649403Y-94892902D01*
X110649403Y-94892902D02*
X110587499Y-94985759D01*
X110587499Y-94985759D02*
X110525594Y-95047664D01*
X110525594Y-95047664D02*
X110463689Y-95078616D01*
X111237499Y-94892902D02*
X111299404Y-94892902D01*
X111299404Y-94892902D02*
X111361308Y-94923854D01*
X111361308Y-94923854D02*
X111392261Y-94954807D01*
X111392261Y-94954807D02*
X111423213Y-95016711D01*
X111423213Y-95016711D02*
X111454166Y-95140521D01*
X111454166Y-95140521D02*
X111454166Y-95295283D01*
X111454166Y-95295283D02*
X111423213Y-95419092D01*
X111423213Y-95419092D02*
X111392261Y-95480997D01*
X111392261Y-95480997D02*
X111361308Y-95511950D01*
X111361308Y-95511950D02*
X111299404Y-95542902D01*
X111299404Y-95542902D02*
X111237499Y-95542902D01*
X111237499Y-95542902D02*
X111175594Y-95511950D01*
X111175594Y-95511950D02*
X111144642Y-95480997D01*
X111144642Y-95480997D02*
X111113689Y-95419092D01*
X111113689Y-95419092D02*
X111082737Y-95295283D01*
X111082737Y-95295283D02*
X111082737Y-95140521D01*
X111082737Y-95140521D02*
X111113689Y-95016711D01*
X111113689Y-95016711D02*
X111144642Y-94954807D01*
X111144642Y-94954807D02*
X111175594Y-94923854D01*
X111175594Y-94923854D02*
X111237499Y-94892902D01*
X123542902Y-62667857D02*
X123233378Y-62884524D01*
X123542902Y-63039286D02*
X122892902Y-63039286D01*
X122892902Y-63039286D02*
X122892902Y-62791667D01*
X122892902Y-62791667D02*
X122923854Y-62729762D01*
X122923854Y-62729762D02*
X122954807Y-62698809D01*
X122954807Y-62698809D02*
X123016711Y-62667857D01*
X123016711Y-62667857D02*
X123109569Y-62667857D01*
X123109569Y-62667857D02*
X123171473Y-62698809D01*
X123171473Y-62698809D02*
X123202426Y-62729762D01*
X123202426Y-62729762D02*
X123233378Y-62791667D01*
X123233378Y-62791667D02*
X123233378Y-63039286D01*
X122954807Y-62420238D02*
X122923854Y-62389286D01*
X122923854Y-62389286D02*
X122892902Y-62327381D01*
X122892902Y-62327381D02*
X122892902Y-62172619D01*
X122892902Y-62172619D02*
X122923854Y-62110714D01*
X122923854Y-62110714D02*
X122954807Y-62079762D01*
X122954807Y-62079762D02*
X123016711Y-62048809D01*
X123016711Y-62048809D02*
X123078616Y-62048809D01*
X123078616Y-62048809D02*
X123171473Y-62079762D01*
X123171473Y-62079762D02*
X123542902Y-62451190D01*
X123542902Y-62451190D02*
X123542902Y-62048809D01*
X123542902Y-61739285D02*
X123542902Y-61615476D01*
X123542902Y-61615476D02*
X123511950Y-61553571D01*
X123511950Y-61553571D02*
X123480997Y-61522619D01*
X123480997Y-61522619D02*
X123388140Y-61460714D01*
X123388140Y-61460714D02*
X123264330Y-61429761D01*
X123264330Y-61429761D02*
X123016711Y-61429761D01*
X123016711Y-61429761D02*
X122954807Y-61460714D01*
X122954807Y-61460714D02*
X122923854Y-61491666D01*
X122923854Y-61491666D02*
X122892902Y-61553571D01*
X122892902Y-61553571D02*
X122892902Y-61677380D01*
X122892902Y-61677380D02*
X122923854Y-61739285D01*
X122923854Y-61739285D02*
X122954807Y-61770238D01*
X122954807Y-61770238D02*
X123016711Y-61801190D01*
X123016711Y-61801190D02*
X123171473Y-61801190D01*
X123171473Y-61801190D02*
X123233378Y-61770238D01*
X123233378Y-61770238D02*
X123264330Y-61739285D01*
X123264330Y-61739285D02*
X123295283Y-61677380D01*
X123295283Y-61677380D02*
X123295283Y-61553571D01*
X123295283Y-61553571D02*
X123264330Y-61491666D01*
X123264330Y-61491666D02*
X123233378Y-61460714D01*
X123233378Y-61460714D02*
X123171473Y-61429761D01*
X110582142Y-85380997D02*
X110551190Y-85411950D01*
X110551190Y-85411950D02*
X110458332Y-85442902D01*
X110458332Y-85442902D02*
X110396428Y-85442902D01*
X110396428Y-85442902D02*
X110303571Y-85411950D01*
X110303571Y-85411950D02*
X110241666Y-85350045D01*
X110241666Y-85350045D02*
X110210713Y-85288140D01*
X110210713Y-85288140D02*
X110179761Y-85164330D01*
X110179761Y-85164330D02*
X110179761Y-85071473D01*
X110179761Y-85071473D02*
X110210713Y-84947664D01*
X110210713Y-84947664D02*
X110241666Y-84885759D01*
X110241666Y-84885759D02*
X110303571Y-84823854D01*
X110303571Y-84823854D02*
X110396428Y-84792902D01*
X110396428Y-84792902D02*
X110458332Y-84792902D01*
X110458332Y-84792902D02*
X110551190Y-84823854D01*
X110551190Y-84823854D02*
X110582142Y-84854807D01*
X110798809Y-84792902D02*
X111201190Y-84792902D01*
X111201190Y-84792902D02*
X110984523Y-85040521D01*
X110984523Y-85040521D02*
X111077380Y-85040521D01*
X111077380Y-85040521D02*
X111139285Y-85071473D01*
X111139285Y-85071473D02*
X111170237Y-85102426D01*
X111170237Y-85102426D02*
X111201190Y-85164330D01*
X111201190Y-85164330D02*
X111201190Y-85319092D01*
X111201190Y-85319092D02*
X111170237Y-85380997D01*
X111170237Y-85380997D02*
X111139285Y-85411950D01*
X111139285Y-85411950D02*
X111077380Y-85442902D01*
X111077380Y-85442902D02*
X110891666Y-85442902D01*
X110891666Y-85442902D02*
X110829761Y-85411950D01*
X110829761Y-85411950D02*
X110798809Y-85380997D01*
X111820238Y-85442902D02*
X111448809Y-85442902D01*
X111634523Y-85442902D02*
X111634523Y-84792902D01*
X111634523Y-84792902D02*
X111572619Y-84885759D01*
X111572619Y-84885759D02*
X111510714Y-84947664D01*
X111510714Y-84947664D02*
X111448809Y-84978616D01*
X121342902Y-70967857D02*
X121033378Y-71184524D01*
X121342902Y-71339286D02*
X120692902Y-71339286D01*
X120692902Y-71339286D02*
X120692902Y-71091667D01*
X120692902Y-71091667D02*
X120723854Y-71029762D01*
X120723854Y-71029762D02*
X120754807Y-70998809D01*
X120754807Y-70998809D02*
X120816711Y-70967857D01*
X120816711Y-70967857D02*
X120909569Y-70967857D01*
X120909569Y-70967857D02*
X120971473Y-70998809D01*
X120971473Y-70998809D02*
X121002426Y-71029762D01*
X121002426Y-71029762D02*
X121033378Y-71091667D01*
X121033378Y-71091667D02*
X121033378Y-71339286D01*
X120754807Y-70720238D02*
X120723854Y-70689286D01*
X120723854Y-70689286D02*
X120692902Y-70627381D01*
X120692902Y-70627381D02*
X120692902Y-70472619D01*
X120692902Y-70472619D02*
X120723854Y-70410714D01*
X120723854Y-70410714D02*
X120754807Y-70379762D01*
X120754807Y-70379762D02*
X120816711Y-70348809D01*
X120816711Y-70348809D02*
X120878616Y-70348809D01*
X120878616Y-70348809D02*
X120971473Y-70379762D01*
X120971473Y-70379762D02*
X121342902Y-70751190D01*
X121342902Y-70751190D02*
X121342902Y-70348809D01*
X121342902Y-69729761D02*
X121342902Y-70101190D01*
X121342902Y-69915476D02*
X120692902Y-69915476D01*
X120692902Y-69915476D02*
X120785759Y-69977380D01*
X120785759Y-69977380D02*
X120847664Y-70039285D01*
X120847664Y-70039285D02*
X120878616Y-70101190D01*
X111704819Y-80411904D02*
X112514342Y-80411904D01*
X112514342Y-80411904D02*
X112609580Y-80364285D01*
X112609580Y-80364285D02*
X112657200Y-80316666D01*
X112657200Y-80316666D02*
X112704819Y-80221428D01*
X112704819Y-80221428D02*
X112704819Y-80030952D01*
X112704819Y-80030952D02*
X112657200Y-79935714D01*
X112657200Y-79935714D02*
X112609580Y-79888095D01*
X112609580Y-79888095D02*
X112514342Y-79840476D01*
X112514342Y-79840476D02*
X111704819Y-79840476D01*
X111704819Y-78888095D02*
X111704819Y-79364285D01*
X111704819Y-79364285D02*
X112181009Y-79411904D01*
X112181009Y-79411904D02*
X112133390Y-79364285D01*
X112133390Y-79364285D02*
X112085771Y-79269047D01*
X112085771Y-79269047D02*
X112085771Y-79030952D01*
X112085771Y-79030952D02*
X112133390Y-78935714D01*
X112133390Y-78935714D02*
X112181009Y-78888095D01*
X112181009Y-78888095D02*
X112276247Y-78840476D01*
X112276247Y-78840476D02*
X112514342Y-78840476D01*
X112514342Y-78840476D02*
X112609580Y-78888095D01*
X112609580Y-78888095D02*
X112657200Y-78935714D01*
X112657200Y-78935714D02*
X112704819Y-79030952D01*
X112704819Y-79030952D02*
X112704819Y-79269047D01*
X112704819Y-79269047D02*
X112657200Y-79364285D01*
X112657200Y-79364285D02*
X112609580Y-79411904D01*
X130430997Y-135967857D02*
X130461950Y-135998809D01*
X130461950Y-135998809D02*
X130492902Y-136091667D01*
X130492902Y-136091667D02*
X130492902Y-136153571D01*
X130492902Y-136153571D02*
X130461950Y-136246428D01*
X130461950Y-136246428D02*
X130400045Y-136308333D01*
X130400045Y-136308333D02*
X130338140Y-136339286D01*
X130338140Y-136339286D02*
X130214330Y-136370238D01*
X130214330Y-136370238D02*
X130121473Y-136370238D01*
X130121473Y-136370238D02*
X129997664Y-136339286D01*
X129997664Y-136339286D02*
X129935759Y-136308333D01*
X129935759Y-136308333D02*
X129873854Y-136246428D01*
X129873854Y-136246428D02*
X129842902Y-136153571D01*
X129842902Y-136153571D02*
X129842902Y-136091667D01*
X129842902Y-136091667D02*
X129873854Y-135998809D01*
X129873854Y-135998809D02*
X129904807Y-135967857D01*
X130492902Y-135348809D02*
X130492902Y-135720238D01*
X130492902Y-135534524D02*
X129842902Y-135534524D01*
X129842902Y-135534524D02*
X129935759Y-135596428D01*
X129935759Y-135596428D02*
X129997664Y-135658333D01*
X129997664Y-135658333D02*
X130028616Y-135720238D01*
X130121473Y-134977380D02*
X130090521Y-135039285D01*
X130090521Y-135039285D02*
X130059569Y-135070238D01*
X130059569Y-135070238D02*
X129997664Y-135101190D01*
X129997664Y-135101190D02*
X129966711Y-135101190D01*
X129966711Y-135101190D02*
X129904807Y-135070238D01*
X129904807Y-135070238D02*
X129873854Y-135039285D01*
X129873854Y-135039285D02*
X129842902Y-134977380D01*
X129842902Y-134977380D02*
X129842902Y-134853571D01*
X129842902Y-134853571D02*
X129873854Y-134791666D01*
X129873854Y-134791666D02*
X129904807Y-134760714D01*
X129904807Y-134760714D02*
X129966711Y-134729761D01*
X129966711Y-134729761D02*
X129997664Y-134729761D01*
X129997664Y-134729761D02*
X130059569Y-134760714D01*
X130059569Y-134760714D02*
X130090521Y-134791666D01*
X130090521Y-134791666D02*
X130121473Y-134853571D01*
X130121473Y-134853571D02*
X130121473Y-134977380D01*
X130121473Y-134977380D02*
X130152426Y-135039285D01*
X130152426Y-135039285D02*
X130183378Y-135070238D01*
X130183378Y-135070238D02*
X130245283Y-135101190D01*
X130245283Y-135101190D02*
X130369092Y-135101190D01*
X130369092Y-135101190D02*
X130430997Y-135070238D01*
X130430997Y-135070238D02*
X130461950Y-135039285D01*
X130461950Y-135039285D02*
X130492902Y-134977380D01*
X130492902Y-134977380D02*
X130492902Y-134853571D01*
X130492902Y-134853571D02*
X130461950Y-134791666D01*
X130461950Y-134791666D02*
X130430997Y-134760714D01*
X130430997Y-134760714D02*
X130369092Y-134729761D01*
X130369092Y-134729761D02*
X130245283Y-134729761D01*
X130245283Y-134729761D02*
X130183378Y-134760714D01*
X130183378Y-134760714D02*
X130152426Y-134791666D01*
X130152426Y-134791666D02*
X130121473Y-134853571D01*
X114926830Y-89958333D02*
X114617306Y-90175000D01*
X114926830Y-90329762D02*
X114276830Y-90329762D01*
X114276830Y-90329762D02*
X114276830Y-90082143D01*
X114276830Y-90082143D02*
X114307782Y-90020238D01*
X114307782Y-90020238D02*
X114338735Y-89989285D01*
X114338735Y-89989285D02*
X114400639Y-89958333D01*
X114400639Y-89958333D02*
X114493497Y-89958333D01*
X114493497Y-89958333D02*
X114555401Y-89989285D01*
X114555401Y-89989285D02*
X114586354Y-90020238D01*
X114586354Y-90020238D02*
X114617306Y-90082143D01*
X114617306Y-90082143D02*
X114617306Y-90329762D01*
X114276830Y-89741666D02*
X114276830Y-89339285D01*
X114276830Y-89339285D02*
X114524449Y-89555952D01*
X114524449Y-89555952D02*
X114524449Y-89463095D01*
X114524449Y-89463095D02*
X114555401Y-89401190D01*
X114555401Y-89401190D02*
X114586354Y-89370238D01*
X114586354Y-89370238D02*
X114648258Y-89339285D01*
X114648258Y-89339285D02*
X114803020Y-89339285D01*
X114803020Y-89339285D02*
X114864925Y-89370238D01*
X114864925Y-89370238D02*
X114895878Y-89401190D01*
X114895878Y-89401190D02*
X114926830Y-89463095D01*
X114926830Y-89463095D02*
X114926830Y-89648809D01*
X114926830Y-89648809D02*
X114895878Y-89710714D01*
X114895878Y-89710714D02*
X114864925Y-89741666D01*
X109242902Y-72717857D02*
X108933378Y-72934524D01*
X109242902Y-73089286D02*
X108592902Y-73089286D01*
X108592902Y-73089286D02*
X108592902Y-72841667D01*
X108592902Y-72841667D02*
X108623854Y-72779762D01*
X108623854Y-72779762D02*
X108654807Y-72748809D01*
X108654807Y-72748809D02*
X108716711Y-72717857D01*
X108716711Y-72717857D02*
X108809569Y-72717857D01*
X108809569Y-72717857D02*
X108871473Y-72748809D01*
X108871473Y-72748809D02*
X108902426Y-72779762D01*
X108902426Y-72779762D02*
X108933378Y-72841667D01*
X108933378Y-72841667D02*
X108933378Y-73089286D01*
X109242902Y-72098809D02*
X109242902Y-72470238D01*
X109242902Y-72284524D02*
X108592902Y-72284524D01*
X108592902Y-72284524D02*
X108685759Y-72346428D01*
X108685759Y-72346428D02*
X108747664Y-72408333D01*
X108747664Y-72408333D02*
X108778616Y-72470238D01*
X108871473Y-71727380D02*
X108840521Y-71789285D01*
X108840521Y-71789285D02*
X108809569Y-71820238D01*
X108809569Y-71820238D02*
X108747664Y-71851190D01*
X108747664Y-71851190D02*
X108716711Y-71851190D01*
X108716711Y-71851190D02*
X108654807Y-71820238D01*
X108654807Y-71820238D02*
X108623854Y-71789285D01*
X108623854Y-71789285D02*
X108592902Y-71727380D01*
X108592902Y-71727380D02*
X108592902Y-71603571D01*
X108592902Y-71603571D02*
X108623854Y-71541666D01*
X108623854Y-71541666D02*
X108654807Y-71510714D01*
X108654807Y-71510714D02*
X108716711Y-71479761D01*
X108716711Y-71479761D02*
X108747664Y-71479761D01*
X108747664Y-71479761D02*
X108809569Y-71510714D01*
X108809569Y-71510714D02*
X108840521Y-71541666D01*
X108840521Y-71541666D02*
X108871473Y-71603571D01*
X108871473Y-71603571D02*
X108871473Y-71727380D01*
X108871473Y-71727380D02*
X108902426Y-71789285D01*
X108902426Y-71789285D02*
X108933378Y-71820238D01*
X108933378Y-71820238D02*
X108995283Y-71851190D01*
X108995283Y-71851190D02*
X109119092Y-71851190D01*
X109119092Y-71851190D02*
X109180997Y-71820238D01*
X109180997Y-71820238D02*
X109211950Y-71789285D01*
X109211950Y-71789285D02*
X109242902Y-71727380D01*
X109242902Y-71727380D02*
X109242902Y-71603571D01*
X109242902Y-71603571D02*
X109211950Y-71541666D01*
X109211950Y-71541666D02*
X109180997Y-71510714D01*
X109180997Y-71510714D02*
X109119092Y-71479761D01*
X109119092Y-71479761D02*
X108995283Y-71479761D01*
X108995283Y-71479761D02*
X108933378Y-71510714D01*
X108933378Y-71510714D02*
X108902426Y-71541666D01*
X108902426Y-71541666D02*
X108871473Y-71603571D01*
X127486638Y-136167857D02*
X127177114Y-136384524D01*
X127486638Y-136539286D02*
X126836638Y-136539286D01*
X126836638Y-136539286D02*
X126836638Y-136291667D01*
X126836638Y-136291667D02*
X126867590Y-136229762D01*
X126867590Y-136229762D02*
X126898543Y-136198809D01*
X126898543Y-136198809D02*
X126960447Y-136167857D01*
X126960447Y-136167857D02*
X127053305Y-136167857D01*
X127053305Y-136167857D02*
X127115209Y-136198809D01*
X127115209Y-136198809D02*
X127146162Y-136229762D01*
X127146162Y-136229762D02*
X127177114Y-136291667D01*
X127177114Y-136291667D02*
X127177114Y-136539286D01*
X127486638Y-135548809D02*
X127486638Y-135920238D01*
X127486638Y-135734524D02*
X126836638Y-135734524D01*
X126836638Y-135734524D02*
X126929495Y-135796428D01*
X126929495Y-135796428D02*
X126991400Y-135858333D01*
X126991400Y-135858333D02*
X127022352Y-135920238D01*
X126836638Y-135332142D02*
X126836638Y-134929761D01*
X126836638Y-134929761D02*
X127084257Y-135146428D01*
X127084257Y-135146428D02*
X127084257Y-135053571D01*
X127084257Y-135053571D02*
X127115209Y-134991666D01*
X127115209Y-134991666D02*
X127146162Y-134960714D01*
X127146162Y-134960714D02*
X127208066Y-134929761D01*
X127208066Y-134929761D02*
X127362828Y-134929761D01*
X127362828Y-134929761D02*
X127424733Y-134960714D01*
X127424733Y-134960714D02*
X127455686Y-134991666D01*
X127455686Y-134991666D02*
X127486638Y-135053571D01*
X127486638Y-135053571D02*
X127486638Y-135239285D01*
X127486638Y-135239285D02*
X127455686Y-135301190D01*
X127455686Y-135301190D02*
X127424733Y-135332142D01*
X127623095Y-116679819D02*
X127623095Y-117489342D01*
X127623095Y-117489342D02*
X127670714Y-117584580D01*
X127670714Y-117584580D02*
X127718333Y-117632200D01*
X127718333Y-117632200D02*
X127813571Y-117679819D01*
X127813571Y-117679819D02*
X128004047Y-117679819D01*
X128004047Y-117679819D02*
X128099285Y-117632200D01*
X128099285Y-117632200D02*
X128146904Y-117584580D01*
X128146904Y-117584580D02*
X128194523Y-117489342D01*
X128194523Y-117489342D02*
X128194523Y-116679819D01*
X128623095Y-116775057D02*
X128670714Y-116727438D01*
X128670714Y-116727438D02*
X128765952Y-116679819D01*
X128765952Y-116679819D02*
X129004047Y-116679819D01*
X129004047Y-116679819D02*
X129099285Y-116727438D01*
X129099285Y-116727438D02*
X129146904Y-116775057D01*
X129146904Y-116775057D02*
X129194523Y-116870295D01*
X129194523Y-116870295D02*
X129194523Y-116965533D01*
X129194523Y-116965533D02*
X129146904Y-117108390D01*
X129146904Y-117108390D02*
X128575476Y-117679819D01*
X128575476Y-117679819D02*
X129194523Y-117679819D01*
X110509580Y-99716666D02*
X110557200Y-99764285D01*
X110557200Y-99764285D02*
X110604819Y-99907142D01*
X110604819Y-99907142D02*
X110604819Y-100002380D01*
X110604819Y-100002380D02*
X110557200Y-100145237D01*
X110557200Y-100145237D02*
X110461961Y-100240475D01*
X110461961Y-100240475D02*
X110366723Y-100288094D01*
X110366723Y-100288094D02*
X110176247Y-100335713D01*
X110176247Y-100335713D02*
X110033390Y-100335713D01*
X110033390Y-100335713D02*
X109842914Y-100288094D01*
X109842914Y-100288094D02*
X109747676Y-100240475D01*
X109747676Y-100240475D02*
X109652438Y-100145237D01*
X109652438Y-100145237D02*
X109604819Y-100002380D01*
X109604819Y-100002380D02*
X109604819Y-99907142D01*
X109604819Y-99907142D02*
X109652438Y-99764285D01*
X109652438Y-99764285D02*
X109700057Y-99716666D01*
X109604819Y-99383332D02*
X109604819Y-98716666D01*
X109604819Y-98716666D02*
X110604819Y-99145237D01*
X128930997Y-74967857D02*
X128961950Y-74998809D01*
X128961950Y-74998809D02*
X128992902Y-75091667D01*
X128992902Y-75091667D02*
X128992902Y-75153571D01*
X128992902Y-75153571D02*
X128961950Y-75246428D01*
X128961950Y-75246428D02*
X128900045Y-75308333D01*
X128900045Y-75308333D02*
X128838140Y-75339286D01*
X128838140Y-75339286D02*
X128714330Y-75370238D01*
X128714330Y-75370238D02*
X128621473Y-75370238D01*
X128621473Y-75370238D02*
X128497664Y-75339286D01*
X128497664Y-75339286D02*
X128435759Y-75308333D01*
X128435759Y-75308333D02*
X128373854Y-75246428D01*
X128373854Y-75246428D02*
X128342902Y-75153571D01*
X128342902Y-75153571D02*
X128342902Y-75091667D01*
X128342902Y-75091667D02*
X128373854Y-74998809D01*
X128373854Y-74998809D02*
X128404807Y-74967857D01*
X128404807Y-74720238D02*
X128373854Y-74689286D01*
X128373854Y-74689286D02*
X128342902Y-74627381D01*
X128342902Y-74627381D02*
X128342902Y-74472619D01*
X128342902Y-74472619D02*
X128373854Y-74410714D01*
X128373854Y-74410714D02*
X128404807Y-74379762D01*
X128404807Y-74379762D02*
X128466711Y-74348809D01*
X128466711Y-74348809D02*
X128528616Y-74348809D01*
X128528616Y-74348809D02*
X128621473Y-74379762D01*
X128621473Y-74379762D02*
X128992902Y-74751190D01*
X128992902Y-74751190D02*
X128992902Y-74348809D01*
X128559569Y-73791666D02*
X128992902Y-73791666D01*
X128311950Y-73946428D02*
X128776235Y-74101190D01*
X128776235Y-74101190D02*
X128776235Y-73698809D01*
X113136638Y-124833333D02*
X112827114Y-125050000D01*
X113136638Y-125204762D02*
X112486638Y-125204762D01*
X112486638Y-125204762D02*
X112486638Y-124957143D01*
X112486638Y-124957143D02*
X112517590Y-124895238D01*
X112517590Y-124895238D02*
X112548543Y-124864285D01*
X112548543Y-124864285D02*
X112610447Y-124833333D01*
X112610447Y-124833333D02*
X112703305Y-124833333D01*
X112703305Y-124833333D02*
X112765209Y-124864285D01*
X112765209Y-124864285D02*
X112796162Y-124895238D01*
X112796162Y-124895238D02*
X112827114Y-124957143D01*
X112827114Y-124957143D02*
X112827114Y-125204762D01*
X112703305Y-124276190D02*
X113136638Y-124276190D01*
X112455686Y-124430952D02*
X112919971Y-124585714D01*
X112919971Y-124585714D02*
X112919971Y-124183333D01*
X117242902Y-71067857D02*
X116933378Y-71284524D01*
X117242902Y-71439286D02*
X116592902Y-71439286D01*
X116592902Y-71439286D02*
X116592902Y-71191667D01*
X116592902Y-71191667D02*
X116623854Y-71129762D01*
X116623854Y-71129762D02*
X116654807Y-71098809D01*
X116654807Y-71098809D02*
X116716711Y-71067857D01*
X116716711Y-71067857D02*
X116809569Y-71067857D01*
X116809569Y-71067857D02*
X116871473Y-71098809D01*
X116871473Y-71098809D02*
X116902426Y-71129762D01*
X116902426Y-71129762D02*
X116933378Y-71191667D01*
X116933378Y-71191667D02*
X116933378Y-71439286D01*
X117242902Y-70448809D02*
X117242902Y-70820238D01*
X117242902Y-70634524D02*
X116592902Y-70634524D01*
X116592902Y-70634524D02*
X116685759Y-70696428D01*
X116685759Y-70696428D02*
X116747664Y-70758333D01*
X116747664Y-70758333D02*
X116778616Y-70820238D01*
X117242902Y-70139285D02*
X117242902Y-70015476D01*
X117242902Y-70015476D02*
X117211950Y-69953571D01*
X117211950Y-69953571D02*
X117180997Y-69922619D01*
X117180997Y-69922619D02*
X117088140Y-69860714D01*
X117088140Y-69860714D02*
X116964330Y-69829761D01*
X116964330Y-69829761D02*
X116716711Y-69829761D01*
X116716711Y-69829761D02*
X116654807Y-69860714D01*
X116654807Y-69860714D02*
X116623854Y-69891666D01*
X116623854Y-69891666D02*
X116592902Y-69953571D01*
X116592902Y-69953571D02*
X116592902Y-70077380D01*
X116592902Y-70077380D02*
X116623854Y-70139285D01*
X116623854Y-70139285D02*
X116654807Y-70170238D01*
X116654807Y-70170238D02*
X116716711Y-70201190D01*
X116716711Y-70201190D02*
X116871473Y-70201190D01*
X116871473Y-70201190D02*
X116933378Y-70170238D01*
X116933378Y-70170238D02*
X116964330Y-70139285D01*
X116964330Y-70139285D02*
X116995283Y-70077380D01*
X116995283Y-70077380D02*
X116995283Y-69953571D01*
X116995283Y-69953571D02*
X116964330Y-69891666D01*
X116964330Y-69891666D02*
X116933378Y-69860714D01*
X116933378Y-69860714D02*
X116871473Y-69829761D01*
X127685402Y-138542902D02*
X127468735Y-138233378D01*
X127313973Y-138542902D02*
X127313973Y-137892902D01*
X127313973Y-137892902D02*
X127561592Y-137892902D01*
X127561592Y-137892902D02*
X127623497Y-137923854D01*
X127623497Y-137923854D02*
X127654450Y-137954807D01*
X127654450Y-137954807D02*
X127685402Y-138016711D01*
X127685402Y-138016711D02*
X127685402Y-138109569D01*
X127685402Y-138109569D02*
X127654450Y-138171473D01*
X127654450Y-138171473D02*
X127623497Y-138202426D01*
X127623497Y-138202426D02*
X127561592Y-138233378D01*
X127561592Y-138233378D02*
X127313973Y-138233378D01*
X127994926Y-138542902D02*
X128118735Y-138542902D01*
X128118735Y-138542902D02*
X128180640Y-138511950D01*
X128180640Y-138511950D02*
X128211592Y-138480997D01*
X128211592Y-138480997D02*
X128273497Y-138388140D01*
X128273497Y-138388140D02*
X128304450Y-138264330D01*
X128304450Y-138264330D02*
X128304450Y-138016711D01*
X128304450Y-138016711D02*
X128273497Y-137954807D01*
X128273497Y-137954807D02*
X128242545Y-137923854D01*
X128242545Y-137923854D02*
X128180640Y-137892902D01*
X128180640Y-137892902D02*
X128056831Y-137892902D01*
X128056831Y-137892902D02*
X127994926Y-137923854D01*
X127994926Y-137923854D02*
X127963973Y-137954807D01*
X127963973Y-137954807D02*
X127933021Y-138016711D01*
X127933021Y-138016711D02*
X127933021Y-138171473D01*
X127933021Y-138171473D02*
X127963973Y-138233378D01*
X127963973Y-138233378D02*
X127994926Y-138264330D01*
X127994926Y-138264330D02*
X128056831Y-138295283D01*
X128056831Y-138295283D02*
X128180640Y-138295283D01*
X128180640Y-138295283D02*
X128242545Y-138264330D01*
X128242545Y-138264330D02*
X128273497Y-138233378D01*
X128273497Y-138233378D02*
X128304450Y-138171473D01*
X116126830Y-74067857D02*
X115817306Y-74284524D01*
X116126830Y-74439286D02*
X115476830Y-74439286D01*
X115476830Y-74439286D02*
X115476830Y-74191667D01*
X115476830Y-74191667D02*
X115507782Y-74129762D01*
X115507782Y-74129762D02*
X115538735Y-74098809D01*
X115538735Y-74098809D02*
X115600639Y-74067857D01*
X115600639Y-74067857D02*
X115693497Y-74067857D01*
X115693497Y-74067857D02*
X115755401Y-74098809D01*
X115755401Y-74098809D02*
X115786354Y-74129762D01*
X115786354Y-74129762D02*
X115817306Y-74191667D01*
X115817306Y-74191667D02*
X115817306Y-74439286D01*
X115538735Y-73820238D02*
X115507782Y-73789286D01*
X115507782Y-73789286D02*
X115476830Y-73727381D01*
X115476830Y-73727381D02*
X115476830Y-73572619D01*
X115476830Y-73572619D02*
X115507782Y-73510714D01*
X115507782Y-73510714D02*
X115538735Y-73479762D01*
X115538735Y-73479762D02*
X115600639Y-73448809D01*
X115600639Y-73448809D02*
X115662544Y-73448809D01*
X115662544Y-73448809D02*
X115755401Y-73479762D01*
X115755401Y-73479762D02*
X116126830Y-73851190D01*
X116126830Y-73851190D02*
X116126830Y-73448809D01*
X115476830Y-72860714D02*
X115476830Y-73170238D01*
X115476830Y-73170238D02*
X115786354Y-73201190D01*
X115786354Y-73201190D02*
X115755401Y-73170238D01*
X115755401Y-73170238D02*
X115724449Y-73108333D01*
X115724449Y-73108333D02*
X115724449Y-72953571D01*
X115724449Y-72953571D02*
X115755401Y-72891666D01*
X115755401Y-72891666D02*
X115786354Y-72860714D01*
X115786354Y-72860714D02*
X115848258Y-72829761D01*
X115848258Y-72829761D02*
X116003020Y-72829761D01*
X116003020Y-72829761D02*
X116064925Y-72860714D01*
X116064925Y-72860714D02*
X116095878Y-72891666D01*
X116095878Y-72891666D02*
X116126830Y-72953571D01*
X116126830Y-72953571D02*
X116126830Y-73108333D01*
X116126830Y-73108333D02*
X116095878Y-73170238D01*
X116095878Y-73170238D02*
X116064925Y-73201190D01*
X132750594Y-54144819D02*
X132750594Y-54859104D01*
X132750594Y-54859104D02*
X132702975Y-55001961D01*
X132702975Y-55001961D02*
X132607737Y-55097200D01*
X132607737Y-55097200D02*
X132464880Y-55144819D01*
X132464880Y-55144819D02*
X132369642Y-55144819D01*
X133179166Y-54240057D02*
X133226785Y-54192438D01*
X133226785Y-54192438D02*
X133322023Y-54144819D01*
X133322023Y-54144819D02*
X133560118Y-54144819D01*
X133560118Y-54144819D02*
X133655356Y-54192438D01*
X133655356Y-54192438D02*
X133702975Y-54240057D01*
X133702975Y-54240057D02*
X133750594Y-54335295D01*
X133750594Y-54335295D02*
X133750594Y-54430533D01*
X133750594Y-54430533D02*
X133702975Y-54573390D01*
X133702975Y-54573390D02*
X133131547Y-55144819D01*
X133131547Y-55144819D02*
X133750594Y-55144819D01*
X112126830Y-74067857D02*
X111817306Y-74284524D01*
X112126830Y-74439286D02*
X111476830Y-74439286D01*
X111476830Y-74439286D02*
X111476830Y-74191667D01*
X111476830Y-74191667D02*
X111507782Y-74129762D01*
X111507782Y-74129762D02*
X111538735Y-74098809D01*
X111538735Y-74098809D02*
X111600639Y-74067857D01*
X111600639Y-74067857D02*
X111693497Y-74067857D01*
X111693497Y-74067857D02*
X111755401Y-74098809D01*
X111755401Y-74098809D02*
X111786354Y-74129762D01*
X111786354Y-74129762D02*
X111817306Y-74191667D01*
X111817306Y-74191667D02*
X111817306Y-74439286D01*
X111538735Y-73820238D02*
X111507782Y-73789286D01*
X111507782Y-73789286D02*
X111476830Y-73727381D01*
X111476830Y-73727381D02*
X111476830Y-73572619D01*
X111476830Y-73572619D02*
X111507782Y-73510714D01*
X111507782Y-73510714D02*
X111538735Y-73479762D01*
X111538735Y-73479762D02*
X111600639Y-73448809D01*
X111600639Y-73448809D02*
X111662544Y-73448809D01*
X111662544Y-73448809D02*
X111755401Y-73479762D01*
X111755401Y-73479762D02*
X112126830Y-73851190D01*
X112126830Y-73851190D02*
X112126830Y-73448809D01*
X111476830Y-72891666D02*
X111476830Y-73015476D01*
X111476830Y-73015476D02*
X111507782Y-73077380D01*
X111507782Y-73077380D02*
X111538735Y-73108333D01*
X111538735Y-73108333D02*
X111631592Y-73170238D01*
X111631592Y-73170238D02*
X111755401Y-73201190D01*
X111755401Y-73201190D02*
X112003020Y-73201190D01*
X112003020Y-73201190D02*
X112064925Y-73170238D01*
X112064925Y-73170238D02*
X112095878Y-73139285D01*
X112095878Y-73139285D02*
X112126830Y-73077380D01*
X112126830Y-73077380D02*
X112126830Y-72953571D01*
X112126830Y-72953571D02*
X112095878Y-72891666D01*
X112095878Y-72891666D02*
X112064925Y-72860714D01*
X112064925Y-72860714D02*
X112003020Y-72829761D01*
X112003020Y-72829761D02*
X111848258Y-72829761D01*
X111848258Y-72829761D02*
X111786354Y-72860714D01*
X111786354Y-72860714D02*
X111755401Y-72891666D01*
X111755401Y-72891666D02*
X111724449Y-72953571D01*
X111724449Y-72953571D02*
X111724449Y-73077380D01*
X111724449Y-73077380D02*
X111755401Y-73139285D01*
X111755401Y-73139285D02*
X111786354Y-73170238D01*
X111786354Y-73170238D02*
X111848258Y-73201190D01*
X110582142Y-81230997D02*
X110551190Y-81261950D01*
X110551190Y-81261950D02*
X110458332Y-81292902D01*
X110458332Y-81292902D02*
X110396428Y-81292902D01*
X110396428Y-81292902D02*
X110303571Y-81261950D01*
X110303571Y-81261950D02*
X110241666Y-81200045D01*
X110241666Y-81200045D02*
X110210713Y-81138140D01*
X110210713Y-81138140D02*
X110179761Y-81014330D01*
X110179761Y-81014330D02*
X110179761Y-80921473D01*
X110179761Y-80921473D02*
X110210713Y-80797664D01*
X110210713Y-80797664D02*
X110241666Y-80735759D01*
X110241666Y-80735759D02*
X110303571Y-80673854D01*
X110303571Y-80673854D02*
X110396428Y-80642902D01*
X110396428Y-80642902D02*
X110458332Y-80642902D01*
X110458332Y-80642902D02*
X110551190Y-80673854D01*
X110551190Y-80673854D02*
X110582142Y-80704807D01*
X110798809Y-80642902D02*
X111201190Y-80642902D01*
X111201190Y-80642902D02*
X110984523Y-80890521D01*
X110984523Y-80890521D02*
X111077380Y-80890521D01*
X111077380Y-80890521D02*
X111139285Y-80921473D01*
X111139285Y-80921473D02*
X111170237Y-80952426D01*
X111170237Y-80952426D02*
X111201190Y-81014330D01*
X111201190Y-81014330D02*
X111201190Y-81169092D01*
X111201190Y-81169092D02*
X111170237Y-81230997D01*
X111170237Y-81230997D02*
X111139285Y-81261950D01*
X111139285Y-81261950D02*
X111077380Y-81292902D01*
X111077380Y-81292902D02*
X110891666Y-81292902D01*
X110891666Y-81292902D02*
X110829761Y-81261950D01*
X110829761Y-81261950D02*
X110798809Y-81230997D01*
X111603571Y-80642902D02*
X111665476Y-80642902D01*
X111665476Y-80642902D02*
X111727380Y-80673854D01*
X111727380Y-80673854D02*
X111758333Y-80704807D01*
X111758333Y-80704807D02*
X111789285Y-80766711D01*
X111789285Y-80766711D02*
X111820238Y-80890521D01*
X111820238Y-80890521D02*
X111820238Y-81045283D01*
X111820238Y-81045283D02*
X111789285Y-81169092D01*
X111789285Y-81169092D02*
X111758333Y-81230997D01*
X111758333Y-81230997D02*
X111727380Y-81261950D01*
X111727380Y-81261950D02*
X111665476Y-81292902D01*
X111665476Y-81292902D02*
X111603571Y-81292902D01*
X111603571Y-81292902D02*
X111541666Y-81261950D01*
X111541666Y-81261950D02*
X111510714Y-81230997D01*
X111510714Y-81230997D02*
X111479761Y-81169092D01*
X111479761Y-81169092D02*
X111448809Y-81045283D01*
X111448809Y-81045283D02*
X111448809Y-80890521D01*
X111448809Y-80890521D02*
X111479761Y-80766711D01*
X111479761Y-80766711D02*
X111510714Y-80704807D01*
X111510714Y-80704807D02*
X111541666Y-80673854D01*
X111541666Y-80673854D02*
X111603571Y-80642902D01*
X109895833Y-93704819D02*
X109895833Y-92704819D01*
X109895833Y-92704819D02*
X110133928Y-92704819D01*
X110133928Y-92704819D02*
X110276785Y-92752438D01*
X110276785Y-92752438D02*
X110372023Y-92847676D01*
X110372023Y-92847676D02*
X110419642Y-92942914D01*
X110419642Y-92942914D02*
X110467261Y-93133390D01*
X110467261Y-93133390D02*
X110467261Y-93276247D01*
X110467261Y-93276247D02*
X110419642Y-93466723D01*
X110419642Y-93466723D02*
X110372023Y-93561961D01*
X110372023Y-93561961D02*
X110276785Y-93657200D01*
X110276785Y-93657200D02*
X110133928Y-93704819D01*
X110133928Y-93704819D02*
X109895833Y-93704819D01*
X111419642Y-93704819D02*
X110848214Y-93704819D01*
X111133928Y-93704819D02*
X111133928Y-92704819D01*
X111133928Y-92704819D02*
X111038690Y-92847676D01*
X111038690Y-92847676D02*
X110943452Y-92942914D01*
X110943452Y-92942914D02*
X110848214Y-92990533D01*
X114542902Y-71067857D02*
X114233378Y-71284524D01*
X114542902Y-71439286D02*
X113892902Y-71439286D01*
X113892902Y-71439286D02*
X113892902Y-71191667D01*
X113892902Y-71191667D02*
X113923854Y-71129762D01*
X113923854Y-71129762D02*
X113954807Y-71098809D01*
X113954807Y-71098809D02*
X114016711Y-71067857D01*
X114016711Y-71067857D02*
X114109569Y-71067857D01*
X114109569Y-71067857D02*
X114171473Y-71098809D01*
X114171473Y-71098809D02*
X114202426Y-71129762D01*
X114202426Y-71129762D02*
X114233378Y-71191667D01*
X114233378Y-71191667D02*
X114233378Y-71439286D01*
X113954807Y-70820238D02*
X113923854Y-70789286D01*
X113923854Y-70789286D02*
X113892902Y-70727381D01*
X113892902Y-70727381D02*
X113892902Y-70572619D01*
X113892902Y-70572619D02*
X113923854Y-70510714D01*
X113923854Y-70510714D02*
X113954807Y-70479762D01*
X113954807Y-70479762D02*
X114016711Y-70448809D01*
X114016711Y-70448809D02*
X114078616Y-70448809D01*
X114078616Y-70448809D02*
X114171473Y-70479762D01*
X114171473Y-70479762D02*
X114542902Y-70851190D01*
X114542902Y-70851190D02*
X114542902Y-70448809D01*
X113892902Y-70232142D02*
X113892902Y-69798809D01*
X113892902Y-69798809D02*
X114542902Y-70077380D01*
X110926830Y-89958333D02*
X110617306Y-90175000D01*
X110926830Y-90329762D02*
X110276830Y-90329762D01*
X110276830Y-90329762D02*
X110276830Y-90082143D01*
X110276830Y-90082143D02*
X110307782Y-90020238D01*
X110307782Y-90020238D02*
X110338735Y-89989285D01*
X110338735Y-89989285D02*
X110400639Y-89958333D01*
X110400639Y-89958333D02*
X110493497Y-89958333D01*
X110493497Y-89958333D02*
X110555401Y-89989285D01*
X110555401Y-89989285D02*
X110586354Y-90020238D01*
X110586354Y-90020238D02*
X110617306Y-90082143D01*
X110617306Y-90082143D02*
X110617306Y-90329762D01*
X110926830Y-89339285D02*
X110926830Y-89710714D01*
X110926830Y-89525000D02*
X110276830Y-89525000D01*
X110276830Y-89525000D02*
X110369687Y-89586904D01*
X110369687Y-89586904D02*
X110431592Y-89648809D01*
X110431592Y-89648809D02*
X110462544Y-89710714D01*
X125842902Y-133458333D02*
X125533378Y-133675000D01*
X125842902Y-133829762D02*
X125192902Y-133829762D01*
X125192902Y-133829762D02*
X125192902Y-133582143D01*
X125192902Y-133582143D02*
X125223854Y-133520238D01*
X125223854Y-133520238D02*
X125254807Y-133489285D01*
X125254807Y-133489285D02*
X125316711Y-133458333D01*
X125316711Y-133458333D02*
X125409569Y-133458333D01*
X125409569Y-133458333D02*
X125471473Y-133489285D01*
X125471473Y-133489285D02*
X125502426Y-133520238D01*
X125502426Y-133520238D02*
X125533378Y-133582143D01*
X125533378Y-133582143D02*
X125533378Y-133829762D01*
X125471473Y-133086904D02*
X125440521Y-133148809D01*
X125440521Y-133148809D02*
X125409569Y-133179762D01*
X125409569Y-133179762D02*
X125347664Y-133210714D01*
X125347664Y-133210714D02*
X125316711Y-133210714D01*
X125316711Y-133210714D02*
X125254807Y-133179762D01*
X125254807Y-133179762D02*
X125223854Y-133148809D01*
X125223854Y-133148809D02*
X125192902Y-133086904D01*
X125192902Y-133086904D02*
X125192902Y-132963095D01*
X125192902Y-132963095D02*
X125223854Y-132901190D01*
X125223854Y-132901190D02*
X125254807Y-132870238D01*
X125254807Y-132870238D02*
X125316711Y-132839285D01*
X125316711Y-132839285D02*
X125347664Y-132839285D01*
X125347664Y-132839285D02*
X125409569Y-132870238D01*
X125409569Y-132870238D02*
X125440521Y-132901190D01*
X125440521Y-132901190D02*
X125471473Y-132963095D01*
X125471473Y-132963095D02*
X125471473Y-133086904D01*
X125471473Y-133086904D02*
X125502426Y-133148809D01*
X125502426Y-133148809D02*
X125533378Y-133179762D01*
X125533378Y-133179762D02*
X125595283Y-133210714D01*
X125595283Y-133210714D02*
X125719092Y-133210714D01*
X125719092Y-133210714D02*
X125780997Y-133179762D01*
X125780997Y-133179762D02*
X125811950Y-133148809D01*
X125811950Y-133148809D02*
X125842902Y-133086904D01*
X125842902Y-133086904D02*
X125842902Y-132963095D01*
X125842902Y-132963095D02*
X125811950Y-132901190D01*
X125811950Y-132901190D02*
X125780997Y-132870238D01*
X125780997Y-132870238D02*
X125719092Y-132839285D01*
X125719092Y-132839285D02*
X125595283Y-132839285D01*
X125595283Y-132839285D02*
X125533378Y-132870238D01*
X125533378Y-132870238D02*
X125502426Y-132901190D01*
X125502426Y-132901190D02*
X125471473Y-132963095D01*
X120376785Y-93719771D02*
X120376785Y-94205485D01*
X120376785Y-94205485D02*
X120405356Y-94262628D01*
X120405356Y-94262628D02*
X120433928Y-94291200D01*
X120433928Y-94291200D02*
X120491070Y-94319771D01*
X120491070Y-94319771D02*
X120605356Y-94319771D01*
X120605356Y-94319771D02*
X120662499Y-94291200D01*
X120662499Y-94291200D02*
X120691070Y-94262628D01*
X120691070Y-94262628D02*
X120719642Y-94205485D01*
X120719642Y-94205485D02*
X120719642Y-93719771D01*
X121262499Y-93919771D02*
X121262499Y-94319771D01*
X121119641Y-93691200D02*
X120976784Y-94119771D01*
X120976784Y-94119771D02*
X121348213Y-94119771D01*
X118842902Y-71067857D02*
X118533378Y-71284524D01*
X118842902Y-71439286D02*
X118192902Y-71439286D01*
X118192902Y-71439286D02*
X118192902Y-71191667D01*
X118192902Y-71191667D02*
X118223854Y-71129762D01*
X118223854Y-71129762D02*
X118254807Y-71098809D01*
X118254807Y-71098809D02*
X118316711Y-71067857D01*
X118316711Y-71067857D02*
X118409569Y-71067857D01*
X118409569Y-71067857D02*
X118471473Y-71098809D01*
X118471473Y-71098809D02*
X118502426Y-71129762D01*
X118502426Y-71129762D02*
X118533378Y-71191667D01*
X118533378Y-71191667D02*
X118533378Y-71439286D01*
X118254807Y-70820238D02*
X118223854Y-70789286D01*
X118223854Y-70789286D02*
X118192902Y-70727381D01*
X118192902Y-70727381D02*
X118192902Y-70572619D01*
X118192902Y-70572619D02*
X118223854Y-70510714D01*
X118223854Y-70510714D02*
X118254807Y-70479762D01*
X118254807Y-70479762D02*
X118316711Y-70448809D01*
X118316711Y-70448809D02*
X118378616Y-70448809D01*
X118378616Y-70448809D02*
X118471473Y-70479762D01*
X118471473Y-70479762D02*
X118842902Y-70851190D01*
X118842902Y-70851190D02*
X118842902Y-70448809D01*
X118192902Y-70046428D02*
X118192902Y-69984523D01*
X118192902Y-69984523D02*
X118223854Y-69922619D01*
X118223854Y-69922619D02*
X118254807Y-69891666D01*
X118254807Y-69891666D02*
X118316711Y-69860714D01*
X118316711Y-69860714D02*
X118440521Y-69829761D01*
X118440521Y-69829761D02*
X118595283Y-69829761D01*
X118595283Y-69829761D02*
X118719092Y-69860714D01*
X118719092Y-69860714D02*
X118780997Y-69891666D01*
X118780997Y-69891666D02*
X118811950Y-69922619D01*
X118811950Y-69922619D02*
X118842902Y-69984523D01*
X118842902Y-69984523D02*
X118842902Y-70046428D01*
X118842902Y-70046428D02*
X118811950Y-70108333D01*
X118811950Y-70108333D02*
X118780997Y-70139285D01*
X118780997Y-70139285D02*
X118719092Y-70170238D01*
X118719092Y-70170238D02*
X118595283Y-70201190D01*
X118595283Y-70201190D02*
X118440521Y-70201190D01*
X118440521Y-70201190D02*
X118316711Y-70170238D01*
X118316711Y-70170238D02*
X118254807Y-70139285D01*
X118254807Y-70139285D02*
X118223854Y-70108333D01*
X118223854Y-70108333D02*
X118192902Y-70046428D01*
X126288747Y-103788094D02*
X125288747Y-103788094D01*
X125288747Y-103788094D02*
X125288747Y-103549999D01*
X125288747Y-103549999D02*
X125336366Y-103407142D01*
X125336366Y-103407142D02*
X125431604Y-103311904D01*
X125431604Y-103311904D02*
X125526842Y-103264285D01*
X125526842Y-103264285D02*
X125717318Y-103216666D01*
X125717318Y-103216666D02*
X125860175Y-103216666D01*
X125860175Y-103216666D02*
X126050651Y-103264285D01*
X126050651Y-103264285D02*
X126145889Y-103311904D01*
X126145889Y-103311904D02*
X126241128Y-103407142D01*
X126241128Y-103407142D02*
X126288747Y-103549999D01*
X126288747Y-103549999D02*
X126288747Y-103788094D01*
X125288747Y-102883332D02*
X125288747Y-102216666D01*
X125288747Y-102216666D02*
X126288747Y-102645237D01*
X129532142Y-78180997D02*
X129501190Y-78211950D01*
X129501190Y-78211950D02*
X129408332Y-78242902D01*
X129408332Y-78242902D02*
X129346428Y-78242902D01*
X129346428Y-78242902D02*
X129253571Y-78211950D01*
X129253571Y-78211950D02*
X129191666Y-78150045D01*
X129191666Y-78150045D02*
X129160713Y-78088140D01*
X129160713Y-78088140D02*
X129129761Y-77964330D01*
X129129761Y-77964330D02*
X129129761Y-77871473D01*
X129129761Y-77871473D02*
X129160713Y-77747664D01*
X129160713Y-77747664D02*
X129191666Y-77685759D01*
X129191666Y-77685759D02*
X129253571Y-77623854D01*
X129253571Y-77623854D02*
X129346428Y-77592902D01*
X129346428Y-77592902D02*
X129408332Y-77592902D01*
X129408332Y-77592902D02*
X129501190Y-77623854D01*
X129501190Y-77623854D02*
X129532142Y-77654807D01*
X130151190Y-78242902D02*
X129779761Y-78242902D01*
X129965475Y-78242902D02*
X129965475Y-77592902D01*
X129965475Y-77592902D02*
X129903571Y-77685759D01*
X129903571Y-77685759D02*
X129841666Y-77747664D01*
X129841666Y-77747664D02*
X129779761Y-77778616D01*
X130739285Y-77592902D02*
X130429761Y-77592902D01*
X130429761Y-77592902D02*
X130398809Y-77902426D01*
X130398809Y-77902426D02*
X130429761Y-77871473D01*
X130429761Y-77871473D02*
X130491666Y-77840521D01*
X130491666Y-77840521D02*
X130646428Y-77840521D01*
X130646428Y-77840521D02*
X130708333Y-77871473D01*
X130708333Y-77871473D02*
X130739285Y-77902426D01*
X130739285Y-77902426D02*
X130770238Y-77964330D01*
X130770238Y-77964330D02*
X130770238Y-78119092D01*
X130770238Y-78119092D02*
X130739285Y-78180997D01*
X130739285Y-78180997D02*
X130708333Y-78211950D01*
X130708333Y-78211950D02*
X130646428Y-78242902D01*
X130646428Y-78242902D02*
X130491666Y-78242902D01*
X130491666Y-78242902D02*
X130429761Y-78211950D01*
X130429761Y-78211950D02*
X130398809Y-78180997D01*
X128980997Y-71467857D02*
X129011950Y-71498809D01*
X129011950Y-71498809D02*
X129042902Y-71591667D01*
X129042902Y-71591667D02*
X129042902Y-71653571D01*
X129042902Y-71653571D02*
X129011950Y-71746428D01*
X129011950Y-71746428D02*
X128950045Y-71808333D01*
X128950045Y-71808333D02*
X128888140Y-71839286D01*
X128888140Y-71839286D02*
X128764330Y-71870238D01*
X128764330Y-71870238D02*
X128671473Y-71870238D01*
X128671473Y-71870238D02*
X128547664Y-71839286D01*
X128547664Y-71839286D02*
X128485759Y-71808333D01*
X128485759Y-71808333D02*
X128423854Y-71746428D01*
X128423854Y-71746428D02*
X128392902Y-71653571D01*
X128392902Y-71653571D02*
X128392902Y-71591667D01*
X128392902Y-71591667D02*
X128423854Y-71498809D01*
X128423854Y-71498809D02*
X128454807Y-71467857D01*
X128454807Y-71220238D02*
X128423854Y-71189286D01*
X128423854Y-71189286D02*
X128392902Y-71127381D01*
X128392902Y-71127381D02*
X128392902Y-70972619D01*
X128392902Y-70972619D02*
X128423854Y-70910714D01*
X128423854Y-70910714D02*
X128454807Y-70879762D01*
X128454807Y-70879762D02*
X128516711Y-70848809D01*
X128516711Y-70848809D02*
X128578616Y-70848809D01*
X128578616Y-70848809D02*
X128671473Y-70879762D01*
X128671473Y-70879762D02*
X129042902Y-71251190D01*
X129042902Y-71251190D02*
X129042902Y-70848809D01*
X128392902Y-70632142D02*
X128392902Y-70229761D01*
X128392902Y-70229761D02*
X128640521Y-70446428D01*
X128640521Y-70446428D02*
X128640521Y-70353571D01*
X128640521Y-70353571D02*
X128671473Y-70291666D01*
X128671473Y-70291666D02*
X128702426Y-70260714D01*
X128702426Y-70260714D02*
X128764330Y-70229761D01*
X128764330Y-70229761D02*
X128919092Y-70229761D01*
X128919092Y-70229761D02*
X128980997Y-70260714D01*
X128980997Y-70260714D02*
X129011950Y-70291666D01*
X129011950Y-70291666D02*
X129042902Y-70353571D01*
X129042902Y-70353571D02*
X129042902Y-70539285D01*
X129042902Y-70539285D02*
X129011950Y-70601190D01*
X129011950Y-70601190D02*
X128980997Y-70632142D01*
X113980997Y-62667857D02*
X114011950Y-62698809D01*
X114011950Y-62698809D02*
X114042902Y-62791667D01*
X114042902Y-62791667D02*
X114042902Y-62853571D01*
X114042902Y-62853571D02*
X114011950Y-62946428D01*
X114011950Y-62946428D02*
X113950045Y-63008333D01*
X113950045Y-63008333D02*
X113888140Y-63039286D01*
X113888140Y-63039286D02*
X113764330Y-63070238D01*
X113764330Y-63070238D02*
X113671473Y-63070238D01*
X113671473Y-63070238D02*
X113547664Y-63039286D01*
X113547664Y-63039286D02*
X113485759Y-63008333D01*
X113485759Y-63008333D02*
X113423854Y-62946428D01*
X113423854Y-62946428D02*
X113392902Y-62853571D01*
X113392902Y-62853571D02*
X113392902Y-62791667D01*
X113392902Y-62791667D02*
X113423854Y-62698809D01*
X113423854Y-62698809D02*
X113454807Y-62667857D01*
X113454807Y-62420238D02*
X113423854Y-62389286D01*
X113423854Y-62389286D02*
X113392902Y-62327381D01*
X113392902Y-62327381D02*
X113392902Y-62172619D01*
X113392902Y-62172619D02*
X113423854Y-62110714D01*
X113423854Y-62110714D02*
X113454807Y-62079762D01*
X113454807Y-62079762D02*
X113516711Y-62048809D01*
X113516711Y-62048809D02*
X113578616Y-62048809D01*
X113578616Y-62048809D02*
X113671473Y-62079762D01*
X113671473Y-62079762D02*
X114042902Y-62451190D01*
X114042902Y-62451190D02*
X114042902Y-62048809D01*
X113671473Y-61677380D02*
X113640521Y-61739285D01*
X113640521Y-61739285D02*
X113609569Y-61770238D01*
X113609569Y-61770238D02*
X113547664Y-61801190D01*
X113547664Y-61801190D02*
X113516711Y-61801190D01*
X113516711Y-61801190D02*
X113454807Y-61770238D01*
X113454807Y-61770238D02*
X113423854Y-61739285D01*
X113423854Y-61739285D02*
X113392902Y-61677380D01*
X113392902Y-61677380D02*
X113392902Y-61553571D01*
X113392902Y-61553571D02*
X113423854Y-61491666D01*
X113423854Y-61491666D02*
X113454807Y-61460714D01*
X113454807Y-61460714D02*
X113516711Y-61429761D01*
X113516711Y-61429761D02*
X113547664Y-61429761D01*
X113547664Y-61429761D02*
X113609569Y-61460714D01*
X113609569Y-61460714D02*
X113640521Y-61491666D01*
X113640521Y-61491666D02*
X113671473Y-61553571D01*
X113671473Y-61553571D02*
X113671473Y-61677380D01*
X113671473Y-61677380D02*
X113702426Y-61739285D01*
X113702426Y-61739285D02*
X113733378Y-61770238D01*
X113733378Y-61770238D02*
X113795283Y-61801190D01*
X113795283Y-61801190D02*
X113919092Y-61801190D01*
X113919092Y-61801190D02*
X113980997Y-61770238D01*
X113980997Y-61770238D02*
X114011950Y-61739285D01*
X114011950Y-61739285D02*
X114042902Y-61677380D01*
X114042902Y-61677380D02*
X114042902Y-61553571D01*
X114042902Y-61553571D02*
X114011950Y-61491666D01*
X114011950Y-61491666D02*
X113980997Y-61460714D01*
X113980997Y-61460714D02*
X113919092Y-61429761D01*
X113919092Y-61429761D02*
X113795283Y-61429761D01*
X113795283Y-61429761D02*
X113733378Y-61460714D01*
X113733378Y-61460714D02*
X113702426Y-61491666D01*
X113702426Y-61491666D02*
X113671473Y-61553571D01*
X113042902Y-70967857D02*
X112733378Y-71184524D01*
X113042902Y-71339286D02*
X112392902Y-71339286D01*
X112392902Y-71339286D02*
X112392902Y-71091667D01*
X112392902Y-71091667D02*
X112423854Y-71029762D01*
X112423854Y-71029762D02*
X112454807Y-70998809D01*
X112454807Y-70998809D02*
X112516711Y-70967857D01*
X112516711Y-70967857D02*
X112609569Y-70967857D01*
X112609569Y-70967857D02*
X112671473Y-70998809D01*
X112671473Y-70998809D02*
X112702426Y-71029762D01*
X112702426Y-71029762D02*
X112733378Y-71091667D01*
X112733378Y-71091667D02*
X112733378Y-71339286D01*
X112454807Y-70720238D02*
X112423854Y-70689286D01*
X112423854Y-70689286D02*
X112392902Y-70627381D01*
X112392902Y-70627381D02*
X112392902Y-70472619D01*
X112392902Y-70472619D02*
X112423854Y-70410714D01*
X112423854Y-70410714D02*
X112454807Y-70379762D01*
X112454807Y-70379762D02*
X112516711Y-70348809D01*
X112516711Y-70348809D02*
X112578616Y-70348809D01*
X112578616Y-70348809D02*
X112671473Y-70379762D01*
X112671473Y-70379762D02*
X113042902Y-70751190D01*
X113042902Y-70751190D02*
X113042902Y-70348809D01*
X112609569Y-69791666D02*
X113042902Y-69791666D01*
X112361950Y-69946428D02*
X112826235Y-70101190D01*
X112826235Y-70101190D02*
X112826235Y-69698809D01*
X112942902Y-62667857D02*
X112633378Y-62884524D01*
X112942902Y-63039286D02*
X112292902Y-63039286D01*
X112292902Y-63039286D02*
X112292902Y-62791667D01*
X112292902Y-62791667D02*
X112323854Y-62729762D01*
X112323854Y-62729762D02*
X112354807Y-62698809D01*
X112354807Y-62698809D02*
X112416711Y-62667857D01*
X112416711Y-62667857D02*
X112509569Y-62667857D01*
X112509569Y-62667857D02*
X112571473Y-62698809D01*
X112571473Y-62698809D02*
X112602426Y-62729762D01*
X112602426Y-62729762D02*
X112633378Y-62791667D01*
X112633378Y-62791667D02*
X112633378Y-63039286D01*
X112292902Y-62451190D02*
X112292902Y-62048809D01*
X112292902Y-62048809D02*
X112540521Y-62265476D01*
X112540521Y-62265476D02*
X112540521Y-62172619D01*
X112540521Y-62172619D02*
X112571473Y-62110714D01*
X112571473Y-62110714D02*
X112602426Y-62079762D01*
X112602426Y-62079762D02*
X112664330Y-62048809D01*
X112664330Y-62048809D02*
X112819092Y-62048809D01*
X112819092Y-62048809D02*
X112880997Y-62079762D01*
X112880997Y-62079762D02*
X112911950Y-62110714D01*
X112911950Y-62110714D02*
X112942902Y-62172619D01*
X112942902Y-62172619D02*
X112942902Y-62358333D01*
X112942902Y-62358333D02*
X112911950Y-62420238D01*
X112911950Y-62420238D02*
X112880997Y-62451190D01*
X112292902Y-61646428D02*
X112292902Y-61584523D01*
X112292902Y-61584523D02*
X112323854Y-61522619D01*
X112323854Y-61522619D02*
X112354807Y-61491666D01*
X112354807Y-61491666D02*
X112416711Y-61460714D01*
X112416711Y-61460714D02*
X112540521Y-61429761D01*
X112540521Y-61429761D02*
X112695283Y-61429761D01*
X112695283Y-61429761D02*
X112819092Y-61460714D01*
X112819092Y-61460714D02*
X112880997Y-61491666D01*
X112880997Y-61491666D02*
X112911950Y-61522619D01*
X112911950Y-61522619D02*
X112942902Y-61584523D01*
X112942902Y-61584523D02*
X112942902Y-61646428D01*
X112942902Y-61646428D02*
X112911950Y-61708333D01*
X112911950Y-61708333D02*
X112880997Y-61739285D01*
X112880997Y-61739285D02*
X112819092Y-61770238D01*
X112819092Y-61770238D02*
X112695283Y-61801190D01*
X112695283Y-61801190D02*
X112540521Y-61801190D01*
X112540521Y-61801190D02*
X112416711Y-61770238D01*
X112416711Y-61770238D02*
X112354807Y-61739285D01*
X112354807Y-61739285D02*
X112323854Y-61708333D01*
X112323854Y-61708333D02*
X112292902Y-61646428D01*
X115942902Y-65167857D02*
X115633378Y-65384524D01*
X115942902Y-65539286D02*
X115292902Y-65539286D01*
X115292902Y-65539286D02*
X115292902Y-65291667D01*
X115292902Y-65291667D02*
X115323854Y-65229762D01*
X115323854Y-65229762D02*
X115354807Y-65198809D01*
X115354807Y-65198809D02*
X115416711Y-65167857D01*
X115416711Y-65167857D02*
X115509569Y-65167857D01*
X115509569Y-65167857D02*
X115571473Y-65198809D01*
X115571473Y-65198809D02*
X115602426Y-65229762D01*
X115602426Y-65229762D02*
X115633378Y-65291667D01*
X115633378Y-65291667D02*
X115633378Y-65539286D01*
X115354807Y-64920238D02*
X115323854Y-64889286D01*
X115323854Y-64889286D02*
X115292902Y-64827381D01*
X115292902Y-64827381D02*
X115292902Y-64672619D01*
X115292902Y-64672619D02*
X115323854Y-64610714D01*
X115323854Y-64610714D02*
X115354807Y-64579762D01*
X115354807Y-64579762D02*
X115416711Y-64548809D01*
X115416711Y-64548809D02*
X115478616Y-64548809D01*
X115478616Y-64548809D02*
X115571473Y-64579762D01*
X115571473Y-64579762D02*
X115942902Y-64951190D01*
X115942902Y-64951190D02*
X115942902Y-64548809D01*
X115571473Y-64177380D02*
X115540521Y-64239285D01*
X115540521Y-64239285D02*
X115509569Y-64270238D01*
X115509569Y-64270238D02*
X115447664Y-64301190D01*
X115447664Y-64301190D02*
X115416711Y-64301190D01*
X115416711Y-64301190D02*
X115354807Y-64270238D01*
X115354807Y-64270238D02*
X115323854Y-64239285D01*
X115323854Y-64239285D02*
X115292902Y-64177380D01*
X115292902Y-64177380D02*
X115292902Y-64053571D01*
X115292902Y-64053571D02*
X115323854Y-63991666D01*
X115323854Y-63991666D02*
X115354807Y-63960714D01*
X115354807Y-63960714D02*
X115416711Y-63929761D01*
X115416711Y-63929761D02*
X115447664Y-63929761D01*
X115447664Y-63929761D02*
X115509569Y-63960714D01*
X115509569Y-63960714D02*
X115540521Y-63991666D01*
X115540521Y-63991666D02*
X115571473Y-64053571D01*
X115571473Y-64053571D02*
X115571473Y-64177380D01*
X115571473Y-64177380D02*
X115602426Y-64239285D01*
X115602426Y-64239285D02*
X115633378Y-64270238D01*
X115633378Y-64270238D02*
X115695283Y-64301190D01*
X115695283Y-64301190D02*
X115819092Y-64301190D01*
X115819092Y-64301190D02*
X115880997Y-64270238D01*
X115880997Y-64270238D02*
X115911950Y-64239285D01*
X115911950Y-64239285D02*
X115942902Y-64177380D01*
X115942902Y-64177380D02*
X115942902Y-64053571D01*
X115942902Y-64053571D02*
X115911950Y-63991666D01*
X115911950Y-63991666D02*
X115880997Y-63960714D01*
X115880997Y-63960714D02*
X115819092Y-63929761D01*
X115819092Y-63929761D02*
X115695283Y-63929761D01*
X115695283Y-63929761D02*
X115633378Y-63960714D01*
X115633378Y-63960714D02*
X115602426Y-63991666D01*
X115602426Y-63991666D02*
X115571473Y-64053571D01*
X123272023Y-80904819D02*
X123272023Y-81714342D01*
X123272023Y-81714342D02*
X123319642Y-81809580D01*
X123319642Y-81809580D02*
X123367261Y-81857200D01*
X123367261Y-81857200D02*
X123462499Y-81904819D01*
X123462499Y-81904819D02*
X123652975Y-81904819D01*
X123652975Y-81904819D02*
X123748213Y-81857200D01*
X123748213Y-81857200D02*
X123795832Y-81809580D01*
X123795832Y-81809580D02*
X123843451Y-81714342D01*
X123843451Y-81714342D02*
X123843451Y-80904819D01*
X124224404Y-80904819D02*
X124843451Y-80904819D01*
X124843451Y-80904819D02*
X124510118Y-81285771D01*
X124510118Y-81285771D02*
X124652975Y-81285771D01*
X124652975Y-81285771D02*
X124748213Y-81333390D01*
X124748213Y-81333390D02*
X124795832Y-81381009D01*
X124795832Y-81381009D02*
X124843451Y-81476247D01*
X124843451Y-81476247D02*
X124843451Y-81714342D01*
X124843451Y-81714342D02*
X124795832Y-81809580D01*
X124795832Y-81809580D02*
X124748213Y-81857200D01*
X124748213Y-81857200D02*
X124652975Y-81904819D01*
X124652975Y-81904819D02*
X124367261Y-81904819D01*
X124367261Y-81904819D02*
X124272023Y-81857200D01*
X124272023Y-81857200D02*
X124224404Y-81809580D01*
X116472023Y-104904819D02*
X116472023Y-105714342D01*
X116472023Y-105714342D02*
X116519642Y-105809580D01*
X116519642Y-105809580D02*
X116567261Y-105857200D01*
X116567261Y-105857200D02*
X116662499Y-105904819D01*
X116662499Y-105904819D02*
X116852975Y-105904819D01*
X116852975Y-105904819D02*
X116948213Y-105857200D01*
X116948213Y-105857200D02*
X116995832Y-105809580D01*
X116995832Y-105809580D02*
X117043451Y-105714342D01*
X117043451Y-105714342D02*
X117043451Y-104904819D01*
X117948213Y-104904819D02*
X117757737Y-104904819D01*
X117757737Y-104904819D02*
X117662499Y-104952438D01*
X117662499Y-104952438D02*
X117614880Y-105000057D01*
X117614880Y-105000057D02*
X117519642Y-105142914D01*
X117519642Y-105142914D02*
X117472023Y-105333390D01*
X117472023Y-105333390D02*
X117472023Y-105714342D01*
X117472023Y-105714342D02*
X117519642Y-105809580D01*
X117519642Y-105809580D02*
X117567261Y-105857200D01*
X117567261Y-105857200D02*
X117662499Y-105904819D01*
X117662499Y-105904819D02*
X117852975Y-105904819D01*
X117852975Y-105904819D02*
X117948213Y-105857200D01*
X117948213Y-105857200D02*
X117995832Y-105809580D01*
X117995832Y-105809580D02*
X118043451Y-105714342D01*
X118043451Y-105714342D02*
X118043451Y-105476247D01*
X118043451Y-105476247D02*
X117995832Y-105381009D01*
X117995832Y-105381009D02*
X117948213Y-105333390D01*
X117948213Y-105333390D02*
X117852975Y-105285771D01*
X117852975Y-105285771D02*
X117662499Y-105285771D01*
X117662499Y-105285771D02*
X117567261Y-105333390D01*
X117567261Y-105333390D02*
X117519642Y-105381009D01*
X117519642Y-105381009D02*
X117472023Y-105476247D01*
X122709580Y-99316666D02*
X122757200Y-99364285D01*
X122757200Y-99364285D02*
X122804819Y-99507142D01*
X122804819Y-99507142D02*
X122804819Y-99602380D01*
X122804819Y-99602380D02*
X122757200Y-99745237D01*
X122757200Y-99745237D02*
X122661961Y-99840475D01*
X122661961Y-99840475D02*
X122566723Y-99888094D01*
X122566723Y-99888094D02*
X122376247Y-99935713D01*
X122376247Y-99935713D02*
X122233390Y-99935713D01*
X122233390Y-99935713D02*
X122042914Y-99888094D01*
X122042914Y-99888094D02*
X121947676Y-99840475D01*
X121947676Y-99840475D02*
X121852438Y-99745237D01*
X121852438Y-99745237D02*
X121804819Y-99602380D01*
X121804819Y-99602380D02*
X121804819Y-99507142D01*
X121804819Y-99507142D02*
X121852438Y-99364285D01*
X121852438Y-99364285D02*
X121900057Y-99316666D01*
X121900057Y-98935713D02*
X121852438Y-98888094D01*
X121852438Y-98888094D02*
X121804819Y-98792856D01*
X121804819Y-98792856D02*
X121804819Y-98554761D01*
X121804819Y-98554761D02*
X121852438Y-98459523D01*
X121852438Y-98459523D02*
X121900057Y-98411904D01*
X121900057Y-98411904D02*
X121995295Y-98364285D01*
X121995295Y-98364285D02*
X122090533Y-98364285D01*
X122090533Y-98364285D02*
X122233390Y-98411904D01*
X122233390Y-98411904D02*
X122804819Y-98983332D01*
X122804819Y-98983332D02*
X122804819Y-98364285D01*
X123780997Y-133667857D02*
X123811950Y-133698809D01*
X123811950Y-133698809D02*
X123842902Y-133791667D01*
X123842902Y-133791667D02*
X123842902Y-133853571D01*
X123842902Y-133853571D02*
X123811950Y-133946428D01*
X123811950Y-133946428D02*
X123750045Y-134008333D01*
X123750045Y-134008333D02*
X123688140Y-134039286D01*
X123688140Y-134039286D02*
X123564330Y-134070238D01*
X123564330Y-134070238D02*
X123471473Y-134070238D01*
X123471473Y-134070238D02*
X123347664Y-134039286D01*
X123347664Y-134039286D02*
X123285759Y-134008333D01*
X123285759Y-134008333D02*
X123223854Y-133946428D01*
X123223854Y-133946428D02*
X123192902Y-133853571D01*
X123192902Y-133853571D02*
X123192902Y-133791667D01*
X123192902Y-133791667D02*
X123223854Y-133698809D01*
X123223854Y-133698809D02*
X123254807Y-133667857D01*
X123254807Y-133420238D02*
X123223854Y-133389286D01*
X123223854Y-133389286D02*
X123192902Y-133327381D01*
X123192902Y-133327381D02*
X123192902Y-133172619D01*
X123192902Y-133172619D02*
X123223854Y-133110714D01*
X123223854Y-133110714D02*
X123254807Y-133079762D01*
X123254807Y-133079762D02*
X123316711Y-133048809D01*
X123316711Y-133048809D02*
X123378616Y-133048809D01*
X123378616Y-133048809D02*
X123471473Y-133079762D01*
X123471473Y-133079762D02*
X123842902Y-133451190D01*
X123842902Y-133451190D02*
X123842902Y-133048809D01*
X123842902Y-132429761D02*
X123842902Y-132801190D01*
X123842902Y-132615476D02*
X123192902Y-132615476D01*
X123192902Y-132615476D02*
X123285759Y-132677380D01*
X123285759Y-132677380D02*
X123347664Y-132739285D01*
X123347664Y-132739285D02*
X123378616Y-132801190D01*
X120375878Y-138542902D02*
X120159211Y-138233378D01*
X120004449Y-138542902D02*
X120004449Y-137892902D01*
X120004449Y-137892902D02*
X120252068Y-137892902D01*
X120252068Y-137892902D02*
X120313973Y-137923854D01*
X120313973Y-137923854D02*
X120344926Y-137954807D01*
X120344926Y-137954807D02*
X120375878Y-138016711D01*
X120375878Y-138016711D02*
X120375878Y-138109569D01*
X120375878Y-138109569D02*
X120344926Y-138171473D01*
X120344926Y-138171473D02*
X120313973Y-138202426D01*
X120313973Y-138202426D02*
X120252068Y-138233378D01*
X120252068Y-138233378D02*
X120004449Y-138233378D01*
X120994926Y-138542902D02*
X120623497Y-138542902D01*
X120809211Y-138542902D02*
X120809211Y-137892902D01*
X120809211Y-137892902D02*
X120747307Y-137985759D01*
X120747307Y-137985759D02*
X120685402Y-138047664D01*
X120685402Y-138047664D02*
X120623497Y-138078616D01*
X121613974Y-138542902D02*
X121242545Y-138542902D01*
X121428259Y-138542902D02*
X121428259Y-137892902D01*
X121428259Y-137892902D02*
X121366355Y-137985759D01*
X121366355Y-137985759D02*
X121304450Y-138047664D01*
X121304450Y-138047664D02*
X121242545Y-138078616D01*
X112926830Y-89958333D02*
X112617306Y-90175000D01*
X112926830Y-90329762D02*
X112276830Y-90329762D01*
X112276830Y-90329762D02*
X112276830Y-90082143D01*
X112276830Y-90082143D02*
X112307782Y-90020238D01*
X112307782Y-90020238D02*
X112338735Y-89989285D01*
X112338735Y-89989285D02*
X112400639Y-89958333D01*
X112400639Y-89958333D02*
X112493497Y-89958333D01*
X112493497Y-89958333D02*
X112555401Y-89989285D01*
X112555401Y-89989285D02*
X112586354Y-90020238D01*
X112586354Y-90020238D02*
X112617306Y-90082143D01*
X112617306Y-90082143D02*
X112617306Y-90329762D01*
X112276830Y-89370238D02*
X112276830Y-89679762D01*
X112276830Y-89679762D02*
X112586354Y-89710714D01*
X112586354Y-89710714D02*
X112555401Y-89679762D01*
X112555401Y-89679762D02*
X112524449Y-89617857D01*
X112524449Y-89617857D02*
X112524449Y-89463095D01*
X112524449Y-89463095D02*
X112555401Y-89401190D01*
X112555401Y-89401190D02*
X112586354Y-89370238D01*
X112586354Y-89370238D02*
X112648258Y-89339285D01*
X112648258Y-89339285D02*
X112803020Y-89339285D01*
X112803020Y-89339285D02*
X112864925Y-89370238D01*
X112864925Y-89370238D02*
X112895878Y-89401190D01*
X112895878Y-89401190D02*
X112926830Y-89463095D01*
X112926830Y-89463095D02*
X112926830Y-89617857D01*
X112926830Y-89617857D02*
X112895878Y-89679762D01*
X112895878Y-89679762D02*
X112864925Y-89710714D01*
X116926830Y-89958333D02*
X116617306Y-90175000D01*
X116926830Y-90329762D02*
X116276830Y-90329762D01*
X116276830Y-90329762D02*
X116276830Y-90082143D01*
X116276830Y-90082143D02*
X116307782Y-90020238D01*
X116307782Y-90020238D02*
X116338735Y-89989285D01*
X116338735Y-89989285D02*
X116400639Y-89958333D01*
X116400639Y-89958333D02*
X116493497Y-89958333D01*
X116493497Y-89958333D02*
X116555401Y-89989285D01*
X116555401Y-89989285D02*
X116586354Y-90020238D01*
X116586354Y-90020238D02*
X116617306Y-90082143D01*
X116617306Y-90082143D02*
X116617306Y-90329762D01*
X116276830Y-89741666D02*
X116276830Y-89308333D01*
X116276830Y-89308333D02*
X116926830Y-89586904D01*
X110193508Y-107092857D02*
X110241128Y-107140476D01*
X110241128Y-107140476D02*
X110288747Y-107283333D01*
X110288747Y-107283333D02*
X110288747Y-107378571D01*
X110288747Y-107378571D02*
X110241128Y-107521428D01*
X110241128Y-107521428D02*
X110145889Y-107616666D01*
X110145889Y-107616666D02*
X110050651Y-107664285D01*
X110050651Y-107664285D02*
X109860175Y-107711904D01*
X109860175Y-107711904D02*
X109717318Y-107711904D01*
X109717318Y-107711904D02*
X109526842Y-107664285D01*
X109526842Y-107664285D02*
X109431604Y-107616666D01*
X109431604Y-107616666D02*
X109336366Y-107521428D01*
X109336366Y-107521428D02*
X109288747Y-107378571D01*
X109288747Y-107378571D02*
X109288747Y-107283333D01*
X109288747Y-107283333D02*
X109336366Y-107140476D01*
X109336366Y-107140476D02*
X109383985Y-107092857D01*
X110288747Y-106140476D02*
X110288747Y-106711904D01*
X110288747Y-106426190D02*
X109288747Y-106426190D01*
X109288747Y-106426190D02*
X109431604Y-106521428D01*
X109431604Y-106521428D02*
X109526842Y-106616666D01*
X109526842Y-106616666D02*
X109574461Y-106711904D01*
X109288747Y-105807142D02*
X109288747Y-105140476D01*
X109288747Y-105140476D02*
X110288747Y-105569047D01*
X122532142Y-109080997D02*
X122501190Y-109111950D01*
X122501190Y-109111950D02*
X122408332Y-109142902D01*
X122408332Y-109142902D02*
X122346428Y-109142902D01*
X122346428Y-109142902D02*
X122253571Y-109111950D01*
X122253571Y-109111950D02*
X122191666Y-109050045D01*
X122191666Y-109050045D02*
X122160713Y-108988140D01*
X122160713Y-108988140D02*
X122129761Y-108864330D01*
X122129761Y-108864330D02*
X122129761Y-108771473D01*
X122129761Y-108771473D02*
X122160713Y-108647664D01*
X122160713Y-108647664D02*
X122191666Y-108585759D01*
X122191666Y-108585759D02*
X122253571Y-108523854D01*
X122253571Y-108523854D02*
X122346428Y-108492902D01*
X122346428Y-108492902D02*
X122408332Y-108492902D01*
X122408332Y-108492902D02*
X122501190Y-108523854D01*
X122501190Y-108523854D02*
X122532142Y-108554807D01*
X123151190Y-109142902D02*
X122779761Y-109142902D01*
X122965475Y-109142902D02*
X122965475Y-108492902D01*
X122965475Y-108492902D02*
X122903571Y-108585759D01*
X122903571Y-108585759D02*
X122841666Y-108647664D01*
X122841666Y-108647664D02*
X122779761Y-108678616D01*
X123708333Y-108492902D02*
X123584523Y-108492902D01*
X123584523Y-108492902D02*
X123522619Y-108523854D01*
X123522619Y-108523854D02*
X123491666Y-108554807D01*
X123491666Y-108554807D02*
X123429761Y-108647664D01*
X123429761Y-108647664D02*
X123398809Y-108771473D01*
X123398809Y-108771473D02*
X123398809Y-109019092D01*
X123398809Y-109019092D02*
X123429761Y-109080997D01*
X123429761Y-109080997D02*
X123460714Y-109111950D01*
X123460714Y-109111950D02*
X123522619Y-109142902D01*
X123522619Y-109142902D02*
X123646428Y-109142902D01*
X123646428Y-109142902D02*
X123708333Y-109111950D01*
X123708333Y-109111950D02*
X123739285Y-109080997D01*
X123739285Y-109080997D02*
X123770238Y-109019092D01*
X123770238Y-109019092D02*
X123770238Y-108864330D01*
X123770238Y-108864330D02*
X123739285Y-108802426D01*
X123739285Y-108802426D02*
X123708333Y-108771473D01*
X123708333Y-108771473D02*
X123646428Y-108740521D01*
X123646428Y-108740521D02*
X123522619Y-108740521D01*
X123522619Y-108740521D02*
X123460714Y-108771473D01*
X123460714Y-108771473D02*
X123429761Y-108802426D01*
X123429761Y-108802426D02*
X123398809Y-108864330D01*
X122642902Y-70967857D02*
X122333378Y-71184524D01*
X122642902Y-71339286D02*
X121992902Y-71339286D01*
X121992902Y-71339286D02*
X121992902Y-71091667D01*
X121992902Y-71091667D02*
X122023854Y-71029762D01*
X122023854Y-71029762D02*
X122054807Y-70998809D01*
X122054807Y-70998809D02*
X122116711Y-70967857D01*
X122116711Y-70967857D02*
X122209569Y-70967857D01*
X122209569Y-70967857D02*
X122271473Y-70998809D01*
X122271473Y-70998809D02*
X122302426Y-71029762D01*
X122302426Y-71029762D02*
X122333378Y-71091667D01*
X122333378Y-71091667D02*
X122333378Y-71339286D01*
X122054807Y-70720238D02*
X122023854Y-70689286D01*
X122023854Y-70689286D02*
X121992902Y-70627381D01*
X121992902Y-70627381D02*
X121992902Y-70472619D01*
X121992902Y-70472619D02*
X122023854Y-70410714D01*
X122023854Y-70410714D02*
X122054807Y-70379762D01*
X122054807Y-70379762D02*
X122116711Y-70348809D01*
X122116711Y-70348809D02*
X122178616Y-70348809D01*
X122178616Y-70348809D02*
X122271473Y-70379762D01*
X122271473Y-70379762D02*
X122642902Y-70751190D01*
X122642902Y-70751190D02*
X122642902Y-70348809D01*
X122054807Y-70101190D02*
X122023854Y-70070238D01*
X122023854Y-70070238D02*
X121992902Y-70008333D01*
X121992902Y-70008333D02*
X121992902Y-69853571D01*
X121992902Y-69853571D02*
X122023854Y-69791666D01*
X122023854Y-69791666D02*
X122054807Y-69760714D01*
X122054807Y-69760714D02*
X122116711Y-69729761D01*
X122116711Y-69729761D02*
X122178616Y-69729761D01*
X122178616Y-69729761D02*
X122271473Y-69760714D01*
X122271473Y-69760714D02*
X122642902Y-70132142D01*
X122642902Y-70132142D02*
X122642902Y-69729761D01*
X130783333Y-118784580D02*
X130735714Y-118832200D01*
X130735714Y-118832200D02*
X130592857Y-118879819D01*
X130592857Y-118879819D02*
X130497619Y-118879819D01*
X130497619Y-118879819D02*
X130354762Y-118832200D01*
X130354762Y-118832200D02*
X130259524Y-118736961D01*
X130259524Y-118736961D02*
X130211905Y-118641723D01*
X130211905Y-118641723D02*
X130164286Y-118451247D01*
X130164286Y-118451247D02*
X130164286Y-118308390D01*
X130164286Y-118308390D02*
X130211905Y-118117914D01*
X130211905Y-118117914D02*
X130259524Y-118022676D01*
X130259524Y-118022676D02*
X130354762Y-117927438D01*
X130354762Y-117927438D02*
X130497619Y-117879819D01*
X130497619Y-117879819D02*
X130592857Y-117879819D01*
X130592857Y-117879819D02*
X130735714Y-117927438D01*
X130735714Y-117927438D02*
X130783333Y-117975057D01*
X131640476Y-118213152D02*
X131640476Y-118879819D01*
X131402381Y-117832200D02*
X131164286Y-118546485D01*
X131164286Y-118546485D02*
X131783333Y-118546485D01*
X119980997Y-65167857D02*
X120011950Y-65198809D01*
X120011950Y-65198809D02*
X120042902Y-65291667D01*
X120042902Y-65291667D02*
X120042902Y-65353571D01*
X120042902Y-65353571D02*
X120011950Y-65446428D01*
X120011950Y-65446428D02*
X119950045Y-65508333D01*
X119950045Y-65508333D02*
X119888140Y-65539286D01*
X119888140Y-65539286D02*
X119764330Y-65570238D01*
X119764330Y-65570238D02*
X119671473Y-65570238D01*
X119671473Y-65570238D02*
X119547664Y-65539286D01*
X119547664Y-65539286D02*
X119485759Y-65508333D01*
X119485759Y-65508333D02*
X119423854Y-65446428D01*
X119423854Y-65446428D02*
X119392902Y-65353571D01*
X119392902Y-65353571D02*
X119392902Y-65291667D01*
X119392902Y-65291667D02*
X119423854Y-65198809D01*
X119423854Y-65198809D02*
X119454807Y-65167857D01*
X119454807Y-64920238D02*
X119423854Y-64889286D01*
X119423854Y-64889286D02*
X119392902Y-64827381D01*
X119392902Y-64827381D02*
X119392902Y-64672619D01*
X119392902Y-64672619D02*
X119423854Y-64610714D01*
X119423854Y-64610714D02*
X119454807Y-64579762D01*
X119454807Y-64579762D02*
X119516711Y-64548809D01*
X119516711Y-64548809D02*
X119578616Y-64548809D01*
X119578616Y-64548809D02*
X119671473Y-64579762D01*
X119671473Y-64579762D02*
X120042902Y-64951190D01*
X120042902Y-64951190D02*
X120042902Y-64548809D01*
X119392902Y-63991666D02*
X119392902Y-64115476D01*
X119392902Y-64115476D02*
X119423854Y-64177380D01*
X119423854Y-64177380D02*
X119454807Y-64208333D01*
X119454807Y-64208333D02*
X119547664Y-64270238D01*
X119547664Y-64270238D02*
X119671473Y-64301190D01*
X119671473Y-64301190D02*
X119919092Y-64301190D01*
X119919092Y-64301190D02*
X119980997Y-64270238D01*
X119980997Y-64270238D02*
X120011950Y-64239285D01*
X120011950Y-64239285D02*
X120042902Y-64177380D01*
X120042902Y-64177380D02*
X120042902Y-64053571D01*
X120042902Y-64053571D02*
X120011950Y-63991666D01*
X120011950Y-63991666D02*
X119980997Y-63960714D01*
X119980997Y-63960714D02*
X119919092Y-63929761D01*
X119919092Y-63929761D02*
X119764330Y-63929761D01*
X119764330Y-63929761D02*
X119702426Y-63960714D01*
X119702426Y-63960714D02*
X119671473Y-63991666D01*
X119671473Y-63991666D02*
X119640521Y-64053571D01*
X119640521Y-64053571D02*
X119640521Y-64177380D01*
X119640521Y-64177380D02*
X119671473Y-64239285D01*
X119671473Y-64239285D02*
X119702426Y-64270238D01*
X119702426Y-64270238D02*
X119764330Y-64301190D01*
X120125594Y-79880997D02*
X120094642Y-79911950D01*
X120094642Y-79911950D02*
X120001784Y-79942902D01*
X120001784Y-79942902D02*
X119939880Y-79942902D01*
X119939880Y-79942902D02*
X119847023Y-79911950D01*
X119847023Y-79911950D02*
X119785118Y-79850045D01*
X119785118Y-79850045D02*
X119754165Y-79788140D01*
X119754165Y-79788140D02*
X119723213Y-79664330D01*
X119723213Y-79664330D02*
X119723213Y-79571473D01*
X119723213Y-79571473D02*
X119754165Y-79447664D01*
X119754165Y-79447664D02*
X119785118Y-79385759D01*
X119785118Y-79385759D02*
X119847023Y-79323854D01*
X119847023Y-79323854D02*
X119939880Y-79292902D01*
X119939880Y-79292902D02*
X120001784Y-79292902D01*
X120001784Y-79292902D02*
X120094642Y-79323854D01*
X120094642Y-79323854D02*
X120125594Y-79354807D01*
X120682737Y-79292902D02*
X120558927Y-79292902D01*
X120558927Y-79292902D02*
X120497023Y-79323854D01*
X120497023Y-79323854D02*
X120466070Y-79354807D01*
X120466070Y-79354807D02*
X120404165Y-79447664D01*
X120404165Y-79447664D02*
X120373213Y-79571473D01*
X120373213Y-79571473D02*
X120373213Y-79819092D01*
X120373213Y-79819092D02*
X120404165Y-79880997D01*
X120404165Y-79880997D02*
X120435118Y-79911950D01*
X120435118Y-79911950D02*
X120497023Y-79942902D01*
X120497023Y-79942902D02*
X120620832Y-79942902D01*
X120620832Y-79942902D02*
X120682737Y-79911950D01*
X120682737Y-79911950D02*
X120713689Y-79880997D01*
X120713689Y-79880997D02*
X120744642Y-79819092D01*
X120744642Y-79819092D02*
X120744642Y-79664330D01*
X120744642Y-79664330D02*
X120713689Y-79602426D01*
X120713689Y-79602426D02*
X120682737Y-79571473D01*
X120682737Y-79571473D02*
X120620832Y-79540521D01*
X120620832Y-79540521D02*
X120497023Y-79540521D01*
X120497023Y-79540521D02*
X120435118Y-79571473D01*
X120435118Y-79571473D02*
X120404165Y-79602426D01*
X120404165Y-79602426D02*
X120373213Y-79664330D01*
X125764937Y-100333333D02*
X125764937Y-100666666D01*
X126288747Y-100666666D02*
X125288747Y-100666666D01*
X125288747Y-100666666D02*
X125288747Y-100190476D01*
X125764937Y-99476190D02*
X125812556Y-99333333D01*
X125812556Y-99333333D02*
X125860175Y-99285714D01*
X125860175Y-99285714D02*
X125955413Y-99238095D01*
X125955413Y-99238095D02*
X126098270Y-99238095D01*
X126098270Y-99238095D02*
X126193508Y-99285714D01*
X126193508Y-99285714D02*
X126241128Y-99333333D01*
X126241128Y-99333333D02*
X126288747Y-99428571D01*
X126288747Y-99428571D02*
X126288747Y-99809523D01*
X126288747Y-99809523D02*
X125288747Y-99809523D01*
X125288747Y-99809523D02*
X125288747Y-99476190D01*
X125288747Y-99476190D02*
X125336366Y-99380952D01*
X125336366Y-99380952D02*
X125383985Y-99333333D01*
X125383985Y-99333333D02*
X125479223Y-99285714D01*
X125479223Y-99285714D02*
X125574461Y-99285714D01*
X125574461Y-99285714D02*
X125669699Y-99333333D01*
X125669699Y-99333333D02*
X125717318Y-99380952D01*
X125717318Y-99380952D02*
X125764937Y-99476190D01*
X125764937Y-99476190D02*
X125764937Y-99809523D01*
X126288747Y-98285714D02*
X126288747Y-98857142D01*
X126288747Y-98571428D02*
X125288747Y-98571428D01*
X125288747Y-98571428D02*
X125431604Y-98666666D01*
X125431604Y-98666666D02*
X125526842Y-98761904D01*
X125526842Y-98761904D02*
X125574461Y-98857142D01*
X115864925Y-102758333D02*
X115895878Y-102789285D01*
X115895878Y-102789285D02*
X115926830Y-102882143D01*
X115926830Y-102882143D02*
X115926830Y-102944047D01*
X115926830Y-102944047D02*
X115895878Y-103036904D01*
X115895878Y-103036904D02*
X115833973Y-103098809D01*
X115833973Y-103098809D02*
X115772068Y-103129762D01*
X115772068Y-103129762D02*
X115648258Y-103160714D01*
X115648258Y-103160714D02*
X115555401Y-103160714D01*
X115555401Y-103160714D02*
X115431592Y-103129762D01*
X115431592Y-103129762D02*
X115369687Y-103098809D01*
X115369687Y-103098809D02*
X115307782Y-103036904D01*
X115307782Y-103036904D02*
X115276830Y-102944047D01*
X115276830Y-102944047D02*
X115276830Y-102882143D01*
X115276830Y-102882143D02*
X115307782Y-102789285D01*
X115307782Y-102789285D02*
X115338735Y-102758333D01*
X115276830Y-102541666D02*
X115276830Y-102139285D01*
X115276830Y-102139285D02*
X115524449Y-102355952D01*
X115524449Y-102355952D02*
X115524449Y-102263095D01*
X115524449Y-102263095D02*
X115555401Y-102201190D01*
X115555401Y-102201190D02*
X115586354Y-102170238D01*
X115586354Y-102170238D02*
X115648258Y-102139285D01*
X115648258Y-102139285D02*
X115803020Y-102139285D01*
X115803020Y-102139285D02*
X115864925Y-102170238D01*
X115864925Y-102170238D02*
X115895878Y-102201190D01*
X115895878Y-102201190D02*
X115926830Y-102263095D01*
X115926830Y-102263095D02*
X115926830Y-102448809D01*
X115926830Y-102448809D02*
X115895878Y-102510714D01*
X115895878Y-102510714D02*
X115864925Y-102541666D01*
X114742902Y-134758333D02*
X114433378Y-134975000D01*
X114742902Y-135129762D02*
X114092902Y-135129762D01*
X114092902Y-135129762D02*
X114092902Y-134882143D01*
X114092902Y-134882143D02*
X114123854Y-134820238D01*
X114123854Y-134820238D02*
X114154807Y-134789285D01*
X114154807Y-134789285D02*
X114216711Y-134758333D01*
X114216711Y-134758333D02*
X114309569Y-134758333D01*
X114309569Y-134758333D02*
X114371473Y-134789285D01*
X114371473Y-134789285D02*
X114402426Y-134820238D01*
X114402426Y-134820238D02*
X114433378Y-134882143D01*
X114433378Y-134882143D02*
X114433378Y-135129762D01*
X114092902Y-134201190D02*
X114092902Y-134325000D01*
X114092902Y-134325000D02*
X114123854Y-134386904D01*
X114123854Y-134386904D02*
X114154807Y-134417857D01*
X114154807Y-134417857D02*
X114247664Y-134479762D01*
X114247664Y-134479762D02*
X114371473Y-134510714D01*
X114371473Y-134510714D02*
X114619092Y-134510714D01*
X114619092Y-134510714D02*
X114680997Y-134479762D01*
X114680997Y-134479762D02*
X114711950Y-134448809D01*
X114711950Y-134448809D02*
X114742902Y-134386904D01*
X114742902Y-134386904D02*
X114742902Y-134263095D01*
X114742902Y-134263095D02*
X114711950Y-134201190D01*
X114711950Y-134201190D02*
X114680997Y-134170238D01*
X114680997Y-134170238D02*
X114619092Y-134139285D01*
X114619092Y-134139285D02*
X114464330Y-134139285D01*
X114464330Y-134139285D02*
X114402426Y-134170238D01*
X114402426Y-134170238D02*
X114371473Y-134201190D01*
X114371473Y-134201190D02*
X114340521Y-134263095D01*
X114340521Y-134263095D02*
X114340521Y-134386904D01*
X114340521Y-134386904D02*
X114371473Y-134448809D01*
X114371473Y-134448809D02*
X114402426Y-134479762D01*
X114402426Y-134479762D02*
X114464330Y-134510714D01*
X133216070Y-82480997D02*
X133185118Y-82511950D01*
X133185118Y-82511950D02*
X133092260Y-82542902D01*
X133092260Y-82542902D02*
X133030356Y-82542902D01*
X133030356Y-82542902D02*
X132937499Y-82511950D01*
X132937499Y-82511950D02*
X132875594Y-82450045D01*
X132875594Y-82450045D02*
X132844641Y-82388140D01*
X132844641Y-82388140D02*
X132813689Y-82264330D01*
X132813689Y-82264330D02*
X132813689Y-82171473D01*
X132813689Y-82171473D02*
X132844641Y-82047664D01*
X132844641Y-82047664D02*
X132875594Y-81985759D01*
X132875594Y-81985759D02*
X132937499Y-81923854D01*
X132937499Y-81923854D02*
X133030356Y-81892902D01*
X133030356Y-81892902D02*
X133092260Y-81892902D01*
X133092260Y-81892902D02*
X133185118Y-81923854D01*
X133185118Y-81923854D02*
X133216070Y-81954807D01*
X133835118Y-82542902D02*
X133463689Y-82542902D01*
X133649403Y-82542902D02*
X133649403Y-81892902D01*
X133649403Y-81892902D02*
X133587499Y-81985759D01*
X133587499Y-81985759D02*
X133525594Y-82047664D01*
X133525594Y-82047664D02*
X133463689Y-82078616D01*
X134454166Y-82542902D02*
X134082737Y-82542902D01*
X134268451Y-82542902D02*
X134268451Y-81892902D01*
X134268451Y-81892902D02*
X134206547Y-81985759D01*
X134206547Y-81985759D02*
X134144642Y-82047664D01*
X134144642Y-82047664D02*
X134082737Y-82078616D01*
X124528555Y-129281904D02*
X125338078Y-129281904D01*
X125338078Y-129281904D02*
X125433316Y-129234285D01*
X125433316Y-129234285D02*
X125480936Y-129186666D01*
X125480936Y-129186666D02*
X125528555Y-129091428D01*
X125528555Y-129091428D02*
X125528555Y-128900952D01*
X125528555Y-128900952D02*
X125480936Y-128805714D01*
X125480936Y-128805714D02*
X125433316Y-128758095D01*
X125433316Y-128758095D02*
X125338078Y-128710476D01*
X125338078Y-128710476D02*
X124528555Y-128710476D01*
X125528555Y-127710476D02*
X125528555Y-128281904D01*
X125528555Y-127996190D02*
X124528555Y-127996190D01*
X124528555Y-127996190D02*
X124671412Y-128091428D01*
X124671412Y-128091428D02*
X124766650Y-128186666D01*
X124766650Y-128186666D02*
X124814269Y-128281904D01*
X126991070Y-88609580D02*
X126943451Y-88657200D01*
X126943451Y-88657200D02*
X126800594Y-88704819D01*
X126800594Y-88704819D02*
X126705356Y-88704819D01*
X126705356Y-88704819D02*
X126562499Y-88657200D01*
X126562499Y-88657200D02*
X126467261Y-88561961D01*
X126467261Y-88561961D02*
X126419642Y-88466723D01*
X126419642Y-88466723D02*
X126372023Y-88276247D01*
X126372023Y-88276247D02*
X126372023Y-88133390D01*
X126372023Y-88133390D02*
X126419642Y-87942914D01*
X126419642Y-87942914D02*
X126467261Y-87847676D01*
X126467261Y-87847676D02*
X126562499Y-87752438D01*
X126562499Y-87752438D02*
X126705356Y-87704819D01*
X126705356Y-87704819D02*
X126800594Y-87704819D01*
X126800594Y-87704819D02*
X126943451Y-87752438D01*
X126943451Y-87752438D02*
X126991070Y-87800057D01*
X127943451Y-88704819D02*
X127372023Y-88704819D01*
X127657737Y-88704819D02*
X127657737Y-87704819D01*
X127657737Y-87704819D02*
X127562499Y-87847676D01*
X127562499Y-87847676D02*
X127467261Y-87942914D01*
X127467261Y-87942914D02*
X127372023Y-87990533D01*
X128324404Y-87800057D02*
X128372023Y-87752438D01*
X128372023Y-87752438D02*
X128467261Y-87704819D01*
X128467261Y-87704819D02*
X128705356Y-87704819D01*
X128705356Y-87704819D02*
X128800594Y-87752438D01*
X128800594Y-87752438D02*
X128848213Y-87800057D01*
X128848213Y-87800057D02*
X128895832Y-87895295D01*
X128895832Y-87895295D02*
X128895832Y-87990533D01*
X128895832Y-87990533D02*
X128848213Y-88133390D01*
X128848213Y-88133390D02*
X128276785Y-88704819D01*
X128276785Y-88704819D02*
X128895832Y-88704819D01*
X112930997Y-137717857D02*
X112961950Y-137748809D01*
X112961950Y-137748809D02*
X112992902Y-137841667D01*
X112992902Y-137841667D02*
X112992902Y-137903571D01*
X112992902Y-137903571D02*
X112961950Y-137996428D01*
X112961950Y-137996428D02*
X112900045Y-138058333D01*
X112900045Y-138058333D02*
X112838140Y-138089286D01*
X112838140Y-138089286D02*
X112714330Y-138120238D01*
X112714330Y-138120238D02*
X112621473Y-138120238D01*
X112621473Y-138120238D02*
X112497664Y-138089286D01*
X112497664Y-138089286D02*
X112435759Y-138058333D01*
X112435759Y-138058333D02*
X112373854Y-137996428D01*
X112373854Y-137996428D02*
X112342902Y-137903571D01*
X112342902Y-137903571D02*
X112342902Y-137841667D01*
X112342902Y-137841667D02*
X112373854Y-137748809D01*
X112373854Y-137748809D02*
X112404807Y-137717857D01*
X112992902Y-137098809D02*
X112992902Y-137470238D01*
X112992902Y-137284524D02*
X112342902Y-137284524D01*
X112342902Y-137284524D02*
X112435759Y-137346428D01*
X112435759Y-137346428D02*
X112497664Y-137408333D01*
X112497664Y-137408333D02*
X112528616Y-137470238D01*
X112992902Y-136789285D02*
X112992902Y-136665476D01*
X112992902Y-136665476D02*
X112961950Y-136603571D01*
X112961950Y-136603571D02*
X112930997Y-136572619D01*
X112930997Y-136572619D02*
X112838140Y-136510714D01*
X112838140Y-136510714D02*
X112714330Y-136479761D01*
X112714330Y-136479761D02*
X112466711Y-136479761D01*
X112466711Y-136479761D02*
X112404807Y-136510714D01*
X112404807Y-136510714D02*
X112373854Y-136541666D01*
X112373854Y-136541666D02*
X112342902Y-136603571D01*
X112342902Y-136603571D02*
X112342902Y-136727380D01*
X112342902Y-136727380D02*
X112373854Y-136789285D01*
X112373854Y-136789285D02*
X112404807Y-136820238D01*
X112404807Y-136820238D02*
X112466711Y-136851190D01*
X112466711Y-136851190D02*
X112621473Y-136851190D01*
X112621473Y-136851190D02*
X112683378Y-136820238D01*
X112683378Y-136820238D02*
X112714330Y-136789285D01*
X112714330Y-136789285D02*
X112745283Y-136727380D01*
X112745283Y-136727380D02*
X112745283Y-136603571D01*
X112745283Y-136603571D02*
X112714330Y-136541666D01*
X112714330Y-136541666D02*
X112683378Y-136510714D01*
X112683378Y-136510714D02*
X112621473Y-136479761D01*
X120074874Y-81600747D02*
X120043922Y-81631700D01*
X120043922Y-81631700D02*
X119951064Y-81662652D01*
X119951064Y-81662652D02*
X119889160Y-81662652D01*
X119889160Y-81662652D02*
X119796303Y-81631700D01*
X119796303Y-81631700D02*
X119734398Y-81569795D01*
X119734398Y-81569795D02*
X119703445Y-81507890D01*
X119703445Y-81507890D02*
X119672493Y-81384080D01*
X119672493Y-81384080D02*
X119672493Y-81291223D01*
X119672493Y-81291223D02*
X119703445Y-81167414D01*
X119703445Y-81167414D02*
X119734398Y-81105509D01*
X119734398Y-81105509D02*
X119796303Y-81043604D01*
X119796303Y-81043604D02*
X119889160Y-81012652D01*
X119889160Y-81012652D02*
X119951064Y-81012652D01*
X119951064Y-81012652D02*
X120043922Y-81043604D01*
X120043922Y-81043604D02*
X120074874Y-81074557D01*
X120662969Y-81012652D02*
X120353445Y-81012652D01*
X120353445Y-81012652D02*
X120322493Y-81322176D01*
X120322493Y-81322176D02*
X120353445Y-81291223D01*
X120353445Y-81291223D02*
X120415350Y-81260271D01*
X120415350Y-81260271D02*
X120570112Y-81260271D01*
X120570112Y-81260271D02*
X120632017Y-81291223D01*
X120632017Y-81291223D02*
X120662969Y-81322176D01*
X120662969Y-81322176D02*
X120693922Y-81384080D01*
X120693922Y-81384080D02*
X120693922Y-81538842D01*
X120693922Y-81538842D02*
X120662969Y-81600747D01*
X120662969Y-81600747D02*
X120632017Y-81631700D01*
X120632017Y-81631700D02*
X120570112Y-81662652D01*
X120570112Y-81662652D02*
X120415350Y-81662652D01*
X120415350Y-81662652D02*
X120353445Y-81631700D01*
X120353445Y-81631700D02*
X120322493Y-81600747D01*
X120886638Y-136192857D02*
X120577114Y-136409524D01*
X120886638Y-136564286D02*
X120236638Y-136564286D01*
X120236638Y-136564286D02*
X120236638Y-136316667D01*
X120236638Y-136316667D02*
X120267590Y-136254762D01*
X120267590Y-136254762D02*
X120298543Y-136223809D01*
X120298543Y-136223809D02*
X120360447Y-136192857D01*
X120360447Y-136192857D02*
X120453305Y-136192857D01*
X120453305Y-136192857D02*
X120515209Y-136223809D01*
X120515209Y-136223809D02*
X120546162Y-136254762D01*
X120546162Y-136254762D02*
X120577114Y-136316667D01*
X120577114Y-136316667D02*
X120577114Y-136564286D01*
X120886638Y-135573809D02*
X120886638Y-135945238D01*
X120886638Y-135759524D02*
X120236638Y-135759524D01*
X120236638Y-135759524D02*
X120329495Y-135821428D01*
X120329495Y-135821428D02*
X120391400Y-135883333D01*
X120391400Y-135883333D02*
X120422352Y-135945238D01*
X120236638Y-134985714D02*
X120236638Y-135295238D01*
X120236638Y-135295238D02*
X120546162Y-135326190D01*
X120546162Y-135326190D02*
X120515209Y-135295238D01*
X120515209Y-135295238D02*
X120484257Y-135233333D01*
X120484257Y-135233333D02*
X120484257Y-135078571D01*
X120484257Y-135078571D02*
X120515209Y-135016666D01*
X120515209Y-135016666D02*
X120546162Y-134985714D01*
X120546162Y-134985714D02*
X120608066Y-134954761D01*
X120608066Y-134954761D02*
X120762828Y-134954761D01*
X120762828Y-134954761D02*
X120824733Y-134985714D01*
X120824733Y-134985714D02*
X120855686Y-135016666D01*
X120855686Y-135016666D02*
X120886638Y-135078571D01*
X120886638Y-135078571D02*
X120886638Y-135233333D01*
X120886638Y-135233333D02*
X120855686Y-135295238D01*
X120855686Y-135295238D02*
X120824733Y-135326190D01*
X128930997Y-68067857D02*
X128961950Y-68098809D01*
X128961950Y-68098809D02*
X128992902Y-68191667D01*
X128992902Y-68191667D02*
X128992902Y-68253571D01*
X128992902Y-68253571D02*
X128961950Y-68346428D01*
X128961950Y-68346428D02*
X128900045Y-68408333D01*
X128900045Y-68408333D02*
X128838140Y-68439286D01*
X128838140Y-68439286D02*
X128714330Y-68470238D01*
X128714330Y-68470238D02*
X128621473Y-68470238D01*
X128621473Y-68470238D02*
X128497664Y-68439286D01*
X128497664Y-68439286D02*
X128435759Y-68408333D01*
X128435759Y-68408333D02*
X128373854Y-68346428D01*
X128373854Y-68346428D02*
X128342902Y-68253571D01*
X128342902Y-68253571D02*
X128342902Y-68191667D01*
X128342902Y-68191667D02*
X128373854Y-68098809D01*
X128373854Y-68098809D02*
X128404807Y-68067857D01*
X128404807Y-67820238D02*
X128373854Y-67789286D01*
X128373854Y-67789286D02*
X128342902Y-67727381D01*
X128342902Y-67727381D02*
X128342902Y-67572619D01*
X128342902Y-67572619D02*
X128373854Y-67510714D01*
X128373854Y-67510714D02*
X128404807Y-67479762D01*
X128404807Y-67479762D02*
X128466711Y-67448809D01*
X128466711Y-67448809D02*
X128528616Y-67448809D01*
X128528616Y-67448809D02*
X128621473Y-67479762D01*
X128621473Y-67479762D02*
X128992902Y-67851190D01*
X128992902Y-67851190D02*
X128992902Y-67448809D01*
X128404807Y-67201190D02*
X128373854Y-67170238D01*
X128373854Y-67170238D02*
X128342902Y-67108333D01*
X128342902Y-67108333D02*
X128342902Y-66953571D01*
X128342902Y-66953571D02*
X128373854Y-66891666D01*
X128373854Y-66891666D02*
X128404807Y-66860714D01*
X128404807Y-66860714D02*
X128466711Y-66829761D01*
X128466711Y-66829761D02*
X128528616Y-66829761D01*
X128528616Y-66829761D02*
X128621473Y-66860714D01*
X128621473Y-66860714D02*
X128992902Y-67232142D01*
X128992902Y-67232142D02*
X128992902Y-66829761D01*
X108742902Y-135267857D02*
X108433378Y-135484524D01*
X108742902Y-135639286D02*
X108092902Y-135639286D01*
X108092902Y-135639286D02*
X108092902Y-135391667D01*
X108092902Y-135391667D02*
X108123854Y-135329762D01*
X108123854Y-135329762D02*
X108154807Y-135298809D01*
X108154807Y-135298809D02*
X108216711Y-135267857D01*
X108216711Y-135267857D02*
X108309569Y-135267857D01*
X108309569Y-135267857D02*
X108371473Y-135298809D01*
X108371473Y-135298809D02*
X108402426Y-135329762D01*
X108402426Y-135329762D02*
X108433378Y-135391667D01*
X108433378Y-135391667D02*
X108433378Y-135639286D01*
X108742902Y-134648809D02*
X108742902Y-135020238D01*
X108742902Y-134834524D02*
X108092902Y-134834524D01*
X108092902Y-134834524D02*
X108185759Y-134896428D01*
X108185759Y-134896428D02*
X108247664Y-134958333D01*
X108247664Y-134958333D02*
X108278616Y-135020238D01*
X108092902Y-134091666D02*
X108092902Y-134215476D01*
X108092902Y-134215476D02*
X108123854Y-134277380D01*
X108123854Y-134277380D02*
X108154807Y-134308333D01*
X108154807Y-134308333D02*
X108247664Y-134370238D01*
X108247664Y-134370238D02*
X108371473Y-134401190D01*
X108371473Y-134401190D02*
X108619092Y-134401190D01*
X108619092Y-134401190D02*
X108680997Y-134370238D01*
X108680997Y-134370238D02*
X108711950Y-134339285D01*
X108711950Y-134339285D02*
X108742902Y-134277380D01*
X108742902Y-134277380D02*
X108742902Y-134153571D01*
X108742902Y-134153571D02*
X108711950Y-134091666D01*
X108711950Y-134091666D02*
X108680997Y-134060714D01*
X108680997Y-134060714D02*
X108619092Y-134029761D01*
X108619092Y-134029761D02*
X108464330Y-134029761D01*
X108464330Y-134029761D02*
X108402426Y-134060714D01*
X108402426Y-134060714D02*
X108371473Y-134091666D01*
X108371473Y-134091666D02*
X108340521Y-134153571D01*
X108340521Y-134153571D02*
X108340521Y-134277380D01*
X108340521Y-134277380D02*
X108371473Y-134339285D01*
X108371473Y-134339285D02*
X108402426Y-134370238D01*
X108402426Y-134370238D02*
X108464330Y-134401190D01*
X126288747Y-96713094D02*
X125288747Y-96713094D01*
X125288747Y-96713094D02*
X125288747Y-96474999D01*
X125288747Y-96474999D02*
X125336366Y-96332142D01*
X125336366Y-96332142D02*
X125431604Y-96236904D01*
X125431604Y-96236904D02*
X125526842Y-96189285D01*
X125526842Y-96189285D02*
X125717318Y-96141666D01*
X125717318Y-96141666D02*
X125860175Y-96141666D01*
X125860175Y-96141666D02*
X126050651Y-96189285D01*
X126050651Y-96189285D02*
X126145889Y-96236904D01*
X126145889Y-96236904D02*
X126241128Y-96332142D01*
X126241128Y-96332142D02*
X126288747Y-96474999D01*
X126288747Y-96474999D02*
X126288747Y-96713094D01*
X125288747Y-95284523D02*
X125288747Y-95474999D01*
X125288747Y-95474999D02*
X125336366Y-95570237D01*
X125336366Y-95570237D02*
X125383985Y-95617856D01*
X125383985Y-95617856D02*
X125526842Y-95713094D01*
X125526842Y-95713094D02*
X125717318Y-95760713D01*
X125717318Y-95760713D02*
X126098270Y-95760713D01*
X126098270Y-95760713D02*
X126193508Y-95713094D01*
X126193508Y-95713094D02*
X126241128Y-95665475D01*
X126241128Y-95665475D02*
X126288747Y-95570237D01*
X126288747Y-95570237D02*
X126288747Y-95379761D01*
X126288747Y-95379761D02*
X126241128Y-95284523D01*
X126241128Y-95284523D02*
X126193508Y-95236904D01*
X126193508Y-95236904D02*
X126098270Y-95189285D01*
X126098270Y-95189285D02*
X125860175Y-95189285D01*
X125860175Y-95189285D02*
X125764937Y-95236904D01*
X125764937Y-95236904D02*
X125717318Y-95284523D01*
X125717318Y-95284523D02*
X125669699Y-95379761D01*
X125669699Y-95379761D02*
X125669699Y-95570237D01*
X125669699Y-95570237D02*
X125717318Y-95665475D01*
X125717318Y-95665475D02*
X125764937Y-95713094D01*
X125764937Y-95713094D02*
X125860175Y-95760713D01*
X109432142Y-135580997D02*
X109401190Y-135611950D01*
X109401190Y-135611950D02*
X109308332Y-135642902D01*
X109308332Y-135642902D02*
X109246428Y-135642902D01*
X109246428Y-135642902D02*
X109153571Y-135611950D01*
X109153571Y-135611950D02*
X109091666Y-135550045D01*
X109091666Y-135550045D02*
X109060713Y-135488140D01*
X109060713Y-135488140D02*
X109029761Y-135364330D01*
X109029761Y-135364330D02*
X109029761Y-135271473D01*
X109029761Y-135271473D02*
X109060713Y-135147664D01*
X109060713Y-135147664D02*
X109091666Y-135085759D01*
X109091666Y-135085759D02*
X109153571Y-135023854D01*
X109153571Y-135023854D02*
X109246428Y-134992902D01*
X109246428Y-134992902D02*
X109308332Y-134992902D01*
X109308332Y-134992902D02*
X109401190Y-135023854D01*
X109401190Y-135023854D02*
X109432142Y-135054807D01*
X109679761Y-135054807D02*
X109710713Y-135023854D01*
X109710713Y-135023854D02*
X109772618Y-134992902D01*
X109772618Y-134992902D02*
X109927380Y-134992902D01*
X109927380Y-134992902D02*
X109989285Y-135023854D01*
X109989285Y-135023854D02*
X110020237Y-135054807D01*
X110020237Y-135054807D02*
X110051190Y-135116711D01*
X110051190Y-135116711D02*
X110051190Y-135178616D01*
X110051190Y-135178616D02*
X110020237Y-135271473D01*
X110020237Y-135271473D02*
X109648809Y-135642902D01*
X109648809Y-135642902D02*
X110051190Y-135642902D01*
X110453571Y-134992902D02*
X110515476Y-134992902D01*
X110515476Y-134992902D02*
X110577380Y-135023854D01*
X110577380Y-135023854D02*
X110608333Y-135054807D01*
X110608333Y-135054807D02*
X110639285Y-135116711D01*
X110639285Y-135116711D02*
X110670238Y-135240521D01*
X110670238Y-135240521D02*
X110670238Y-135395283D01*
X110670238Y-135395283D02*
X110639285Y-135519092D01*
X110639285Y-135519092D02*
X110608333Y-135580997D01*
X110608333Y-135580997D02*
X110577380Y-135611950D01*
X110577380Y-135611950D02*
X110515476Y-135642902D01*
X110515476Y-135642902D02*
X110453571Y-135642902D01*
X110453571Y-135642902D02*
X110391666Y-135611950D01*
X110391666Y-135611950D02*
X110360714Y-135580997D01*
X110360714Y-135580997D02*
X110329761Y-135519092D01*
X110329761Y-135519092D02*
X110298809Y-135395283D01*
X110298809Y-135395283D02*
X110298809Y-135240521D01*
X110298809Y-135240521D02*
X110329761Y-135116711D01*
X110329761Y-135116711D02*
X110360714Y-135054807D01*
X110360714Y-135054807D02*
X110391666Y-135023854D01*
X110391666Y-135023854D02*
X110453571Y-134992902D01*
X121632142Y-52780997D02*
X121601190Y-52811950D01*
X121601190Y-52811950D02*
X121508332Y-52842902D01*
X121508332Y-52842902D02*
X121446428Y-52842902D01*
X121446428Y-52842902D02*
X121353571Y-52811950D01*
X121353571Y-52811950D02*
X121291666Y-52750045D01*
X121291666Y-52750045D02*
X121260713Y-52688140D01*
X121260713Y-52688140D02*
X121229761Y-52564330D01*
X121229761Y-52564330D02*
X121229761Y-52471473D01*
X121229761Y-52471473D02*
X121260713Y-52347664D01*
X121260713Y-52347664D02*
X121291666Y-52285759D01*
X121291666Y-52285759D02*
X121353571Y-52223854D01*
X121353571Y-52223854D02*
X121446428Y-52192902D01*
X121446428Y-52192902D02*
X121508332Y-52192902D01*
X121508332Y-52192902D02*
X121601190Y-52223854D01*
X121601190Y-52223854D02*
X121632142Y-52254807D01*
X121879761Y-52254807D02*
X121910713Y-52223854D01*
X121910713Y-52223854D02*
X121972618Y-52192902D01*
X121972618Y-52192902D02*
X122127380Y-52192902D01*
X122127380Y-52192902D02*
X122189285Y-52223854D01*
X122189285Y-52223854D02*
X122220237Y-52254807D01*
X122220237Y-52254807D02*
X122251190Y-52316711D01*
X122251190Y-52316711D02*
X122251190Y-52378616D01*
X122251190Y-52378616D02*
X122220237Y-52471473D01*
X122220237Y-52471473D02*
X121848809Y-52842902D01*
X121848809Y-52842902D02*
X122251190Y-52842902D01*
X122560714Y-52842902D02*
X122684523Y-52842902D01*
X122684523Y-52842902D02*
X122746428Y-52811950D01*
X122746428Y-52811950D02*
X122777380Y-52780997D01*
X122777380Y-52780997D02*
X122839285Y-52688140D01*
X122839285Y-52688140D02*
X122870238Y-52564330D01*
X122870238Y-52564330D02*
X122870238Y-52316711D01*
X122870238Y-52316711D02*
X122839285Y-52254807D01*
X122839285Y-52254807D02*
X122808333Y-52223854D01*
X122808333Y-52223854D02*
X122746428Y-52192902D01*
X122746428Y-52192902D02*
X122622619Y-52192902D01*
X122622619Y-52192902D02*
X122560714Y-52223854D01*
X122560714Y-52223854D02*
X122529761Y-52254807D01*
X122529761Y-52254807D02*
X122498809Y-52316711D01*
X122498809Y-52316711D02*
X122498809Y-52471473D01*
X122498809Y-52471473D02*
X122529761Y-52533378D01*
X122529761Y-52533378D02*
X122560714Y-52564330D01*
X122560714Y-52564330D02*
X122622619Y-52595283D01*
X122622619Y-52595283D02*
X122746428Y-52595283D01*
X122746428Y-52595283D02*
X122808333Y-52564330D01*
X122808333Y-52564330D02*
X122839285Y-52533378D01*
X122839285Y-52533378D02*
X122870238Y-52471473D01*
X120400594Y-107381009D02*
X120067261Y-107381009D01*
X120067261Y-107904819D02*
X120067261Y-106904819D01*
X120067261Y-106904819D02*
X120543451Y-106904819D01*
X121257737Y-107381009D02*
X121400594Y-107428628D01*
X121400594Y-107428628D02*
X121448213Y-107476247D01*
X121448213Y-107476247D02*
X121495832Y-107571485D01*
X121495832Y-107571485D02*
X121495832Y-107714342D01*
X121495832Y-107714342D02*
X121448213Y-107809580D01*
X121448213Y-107809580D02*
X121400594Y-107857200D01*
X121400594Y-107857200D02*
X121305356Y-107904819D01*
X121305356Y-107904819D02*
X120924404Y-107904819D01*
X120924404Y-107904819D02*
X120924404Y-106904819D01*
X120924404Y-106904819D02*
X121257737Y-106904819D01*
X121257737Y-106904819D02*
X121352975Y-106952438D01*
X121352975Y-106952438D02*
X121400594Y-107000057D01*
X121400594Y-107000057D02*
X121448213Y-107095295D01*
X121448213Y-107095295D02*
X121448213Y-107190533D01*
X121448213Y-107190533D02*
X121400594Y-107285771D01*
X121400594Y-107285771D02*
X121352975Y-107333390D01*
X121352975Y-107333390D02*
X121257737Y-107381009D01*
X121257737Y-107381009D02*
X120924404Y-107381009D01*
X121876785Y-107000057D02*
X121924404Y-106952438D01*
X121924404Y-106952438D02*
X122019642Y-106904819D01*
X122019642Y-106904819D02*
X122257737Y-106904819D01*
X122257737Y-106904819D02*
X122352975Y-106952438D01*
X122352975Y-106952438D02*
X122400594Y-107000057D01*
X122400594Y-107000057D02*
X122448213Y-107095295D01*
X122448213Y-107095295D02*
X122448213Y-107190533D01*
X122448213Y-107190533D02*
X122400594Y-107333390D01*
X122400594Y-107333390D02*
X121829166Y-107904819D01*
X121829166Y-107904819D02*
X122448213Y-107904819D01*
X134255997Y-120258333D02*
X134286950Y-120289285D01*
X134286950Y-120289285D02*
X134317902Y-120382143D01*
X134317902Y-120382143D02*
X134317902Y-120444047D01*
X134317902Y-120444047D02*
X134286950Y-120536904D01*
X134286950Y-120536904D02*
X134225045Y-120598809D01*
X134225045Y-120598809D02*
X134163140Y-120629762D01*
X134163140Y-120629762D02*
X134039330Y-120660714D01*
X134039330Y-120660714D02*
X133946473Y-120660714D01*
X133946473Y-120660714D02*
X133822664Y-120629762D01*
X133822664Y-120629762D02*
X133760759Y-120598809D01*
X133760759Y-120598809D02*
X133698854Y-120536904D01*
X133698854Y-120536904D02*
X133667902Y-120444047D01*
X133667902Y-120444047D02*
X133667902Y-120382143D01*
X133667902Y-120382143D02*
X133698854Y-120289285D01*
X133698854Y-120289285D02*
X133729807Y-120258333D01*
X134317902Y-119639285D02*
X134317902Y-120010714D01*
X134317902Y-119825000D02*
X133667902Y-119825000D01*
X133667902Y-119825000D02*
X133760759Y-119886904D01*
X133760759Y-119886904D02*
X133822664Y-119948809D01*
X133822664Y-119948809D02*
X133853616Y-120010714D01*
X117286638Y-135667857D02*
X116977114Y-135884524D01*
X117286638Y-136039286D02*
X116636638Y-136039286D01*
X116636638Y-136039286D02*
X116636638Y-135791667D01*
X116636638Y-135791667D02*
X116667590Y-135729762D01*
X116667590Y-135729762D02*
X116698543Y-135698809D01*
X116698543Y-135698809D02*
X116760447Y-135667857D01*
X116760447Y-135667857D02*
X116853305Y-135667857D01*
X116853305Y-135667857D02*
X116915209Y-135698809D01*
X116915209Y-135698809D02*
X116946162Y-135729762D01*
X116946162Y-135729762D02*
X116977114Y-135791667D01*
X116977114Y-135791667D02*
X116977114Y-136039286D01*
X117286638Y-135048809D02*
X117286638Y-135420238D01*
X117286638Y-135234524D02*
X116636638Y-135234524D01*
X116636638Y-135234524D02*
X116729495Y-135296428D01*
X116729495Y-135296428D02*
X116791400Y-135358333D01*
X116791400Y-135358333D02*
X116822352Y-135420238D01*
X116853305Y-134491666D02*
X117286638Y-134491666D01*
X116605686Y-134646428D02*
X117069971Y-134801190D01*
X117069971Y-134801190D02*
X117069971Y-134398809D01*
X116132142Y-139742902D02*
X115915475Y-139433378D01*
X115760713Y-139742902D02*
X115760713Y-139092902D01*
X115760713Y-139092902D02*
X116008332Y-139092902D01*
X116008332Y-139092902D02*
X116070237Y-139123854D01*
X116070237Y-139123854D02*
X116101190Y-139154807D01*
X116101190Y-139154807D02*
X116132142Y-139216711D01*
X116132142Y-139216711D02*
X116132142Y-139309569D01*
X116132142Y-139309569D02*
X116101190Y-139371473D01*
X116101190Y-139371473D02*
X116070237Y-139402426D01*
X116070237Y-139402426D02*
X116008332Y-139433378D01*
X116008332Y-139433378D02*
X115760713Y-139433378D01*
X116751190Y-139742902D02*
X116379761Y-139742902D01*
X116565475Y-139742902D02*
X116565475Y-139092902D01*
X116565475Y-139092902D02*
X116503571Y-139185759D01*
X116503571Y-139185759D02*
X116441666Y-139247664D01*
X116441666Y-139247664D02*
X116379761Y-139278616D01*
X117153571Y-139092902D02*
X117215476Y-139092902D01*
X117215476Y-139092902D02*
X117277380Y-139123854D01*
X117277380Y-139123854D02*
X117308333Y-139154807D01*
X117308333Y-139154807D02*
X117339285Y-139216711D01*
X117339285Y-139216711D02*
X117370238Y-139340521D01*
X117370238Y-139340521D02*
X117370238Y-139495283D01*
X117370238Y-139495283D02*
X117339285Y-139619092D01*
X117339285Y-139619092D02*
X117308333Y-139680997D01*
X117308333Y-139680997D02*
X117277380Y-139711950D01*
X117277380Y-139711950D02*
X117215476Y-139742902D01*
X117215476Y-139742902D02*
X117153571Y-139742902D01*
X117153571Y-139742902D02*
X117091666Y-139711950D01*
X117091666Y-139711950D02*
X117060714Y-139680997D01*
X117060714Y-139680997D02*
X117029761Y-139619092D01*
X117029761Y-139619092D02*
X116998809Y-139495283D01*
X116998809Y-139495283D02*
X116998809Y-139340521D01*
X116998809Y-139340521D02*
X117029761Y-139216711D01*
X117029761Y-139216711D02*
X117060714Y-139154807D01*
X117060714Y-139154807D02*
X117091666Y-139123854D01*
X117091666Y-139123854D02*
X117153571Y-139092902D01*
D11*
X113628571Y-52728490D02*
X113604762Y-52752300D01*
X113604762Y-52752300D02*
X113533333Y-52776109D01*
X113533333Y-52776109D02*
X113485714Y-52776109D01*
X113485714Y-52776109D02*
X113414286Y-52752300D01*
X113414286Y-52752300D02*
X113366667Y-52704680D01*
X113366667Y-52704680D02*
X113342857Y-52657061D01*
X113342857Y-52657061D02*
X113319048Y-52561823D01*
X113319048Y-52561823D02*
X113319048Y-52490395D01*
X113319048Y-52490395D02*
X113342857Y-52395157D01*
X113342857Y-52395157D02*
X113366667Y-52347538D01*
X113366667Y-52347538D02*
X113414286Y-52299919D01*
X113414286Y-52299919D02*
X113485714Y-52276109D01*
X113485714Y-52276109D02*
X113533333Y-52276109D01*
X113533333Y-52276109D02*
X113604762Y-52299919D01*
X113604762Y-52299919D02*
X113628571Y-52323728D01*
X113819048Y-52323728D02*
X113842857Y-52299919D01*
X113842857Y-52299919D02*
X113890476Y-52276109D01*
X113890476Y-52276109D02*
X114009524Y-52276109D01*
X114009524Y-52276109D02*
X114057143Y-52299919D01*
X114057143Y-52299919D02*
X114080952Y-52323728D01*
X114080952Y-52323728D02*
X114104762Y-52371347D01*
X114104762Y-52371347D02*
X114104762Y-52418966D01*
X114104762Y-52418966D02*
X114080952Y-52490395D01*
X114080952Y-52490395D02*
X113795238Y-52776109D01*
X113795238Y-52776109D02*
X114104762Y-52776109D01*
X114557142Y-52276109D02*
X114319047Y-52276109D01*
X114319047Y-52276109D02*
X114295238Y-52514204D01*
X114295238Y-52514204D02*
X114319047Y-52490395D01*
X114319047Y-52490395D02*
X114366666Y-52466585D01*
X114366666Y-52466585D02*
X114485714Y-52466585D01*
X114485714Y-52466585D02*
X114533333Y-52490395D01*
X114533333Y-52490395D02*
X114557142Y-52514204D01*
X114557142Y-52514204D02*
X114580952Y-52561823D01*
X114580952Y-52561823D02*
X114580952Y-52680871D01*
X114580952Y-52680871D02*
X114557142Y-52728490D01*
X114557142Y-52728490D02*
X114533333Y-52752300D01*
X114533333Y-52752300D02*
X114485714Y-52776109D01*
X114485714Y-52776109D02*
X114366666Y-52776109D01*
X114366666Y-52776109D02*
X114319047Y-52752300D01*
X114319047Y-52752300D02*
X114295238Y-52728490D01*
D10*
X109332142Y-139842902D02*
X109115475Y-139533378D01*
X108960713Y-139842902D02*
X108960713Y-139192902D01*
X108960713Y-139192902D02*
X109208332Y-139192902D01*
X109208332Y-139192902D02*
X109270237Y-139223854D01*
X109270237Y-139223854D02*
X109301190Y-139254807D01*
X109301190Y-139254807D02*
X109332142Y-139316711D01*
X109332142Y-139316711D02*
X109332142Y-139409569D01*
X109332142Y-139409569D02*
X109301190Y-139471473D01*
X109301190Y-139471473D02*
X109270237Y-139502426D01*
X109270237Y-139502426D02*
X109208332Y-139533378D01*
X109208332Y-139533378D02*
X108960713Y-139533378D01*
X109951190Y-139842902D02*
X109579761Y-139842902D01*
X109765475Y-139842902D02*
X109765475Y-139192902D01*
X109765475Y-139192902D02*
X109703571Y-139285759D01*
X109703571Y-139285759D02*
X109641666Y-139347664D01*
X109641666Y-139347664D02*
X109579761Y-139378616D01*
X110198809Y-139254807D02*
X110229761Y-139223854D01*
X110229761Y-139223854D02*
X110291666Y-139192902D01*
X110291666Y-139192902D02*
X110446428Y-139192902D01*
X110446428Y-139192902D02*
X110508333Y-139223854D01*
X110508333Y-139223854D02*
X110539285Y-139254807D01*
X110539285Y-139254807D02*
X110570238Y-139316711D01*
X110570238Y-139316711D02*
X110570238Y-139378616D01*
X110570238Y-139378616D02*
X110539285Y-139471473D01*
X110539285Y-139471473D02*
X110167857Y-139842902D01*
X110167857Y-139842902D02*
X110570238Y-139842902D01*
X107025594Y-102929819D02*
X107025594Y-103644104D01*
X107025594Y-103644104D02*
X106977975Y-103786961D01*
X106977975Y-103786961D02*
X106882737Y-103882200D01*
X106882737Y-103882200D02*
X106739880Y-103929819D01*
X106739880Y-103929819D02*
X106644642Y-103929819D01*
X108025594Y-103929819D02*
X107454166Y-103929819D01*
X107739880Y-103929819D02*
X107739880Y-102929819D01*
X107739880Y-102929819D02*
X107644642Y-103072676D01*
X107644642Y-103072676D02*
X107549404Y-103167914D01*
X107549404Y-103167914D02*
X107454166Y-103215533D01*
X122380997Y-62667857D02*
X122411950Y-62698809D01*
X122411950Y-62698809D02*
X122442902Y-62791667D01*
X122442902Y-62791667D02*
X122442902Y-62853571D01*
X122442902Y-62853571D02*
X122411950Y-62946428D01*
X122411950Y-62946428D02*
X122350045Y-63008333D01*
X122350045Y-63008333D02*
X122288140Y-63039286D01*
X122288140Y-63039286D02*
X122164330Y-63070238D01*
X122164330Y-63070238D02*
X122071473Y-63070238D01*
X122071473Y-63070238D02*
X121947664Y-63039286D01*
X121947664Y-63039286D02*
X121885759Y-63008333D01*
X121885759Y-63008333D02*
X121823854Y-62946428D01*
X121823854Y-62946428D02*
X121792902Y-62853571D01*
X121792902Y-62853571D02*
X121792902Y-62791667D01*
X121792902Y-62791667D02*
X121823854Y-62698809D01*
X121823854Y-62698809D02*
X121854807Y-62667857D01*
X121854807Y-62420238D02*
X121823854Y-62389286D01*
X121823854Y-62389286D02*
X121792902Y-62327381D01*
X121792902Y-62327381D02*
X121792902Y-62172619D01*
X121792902Y-62172619D02*
X121823854Y-62110714D01*
X121823854Y-62110714D02*
X121854807Y-62079762D01*
X121854807Y-62079762D02*
X121916711Y-62048809D01*
X121916711Y-62048809D02*
X121978616Y-62048809D01*
X121978616Y-62048809D02*
X122071473Y-62079762D01*
X122071473Y-62079762D02*
X122442902Y-62451190D01*
X122442902Y-62451190D02*
X122442902Y-62048809D01*
X121792902Y-61832142D02*
X121792902Y-61398809D01*
X121792902Y-61398809D02*
X122442902Y-61677380D01*
X114126830Y-74067857D02*
X113817306Y-74284524D01*
X114126830Y-74439286D02*
X113476830Y-74439286D01*
X113476830Y-74439286D02*
X113476830Y-74191667D01*
X113476830Y-74191667D02*
X113507782Y-74129762D01*
X113507782Y-74129762D02*
X113538735Y-74098809D01*
X113538735Y-74098809D02*
X113600639Y-74067857D01*
X113600639Y-74067857D02*
X113693497Y-74067857D01*
X113693497Y-74067857D02*
X113755401Y-74098809D01*
X113755401Y-74098809D02*
X113786354Y-74129762D01*
X113786354Y-74129762D02*
X113817306Y-74191667D01*
X113817306Y-74191667D02*
X113817306Y-74439286D01*
X113538735Y-73820238D02*
X113507782Y-73789286D01*
X113507782Y-73789286D02*
X113476830Y-73727381D01*
X113476830Y-73727381D02*
X113476830Y-73572619D01*
X113476830Y-73572619D02*
X113507782Y-73510714D01*
X113507782Y-73510714D02*
X113538735Y-73479762D01*
X113538735Y-73479762D02*
X113600639Y-73448809D01*
X113600639Y-73448809D02*
X113662544Y-73448809D01*
X113662544Y-73448809D02*
X113755401Y-73479762D01*
X113755401Y-73479762D02*
X114126830Y-73851190D01*
X114126830Y-73851190D02*
X114126830Y-73448809D01*
X113476830Y-73232142D02*
X113476830Y-72829761D01*
X113476830Y-72829761D02*
X113724449Y-73046428D01*
X113724449Y-73046428D02*
X113724449Y-72953571D01*
X113724449Y-72953571D02*
X113755401Y-72891666D01*
X113755401Y-72891666D02*
X113786354Y-72860714D01*
X113786354Y-72860714D02*
X113848258Y-72829761D01*
X113848258Y-72829761D02*
X114003020Y-72829761D01*
X114003020Y-72829761D02*
X114064925Y-72860714D01*
X114064925Y-72860714D02*
X114095878Y-72891666D01*
X114095878Y-72891666D02*
X114126830Y-72953571D01*
X114126830Y-72953571D02*
X114126830Y-73139285D01*
X114126830Y-73139285D02*
X114095878Y-73201190D01*
X114095878Y-73201190D02*
X114064925Y-73232142D01*
X121374874Y-121125747D02*
X121343922Y-121156700D01*
X121343922Y-121156700D02*
X121251064Y-121187652D01*
X121251064Y-121187652D02*
X121189160Y-121187652D01*
X121189160Y-121187652D02*
X121096303Y-121156700D01*
X121096303Y-121156700D02*
X121034398Y-121094795D01*
X121034398Y-121094795D02*
X121003445Y-121032890D01*
X121003445Y-121032890D02*
X120972493Y-120909080D01*
X120972493Y-120909080D02*
X120972493Y-120816223D01*
X120972493Y-120816223D02*
X121003445Y-120692414D01*
X121003445Y-120692414D02*
X121034398Y-120630509D01*
X121034398Y-120630509D02*
X121096303Y-120568604D01*
X121096303Y-120568604D02*
X121189160Y-120537652D01*
X121189160Y-120537652D02*
X121251064Y-120537652D01*
X121251064Y-120537652D02*
X121343922Y-120568604D01*
X121343922Y-120568604D02*
X121374874Y-120599557D01*
X121993922Y-121187652D02*
X121622493Y-121187652D01*
X121808207Y-121187652D02*
X121808207Y-120537652D01*
X121808207Y-120537652D02*
X121746303Y-120630509D01*
X121746303Y-120630509D02*
X121684398Y-120692414D01*
X121684398Y-120692414D02*
X121622493Y-120723366D01*
X122210589Y-120537652D02*
X122612970Y-120537652D01*
X122612970Y-120537652D02*
X122396303Y-120785271D01*
X122396303Y-120785271D02*
X122489160Y-120785271D01*
X122489160Y-120785271D02*
X122551065Y-120816223D01*
X122551065Y-120816223D02*
X122582017Y-120847176D01*
X122582017Y-120847176D02*
X122612970Y-120909080D01*
X122612970Y-120909080D02*
X122612970Y-121063842D01*
X122612970Y-121063842D02*
X122582017Y-121125747D01*
X122582017Y-121125747D02*
X122551065Y-121156700D01*
X122551065Y-121156700D02*
X122489160Y-121187652D01*
X122489160Y-121187652D02*
X122303446Y-121187652D01*
X122303446Y-121187652D02*
X122241541Y-121156700D01*
X122241541Y-121156700D02*
X122210589Y-121125747D01*
X118641666Y-92380997D02*
X118610714Y-92411950D01*
X118610714Y-92411950D02*
X118517856Y-92442902D01*
X118517856Y-92442902D02*
X118455952Y-92442902D01*
X118455952Y-92442902D02*
X118363095Y-92411950D01*
X118363095Y-92411950D02*
X118301190Y-92350045D01*
X118301190Y-92350045D02*
X118270237Y-92288140D01*
X118270237Y-92288140D02*
X118239285Y-92164330D01*
X118239285Y-92164330D02*
X118239285Y-92071473D01*
X118239285Y-92071473D02*
X118270237Y-91947664D01*
X118270237Y-91947664D02*
X118301190Y-91885759D01*
X118301190Y-91885759D02*
X118363095Y-91823854D01*
X118363095Y-91823854D02*
X118455952Y-91792902D01*
X118455952Y-91792902D02*
X118517856Y-91792902D01*
X118517856Y-91792902D02*
X118610714Y-91823854D01*
X118610714Y-91823854D02*
X118641666Y-91854807D01*
X118951190Y-92442902D02*
X119074999Y-92442902D01*
X119074999Y-92442902D02*
X119136904Y-92411950D01*
X119136904Y-92411950D02*
X119167856Y-92380997D01*
X119167856Y-92380997D02*
X119229761Y-92288140D01*
X119229761Y-92288140D02*
X119260714Y-92164330D01*
X119260714Y-92164330D02*
X119260714Y-91916711D01*
X119260714Y-91916711D02*
X119229761Y-91854807D01*
X119229761Y-91854807D02*
X119198809Y-91823854D01*
X119198809Y-91823854D02*
X119136904Y-91792902D01*
X119136904Y-91792902D02*
X119013095Y-91792902D01*
X119013095Y-91792902D02*
X118951190Y-91823854D01*
X118951190Y-91823854D02*
X118920237Y-91854807D01*
X118920237Y-91854807D02*
X118889285Y-91916711D01*
X118889285Y-91916711D02*
X118889285Y-92071473D01*
X118889285Y-92071473D02*
X118920237Y-92133378D01*
X118920237Y-92133378D02*
X118951190Y-92164330D01*
X118951190Y-92164330D02*
X119013095Y-92195283D01*
X119013095Y-92195283D02*
X119136904Y-92195283D01*
X119136904Y-92195283D02*
X119198809Y-92164330D01*
X119198809Y-92164330D02*
X119229761Y-92133378D01*
X119229761Y-92133378D02*
X119260714Y-92071473D01*
X127086638Y-124808333D02*
X126777114Y-125025000D01*
X127086638Y-125179762D02*
X126436638Y-125179762D01*
X126436638Y-125179762D02*
X126436638Y-124932143D01*
X126436638Y-124932143D02*
X126467590Y-124870238D01*
X126467590Y-124870238D02*
X126498543Y-124839285D01*
X126498543Y-124839285D02*
X126560447Y-124808333D01*
X126560447Y-124808333D02*
X126653305Y-124808333D01*
X126653305Y-124808333D02*
X126715209Y-124839285D01*
X126715209Y-124839285D02*
X126746162Y-124870238D01*
X126746162Y-124870238D02*
X126777114Y-124932143D01*
X126777114Y-124932143D02*
X126777114Y-125179762D01*
X126498543Y-124560714D02*
X126467590Y-124529762D01*
X126467590Y-124529762D02*
X126436638Y-124467857D01*
X126436638Y-124467857D02*
X126436638Y-124313095D01*
X126436638Y-124313095D02*
X126467590Y-124251190D01*
X126467590Y-124251190D02*
X126498543Y-124220238D01*
X126498543Y-124220238D02*
X126560447Y-124189285D01*
X126560447Y-124189285D02*
X126622352Y-124189285D01*
X126622352Y-124189285D02*
X126715209Y-124220238D01*
X126715209Y-124220238D02*
X127086638Y-124591666D01*
X127086638Y-124591666D02*
X127086638Y-124189285D01*
X121267261Y-88984580D02*
X121219642Y-89032200D01*
X121219642Y-89032200D02*
X121076785Y-89079819D01*
X121076785Y-89079819D02*
X120981547Y-89079819D01*
X120981547Y-89079819D02*
X120838690Y-89032200D01*
X120838690Y-89032200D02*
X120743452Y-88936961D01*
X120743452Y-88936961D02*
X120695833Y-88841723D01*
X120695833Y-88841723D02*
X120648214Y-88651247D01*
X120648214Y-88651247D02*
X120648214Y-88508390D01*
X120648214Y-88508390D02*
X120695833Y-88317914D01*
X120695833Y-88317914D02*
X120743452Y-88222676D01*
X120743452Y-88222676D02*
X120838690Y-88127438D01*
X120838690Y-88127438D02*
X120981547Y-88079819D01*
X120981547Y-88079819D02*
X121076785Y-88079819D01*
X121076785Y-88079819D02*
X121219642Y-88127438D01*
X121219642Y-88127438D02*
X121267261Y-88175057D01*
X121838690Y-88508390D02*
X121743452Y-88460771D01*
X121743452Y-88460771D02*
X121695833Y-88413152D01*
X121695833Y-88413152D02*
X121648214Y-88317914D01*
X121648214Y-88317914D02*
X121648214Y-88270295D01*
X121648214Y-88270295D02*
X121695833Y-88175057D01*
X121695833Y-88175057D02*
X121743452Y-88127438D01*
X121743452Y-88127438D02*
X121838690Y-88079819D01*
X121838690Y-88079819D02*
X122029166Y-88079819D01*
X122029166Y-88079819D02*
X122124404Y-88127438D01*
X122124404Y-88127438D02*
X122172023Y-88175057D01*
X122172023Y-88175057D02*
X122219642Y-88270295D01*
X122219642Y-88270295D02*
X122219642Y-88317914D01*
X122219642Y-88317914D02*
X122172023Y-88413152D01*
X122172023Y-88413152D02*
X122124404Y-88460771D01*
X122124404Y-88460771D02*
X122029166Y-88508390D01*
X122029166Y-88508390D02*
X121838690Y-88508390D01*
X121838690Y-88508390D02*
X121743452Y-88556009D01*
X121743452Y-88556009D02*
X121695833Y-88603628D01*
X121695833Y-88603628D02*
X121648214Y-88698866D01*
X121648214Y-88698866D02*
X121648214Y-88889342D01*
X121648214Y-88889342D02*
X121695833Y-88984580D01*
X121695833Y-88984580D02*
X121743452Y-89032200D01*
X121743452Y-89032200D02*
X121838690Y-89079819D01*
X121838690Y-89079819D02*
X122029166Y-89079819D01*
X122029166Y-89079819D02*
X122124404Y-89032200D01*
X122124404Y-89032200D02*
X122172023Y-88984580D01*
X122172023Y-88984580D02*
X122219642Y-88889342D01*
X122219642Y-88889342D02*
X122219642Y-88698866D01*
X122219642Y-88698866D02*
X122172023Y-88603628D01*
X122172023Y-88603628D02*
X122124404Y-88556009D01*
X122124404Y-88556009D02*
X122029166Y-88508390D01*
X109242902Y-68567857D02*
X108933378Y-68784524D01*
X109242902Y-68939286D02*
X108592902Y-68939286D01*
X108592902Y-68939286D02*
X108592902Y-68691667D01*
X108592902Y-68691667D02*
X108623854Y-68629762D01*
X108623854Y-68629762D02*
X108654807Y-68598809D01*
X108654807Y-68598809D02*
X108716711Y-68567857D01*
X108716711Y-68567857D02*
X108809569Y-68567857D01*
X108809569Y-68567857D02*
X108871473Y-68598809D01*
X108871473Y-68598809D02*
X108902426Y-68629762D01*
X108902426Y-68629762D02*
X108933378Y-68691667D01*
X108933378Y-68691667D02*
X108933378Y-68939286D01*
X108592902Y-68351190D02*
X108592902Y-67948809D01*
X108592902Y-67948809D02*
X108840521Y-68165476D01*
X108840521Y-68165476D02*
X108840521Y-68072619D01*
X108840521Y-68072619D02*
X108871473Y-68010714D01*
X108871473Y-68010714D02*
X108902426Y-67979762D01*
X108902426Y-67979762D02*
X108964330Y-67948809D01*
X108964330Y-67948809D02*
X109119092Y-67948809D01*
X109119092Y-67948809D02*
X109180997Y-67979762D01*
X109180997Y-67979762D02*
X109211950Y-68010714D01*
X109211950Y-68010714D02*
X109242902Y-68072619D01*
X109242902Y-68072619D02*
X109242902Y-68258333D01*
X109242902Y-68258333D02*
X109211950Y-68320238D01*
X109211950Y-68320238D02*
X109180997Y-68351190D01*
X109242902Y-67329761D02*
X109242902Y-67701190D01*
X109242902Y-67515476D02*
X108592902Y-67515476D01*
X108592902Y-67515476D02*
X108685759Y-67577380D01*
X108685759Y-67577380D02*
X108747664Y-67639285D01*
X108747664Y-67639285D02*
X108778616Y-67701190D01*
X127607142Y-79504819D02*
X127273809Y-79028628D01*
X127035714Y-79504819D02*
X127035714Y-78504819D01*
X127035714Y-78504819D02*
X127416666Y-78504819D01*
X127416666Y-78504819D02*
X127511904Y-78552438D01*
X127511904Y-78552438D02*
X127559523Y-78600057D01*
X127559523Y-78600057D02*
X127607142Y-78695295D01*
X127607142Y-78695295D02*
X127607142Y-78838152D01*
X127607142Y-78838152D02*
X127559523Y-78933390D01*
X127559523Y-78933390D02*
X127511904Y-78981009D01*
X127511904Y-78981009D02*
X127416666Y-79028628D01*
X127416666Y-79028628D02*
X127035714Y-79028628D01*
X128559523Y-79504819D02*
X127988095Y-79504819D01*
X128273809Y-79504819D02*
X128273809Y-78504819D01*
X128273809Y-78504819D02*
X128178571Y-78647676D01*
X128178571Y-78647676D02*
X128083333Y-78742914D01*
X128083333Y-78742914D02*
X127988095Y-78790533D01*
X128892857Y-78504819D02*
X129559523Y-78504819D01*
X129559523Y-78504819D02*
X129130952Y-79504819D01*
X121988095Y-53604819D02*
X121988095Y-54414342D01*
X121988095Y-54414342D02*
X122035714Y-54509580D01*
X122035714Y-54509580D02*
X122083333Y-54557200D01*
X122083333Y-54557200D02*
X122178571Y-54604819D01*
X122178571Y-54604819D02*
X122369047Y-54604819D01*
X122369047Y-54604819D02*
X122464285Y-54557200D01*
X122464285Y-54557200D02*
X122511904Y-54509580D01*
X122511904Y-54509580D02*
X122559523Y-54414342D01*
X122559523Y-54414342D02*
X122559523Y-53604819D01*
X122940476Y-53604819D02*
X123607142Y-53604819D01*
X123607142Y-53604819D02*
X123178571Y-54604819D01*
X118025878Y-121280997D02*
X117994926Y-121311950D01*
X117994926Y-121311950D02*
X117902068Y-121342902D01*
X117902068Y-121342902D02*
X117840164Y-121342902D01*
X117840164Y-121342902D02*
X117747307Y-121311950D01*
X117747307Y-121311950D02*
X117685402Y-121250045D01*
X117685402Y-121250045D02*
X117654449Y-121188140D01*
X117654449Y-121188140D02*
X117623497Y-121064330D01*
X117623497Y-121064330D02*
X117623497Y-120971473D01*
X117623497Y-120971473D02*
X117654449Y-120847664D01*
X117654449Y-120847664D02*
X117685402Y-120785759D01*
X117685402Y-120785759D02*
X117747307Y-120723854D01*
X117747307Y-120723854D02*
X117840164Y-120692902D01*
X117840164Y-120692902D02*
X117902068Y-120692902D01*
X117902068Y-120692902D02*
X117994926Y-120723854D01*
X117994926Y-120723854D02*
X118025878Y-120754807D01*
X118644926Y-121342902D02*
X118273497Y-121342902D01*
X118459211Y-121342902D02*
X118459211Y-120692902D01*
X118459211Y-120692902D02*
X118397307Y-120785759D01*
X118397307Y-120785759D02*
X118335402Y-120847664D01*
X118335402Y-120847664D02*
X118273497Y-120878616D01*
X119202069Y-120909569D02*
X119202069Y-121342902D01*
X119047307Y-120661950D02*
X118892545Y-121126235D01*
X118892545Y-121126235D02*
X119294926Y-121126235D01*
%TO.C,R32*%
D12*
X106800000Y-65500000D02*
X106800000Y-63800000D01*
X108200000Y-63800000D02*
X108200000Y-65500000D01*
%TO.C,C10*%
X113133928Y-94650000D02*
X113133928Y-95850000D01*
X113433928Y-95850000D02*
X113433928Y-94650000D01*
%TO.C,R29*%
X121800000Y-65650000D02*
X121800000Y-63950000D01*
X123200000Y-63950000D02*
X123200000Y-65650000D01*
%TO.C,C31*%
X110850000Y-83200000D02*
X110850000Y-84400000D01*
X111150000Y-84400000D02*
X111150000Y-83200000D01*
%TO.C,R21*%
X120300000Y-68900000D02*
X120300000Y-67200000D01*
X121700000Y-67200000D02*
X121700000Y-68900000D01*
%TO.C,U5*%
X112890000Y-80190000D02*
X113065000Y-80190000D01*
X112890000Y-83410000D02*
X112890000Y-80190000D01*
X113065000Y-83410000D02*
X112890000Y-83410000D01*
X115935000Y-80190000D02*
X116110000Y-80190000D01*
X116110000Y-80190000D02*
X116110000Y-83410000D01*
X116110000Y-83410000D02*
X115935000Y-83410000D01*
X115940000Y-79640000D02*
X116270000Y-79400000D01*
X116270000Y-79880000D01*
X115940000Y-79640000D01*
G36*
X116270000Y-79880000D02*
G01*
X115940000Y-79640000D01*
X116270000Y-79400000D01*
X116270000Y-79880000D01*
G37*
%TO.C,C18*%
X130900000Y-135700000D02*
X132100000Y-135700000D01*
X132100000Y-135400000D02*
X130900000Y-135400000D01*
%TO.C,R3*%
X113933928Y-88400000D02*
X113933928Y-86700000D01*
X115333928Y-86700000D02*
X115333928Y-88400000D01*
%TO.C,R18*%
X106800000Y-73150000D02*
X106800000Y-71450000D01*
X108200000Y-71450000D02*
X108200000Y-73150000D01*
%TO.C,R13*%
X127868736Y-136600000D02*
X127868736Y-134900000D01*
X129268736Y-134900000D02*
X129268736Y-136600000D01*
%TO.C,U2*%
X126080000Y-109476000D02*
X126080000Y-109746000D01*
X126080000Y-109746000D02*
X123250000Y-109746000D01*
X126080000Y-116106000D02*
X124980000Y-116106000D01*
X126080000Y-116376000D02*
X126080000Y-116106000D01*
X127580000Y-109476000D02*
X126080000Y-109476000D01*
X127580000Y-116376000D02*
X126080000Y-116376000D01*
%TO.C,C7*%
X110973928Y-98354437D02*
X110973928Y-101810000D01*
X110973928Y-101810000D02*
X112173928Y-101810000D01*
X112038365Y-97290000D02*
X110973928Y-98354437D01*
X112038365Y-97290000D02*
X112173928Y-97290000D01*
X114429491Y-97290000D02*
X114293928Y-97290000D01*
X114429491Y-97290000D02*
X115493928Y-98354437D01*
X114793928Y-96550000D02*
X114793928Y-97050000D01*
X115043928Y-96800000D02*
X114543928Y-96800000D01*
X115493928Y-98354437D02*
X115493928Y-101810000D01*
X115493928Y-101810000D02*
X114293928Y-101810000D01*
%TO.C,C24*%
X129400000Y-74700000D02*
X130600000Y-74700000D01*
X130600000Y-74400000D02*
X129400000Y-74400000D01*
%TO.C,R4*%
X113593736Y-125575000D02*
X113593736Y-123875000D01*
X114993736Y-123875000D02*
X114993736Y-125575000D01*
%TO.C,R19*%
X116300000Y-68900000D02*
X116300000Y-67200000D01*
X117700000Y-67200000D02*
X117700000Y-68900000D01*
%TO.C,R9*%
X129281236Y-137525000D02*
X130981236Y-137525000D01*
X130981236Y-138925000D02*
X129281236Y-138925000D01*
%TO.C,R25*%
X115183928Y-77150000D02*
X115183928Y-75450000D01*
X116583928Y-75450000D02*
X116583928Y-77150000D01*
%TO.C,J2*%
X131753928Y-58730000D02*
X131753928Y-76570000D01*
X131753928Y-58730000D02*
X134413928Y-58730000D01*
X131753928Y-76570000D02*
X134413928Y-76570000D01*
X133083928Y-56130000D02*
X134413928Y-56130000D01*
X134413928Y-56130000D02*
X134413928Y-57460000D01*
X134413928Y-58730000D02*
X134413928Y-76570000D01*
%TO.C,R26*%
X111183928Y-77150000D02*
X111183928Y-75450000D01*
X112583928Y-75450000D02*
X112583928Y-77150000D01*
%TO.C,C30*%
X110850000Y-81700000D02*
X110850000Y-82900000D01*
X111150000Y-82900000D02*
X111150000Y-81700000D01*
%TO.C,D1*%
X111648928Y-92425000D02*
X111648928Y-94125000D01*
X111648928Y-92425000D02*
X114308928Y-92425000D01*
X111648928Y-94125000D02*
X114308928Y-94125000D01*
%TO.C,R27*%
X113550000Y-68900000D02*
X113550000Y-67200000D01*
X114950000Y-67200000D02*
X114950000Y-68900000D01*
%TO.C,R1*%
X109933928Y-88400000D02*
X109933928Y-86700000D01*
X111333928Y-86700000D02*
X111333928Y-88400000D01*
%TO.C,R8*%
X124868736Y-136525000D02*
X124868736Y-134825000D01*
X126268736Y-134825000D02*
X126268736Y-136525000D01*
%TO.C,U4*%
X116133928Y-93275000D02*
X120133928Y-93275000D01*
X120133928Y-93275000D02*
X120133928Y-94475000D01*
X120133928Y-96875000D02*
X120133928Y-98075000D01*
X120133928Y-98075000D02*
X117433928Y-98075000D01*
%TO.C,R20*%
X117800000Y-68900000D02*
X117800000Y-67200000D01*
X119200000Y-67200000D02*
X119200000Y-68900000D01*
%TO.C,D7*%
X123358928Y-104660000D02*
X123358928Y-102000000D01*
X123358928Y-104660000D02*
X125058928Y-104660000D01*
X125058928Y-104660000D02*
X125058928Y-102000000D01*
%TO.C,C15*%
X132350000Y-77450000D02*
X132350000Y-78650000D01*
X132650000Y-78650000D02*
X132650000Y-77450000D01*
%TO.C,C23*%
X129400000Y-71200000D02*
X130600000Y-71200000D01*
X130600000Y-70900000D02*
X129400000Y-70900000D01*
%TO.C,C28*%
X113650000Y-64950000D02*
X114850000Y-64950000D01*
X114850000Y-64650000D02*
X113650000Y-64650000D01*
%TO.C,R24*%
X112050000Y-68900000D02*
X112050000Y-67200000D01*
X113450000Y-67200000D02*
X113450000Y-68900000D01*
%TO.C,R30*%
X112050000Y-65650000D02*
X112050000Y-63950000D01*
X113450000Y-63950000D02*
X113450000Y-65650000D01*
%TO.C,R28*%
X116300000Y-65650000D02*
X116300000Y-63950000D01*
X117700000Y-63950000D02*
X117700000Y-65650000D01*
%TO.C,U3*%
X126173928Y-79815000D02*
X127693928Y-79815000D01*
X126173928Y-80815000D02*
X126173928Y-79815000D01*
X126173928Y-82935000D02*
X126173928Y-81935000D01*
X127693928Y-79815000D02*
X127693928Y-79865000D01*
X127693928Y-80985000D02*
X127693928Y-81765000D01*
X127693928Y-82885000D02*
X127693928Y-82935000D01*
X127693928Y-82935000D02*
X126173928Y-82935000D01*
X128233928Y-81755000D02*
X127993928Y-81425000D01*
X128473928Y-81425000D01*
X128233928Y-81755000D01*
G36*
X128233928Y-81755000D02*
G01*
X127993928Y-81425000D01*
X128473928Y-81425000D01*
X128233928Y-81755000D01*
G37*
%TO.C,U6*%
X116898928Y-106290000D02*
X118418928Y-106290000D01*
X116898928Y-106340000D02*
X116898928Y-106290000D01*
X116898928Y-108240000D02*
X116898928Y-107460000D01*
X116898928Y-109410000D02*
X116898928Y-109360000D01*
X118418928Y-106290000D02*
X118418928Y-107290000D01*
X118418928Y-108410000D02*
X118418928Y-109410000D01*
X118418928Y-109410000D02*
X116898928Y-109410000D01*
X116358928Y-107470000D02*
X116598928Y-107800000D01*
X116118928Y-107800000D01*
X116358928Y-107470000D01*
G36*
X116598928Y-107800000D02*
G01*
X116118928Y-107800000D01*
X116358928Y-107470000D01*
X116598928Y-107800000D01*
G37*
%TO.C,C2*%
X118173928Y-100265000D02*
X119373928Y-100265000D01*
X118173928Y-103720563D02*
X118173928Y-100265000D01*
X118623928Y-105275000D02*
X119123928Y-105275000D01*
X118873928Y-105525000D02*
X118873928Y-105025000D01*
X119238365Y-104785000D02*
X118173928Y-103720563D01*
X119238365Y-104785000D02*
X119373928Y-104785000D01*
X121629491Y-104785000D02*
X121493928Y-104785000D01*
X121629491Y-104785000D02*
X122693928Y-103720563D01*
X122693928Y-100265000D02*
X121493928Y-100265000D01*
X122693928Y-103720563D02*
X122693928Y-100265000D01*
%TO.C,C21*%
X122900000Y-135950000D02*
X124100000Y-135950000D01*
X124100000Y-135650000D02*
X122900000Y-135650000D01*
%TO.C,R11*%
X122481236Y-137525000D02*
X124181236Y-137525000D01*
X124181236Y-138925000D02*
X122481236Y-138925000D01*
%TO.C,R5*%
X111933928Y-88400000D02*
X111933928Y-86700000D01*
X113333928Y-86700000D02*
X113333928Y-88400000D01*
%TO.C,R7*%
X115933928Y-88400000D02*
X115933928Y-86700000D01*
X117333928Y-86700000D02*
X117333928Y-88400000D01*
%TO.C,C17*%
X110948928Y-104190000D02*
X112148928Y-104190000D01*
X110948928Y-107645563D02*
X110948928Y-104190000D01*
X111398928Y-109200000D02*
X111898928Y-109200000D01*
X111648928Y-109450000D02*
X111648928Y-108950000D01*
X112013365Y-108710000D02*
X110948928Y-107645563D01*
X112013365Y-108710000D02*
X112148928Y-108710000D01*
X114404491Y-108710000D02*
X114268928Y-108710000D01*
X114404491Y-108710000D02*
X115468928Y-107645563D01*
X115468928Y-104190000D02*
X114268928Y-104190000D01*
X115468928Y-107645563D02*
X115468928Y-104190000D01*
%TO.C,C16*%
X120233928Y-108675000D02*
X120233928Y-109875000D01*
X120533928Y-109875000D02*
X120533928Y-108675000D01*
%TO.C,R22*%
X121800000Y-68900000D02*
X121800000Y-67200000D01*
X123200000Y-67200000D02*
X123200000Y-68900000D01*
%TO.C,C4*%
X124550000Y-118690000D02*
X125050000Y-118690000D01*
X124800000Y-118440000D02*
X124800000Y-118940000D01*
X125290000Y-119054437D02*
X125290000Y-119190000D01*
X125290000Y-119054437D02*
X126354437Y-117990000D01*
X125290000Y-121445563D02*
X125290000Y-121310000D01*
X125290000Y-121445563D02*
X126354437Y-122510000D01*
X126354437Y-117990000D02*
X129810000Y-117990000D01*
X126354437Y-122510000D02*
X129810000Y-122510000D01*
X129810000Y-117990000D02*
X129810000Y-119190000D01*
X129810000Y-122510000D02*
X129810000Y-121310000D01*
%TO.C,C26*%
X117900000Y-64950000D02*
X119100000Y-64950000D01*
X119100000Y-64650000D02*
X117900000Y-64650000D01*
%TO.C,C6*%
X117733928Y-78950000D02*
X117733928Y-80150000D01*
X118033928Y-80150000D02*
X118033928Y-78950000D01*
%TO.C,FB1*%
X123748928Y-99075378D02*
X123748928Y-99874622D01*
X124868928Y-99075378D02*
X124868928Y-99874622D01*
%TO.C,C3*%
X116458928Y-102475000D02*
X117658928Y-102475000D01*
X117658928Y-102175000D02*
X116458928Y-102175000D01*
%TO.C,R6*%
X114968736Y-136275000D02*
X114968736Y-134575000D01*
X116368736Y-134575000D02*
X116368736Y-136275000D01*
%TO.C,C11*%
X131108928Y-81600000D02*
X131108928Y-82800000D01*
X131408928Y-82800000D02*
X131408928Y-81600000D01*
%TO.C,U1*%
X115358736Y-126460000D02*
X115423736Y-126460000D01*
X115358736Y-130580000D02*
X115358736Y-126460000D01*
X115423736Y-130580000D02*
X115358736Y-130580000D01*
X124163736Y-126460000D02*
X124228736Y-126460000D01*
X124228736Y-126460000D02*
X124228736Y-130580000D01*
X124228736Y-130580000D02*
X124163736Y-130580000D01*
X124163736Y-125920000D02*
X124493736Y-125680000D01*
X124493736Y-126160000D01*
X124163736Y-125920000D01*
G36*
X124493736Y-126160000D02*
G01*
X124163736Y-125920000D01*
X124493736Y-125680000D01*
X124493736Y-126160000D01*
G37*
%TO.C,C12*%
X127483928Y-83965000D02*
X127983928Y-83965000D01*
X127733928Y-83715000D02*
X127733928Y-84215000D01*
X128223928Y-84329437D02*
X128223928Y-84465000D01*
X128223928Y-84329437D02*
X129288365Y-83265000D01*
X128223928Y-86720563D02*
X128223928Y-86585000D01*
X128223928Y-86720563D02*
X129288365Y-87785000D01*
X129288365Y-83265000D02*
X132743928Y-83265000D01*
X129288365Y-87785000D02*
X132743928Y-87785000D01*
X132743928Y-83265000D02*
X132743928Y-84465000D01*
X132743928Y-87785000D02*
X132743928Y-86585000D01*
%TO.C,C19*%
X113400000Y-137450000D02*
X114600000Y-137450000D01*
X114600000Y-137150000D02*
X113400000Y-137150000D01*
%TO.C,C5*%
D13*
X117629928Y-82108800D02*
X117629928Y-80991200D01*
X118137928Y-82108800D02*
X118137928Y-80991200D01*
%TO.C,R15*%
D12*
X121193736Y-136625000D02*
X121193736Y-134925000D01*
X122593736Y-134925000D02*
X122593736Y-136625000D01*
%TO.C,C22*%
X129400000Y-67800000D02*
X130600000Y-67800000D01*
X130600000Y-67500000D02*
X129400000Y-67500000D01*
%TO.C,R16*%
X106550000Y-136475000D02*
X106550000Y-134775000D01*
X107950000Y-134775000D02*
X107950000Y-136475000D01*
%TO.C,D6*%
X123358928Y-94290000D02*
X123358928Y-96950000D01*
X125058928Y-94290000D02*
X123358928Y-94290000D01*
X125058928Y-94290000D02*
X125058928Y-96950000D01*
%TO.C,C20*%
X109600000Y-135950000D02*
X109600000Y-137150000D01*
X109900000Y-137150000D02*
X109900000Y-135950000D01*
%TO.C,C29*%
X119350000Y-51950000D02*
X119350000Y-53150000D01*
X119650000Y-53150000D02*
X119650000Y-51950000D01*
%TO.C,FB2*%
X123808550Y-105340000D02*
X123009306Y-105340000D01*
X123808550Y-106460000D02*
X123009306Y-106460000D01*
%TO.C,C1*%
X132125000Y-120300000D02*
X133325000Y-120300000D01*
X133325000Y-120000000D02*
X132125000Y-120000000D01*
%TO.C,R14*%
X117518736Y-136600000D02*
X117518736Y-134900000D01*
X118918736Y-134900000D02*
X118918736Y-136600000D01*
%TO.C,R10*%
X115656236Y-137525000D02*
X117356236Y-137525000D01*
X117356236Y-138925000D02*
X115656236Y-138925000D01*
%TO.C,C25*%
X116390580Y-52040000D02*
X116109420Y-52040000D01*
X116390580Y-53060000D02*
X116109420Y-53060000D01*
%TO.C,R12*%
X108881236Y-137525000D02*
X110581236Y-137525000D01*
X110581236Y-138925000D02*
X108881236Y-138925000D01*
%TO.C,J1*%
X105953928Y-84590000D02*
X105953928Y-102430000D01*
X105953928Y-84590000D02*
X108613928Y-84590000D01*
X105953928Y-102430000D02*
X108613928Y-102430000D01*
X107283928Y-81990000D02*
X108613928Y-81990000D01*
X108613928Y-81990000D02*
X108613928Y-83320000D01*
X108613928Y-84590000D02*
X108613928Y-102430000D01*
%TO.C,C27*%
X120400000Y-64950000D02*
X121600000Y-64950000D01*
X121600000Y-64650000D02*
X120400000Y-64650000D01*
%TO.C,R23*%
X113183928Y-77150000D02*
X113183928Y-75450000D01*
X114583928Y-75450000D02*
X114583928Y-77150000D01*
%TO.C,C13*%
D13*
X121614736Y-122833800D02*
X121614736Y-121716200D01*
X122122736Y-122833800D02*
X122122736Y-121716200D01*
%TO.C,C9*%
D12*
X116308928Y-91475000D02*
X116308928Y-92675000D01*
X116608928Y-92675000D02*
X116608928Y-91475000D01*
%TO.C,R2*%
X124743736Y-125550000D02*
X124743736Y-123850000D01*
X126143736Y-123850000D02*
X126143736Y-125550000D01*
%TO.C,C8*%
X121298928Y-83165000D02*
X121298928Y-84365000D01*
X121298928Y-87685000D02*
X121298928Y-86485000D01*
X124754491Y-83165000D02*
X121298928Y-83165000D01*
X124754491Y-87685000D02*
X121298928Y-87685000D01*
X125818928Y-84229437D02*
X124754491Y-83165000D01*
X125818928Y-84229437D02*
X125818928Y-84365000D01*
X125818928Y-86620563D02*
X124754491Y-87685000D01*
X125818928Y-86620563D02*
X125818928Y-86485000D01*
X126308928Y-87235000D02*
X126308928Y-86735000D01*
X126558928Y-86985000D02*
X126058928Y-86985000D01*
%TO.C,R31*%
X106800000Y-69000000D02*
X106800000Y-67300000D01*
X108200000Y-67300000D02*
X108200000Y-69000000D01*
%TO.C,R17*%
X131442506Y-79215000D02*
X130925350Y-79215000D01*
X131442506Y-80635000D02*
X130925350Y-80635000D01*
%TO.C,U7*%
X115940000Y-53615000D02*
X120060000Y-53615000D01*
X115940000Y-53680000D02*
X115940000Y-53615000D01*
X115940000Y-62485000D02*
X115940000Y-62420000D01*
X120060000Y-53615000D02*
X120060000Y-53680000D01*
X120060000Y-62420000D02*
X120060000Y-62485000D01*
X120060000Y-62485000D02*
X115940000Y-62485000D01*
X115400000Y-53680000D02*
X115160000Y-53350000D01*
X115640000Y-53350000D01*
X115400000Y-53680000D01*
G36*
X115400000Y-53680000D02*
G01*
X115160000Y-53350000D01*
X115640000Y-53350000D01*
X115400000Y-53680000D01*
G37*
%TO.C,C14*%
X118293736Y-121675000D02*
X118293736Y-122875000D01*
X118593736Y-122875000D02*
X118593736Y-121675000D01*
%TD*%
%LPC*%
D14*
%TO.C,R32*%
X107500000Y-65500000D03*
X107500000Y-63800000D03*
%TD*%
%TO.C,C10*%
X114133928Y-95250000D03*
X112433928Y-95250000D03*
%TD*%
%TO.C,R29*%
X122500000Y-65650000D03*
X122500000Y-63950000D03*
%TD*%
%TO.C,C31*%
X110150000Y-83800000D03*
X111850000Y-83800000D03*
%TD*%
%TO.C,R21*%
X121000000Y-68900000D03*
X121000000Y-67200000D03*
%TD*%
D15*
%TO.C,U5*%
X115500000Y-79700000D03*
X115000000Y-79700000D03*
X114500000Y-79700000D03*
X114000000Y-79700000D03*
X113500000Y-79700000D03*
X113500000Y-83900000D03*
X114000000Y-83900000D03*
X114500000Y-83900000D03*
X115000000Y-83900000D03*
X115500000Y-83900000D03*
%TD*%
D14*
%TO.C,C18*%
X131500000Y-136400000D03*
X131500000Y-134700000D03*
%TD*%
%TO.C,R3*%
X114633928Y-86700000D03*
X114633928Y-88400000D03*
%TD*%
%TO.C,R18*%
X107500000Y-71450000D03*
X107500000Y-73150000D03*
%TD*%
%TO.C,R13*%
X128568736Y-134900000D03*
X128568736Y-136600000D03*
%TD*%
D16*
%TO.C,U2*%
X124350000Y-110646000D03*
D17*
X130650000Y-112926000D03*
D16*
X124350000Y-115206000D03*
%TD*%
D18*
%TO.C,C7*%
X113233928Y-97750000D03*
X113233928Y-101350000D03*
%TD*%
D14*
%TO.C,C24*%
X130000000Y-75400000D03*
X130000000Y-73700000D03*
%TD*%
%TO.C,R4*%
X114293736Y-125575000D03*
X114293736Y-123875000D03*
%TD*%
%TO.C,R19*%
X117000000Y-68900000D03*
X117000000Y-67200000D03*
%TD*%
%TO.C,R9*%
X130981236Y-138225000D03*
X129281236Y-138225000D03*
%TD*%
%TO.C,R25*%
X115883928Y-77150000D03*
X115883928Y-75450000D03*
%TD*%
D19*
%TO.C,J2*%
X133083928Y-57460000D03*
D20*
X133083928Y-60000000D03*
X133083928Y-62540000D03*
X133083928Y-65080000D03*
X133083928Y-67620000D03*
X133083928Y-70160000D03*
X133083928Y-72700000D03*
X133083928Y-75240000D03*
%TD*%
D14*
%TO.C,R26*%
X111883928Y-75450000D03*
X111883928Y-77150000D03*
%TD*%
%TO.C,C30*%
X110150000Y-82300000D03*
X111850000Y-82300000D03*
%TD*%
D21*
%TO.C,D1*%
X112208928Y-93275000D03*
X114308928Y-93275000D03*
%TD*%
D14*
%TO.C,R27*%
X114250000Y-68900000D03*
X114250000Y-67200000D03*
%TD*%
%TO.C,R1*%
X110633928Y-86700000D03*
X110633928Y-88400000D03*
%TD*%
%TO.C,R8*%
X125568736Y-136525000D03*
X125568736Y-134825000D03*
%TD*%
D22*
%TO.C,U4*%
X116873928Y-94175000D03*
D23*
X117020428Y-95675000D03*
D24*
X118277728Y-95675000D03*
D25*
X119687428Y-95675000D03*
D26*
X121020928Y-95675000D03*
D22*
X116873928Y-97175000D03*
%TD*%
D14*
%TO.C,R20*%
X118500000Y-68900000D03*
X118500000Y-67200000D03*
%TD*%
D27*
%TO.C,D7*%
X124208928Y-104100000D03*
X124208928Y-102000000D03*
%TD*%
D14*
%TO.C,C15*%
X131650000Y-78050000D03*
X133350000Y-78050000D03*
%TD*%
%TO.C,C23*%
X130000000Y-70200000D03*
X130000000Y-71900000D03*
%TD*%
%TO.C,C28*%
X114250000Y-65650000D03*
X114250000Y-63950000D03*
%TD*%
%TO.C,R24*%
X112750000Y-68900000D03*
X112750000Y-67200000D03*
%TD*%
%TO.C,R30*%
X112750000Y-65650000D03*
X112750000Y-63950000D03*
%TD*%
%TO.C,R28*%
X117000000Y-65650000D03*
X117000000Y-63950000D03*
%TD*%
D28*
%TO.C,U3*%
X127871428Y-82325000D03*
X127871428Y-80425000D03*
X125996428Y-81375000D03*
%TD*%
D29*
%TO.C,U6*%
X116721428Y-106900000D03*
X116721428Y-108800000D03*
X118596428Y-107850000D03*
%TD*%
D30*
%TO.C,C2*%
X120433928Y-104325000D03*
X120433928Y-100725000D03*
%TD*%
D14*
%TO.C,C21*%
X123500000Y-136650000D03*
X123500000Y-134950000D03*
%TD*%
%TO.C,R11*%
X124181236Y-138225000D03*
X122481236Y-138225000D03*
%TD*%
%TO.C,R5*%
X112633928Y-86700000D03*
X112633928Y-88400000D03*
%TD*%
%TO.C,R7*%
X116633928Y-86700000D03*
X116633928Y-88400000D03*
%TD*%
D30*
%TO.C,C17*%
X113208928Y-108250000D03*
X113208928Y-104650000D03*
%TD*%
D14*
%TO.C,C16*%
X121233928Y-109275000D03*
X119533928Y-109275000D03*
%TD*%
%TO.C,R22*%
X122500000Y-68900000D03*
X122500000Y-67200000D03*
%TD*%
D31*
%TO.C,C4*%
X125750000Y-120250000D03*
X129350000Y-120250000D03*
%TD*%
D14*
%TO.C,C26*%
X118500000Y-65650000D03*
X118500000Y-63950000D03*
%TD*%
%TO.C,C6*%
X117033928Y-79550000D03*
X118733928Y-79550000D03*
%TD*%
D32*
%TO.C,FB1*%
X124308928Y-98412500D03*
X124308928Y-100537500D03*
%TD*%
D14*
%TO.C,C3*%
X117058928Y-103175000D03*
X117058928Y-101475000D03*
%TD*%
%TO.C,R6*%
X115668736Y-136275000D03*
X115668736Y-134575000D03*
%TD*%
%TO.C,C11*%
X132108928Y-82200000D03*
X130408928Y-82200000D03*
%TD*%
D33*
%TO.C,U1*%
X123603736Y-126045000D03*
X122333736Y-126045000D03*
X121063736Y-126045000D03*
X119793736Y-126045000D03*
X118523736Y-126045000D03*
X117253736Y-126045000D03*
X115983736Y-126045000D03*
X115983736Y-130995000D03*
X117253736Y-130995000D03*
X118523736Y-130995000D03*
X119793736Y-130995000D03*
X121063736Y-130995000D03*
X122333736Y-130995000D03*
X123603736Y-130995000D03*
%TD*%
D31*
%TO.C,C12*%
X128683928Y-85525000D03*
X132283928Y-85525000D03*
%TD*%
D14*
%TO.C,C19*%
X114000000Y-138150000D03*
X114000000Y-136450000D03*
%TD*%
D34*
%TO.C,C5*%
X116933928Y-81550000D03*
X118833928Y-81550000D03*
%TD*%
D14*
%TO.C,R15*%
X121893736Y-134925000D03*
X121893736Y-136625000D03*
%TD*%
%TO.C,C22*%
X130000000Y-68500000D03*
X130000000Y-66800000D03*
%TD*%
%TO.C,R16*%
X107250000Y-134775000D03*
X107250000Y-136475000D03*
%TD*%
D35*
%TO.C,D6*%
X124208928Y-94850000D03*
X124208928Y-96950000D03*
%TD*%
D14*
%TO.C,C20*%
X110600000Y-136550000D03*
X108900000Y-136550000D03*
%TD*%
%TO.C,C29*%
X118650000Y-52550000D03*
X120350000Y-52550000D03*
%TD*%
D36*
%TO.C,FB2*%
X124471428Y-105900000D03*
X122346428Y-105900000D03*
%TD*%
D14*
%TO.C,C1*%
X132725000Y-119300000D03*
X132725000Y-121000000D03*
%TD*%
%TO.C,R14*%
X118218736Y-134900000D03*
X118218736Y-136600000D03*
%TD*%
%TO.C,R10*%
X115656236Y-138225000D03*
X117356236Y-138225000D03*
%TD*%
D37*
%TO.C,C25*%
X117025000Y-52550000D03*
X115475000Y-52550000D03*
%TD*%
D14*
%TO.C,R12*%
X110581236Y-138225000D03*
X108881236Y-138225000D03*
%TD*%
D19*
%TO.C,J1*%
X107283928Y-83320000D03*
D20*
X107283928Y-85860000D03*
X107283928Y-88400000D03*
X107283928Y-90940000D03*
X107283928Y-93480000D03*
X107283928Y-96020000D03*
X107283928Y-98560000D03*
X107283928Y-101100000D03*
%TD*%
D14*
%TO.C,C27*%
X121000000Y-65650000D03*
X121000000Y-63950000D03*
%TD*%
%TO.C,R23*%
X113883928Y-77150000D03*
X113883928Y-75450000D03*
%TD*%
D34*
%TO.C,C13*%
X120918736Y-122275000D03*
X122818736Y-122275000D03*
%TD*%
D14*
%TO.C,C9*%
X117308928Y-92075000D03*
X115608928Y-92075000D03*
%TD*%
%TO.C,R2*%
X125443736Y-125550000D03*
X125443736Y-123850000D03*
%TD*%
D38*
%TO.C,C8*%
X125358928Y-85425000D03*
X121758928Y-85425000D03*
%TD*%
D14*
%TO.C,R31*%
X107500000Y-67300000D03*
X107500000Y-69000000D03*
%TD*%
D39*
%TO.C,R17*%
X132121428Y-79925000D03*
X130246428Y-79925000D03*
%TD*%
D40*
%TO.C,U7*%
X115525000Y-54240000D03*
X115525000Y-55510000D03*
X115525000Y-56780000D03*
X115525000Y-58050000D03*
X115525000Y-59320000D03*
X115525000Y-60590000D03*
X115525000Y-61860000D03*
X120475000Y-61860000D03*
X120475000Y-60590000D03*
X120475000Y-59320000D03*
X120475000Y-58050000D03*
X120475000Y-56780000D03*
X120475000Y-55510000D03*
X120475000Y-54240000D03*
%TD*%
D14*
%TO.C,C14*%
X119293736Y-122275000D03*
X117593736Y-122275000D03*
%TD*%
D41*
%TO.C,RV1*%
X130283928Y-146700000D03*
D42*
X130283928Y-144160000D03*
X130283928Y-141620000D03*
%TD*%
D19*
%TO.C,J6*%
X110148928Y-56559750D03*
D20*
X110148928Y-59099750D03*
X110148928Y-61639750D03*
X110148928Y-64179750D03*
X110148928Y-66719750D03*
X110148928Y-69259750D03*
X110148928Y-71799750D03*
%TD*%
D43*
%TO.C,H2*%
X119883928Y-113150000D03*
%TD*%
D44*
%TO.C,J10*%
X130998928Y-92690000D03*
X128458928Y-92690000D03*
X130998928Y-95230000D03*
X128458928Y-95230000D03*
X130998928Y-97770000D03*
X128458928Y-97770000D03*
X130998928Y-100310000D03*
X128458928Y-100310000D03*
X130998928Y-102850000D03*
X128458928Y-102850000D03*
%TD*%
D41*
%TO.C,RV2*%
X116658928Y-146700000D03*
D42*
X116658928Y-144160000D03*
X116658928Y-141620000D03*
%TD*%
D41*
%TO.C,RV4*%
X109883928Y-146700000D03*
D42*
X109883928Y-144160000D03*
X109883928Y-141620000D03*
%TD*%
D41*
%TO.C,RV3*%
X123483928Y-146700000D03*
D42*
X123483928Y-144160000D03*
X123483928Y-141620000D03*
%TD*%
D19*
%TO.C,J7*%
X125056753Y-71699750D03*
D20*
X125056753Y-69159750D03*
X125056753Y-66619750D03*
X125056753Y-64079750D03*
X125056753Y-61539750D03*
X125056753Y-58999750D03*
X125056753Y-56459750D03*
%TD*%
D43*
%TO.C,H1*%
X119883928Y-75050000D03*
%TD*%
D19*
%TO.C,J9*%
X111550000Y-113910000D03*
D20*
X109010000Y-113910000D03*
X111550000Y-116450000D03*
X109010000Y-116450000D03*
X111550000Y-118990000D03*
X109010000Y-118990000D03*
X111550000Y-121530000D03*
X109010000Y-121530000D03*
%TD*%
%LPD*%
M02*
