M48
; DRILL file KiCad 10.0.5 date 2026-09-11T17:04:42
; FORMAT={-:-/ absolute / inch / decimal}
; #@! TF.CreationDate,2026-09-11T17:04:42-03:00
; #@! TF.GenerationSoftware,Kicad,Pcbnew,10.0.5
; #@! TF.FileFunction,Plated,1,2,PTH
FMAT,2
INCH
; #@! TA.AperFunction,Plated,PTH,ViaDrill
T1C0.0118
; #@! TA.AperFunction,Plated,PTH,ViaDrill
T2C0.0157
; #@! TA.AperFunction,Plated,PTH,ViaDrill
T3C0.0236
; #@! TA.AperFunction,Plated,PTH,ComponentDrill
T4C0.0335
; #@! TA.AperFunction,Plated,PTH,ComponentDrill
T5C0.0394
%
G90
G05
T1
X4.1905Y-3.5315
X4.1905Y-3.9291
X4.1905Y-4.0512
X4.2002Y-5.8701
X4.2224Y-5.3061
X4.2303Y-2.939
X4.2323Y-2.7165
X4.2323Y-2.8799
X4.2379Y-3.2008
X4.2992Y-2.4823
X4.3075Y-3.1579
X4.3156Y-4.4139
X4.3504Y-5.4449
X4.3543Y-5.376
X4.3557Y-3.4803
X4.4049Y-2.9705
X4.4049Y-3.0374
X4.4344Y-3.4862
X4.439Y-2.7146
X4.4807Y-3.0404
X4.4836Y-2.9705
X4.4862Y-2.4031
X4.4959Y-5.0758
X4.5131Y-3.4764
X4.5463Y-2.0689
X4.5472Y-5.0915
X4.5482Y-2.2354
X4.5482Y-2.3354
X4.5624Y-2.9705
X4.5624Y-3.0374
X4.5663Y-4.9624
X4.5919Y-3.4764
X4.5978Y-5.2388
X4.6063Y-2.5177
X4.6063Y-2.7126
X4.6063Y-5.376
X4.6163Y-4.9624
X4.6185Y-3.625
X4.6457Y-2.2264
X4.6663Y-4.9624
X4.6663Y-5.1573
X4.6739Y-3.7451
X4.6739Y-3.7851
X4.7057Y-2.7864
X4.7139Y-3.7451
X4.7139Y-3.7851
X4.7163Y-5.1573
X4.7382Y-2.0689
X4.7424Y-2.1417
X4.7431Y-2.2354
X4.7431Y-2.2854
X4.7431Y-2.3354
X4.7539Y-3.7451
X4.7539Y-3.7851
X4.7612Y-2.7913
X4.7638Y-2.7126
X4.7645Y-4.814
X4.7663Y-4.9624
X4.7663Y-5.1573
X4.7835Y-3.5256
X4.7894Y-2.815
X4.799Y-5.312
X4.8169Y-2.7757
X4.8622Y-5.376
X4.8663Y-5.1573
X4.9009Y-3.4705
X4.9446Y-5.4252
X4.9902Y-2.4626
X5.0355Y-4.3472
X5.0355Y-4.3872
X5.0355Y-4.4272
X5.0355Y-4.4672
X5.0355Y-4.5072
X5.0355Y-4.5472
X5.0618Y-5.311
X5.0755Y-4.3472
X5.0755Y-4.5472
X5.0898Y-5.4419
X5.1155Y-4.3472
X5.1155Y-4.5472
X5.1181Y-2.7638
X5.1181Y-2.9685
X5.1181Y-5.3071
X5.1555Y-4.3472
X5.1555Y-4.5472
X5.1772Y-5.3031
X5.1831Y-3.0728
X5.1955Y-4.3472
X5.1955Y-4.5472
X5.2355Y-4.3472
X5.2355Y-4.3872
X5.2355Y-4.4272
X5.2355Y-4.4672
X5.2355Y-4.5072
X5.2355Y-4.5472
T2
X4.3068Y-5.128
X4.3383Y-4.8524
X4.4738Y-3.2205
X4.6013Y-3.7077
X4.6013Y-4.5907
X4.6746Y-3.2106
X4.9446Y-5.2087
T3
X4.457Y-4.1201
X4.458Y-3.9902
X4.4738Y-4.4902
X4.6509Y-3.063
X4.6651Y-4.242
X4.688Y-4.6105
X4.7013Y-3.2695
T4
X4.3261Y-5.5756
X4.3261Y-5.6756
X4.3261Y-5.7756
X4.5929Y-5.5756
X4.5929Y-5.6756
X4.5929Y-5.7756
X4.8616Y-5.5756
X4.8616Y-5.6756
X4.8616Y-5.7756
X5.1293Y-5.5756
X5.1293Y-5.6756
X5.1293Y-5.7756
T5
X4.2238Y-3.2803
X4.2238Y-3.3803
X4.2238Y-3.4803
X4.2238Y-3.5803
X4.2238Y-3.6803
X4.2238Y-3.7803
X4.2238Y-3.8803
X4.2238Y-3.9803
X4.2917Y-4.4846
X4.2917Y-4.5846
X4.2917Y-4.6846
X4.2917Y-4.7846
X4.3366Y-2.2268
X4.3366Y-2.3268
X4.3366Y-2.4268
X4.3366Y-2.5268
X4.3366Y-2.6268
X4.3366Y-2.7268
X4.3366Y-2.8268
X4.3917Y-4.4846
X4.3917Y-4.5846
X4.3917Y-4.6846
X4.3917Y-4.7846
X4.9235Y-2.2228
X4.9235Y-2.3228
X4.9235Y-2.4228
X4.9235Y-2.5228
X4.9235Y-2.6228
X4.9235Y-2.7228
X4.9235Y-2.8228
X5.0574Y-3.6492
X5.0574Y-3.7492
X5.0574Y-3.8492
X5.0574Y-3.9492
X5.0574Y-4.0492
X5.1574Y-3.6492
X5.1574Y-3.7492
X5.1574Y-3.8492
X5.1574Y-3.9492
X5.1574Y-4.0492
X5.2395Y-2.2622
X5.2395Y-2.3622
X5.2395Y-2.4622
X5.2395Y-2.5622
X5.2395Y-2.6622
X5.2395Y-2.7622
X5.2395Y-2.8622
X5.2395Y-2.9622
M30
