%TF.GenerationSoftware,KiCad,Pcbnew,10.0.5*%
%TF.CreationDate,2026-09-11T12:52:57-03:00*%
%TF.ProjectId,MainPCB_SMD_V3.1,4d61696e-5043-4425-9f53-4d445f56332e,rev?*%
%TF.SameCoordinates,Original*%
%TF.FileFunction,Legend,Top*%
%TF.FilePolarity,Positive*%
%FSLAX46Y46*%
G04 Gerber Fmt 4.6, Leading zero omitted, Abs format (unit mm)*
G04 Created by KiCad (PCBNEW 10.0.5) date 2026-09-11 12:52:57*
%MOMM*%
%LPD*%
G01*
G04 APERTURE LIST*
G04 Aperture macros list*
%AMRoundRect*
0 Rectangle with rounded corners*
0 $1 Rounding radius*
0 $2 $3 $4 $5 $6 $7 $8 $9 X,Y pos of 4 corners*
0 Add a 4 corners polygon primitive as box body*
4,1,4,$2,$3,$4,$5,$6,$7,$8,$9,$2,$3,0*
0 Add four circle primitives for the rounded corners*
1,1,$1+$1,$2,$3*
1,1,$1+$1,$4,$5*
1,1,$1+$1,$6,$7*
1,1,$1+$1,$8,$9*
0 Add four rect primitives between the rounded corners*
20,1,$1+$1,$2,$3,$4,$5,0*
20,1,$1+$1,$4,$5,$6,$7,0*
20,1,$1+$1,$6,$7,$8,$9,0*
20,1,$1+$1,$8,$9,$2,$3,0*%
%AMOutline4P*
0 Free polygon, 4 corners , with rotation*
0 The origin of the aperture is its center*
0 number of corners: always 4*
0 $1 to $8 corner X, Y*
0 $9 Rotation angle, in degrees counterclockwise*
0 create outline with 4 corners*
4,1,4,$1,$2,$3,$4,$5,$6,$7,$8,$1,$2,$9*%
G04 Aperture macros list end*
%ADD10C,0.150000*%
%ADD11C,0.120000*%
%ADD12C,0.152400*%
%ADD13RoundRect,0.087500X-0.087500X0.662500X-0.087500X-0.662500X0.087500X-0.662500X0.087500X0.662500X0*%
%ADD14RoundRect,0.150000X-0.825000X-0.150000X0.825000X-0.150000X0.825000X0.150000X-0.825000X0.150000X0*%
%ADD15R,1.000000X1.000000*%
%ADD16RoundRect,0.225000X0.225000X0.250000X-0.225000X0.250000X-0.225000X-0.250000X0.225000X-0.250000X0*%
%ADD17R,2.200000X1.200000*%
%ADD18R,6.400000X5.800000*%
%ADD19RoundRect,0.250000X-0.550000X1.050000X-0.550000X-1.050000X0.550000X-1.050000X0.550000X1.050000X0*%
%ADD20R,1.700000X1.700000*%
%ADD21C,1.700000*%
%ADD22RoundRect,0.112500X-0.187500X-0.112500X0.187500X-0.112500X0.187500X0.112500X-0.187500X0.112500X0*%
%ADD23R,1.500000X1.000000*%
%ADD24R,1.800000X1.000000*%
%ADD25Outline4P,-1.100000X-0.500000X1.100000X-0.500000X0.400000X0.500000X-0.400000X0.500000X90.000000*%
%ADD26R,1.840000X2.200000*%
%ADD27Outline4P,-1.100000X-0.425000X1.100000X-0.425000X0.500000X0.425000X-0.500000X0.425000X270.000000*%
%ADD28RoundRect,0.112500X0.112500X-0.187500X0.112500X0.187500X-0.112500X0.187500X-0.112500X-0.187500X0*%
%ADD29RoundRect,0.150000X0.587500X0.150000X-0.587500X0.150000X-0.587500X-0.150000X0.587500X-0.150000X0*%
%ADD30RoundRect,0.150000X-0.587500X-0.150000X0.587500X-0.150000X0.587500X0.150000X-0.587500X0.150000X0*%
%ADD31RoundRect,0.250000X0.550000X-1.050000X0.550000X1.050000X-0.550000X1.050000X-0.550000X-1.050000X0*%
%ADD32RoundRect,0.250000X-1.050000X-0.550000X1.050000X-0.550000X1.050000X0.550000X-1.050000X0.550000X0*%
%ADD33RoundRect,0.218750X-0.381250X0.218750X-0.381250X-0.218750X0.381250X-0.218750X0.381250X0.218750X0*%
%ADD34RoundRect,0.150000X-0.150000X0.825000X-0.150000X-0.825000X0.150000X-0.825000X0.150000X0.825000X0*%
%ADD35R,0.700000X1.300000*%
%ADD36RoundRect,0.112500X-0.112500X0.187500X-0.112500X-0.187500X0.112500X-0.187500X0.112500X0.187500X0*%
%ADD37RoundRect,0.218750X0.218750X0.381250X-0.218750X0.381250X-0.218750X-0.381250X0.218750X-0.381250X0*%
%ADD38RoundRect,0.250000X1.050000X0.550000X-1.050000X0.550000X-1.050000X-0.550000X1.050000X-0.550000X0*%
%ADD39RoundRect,0.243750X0.243750X0.456250X-0.243750X0.456250X-0.243750X-0.456250X0.243750X-0.456250X0*%
%ADD40RoundRect,0.412500X0.412500X-0.412500X0.412500X0.412500X-0.412500X0.412500X-0.412500X-0.412500X0*%
%ADD41C,1.650000*%
%ADD42C,2.200000*%
%ADD43O,1.700000X1.700000*%
G04 APERTURE END LIST*
D10*
X111454819Y-82561904D02*
X112264342Y-82561904D01*
X112264342Y-82561904D02*
X112359580Y-82514285D01*
X112359580Y-82514285D02*
X112407200Y-82466666D01*
X112407200Y-82466666D02*
X112454819Y-82371428D01*
X112454819Y-82371428D02*
X112454819Y-82180952D01*
X112454819Y-82180952D02*
X112407200Y-82085714D01*
X112407200Y-82085714D02*
X112359580Y-82038095D01*
X112359580Y-82038095D02*
X112264342Y-81990476D01*
X112264342Y-81990476D02*
X111454819Y-81990476D01*
X111454819Y-81038095D02*
X111454819Y-81514285D01*
X111454819Y-81514285D02*
X111931009Y-81561904D01*
X111931009Y-81561904D02*
X111883390Y-81514285D01*
X111883390Y-81514285D02*
X111835771Y-81419047D01*
X111835771Y-81419047D02*
X111835771Y-81180952D01*
X111835771Y-81180952D02*
X111883390Y-81085714D01*
X111883390Y-81085714D02*
X111931009Y-81038095D01*
X111931009Y-81038095D02*
X112026247Y-80990476D01*
X112026247Y-80990476D02*
X112264342Y-80990476D01*
X112264342Y-80990476D02*
X112359580Y-81038095D01*
X112359580Y-81038095D02*
X112407200Y-81085714D01*
X112407200Y-81085714D02*
X112454819Y-81180952D01*
X112454819Y-81180952D02*
X112454819Y-81419047D01*
X112454819Y-81419047D02*
X112407200Y-81514285D01*
X112407200Y-81514285D02*
X112359580Y-81561904D01*
X117238095Y-52224819D02*
X117238095Y-53034342D01*
X117238095Y-53034342D02*
X117285714Y-53129580D01*
X117285714Y-53129580D02*
X117333333Y-53177200D01*
X117333333Y-53177200D02*
X117428571Y-53224819D01*
X117428571Y-53224819D02*
X117619047Y-53224819D01*
X117619047Y-53224819D02*
X117714285Y-53177200D01*
X117714285Y-53177200D02*
X117761904Y-53129580D01*
X117761904Y-53129580D02*
X117809523Y-53034342D01*
X117809523Y-53034342D02*
X117809523Y-52224819D01*
X118190476Y-52224819D02*
X118857142Y-52224819D01*
X118857142Y-52224819D02*
X118428571Y-53224819D01*
X106342902Y-65067857D02*
X106033378Y-65284524D01*
X106342902Y-65439286D02*
X105692902Y-65439286D01*
X105692902Y-65439286D02*
X105692902Y-65191667D01*
X105692902Y-65191667D02*
X105723854Y-65129762D01*
X105723854Y-65129762D02*
X105754807Y-65098809D01*
X105754807Y-65098809D02*
X105816711Y-65067857D01*
X105816711Y-65067857D02*
X105909569Y-65067857D01*
X105909569Y-65067857D02*
X105971473Y-65098809D01*
X105971473Y-65098809D02*
X106002426Y-65129762D01*
X106002426Y-65129762D02*
X106033378Y-65191667D01*
X106033378Y-65191667D02*
X106033378Y-65439286D01*
X105692902Y-64851190D02*
X105692902Y-64448809D01*
X105692902Y-64448809D02*
X105940521Y-64665476D01*
X105940521Y-64665476D02*
X105940521Y-64572619D01*
X105940521Y-64572619D02*
X105971473Y-64510714D01*
X105971473Y-64510714D02*
X106002426Y-64479762D01*
X106002426Y-64479762D02*
X106064330Y-64448809D01*
X106064330Y-64448809D02*
X106219092Y-64448809D01*
X106219092Y-64448809D02*
X106280997Y-64479762D01*
X106280997Y-64479762D02*
X106311950Y-64510714D01*
X106311950Y-64510714D02*
X106342902Y-64572619D01*
X106342902Y-64572619D02*
X106342902Y-64758333D01*
X106342902Y-64758333D02*
X106311950Y-64820238D01*
X106311950Y-64820238D02*
X106280997Y-64851190D01*
X105754807Y-64201190D02*
X105723854Y-64170238D01*
X105723854Y-64170238D02*
X105692902Y-64108333D01*
X105692902Y-64108333D02*
X105692902Y-63953571D01*
X105692902Y-63953571D02*
X105723854Y-63891666D01*
X105723854Y-63891666D02*
X105754807Y-63860714D01*
X105754807Y-63860714D02*
X105816711Y-63829761D01*
X105816711Y-63829761D02*
X105878616Y-63829761D01*
X105878616Y-63829761D02*
X105971473Y-63860714D01*
X105971473Y-63860714D02*
X106342902Y-64232142D01*
X106342902Y-64232142D02*
X106342902Y-63829761D01*
X109242902Y-68567857D02*
X108933378Y-68784524D01*
X109242902Y-68939286D02*
X108592902Y-68939286D01*
X108592902Y-68939286D02*
X108592902Y-68691667D01*
X108592902Y-68691667D02*
X108623854Y-68629762D01*
X108623854Y-68629762D02*
X108654807Y-68598809D01*
X108654807Y-68598809D02*
X108716711Y-68567857D01*
X108716711Y-68567857D02*
X108809569Y-68567857D01*
X108809569Y-68567857D02*
X108871473Y-68598809D01*
X108871473Y-68598809D02*
X108902426Y-68629762D01*
X108902426Y-68629762D02*
X108933378Y-68691667D01*
X108933378Y-68691667D02*
X108933378Y-68939286D01*
X108592902Y-68351190D02*
X108592902Y-67948809D01*
X108592902Y-67948809D02*
X108840521Y-68165476D01*
X108840521Y-68165476D02*
X108840521Y-68072619D01*
X108840521Y-68072619D02*
X108871473Y-68010714D01*
X108871473Y-68010714D02*
X108902426Y-67979762D01*
X108902426Y-67979762D02*
X108964330Y-67948809D01*
X108964330Y-67948809D02*
X109119092Y-67948809D01*
X109119092Y-67948809D02*
X109180997Y-67979762D01*
X109180997Y-67979762D02*
X109211950Y-68010714D01*
X109211950Y-68010714D02*
X109242902Y-68072619D01*
X109242902Y-68072619D02*
X109242902Y-68258333D01*
X109242902Y-68258333D02*
X109211950Y-68320238D01*
X109211950Y-68320238D02*
X109180997Y-68351190D01*
X109242902Y-67329761D02*
X109242902Y-67701190D01*
X109242902Y-67515476D02*
X108592902Y-67515476D01*
X108592902Y-67515476D02*
X108685759Y-67577380D01*
X108685759Y-67577380D02*
X108747664Y-67639285D01*
X108747664Y-67639285D02*
X108778616Y-67701190D01*
X111592902Y-65217857D02*
X111283378Y-65434524D01*
X111592902Y-65589286D02*
X110942902Y-65589286D01*
X110942902Y-65589286D02*
X110942902Y-65341667D01*
X110942902Y-65341667D02*
X110973854Y-65279762D01*
X110973854Y-65279762D02*
X111004807Y-65248809D01*
X111004807Y-65248809D02*
X111066711Y-65217857D01*
X111066711Y-65217857D02*
X111159569Y-65217857D01*
X111159569Y-65217857D02*
X111221473Y-65248809D01*
X111221473Y-65248809D02*
X111252426Y-65279762D01*
X111252426Y-65279762D02*
X111283378Y-65341667D01*
X111283378Y-65341667D02*
X111283378Y-65589286D01*
X110942902Y-65001190D02*
X110942902Y-64598809D01*
X110942902Y-64598809D02*
X111190521Y-64815476D01*
X111190521Y-64815476D02*
X111190521Y-64722619D01*
X111190521Y-64722619D02*
X111221473Y-64660714D01*
X111221473Y-64660714D02*
X111252426Y-64629762D01*
X111252426Y-64629762D02*
X111314330Y-64598809D01*
X111314330Y-64598809D02*
X111469092Y-64598809D01*
X111469092Y-64598809D02*
X111530997Y-64629762D01*
X111530997Y-64629762D02*
X111561950Y-64660714D01*
X111561950Y-64660714D02*
X111592902Y-64722619D01*
X111592902Y-64722619D02*
X111592902Y-64908333D01*
X111592902Y-64908333D02*
X111561950Y-64970238D01*
X111561950Y-64970238D02*
X111530997Y-65001190D01*
X110942902Y-64196428D02*
X110942902Y-64134523D01*
X110942902Y-64134523D02*
X110973854Y-64072619D01*
X110973854Y-64072619D02*
X111004807Y-64041666D01*
X111004807Y-64041666D02*
X111066711Y-64010714D01*
X111066711Y-64010714D02*
X111190521Y-63979761D01*
X111190521Y-63979761D02*
X111345283Y-63979761D01*
X111345283Y-63979761D02*
X111469092Y-64010714D01*
X111469092Y-64010714D02*
X111530997Y-64041666D01*
X111530997Y-64041666D02*
X111561950Y-64072619D01*
X111561950Y-64072619D02*
X111592902Y-64134523D01*
X111592902Y-64134523D02*
X111592902Y-64196428D01*
X111592902Y-64196428D02*
X111561950Y-64258333D01*
X111561950Y-64258333D02*
X111530997Y-64289285D01*
X111530997Y-64289285D02*
X111469092Y-64320238D01*
X111469092Y-64320238D02*
X111345283Y-64351190D01*
X111345283Y-64351190D02*
X111190521Y-64351190D01*
X111190521Y-64351190D02*
X111066711Y-64320238D01*
X111066711Y-64320238D02*
X111004807Y-64289285D01*
X111004807Y-64289285D02*
X110973854Y-64258333D01*
X110973854Y-64258333D02*
X110942902Y-64196428D01*
X121342902Y-65217857D02*
X121033378Y-65434524D01*
X121342902Y-65589286D02*
X120692902Y-65589286D01*
X120692902Y-65589286D02*
X120692902Y-65341667D01*
X120692902Y-65341667D02*
X120723854Y-65279762D01*
X120723854Y-65279762D02*
X120754807Y-65248809D01*
X120754807Y-65248809D02*
X120816711Y-65217857D01*
X120816711Y-65217857D02*
X120909569Y-65217857D01*
X120909569Y-65217857D02*
X120971473Y-65248809D01*
X120971473Y-65248809D02*
X121002426Y-65279762D01*
X121002426Y-65279762D02*
X121033378Y-65341667D01*
X121033378Y-65341667D02*
X121033378Y-65589286D01*
X120754807Y-64970238D02*
X120723854Y-64939286D01*
X120723854Y-64939286D02*
X120692902Y-64877381D01*
X120692902Y-64877381D02*
X120692902Y-64722619D01*
X120692902Y-64722619D02*
X120723854Y-64660714D01*
X120723854Y-64660714D02*
X120754807Y-64629762D01*
X120754807Y-64629762D02*
X120816711Y-64598809D01*
X120816711Y-64598809D02*
X120878616Y-64598809D01*
X120878616Y-64598809D02*
X120971473Y-64629762D01*
X120971473Y-64629762D02*
X121342902Y-65001190D01*
X121342902Y-65001190D02*
X121342902Y-64598809D01*
X121342902Y-64289285D02*
X121342902Y-64165476D01*
X121342902Y-64165476D02*
X121311950Y-64103571D01*
X121311950Y-64103571D02*
X121280997Y-64072619D01*
X121280997Y-64072619D02*
X121188140Y-64010714D01*
X121188140Y-64010714D02*
X121064330Y-63979761D01*
X121064330Y-63979761D02*
X120816711Y-63979761D01*
X120816711Y-63979761D02*
X120754807Y-64010714D01*
X120754807Y-64010714D02*
X120723854Y-64041666D01*
X120723854Y-64041666D02*
X120692902Y-64103571D01*
X120692902Y-64103571D02*
X120692902Y-64227380D01*
X120692902Y-64227380D02*
X120723854Y-64289285D01*
X120723854Y-64289285D02*
X120754807Y-64320238D01*
X120754807Y-64320238D02*
X120816711Y-64351190D01*
X120816711Y-64351190D02*
X120971473Y-64351190D01*
X120971473Y-64351190D02*
X121033378Y-64320238D01*
X121033378Y-64320238D02*
X121064330Y-64289285D01*
X121064330Y-64289285D02*
X121095283Y-64227380D01*
X121095283Y-64227380D02*
X121095283Y-64103571D01*
X121095283Y-64103571D02*
X121064330Y-64041666D01*
X121064330Y-64041666D02*
X121033378Y-64010714D01*
X121033378Y-64010714D02*
X120971473Y-63979761D01*
X115842902Y-65217857D02*
X115533378Y-65434524D01*
X115842902Y-65589286D02*
X115192902Y-65589286D01*
X115192902Y-65589286D02*
X115192902Y-65341667D01*
X115192902Y-65341667D02*
X115223854Y-65279762D01*
X115223854Y-65279762D02*
X115254807Y-65248809D01*
X115254807Y-65248809D02*
X115316711Y-65217857D01*
X115316711Y-65217857D02*
X115409569Y-65217857D01*
X115409569Y-65217857D02*
X115471473Y-65248809D01*
X115471473Y-65248809D02*
X115502426Y-65279762D01*
X115502426Y-65279762D02*
X115533378Y-65341667D01*
X115533378Y-65341667D02*
X115533378Y-65589286D01*
X115254807Y-64970238D02*
X115223854Y-64939286D01*
X115223854Y-64939286D02*
X115192902Y-64877381D01*
X115192902Y-64877381D02*
X115192902Y-64722619D01*
X115192902Y-64722619D02*
X115223854Y-64660714D01*
X115223854Y-64660714D02*
X115254807Y-64629762D01*
X115254807Y-64629762D02*
X115316711Y-64598809D01*
X115316711Y-64598809D02*
X115378616Y-64598809D01*
X115378616Y-64598809D02*
X115471473Y-64629762D01*
X115471473Y-64629762D02*
X115842902Y-65001190D01*
X115842902Y-65001190D02*
X115842902Y-64598809D01*
X115471473Y-64227380D02*
X115440521Y-64289285D01*
X115440521Y-64289285D02*
X115409569Y-64320238D01*
X115409569Y-64320238D02*
X115347664Y-64351190D01*
X115347664Y-64351190D02*
X115316711Y-64351190D01*
X115316711Y-64351190D02*
X115254807Y-64320238D01*
X115254807Y-64320238D02*
X115223854Y-64289285D01*
X115223854Y-64289285D02*
X115192902Y-64227380D01*
X115192902Y-64227380D02*
X115192902Y-64103571D01*
X115192902Y-64103571D02*
X115223854Y-64041666D01*
X115223854Y-64041666D02*
X115254807Y-64010714D01*
X115254807Y-64010714D02*
X115316711Y-63979761D01*
X115316711Y-63979761D02*
X115347664Y-63979761D01*
X115347664Y-63979761D02*
X115409569Y-64010714D01*
X115409569Y-64010714D02*
X115440521Y-64041666D01*
X115440521Y-64041666D02*
X115471473Y-64103571D01*
X115471473Y-64103571D02*
X115471473Y-64227380D01*
X115471473Y-64227380D02*
X115502426Y-64289285D01*
X115502426Y-64289285D02*
X115533378Y-64320238D01*
X115533378Y-64320238D02*
X115595283Y-64351190D01*
X115595283Y-64351190D02*
X115719092Y-64351190D01*
X115719092Y-64351190D02*
X115780997Y-64320238D01*
X115780997Y-64320238D02*
X115811950Y-64289285D01*
X115811950Y-64289285D02*
X115842902Y-64227380D01*
X115842902Y-64227380D02*
X115842902Y-64103571D01*
X115842902Y-64103571D02*
X115811950Y-64041666D01*
X115811950Y-64041666D02*
X115780997Y-64010714D01*
X115780997Y-64010714D02*
X115719092Y-63979761D01*
X115719092Y-63979761D02*
X115595283Y-63979761D01*
X115595283Y-63979761D02*
X115533378Y-64010714D01*
X115533378Y-64010714D02*
X115502426Y-64041666D01*
X115502426Y-64041666D02*
X115471473Y-64103571D01*
X113092902Y-68467857D02*
X112783378Y-68684524D01*
X113092902Y-68839286D02*
X112442902Y-68839286D01*
X112442902Y-68839286D02*
X112442902Y-68591667D01*
X112442902Y-68591667D02*
X112473854Y-68529762D01*
X112473854Y-68529762D02*
X112504807Y-68498809D01*
X112504807Y-68498809D02*
X112566711Y-68467857D01*
X112566711Y-68467857D02*
X112659569Y-68467857D01*
X112659569Y-68467857D02*
X112721473Y-68498809D01*
X112721473Y-68498809D02*
X112752426Y-68529762D01*
X112752426Y-68529762D02*
X112783378Y-68591667D01*
X112783378Y-68591667D02*
X112783378Y-68839286D01*
X112504807Y-68220238D02*
X112473854Y-68189286D01*
X112473854Y-68189286D02*
X112442902Y-68127381D01*
X112442902Y-68127381D02*
X112442902Y-67972619D01*
X112442902Y-67972619D02*
X112473854Y-67910714D01*
X112473854Y-67910714D02*
X112504807Y-67879762D01*
X112504807Y-67879762D02*
X112566711Y-67848809D01*
X112566711Y-67848809D02*
X112628616Y-67848809D01*
X112628616Y-67848809D02*
X112721473Y-67879762D01*
X112721473Y-67879762D02*
X113092902Y-68251190D01*
X113092902Y-68251190D02*
X113092902Y-67848809D01*
X112442902Y-67632142D02*
X112442902Y-67198809D01*
X112442902Y-67198809D02*
X113092902Y-67477380D01*
X111592902Y-68467857D02*
X111283378Y-68684524D01*
X111592902Y-68839286D02*
X110942902Y-68839286D01*
X110942902Y-68839286D02*
X110942902Y-68591667D01*
X110942902Y-68591667D02*
X110973854Y-68529762D01*
X110973854Y-68529762D02*
X111004807Y-68498809D01*
X111004807Y-68498809D02*
X111066711Y-68467857D01*
X111066711Y-68467857D02*
X111159569Y-68467857D01*
X111159569Y-68467857D02*
X111221473Y-68498809D01*
X111221473Y-68498809D02*
X111252426Y-68529762D01*
X111252426Y-68529762D02*
X111283378Y-68591667D01*
X111283378Y-68591667D02*
X111283378Y-68839286D01*
X111004807Y-68220238D02*
X110973854Y-68189286D01*
X110973854Y-68189286D02*
X110942902Y-68127381D01*
X110942902Y-68127381D02*
X110942902Y-67972619D01*
X110942902Y-67972619D02*
X110973854Y-67910714D01*
X110973854Y-67910714D02*
X111004807Y-67879762D01*
X111004807Y-67879762D02*
X111066711Y-67848809D01*
X111066711Y-67848809D02*
X111128616Y-67848809D01*
X111128616Y-67848809D02*
X111221473Y-67879762D01*
X111221473Y-67879762D02*
X111592902Y-68251190D01*
X111592902Y-68251190D02*
X111592902Y-67848809D01*
X111159569Y-67291666D02*
X111592902Y-67291666D01*
X110911950Y-67446428D02*
X111376235Y-67601190D01*
X111376235Y-67601190D02*
X111376235Y-67198809D01*
X121342902Y-68467857D02*
X121033378Y-68684524D01*
X121342902Y-68839286D02*
X120692902Y-68839286D01*
X120692902Y-68839286D02*
X120692902Y-68591667D01*
X120692902Y-68591667D02*
X120723854Y-68529762D01*
X120723854Y-68529762D02*
X120754807Y-68498809D01*
X120754807Y-68498809D02*
X120816711Y-68467857D01*
X120816711Y-68467857D02*
X120909569Y-68467857D01*
X120909569Y-68467857D02*
X120971473Y-68498809D01*
X120971473Y-68498809D02*
X121002426Y-68529762D01*
X121002426Y-68529762D02*
X121033378Y-68591667D01*
X121033378Y-68591667D02*
X121033378Y-68839286D01*
X120754807Y-68220238D02*
X120723854Y-68189286D01*
X120723854Y-68189286D02*
X120692902Y-68127381D01*
X120692902Y-68127381D02*
X120692902Y-67972619D01*
X120692902Y-67972619D02*
X120723854Y-67910714D01*
X120723854Y-67910714D02*
X120754807Y-67879762D01*
X120754807Y-67879762D02*
X120816711Y-67848809D01*
X120816711Y-67848809D02*
X120878616Y-67848809D01*
X120878616Y-67848809D02*
X120971473Y-67879762D01*
X120971473Y-67879762D02*
X121342902Y-68251190D01*
X121342902Y-68251190D02*
X121342902Y-67848809D01*
X120754807Y-67601190D02*
X120723854Y-67570238D01*
X120723854Y-67570238D02*
X120692902Y-67508333D01*
X120692902Y-67508333D02*
X120692902Y-67353571D01*
X120692902Y-67353571D02*
X120723854Y-67291666D01*
X120723854Y-67291666D02*
X120754807Y-67260714D01*
X120754807Y-67260714D02*
X120816711Y-67229761D01*
X120816711Y-67229761D02*
X120878616Y-67229761D01*
X120878616Y-67229761D02*
X120971473Y-67260714D01*
X120971473Y-67260714D02*
X121342902Y-67632142D01*
X121342902Y-67632142D02*
X121342902Y-67229761D01*
X119842902Y-68467857D02*
X119533378Y-68684524D01*
X119842902Y-68839286D02*
X119192902Y-68839286D01*
X119192902Y-68839286D02*
X119192902Y-68591667D01*
X119192902Y-68591667D02*
X119223854Y-68529762D01*
X119223854Y-68529762D02*
X119254807Y-68498809D01*
X119254807Y-68498809D02*
X119316711Y-68467857D01*
X119316711Y-68467857D02*
X119409569Y-68467857D01*
X119409569Y-68467857D02*
X119471473Y-68498809D01*
X119471473Y-68498809D02*
X119502426Y-68529762D01*
X119502426Y-68529762D02*
X119533378Y-68591667D01*
X119533378Y-68591667D02*
X119533378Y-68839286D01*
X119254807Y-68220238D02*
X119223854Y-68189286D01*
X119223854Y-68189286D02*
X119192902Y-68127381D01*
X119192902Y-68127381D02*
X119192902Y-67972619D01*
X119192902Y-67972619D02*
X119223854Y-67910714D01*
X119223854Y-67910714D02*
X119254807Y-67879762D01*
X119254807Y-67879762D02*
X119316711Y-67848809D01*
X119316711Y-67848809D02*
X119378616Y-67848809D01*
X119378616Y-67848809D02*
X119471473Y-67879762D01*
X119471473Y-67879762D02*
X119842902Y-68251190D01*
X119842902Y-68251190D02*
X119842902Y-67848809D01*
X119842902Y-67229761D02*
X119842902Y-67601190D01*
X119842902Y-67415476D02*
X119192902Y-67415476D01*
X119192902Y-67415476D02*
X119285759Y-67477380D01*
X119285759Y-67477380D02*
X119347664Y-67539285D01*
X119347664Y-67539285D02*
X119378616Y-67601190D01*
X117342902Y-68467857D02*
X117033378Y-68684524D01*
X117342902Y-68839286D02*
X116692902Y-68839286D01*
X116692902Y-68839286D02*
X116692902Y-68591667D01*
X116692902Y-68591667D02*
X116723854Y-68529762D01*
X116723854Y-68529762D02*
X116754807Y-68498809D01*
X116754807Y-68498809D02*
X116816711Y-68467857D01*
X116816711Y-68467857D02*
X116909569Y-68467857D01*
X116909569Y-68467857D02*
X116971473Y-68498809D01*
X116971473Y-68498809D02*
X117002426Y-68529762D01*
X117002426Y-68529762D02*
X117033378Y-68591667D01*
X117033378Y-68591667D02*
X117033378Y-68839286D01*
X116754807Y-68220238D02*
X116723854Y-68189286D01*
X116723854Y-68189286D02*
X116692902Y-68127381D01*
X116692902Y-68127381D02*
X116692902Y-67972619D01*
X116692902Y-67972619D02*
X116723854Y-67910714D01*
X116723854Y-67910714D02*
X116754807Y-67879762D01*
X116754807Y-67879762D02*
X116816711Y-67848809D01*
X116816711Y-67848809D02*
X116878616Y-67848809D01*
X116878616Y-67848809D02*
X116971473Y-67879762D01*
X116971473Y-67879762D02*
X117342902Y-68251190D01*
X117342902Y-68251190D02*
X117342902Y-67848809D01*
X116692902Y-67446428D02*
X116692902Y-67384523D01*
X116692902Y-67384523D02*
X116723854Y-67322619D01*
X116723854Y-67322619D02*
X116754807Y-67291666D01*
X116754807Y-67291666D02*
X116816711Y-67260714D01*
X116816711Y-67260714D02*
X116940521Y-67229761D01*
X116940521Y-67229761D02*
X117095283Y-67229761D01*
X117095283Y-67229761D02*
X117219092Y-67260714D01*
X117219092Y-67260714D02*
X117280997Y-67291666D01*
X117280997Y-67291666D02*
X117311950Y-67322619D01*
X117311950Y-67322619D02*
X117342902Y-67384523D01*
X117342902Y-67384523D02*
X117342902Y-67446428D01*
X117342902Y-67446428D02*
X117311950Y-67508333D01*
X117311950Y-67508333D02*
X117280997Y-67539285D01*
X117280997Y-67539285D02*
X117219092Y-67570238D01*
X117219092Y-67570238D02*
X117095283Y-67601190D01*
X117095283Y-67601190D02*
X116940521Y-67601190D01*
X116940521Y-67601190D02*
X116816711Y-67570238D01*
X116816711Y-67570238D02*
X116754807Y-67539285D01*
X116754807Y-67539285D02*
X116723854Y-67508333D01*
X116723854Y-67508333D02*
X116692902Y-67446428D01*
X115842902Y-68467857D02*
X115533378Y-68684524D01*
X115842902Y-68839286D02*
X115192902Y-68839286D01*
X115192902Y-68839286D02*
X115192902Y-68591667D01*
X115192902Y-68591667D02*
X115223854Y-68529762D01*
X115223854Y-68529762D02*
X115254807Y-68498809D01*
X115254807Y-68498809D02*
X115316711Y-68467857D01*
X115316711Y-68467857D02*
X115409569Y-68467857D01*
X115409569Y-68467857D02*
X115471473Y-68498809D01*
X115471473Y-68498809D02*
X115502426Y-68529762D01*
X115502426Y-68529762D02*
X115533378Y-68591667D01*
X115533378Y-68591667D02*
X115533378Y-68839286D01*
X115842902Y-67848809D02*
X115842902Y-68220238D01*
X115842902Y-68034524D02*
X115192902Y-68034524D01*
X115192902Y-68034524D02*
X115285759Y-68096428D01*
X115285759Y-68096428D02*
X115347664Y-68158333D01*
X115347664Y-68158333D02*
X115378616Y-68220238D01*
X115842902Y-67539285D02*
X115842902Y-67415476D01*
X115842902Y-67415476D02*
X115811950Y-67353571D01*
X115811950Y-67353571D02*
X115780997Y-67322619D01*
X115780997Y-67322619D02*
X115688140Y-67260714D01*
X115688140Y-67260714D02*
X115564330Y-67229761D01*
X115564330Y-67229761D02*
X115316711Y-67229761D01*
X115316711Y-67229761D02*
X115254807Y-67260714D01*
X115254807Y-67260714D02*
X115223854Y-67291666D01*
X115223854Y-67291666D02*
X115192902Y-67353571D01*
X115192902Y-67353571D02*
X115192902Y-67477380D01*
X115192902Y-67477380D02*
X115223854Y-67539285D01*
X115223854Y-67539285D02*
X115254807Y-67570238D01*
X115254807Y-67570238D02*
X115316711Y-67601190D01*
X115316711Y-67601190D02*
X115471473Y-67601190D01*
X115471473Y-67601190D02*
X115533378Y-67570238D01*
X115533378Y-67570238D02*
X115564330Y-67539285D01*
X115564330Y-67539285D02*
X115595283Y-67477380D01*
X115595283Y-67477380D02*
X115595283Y-67353571D01*
X115595283Y-67353571D02*
X115564330Y-67291666D01*
X115564330Y-67291666D02*
X115533378Y-67260714D01*
X115533378Y-67260714D02*
X115471473Y-67229761D01*
X110582142Y-82730997D02*
X110551190Y-82761950D01*
X110551190Y-82761950D02*
X110458332Y-82792902D01*
X110458332Y-82792902D02*
X110396428Y-82792902D01*
X110396428Y-82792902D02*
X110303571Y-82761950D01*
X110303571Y-82761950D02*
X110241666Y-82700045D01*
X110241666Y-82700045D02*
X110210713Y-82638140D01*
X110210713Y-82638140D02*
X110179761Y-82514330D01*
X110179761Y-82514330D02*
X110179761Y-82421473D01*
X110179761Y-82421473D02*
X110210713Y-82297664D01*
X110210713Y-82297664D02*
X110241666Y-82235759D01*
X110241666Y-82235759D02*
X110303571Y-82173854D01*
X110303571Y-82173854D02*
X110396428Y-82142902D01*
X110396428Y-82142902D02*
X110458332Y-82142902D01*
X110458332Y-82142902D02*
X110551190Y-82173854D01*
X110551190Y-82173854D02*
X110582142Y-82204807D01*
X110798809Y-82142902D02*
X111201190Y-82142902D01*
X111201190Y-82142902D02*
X110984523Y-82390521D01*
X110984523Y-82390521D02*
X111077380Y-82390521D01*
X111077380Y-82390521D02*
X111139285Y-82421473D01*
X111139285Y-82421473D02*
X111170237Y-82452426D01*
X111170237Y-82452426D02*
X111201190Y-82514330D01*
X111201190Y-82514330D02*
X111201190Y-82669092D01*
X111201190Y-82669092D02*
X111170237Y-82730997D01*
X111170237Y-82730997D02*
X111139285Y-82761950D01*
X111139285Y-82761950D02*
X111077380Y-82792902D01*
X111077380Y-82792902D02*
X110891666Y-82792902D01*
X110891666Y-82792902D02*
X110829761Y-82761950D01*
X110829761Y-82761950D02*
X110798809Y-82730997D01*
X111820238Y-82792902D02*
X111448809Y-82792902D01*
X111634523Y-82792902D02*
X111634523Y-82142902D01*
X111634523Y-82142902D02*
X111572619Y-82235759D01*
X111572619Y-82235759D02*
X111510714Y-82297664D01*
X111510714Y-82297664D02*
X111448809Y-82328616D01*
X110582142Y-81230997D02*
X110551190Y-81261950D01*
X110551190Y-81261950D02*
X110458332Y-81292902D01*
X110458332Y-81292902D02*
X110396428Y-81292902D01*
X110396428Y-81292902D02*
X110303571Y-81261950D01*
X110303571Y-81261950D02*
X110241666Y-81200045D01*
X110241666Y-81200045D02*
X110210713Y-81138140D01*
X110210713Y-81138140D02*
X110179761Y-81014330D01*
X110179761Y-81014330D02*
X110179761Y-80921473D01*
X110179761Y-80921473D02*
X110210713Y-80797664D01*
X110210713Y-80797664D02*
X110241666Y-80735759D01*
X110241666Y-80735759D02*
X110303571Y-80673854D01*
X110303571Y-80673854D02*
X110396428Y-80642902D01*
X110396428Y-80642902D02*
X110458332Y-80642902D01*
X110458332Y-80642902D02*
X110551190Y-80673854D01*
X110551190Y-80673854D02*
X110582142Y-80704807D01*
X110798809Y-80642902D02*
X111201190Y-80642902D01*
X111201190Y-80642902D02*
X110984523Y-80890521D01*
X110984523Y-80890521D02*
X111077380Y-80890521D01*
X111077380Y-80890521D02*
X111139285Y-80921473D01*
X111139285Y-80921473D02*
X111170237Y-80952426D01*
X111170237Y-80952426D02*
X111201190Y-81014330D01*
X111201190Y-81014330D02*
X111201190Y-81169092D01*
X111201190Y-81169092D02*
X111170237Y-81230997D01*
X111170237Y-81230997D02*
X111139285Y-81261950D01*
X111139285Y-81261950D02*
X111077380Y-81292902D01*
X111077380Y-81292902D02*
X110891666Y-81292902D01*
X110891666Y-81292902D02*
X110829761Y-81261950D01*
X110829761Y-81261950D02*
X110798809Y-81230997D01*
X111603571Y-80642902D02*
X111665476Y-80642902D01*
X111665476Y-80642902D02*
X111727380Y-80673854D01*
X111727380Y-80673854D02*
X111758333Y-80704807D01*
X111758333Y-80704807D02*
X111789285Y-80766711D01*
X111789285Y-80766711D02*
X111820238Y-80890521D01*
X111820238Y-80890521D02*
X111820238Y-81045283D01*
X111820238Y-81045283D02*
X111789285Y-81169092D01*
X111789285Y-81169092D02*
X111758333Y-81230997D01*
X111758333Y-81230997D02*
X111727380Y-81261950D01*
X111727380Y-81261950D02*
X111665476Y-81292902D01*
X111665476Y-81292902D02*
X111603571Y-81292902D01*
X111603571Y-81292902D02*
X111541666Y-81261950D01*
X111541666Y-81261950D02*
X111510714Y-81230997D01*
X111510714Y-81230997D02*
X111479761Y-81169092D01*
X111479761Y-81169092D02*
X111448809Y-81045283D01*
X111448809Y-81045283D02*
X111448809Y-80890521D01*
X111448809Y-80890521D02*
X111479761Y-80766711D01*
X111479761Y-80766711D02*
X111510714Y-80704807D01*
X111510714Y-80704807D02*
X111541666Y-80673854D01*
X111541666Y-80673854D02*
X111603571Y-80642902D01*
X119082142Y-51480997D02*
X119051190Y-51511950D01*
X119051190Y-51511950D02*
X118958332Y-51542902D01*
X118958332Y-51542902D02*
X118896428Y-51542902D01*
X118896428Y-51542902D02*
X118803571Y-51511950D01*
X118803571Y-51511950D02*
X118741666Y-51450045D01*
X118741666Y-51450045D02*
X118710713Y-51388140D01*
X118710713Y-51388140D02*
X118679761Y-51264330D01*
X118679761Y-51264330D02*
X118679761Y-51171473D01*
X118679761Y-51171473D02*
X118710713Y-51047664D01*
X118710713Y-51047664D02*
X118741666Y-50985759D01*
X118741666Y-50985759D02*
X118803571Y-50923854D01*
X118803571Y-50923854D02*
X118896428Y-50892902D01*
X118896428Y-50892902D02*
X118958332Y-50892902D01*
X118958332Y-50892902D02*
X119051190Y-50923854D01*
X119051190Y-50923854D02*
X119082142Y-50954807D01*
X119329761Y-50954807D02*
X119360713Y-50923854D01*
X119360713Y-50923854D02*
X119422618Y-50892902D01*
X119422618Y-50892902D02*
X119577380Y-50892902D01*
X119577380Y-50892902D02*
X119639285Y-50923854D01*
X119639285Y-50923854D02*
X119670237Y-50954807D01*
X119670237Y-50954807D02*
X119701190Y-51016711D01*
X119701190Y-51016711D02*
X119701190Y-51078616D01*
X119701190Y-51078616D02*
X119670237Y-51171473D01*
X119670237Y-51171473D02*
X119298809Y-51542902D01*
X119298809Y-51542902D02*
X119701190Y-51542902D01*
X120010714Y-51542902D02*
X120134523Y-51542902D01*
X120134523Y-51542902D02*
X120196428Y-51511950D01*
X120196428Y-51511950D02*
X120227380Y-51480997D01*
X120227380Y-51480997D02*
X120289285Y-51388140D01*
X120289285Y-51388140D02*
X120320238Y-51264330D01*
X120320238Y-51264330D02*
X120320238Y-51016711D01*
X120320238Y-51016711D02*
X120289285Y-50954807D01*
X120289285Y-50954807D02*
X120258333Y-50923854D01*
X120258333Y-50923854D02*
X120196428Y-50892902D01*
X120196428Y-50892902D02*
X120072619Y-50892902D01*
X120072619Y-50892902D02*
X120010714Y-50923854D01*
X120010714Y-50923854D02*
X119979761Y-50954807D01*
X119979761Y-50954807D02*
X119948809Y-51016711D01*
X119948809Y-51016711D02*
X119948809Y-51171473D01*
X119948809Y-51171473D02*
X119979761Y-51233378D01*
X119979761Y-51233378D02*
X120010714Y-51264330D01*
X120010714Y-51264330D02*
X120072619Y-51295283D01*
X120072619Y-51295283D02*
X120196428Y-51295283D01*
X120196428Y-51295283D02*
X120258333Y-51264330D01*
X120258333Y-51264330D02*
X120289285Y-51233378D01*
X120289285Y-51233378D02*
X120320238Y-51171473D01*
X113180997Y-65217857D02*
X113211950Y-65248809D01*
X113211950Y-65248809D02*
X113242902Y-65341667D01*
X113242902Y-65341667D02*
X113242902Y-65403571D01*
X113242902Y-65403571D02*
X113211950Y-65496428D01*
X113211950Y-65496428D02*
X113150045Y-65558333D01*
X113150045Y-65558333D02*
X113088140Y-65589286D01*
X113088140Y-65589286D02*
X112964330Y-65620238D01*
X112964330Y-65620238D02*
X112871473Y-65620238D01*
X112871473Y-65620238D02*
X112747664Y-65589286D01*
X112747664Y-65589286D02*
X112685759Y-65558333D01*
X112685759Y-65558333D02*
X112623854Y-65496428D01*
X112623854Y-65496428D02*
X112592902Y-65403571D01*
X112592902Y-65403571D02*
X112592902Y-65341667D01*
X112592902Y-65341667D02*
X112623854Y-65248809D01*
X112623854Y-65248809D02*
X112654807Y-65217857D01*
X112654807Y-64970238D02*
X112623854Y-64939286D01*
X112623854Y-64939286D02*
X112592902Y-64877381D01*
X112592902Y-64877381D02*
X112592902Y-64722619D01*
X112592902Y-64722619D02*
X112623854Y-64660714D01*
X112623854Y-64660714D02*
X112654807Y-64629762D01*
X112654807Y-64629762D02*
X112716711Y-64598809D01*
X112716711Y-64598809D02*
X112778616Y-64598809D01*
X112778616Y-64598809D02*
X112871473Y-64629762D01*
X112871473Y-64629762D02*
X113242902Y-65001190D01*
X113242902Y-65001190D02*
X113242902Y-64598809D01*
X112871473Y-64227380D02*
X112840521Y-64289285D01*
X112840521Y-64289285D02*
X112809569Y-64320238D01*
X112809569Y-64320238D02*
X112747664Y-64351190D01*
X112747664Y-64351190D02*
X112716711Y-64351190D01*
X112716711Y-64351190D02*
X112654807Y-64320238D01*
X112654807Y-64320238D02*
X112623854Y-64289285D01*
X112623854Y-64289285D02*
X112592902Y-64227380D01*
X112592902Y-64227380D02*
X112592902Y-64103571D01*
X112592902Y-64103571D02*
X112623854Y-64041666D01*
X112623854Y-64041666D02*
X112654807Y-64010714D01*
X112654807Y-64010714D02*
X112716711Y-63979761D01*
X112716711Y-63979761D02*
X112747664Y-63979761D01*
X112747664Y-63979761D02*
X112809569Y-64010714D01*
X112809569Y-64010714D02*
X112840521Y-64041666D01*
X112840521Y-64041666D02*
X112871473Y-64103571D01*
X112871473Y-64103571D02*
X112871473Y-64227380D01*
X112871473Y-64227380D02*
X112902426Y-64289285D01*
X112902426Y-64289285D02*
X112933378Y-64320238D01*
X112933378Y-64320238D02*
X112995283Y-64351190D01*
X112995283Y-64351190D02*
X113119092Y-64351190D01*
X113119092Y-64351190D02*
X113180997Y-64320238D01*
X113180997Y-64320238D02*
X113211950Y-64289285D01*
X113211950Y-64289285D02*
X113242902Y-64227380D01*
X113242902Y-64227380D02*
X113242902Y-64103571D01*
X113242902Y-64103571D02*
X113211950Y-64041666D01*
X113211950Y-64041666D02*
X113180997Y-64010714D01*
X113180997Y-64010714D02*
X113119092Y-63979761D01*
X113119092Y-63979761D02*
X112995283Y-63979761D01*
X112995283Y-63979761D02*
X112933378Y-64010714D01*
X112933378Y-64010714D02*
X112902426Y-64041666D01*
X112902426Y-64041666D02*
X112871473Y-64103571D01*
X119930997Y-65217857D02*
X119961950Y-65248809D01*
X119961950Y-65248809D02*
X119992902Y-65341667D01*
X119992902Y-65341667D02*
X119992902Y-65403571D01*
X119992902Y-65403571D02*
X119961950Y-65496428D01*
X119961950Y-65496428D02*
X119900045Y-65558333D01*
X119900045Y-65558333D02*
X119838140Y-65589286D01*
X119838140Y-65589286D02*
X119714330Y-65620238D01*
X119714330Y-65620238D02*
X119621473Y-65620238D01*
X119621473Y-65620238D02*
X119497664Y-65589286D01*
X119497664Y-65589286D02*
X119435759Y-65558333D01*
X119435759Y-65558333D02*
X119373854Y-65496428D01*
X119373854Y-65496428D02*
X119342902Y-65403571D01*
X119342902Y-65403571D02*
X119342902Y-65341667D01*
X119342902Y-65341667D02*
X119373854Y-65248809D01*
X119373854Y-65248809D02*
X119404807Y-65217857D01*
X119404807Y-64970238D02*
X119373854Y-64939286D01*
X119373854Y-64939286D02*
X119342902Y-64877381D01*
X119342902Y-64877381D02*
X119342902Y-64722619D01*
X119342902Y-64722619D02*
X119373854Y-64660714D01*
X119373854Y-64660714D02*
X119404807Y-64629762D01*
X119404807Y-64629762D02*
X119466711Y-64598809D01*
X119466711Y-64598809D02*
X119528616Y-64598809D01*
X119528616Y-64598809D02*
X119621473Y-64629762D01*
X119621473Y-64629762D02*
X119992902Y-65001190D01*
X119992902Y-65001190D02*
X119992902Y-64598809D01*
X119342902Y-64382142D02*
X119342902Y-63948809D01*
X119342902Y-63948809D02*
X119992902Y-64227380D01*
X117430997Y-65217857D02*
X117461950Y-65248809D01*
X117461950Y-65248809D02*
X117492902Y-65341667D01*
X117492902Y-65341667D02*
X117492902Y-65403571D01*
X117492902Y-65403571D02*
X117461950Y-65496428D01*
X117461950Y-65496428D02*
X117400045Y-65558333D01*
X117400045Y-65558333D02*
X117338140Y-65589286D01*
X117338140Y-65589286D02*
X117214330Y-65620238D01*
X117214330Y-65620238D02*
X117121473Y-65620238D01*
X117121473Y-65620238D02*
X116997664Y-65589286D01*
X116997664Y-65589286D02*
X116935759Y-65558333D01*
X116935759Y-65558333D02*
X116873854Y-65496428D01*
X116873854Y-65496428D02*
X116842902Y-65403571D01*
X116842902Y-65403571D02*
X116842902Y-65341667D01*
X116842902Y-65341667D02*
X116873854Y-65248809D01*
X116873854Y-65248809D02*
X116904807Y-65217857D01*
X116904807Y-64970238D02*
X116873854Y-64939286D01*
X116873854Y-64939286D02*
X116842902Y-64877381D01*
X116842902Y-64877381D02*
X116842902Y-64722619D01*
X116842902Y-64722619D02*
X116873854Y-64660714D01*
X116873854Y-64660714D02*
X116904807Y-64629762D01*
X116904807Y-64629762D02*
X116966711Y-64598809D01*
X116966711Y-64598809D02*
X117028616Y-64598809D01*
X117028616Y-64598809D02*
X117121473Y-64629762D01*
X117121473Y-64629762D02*
X117492902Y-65001190D01*
X117492902Y-65001190D02*
X117492902Y-64598809D01*
X116842902Y-64041666D02*
X116842902Y-64165476D01*
X116842902Y-64165476D02*
X116873854Y-64227380D01*
X116873854Y-64227380D02*
X116904807Y-64258333D01*
X116904807Y-64258333D02*
X116997664Y-64320238D01*
X116997664Y-64320238D02*
X117121473Y-64351190D01*
X117121473Y-64351190D02*
X117369092Y-64351190D01*
X117369092Y-64351190D02*
X117430997Y-64320238D01*
X117430997Y-64320238D02*
X117461950Y-64289285D01*
X117461950Y-64289285D02*
X117492902Y-64227380D01*
X117492902Y-64227380D02*
X117492902Y-64103571D01*
X117492902Y-64103571D02*
X117461950Y-64041666D01*
X117461950Y-64041666D02*
X117430997Y-64010714D01*
X117430997Y-64010714D02*
X117369092Y-63979761D01*
X117369092Y-63979761D02*
X117214330Y-63979761D01*
X117214330Y-63979761D02*
X117152426Y-64010714D01*
X117152426Y-64010714D02*
X117121473Y-64041666D01*
X117121473Y-64041666D02*
X117090521Y-64103571D01*
X117090521Y-64103571D02*
X117090521Y-64227380D01*
X117090521Y-64227380D02*
X117121473Y-64289285D01*
X117121473Y-64289285D02*
X117152426Y-64320238D01*
X117152426Y-64320238D02*
X117214330Y-64351190D01*
X128930997Y-74967857D02*
X128961950Y-74998809D01*
X128961950Y-74998809D02*
X128992902Y-75091667D01*
X128992902Y-75091667D02*
X128992902Y-75153571D01*
X128992902Y-75153571D02*
X128961950Y-75246428D01*
X128961950Y-75246428D02*
X128900045Y-75308333D01*
X128900045Y-75308333D02*
X128838140Y-75339286D01*
X128838140Y-75339286D02*
X128714330Y-75370238D01*
X128714330Y-75370238D02*
X128621473Y-75370238D01*
X128621473Y-75370238D02*
X128497664Y-75339286D01*
X128497664Y-75339286D02*
X128435759Y-75308333D01*
X128435759Y-75308333D02*
X128373854Y-75246428D01*
X128373854Y-75246428D02*
X128342902Y-75153571D01*
X128342902Y-75153571D02*
X128342902Y-75091667D01*
X128342902Y-75091667D02*
X128373854Y-74998809D01*
X128373854Y-74998809D02*
X128404807Y-74967857D01*
X128404807Y-74720238D02*
X128373854Y-74689286D01*
X128373854Y-74689286D02*
X128342902Y-74627381D01*
X128342902Y-74627381D02*
X128342902Y-74472619D01*
X128342902Y-74472619D02*
X128373854Y-74410714D01*
X128373854Y-74410714D02*
X128404807Y-74379762D01*
X128404807Y-74379762D02*
X128466711Y-74348809D01*
X128466711Y-74348809D02*
X128528616Y-74348809D01*
X128528616Y-74348809D02*
X128621473Y-74379762D01*
X128621473Y-74379762D02*
X128992902Y-74751190D01*
X128992902Y-74751190D02*
X128992902Y-74348809D01*
X128559569Y-73791666D02*
X128992902Y-73791666D01*
X128311950Y-73946428D02*
X128776235Y-74101190D01*
X128776235Y-74101190D02*
X128776235Y-73698809D01*
X131530997Y-71467857D02*
X131561950Y-71498809D01*
X131561950Y-71498809D02*
X131592902Y-71591667D01*
X131592902Y-71591667D02*
X131592902Y-71653571D01*
X131592902Y-71653571D02*
X131561950Y-71746428D01*
X131561950Y-71746428D02*
X131500045Y-71808333D01*
X131500045Y-71808333D02*
X131438140Y-71839286D01*
X131438140Y-71839286D02*
X131314330Y-71870238D01*
X131314330Y-71870238D02*
X131221473Y-71870238D01*
X131221473Y-71870238D02*
X131097664Y-71839286D01*
X131097664Y-71839286D02*
X131035759Y-71808333D01*
X131035759Y-71808333D02*
X130973854Y-71746428D01*
X130973854Y-71746428D02*
X130942902Y-71653571D01*
X130942902Y-71653571D02*
X130942902Y-71591667D01*
X130942902Y-71591667D02*
X130973854Y-71498809D01*
X130973854Y-71498809D02*
X131004807Y-71467857D01*
X131004807Y-71220238D02*
X130973854Y-71189286D01*
X130973854Y-71189286D02*
X130942902Y-71127381D01*
X130942902Y-71127381D02*
X130942902Y-70972619D01*
X130942902Y-70972619D02*
X130973854Y-70910714D01*
X130973854Y-70910714D02*
X131004807Y-70879762D01*
X131004807Y-70879762D02*
X131066711Y-70848809D01*
X131066711Y-70848809D02*
X131128616Y-70848809D01*
X131128616Y-70848809D02*
X131221473Y-70879762D01*
X131221473Y-70879762D02*
X131592902Y-71251190D01*
X131592902Y-71251190D02*
X131592902Y-70848809D01*
X130942902Y-70632142D02*
X130942902Y-70229761D01*
X130942902Y-70229761D02*
X131190521Y-70446428D01*
X131190521Y-70446428D02*
X131190521Y-70353571D01*
X131190521Y-70353571D02*
X131221473Y-70291666D01*
X131221473Y-70291666D02*
X131252426Y-70260714D01*
X131252426Y-70260714D02*
X131314330Y-70229761D01*
X131314330Y-70229761D02*
X131469092Y-70229761D01*
X131469092Y-70229761D02*
X131530997Y-70260714D01*
X131530997Y-70260714D02*
X131561950Y-70291666D01*
X131561950Y-70291666D02*
X131592902Y-70353571D01*
X131592902Y-70353571D02*
X131592902Y-70539285D01*
X131592902Y-70539285D02*
X131561950Y-70601190D01*
X131561950Y-70601190D02*
X131530997Y-70632142D01*
X128930997Y-68067857D02*
X128961950Y-68098809D01*
X128961950Y-68098809D02*
X128992902Y-68191667D01*
X128992902Y-68191667D02*
X128992902Y-68253571D01*
X128992902Y-68253571D02*
X128961950Y-68346428D01*
X128961950Y-68346428D02*
X128900045Y-68408333D01*
X128900045Y-68408333D02*
X128838140Y-68439286D01*
X128838140Y-68439286D02*
X128714330Y-68470238D01*
X128714330Y-68470238D02*
X128621473Y-68470238D01*
X128621473Y-68470238D02*
X128497664Y-68439286D01*
X128497664Y-68439286D02*
X128435759Y-68408333D01*
X128435759Y-68408333D02*
X128373854Y-68346428D01*
X128373854Y-68346428D02*
X128342902Y-68253571D01*
X128342902Y-68253571D02*
X128342902Y-68191667D01*
X128342902Y-68191667D02*
X128373854Y-68098809D01*
X128373854Y-68098809D02*
X128404807Y-68067857D01*
X128404807Y-67820238D02*
X128373854Y-67789286D01*
X128373854Y-67789286D02*
X128342902Y-67727381D01*
X128342902Y-67727381D02*
X128342902Y-67572619D01*
X128342902Y-67572619D02*
X128373854Y-67510714D01*
X128373854Y-67510714D02*
X128404807Y-67479762D01*
X128404807Y-67479762D02*
X128466711Y-67448809D01*
X128466711Y-67448809D02*
X128528616Y-67448809D01*
X128528616Y-67448809D02*
X128621473Y-67479762D01*
X128621473Y-67479762D02*
X128992902Y-67851190D01*
X128992902Y-67851190D02*
X128992902Y-67448809D01*
X128404807Y-67201190D02*
X128373854Y-67170238D01*
X128373854Y-67170238D02*
X128342902Y-67108333D01*
X128342902Y-67108333D02*
X128342902Y-66953571D01*
X128342902Y-66953571D02*
X128373854Y-66891666D01*
X128373854Y-66891666D02*
X128404807Y-66860714D01*
X128404807Y-66860714D02*
X128466711Y-66829761D01*
X128466711Y-66829761D02*
X128528616Y-66829761D01*
X128528616Y-66829761D02*
X128621473Y-66860714D01*
X128621473Y-66860714D02*
X128992902Y-67232142D01*
X128992902Y-67232142D02*
X128992902Y-66829761D01*
X110216070Y-95480997D02*
X110185118Y-95511950D01*
X110185118Y-95511950D02*
X110092260Y-95542902D01*
X110092260Y-95542902D02*
X110030356Y-95542902D01*
X110030356Y-95542902D02*
X109937499Y-95511950D01*
X109937499Y-95511950D02*
X109875594Y-95450045D01*
X109875594Y-95450045D02*
X109844641Y-95388140D01*
X109844641Y-95388140D02*
X109813689Y-95264330D01*
X109813689Y-95264330D02*
X109813689Y-95171473D01*
X109813689Y-95171473D02*
X109844641Y-95047664D01*
X109844641Y-95047664D02*
X109875594Y-94985759D01*
X109875594Y-94985759D02*
X109937499Y-94923854D01*
X109937499Y-94923854D02*
X110030356Y-94892902D01*
X110030356Y-94892902D02*
X110092260Y-94892902D01*
X110092260Y-94892902D02*
X110185118Y-94923854D01*
X110185118Y-94923854D02*
X110216070Y-94954807D01*
X110835118Y-95542902D02*
X110463689Y-95542902D01*
X110649403Y-95542902D02*
X110649403Y-94892902D01*
X110649403Y-94892902D02*
X110587499Y-94985759D01*
X110587499Y-94985759D02*
X110525594Y-95047664D01*
X110525594Y-95047664D02*
X110463689Y-95078616D01*
X111237499Y-94892902D02*
X111299404Y-94892902D01*
X111299404Y-94892902D02*
X111361308Y-94923854D01*
X111361308Y-94923854D02*
X111392261Y-94954807D01*
X111392261Y-94954807D02*
X111423213Y-95016711D01*
X111423213Y-95016711D02*
X111454166Y-95140521D01*
X111454166Y-95140521D02*
X111454166Y-95295283D01*
X111454166Y-95295283D02*
X111423213Y-95419092D01*
X111423213Y-95419092D02*
X111392261Y-95480997D01*
X111392261Y-95480997D02*
X111361308Y-95511950D01*
X111361308Y-95511950D02*
X111299404Y-95542902D01*
X111299404Y-95542902D02*
X111237499Y-95542902D01*
X111237499Y-95542902D02*
X111175594Y-95511950D01*
X111175594Y-95511950D02*
X111144642Y-95480997D01*
X111144642Y-95480997D02*
X111113689Y-95419092D01*
X111113689Y-95419092D02*
X111082737Y-95295283D01*
X111082737Y-95295283D02*
X111082737Y-95140521D01*
X111082737Y-95140521D02*
X111113689Y-95016711D01*
X111113689Y-95016711D02*
X111144642Y-94954807D01*
X111144642Y-94954807D02*
X111175594Y-94923854D01*
X111175594Y-94923854D02*
X111237499Y-94892902D01*
X130430997Y-135967857D02*
X130461950Y-135998809D01*
X130461950Y-135998809D02*
X130492902Y-136091667D01*
X130492902Y-136091667D02*
X130492902Y-136153571D01*
X130492902Y-136153571D02*
X130461950Y-136246428D01*
X130461950Y-136246428D02*
X130400045Y-136308333D01*
X130400045Y-136308333D02*
X130338140Y-136339286D01*
X130338140Y-136339286D02*
X130214330Y-136370238D01*
X130214330Y-136370238D02*
X130121473Y-136370238D01*
X130121473Y-136370238D02*
X129997664Y-136339286D01*
X129997664Y-136339286D02*
X129935759Y-136308333D01*
X129935759Y-136308333D02*
X129873854Y-136246428D01*
X129873854Y-136246428D02*
X129842902Y-136153571D01*
X129842902Y-136153571D02*
X129842902Y-136091667D01*
X129842902Y-136091667D02*
X129873854Y-135998809D01*
X129873854Y-135998809D02*
X129904807Y-135967857D01*
X130492902Y-135348809D02*
X130492902Y-135720238D01*
X130492902Y-135534524D02*
X129842902Y-135534524D01*
X129842902Y-135534524D02*
X129935759Y-135596428D01*
X129935759Y-135596428D02*
X129997664Y-135658333D01*
X129997664Y-135658333D02*
X130028616Y-135720238D01*
X130121473Y-134977380D02*
X130090521Y-135039285D01*
X130090521Y-135039285D02*
X130059569Y-135070238D01*
X130059569Y-135070238D02*
X129997664Y-135101190D01*
X129997664Y-135101190D02*
X129966711Y-135101190D01*
X129966711Y-135101190D02*
X129904807Y-135070238D01*
X129904807Y-135070238D02*
X129873854Y-135039285D01*
X129873854Y-135039285D02*
X129842902Y-134977380D01*
X129842902Y-134977380D02*
X129842902Y-134853571D01*
X129842902Y-134853571D02*
X129873854Y-134791666D01*
X129873854Y-134791666D02*
X129904807Y-134760714D01*
X129904807Y-134760714D02*
X129966711Y-134729761D01*
X129966711Y-134729761D02*
X129997664Y-134729761D01*
X129997664Y-134729761D02*
X130059569Y-134760714D01*
X130059569Y-134760714D02*
X130090521Y-134791666D01*
X130090521Y-134791666D02*
X130121473Y-134853571D01*
X130121473Y-134853571D02*
X130121473Y-134977380D01*
X130121473Y-134977380D02*
X130152426Y-135039285D01*
X130152426Y-135039285D02*
X130183378Y-135070238D01*
X130183378Y-135070238D02*
X130245283Y-135101190D01*
X130245283Y-135101190D02*
X130369092Y-135101190D01*
X130369092Y-135101190D02*
X130430997Y-135070238D01*
X130430997Y-135070238D02*
X130461950Y-135039285D01*
X130461950Y-135039285D02*
X130492902Y-134977380D01*
X130492902Y-134977380D02*
X130492902Y-134853571D01*
X130492902Y-134853571D02*
X130461950Y-134791666D01*
X130461950Y-134791666D02*
X130430997Y-134760714D01*
X130430997Y-134760714D02*
X130369092Y-134729761D01*
X130369092Y-134729761D02*
X130245283Y-134729761D01*
X130245283Y-134729761D02*
X130183378Y-134760714D01*
X130183378Y-134760714D02*
X130152426Y-134791666D01*
X130152426Y-134791666D02*
X130121473Y-134853571D01*
X114926830Y-89958333D02*
X114617306Y-90175000D01*
X114926830Y-90329762D02*
X114276830Y-90329762D01*
X114276830Y-90329762D02*
X114276830Y-90082143D01*
X114276830Y-90082143D02*
X114307782Y-90020238D01*
X114307782Y-90020238D02*
X114338735Y-89989285D01*
X114338735Y-89989285D02*
X114400639Y-89958333D01*
X114400639Y-89958333D02*
X114493497Y-89958333D01*
X114493497Y-89958333D02*
X114555401Y-89989285D01*
X114555401Y-89989285D02*
X114586354Y-90020238D01*
X114586354Y-90020238D02*
X114617306Y-90082143D01*
X114617306Y-90082143D02*
X114617306Y-90329762D01*
X114276830Y-89741666D02*
X114276830Y-89339285D01*
X114276830Y-89339285D02*
X114524449Y-89555952D01*
X114524449Y-89555952D02*
X114524449Y-89463095D01*
X114524449Y-89463095D02*
X114555401Y-89401190D01*
X114555401Y-89401190D02*
X114586354Y-89370238D01*
X114586354Y-89370238D02*
X114648258Y-89339285D01*
X114648258Y-89339285D02*
X114803020Y-89339285D01*
X114803020Y-89339285D02*
X114864925Y-89370238D01*
X114864925Y-89370238D02*
X114895878Y-89401190D01*
X114895878Y-89401190D02*
X114926830Y-89463095D01*
X114926830Y-89463095D02*
X114926830Y-89648809D01*
X114926830Y-89648809D02*
X114895878Y-89710714D01*
X114895878Y-89710714D02*
X114864925Y-89741666D01*
X109242902Y-72717857D02*
X108933378Y-72934524D01*
X109242902Y-73089286D02*
X108592902Y-73089286D01*
X108592902Y-73089286D02*
X108592902Y-72841667D01*
X108592902Y-72841667D02*
X108623854Y-72779762D01*
X108623854Y-72779762D02*
X108654807Y-72748809D01*
X108654807Y-72748809D02*
X108716711Y-72717857D01*
X108716711Y-72717857D02*
X108809569Y-72717857D01*
X108809569Y-72717857D02*
X108871473Y-72748809D01*
X108871473Y-72748809D02*
X108902426Y-72779762D01*
X108902426Y-72779762D02*
X108933378Y-72841667D01*
X108933378Y-72841667D02*
X108933378Y-73089286D01*
X109242902Y-72098809D02*
X109242902Y-72470238D01*
X109242902Y-72284524D02*
X108592902Y-72284524D01*
X108592902Y-72284524D02*
X108685759Y-72346428D01*
X108685759Y-72346428D02*
X108747664Y-72408333D01*
X108747664Y-72408333D02*
X108778616Y-72470238D01*
X108871473Y-71727380D02*
X108840521Y-71789285D01*
X108840521Y-71789285D02*
X108809569Y-71820238D01*
X108809569Y-71820238D02*
X108747664Y-71851190D01*
X108747664Y-71851190D02*
X108716711Y-71851190D01*
X108716711Y-71851190D02*
X108654807Y-71820238D01*
X108654807Y-71820238D02*
X108623854Y-71789285D01*
X108623854Y-71789285D02*
X108592902Y-71727380D01*
X108592902Y-71727380D02*
X108592902Y-71603571D01*
X108592902Y-71603571D02*
X108623854Y-71541666D01*
X108623854Y-71541666D02*
X108654807Y-71510714D01*
X108654807Y-71510714D02*
X108716711Y-71479761D01*
X108716711Y-71479761D02*
X108747664Y-71479761D01*
X108747664Y-71479761D02*
X108809569Y-71510714D01*
X108809569Y-71510714D02*
X108840521Y-71541666D01*
X108840521Y-71541666D02*
X108871473Y-71603571D01*
X108871473Y-71603571D02*
X108871473Y-71727380D01*
X108871473Y-71727380D02*
X108902426Y-71789285D01*
X108902426Y-71789285D02*
X108933378Y-71820238D01*
X108933378Y-71820238D02*
X108995283Y-71851190D01*
X108995283Y-71851190D02*
X109119092Y-71851190D01*
X109119092Y-71851190D02*
X109180997Y-71820238D01*
X109180997Y-71820238D02*
X109211950Y-71789285D01*
X109211950Y-71789285D02*
X109242902Y-71727380D01*
X109242902Y-71727380D02*
X109242902Y-71603571D01*
X109242902Y-71603571D02*
X109211950Y-71541666D01*
X109211950Y-71541666D02*
X109180997Y-71510714D01*
X109180997Y-71510714D02*
X109119092Y-71479761D01*
X109119092Y-71479761D02*
X108995283Y-71479761D01*
X108995283Y-71479761D02*
X108933378Y-71510714D01*
X108933378Y-71510714D02*
X108902426Y-71541666D01*
X108902426Y-71541666D02*
X108871473Y-71603571D01*
X127486638Y-136167857D02*
X127177114Y-136384524D01*
X127486638Y-136539286D02*
X126836638Y-136539286D01*
X126836638Y-136539286D02*
X126836638Y-136291667D01*
X126836638Y-136291667D02*
X126867590Y-136229762D01*
X126867590Y-136229762D02*
X126898543Y-136198809D01*
X126898543Y-136198809D02*
X126960447Y-136167857D01*
X126960447Y-136167857D02*
X127053305Y-136167857D01*
X127053305Y-136167857D02*
X127115209Y-136198809D01*
X127115209Y-136198809D02*
X127146162Y-136229762D01*
X127146162Y-136229762D02*
X127177114Y-136291667D01*
X127177114Y-136291667D02*
X127177114Y-136539286D01*
X127486638Y-135548809D02*
X127486638Y-135920238D01*
X127486638Y-135734524D02*
X126836638Y-135734524D01*
X126836638Y-135734524D02*
X126929495Y-135796428D01*
X126929495Y-135796428D02*
X126991400Y-135858333D01*
X126991400Y-135858333D02*
X127022352Y-135920238D01*
X126836638Y-135332142D02*
X126836638Y-134929761D01*
X126836638Y-134929761D02*
X127084257Y-135146428D01*
X127084257Y-135146428D02*
X127084257Y-135053571D01*
X127084257Y-135053571D02*
X127115209Y-134991666D01*
X127115209Y-134991666D02*
X127146162Y-134960714D01*
X127146162Y-134960714D02*
X127208066Y-134929761D01*
X127208066Y-134929761D02*
X127362828Y-134929761D01*
X127362828Y-134929761D02*
X127424733Y-134960714D01*
X127424733Y-134960714D02*
X127455686Y-134991666D01*
X127455686Y-134991666D02*
X127486638Y-135053571D01*
X127486638Y-135053571D02*
X127486638Y-135239285D01*
X127486638Y-135239285D02*
X127455686Y-135301190D01*
X127455686Y-135301190D02*
X127424733Y-135332142D01*
X127623095Y-116679819D02*
X127623095Y-117489342D01*
X127623095Y-117489342D02*
X127670714Y-117584580D01*
X127670714Y-117584580D02*
X127718333Y-117632200D01*
X127718333Y-117632200D02*
X127813571Y-117679819D01*
X127813571Y-117679819D02*
X128004047Y-117679819D01*
X128004047Y-117679819D02*
X128099285Y-117632200D01*
X128099285Y-117632200D02*
X128146904Y-117584580D01*
X128146904Y-117584580D02*
X128194523Y-117489342D01*
X128194523Y-117489342D02*
X128194523Y-116679819D01*
X128623095Y-116775057D02*
X128670714Y-116727438D01*
X128670714Y-116727438D02*
X128765952Y-116679819D01*
X128765952Y-116679819D02*
X129004047Y-116679819D01*
X129004047Y-116679819D02*
X129099285Y-116727438D01*
X129099285Y-116727438D02*
X129146904Y-116775057D01*
X129146904Y-116775057D02*
X129194523Y-116870295D01*
X129194523Y-116870295D02*
X129194523Y-116965533D01*
X129194523Y-116965533D02*
X129146904Y-117108390D01*
X129146904Y-117108390D02*
X128575476Y-117679819D01*
X128575476Y-117679819D02*
X129194523Y-117679819D01*
X116793508Y-99716666D02*
X116841128Y-99764285D01*
X116841128Y-99764285D02*
X116888747Y-99907142D01*
X116888747Y-99907142D02*
X116888747Y-100002380D01*
X116888747Y-100002380D02*
X116841128Y-100145237D01*
X116841128Y-100145237D02*
X116745889Y-100240475D01*
X116745889Y-100240475D02*
X116650651Y-100288094D01*
X116650651Y-100288094D02*
X116460175Y-100335713D01*
X116460175Y-100335713D02*
X116317318Y-100335713D01*
X116317318Y-100335713D02*
X116126842Y-100288094D01*
X116126842Y-100288094D02*
X116031604Y-100240475D01*
X116031604Y-100240475D02*
X115936366Y-100145237D01*
X115936366Y-100145237D02*
X115888747Y-100002380D01*
X115888747Y-100002380D02*
X115888747Y-99907142D01*
X115888747Y-99907142D02*
X115936366Y-99764285D01*
X115936366Y-99764285D02*
X115983985Y-99716666D01*
X115888747Y-99383332D02*
X115888747Y-98716666D01*
X115888747Y-98716666D02*
X116888747Y-99145237D01*
X113136638Y-124833333D02*
X112827114Y-125050000D01*
X113136638Y-125204762D02*
X112486638Y-125204762D01*
X112486638Y-125204762D02*
X112486638Y-124957143D01*
X112486638Y-124957143D02*
X112517590Y-124895238D01*
X112517590Y-124895238D02*
X112548543Y-124864285D01*
X112548543Y-124864285D02*
X112610447Y-124833333D01*
X112610447Y-124833333D02*
X112703305Y-124833333D01*
X112703305Y-124833333D02*
X112765209Y-124864285D01*
X112765209Y-124864285D02*
X112796162Y-124895238D01*
X112796162Y-124895238D02*
X112827114Y-124957143D01*
X112827114Y-124957143D02*
X112827114Y-125204762D01*
X112703305Y-124276190D02*
X113136638Y-124276190D01*
X112455686Y-124430952D02*
X112919971Y-124585714D01*
X112919971Y-124585714D02*
X112919971Y-124183333D01*
X127685402Y-138542902D02*
X127468735Y-138233378D01*
X127313973Y-138542902D02*
X127313973Y-137892902D01*
X127313973Y-137892902D02*
X127561592Y-137892902D01*
X127561592Y-137892902D02*
X127623497Y-137923854D01*
X127623497Y-137923854D02*
X127654450Y-137954807D01*
X127654450Y-137954807D02*
X127685402Y-138016711D01*
X127685402Y-138016711D02*
X127685402Y-138109569D01*
X127685402Y-138109569D02*
X127654450Y-138171473D01*
X127654450Y-138171473D02*
X127623497Y-138202426D01*
X127623497Y-138202426D02*
X127561592Y-138233378D01*
X127561592Y-138233378D02*
X127313973Y-138233378D01*
X127994926Y-138542902D02*
X128118735Y-138542902D01*
X128118735Y-138542902D02*
X128180640Y-138511950D01*
X128180640Y-138511950D02*
X128211592Y-138480997D01*
X128211592Y-138480997D02*
X128273497Y-138388140D01*
X128273497Y-138388140D02*
X128304450Y-138264330D01*
X128304450Y-138264330D02*
X128304450Y-138016711D01*
X128304450Y-138016711D02*
X128273497Y-137954807D01*
X128273497Y-137954807D02*
X128242545Y-137923854D01*
X128242545Y-137923854D02*
X128180640Y-137892902D01*
X128180640Y-137892902D02*
X128056831Y-137892902D01*
X128056831Y-137892902D02*
X127994926Y-137923854D01*
X127994926Y-137923854D02*
X127963973Y-137954807D01*
X127963973Y-137954807D02*
X127933021Y-138016711D01*
X127933021Y-138016711D02*
X127933021Y-138171473D01*
X127933021Y-138171473D02*
X127963973Y-138233378D01*
X127963973Y-138233378D02*
X127994926Y-138264330D01*
X127994926Y-138264330D02*
X128056831Y-138295283D01*
X128056831Y-138295283D02*
X128180640Y-138295283D01*
X128180640Y-138295283D02*
X128242545Y-138264330D01*
X128242545Y-138264330D02*
X128273497Y-138233378D01*
X128273497Y-138233378D02*
X128304450Y-138171473D01*
X116126830Y-74067857D02*
X115817306Y-74284524D01*
X116126830Y-74439286D02*
X115476830Y-74439286D01*
X115476830Y-74439286D02*
X115476830Y-74191667D01*
X115476830Y-74191667D02*
X115507782Y-74129762D01*
X115507782Y-74129762D02*
X115538735Y-74098809D01*
X115538735Y-74098809D02*
X115600639Y-74067857D01*
X115600639Y-74067857D02*
X115693497Y-74067857D01*
X115693497Y-74067857D02*
X115755401Y-74098809D01*
X115755401Y-74098809D02*
X115786354Y-74129762D01*
X115786354Y-74129762D02*
X115817306Y-74191667D01*
X115817306Y-74191667D02*
X115817306Y-74439286D01*
X115538735Y-73820238D02*
X115507782Y-73789286D01*
X115507782Y-73789286D02*
X115476830Y-73727381D01*
X115476830Y-73727381D02*
X115476830Y-73572619D01*
X115476830Y-73572619D02*
X115507782Y-73510714D01*
X115507782Y-73510714D02*
X115538735Y-73479762D01*
X115538735Y-73479762D02*
X115600639Y-73448809D01*
X115600639Y-73448809D02*
X115662544Y-73448809D01*
X115662544Y-73448809D02*
X115755401Y-73479762D01*
X115755401Y-73479762D02*
X116126830Y-73851190D01*
X116126830Y-73851190D02*
X116126830Y-73448809D01*
X115476830Y-72860714D02*
X115476830Y-73170238D01*
X115476830Y-73170238D02*
X115786354Y-73201190D01*
X115786354Y-73201190D02*
X115755401Y-73170238D01*
X115755401Y-73170238D02*
X115724449Y-73108333D01*
X115724449Y-73108333D02*
X115724449Y-72953571D01*
X115724449Y-72953571D02*
X115755401Y-72891666D01*
X115755401Y-72891666D02*
X115786354Y-72860714D01*
X115786354Y-72860714D02*
X115848258Y-72829761D01*
X115848258Y-72829761D02*
X116003020Y-72829761D01*
X116003020Y-72829761D02*
X116064925Y-72860714D01*
X116064925Y-72860714D02*
X116095878Y-72891666D01*
X116095878Y-72891666D02*
X116126830Y-72953571D01*
X116126830Y-72953571D02*
X116126830Y-73108333D01*
X116126830Y-73108333D02*
X116095878Y-73170238D01*
X116095878Y-73170238D02*
X116064925Y-73201190D01*
X132750594Y-54144819D02*
X132750594Y-54859104D01*
X132750594Y-54859104D02*
X132702975Y-55001961D01*
X132702975Y-55001961D02*
X132607737Y-55097200D01*
X132607737Y-55097200D02*
X132464880Y-55144819D01*
X132464880Y-55144819D02*
X132369642Y-55144819D01*
X133179166Y-54240057D02*
X133226785Y-54192438D01*
X133226785Y-54192438D02*
X133322023Y-54144819D01*
X133322023Y-54144819D02*
X133560118Y-54144819D01*
X133560118Y-54144819D02*
X133655356Y-54192438D01*
X133655356Y-54192438D02*
X133702975Y-54240057D01*
X133702975Y-54240057D02*
X133750594Y-54335295D01*
X133750594Y-54335295D02*
X133750594Y-54430533D01*
X133750594Y-54430533D02*
X133702975Y-54573390D01*
X133702975Y-54573390D02*
X133131547Y-55144819D01*
X133131547Y-55144819D02*
X133750594Y-55144819D01*
X112126830Y-74067857D02*
X111817306Y-74284524D01*
X112126830Y-74439286D02*
X111476830Y-74439286D01*
X111476830Y-74439286D02*
X111476830Y-74191667D01*
X111476830Y-74191667D02*
X111507782Y-74129762D01*
X111507782Y-74129762D02*
X111538735Y-74098809D01*
X111538735Y-74098809D02*
X111600639Y-74067857D01*
X111600639Y-74067857D02*
X111693497Y-74067857D01*
X111693497Y-74067857D02*
X111755401Y-74098809D01*
X111755401Y-74098809D02*
X111786354Y-74129762D01*
X111786354Y-74129762D02*
X111817306Y-74191667D01*
X111817306Y-74191667D02*
X111817306Y-74439286D01*
X111538735Y-73820238D02*
X111507782Y-73789286D01*
X111507782Y-73789286D02*
X111476830Y-73727381D01*
X111476830Y-73727381D02*
X111476830Y-73572619D01*
X111476830Y-73572619D02*
X111507782Y-73510714D01*
X111507782Y-73510714D02*
X111538735Y-73479762D01*
X111538735Y-73479762D02*
X111600639Y-73448809D01*
X111600639Y-73448809D02*
X111662544Y-73448809D01*
X111662544Y-73448809D02*
X111755401Y-73479762D01*
X111755401Y-73479762D02*
X112126830Y-73851190D01*
X112126830Y-73851190D02*
X112126830Y-73448809D01*
X111476830Y-72891666D02*
X111476830Y-73015476D01*
X111476830Y-73015476D02*
X111507782Y-73077380D01*
X111507782Y-73077380D02*
X111538735Y-73108333D01*
X111538735Y-73108333D02*
X111631592Y-73170238D01*
X111631592Y-73170238D02*
X111755401Y-73201190D01*
X111755401Y-73201190D02*
X112003020Y-73201190D01*
X112003020Y-73201190D02*
X112064925Y-73170238D01*
X112064925Y-73170238D02*
X112095878Y-73139285D01*
X112095878Y-73139285D02*
X112126830Y-73077380D01*
X112126830Y-73077380D02*
X112126830Y-72953571D01*
X112126830Y-72953571D02*
X112095878Y-72891666D01*
X112095878Y-72891666D02*
X112064925Y-72860714D01*
X112064925Y-72860714D02*
X112003020Y-72829761D01*
X112003020Y-72829761D02*
X111848258Y-72829761D01*
X111848258Y-72829761D02*
X111786354Y-72860714D01*
X111786354Y-72860714D02*
X111755401Y-72891666D01*
X111755401Y-72891666D02*
X111724449Y-72953571D01*
X111724449Y-72953571D02*
X111724449Y-73077380D01*
X111724449Y-73077380D02*
X111755401Y-73139285D01*
X111755401Y-73139285D02*
X111786354Y-73170238D01*
X111786354Y-73170238D02*
X111848258Y-73201190D01*
X109895833Y-93704819D02*
X109895833Y-92704819D01*
X109895833Y-92704819D02*
X110133928Y-92704819D01*
X110133928Y-92704819D02*
X110276785Y-92752438D01*
X110276785Y-92752438D02*
X110372023Y-92847676D01*
X110372023Y-92847676D02*
X110419642Y-92942914D01*
X110419642Y-92942914D02*
X110467261Y-93133390D01*
X110467261Y-93133390D02*
X110467261Y-93276247D01*
X110467261Y-93276247D02*
X110419642Y-93466723D01*
X110419642Y-93466723D02*
X110372023Y-93561961D01*
X110372023Y-93561961D02*
X110276785Y-93657200D01*
X110276785Y-93657200D02*
X110133928Y-93704819D01*
X110133928Y-93704819D02*
X109895833Y-93704819D01*
X111419642Y-93704819D02*
X110848214Y-93704819D01*
X111133928Y-93704819D02*
X111133928Y-92704819D01*
X111133928Y-92704819D02*
X111038690Y-92847676D01*
X111038690Y-92847676D02*
X110943452Y-92942914D01*
X110943452Y-92942914D02*
X110848214Y-92990533D01*
X110926830Y-89958333D02*
X110617306Y-90175000D01*
X110926830Y-90329762D02*
X110276830Y-90329762D01*
X110276830Y-90329762D02*
X110276830Y-90082143D01*
X110276830Y-90082143D02*
X110307782Y-90020238D01*
X110307782Y-90020238D02*
X110338735Y-89989285D01*
X110338735Y-89989285D02*
X110400639Y-89958333D01*
X110400639Y-89958333D02*
X110493497Y-89958333D01*
X110493497Y-89958333D02*
X110555401Y-89989285D01*
X110555401Y-89989285D02*
X110586354Y-90020238D01*
X110586354Y-90020238D02*
X110617306Y-90082143D01*
X110617306Y-90082143D02*
X110617306Y-90329762D01*
X110926830Y-89339285D02*
X110926830Y-89710714D01*
X110926830Y-89525000D02*
X110276830Y-89525000D01*
X110276830Y-89525000D02*
X110369687Y-89586904D01*
X110369687Y-89586904D02*
X110431592Y-89648809D01*
X110431592Y-89648809D02*
X110462544Y-89710714D01*
X124411638Y-135783333D02*
X124102114Y-136000000D01*
X124411638Y-136154762D02*
X123761638Y-136154762D01*
X123761638Y-136154762D02*
X123761638Y-135907143D01*
X123761638Y-135907143D02*
X123792590Y-135845238D01*
X123792590Y-135845238D02*
X123823543Y-135814285D01*
X123823543Y-135814285D02*
X123885447Y-135783333D01*
X123885447Y-135783333D02*
X123978305Y-135783333D01*
X123978305Y-135783333D02*
X124040209Y-135814285D01*
X124040209Y-135814285D02*
X124071162Y-135845238D01*
X124071162Y-135845238D02*
X124102114Y-135907143D01*
X124102114Y-135907143D02*
X124102114Y-136154762D01*
X124040209Y-135411904D02*
X124009257Y-135473809D01*
X124009257Y-135473809D02*
X123978305Y-135504762D01*
X123978305Y-135504762D02*
X123916400Y-135535714D01*
X123916400Y-135535714D02*
X123885447Y-135535714D01*
X123885447Y-135535714D02*
X123823543Y-135504762D01*
X123823543Y-135504762D02*
X123792590Y-135473809D01*
X123792590Y-135473809D02*
X123761638Y-135411904D01*
X123761638Y-135411904D02*
X123761638Y-135288095D01*
X123761638Y-135288095D02*
X123792590Y-135226190D01*
X123792590Y-135226190D02*
X123823543Y-135195238D01*
X123823543Y-135195238D02*
X123885447Y-135164285D01*
X123885447Y-135164285D02*
X123916400Y-135164285D01*
X123916400Y-135164285D02*
X123978305Y-135195238D01*
X123978305Y-135195238D02*
X124009257Y-135226190D01*
X124009257Y-135226190D02*
X124040209Y-135288095D01*
X124040209Y-135288095D02*
X124040209Y-135411904D01*
X124040209Y-135411904D02*
X124071162Y-135473809D01*
X124071162Y-135473809D02*
X124102114Y-135504762D01*
X124102114Y-135504762D02*
X124164019Y-135535714D01*
X124164019Y-135535714D02*
X124287828Y-135535714D01*
X124287828Y-135535714D02*
X124349733Y-135504762D01*
X124349733Y-135504762D02*
X124380686Y-135473809D01*
X124380686Y-135473809D02*
X124411638Y-135411904D01*
X124411638Y-135411904D02*
X124411638Y-135288095D01*
X124411638Y-135288095D02*
X124380686Y-135226190D01*
X124380686Y-135226190D02*
X124349733Y-135195238D01*
X124349733Y-135195238D02*
X124287828Y-135164285D01*
X124287828Y-135164285D02*
X124164019Y-135164285D01*
X124164019Y-135164285D02*
X124102114Y-135195238D01*
X124102114Y-135195238D02*
X124071162Y-135226190D01*
X124071162Y-135226190D02*
X124040209Y-135288095D01*
X120376785Y-93719771D02*
X120376785Y-94205485D01*
X120376785Y-94205485D02*
X120405356Y-94262628D01*
X120405356Y-94262628D02*
X120433928Y-94291200D01*
X120433928Y-94291200D02*
X120491070Y-94319771D01*
X120491070Y-94319771D02*
X120605356Y-94319771D01*
X120605356Y-94319771D02*
X120662499Y-94291200D01*
X120662499Y-94291200D02*
X120691070Y-94262628D01*
X120691070Y-94262628D02*
X120719642Y-94205485D01*
X120719642Y-94205485D02*
X120719642Y-93719771D01*
X121262499Y-93919771D02*
X121262499Y-94319771D01*
X121119641Y-93691200D02*
X120976784Y-94119771D01*
X120976784Y-94119771D02*
X121348213Y-94119771D01*
X126288747Y-103788094D02*
X125288747Y-103788094D01*
X125288747Y-103788094D02*
X125288747Y-103549999D01*
X125288747Y-103549999D02*
X125336366Y-103407142D01*
X125336366Y-103407142D02*
X125431604Y-103311904D01*
X125431604Y-103311904D02*
X125526842Y-103264285D01*
X125526842Y-103264285D02*
X125717318Y-103216666D01*
X125717318Y-103216666D02*
X125860175Y-103216666D01*
X125860175Y-103216666D02*
X126050651Y-103264285D01*
X126050651Y-103264285D02*
X126145889Y-103311904D01*
X126145889Y-103311904D02*
X126241128Y-103407142D01*
X126241128Y-103407142D02*
X126288747Y-103549999D01*
X126288747Y-103549999D02*
X126288747Y-103788094D01*
X125288747Y-102883332D02*
X125288747Y-102216666D01*
X125288747Y-102216666D02*
X126288747Y-102645237D01*
X129832142Y-77030997D02*
X129801190Y-77061950D01*
X129801190Y-77061950D02*
X129708332Y-77092902D01*
X129708332Y-77092902D02*
X129646428Y-77092902D01*
X129646428Y-77092902D02*
X129553571Y-77061950D01*
X129553571Y-77061950D02*
X129491666Y-77000045D01*
X129491666Y-77000045D02*
X129460713Y-76938140D01*
X129460713Y-76938140D02*
X129429761Y-76814330D01*
X129429761Y-76814330D02*
X129429761Y-76721473D01*
X129429761Y-76721473D02*
X129460713Y-76597664D01*
X129460713Y-76597664D02*
X129491666Y-76535759D01*
X129491666Y-76535759D02*
X129553571Y-76473854D01*
X129553571Y-76473854D02*
X129646428Y-76442902D01*
X129646428Y-76442902D02*
X129708332Y-76442902D01*
X129708332Y-76442902D02*
X129801190Y-76473854D01*
X129801190Y-76473854D02*
X129832142Y-76504807D01*
X130451190Y-77092902D02*
X130079761Y-77092902D01*
X130265475Y-77092902D02*
X130265475Y-76442902D01*
X130265475Y-76442902D02*
X130203571Y-76535759D01*
X130203571Y-76535759D02*
X130141666Y-76597664D01*
X130141666Y-76597664D02*
X130079761Y-76628616D01*
X131039285Y-76442902D02*
X130729761Y-76442902D01*
X130729761Y-76442902D02*
X130698809Y-76752426D01*
X130698809Y-76752426D02*
X130729761Y-76721473D01*
X130729761Y-76721473D02*
X130791666Y-76690521D01*
X130791666Y-76690521D02*
X130946428Y-76690521D01*
X130946428Y-76690521D02*
X131008333Y-76721473D01*
X131008333Y-76721473D02*
X131039285Y-76752426D01*
X131039285Y-76752426D02*
X131070238Y-76814330D01*
X131070238Y-76814330D02*
X131070238Y-76969092D01*
X131070238Y-76969092D02*
X131039285Y-77030997D01*
X131039285Y-77030997D02*
X131008333Y-77061950D01*
X131008333Y-77061950D02*
X130946428Y-77092902D01*
X130946428Y-77092902D02*
X130791666Y-77092902D01*
X130791666Y-77092902D02*
X130729761Y-77061950D01*
X130729761Y-77061950D02*
X130698809Y-77030997D01*
X123272023Y-80904819D02*
X123272023Y-81714342D01*
X123272023Y-81714342D02*
X123319642Y-81809580D01*
X123319642Y-81809580D02*
X123367261Y-81857200D01*
X123367261Y-81857200D02*
X123462499Y-81904819D01*
X123462499Y-81904819D02*
X123652975Y-81904819D01*
X123652975Y-81904819D02*
X123748213Y-81857200D01*
X123748213Y-81857200D02*
X123795832Y-81809580D01*
X123795832Y-81809580D02*
X123843451Y-81714342D01*
X123843451Y-81714342D02*
X123843451Y-80904819D01*
X124224404Y-80904819D02*
X124843451Y-80904819D01*
X124843451Y-80904819D02*
X124510118Y-81285771D01*
X124510118Y-81285771D02*
X124652975Y-81285771D01*
X124652975Y-81285771D02*
X124748213Y-81333390D01*
X124748213Y-81333390D02*
X124795832Y-81381009D01*
X124795832Y-81381009D02*
X124843451Y-81476247D01*
X124843451Y-81476247D02*
X124843451Y-81714342D01*
X124843451Y-81714342D02*
X124795832Y-81809580D01*
X124795832Y-81809580D02*
X124748213Y-81857200D01*
X124748213Y-81857200D02*
X124652975Y-81904819D01*
X124652975Y-81904819D02*
X124367261Y-81904819D01*
X124367261Y-81904819D02*
X124272023Y-81857200D01*
X124272023Y-81857200D02*
X124224404Y-81809580D01*
X116472023Y-104904819D02*
X116472023Y-105714342D01*
X116472023Y-105714342D02*
X116519642Y-105809580D01*
X116519642Y-105809580D02*
X116567261Y-105857200D01*
X116567261Y-105857200D02*
X116662499Y-105904819D01*
X116662499Y-105904819D02*
X116852975Y-105904819D01*
X116852975Y-105904819D02*
X116948213Y-105857200D01*
X116948213Y-105857200D02*
X116995832Y-105809580D01*
X116995832Y-105809580D02*
X117043451Y-105714342D01*
X117043451Y-105714342D02*
X117043451Y-104904819D01*
X117948213Y-104904819D02*
X117757737Y-104904819D01*
X117757737Y-104904819D02*
X117662499Y-104952438D01*
X117662499Y-104952438D02*
X117614880Y-105000057D01*
X117614880Y-105000057D02*
X117519642Y-105142914D01*
X117519642Y-105142914D02*
X117472023Y-105333390D01*
X117472023Y-105333390D02*
X117472023Y-105714342D01*
X117472023Y-105714342D02*
X117519642Y-105809580D01*
X117519642Y-105809580D02*
X117567261Y-105857200D01*
X117567261Y-105857200D02*
X117662499Y-105904819D01*
X117662499Y-105904819D02*
X117852975Y-105904819D01*
X117852975Y-105904819D02*
X117948213Y-105857200D01*
X117948213Y-105857200D02*
X117995832Y-105809580D01*
X117995832Y-105809580D02*
X118043451Y-105714342D01*
X118043451Y-105714342D02*
X118043451Y-105476247D01*
X118043451Y-105476247D02*
X117995832Y-105381009D01*
X117995832Y-105381009D02*
X117948213Y-105333390D01*
X117948213Y-105333390D02*
X117852975Y-105285771D01*
X117852975Y-105285771D02*
X117662499Y-105285771D01*
X117662499Y-105285771D02*
X117567261Y-105333390D01*
X117567261Y-105333390D02*
X117519642Y-105381009D01*
X117519642Y-105381009D02*
X117472023Y-105476247D01*
X118993508Y-99416666D02*
X119041128Y-99464285D01*
X119041128Y-99464285D02*
X119088747Y-99607142D01*
X119088747Y-99607142D02*
X119088747Y-99702380D01*
X119088747Y-99702380D02*
X119041128Y-99845237D01*
X119041128Y-99845237D02*
X118945889Y-99940475D01*
X118945889Y-99940475D02*
X118850651Y-99988094D01*
X118850651Y-99988094D02*
X118660175Y-100035713D01*
X118660175Y-100035713D02*
X118517318Y-100035713D01*
X118517318Y-100035713D02*
X118326842Y-99988094D01*
X118326842Y-99988094D02*
X118231604Y-99940475D01*
X118231604Y-99940475D02*
X118136366Y-99845237D01*
X118136366Y-99845237D02*
X118088747Y-99702380D01*
X118088747Y-99702380D02*
X118088747Y-99607142D01*
X118088747Y-99607142D02*
X118136366Y-99464285D01*
X118136366Y-99464285D02*
X118183985Y-99416666D01*
X118183985Y-99035713D02*
X118136366Y-98988094D01*
X118136366Y-98988094D02*
X118088747Y-98892856D01*
X118088747Y-98892856D02*
X118088747Y-98654761D01*
X118088747Y-98654761D02*
X118136366Y-98559523D01*
X118136366Y-98559523D02*
X118183985Y-98511904D01*
X118183985Y-98511904D02*
X118279223Y-98464285D01*
X118279223Y-98464285D02*
X118374461Y-98464285D01*
X118374461Y-98464285D02*
X118517318Y-98511904D01*
X118517318Y-98511904D02*
X119088747Y-99083332D01*
X119088747Y-99083332D02*
X119088747Y-98464285D01*
X122430997Y-136217857D02*
X122461950Y-136248809D01*
X122461950Y-136248809D02*
X122492902Y-136341667D01*
X122492902Y-136341667D02*
X122492902Y-136403571D01*
X122492902Y-136403571D02*
X122461950Y-136496428D01*
X122461950Y-136496428D02*
X122400045Y-136558333D01*
X122400045Y-136558333D02*
X122338140Y-136589286D01*
X122338140Y-136589286D02*
X122214330Y-136620238D01*
X122214330Y-136620238D02*
X122121473Y-136620238D01*
X122121473Y-136620238D02*
X121997664Y-136589286D01*
X121997664Y-136589286D02*
X121935759Y-136558333D01*
X121935759Y-136558333D02*
X121873854Y-136496428D01*
X121873854Y-136496428D02*
X121842902Y-136403571D01*
X121842902Y-136403571D02*
X121842902Y-136341667D01*
X121842902Y-136341667D02*
X121873854Y-136248809D01*
X121873854Y-136248809D02*
X121904807Y-136217857D01*
X121904807Y-135970238D02*
X121873854Y-135939286D01*
X121873854Y-135939286D02*
X121842902Y-135877381D01*
X121842902Y-135877381D02*
X121842902Y-135722619D01*
X121842902Y-135722619D02*
X121873854Y-135660714D01*
X121873854Y-135660714D02*
X121904807Y-135629762D01*
X121904807Y-135629762D02*
X121966711Y-135598809D01*
X121966711Y-135598809D02*
X122028616Y-135598809D01*
X122028616Y-135598809D02*
X122121473Y-135629762D01*
X122121473Y-135629762D02*
X122492902Y-136001190D01*
X122492902Y-136001190D02*
X122492902Y-135598809D01*
X122492902Y-134979761D02*
X122492902Y-135351190D01*
X122492902Y-135165476D02*
X121842902Y-135165476D01*
X121842902Y-135165476D02*
X121935759Y-135227380D01*
X121935759Y-135227380D02*
X121997664Y-135289285D01*
X121997664Y-135289285D02*
X122028616Y-135351190D01*
X120375878Y-138542902D02*
X120159211Y-138233378D01*
X120004449Y-138542902D02*
X120004449Y-137892902D01*
X120004449Y-137892902D02*
X120252068Y-137892902D01*
X120252068Y-137892902D02*
X120313973Y-137923854D01*
X120313973Y-137923854D02*
X120344926Y-137954807D01*
X120344926Y-137954807D02*
X120375878Y-138016711D01*
X120375878Y-138016711D02*
X120375878Y-138109569D01*
X120375878Y-138109569D02*
X120344926Y-138171473D01*
X120344926Y-138171473D02*
X120313973Y-138202426D01*
X120313973Y-138202426D02*
X120252068Y-138233378D01*
X120252068Y-138233378D02*
X120004449Y-138233378D01*
X120994926Y-138542902D02*
X120623497Y-138542902D01*
X120809211Y-138542902D02*
X120809211Y-137892902D01*
X120809211Y-137892902D02*
X120747307Y-137985759D01*
X120747307Y-137985759D02*
X120685402Y-138047664D01*
X120685402Y-138047664D02*
X120623497Y-138078616D01*
X121613974Y-138542902D02*
X121242545Y-138542902D01*
X121428259Y-138542902D02*
X121428259Y-137892902D01*
X121428259Y-137892902D02*
X121366355Y-137985759D01*
X121366355Y-137985759D02*
X121304450Y-138047664D01*
X121304450Y-138047664D02*
X121242545Y-138078616D01*
X112926830Y-89958333D02*
X112617306Y-90175000D01*
X112926830Y-90329762D02*
X112276830Y-90329762D01*
X112276830Y-90329762D02*
X112276830Y-90082143D01*
X112276830Y-90082143D02*
X112307782Y-90020238D01*
X112307782Y-90020238D02*
X112338735Y-89989285D01*
X112338735Y-89989285D02*
X112400639Y-89958333D01*
X112400639Y-89958333D02*
X112493497Y-89958333D01*
X112493497Y-89958333D02*
X112555401Y-89989285D01*
X112555401Y-89989285D02*
X112586354Y-90020238D01*
X112586354Y-90020238D02*
X112617306Y-90082143D01*
X112617306Y-90082143D02*
X112617306Y-90329762D01*
X112276830Y-89370238D02*
X112276830Y-89679762D01*
X112276830Y-89679762D02*
X112586354Y-89710714D01*
X112586354Y-89710714D02*
X112555401Y-89679762D01*
X112555401Y-89679762D02*
X112524449Y-89617857D01*
X112524449Y-89617857D02*
X112524449Y-89463095D01*
X112524449Y-89463095D02*
X112555401Y-89401190D01*
X112555401Y-89401190D02*
X112586354Y-89370238D01*
X112586354Y-89370238D02*
X112648258Y-89339285D01*
X112648258Y-89339285D02*
X112803020Y-89339285D01*
X112803020Y-89339285D02*
X112864925Y-89370238D01*
X112864925Y-89370238D02*
X112895878Y-89401190D01*
X112895878Y-89401190D02*
X112926830Y-89463095D01*
X112926830Y-89463095D02*
X112926830Y-89617857D01*
X112926830Y-89617857D02*
X112895878Y-89679762D01*
X112895878Y-89679762D02*
X112864925Y-89710714D01*
X116926830Y-89958333D02*
X116617306Y-90175000D01*
X116926830Y-90329762D02*
X116276830Y-90329762D01*
X116276830Y-90329762D02*
X116276830Y-90082143D01*
X116276830Y-90082143D02*
X116307782Y-90020238D01*
X116307782Y-90020238D02*
X116338735Y-89989285D01*
X116338735Y-89989285D02*
X116400639Y-89958333D01*
X116400639Y-89958333D02*
X116493497Y-89958333D01*
X116493497Y-89958333D02*
X116555401Y-89989285D01*
X116555401Y-89989285D02*
X116586354Y-90020238D01*
X116586354Y-90020238D02*
X116617306Y-90082143D01*
X116617306Y-90082143D02*
X116617306Y-90329762D01*
X116276830Y-89741666D02*
X116276830Y-89308333D01*
X116276830Y-89308333D02*
X116926830Y-89586904D01*
X110193508Y-107092857D02*
X110241128Y-107140476D01*
X110241128Y-107140476D02*
X110288747Y-107283333D01*
X110288747Y-107283333D02*
X110288747Y-107378571D01*
X110288747Y-107378571D02*
X110241128Y-107521428D01*
X110241128Y-107521428D02*
X110145889Y-107616666D01*
X110145889Y-107616666D02*
X110050651Y-107664285D01*
X110050651Y-107664285D02*
X109860175Y-107711904D01*
X109860175Y-107711904D02*
X109717318Y-107711904D01*
X109717318Y-107711904D02*
X109526842Y-107664285D01*
X109526842Y-107664285D02*
X109431604Y-107616666D01*
X109431604Y-107616666D02*
X109336366Y-107521428D01*
X109336366Y-107521428D02*
X109288747Y-107378571D01*
X109288747Y-107378571D02*
X109288747Y-107283333D01*
X109288747Y-107283333D02*
X109336366Y-107140476D01*
X109336366Y-107140476D02*
X109383985Y-107092857D01*
X110288747Y-106140476D02*
X110288747Y-106711904D01*
X110288747Y-106426190D02*
X109288747Y-106426190D01*
X109288747Y-106426190D02*
X109431604Y-106521428D01*
X109431604Y-106521428D02*
X109526842Y-106616666D01*
X109526842Y-106616666D02*
X109574461Y-106711904D01*
X109288747Y-105807142D02*
X109288747Y-105140476D01*
X109288747Y-105140476D02*
X110288747Y-105569047D01*
X122532142Y-109080997D02*
X122501190Y-109111950D01*
X122501190Y-109111950D02*
X122408332Y-109142902D01*
X122408332Y-109142902D02*
X122346428Y-109142902D01*
X122346428Y-109142902D02*
X122253571Y-109111950D01*
X122253571Y-109111950D02*
X122191666Y-109050045D01*
X122191666Y-109050045D02*
X122160713Y-108988140D01*
X122160713Y-108988140D02*
X122129761Y-108864330D01*
X122129761Y-108864330D02*
X122129761Y-108771473D01*
X122129761Y-108771473D02*
X122160713Y-108647664D01*
X122160713Y-108647664D02*
X122191666Y-108585759D01*
X122191666Y-108585759D02*
X122253571Y-108523854D01*
X122253571Y-108523854D02*
X122346428Y-108492902D01*
X122346428Y-108492902D02*
X122408332Y-108492902D01*
X122408332Y-108492902D02*
X122501190Y-108523854D01*
X122501190Y-108523854D02*
X122532142Y-108554807D01*
X123151190Y-109142902D02*
X122779761Y-109142902D01*
X122965475Y-109142902D02*
X122965475Y-108492902D01*
X122965475Y-108492902D02*
X122903571Y-108585759D01*
X122903571Y-108585759D02*
X122841666Y-108647664D01*
X122841666Y-108647664D02*
X122779761Y-108678616D01*
X123708333Y-108492902D02*
X123584523Y-108492902D01*
X123584523Y-108492902D02*
X123522619Y-108523854D01*
X123522619Y-108523854D02*
X123491666Y-108554807D01*
X123491666Y-108554807D02*
X123429761Y-108647664D01*
X123429761Y-108647664D02*
X123398809Y-108771473D01*
X123398809Y-108771473D02*
X123398809Y-109019092D01*
X123398809Y-109019092D02*
X123429761Y-109080997D01*
X123429761Y-109080997D02*
X123460714Y-109111950D01*
X123460714Y-109111950D02*
X123522619Y-109142902D01*
X123522619Y-109142902D02*
X123646428Y-109142902D01*
X123646428Y-109142902D02*
X123708333Y-109111950D01*
X123708333Y-109111950D02*
X123739285Y-109080997D01*
X123739285Y-109080997D02*
X123770238Y-109019092D01*
X123770238Y-109019092D02*
X123770238Y-108864330D01*
X123770238Y-108864330D02*
X123739285Y-108802426D01*
X123739285Y-108802426D02*
X123708333Y-108771473D01*
X123708333Y-108771473D02*
X123646428Y-108740521D01*
X123646428Y-108740521D02*
X123522619Y-108740521D01*
X123522619Y-108740521D02*
X123460714Y-108771473D01*
X123460714Y-108771473D02*
X123429761Y-108802426D01*
X123429761Y-108802426D02*
X123398809Y-108864330D01*
X130783333Y-118784580D02*
X130735714Y-118832200D01*
X130735714Y-118832200D02*
X130592857Y-118879819D01*
X130592857Y-118879819D02*
X130497619Y-118879819D01*
X130497619Y-118879819D02*
X130354762Y-118832200D01*
X130354762Y-118832200D02*
X130259524Y-118736961D01*
X130259524Y-118736961D02*
X130211905Y-118641723D01*
X130211905Y-118641723D02*
X130164286Y-118451247D01*
X130164286Y-118451247D02*
X130164286Y-118308390D01*
X130164286Y-118308390D02*
X130211905Y-118117914D01*
X130211905Y-118117914D02*
X130259524Y-118022676D01*
X130259524Y-118022676D02*
X130354762Y-117927438D01*
X130354762Y-117927438D02*
X130497619Y-117879819D01*
X130497619Y-117879819D02*
X130592857Y-117879819D01*
X130592857Y-117879819D02*
X130735714Y-117927438D01*
X130735714Y-117927438D02*
X130783333Y-117975057D01*
X131640476Y-118213152D02*
X131640476Y-118879819D01*
X131402381Y-117832200D02*
X131164286Y-118546485D01*
X131164286Y-118546485D02*
X131783333Y-118546485D01*
X120125594Y-79880997D02*
X120094642Y-79911950D01*
X120094642Y-79911950D02*
X120001784Y-79942902D01*
X120001784Y-79942902D02*
X119939880Y-79942902D01*
X119939880Y-79942902D02*
X119847023Y-79911950D01*
X119847023Y-79911950D02*
X119785118Y-79850045D01*
X119785118Y-79850045D02*
X119754165Y-79788140D01*
X119754165Y-79788140D02*
X119723213Y-79664330D01*
X119723213Y-79664330D02*
X119723213Y-79571473D01*
X119723213Y-79571473D02*
X119754165Y-79447664D01*
X119754165Y-79447664D02*
X119785118Y-79385759D01*
X119785118Y-79385759D02*
X119847023Y-79323854D01*
X119847023Y-79323854D02*
X119939880Y-79292902D01*
X119939880Y-79292902D02*
X120001784Y-79292902D01*
X120001784Y-79292902D02*
X120094642Y-79323854D01*
X120094642Y-79323854D02*
X120125594Y-79354807D01*
X120682737Y-79292902D02*
X120558927Y-79292902D01*
X120558927Y-79292902D02*
X120497023Y-79323854D01*
X120497023Y-79323854D02*
X120466070Y-79354807D01*
X120466070Y-79354807D02*
X120404165Y-79447664D01*
X120404165Y-79447664D02*
X120373213Y-79571473D01*
X120373213Y-79571473D02*
X120373213Y-79819092D01*
X120373213Y-79819092D02*
X120404165Y-79880997D01*
X120404165Y-79880997D02*
X120435118Y-79911950D01*
X120435118Y-79911950D02*
X120497023Y-79942902D01*
X120497023Y-79942902D02*
X120620832Y-79942902D01*
X120620832Y-79942902D02*
X120682737Y-79911950D01*
X120682737Y-79911950D02*
X120713689Y-79880997D01*
X120713689Y-79880997D02*
X120744642Y-79819092D01*
X120744642Y-79819092D02*
X120744642Y-79664330D01*
X120744642Y-79664330D02*
X120713689Y-79602426D01*
X120713689Y-79602426D02*
X120682737Y-79571473D01*
X120682737Y-79571473D02*
X120620832Y-79540521D01*
X120620832Y-79540521D02*
X120497023Y-79540521D01*
X120497023Y-79540521D02*
X120435118Y-79571473D01*
X120435118Y-79571473D02*
X120404165Y-79602426D01*
X120404165Y-79602426D02*
X120373213Y-79664330D01*
X125764937Y-100333333D02*
X125764937Y-100666666D01*
X126288747Y-100666666D02*
X125288747Y-100666666D01*
X125288747Y-100666666D02*
X125288747Y-100190476D01*
X125764937Y-99476190D02*
X125812556Y-99333333D01*
X125812556Y-99333333D02*
X125860175Y-99285714D01*
X125860175Y-99285714D02*
X125955413Y-99238095D01*
X125955413Y-99238095D02*
X126098270Y-99238095D01*
X126098270Y-99238095D02*
X126193508Y-99285714D01*
X126193508Y-99285714D02*
X126241128Y-99333333D01*
X126241128Y-99333333D02*
X126288747Y-99428571D01*
X126288747Y-99428571D02*
X126288747Y-99809523D01*
X126288747Y-99809523D02*
X125288747Y-99809523D01*
X125288747Y-99809523D02*
X125288747Y-99476190D01*
X125288747Y-99476190D02*
X125336366Y-99380952D01*
X125336366Y-99380952D02*
X125383985Y-99333333D01*
X125383985Y-99333333D02*
X125479223Y-99285714D01*
X125479223Y-99285714D02*
X125574461Y-99285714D01*
X125574461Y-99285714D02*
X125669699Y-99333333D01*
X125669699Y-99333333D02*
X125717318Y-99380952D01*
X125717318Y-99380952D02*
X125764937Y-99476190D01*
X125764937Y-99476190D02*
X125764937Y-99809523D01*
X126288747Y-98285714D02*
X126288747Y-98857142D01*
X126288747Y-98571428D02*
X125288747Y-98571428D01*
X125288747Y-98571428D02*
X125431604Y-98666666D01*
X125431604Y-98666666D02*
X125526842Y-98761904D01*
X125526842Y-98761904D02*
X125574461Y-98857142D01*
X115864925Y-102758333D02*
X115895878Y-102789285D01*
X115895878Y-102789285D02*
X115926830Y-102882143D01*
X115926830Y-102882143D02*
X115926830Y-102944047D01*
X115926830Y-102944047D02*
X115895878Y-103036904D01*
X115895878Y-103036904D02*
X115833973Y-103098809D01*
X115833973Y-103098809D02*
X115772068Y-103129762D01*
X115772068Y-103129762D02*
X115648258Y-103160714D01*
X115648258Y-103160714D02*
X115555401Y-103160714D01*
X115555401Y-103160714D02*
X115431592Y-103129762D01*
X115431592Y-103129762D02*
X115369687Y-103098809D01*
X115369687Y-103098809D02*
X115307782Y-103036904D01*
X115307782Y-103036904D02*
X115276830Y-102944047D01*
X115276830Y-102944047D02*
X115276830Y-102882143D01*
X115276830Y-102882143D02*
X115307782Y-102789285D01*
X115307782Y-102789285D02*
X115338735Y-102758333D01*
X115276830Y-102541666D02*
X115276830Y-102139285D01*
X115276830Y-102139285D02*
X115524449Y-102355952D01*
X115524449Y-102355952D02*
X115524449Y-102263095D01*
X115524449Y-102263095D02*
X115555401Y-102201190D01*
X115555401Y-102201190D02*
X115586354Y-102170238D01*
X115586354Y-102170238D02*
X115648258Y-102139285D01*
X115648258Y-102139285D02*
X115803020Y-102139285D01*
X115803020Y-102139285D02*
X115864925Y-102170238D01*
X115864925Y-102170238D02*
X115895878Y-102201190D01*
X115895878Y-102201190D02*
X115926830Y-102263095D01*
X115926830Y-102263095D02*
X115926830Y-102448809D01*
X115926830Y-102448809D02*
X115895878Y-102510714D01*
X115895878Y-102510714D02*
X115864925Y-102541666D01*
X114511638Y-135533333D02*
X114202114Y-135750000D01*
X114511638Y-135904762D02*
X113861638Y-135904762D01*
X113861638Y-135904762D02*
X113861638Y-135657143D01*
X113861638Y-135657143D02*
X113892590Y-135595238D01*
X113892590Y-135595238D02*
X113923543Y-135564285D01*
X113923543Y-135564285D02*
X113985447Y-135533333D01*
X113985447Y-135533333D02*
X114078305Y-135533333D01*
X114078305Y-135533333D02*
X114140209Y-135564285D01*
X114140209Y-135564285D02*
X114171162Y-135595238D01*
X114171162Y-135595238D02*
X114202114Y-135657143D01*
X114202114Y-135657143D02*
X114202114Y-135904762D01*
X113861638Y-134976190D02*
X113861638Y-135100000D01*
X113861638Y-135100000D02*
X113892590Y-135161904D01*
X113892590Y-135161904D02*
X113923543Y-135192857D01*
X113923543Y-135192857D02*
X114016400Y-135254762D01*
X114016400Y-135254762D02*
X114140209Y-135285714D01*
X114140209Y-135285714D02*
X114387828Y-135285714D01*
X114387828Y-135285714D02*
X114449733Y-135254762D01*
X114449733Y-135254762D02*
X114480686Y-135223809D01*
X114480686Y-135223809D02*
X114511638Y-135161904D01*
X114511638Y-135161904D02*
X114511638Y-135038095D01*
X114511638Y-135038095D02*
X114480686Y-134976190D01*
X114480686Y-134976190D02*
X114449733Y-134945238D01*
X114449733Y-134945238D02*
X114387828Y-134914285D01*
X114387828Y-134914285D02*
X114233066Y-134914285D01*
X114233066Y-134914285D02*
X114171162Y-134945238D01*
X114171162Y-134945238D02*
X114140209Y-134976190D01*
X114140209Y-134976190D02*
X114109257Y-135038095D01*
X114109257Y-135038095D02*
X114109257Y-135161904D01*
X114109257Y-135161904D02*
X114140209Y-135223809D01*
X114140209Y-135223809D02*
X114171162Y-135254762D01*
X114171162Y-135254762D02*
X114233066Y-135285714D01*
X133216070Y-82480997D02*
X133185118Y-82511950D01*
X133185118Y-82511950D02*
X133092260Y-82542902D01*
X133092260Y-82542902D02*
X133030356Y-82542902D01*
X133030356Y-82542902D02*
X132937499Y-82511950D01*
X132937499Y-82511950D02*
X132875594Y-82450045D01*
X132875594Y-82450045D02*
X132844641Y-82388140D01*
X132844641Y-82388140D02*
X132813689Y-82264330D01*
X132813689Y-82264330D02*
X132813689Y-82171473D01*
X132813689Y-82171473D02*
X132844641Y-82047664D01*
X132844641Y-82047664D02*
X132875594Y-81985759D01*
X132875594Y-81985759D02*
X132937499Y-81923854D01*
X132937499Y-81923854D02*
X133030356Y-81892902D01*
X133030356Y-81892902D02*
X133092260Y-81892902D01*
X133092260Y-81892902D02*
X133185118Y-81923854D01*
X133185118Y-81923854D02*
X133216070Y-81954807D01*
X133835118Y-82542902D02*
X133463689Y-82542902D01*
X133649403Y-82542902D02*
X133649403Y-81892902D01*
X133649403Y-81892902D02*
X133587499Y-81985759D01*
X133587499Y-81985759D02*
X133525594Y-82047664D01*
X133525594Y-82047664D02*
X133463689Y-82078616D01*
X134454166Y-82542902D02*
X134082737Y-82542902D01*
X134268451Y-82542902D02*
X134268451Y-81892902D01*
X134268451Y-81892902D02*
X134206547Y-81985759D01*
X134206547Y-81985759D02*
X134144642Y-82047664D01*
X134144642Y-82047664D02*
X134082737Y-82078616D01*
X124528555Y-129281904D02*
X125338078Y-129281904D01*
X125338078Y-129281904D02*
X125433316Y-129234285D01*
X125433316Y-129234285D02*
X125480936Y-129186666D01*
X125480936Y-129186666D02*
X125528555Y-129091428D01*
X125528555Y-129091428D02*
X125528555Y-128900952D01*
X125528555Y-128900952D02*
X125480936Y-128805714D01*
X125480936Y-128805714D02*
X125433316Y-128758095D01*
X125433316Y-128758095D02*
X125338078Y-128710476D01*
X125338078Y-128710476D02*
X124528555Y-128710476D01*
X125528555Y-127710476D02*
X125528555Y-128281904D01*
X125528555Y-127996190D02*
X124528555Y-127996190D01*
X124528555Y-127996190D02*
X124671412Y-128091428D01*
X124671412Y-128091428D02*
X124766650Y-128186666D01*
X124766650Y-128186666D02*
X124814269Y-128281904D01*
X126991070Y-88609580D02*
X126943451Y-88657200D01*
X126943451Y-88657200D02*
X126800594Y-88704819D01*
X126800594Y-88704819D02*
X126705356Y-88704819D01*
X126705356Y-88704819D02*
X126562499Y-88657200D01*
X126562499Y-88657200D02*
X126467261Y-88561961D01*
X126467261Y-88561961D02*
X126419642Y-88466723D01*
X126419642Y-88466723D02*
X126372023Y-88276247D01*
X126372023Y-88276247D02*
X126372023Y-88133390D01*
X126372023Y-88133390D02*
X126419642Y-87942914D01*
X126419642Y-87942914D02*
X126467261Y-87847676D01*
X126467261Y-87847676D02*
X126562499Y-87752438D01*
X126562499Y-87752438D02*
X126705356Y-87704819D01*
X126705356Y-87704819D02*
X126800594Y-87704819D01*
X126800594Y-87704819D02*
X126943451Y-87752438D01*
X126943451Y-87752438D02*
X126991070Y-87800057D01*
X127943451Y-88704819D02*
X127372023Y-88704819D01*
X127657737Y-88704819D02*
X127657737Y-87704819D01*
X127657737Y-87704819D02*
X127562499Y-87847676D01*
X127562499Y-87847676D02*
X127467261Y-87942914D01*
X127467261Y-87942914D02*
X127372023Y-87990533D01*
X128324404Y-87800057D02*
X128372023Y-87752438D01*
X128372023Y-87752438D02*
X128467261Y-87704819D01*
X128467261Y-87704819D02*
X128705356Y-87704819D01*
X128705356Y-87704819D02*
X128800594Y-87752438D01*
X128800594Y-87752438D02*
X128848213Y-87800057D01*
X128848213Y-87800057D02*
X128895832Y-87895295D01*
X128895832Y-87895295D02*
X128895832Y-87990533D01*
X128895832Y-87990533D02*
X128848213Y-88133390D01*
X128848213Y-88133390D02*
X128276785Y-88704819D01*
X128276785Y-88704819D02*
X128895832Y-88704819D01*
X112930997Y-137717857D02*
X112961950Y-137748809D01*
X112961950Y-137748809D02*
X112992902Y-137841667D01*
X112992902Y-137841667D02*
X112992902Y-137903571D01*
X112992902Y-137903571D02*
X112961950Y-137996428D01*
X112961950Y-137996428D02*
X112900045Y-138058333D01*
X112900045Y-138058333D02*
X112838140Y-138089286D01*
X112838140Y-138089286D02*
X112714330Y-138120238D01*
X112714330Y-138120238D02*
X112621473Y-138120238D01*
X112621473Y-138120238D02*
X112497664Y-138089286D01*
X112497664Y-138089286D02*
X112435759Y-138058333D01*
X112435759Y-138058333D02*
X112373854Y-137996428D01*
X112373854Y-137996428D02*
X112342902Y-137903571D01*
X112342902Y-137903571D02*
X112342902Y-137841667D01*
X112342902Y-137841667D02*
X112373854Y-137748809D01*
X112373854Y-137748809D02*
X112404807Y-137717857D01*
X112992902Y-137098809D02*
X112992902Y-137470238D01*
X112992902Y-137284524D02*
X112342902Y-137284524D01*
X112342902Y-137284524D02*
X112435759Y-137346428D01*
X112435759Y-137346428D02*
X112497664Y-137408333D01*
X112497664Y-137408333D02*
X112528616Y-137470238D01*
X112992902Y-136789285D02*
X112992902Y-136665476D01*
X112992902Y-136665476D02*
X112961950Y-136603571D01*
X112961950Y-136603571D02*
X112930997Y-136572619D01*
X112930997Y-136572619D02*
X112838140Y-136510714D01*
X112838140Y-136510714D02*
X112714330Y-136479761D01*
X112714330Y-136479761D02*
X112466711Y-136479761D01*
X112466711Y-136479761D02*
X112404807Y-136510714D01*
X112404807Y-136510714D02*
X112373854Y-136541666D01*
X112373854Y-136541666D02*
X112342902Y-136603571D01*
X112342902Y-136603571D02*
X112342902Y-136727380D01*
X112342902Y-136727380D02*
X112373854Y-136789285D01*
X112373854Y-136789285D02*
X112404807Y-136820238D01*
X112404807Y-136820238D02*
X112466711Y-136851190D01*
X112466711Y-136851190D02*
X112621473Y-136851190D01*
X112621473Y-136851190D02*
X112683378Y-136820238D01*
X112683378Y-136820238D02*
X112714330Y-136789285D01*
X112714330Y-136789285D02*
X112745283Y-136727380D01*
X112745283Y-136727380D02*
X112745283Y-136603571D01*
X112745283Y-136603571D02*
X112714330Y-136541666D01*
X112714330Y-136541666D02*
X112683378Y-136510714D01*
X112683378Y-136510714D02*
X112621473Y-136479761D01*
X116768802Y-80400747D02*
X116737850Y-80431700D01*
X116737850Y-80431700D02*
X116644992Y-80462652D01*
X116644992Y-80462652D02*
X116583088Y-80462652D01*
X116583088Y-80462652D02*
X116490231Y-80431700D01*
X116490231Y-80431700D02*
X116428326Y-80369795D01*
X116428326Y-80369795D02*
X116397373Y-80307890D01*
X116397373Y-80307890D02*
X116366421Y-80184080D01*
X116366421Y-80184080D02*
X116366421Y-80091223D01*
X116366421Y-80091223D02*
X116397373Y-79967414D01*
X116397373Y-79967414D02*
X116428326Y-79905509D01*
X116428326Y-79905509D02*
X116490231Y-79843604D01*
X116490231Y-79843604D02*
X116583088Y-79812652D01*
X116583088Y-79812652D02*
X116644992Y-79812652D01*
X116644992Y-79812652D02*
X116737850Y-79843604D01*
X116737850Y-79843604D02*
X116768802Y-79874557D01*
X117356897Y-79812652D02*
X117047373Y-79812652D01*
X117047373Y-79812652D02*
X117016421Y-80122176D01*
X117016421Y-80122176D02*
X117047373Y-80091223D01*
X117047373Y-80091223D02*
X117109278Y-80060271D01*
X117109278Y-80060271D02*
X117264040Y-80060271D01*
X117264040Y-80060271D02*
X117325945Y-80091223D01*
X117325945Y-80091223D02*
X117356897Y-80122176D01*
X117356897Y-80122176D02*
X117387850Y-80184080D01*
X117387850Y-80184080D02*
X117387850Y-80338842D01*
X117387850Y-80338842D02*
X117356897Y-80400747D01*
X117356897Y-80400747D02*
X117325945Y-80431700D01*
X117325945Y-80431700D02*
X117264040Y-80462652D01*
X117264040Y-80462652D02*
X117109278Y-80462652D01*
X117109278Y-80462652D02*
X117047373Y-80431700D01*
X117047373Y-80431700D02*
X117016421Y-80400747D01*
X120886638Y-136192857D02*
X120577114Y-136409524D01*
X120886638Y-136564286D02*
X120236638Y-136564286D01*
X120236638Y-136564286D02*
X120236638Y-136316667D01*
X120236638Y-136316667D02*
X120267590Y-136254762D01*
X120267590Y-136254762D02*
X120298543Y-136223809D01*
X120298543Y-136223809D02*
X120360447Y-136192857D01*
X120360447Y-136192857D02*
X120453305Y-136192857D01*
X120453305Y-136192857D02*
X120515209Y-136223809D01*
X120515209Y-136223809D02*
X120546162Y-136254762D01*
X120546162Y-136254762D02*
X120577114Y-136316667D01*
X120577114Y-136316667D02*
X120577114Y-136564286D01*
X120886638Y-135573809D02*
X120886638Y-135945238D01*
X120886638Y-135759524D02*
X120236638Y-135759524D01*
X120236638Y-135759524D02*
X120329495Y-135821428D01*
X120329495Y-135821428D02*
X120391400Y-135883333D01*
X120391400Y-135883333D02*
X120422352Y-135945238D01*
X120236638Y-134985714D02*
X120236638Y-135295238D01*
X120236638Y-135295238D02*
X120546162Y-135326190D01*
X120546162Y-135326190D02*
X120515209Y-135295238D01*
X120515209Y-135295238D02*
X120484257Y-135233333D01*
X120484257Y-135233333D02*
X120484257Y-135078571D01*
X120484257Y-135078571D02*
X120515209Y-135016666D01*
X120515209Y-135016666D02*
X120546162Y-134985714D01*
X120546162Y-134985714D02*
X120608066Y-134954761D01*
X120608066Y-134954761D02*
X120762828Y-134954761D01*
X120762828Y-134954761D02*
X120824733Y-134985714D01*
X120824733Y-134985714D02*
X120855686Y-135016666D01*
X120855686Y-135016666D02*
X120886638Y-135078571D01*
X120886638Y-135078571D02*
X120886638Y-135233333D01*
X120886638Y-135233333D02*
X120855686Y-135295238D01*
X120855686Y-135295238D02*
X120824733Y-135326190D01*
X108992902Y-136042857D02*
X108683378Y-136259524D01*
X108992902Y-136414286D02*
X108342902Y-136414286D01*
X108342902Y-136414286D02*
X108342902Y-136166667D01*
X108342902Y-136166667D02*
X108373854Y-136104762D01*
X108373854Y-136104762D02*
X108404807Y-136073809D01*
X108404807Y-136073809D02*
X108466711Y-136042857D01*
X108466711Y-136042857D02*
X108559569Y-136042857D01*
X108559569Y-136042857D02*
X108621473Y-136073809D01*
X108621473Y-136073809D02*
X108652426Y-136104762D01*
X108652426Y-136104762D02*
X108683378Y-136166667D01*
X108683378Y-136166667D02*
X108683378Y-136414286D01*
X108992902Y-135423809D02*
X108992902Y-135795238D01*
X108992902Y-135609524D02*
X108342902Y-135609524D01*
X108342902Y-135609524D02*
X108435759Y-135671428D01*
X108435759Y-135671428D02*
X108497664Y-135733333D01*
X108497664Y-135733333D02*
X108528616Y-135795238D01*
X108342902Y-134866666D02*
X108342902Y-134990476D01*
X108342902Y-134990476D02*
X108373854Y-135052380D01*
X108373854Y-135052380D02*
X108404807Y-135083333D01*
X108404807Y-135083333D02*
X108497664Y-135145238D01*
X108497664Y-135145238D02*
X108621473Y-135176190D01*
X108621473Y-135176190D02*
X108869092Y-135176190D01*
X108869092Y-135176190D02*
X108930997Y-135145238D01*
X108930997Y-135145238D02*
X108961950Y-135114285D01*
X108961950Y-135114285D02*
X108992902Y-135052380D01*
X108992902Y-135052380D02*
X108992902Y-134928571D01*
X108992902Y-134928571D02*
X108961950Y-134866666D01*
X108961950Y-134866666D02*
X108930997Y-134835714D01*
X108930997Y-134835714D02*
X108869092Y-134804761D01*
X108869092Y-134804761D02*
X108714330Y-134804761D01*
X108714330Y-134804761D02*
X108652426Y-134835714D01*
X108652426Y-134835714D02*
X108621473Y-134866666D01*
X108621473Y-134866666D02*
X108590521Y-134928571D01*
X108590521Y-134928571D02*
X108590521Y-135052380D01*
X108590521Y-135052380D02*
X108621473Y-135114285D01*
X108621473Y-135114285D02*
X108652426Y-135145238D01*
X108652426Y-135145238D02*
X108714330Y-135176190D01*
X126288747Y-96713094D02*
X125288747Y-96713094D01*
X125288747Y-96713094D02*
X125288747Y-96474999D01*
X125288747Y-96474999D02*
X125336366Y-96332142D01*
X125336366Y-96332142D02*
X125431604Y-96236904D01*
X125431604Y-96236904D02*
X125526842Y-96189285D01*
X125526842Y-96189285D02*
X125717318Y-96141666D01*
X125717318Y-96141666D02*
X125860175Y-96141666D01*
X125860175Y-96141666D02*
X126050651Y-96189285D01*
X126050651Y-96189285D02*
X126145889Y-96236904D01*
X126145889Y-96236904D02*
X126241128Y-96332142D01*
X126241128Y-96332142D02*
X126288747Y-96474999D01*
X126288747Y-96474999D02*
X126288747Y-96713094D01*
X125288747Y-95284523D02*
X125288747Y-95474999D01*
X125288747Y-95474999D02*
X125336366Y-95570237D01*
X125336366Y-95570237D02*
X125383985Y-95617856D01*
X125383985Y-95617856D02*
X125526842Y-95713094D01*
X125526842Y-95713094D02*
X125717318Y-95760713D01*
X125717318Y-95760713D02*
X126098270Y-95760713D01*
X126098270Y-95760713D02*
X126193508Y-95713094D01*
X126193508Y-95713094D02*
X126241128Y-95665475D01*
X126241128Y-95665475D02*
X126288747Y-95570237D01*
X126288747Y-95570237D02*
X126288747Y-95379761D01*
X126288747Y-95379761D02*
X126241128Y-95284523D01*
X126241128Y-95284523D02*
X126193508Y-95236904D01*
X126193508Y-95236904D02*
X126098270Y-95189285D01*
X126098270Y-95189285D02*
X125860175Y-95189285D01*
X125860175Y-95189285D02*
X125764937Y-95236904D01*
X125764937Y-95236904D02*
X125717318Y-95284523D01*
X125717318Y-95284523D02*
X125669699Y-95379761D01*
X125669699Y-95379761D02*
X125669699Y-95570237D01*
X125669699Y-95570237D02*
X125717318Y-95665475D01*
X125717318Y-95665475D02*
X125764937Y-95713094D01*
X125764937Y-95713094D02*
X125860175Y-95760713D01*
X109332142Y-138080997D02*
X109301190Y-138111950D01*
X109301190Y-138111950D02*
X109208332Y-138142902D01*
X109208332Y-138142902D02*
X109146428Y-138142902D01*
X109146428Y-138142902D02*
X109053571Y-138111950D01*
X109053571Y-138111950D02*
X108991666Y-138050045D01*
X108991666Y-138050045D02*
X108960713Y-137988140D01*
X108960713Y-137988140D02*
X108929761Y-137864330D01*
X108929761Y-137864330D02*
X108929761Y-137771473D01*
X108929761Y-137771473D02*
X108960713Y-137647664D01*
X108960713Y-137647664D02*
X108991666Y-137585759D01*
X108991666Y-137585759D02*
X109053571Y-137523854D01*
X109053571Y-137523854D02*
X109146428Y-137492902D01*
X109146428Y-137492902D02*
X109208332Y-137492902D01*
X109208332Y-137492902D02*
X109301190Y-137523854D01*
X109301190Y-137523854D02*
X109332142Y-137554807D01*
X109579761Y-137554807D02*
X109610713Y-137523854D01*
X109610713Y-137523854D02*
X109672618Y-137492902D01*
X109672618Y-137492902D02*
X109827380Y-137492902D01*
X109827380Y-137492902D02*
X109889285Y-137523854D01*
X109889285Y-137523854D02*
X109920237Y-137554807D01*
X109920237Y-137554807D02*
X109951190Y-137616711D01*
X109951190Y-137616711D02*
X109951190Y-137678616D01*
X109951190Y-137678616D02*
X109920237Y-137771473D01*
X109920237Y-137771473D02*
X109548809Y-138142902D01*
X109548809Y-138142902D02*
X109951190Y-138142902D01*
X110353571Y-137492902D02*
X110415476Y-137492902D01*
X110415476Y-137492902D02*
X110477380Y-137523854D01*
X110477380Y-137523854D02*
X110508333Y-137554807D01*
X110508333Y-137554807D02*
X110539285Y-137616711D01*
X110539285Y-137616711D02*
X110570238Y-137740521D01*
X110570238Y-137740521D02*
X110570238Y-137895283D01*
X110570238Y-137895283D02*
X110539285Y-138019092D01*
X110539285Y-138019092D02*
X110508333Y-138080997D01*
X110508333Y-138080997D02*
X110477380Y-138111950D01*
X110477380Y-138111950D02*
X110415476Y-138142902D01*
X110415476Y-138142902D02*
X110353571Y-138142902D01*
X110353571Y-138142902D02*
X110291666Y-138111950D01*
X110291666Y-138111950D02*
X110260714Y-138080997D01*
X110260714Y-138080997D02*
X110229761Y-138019092D01*
X110229761Y-138019092D02*
X110198809Y-137895283D01*
X110198809Y-137895283D02*
X110198809Y-137740521D01*
X110198809Y-137740521D02*
X110229761Y-137616711D01*
X110229761Y-137616711D02*
X110260714Y-137554807D01*
X110260714Y-137554807D02*
X110291666Y-137523854D01*
X110291666Y-137523854D02*
X110353571Y-137492902D01*
X120400594Y-107381009D02*
X120067261Y-107381009D01*
X120067261Y-107904819D02*
X120067261Y-106904819D01*
X120067261Y-106904819D02*
X120543451Y-106904819D01*
X121257737Y-107381009D02*
X121400594Y-107428628D01*
X121400594Y-107428628D02*
X121448213Y-107476247D01*
X121448213Y-107476247D02*
X121495832Y-107571485D01*
X121495832Y-107571485D02*
X121495832Y-107714342D01*
X121495832Y-107714342D02*
X121448213Y-107809580D01*
X121448213Y-107809580D02*
X121400594Y-107857200D01*
X121400594Y-107857200D02*
X121305356Y-107904819D01*
X121305356Y-107904819D02*
X120924404Y-107904819D01*
X120924404Y-107904819D02*
X120924404Y-106904819D01*
X120924404Y-106904819D02*
X121257737Y-106904819D01*
X121257737Y-106904819D02*
X121352975Y-106952438D01*
X121352975Y-106952438D02*
X121400594Y-107000057D01*
X121400594Y-107000057D02*
X121448213Y-107095295D01*
X121448213Y-107095295D02*
X121448213Y-107190533D01*
X121448213Y-107190533D02*
X121400594Y-107285771D01*
X121400594Y-107285771D02*
X121352975Y-107333390D01*
X121352975Y-107333390D02*
X121257737Y-107381009D01*
X121257737Y-107381009D02*
X120924404Y-107381009D01*
X121876785Y-107000057D02*
X121924404Y-106952438D01*
X121924404Y-106952438D02*
X122019642Y-106904819D01*
X122019642Y-106904819D02*
X122257737Y-106904819D01*
X122257737Y-106904819D02*
X122352975Y-106952438D01*
X122352975Y-106952438D02*
X122400594Y-107000057D01*
X122400594Y-107000057D02*
X122448213Y-107095295D01*
X122448213Y-107095295D02*
X122448213Y-107190533D01*
X122448213Y-107190533D02*
X122400594Y-107333390D01*
X122400594Y-107333390D02*
X121829166Y-107904819D01*
X121829166Y-107904819D02*
X122448213Y-107904819D01*
X134255997Y-120258333D02*
X134286950Y-120289285D01*
X134286950Y-120289285D02*
X134317902Y-120382143D01*
X134317902Y-120382143D02*
X134317902Y-120444047D01*
X134317902Y-120444047D02*
X134286950Y-120536904D01*
X134286950Y-120536904D02*
X134225045Y-120598809D01*
X134225045Y-120598809D02*
X134163140Y-120629762D01*
X134163140Y-120629762D02*
X134039330Y-120660714D01*
X134039330Y-120660714D02*
X133946473Y-120660714D01*
X133946473Y-120660714D02*
X133822664Y-120629762D01*
X133822664Y-120629762D02*
X133760759Y-120598809D01*
X133760759Y-120598809D02*
X133698854Y-120536904D01*
X133698854Y-120536904D02*
X133667902Y-120444047D01*
X133667902Y-120444047D02*
X133667902Y-120382143D01*
X133667902Y-120382143D02*
X133698854Y-120289285D01*
X133698854Y-120289285D02*
X133729807Y-120258333D01*
X134317902Y-119639285D02*
X134317902Y-120010714D01*
X134317902Y-119825000D02*
X133667902Y-119825000D01*
X133667902Y-119825000D02*
X133760759Y-119886904D01*
X133760759Y-119886904D02*
X133822664Y-119948809D01*
X133822664Y-119948809D02*
X133853616Y-120010714D01*
X117286638Y-136167857D02*
X116977114Y-136384524D01*
X117286638Y-136539286D02*
X116636638Y-136539286D01*
X116636638Y-136539286D02*
X116636638Y-136291667D01*
X116636638Y-136291667D02*
X116667590Y-136229762D01*
X116667590Y-136229762D02*
X116698543Y-136198809D01*
X116698543Y-136198809D02*
X116760447Y-136167857D01*
X116760447Y-136167857D02*
X116853305Y-136167857D01*
X116853305Y-136167857D02*
X116915209Y-136198809D01*
X116915209Y-136198809D02*
X116946162Y-136229762D01*
X116946162Y-136229762D02*
X116977114Y-136291667D01*
X116977114Y-136291667D02*
X116977114Y-136539286D01*
X117286638Y-135548809D02*
X117286638Y-135920238D01*
X117286638Y-135734524D02*
X116636638Y-135734524D01*
X116636638Y-135734524D02*
X116729495Y-135796428D01*
X116729495Y-135796428D02*
X116791400Y-135858333D01*
X116791400Y-135858333D02*
X116822352Y-135920238D01*
X116853305Y-134991666D02*
X117286638Y-134991666D01*
X116605686Y-135146428D02*
X117069971Y-135301190D01*
X117069971Y-135301190D02*
X117069971Y-134898809D01*
X113375878Y-138542902D02*
X113159211Y-138233378D01*
X113004449Y-138542902D02*
X113004449Y-137892902D01*
X113004449Y-137892902D02*
X113252068Y-137892902D01*
X113252068Y-137892902D02*
X113313973Y-137923854D01*
X113313973Y-137923854D02*
X113344926Y-137954807D01*
X113344926Y-137954807D02*
X113375878Y-138016711D01*
X113375878Y-138016711D02*
X113375878Y-138109569D01*
X113375878Y-138109569D02*
X113344926Y-138171473D01*
X113344926Y-138171473D02*
X113313973Y-138202426D01*
X113313973Y-138202426D02*
X113252068Y-138233378D01*
X113252068Y-138233378D02*
X113004449Y-138233378D01*
X113994926Y-138542902D02*
X113623497Y-138542902D01*
X113809211Y-138542902D02*
X113809211Y-137892902D01*
X113809211Y-137892902D02*
X113747307Y-137985759D01*
X113747307Y-137985759D02*
X113685402Y-138047664D01*
X113685402Y-138047664D02*
X113623497Y-138078616D01*
X114397307Y-137892902D02*
X114459212Y-137892902D01*
X114459212Y-137892902D02*
X114521116Y-137923854D01*
X114521116Y-137923854D02*
X114552069Y-137954807D01*
X114552069Y-137954807D02*
X114583021Y-138016711D01*
X114583021Y-138016711D02*
X114613974Y-138140521D01*
X114613974Y-138140521D02*
X114613974Y-138295283D01*
X114613974Y-138295283D02*
X114583021Y-138419092D01*
X114583021Y-138419092D02*
X114552069Y-138480997D01*
X114552069Y-138480997D02*
X114521116Y-138511950D01*
X114521116Y-138511950D02*
X114459212Y-138542902D01*
X114459212Y-138542902D02*
X114397307Y-138542902D01*
X114397307Y-138542902D02*
X114335402Y-138511950D01*
X114335402Y-138511950D02*
X114304450Y-138480997D01*
X114304450Y-138480997D02*
X114273497Y-138419092D01*
X114273497Y-138419092D02*
X114242545Y-138295283D01*
X114242545Y-138295283D02*
X114242545Y-138140521D01*
X114242545Y-138140521D02*
X114273497Y-138016711D01*
X114273497Y-138016711D02*
X114304450Y-137954807D01*
X114304450Y-137954807D02*
X114335402Y-137923854D01*
X114335402Y-137923854D02*
X114397307Y-137892902D01*
X106775878Y-138542902D02*
X106559211Y-138233378D01*
X106404449Y-138542902D02*
X106404449Y-137892902D01*
X106404449Y-137892902D02*
X106652068Y-137892902D01*
X106652068Y-137892902D02*
X106713973Y-137923854D01*
X106713973Y-137923854D02*
X106744926Y-137954807D01*
X106744926Y-137954807D02*
X106775878Y-138016711D01*
X106775878Y-138016711D02*
X106775878Y-138109569D01*
X106775878Y-138109569D02*
X106744926Y-138171473D01*
X106744926Y-138171473D02*
X106713973Y-138202426D01*
X106713973Y-138202426D02*
X106652068Y-138233378D01*
X106652068Y-138233378D02*
X106404449Y-138233378D01*
X107394926Y-138542902D02*
X107023497Y-138542902D01*
X107209211Y-138542902D02*
X107209211Y-137892902D01*
X107209211Y-137892902D02*
X107147307Y-137985759D01*
X107147307Y-137985759D02*
X107085402Y-138047664D01*
X107085402Y-138047664D02*
X107023497Y-138078616D01*
X107642545Y-137954807D02*
X107673497Y-137923854D01*
X107673497Y-137923854D02*
X107735402Y-137892902D01*
X107735402Y-137892902D02*
X107890164Y-137892902D01*
X107890164Y-137892902D02*
X107952069Y-137923854D01*
X107952069Y-137923854D02*
X107983021Y-137954807D01*
X107983021Y-137954807D02*
X108013974Y-138016711D01*
X108013974Y-138016711D02*
X108013974Y-138078616D01*
X108013974Y-138078616D02*
X107983021Y-138171473D01*
X107983021Y-138171473D02*
X107611593Y-138542902D01*
X107611593Y-138542902D02*
X108013974Y-138542902D01*
X107025594Y-102929819D02*
X107025594Y-103644104D01*
X107025594Y-103644104D02*
X106977975Y-103786961D01*
X106977975Y-103786961D02*
X106882737Y-103882200D01*
X106882737Y-103882200D02*
X106739880Y-103929819D01*
X106739880Y-103929819D02*
X106644642Y-103929819D01*
X108025594Y-103929819D02*
X107454166Y-103929819D01*
X107739880Y-103929819D02*
X107739880Y-102929819D01*
X107739880Y-102929819D02*
X107644642Y-103072676D01*
X107644642Y-103072676D02*
X107549404Y-103167914D01*
X107549404Y-103167914D02*
X107454166Y-103215533D01*
X114126830Y-74067857D02*
X113817306Y-74284524D01*
X114126830Y-74439286D02*
X113476830Y-74439286D01*
X113476830Y-74439286D02*
X113476830Y-74191667D01*
X113476830Y-74191667D02*
X113507782Y-74129762D01*
X113507782Y-74129762D02*
X113538735Y-74098809D01*
X113538735Y-74098809D02*
X113600639Y-74067857D01*
X113600639Y-74067857D02*
X113693497Y-74067857D01*
X113693497Y-74067857D02*
X113755401Y-74098809D01*
X113755401Y-74098809D02*
X113786354Y-74129762D01*
X113786354Y-74129762D02*
X113817306Y-74191667D01*
X113817306Y-74191667D02*
X113817306Y-74439286D01*
X113538735Y-73820238D02*
X113507782Y-73789286D01*
X113507782Y-73789286D02*
X113476830Y-73727381D01*
X113476830Y-73727381D02*
X113476830Y-73572619D01*
X113476830Y-73572619D02*
X113507782Y-73510714D01*
X113507782Y-73510714D02*
X113538735Y-73479762D01*
X113538735Y-73479762D02*
X113600639Y-73448809D01*
X113600639Y-73448809D02*
X113662544Y-73448809D01*
X113662544Y-73448809D02*
X113755401Y-73479762D01*
X113755401Y-73479762D02*
X114126830Y-73851190D01*
X114126830Y-73851190D02*
X114126830Y-73448809D01*
X113476830Y-73232142D02*
X113476830Y-72829761D01*
X113476830Y-72829761D02*
X113724449Y-73046428D01*
X113724449Y-73046428D02*
X113724449Y-72953571D01*
X113724449Y-72953571D02*
X113755401Y-72891666D01*
X113755401Y-72891666D02*
X113786354Y-72860714D01*
X113786354Y-72860714D02*
X113848258Y-72829761D01*
X113848258Y-72829761D02*
X114003020Y-72829761D01*
X114003020Y-72829761D02*
X114064925Y-72860714D01*
X114064925Y-72860714D02*
X114095878Y-72891666D01*
X114095878Y-72891666D02*
X114126830Y-72953571D01*
X114126830Y-72953571D02*
X114126830Y-73139285D01*
X114126830Y-73139285D02*
X114095878Y-73201190D01*
X114095878Y-73201190D02*
X114064925Y-73232142D01*
X120753610Y-121125747D02*
X120722658Y-121156700D01*
X120722658Y-121156700D02*
X120629800Y-121187652D01*
X120629800Y-121187652D02*
X120567896Y-121187652D01*
X120567896Y-121187652D02*
X120475039Y-121156700D01*
X120475039Y-121156700D02*
X120413134Y-121094795D01*
X120413134Y-121094795D02*
X120382181Y-121032890D01*
X120382181Y-121032890D02*
X120351229Y-120909080D01*
X120351229Y-120909080D02*
X120351229Y-120816223D01*
X120351229Y-120816223D02*
X120382181Y-120692414D01*
X120382181Y-120692414D02*
X120413134Y-120630509D01*
X120413134Y-120630509D02*
X120475039Y-120568604D01*
X120475039Y-120568604D02*
X120567896Y-120537652D01*
X120567896Y-120537652D02*
X120629800Y-120537652D01*
X120629800Y-120537652D02*
X120722658Y-120568604D01*
X120722658Y-120568604D02*
X120753610Y-120599557D01*
X121372658Y-121187652D02*
X121001229Y-121187652D01*
X121186943Y-121187652D02*
X121186943Y-120537652D01*
X121186943Y-120537652D02*
X121125039Y-120630509D01*
X121125039Y-120630509D02*
X121063134Y-120692414D01*
X121063134Y-120692414D02*
X121001229Y-120723366D01*
X121589325Y-120537652D02*
X121991706Y-120537652D01*
X121991706Y-120537652D02*
X121775039Y-120785271D01*
X121775039Y-120785271D02*
X121867896Y-120785271D01*
X121867896Y-120785271D02*
X121929801Y-120816223D01*
X121929801Y-120816223D02*
X121960753Y-120847176D01*
X121960753Y-120847176D02*
X121991706Y-120909080D01*
X121991706Y-120909080D02*
X121991706Y-121063842D01*
X121991706Y-121063842D02*
X121960753Y-121125747D01*
X121960753Y-121125747D02*
X121929801Y-121156700D01*
X121929801Y-121156700D02*
X121867896Y-121187652D01*
X121867896Y-121187652D02*
X121682182Y-121187652D01*
X121682182Y-121187652D02*
X121620277Y-121156700D01*
X121620277Y-121156700D02*
X121589325Y-121125747D01*
X116325594Y-91080997D02*
X116294642Y-91111950D01*
X116294642Y-91111950D02*
X116201784Y-91142902D01*
X116201784Y-91142902D02*
X116139880Y-91142902D01*
X116139880Y-91142902D02*
X116047023Y-91111950D01*
X116047023Y-91111950D02*
X115985118Y-91050045D01*
X115985118Y-91050045D02*
X115954165Y-90988140D01*
X115954165Y-90988140D02*
X115923213Y-90864330D01*
X115923213Y-90864330D02*
X115923213Y-90771473D01*
X115923213Y-90771473D02*
X115954165Y-90647664D01*
X115954165Y-90647664D02*
X115985118Y-90585759D01*
X115985118Y-90585759D02*
X116047023Y-90523854D01*
X116047023Y-90523854D02*
X116139880Y-90492902D01*
X116139880Y-90492902D02*
X116201784Y-90492902D01*
X116201784Y-90492902D02*
X116294642Y-90523854D01*
X116294642Y-90523854D02*
X116325594Y-90554807D01*
X116635118Y-91142902D02*
X116758927Y-91142902D01*
X116758927Y-91142902D02*
X116820832Y-91111950D01*
X116820832Y-91111950D02*
X116851784Y-91080997D01*
X116851784Y-91080997D02*
X116913689Y-90988140D01*
X116913689Y-90988140D02*
X116944642Y-90864330D01*
X116944642Y-90864330D02*
X116944642Y-90616711D01*
X116944642Y-90616711D02*
X116913689Y-90554807D01*
X116913689Y-90554807D02*
X116882737Y-90523854D01*
X116882737Y-90523854D02*
X116820832Y-90492902D01*
X116820832Y-90492902D02*
X116697023Y-90492902D01*
X116697023Y-90492902D02*
X116635118Y-90523854D01*
X116635118Y-90523854D02*
X116604165Y-90554807D01*
X116604165Y-90554807D02*
X116573213Y-90616711D01*
X116573213Y-90616711D02*
X116573213Y-90771473D01*
X116573213Y-90771473D02*
X116604165Y-90833378D01*
X116604165Y-90833378D02*
X116635118Y-90864330D01*
X116635118Y-90864330D02*
X116697023Y-90895283D01*
X116697023Y-90895283D02*
X116820832Y-90895283D01*
X116820832Y-90895283D02*
X116882737Y-90864330D01*
X116882737Y-90864330D02*
X116913689Y-90833378D01*
X116913689Y-90833378D02*
X116944642Y-90771473D01*
X127086638Y-124808333D02*
X126777114Y-125025000D01*
X127086638Y-125179762D02*
X126436638Y-125179762D01*
X126436638Y-125179762D02*
X126436638Y-124932143D01*
X126436638Y-124932143D02*
X126467590Y-124870238D01*
X126467590Y-124870238D02*
X126498543Y-124839285D01*
X126498543Y-124839285D02*
X126560447Y-124808333D01*
X126560447Y-124808333D02*
X126653305Y-124808333D01*
X126653305Y-124808333D02*
X126715209Y-124839285D01*
X126715209Y-124839285D02*
X126746162Y-124870238D01*
X126746162Y-124870238D02*
X126777114Y-124932143D01*
X126777114Y-124932143D02*
X126777114Y-125179762D01*
X126498543Y-124560714D02*
X126467590Y-124529762D01*
X126467590Y-124529762D02*
X126436638Y-124467857D01*
X126436638Y-124467857D02*
X126436638Y-124313095D01*
X126436638Y-124313095D02*
X126467590Y-124251190D01*
X126467590Y-124251190D02*
X126498543Y-124220238D01*
X126498543Y-124220238D02*
X126560447Y-124189285D01*
X126560447Y-124189285D02*
X126622352Y-124189285D01*
X126622352Y-124189285D02*
X126715209Y-124220238D01*
X126715209Y-124220238D02*
X127086638Y-124591666D01*
X127086638Y-124591666D02*
X127086638Y-124189285D01*
X121267261Y-88984580D02*
X121219642Y-89032200D01*
X121219642Y-89032200D02*
X121076785Y-89079819D01*
X121076785Y-89079819D02*
X120981547Y-89079819D01*
X120981547Y-89079819D02*
X120838690Y-89032200D01*
X120838690Y-89032200D02*
X120743452Y-88936961D01*
X120743452Y-88936961D02*
X120695833Y-88841723D01*
X120695833Y-88841723D02*
X120648214Y-88651247D01*
X120648214Y-88651247D02*
X120648214Y-88508390D01*
X120648214Y-88508390D02*
X120695833Y-88317914D01*
X120695833Y-88317914D02*
X120743452Y-88222676D01*
X120743452Y-88222676D02*
X120838690Y-88127438D01*
X120838690Y-88127438D02*
X120981547Y-88079819D01*
X120981547Y-88079819D02*
X121076785Y-88079819D01*
X121076785Y-88079819D02*
X121219642Y-88127438D01*
X121219642Y-88127438D02*
X121267261Y-88175057D01*
X121838690Y-88508390D02*
X121743452Y-88460771D01*
X121743452Y-88460771D02*
X121695833Y-88413152D01*
X121695833Y-88413152D02*
X121648214Y-88317914D01*
X121648214Y-88317914D02*
X121648214Y-88270295D01*
X121648214Y-88270295D02*
X121695833Y-88175057D01*
X121695833Y-88175057D02*
X121743452Y-88127438D01*
X121743452Y-88127438D02*
X121838690Y-88079819D01*
X121838690Y-88079819D02*
X122029166Y-88079819D01*
X122029166Y-88079819D02*
X122124404Y-88127438D01*
X122124404Y-88127438D02*
X122172023Y-88175057D01*
X122172023Y-88175057D02*
X122219642Y-88270295D01*
X122219642Y-88270295D02*
X122219642Y-88317914D01*
X122219642Y-88317914D02*
X122172023Y-88413152D01*
X122172023Y-88413152D02*
X122124404Y-88460771D01*
X122124404Y-88460771D02*
X122029166Y-88508390D01*
X122029166Y-88508390D02*
X121838690Y-88508390D01*
X121838690Y-88508390D02*
X121743452Y-88556009D01*
X121743452Y-88556009D02*
X121695833Y-88603628D01*
X121695833Y-88603628D02*
X121648214Y-88698866D01*
X121648214Y-88698866D02*
X121648214Y-88889342D01*
X121648214Y-88889342D02*
X121695833Y-88984580D01*
X121695833Y-88984580D02*
X121743452Y-89032200D01*
X121743452Y-89032200D02*
X121838690Y-89079819D01*
X121838690Y-89079819D02*
X122029166Y-89079819D01*
X122029166Y-89079819D02*
X122124404Y-89032200D01*
X122124404Y-89032200D02*
X122172023Y-88984580D01*
X122172023Y-88984580D02*
X122219642Y-88889342D01*
X122219642Y-88889342D02*
X122219642Y-88698866D01*
X122219642Y-88698866D02*
X122172023Y-88603628D01*
X122172023Y-88603628D02*
X122124404Y-88556009D01*
X122124404Y-88556009D02*
X122029166Y-88508390D01*
X128857142Y-79004819D02*
X128523809Y-78528628D01*
X128285714Y-79004819D02*
X128285714Y-78004819D01*
X128285714Y-78004819D02*
X128666666Y-78004819D01*
X128666666Y-78004819D02*
X128761904Y-78052438D01*
X128761904Y-78052438D02*
X128809523Y-78100057D01*
X128809523Y-78100057D02*
X128857142Y-78195295D01*
X128857142Y-78195295D02*
X128857142Y-78338152D01*
X128857142Y-78338152D02*
X128809523Y-78433390D01*
X128809523Y-78433390D02*
X128761904Y-78481009D01*
X128761904Y-78481009D02*
X128666666Y-78528628D01*
X128666666Y-78528628D02*
X128285714Y-78528628D01*
X129809523Y-79004819D02*
X129238095Y-79004819D01*
X129523809Y-79004819D02*
X129523809Y-78004819D01*
X129523809Y-78004819D02*
X129428571Y-78147676D01*
X129428571Y-78147676D02*
X129333333Y-78242914D01*
X129333333Y-78242914D02*
X129238095Y-78290533D01*
X130142857Y-78004819D02*
X130809523Y-78004819D01*
X130809523Y-78004819D02*
X130380952Y-79004819D01*
X118025878Y-121280997D02*
X117994926Y-121311950D01*
X117994926Y-121311950D02*
X117902068Y-121342902D01*
X117902068Y-121342902D02*
X117840164Y-121342902D01*
X117840164Y-121342902D02*
X117747307Y-121311950D01*
X117747307Y-121311950D02*
X117685402Y-121250045D01*
X117685402Y-121250045D02*
X117654449Y-121188140D01*
X117654449Y-121188140D02*
X117623497Y-121064330D01*
X117623497Y-121064330D02*
X117623497Y-120971473D01*
X117623497Y-120971473D02*
X117654449Y-120847664D01*
X117654449Y-120847664D02*
X117685402Y-120785759D01*
X117685402Y-120785759D02*
X117747307Y-120723854D01*
X117747307Y-120723854D02*
X117840164Y-120692902D01*
X117840164Y-120692902D02*
X117902068Y-120692902D01*
X117902068Y-120692902D02*
X117994926Y-120723854D01*
X117994926Y-120723854D02*
X118025878Y-120754807D01*
X118644926Y-121342902D02*
X118273497Y-121342902D01*
X118459211Y-121342902D02*
X118459211Y-120692902D01*
X118459211Y-120692902D02*
X118397307Y-120785759D01*
X118397307Y-120785759D02*
X118335402Y-120847664D01*
X118335402Y-120847664D02*
X118273497Y-120878616D01*
X119202069Y-120909569D02*
X119202069Y-121342902D01*
X119047307Y-120661950D02*
X118892545Y-121126235D01*
X118892545Y-121126235D02*
X119294926Y-121126235D01*
D11*
%TO.C,U5*%
X115940000Y-79640000D02*
X116270000Y-79400000D01*
X116270000Y-79880000D01*
X115940000Y-79640000D01*
G36*
X116270000Y-79880000D02*
G01*
X115940000Y-79640000D01*
X116270000Y-79400000D01*
X116270000Y-79880000D01*
G37*
X116110000Y-83410000D02*
X115935000Y-83410000D01*
X116110000Y-80190000D02*
X116110000Y-83410000D01*
X115935000Y-80190000D02*
X116110000Y-80190000D01*
X113065000Y-83410000D02*
X112890000Y-83410000D01*
X112890000Y-83410000D02*
X112890000Y-80190000D01*
X112890000Y-80190000D02*
X113065000Y-80190000D01*
%TO.C,U7*%
X115940000Y-53615000D02*
X120060000Y-53615000D01*
X115940000Y-53680000D02*
X115940000Y-53615000D01*
X115940000Y-62485000D02*
X115940000Y-62420000D01*
X120060000Y-53615000D02*
X120060000Y-53680000D01*
X120060000Y-62420000D02*
X120060000Y-62485000D01*
X120060000Y-62485000D02*
X115940000Y-62485000D01*
X115400000Y-53680000D02*
X115160000Y-53350000D01*
X115640000Y-53350000D01*
X115400000Y-53680000D01*
G36*
X115400000Y-53680000D02*
G01*
X115160000Y-53350000D01*
X115640000Y-53350000D01*
X115400000Y-53680000D01*
G37*
%TO.C,R32*%
X108200000Y-63800000D02*
X108200000Y-65500000D01*
X106800000Y-65500000D02*
X106800000Y-63800000D01*
%TO.C,R31*%
X106800000Y-69000000D02*
X106800000Y-67300000D01*
X108200000Y-67300000D02*
X108200000Y-69000000D01*
%TO.C,R30*%
X113450000Y-63950000D02*
X113450000Y-65650000D01*
X112050000Y-65650000D02*
X112050000Y-63950000D01*
%TO.C,R29*%
X123200000Y-63950000D02*
X123200000Y-65650000D01*
X121800000Y-65650000D02*
X121800000Y-63950000D01*
%TO.C,R28*%
X117700000Y-63950000D02*
X117700000Y-65650000D01*
X116300000Y-65650000D02*
X116300000Y-63950000D01*
%TO.C,R27*%
X114950000Y-67200000D02*
X114950000Y-68900000D01*
X113550000Y-68900000D02*
X113550000Y-67200000D01*
%TO.C,R24*%
X113450000Y-67200000D02*
X113450000Y-68900000D01*
X112050000Y-68900000D02*
X112050000Y-67200000D01*
%TO.C,R22*%
X123200000Y-67200000D02*
X123200000Y-68900000D01*
X121800000Y-68900000D02*
X121800000Y-67200000D01*
%TO.C,R21*%
X121700000Y-67200000D02*
X121700000Y-68900000D01*
X120300000Y-68900000D02*
X120300000Y-67200000D01*
%TO.C,R20*%
X119200000Y-67200000D02*
X119200000Y-68900000D01*
X117800000Y-68900000D02*
X117800000Y-67200000D01*
%TO.C,R19*%
X117700000Y-67200000D02*
X117700000Y-68900000D01*
X116300000Y-68900000D02*
X116300000Y-67200000D01*
%TO.C,C31*%
X111150000Y-84400000D02*
X111150000Y-83200000D01*
X110850000Y-83200000D02*
X110850000Y-84400000D01*
%TO.C,C30*%
X111150000Y-82900000D02*
X111150000Y-81700000D01*
X110850000Y-81700000D02*
X110850000Y-82900000D01*
%TO.C,C29*%
X119650000Y-53150000D02*
X119650000Y-51950000D01*
X119350000Y-51950000D02*
X119350000Y-53150000D01*
%TO.C,C28*%
X114850000Y-64650000D02*
X113650000Y-64650000D01*
X113650000Y-64950000D02*
X114850000Y-64950000D01*
%TO.C,C27*%
X121600000Y-64650000D02*
X120400000Y-64650000D01*
X120400000Y-64950000D02*
X121600000Y-64950000D01*
%TO.C,C26*%
X119100000Y-64650000D02*
X117900000Y-64650000D01*
X117900000Y-64950000D02*
X119100000Y-64950000D01*
%TO.C,C25*%
X116390580Y-53060000D02*
X116109420Y-53060000D01*
X116390580Y-52040000D02*
X116109420Y-52040000D01*
%TO.C,C24*%
X130600000Y-74400000D02*
X129400000Y-74400000D01*
X129400000Y-74700000D02*
X130600000Y-74700000D01*
%TO.C,C23*%
X129400000Y-71200000D02*
X130600000Y-71200000D01*
X130600000Y-70900000D02*
X129400000Y-70900000D01*
%TO.C,C22*%
X130600000Y-67500000D02*
X129400000Y-67500000D01*
X129400000Y-67800000D02*
X130600000Y-67800000D01*
%TO.C,C10*%
X113133928Y-94650000D02*
X113133928Y-95850000D01*
X113433928Y-95850000D02*
X113433928Y-94650000D01*
%TO.C,C18*%
X130900000Y-135700000D02*
X132100000Y-135700000D01*
X132100000Y-135400000D02*
X130900000Y-135400000D01*
%TO.C,R3*%
X113933928Y-88400000D02*
X113933928Y-86700000D01*
X115333928Y-86700000D02*
X115333928Y-88400000D01*
%TO.C,R18*%
X108200000Y-71450000D02*
X108200000Y-73150000D01*
X106800000Y-73150000D02*
X106800000Y-71450000D01*
%TO.C,R13*%
X127868736Y-136600000D02*
X127868736Y-134900000D01*
X129268736Y-134900000D02*
X129268736Y-136600000D01*
%TO.C,U2*%
X126080000Y-109476000D02*
X126080000Y-109746000D01*
X126080000Y-109746000D02*
X123250000Y-109746000D01*
X126080000Y-116106000D02*
X124980000Y-116106000D01*
X126080000Y-116376000D02*
X126080000Y-116106000D01*
X127580000Y-109476000D02*
X126080000Y-109476000D01*
X127580000Y-116376000D02*
X126080000Y-116376000D01*
%TO.C,C7*%
X110973928Y-98354437D02*
X110973928Y-101810000D01*
X110973928Y-101810000D02*
X112173928Y-101810000D01*
X112038365Y-97290000D02*
X110973928Y-98354437D01*
X112038365Y-97290000D02*
X112173928Y-97290000D01*
X114429491Y-97290000D02*
X114293928Y-97290000D01*
X114429491Y-97290000D02*
X115493928Y-98354437D01*
X114793928Y-96550000D02*
X114793928Y-97050000D01*
X115043928Y-96800000D02*
X114543928Y-96800000D01*
X115493928Y-98354437D02*
X115493928Y-101810000D01*
X115493928Y-101810000D02*
X114293928Y-101810000D01*
%TO.C,R4*%
X113593736Y-125575000D02*
X113593736Y-123875000D01*
X114993736Y-123875000D02*
X114993736Y-125575000D01*
%TO.C,R9*%
X129281236Y-137525000D02*
X130981236Y-137525000D01*
X130981236Y-138925000D02*
X129281236Y-138925000D01*
%TO.C,R25*%
X115183928Y-77150000D02*
X115183928Y-75450000D01*
X116583928Y-75450000D02*
X116583928Y-77150000D01*
%TO.C,J2*%
X131753928Y-58730000D02*
X131753928Y-76570000D01*
X131753928Y-58730000D02*
X134413928Y-58730000D01*
X131753928Y-76570000D02*
X134413928Y-76570000D01*
X133083928Y-56130000D02*
X134413928Y-56130000D01*
X134413928Y-56130000D02*
X134413928Y-57460000D01*
X134413928Y-58730000D02*
X134413928Y-76570000D01*
%TO.C,R26*%
X111183928Y-77150000D02*
X111183928Y-75450000D01*
X112583928Y-75450000D02*
X112583928Y-77150000D01*
%TO.C,D1*%
X111648928Y-92425000D02*
X111648928Y-94125000D01*
X111648928Y-92425000D02*
X114308928Y-92425000D01*
X111648928Y-94125000D02*
X114308928Y-94125000D01*
%TO.C,R1*%
X109933928Y-88400000D02*
X109933928Y-86700000D01*
X111333928Y-86700000D02*
X111333928Y-88400000D01*
%TO.C,R8*%
X124868736Y-136525000D02*
X124868736Y-134825000D01*
X126268736Y-134825000D02*
X126268736Y-136525000D01*
%TO.C,U4*%
X116133928Y-93275000D02*
X120133928Y-93275000D01*
X120133928Y-93275000D02*
X120133928Y-94475000D01*
X120133928Y-96875000D02*
X120133928Y-98075000D01*
X120133928Y-98075000D02*
X117433928Y-98075000D01*
%TO.C,D7*%
X123358928Y-104660000D02*
X123358928Y-102000000D01*
X123358928Y-104660000D02*
X125058928Y-104660000D01*
X125058928Y-104660000D02*
X125058928Y-102000000D01*
%TO.C,C15*%
X132350000Y-77450000D02*
X132350000Y-78650000D01*
X132650000Y-78650000D02*
X132650000Y-77450000D01*
%TO.C,U3*%
X126173928Y-79815000D02*
X127693928Y-79815000D01*
X126173928Y-80815000D02*
X126173928Y-79815000D01*
X126173928Y-82935000D02*
X126173928Y-81935000D01*
X127693928Y-79815000D02*
X127693928Y-79865000D01*
X127693928Y-80985000D02*
X127693928Y-81765000D01*
X127693928Y-82885000D02*
X127693928Y-82935000D01*
X127693928Y-82935000D02*
X126173928Y-82935000D01*
X128233928Y-81755000D02*
X127993928Y-81425000D01*
X128473928Y-81425000D01*
X128233928Y-81755000D01*
G36*
X128233928Y-81755000D02*
G01*
X127993928Y-81425000D01*
X128473928Y-81425000D01*
X128233928Y-81755000D01*
G37*
%TO.C,U6*%
X116898928Y-106290000D02*
X118418928Y-106290000D01*
X116898928Y-106340000D02*
X116898928Y-106290000D01*
X116898928Y-108240000D02*
X116898928Y-107460000D01*
X116898928Y-109410000D02*
X116898928Y-109360000D01*
X118418928Y-106290000D02*
X118418928Y-107290000D01*
X118418928Y-108410000D02*
X118418928Y-109410000D01*
X118418928Y-109410000D02*
X116898928Y-109410000D01*
X116358928Y-107470000D02*
X116598928Y-107800000D01*
X116118928Y-107800000D01*
X116358928Y-107470000D01*
G36*
X116598928Y-107800000D02*
G01*
X116118928Y-107800000D01*
X116358928Y-107470000D01*
X116598928Y-107800000D01*
G37*
%TO.C,C2*%
X118173928Y-100265000D02*
X119373928Y-100265000D01*
X118173928Y-103720563D02*
X118173928Y-100265000D01*
X118623928Y-105275000D02*
X119123928Y-105275000D01*
X118873928Y-105525000D02*
X118873928Y-105025000D01*
X119238365Y-104785000D02*
X118173928Y-103720563D01*
X119238365Y-104785000D02*
X119373928Y-104785000D01*
X121629491Y-104785000D02*
X121493928Y-104785000D01*
X121629491Y-104785000D02*
X122693928Y-103720563D01*
X122693928Y-100265000D02*
X121493928Y-100265000D01*
X122693928Y-103720563D02*
X122693928Y-100265000D01*
%TO.C,C21*%
X122900000Y-135950000D02*
X124100000Y-135950000D01*
X124100000Y-135650000D02*
X122900000Y-135650000D01*
%TO.C,R11*%
X122481236Y-137525000D02*
X124181236Y-137525000D01*
X124181236Y-138925000D02*
X122481236Y-138925000D01*
%TO.C,R5*%
X111933928Y-88400000D02*
X111933928Y-86700000D01*
X113333928Y-86700000D02*
X113333928Y-88400000D01*
%TO.C,R7*%
X115933928Y-88400000D02*
X115933928Y-86700000D01*
X117333928Y-86700000D02*
X117333928Y-88400000D01*
%TO.C,C17*%
X110948928Y-104190000D02*
X112148928Y-104190000D01*
X110948928Y-107645563D02*
X110948928Y-104190000D01*
X111398928Y-109200000D02*
X111898928Y-109200000D01*
X111648928Y-109450000D02*
X111648928Y-108950000D01*
X112013365Y-108710000D02*
X110948928Y-107645563D01*
X112013365Y-108710000D02*
X112148928Y-108710000D01*
X114404491Y-108710000D02*
X114268928Y-108710000D01*
X114404491Y-108710000D02*
X115468928Y-107645563D01*
X115468928Y-104190000D02*
X114268928Y-104190000D01*
X115468928Y-107645563D02*
X115468928Y-104190000D01*
%TO.C,C16*%
X120233928Y-108675000D02*
X120233928Y-109875000D01*
X120533928Y-109875000D02*
X120533928Y-108675000D01*
%TO.C,C4*%
X124550000Y-118690000D02*
X125050000Y-118690000D01*
X124800000Y-118440000D02*
X124800000Y-118940000D01*
X125290000Y-119054437D02*
X125290000Y-119190000D01*
X125290000Y-119054437D02*
X126354437Y-117990000D01*
X125290000Y-121445563D02*
X125290000Y-121310000D01*
X125290000Y-121445563D02*
X126354437Y-122510000D01*
X126354437Y-117990000D02*
X129810000Y-117990000D01*
X126354437Y-122510000D02*
X129810000Y-122510000D01*
X129810000Y-117990000D02*
X129810000Y-119190000D01*
X129810000Y-122510000D02*
X129810000Y-121310000D01*
%TO.C,C6*%
X117733928Y-78950000D02*
X117733928Y-80150000D01*
X118033928Y-80150000D02*
X118033928Y-78950000D01*
%TO.C,FB1*%
X123748928Y-99075378D02*
X123748928Y-99874622D01*
X124868928Y-99075378D02*
X124868928Y-99874622D01*
%TO.C,C3*%
X116458928Y-102475000D02*
X117658928Y-102475000D01*
X117658928Y-102175000D02*
X116458928Y-102175000D01*
%TO.C,R6*%
X114968736Y-136275000D02*
X114968736Y-134575000D01*
X116368736Y-134575000D02*
X116368736Y-136275000D01*
%TO.C,C11*%
X131108928Y-81600000D02*
X131108928Y-82800000D01*
X131408928Y-82800000D02*
X131408928Y-81600000D01*
%TO.C,U1*%
X115358736Y-126460000D02*
X115423736Y-126460000D01*
X115358736Y-130580000D02*
X115358736Y-126460000D01*
X115423736Y-130580000D02*
X115358736Y-130580000D01*
X124163736Y-126460000D02*
X124228736Y-126460000D01*
X124228736Y-126460000D02*
X124228736Y-130580000D01*
X124228736Y-130580000D02*
X124163736Y-130580000D01*
X124163736Y-125920000D02*
X124493736Y-125680000D01*
X124493736Y-126160000D01*
X124163736Y-125920000D01*
G36*
X124493736Y-126160000D02*
G01*
X124163736Y-125920000D01*
X124493736Y-125680000D01*
X124493736Y-126160000D01*
G37*
%TO.C,C12*%
X127483928Y-83965000D02*
X127983928Y-83965000D01*
X127733928Y-83715000D02*
X127733928Y-84215000D01*
X128223928Y-84329437D02*
X128223928Y-84465000D01*
X128223928Y-84329437D02*
X129288365Y-83265000D01*
X128223928Y-86720563D02*
X128223928Y-86585000D01*
X128223928Y-86720563D02*
X129288365Y-87785000D01*
X129288365Y-83265000D02*
X132743928Y-83265000D01*
X129288365Y-87785000D02*
X132743928Y-87785000D01*
X132743928Y-83265000D02*
X132743928Y-84465000D01*
X132743928Y-87785000D02*
X132743928Y-86585000D01*
%TO.C,C19*%
X113400000Y-137450000D02*
X114600000Y-137450000D01*
X114600000Y-137150000D02*
X113400000Y-137150000D01*
%TO.C,C5*%
D12*
X117629928Y-82108800D02*
X117629928Y-80991200D01*
X118137928Y-82108800D02*
X118137928Y-80991200D01*
%TO.C,R15*%
D11*
X121193736Y-136625000D02*
X121193736Y-134925000D01*
X122593736Y-134925000D02*
X122593736Y-136625000D01*
%TO.C,R16*%
X106550000Y-136475000D02*
X106550000Y-134775000D01*
X107950000Y-134775000D02*
X107950000Y-136475000D01*
%TO.C,D6*%
X123358928Y-94290000D02*
X123358928Y-96950000D01*
X125058928Y-94290000D02*
X123358928Y-94290000D01*
X125058928Y-94290000D02*
X125058928Y-96950000D01*
%TO.C,C20*%
X109600000Y-135950000D02*
X109600000Y-137150000D01*
X109900000Y-137150000D02*
X109900000Y-135950000D01*
%TO.C,FB2*%
X123808550Y-105340000D02*
X123009306Y-105340000D01*
X123808550Y-106460000D02*
X123009306Y-106460000D01*
%TO.C,C1*%
X132125000Y-120300000D02*
X133325000Y-120300000D01*
X133325000Y-120000000D02*
X132125000Y-120000000D01*
%TO.C,R14*%
X117518736Y-136600000D02*
X117518736Y-134900000D01*
X118918736Y-134900000D02*
X118918736Y-136600000D01*
%TO.C,R10*%
X115656236Y-137525000D02*
X117356236Y-137525000D01*
X117356236Y-138925000D02*
X115656236Y-138925000D01*
%TO.C,R12*%
X108881236Y-137525000D02*
X110581236Y-137525000D01*
X110581236Y-138925000D02*
X108881236Y-138925000D01*
%TO.C,J1*%
X105953928Y-84590000D02*
X105953928Y-102430000D01*
X105953928Y-84590000D02*
X108613928Y-84590000D01*
X105953928Y-102430000D02*
X108613928Y-102430000D01*
X107283928Y-81990000D02*
X108613928Y-81990000D01*
X108613928Y-81990000D02*
X108613928Y-83320000D01*
X108613928Y-84590000D02*
X108613928Y-102430000D01*
%TO.C,R23*%
X113183928Y-77150000D02*
X113183928Y-75450000D01*
X114583928Y-75450000D02*
X114583928Y-77150000D01*
%TO.C,C13*%
D12*
X121614736Y-122833800D02*
X121614736Y-121716200D01*
X122122736Y-122833800D02*
X122122736Y-121716200D01*
%TO.C,C9*%
D11*
X116308928Y-91475000D02*
X116308928Y-92675000D01*
X116608928Y-92675000D02*
X116608928Y-91475000D01*
%TO.C,R2*%
X124743736Y-125550000D02*
X124743736Y-123850000D01*
X126143736Y-123850000D02*
X126143736Y-125550000D01*
%TO.C,C8*%
X121298928Y-83165000D02*
X121298928Y-84365000D01*
X121298928Y-87685000D02*
X121298928Y-86485000D01*
X124754491Y-83165000D02*
X121298928Y-83165000D01*
X124754491Y-87685000D02*
X121298928Y-87685000D01*
X125818928Y-84229437D02*
X124754491Y-83165000D01*
X125818928Y-84229437D02*
X125818928Y-84365000D01*
X125818928Y-86620563D02*
X124754491Y-87685000D01*
X125818928Y-86620563D02*
X125818928Y-86485000D01*
X126308928Y-87235000D02*
X126308928Y-86735000D01*
X126558928Y-86985000D02*
X126058928Y-86985000D01*
%TO.C,R17*%
X131442506Y-79215000D02*
X130925350Y-79215000D01*
X131442506Y-80635000D02*
X130925350Y-80635000D01*
%TO.C,C14*%
X118293736Y-121675000D02*
X118293736Y-122875000D01*
X118593736Y-122875000D02*
X118593736Y-121675000D01*
%TD*%
%LPC*%
D13*
%TO.C,U5*%
X115500000Y-83900000D03*
X115000000Y-83900000D03*
X114500000Y-83900000D03*
X114000000Y-83900000D03*
X113500000Y-83900000D03*
X113500000Y-79700000D03*
X114000000Y-79700000D03*
X114500000Y-79700000D03*
X115000000Y-79700000D03*
X115500000Y-79700000D03*
%TD*%
D14*
%TO.C,U7*%
X115525000Y-54240000D03*
X115525000Y-55510000D03*
X115525000Y-56780000D03*
X115525000Y-58050000D03*
X115525000Y-59320000D03*
X115525000Y-60590000D03*
X115525000Y-61860000D03*
X120475000Y-61860000D03*
X120475000Y-60590000D03*
X120475000Y-59320000D03*
X120475000Y-58050000D03*
X120475000Y-56780000D03*
X120475000Y-55510000D03*
X120475000Y-54240000D03*
%TD*%
D15*
%TO.C,R32*%
X107500000Y-65500000D03*
X107500000Y-63800000D03*
%TD*%
%TO.C,R31*%
X107500000Y-67300000D03*
X107500000Y-69000000D03*
%TD*%
%TO.C,R30*%
X112750000Y-65650000D03*
X112750000Y-63950000D03*
%TD*%
%TO.C,R29*%
X122500000Y-65650000D03*
X122500000Y-63950000D03*
%TD*%
%TO.C,R28*%
X117000000Y-65650000D03*
X117000000Y-63950000D03*
%TD*%
%TO.C,R27*%
X114250000Y-68900000D03*
X114250000Y-67200000D03*
%TD*%
%TO.C,R24*%
X112750000Y-68900000D03*
X112750000Y-67200000D03*
%TD*%
%TO.C,R22*%
X122500000Y-68900000D03*
X122500000Y-67200000D03*
%TD*%
%TO.C,R21*%
X121000000Y-68900000D03*
X121000000Y-67200000D03*
%TD*%
%TO.C,R20*%
X118500000Y-68900000D03*
X118500000Y-67200000D03*
%TD*%
%TO.C,R19*%
X117000000Y-68900000D03*
X117000000Y-67200000D03*
%TD*%
%TO.C,C31*%
X110150000Y-83800000D03*
X111850000Y-83800000D03*
%TD*%
%TO.C,C30*%
X110150000Y-82300000D03*
X111850000Y-82300000D03*
%TD*%
%TO.C,C29*%
X118650000Y-52550000D03*
X120350000Y-52550000D03*
%TD*%
%TO.C,C28*%
X114250000Y-65650000D03*
X114250000Y-63950000D03*
%TD*%
%TO.C,C27*%
X121000000Y-65650000D03*
X121000000Y-63950000D03*
%TD*%
%TO.C,C26*%
X118500000Y-65650000D03*
X118500000Y-63950000D03*
%TD*%
D16*
%TO.C,C25*%
X117025000Y-52550000D03*
X115475000Y-52550000D03*
%TD*%
D15*
%TO.C,C24*%
X130000000Y-75400000D03*
X130000000Y-73700000D03*
%TD*%
%TO.C,C23*%
X130000000Y-70200000D03*
X130000000Y-71900000D03*
%TD*%
%TO.C,C22*%
X130000000Y-68500000D03*
X130000000Y-66800000D03*
%TD*%
%TO.C,C10*%
X114133928Y-95250000D03*
X112433928Y-95250000D03*
%TD*%
%TO.C,C18*%
X131500000Y-136400000D03*
X131500000Y-134700000D03*
%TD*%
%TO.C,R3*%
X114633928Y-86700000D03*
X114633928Y-88400000D03*
%TD*%
%TO.C,R18*%
X107500000Y-71450000D03*
X107500000Y-73150000D03*
%TD*%
%TO.C,R13*%
X128568736Y-134900000D03*
X128568736Y-136600000D03*
%TD*%
D17*
%TO.C,U2*%
X124350000Y-110646000D03*
D18*
X130650000Y-112926000D03*
D17*
X124350000Y-115206000D03*
%TD*%
D19*
%TO.C,C7*%
X113233928Y-97750000D03*
X113233928Y-101350000D03*
%TD*%
D15*
%TO.C,R4*%
X114293736Y-125575000D03*
X114293736Y-123875000D03*
%TD*%
%TO.C,R9*%
X130981236Y-138225000D03*
X129281236Y-138225000D03*
%TD*%
%TO.C,R25*%
X115883928Y-77150000D03*
X115883928Y-75450000D03*
%TD*%
D20*
%TO.C,J2*%
X133083928Y-57460000D03*
D21*
X133083928Y-60000000D03*
X133083928Y-62540000D03*
X133083928Y-65080000D03*
X133083928Y-67620000D03*
X133083928Y-70160000D03*
X133083928Y-72700000D03*
X133083928Y-75240000D03*
%TD*%
D15*
%TO.C,R26*%
X111883928Y-75450000D03*
X111883928Y-77150000D03*
%TD*%
D22*
%TO.C,D1*%
X112208928Y-93275000D03*
X114308928Y-93275000D03*
%TD*%
D15*
%TO.C,R1*%
X110633928Y-86700000D03*
X110633928Y-88400000D03*
%TD*%
%TO.C,R8*%
X125568736Y-136525000D03*
X125568736Y-134825000D03*
%TD*%
D23*
%TO.C,U4*%
X116873928Y-94175000D03*
D24*
X117020428Y-95675000D03*
D25*
X118277728Y-95675000D03*
D26*
X119687428Y-95675000D03*
D27*
X121020928Y-95675000D03*
D23*
X116873928Y-97175000D03*
%TD*%
D28*
%TO.C,D7*%
X124208928Y-104100000D03*
X124208928Y-102000000D03*
%TD*%
D15*
%TO.C,C15*%
X131650000Y-78050000D03*
X133350000Y-78050000D03*
%TD*%
D29*
%TO.C,U3*%
X127871428Y-82325000D03*
X127871428Y-80425000D03*
X125996428Y-81375000D03*
%TD*%
D30*
%TO.C,U6*%
X116721428Y-106900000D03*
X116721428Y-108800000D03*
X118596428Y-107850000D03*
%TD*%
D31*
%TO.C,C2*%
X120433928Y-104325000D03*
X120433928Y-100725000D03*
%TD*%
D15*
%TO.C,C21*%
X123500000Y-136650000D03*
X123500000Y-134950000D03*
%TD*%
%TO.C,R11*%
X124181236Y-138225000D03*
X122481236Y-138225000D03*
%TD*%
%TO.C,R5*%
X112633928Y-86700000D03*
X112633928Y-88400000D03*
%TD*%
%TO.C,R7*%
X116633928Y-86700000D03*
X116633928Y-88400000D03*
%TD*%
D31*
%TO.C,C17*%
X113208928Y-108250000D03*
X113208928Y-104650000D03*
%TD*%
D15*
%TO.C,C16*%
X121233928Y-109275000D03*
X119533928Y-109275000D03*
%TD*%
D32*
%TO.C,C4*%
X125750000Y-120250000D03*
X129350000Y-120250000D03*
%TD*%
D15*
%TO.C,C6*%
X117033928Y-79550000D03*
X118733928Y-79550000D03*
%TD*%
D33*
%TO.C,FB1*%
X124308928Y-98412500D03*
X124308928Y-100537500D03*
%TD*%
D15*
%TO.C,C3*%
X117058928Y-103175000D03*
X117058928Y-101475000D03*
%TD*%
%TO.C,R6*%
X115668736Y-136275000D03*
X115668736Y-134575000D03*
%TD*%
%TO.C,C11*%
X132108928Y-82200000D03*
X130408928Y-82200000D03*
%TD*%
D34*
%TO.C,U1*%
X123603736Y-126045000D03*
X122333736Y-126045000D03*
X121063736Y-126045000D03*
X119793736Y-126045000D03*
X118523736Y-126045000D03*
X117253736Y-126045000D03*
X115983736Y-126045000D03*
X115983736Y-130995000D03*
X117253736Y-130995000D03*
X118523736Y-130995000D03*
X119793736Y-130995000D03*
X121063736Y-130995000D03*
X122333736Y-130995000D03*
X123603736Y-130995000D03*
%TD*%
D32*
%TO.C,C12*%
X128683928Y-85525000D03*
X132283928Y-85525000D03*
%TD*%
D15*
%TO.C,C19*%
X114000000Y-138150000D03*
X114000000Y-136450000D03*
%TD*%
D35*
%TO.C,C5*%
X116933928Y-81550000D03*
X118833928Y-81550000D03*
%TD*%
D15*
%TO.C,R15*%
X121893736Y-134925000D03*
X121893736Y-136625000D03*
%TD*%
%TO.C,R16*%
X107250000Y-134775000D03*
X107250000Y-136475000D03*
%TD*%
D36*
%TO.C,D6*%
X124208928Y-94850000D03*
X124208928Y-96950000D03*
%TD*%
D15*
%TO.C,C20*%
X110600000Y-136550000D03*
X108900000Y-136550000D03*
%TD*%
D37*
%TO.C,FB2*%
X124471428Y-105900000D03*
X122346428Y-105900000D03*
%TD*%
D15*
%TO.C,C1*%
X132725000Y-119300000D03*
X132725000Y-121000000D03*
%TD*%
%TO.C,R14*%
X118218736Y-134900000D03*
X118218736Y-136600000D03*
%TD*%
%TO.C,R10*%
X115656236Y-138225000D03*
X117356236Y-138225000D03*
%TD*%
%TO.C,R12*%
X110581236Y-138225000D03*
X108881236Y-138225000D03*
%TD*%
D20*
%TO.C,J1*%
X107283928Y-83320000D03*
D21*
X107283928Y-85860000D03*
X107283928Y-88400000D03*
X107283928Y-90940000D03*
X107283928Y-93480000D03*
X107283928Y-96020000D03*
X107283928Y-98560000D03*
X107283928Y-101100000D03*
%TD*%
D15*
%TO.C,R23*%
X113883928Y-77150000D03*
X113883928Y-75450000D03*
%TD*%
D35*
%TO.C,C13*%
X120918736Y-122275000D03*
X122818736Y-122275000D03*
%TD*%
D15*
%TO.C,C9*%
X117308928Y-92075000D03*
X115608928Y-92075000D03*
%TD*%
%TO.C,R2*%
X125443736Y-125550000D03*
X125443736Y-123850000D03*
%TD*%
D38*
%TO.C,C8*%
X125358928Y-85425000D03*
X121758928Y-85425000D03*
%TD*%
D39*
%TO.C,R17*%
X132121428Y-79925000D03*
X130246428Y-79925000D03*
%TD*%
D15*
%TO.C,C14*%
X119293736Y-122275000D03*
X117593736Y-122275000D03*
%TD*%
D40*
%TO.C,RV1*%
X130283928Y-146700000D03*
D41*
X130283928Y-144160000D03*
X130283928Y-141620000D03*
%TD*%
D20*
%TO.C,J6*%
X110148928Y-56559750D03*
D21*
X110148928Y-59099750D03*
X110148928Y-61639750D03*
X110148928Y-64179750D03*
X110148928Y-66719750D03*
X110148928Y-69259750D03*
X110148928Y-71799750D03*
%TD*%
D42*
%TO.C,H2*%
X119883928Y-113150000D03*
%TD*%
D43*
%TO.C,J10*%
X130998928Y-92690000D03*
X128458928Y-92690000D03*
X130998928Y-95230000D03*
X128458928Y-95230000D03*
X130998928Y-97770000D03*
X128458928Y-97770000D03*
X130998928Y-100310000D03*
X128458928Y-100310000D03*
X130998928Y-102850000D03*
X128458928Y-102850000D03*
%TD*%
D40*
%TO.C,RV2*%
X116658928Y-146700000D03*
D41*
X116658928Y-144160000D03*
X116658928Y-141620000D03*
%TD*%
D40*
%TO.C,RV4*%
X109883928Y-146700000D03*
D41*
X109883928Y-144160000D03*
X109883928Y-141620000D03*
%TD*%
D40*
%TO.C,RV3*%
X123483928Y-146700000D03*
D41*
X123483928Y-144160000D03*
X123483928Y-141620000D03*
%TD*%
D20*
%TO.C,J7*%
X125056753Y-71699750D03*
D21*
X125056753Y-69159750D03*
X125056753Y-66619750D03*
X125056753Y-64079750D03*
X125056753Y-61539750D03*
X125056753Y-58999750D03*
X125056753Y-56459750D03*
%TD*%
D42*
%TO.C,H1*%
X119883928Y-75050000D03*
%TD*%
D20*
%TO.C,J9*%
X111550000Y-113910000D03*
D21*
X109010000Y-113910000D03*
X111550000Y-116450000D03*
X109010000Y-116450000D03*
X111550000Y-118990000D03*
X109010000Y-118990000D03*
X111550000Y-121530000D03*
X109010000Y-121530000D03*
%TD*%
%LPD*%
M02*
