M48
; DRILL file KiCad 10.0.5 date 2026-09-11T17:02:31
; FORMAT={-:-/ absolute / inch / decimal}
; #@! TF.CreationDate,2026-09-11T17:02:31-03:00
; #@! TF.GenerationSoftware,Kicad,Pcbnew,10.0.5
; #@! TF.FileFunction,Plated,1,2,PTH
FMAT,2
INCH
; #@! TA.AperFunction,Plated,PTH,ViaDrill
T1C0.0118
; #@! TA.AperFunction,Plated,PTH,ComponentDrill
T2C0.0315
; #@! TA.AperFunction,Plated,PTH,ComponentDrill
T3C0.0350
; #@! TA.AperFunction,Plated,PTH,ComponentDrill
T4C0.0354
; #@! TA.AperFunction,Plated,PTH,ComponentDrill
T5C0.0394
; #@! TA.AperFunction,Plated,PTH,ComponentDrill
T6C0.0450
; #@! TA.AperFunction,Plated,PTH,ComponentDrill
T7C0.0591
%
G90
G05
T1
X6.8996Y-3.2972
X6.939Y-4.7441
X6.9646Y-3.7205
X7.0027Y-3.981
X7.0177Y-3.7205
X7.048Y-4.0248
X7.0571Y-4.124
X7.0571Y-4.4291
X7.2417Y-3.0217
X7.3744Y-3.5902
X7.3917Y-4.3012
X7.4311Y-2.4114
X7.4508Y-2.5689
X7.4665Y-3.7445
X7.4775Y-2.3934
X7.4902Y-2.7657
X7.5008Y-5.5111
X7.5139Y-3.8346
X7.628Y-2.9587
X7.685Y-2.9823
X7.7461Y-5.315
X7.7559Y-3.6713
X7.7559Y-4.3307
X7.7972Y-5.4134
X7.815Y-3.9236
X7.8189Y-3.5531
X7.8445Y-4.4587
X7.8642Y-2.8937
X7.8839Y-5.1969
X7.9429Y-5.0197
T2
X6.9268Y-5.0984
X6.9343Y-5.6496
X7.0276Y-2.4386
X7.0276Y-2.7386
X7.0276Y-2.8224
X7.0276Y-3.1224
X7.0571Y-3.5114
X7.0571Y-3.8114
X7.0571Y-3.8953
X7.0571Y-4.1953
X7.1431Y-2.4902
X7.1614Y-2.6161
X7.1614Y-2.9161
X7.2268Y-5.0984
X7.2343Y-5.6496
X7.2614Y-2.6161
X7.2614Y-2.9161
X7.3431Y-2.4902
X7.3614Y-2.6161
X7.3614Y-2.9161
X7.4409Y-2.4902
X7.4614Y-2.6161
X7.4614Y-2.9161
X7.5614Y-2.6161
X7.5614Y-2.9161
X7.6059Y-5.0886
X7.6059Y-5.6496
X7.6378Y-2.4902
X7.6614Y-2.6161
X7.6614Y-2.9161
X7.7461Y-3.5114
X7.7461Y-3.8114
X7.7461Y-3.8976
X7.7461Y-4.1976
X7.7614Y-2.6161
X7.7614Y-2.9161
X7.8839Y-2.4386
X7.8839Y-2.7386
X7.8839Y-2.8224
X7.8839Y-3.1224
X7.9059Y-5.0886
X7.9059Y-5.6496
T3
X7.3391Y-4.8543
X7.3391Y-5.4173
X7.3391Y-5.9764
X7.4853Y-4.8543
X7.4853Y-5.4173
X7.4853Y-5.9764
X7.6225Y-4.3031
T4
X7.0714Y-5.1827
X7.0714Y-5.7421
X7.1714Y-5.1827
X7.1714Y-5.7421
X7.6528Y-5.1827
X7.6528Y-5.7421
X7.7528Y-5.1827
X7.7528Y-5.7421
T5
X6.8976Y-2.5079
X6.8976Y-2.6079
X6.8976Y-2.7079
X6.8976Y-2.8079
X6.8976Y-2.9079
X6.8976Y-3.0079
X6.8976Y-3.1079
X6.8976Y-3.2079
X7.2545Y-2.2992
X7.3065Y-3.4016
X7.3065Y-3.9724
X7.3545Y-2.2992
X7.4049Y-3.9724
X7.4545Y-2.2992
X7.5033Y-3.4016
X7.5033Y-3.9724
X7.5545Y-2.2992
X7.9094Y-3.5236
X7.9094Y-3.6236
X7.9094Y-3.7236
X7.9094Y-3.8236
X7.9094Y-3.9236
X7.9094Y-4.0236
X7.9094Y-4.1236
X7.9094Y-4.2236
T6
X6.9071Y-4.8543
X6.9071Y-5.4173
X6.9071Y-5.9764
X7.1905Y-4.3031
X7.2441Y-4.8543
X7.2441Y-5.4173
X7.2441Y-5.9764
X7.5275Y-4.3031
X7.5803Y-4.8543
X7.5803Y-5.4173
X7.5803Y-5.9764
X7.9173Y-4.8543
X7.9173Y-5.4173
X7.9173Y-5.9764
T7
G00X7.1844Y-3.7028
M15
G01X7.1844Y-3.6516
M16
G05
G00X7.6254Y-3.7028
M15
G01X7.6254Y-3.6516
M16
G05
M30
