%TF.GenerationSoftware,KiCad,Pcbnew,10.0.5*%
%TF.CreationDate,2026-09-11T17:02:31-03:00*%
%TF.ProjectId,ControlPCB_SMD_V3.1,436f6e74-726f-46c5-9043-425f534d445f,rev?*%
%TF.SameCoordinates,Original*%
%TF.FileFunction,Legend,Top*%
%TF.FilePolarity,Positive*%
%FSLAX46Y46*%
G04 Gerber Fmt 4.6, Leading zero omitted, Abs format (unit mm)*
G04 Created by KiCad (PCBNEW 10.0.5) date 2026-09-11 17:02:31*
%MOMM*%
%LPD*%
G01*
G04 APERTURE LIST*
%ADD10C,0.203000*%
%ADD11C,0.150000*%
%ADD12C,0.120000*%
%ADD13C,0.127000*%
%ADD14C,1.930400*%
%ADD15R,1.800000X1.800000*%
%ADD16C,1.800000*%
%ADD17C,2.200000*%
%ADD18R,1.700000X1.700000*%
%ADD19O,1.700000X1.700000*%
%ADD20R,2.000000X2.000000*%
%ADD21C,2.000000*%
%ADD22R,2.000000X3.200000*%
%ADD23C,1.700000*%
%ADD24C,1.600000*%
%ADD25R,1.600000X1.600000*%
%ADD26O,1.600000X1.600000*%
G04 APERTURE END LIST*
D10*
X175591000Y-57200000D02*
X175591000Y-84251000D01*
X175591000Y-84251000D02*
X181115000Y-84251000D01*
X175718000Y-62280000D02*
X200483000Y-62280000D01*
X175718000Y-78917000D02*
X175718000Y-62280000D01*
X176734000Y-63423000D02*
X199467000Y-63423000D01*
X176734000Y-74599000D02*
X176734000Y-63423000D01*
X181115000Y-81711000D02*
X183909000Y-81711000D01*
X181115000Y-84251000D02*
X181115000Y-81711000D01*
X183909000Y-84251000D02*
X181115000Y-82600000D01*
X183909000Y-84251000D02*
X183909000Y-78917000D01*
X192291000Y-78917000D02*
X192291000Y-84251000D01*
X192291000Y-81711000D02*
X195085000Y-81711000D01*
X192291000Y-84251000D02*
X183909000Y-84251000D01*
X192291000Y-84251000D02*
X195085000Y-82605000D01*
X195085000Y-81711000D02*
X195085000Y-84251000D01*
X195085000Y-84251000D02*
X200610000Y-84251000D01*
X199467000Y-63423000D02*
X199467000Y-74599000D01*
X199467000Y-74599000D02*
X176734000Y-74599000D01*
X200483000Y-62280000D02*
X200483000Y-78917000D01*
X200483000Y-78917000D02*
X175718000Y-78917000D01*
X200610000Y-57200000D02*
X175591000Y-57200000D01*
X200610000Y-84251000D02*
X200610000Y-57200000D01*
X183582980Y-59343553D02*
X183118409Y-59343553D01*
X183350694Y-59343553D02*
X183350694Y-58530553D01*
X183350694Y-58530553D02*
X183273266Y-58646696D01*
X183273266Y-58646696D02*
X183195837Y-58724124D01*
X183195837Y-58724124D02*
X183118409Y-58762839D01*
X186013409Y-69801839D02*
X186129552Y-69840553D01*
X186129552Y-69840553D02*
X186323123Y-69840553D01*
X186323123Y-69840553D02*
X186400552Y-69801839D01*
X186400552Y-69801839D02*
X186439266Y-69763124D01*
X186439266Y-69763124D02*
X186477980Y-69685696D01*
X186477980Y-69685696D02*
X186477980Y-69608267D01*
X186477980Y-69608267D02*
X186439266Y-69530839D01*
X186439266Y-69530839D02*
X186400552Y-69492124D01*
X186400552Y-69492124D02*
X186323123Y-69453410D01*
X186323123Y-69453410D02*
X186168266Y-69414696D01*
X186168266Y-69414696D02*
X186090837Y-69375981D01*
X186090837Y-69375981D02*
X186052123Y-69337267D01*
X186052123Y-69337267D02*
X186013409Y-69259839D01*
X186013409Y-69259839D02*
X186013409Y-69182410D01*
X186013409Y-69182410D02*
X186052123Y-69104981D01*
X186052123Y-69104981D02*
X186090837Y-69066267D01*
X186090837Y-69066267D02*
X186168266Y-69027553D01*
X186168266Y-69027553D02*
X186361837Y-69027553D01*
X186361837Y-69027553D02*
X186477980Y-69066267D01*
X186787695Y-69801839D02*
X186903838Y-69840553D01*
X186903838Y-69840553D02*
X187097409Y-69840553D01*
X187097409Y-69840553D02*
X187174838Y-69801839D01*
X187174838Y-69801839D02*
X187213552Y-69763124D01*
X187213552Y-69763124D02*
X187252266Y-69685696D01*
X187252266Y-69685696D02*
X187252266Y-69608267D01*
X187252266Y-69608267D02*
X187213552Y-69530839D01*
X187213552Y-69530839D02*
X187174838Y-69492124D01*
X187174838Y-69492124D02*
X187097409Y-69453410D01*
X187097409Y-69453410D02*
X186942552Y-69414696D01*
X186942552Y-69414696D02*
X186865123Y-69375981D01*
X186865123Y-69375981D02*
X186826409Y-69337267D01*
X186826409Y-69337267D02*
X186787695Y-69259839D01*
X186787695Y-69259839D02*
X186787695Y-69182410D01*
X186787695Y-69182410D02*
X186826409Y-69104981D01*
X186826409Y-69104981D02*
X186865123Y-69066267D01*
X186865123Y-69066267D02*
X186942552Y-69027553D01*
X186942552Y-69027553D02*
X187136123Y-69027553D01*
X187136123Y-69027553D02*
X187252266Y-69066267D01*
X187600695Y-69840553D02*
X187600695Y-69027553D01*
X187600695Y-69027553D02*
X187794266Y-69027553D01*
X187794266Y-69027553D02*
X187910409Y-69066267D01*
X187910409Y-69066267D02*
X187987838Y-69143696D01*
X187987838Y-69143696D02*
X188026552Y-69221124D01*
X188026552Y-69221124D02*
X188065266Y-69375981D01*
X188065266Y-69375981D02*
X188065266Y-69492124D01*
X188065266Y-69492124D02*
X188026552Y-69646981D01*
X188026552Y-69646981D02*
X187987838Y-69724410D01*
X187987838Y-69724410D02*
X187910409Y-69801839D01*
X187910409Y-69801839D02*
X187794266Y-69840553D01*
X187794266Y-69840553D02*
X187600695Y-69840553D01*
X188839552Y-69840553D02*
X188374981Y-69840553D01*
X188607266Y-69840553D02*
X188607266Y-69027553D01*
X188607266Y-69027553D02*
X188529838Y-69143696D01*
X188529838Y-69143696D02*
X188452409Y-69221124D01*
X188452409Y-69221124D02*
X188374981Y-69259839D01*
X189110552Y-69027553D02*
X189613838Y-69027553D01*
X189613838Y-69027553D02*
X189342838Y-69337267D01*
X189342838Y-69337267D02*
X189458981Y-69337267D01*
X189458981Y-69337267D02*
X189536410Y-69375981D01*
X189536410Y-69375981D02*
X189575124Y-69414696D01*
X189575124Y-69414696D02*
X189613838Y-69492124D01*
X189613838Y-69492124D02*
X189613838Y-69685696D01*
X189613838Y-69685696D02*
X189575124Y-69763124D01*
X189575124Y-69763124D02*
X189536410Y-69801839D01*
X189536410Y-69801839D02*
X189458981Y-69840553D01*
X189458981Y-69840553D02*
X189226695Y-69840553D01*
X189226695Y-69840553D02*
X189149267Y-69801839D01*
X189149267Y-69801839D02*
X189110552Y-69763124D01*
X190117124Y-69027553D02*
X190194553Y-69027553D01*
X190194553Y-69027553D02*
X190271981Y-69066267D01*
X190271981Y-69066267D02*
X190310696Y-69104981D01*
X190310696Y-69104981D02*
X190349410Y-69182410D01*
X190349410Y-69182410D02*
X190388124Y-69337267D01*
X190388124Y-69337267D02*
X190388124Y-69530839D01*
X190388124Y-69530839D02*
X190349410Y-69685696D01*
X190349410Y-69685696D02*
X190310696Y-69763124D01*
X190310696Y-69763124D02*
X190271981Y-69801839D01*
X190271981Y-69801839D02*
X190194553Y-69840553D01*
X190194553Y-69840553D02*
X190117124Y-69840553D01*
X190117124Y-69840553D02*
X190039696Y-69801839D01*
X190039696Y-69801839D02*
X190000981Y-69763124D01*
X190000981Y-69763124D02*
X189962267Y-69685696D01*
X189962267Y-69685696D02*
X189923553Y-69530839D01*
X189923553Y-69530839D02*
X189923553Y-69337267D01*
X189923553Y-69337267D02*
X189962267Y-69182410D01*
X189962267Y-69182410D02*
X190000981Y-69104981D01*
X190000981Y-69104981D02*
X190039696Y-69066267D01*
X190039696Y-69066267D02*
X190117124Y-69027553D01*
X191084982Y-69027553D02*
X190930124Y-69027553D01*
X190930124Y-69027553D02*
X190852696Y-69066267D01*
X190852696Y-69066267D02*
X190813982Y-69104981D01*
X190813982Y-69104981D02*
X190736553Y-69221124D01*
X190736553Y-69221124D02*
X190697839Y-69375981D01*
X190697839Y-69375981D02*
X190697839Y-69685696D01*
X190697839Y-69685696D02*
X190736553Y-69763124D01*
X190736553Y-69763124D02*
X190775267Y-69801839D01*
X190775267Y-69801839D02*
X190852696Y-69840553D01*
X190852696Y-69840553D02*
X191007553Y-69840553D01*
X191007553Y-69840553D02*
X191084982Y-69801839D01*
X191084982Y-69801839D02*
X191123696Y-69763124D01*
X191123696Y-69763124D02*
X191162410Y-69685696D01*
X191162410Y-69685696D02*
X191162410Y-69492124D01*
X191162410Y-69492124D02*
X191123696Y-69414696D01*
X191123696Y-69414696D02*
X191084982Y-69375981D01*
X191084982Y-69375981D02*
X191007553Y-69337267D01*
X191007553Y-69337267D02*
X190852696Y-69337267D01*
X190852696Y-69337267D02*
X190775267Y-69375981D01*
X190775267Y-69375981D02*
X190736553Y-69414696D01*
X190736553Y-69414696D02*
X190697839Y-69492124D01*
D11*
X174777255Y-145869819D02*
X174967731Y-145869819D01*
X174967731Y-145869819D02*
X175062969Y-145917438D01*
X175062969Y-145917438D02*
X175158207Y-146012676D01*
X175158207Y-146012676D02*
X175205826Y-146203152D01*
X175205826Y-146203152D02*
X175205826Y-146536485D01*
X175205826Y-146536485D02*
X175158207Y-146726961D01*
X175158207Y-146726961D02*
X175062969Y-146822200D01*
X175062969Y-146822200D02*
X174967731Y-146869819D01*
X174967731Y-146869819D02*
X174777255Y-146869819D01*
X174777255Y-146869819D02*
X174682017Y-146822200D01*
X174682017Y-146822200D02*
X174586779Y-146726961D01*
X174586779Y-146726961D02*
X174539160Y-146536485D01*
X174539160Y-146536485D02*
X174539160Y-146203152D01*
X174539160Y-146203152D02*
X174586779Y-146012676D01*
X174586779Y-146012676D02*
X174682017Y-145917438D01*
X174682017Y-145917438D02*
X174777255Y-145869819D01*
X175634398Y-145869819D02*
X175634398Y-146679342D01*
X175634398Y-146679342D02*
X175682017Y-146774580D01*
X175682017Y-146774580D02*
X175729636Y-146822200D01*
X175729636Y-146822200D02*
X175824874Y-146869819D01*
X175824874Y-146869819D02*
X176015350Y-146869819D01*
X176015350Y-146869819D02*
X176110588Y-146822200D01*
X176110588Y-146822200D02*
X176158207Y-146774580D01*
X176158207Y-146774580D02*
X176205826Y-146679342D01*
X176205826Y-146679342D02*
X176205826Y-145869819D01*
X176539160Y-145869819D02*
X177110588Y-145869819D01*
X176824874Y-146869819D02*
X176824874Y-145869819D01*
X177348684Y-145869819D02*
X177967731Y-145869819D01*
X177967731Y-145869819D02*
X177634398Y-146250771D01*
X177634398Y-146250771D02*
X177777255Y-146250771D01*
X177777255Y-146250771D02*
X177872493Y-146298390D01*
X177872493Y-146298390D02*
X177920112Y-146346009D01*
X177920112Y-146346009D02*
X177967731Y-146441247D01*
X177967731Y-146441247D02*
X177967731Y-146679342D01*
X177967731Y-146679342D02*
X177920112Y-146774580D01*
X177920112Y-146774580D02*
X177872493Y-146822200D01*
X177872493Y-146822200D02*
X177777255Y-146869819D01*
X177777255Y-146869819D02*
X177491541Y-146869819D01*
X177491541Y-146869819D02*
X177396303Y-146822200D01*
X177396303Y-146822200D02*
X177348684Y-146774580D01*
X186836779Y-115119819D02*
X186836779Y-114119819D01*
X187312969Y-115119819D02*
X187312969Y-114119819D01*
X187312969Y-114119819D02*
X187884397Y-115119819D01*
X187884397Y-115119819D02*
X187884397Y-114119819D01*
X188884397Y-115119819D02*
X188312969Y-115119819D01*
X188598683Y-115119819D02*
X188598683Y-114119819D01*
X188598683Y-114119819D02*
X188503445Y-114262676D01*
X188503445Y-114262676D02*
X188408207Y-114357914D01*
X188408207Y-114357914D02*
X188312969Y-114405533D01*
X194911905Y-129784819D02*
X194911905Y-128784819D01*
X194911905Y-128784819D02*
X195150000Y-128784819D01*
X195150000Y-128784819D02*
X195292857Y-128832438D01*
X195292857Y-128832438D02*
X195388095Y-128927676D01*
X195388095Y-128927676D02*
X195435714Y-129022914D01*
X195435714Y-129022914D02*
X195483333Y-129213390D01*
X195483333Y-129213390D02*
X195483333Y-129356247D01*
X195483333Y-129356247D02*
X195435714Y-129546723D01*
X195435714Y-129546723D02*
X195388095Y-129641961D01*
X195388095Y-129641961D02*
X195292857Y-129737200D01*
X195292857Y-129737200D02*
X195150000Y-129784819D01*
X195150000Y-129784819D02*
X194911905Y-129784819D01*
X195816667Y-128784819D02*
X196435714Y-128784819D01*
X196435714Y-128784819D02*
X196102381Y-129165771D01*
X196102381Y-129165771D02*
X196245238Y-129165771D01*
X196245238Y-129165771D02*
X196340476Y-129213390D01*
X196340476Y-129213390D02*
X196388095Y-129261009D01*
X196388095Y-129261009D02*
X196435714Y-129356247D01*
X196435714Y-129356247D02*
X196435714Y-129594342D01*
X196435714Y-129594342D02*
X196388095Y-129689580D01*
X196388095Y-129689580D02*
X196340476Y-129737200D01*
X196340476Y-129737200D02*
X196245238Y-129784819D01*
X196245238Y-129784819D02*
X195959524Y-129784819D01*
X195959524Y-129784819D02*
X195864286Y-129737200D01*
X195864286Y-129737200D02*
X195816667Y-129689580D01*
X194911905Y-143994819D02*
X194911905Y-142994819D01*
X194911905Y-142994819D02*
X195150000Y-142994819D01*
X195150000Y-142994819D02*
X195292857Y-143042438D01*
X195292857Y-143042438D02*
X195388095Y-143137676D01*
X195388095Y-143137676D02*
X195435714Y-143232914D01*
X195435714Y-143232914D02*
X195483333Y-143423390D01*
X195483333Y-143423390D02*
X195483333Y-143566247D01*
X195483333Y-143566247D02*
X195435714Y-143756723D01*
X195435714Y-143756723D02*
X195388095Y-143851961D01*
X195388095Y-143851961D02*
X195292857Y-143947200D01*
X195292857Y-143947200D02*
X195150000Y-143994819D01*
X195150000Y-143994819D02*
X194911905Y-143994819D01*
X196388095Y-142994819D02*
X195911905Y-142994819D01*
X195911905Y-142994819D02*
X195864286Y-143471009D01*
X195864286Y-143471009D02*
X195911905Y-143423390D01*
X195911905Y-143423390D02*
X196007143Y-143375771D01*
X196007143Y-143375771D02*
X196245238Y-143375771D01*
X196245238Y-143375771D02*
X196340476Y-143423390D01*
X196340476Y-143423390D02*
X196388095Y-143471009D01*
X196388095Y-143471009D02*
X196435714Y-143566247D01*
X196435714Y-143566247D02*
X196435714Y-143804342D01*
X196435714Y-143804342D02*
X196388095Y-143899580D01*
X196388095Y-143899580D02*
X196340476Y-143947200D01*
X196340476Y-143947200D02*
X196245238Y-143994819D01*
X196245238Y-143994819D02*
X196007143Y-143994819D01*
X196007143Y-143994819D02*
X195911905Y-143947200D01*
X195911905Y-143947200D02*
X195864286Y-143899580D01*
X180146105Y-134404819D02*
X180146105Y-133404819D01*
X180146105Y-133404819D02*
X180384200Y-133404819D01*
X180384200Y-133404819D02*
X180527057Y-133452438D01*
X180527057Y-133452438D02*
X180622295Y-133547676D01*
X180622295Y-133547676D02*
X180669914Y-133642914D01*
X180669914Y-133642914D02*
X180717533Y-133833390D01*
X180717533Y-133833390D02*
X180717533Y-133976247D01*
X180717533Y-133976247D02*
X180669914Y-134166723D01*
X180669914Y-134166723D02*
X180622295Y-134261961D01*
X180622295Y-134261961D02*
X180527057Y-134357200D01*
X180527057Y-134357200D02*
X180384200Y-134404819D01*
X180384200Y-134404819D02*
X180146105Y-134404819D01*
X181098486Y-133500057D02*
X181146105Y-133452438D01*
X181146105Y-133452438D02*
X181241343Y-133404819D01*
X181241343Y-133404819D02*
X181479438Y-133404819D01*
X181479438Y-133404819D02*
X181574676Y-133452438D01*
X181574676Y-133452438D02*
X181622295Y-133500057D01*
X181622295Y-133500057D02*
X181669914Y-133595295D01*
X181669914Y-133595295D02*
X181669914Y-133690533D01*
X181669914Y-133690533D02*
X181622295Y-133833390D01*
X181622295Y-133833390D02*
X181050867Y-134404819D01*
X181050867Y-134404819D02*
X181669914Y-134404819D01*
X174777255Y-131619819D02*
X174967731Y-131619819D01*
X174967731Y-131619819D02*
X175062969Y-131667438D01*
X175062969Y-131667438D02*
X175158207Y-131762676D01*
X175158207Y-131762676D02*
X175205826Y-131953152D01*
X175205826Y-131953152D02*
X175205826Y-132286485D01*
X175205826Y-132286485D02*
X175158207Y-132476961D01*
X175158207Y-132476961D02*
X175062969Y-132572200D01*
X175062969Y-132572200D02*
X174967731Y-132619819D01*
X174967731Y-132619819D02*
X174777255Y-132619819D01*
X174777255Y-132619819D02*
X174682017Y-132572200D01*
X174682017Y-132572200D02*
X174586779Y-132476961D01*
X174586779Y-132476961D02*
X174539160Y-132286485D01*
X174539160Y-132286485D02*
X174539160Y-131953152D01*
X174539160Y-131953152D02*
X174586779Y-131762676D01*
X174586779Y-131762676D02*
X174682017Y-131667438D01*
X174682017Y-131667438D02*
X174777255Y-131619819D01*
X175634398Y-131619819D02*
X175634398Y-132429342D01*
X175634398Y-132429342D02*
X175682017Y-132524580D01*
X175682017Y-132524580D02*
X175729636Y-132572200D01*
X175729636Y-132572200D02*
X175824874Y-132619819D01*
X175824874Y-132619819D02*
X176015350Y-132619819D01*
X176015350Y-132619819D02*
X176110588Y-132572200D01*
X176110588Y-132572200D02*
X176158207Y-132524580D01*
X176158207Y-132524580D02*
X176205826Y-132429342D01*
X176205826Y-132429342D02*
X176205826Y-131619819D01*
X176539160Y-131619819D02*
X177110588Y-131619819D01*
X176824874Y-132619819D02*
X176824874Y-131619819D01*
X177967731Y-132619819D02*
X177396303Y-132619819D01*
X177682017Y-132619819D02*
X177682017Y-131619819D01*
X177682017Y-131619819D02*
X177586779Y-131762676D01*
X177586779Y-131762676D02*
X177491541Y-131857914D01*
X177491541Y-131857914D02*
X177396303Y-131905533D01*
X199027255Y-145619819D02*
X199217731Y-145619819D01*
X199217731Y-145619819D02*
X199312969Y-145667438D01*
X199312969Y-145667438D02*
X199408207Y-145762676D01*
X199408207Y-145762676D02*
X199455826Y-145953152D01*
X199455826Y-145953152D02*
X199455826Y-146286485D01*
X199455826Y-146286485D02*
X199408207Y-146476961D01*
X199408207Y-146476961D02*
X199312969Y-146572200D01*
X199312969Y-146572200D02*
X199217731Y-146619819D01*
X199217731Y-146619819D02*
X199027255Y-146619819D01*
X199027255Y-146619819D02*
X198932017Y-146572200D01*
X198932017Y-146572200D02*
X198836779Y-146476961D01*
X198836779Y-146476961D02*
X198789160Y-146286485D01*
X198789160Y-146286485D02*
X198789160Y-145953152D01*
X198789160Y-145953152D02*
X198836779Y-145762676D01*
X198836779Y-145762676D02*
X198932017Y-145667438D01*
X198932017Y-145667438D02*
X199027255Y-145619819D01*
X199884398Y-145619819D02*
X199884398Y-146429342D01*
X199884398Y-146429342D02*
X199932017Y-146524580D01*
X199932017Y-146524580D02*
X199979636Y-146572200D01*
X199979636Y-146572200D02*
X200074874Y-146619819D01*
X200074874Y-146619819D02*
X200265350Y-146619819D01*
X200265350Y-146619819D02*
X200360588Y-146572200D01*
X200360588Y-146572200D02*
X200408207Y-146524580D01*
X200408207Y-146524580D02*
X200455826Y-146429342D01*
X200455826Y-146429342D02*
X200455826Y-145619819D01*
X200789160Y-145619819D02*
X201360588Y-145619819D01*
X201074874Y-146619819D02*
X201074874Y-145619819D01*
X202122493Y-145953152D02*
X202122493Y-146619819D01*
X201884398Y-145572200D02*
X201646303Y-146286485D01*
X201646303Y-146286485D02*
X202265350Y-146286485D01*
X180146105Y-148614819D02*
X180146105Y-147614819D01*
X180146105Y-147614819D02*
X180384200Y-147614819D01*
X180384200Y-147614819D02*
X180527057Y-147662438D01*
X180527057Y-147662438D02*
X180622295Y-147757676D01*
X180622295Y-147757676D02*
X180669914Y-147852914D01*
X180669914Y-147852914D02*
X180717533Y-148043390D01*
X180717533Y-148043390D02*
X180717533Y-148186247D01*
X180717533Y-148186247D02*
X180669914Y-148376723D01*
X180669914Y-148376723D02*
X180622295Y-148471961D01*
X180622295Y-148471961D02*
X180527057Y-148567200D01*
X180527057Y-148567200D02*
X180384200Y-148614819D01*
X180384200Y-148614819D02*
X180146105Y-148614819D01*
X181574676Y-147948152D02*
X181574676Y-148614819D01*
X181336581Y-147567200D02*
X181098486Y-148281485D01*
X181098486Y-148281485D02*
X181717533Y-148281485D01*
X195086779Y-118369819D02*
X195086779Y-117369819D01*
X195562969Y-118369819D02*
X195562969Y-117369819D01*
X195562969Y-117369819D02*
X196134397Y-118369819D01*
X196134397Y-118369819D02*
X196134397Y-117369819D01*
X196515350Y-117369819D02*
X197134397Y-117369819D01*
X197134397Y-117369819D02*
X196801064Y-117750771D01*
X196801064Y-117750771D02*
X196943921Y-117750771D01*
X196943921Y-117750771D02*
X197039159Y-117798390D01*
X197039159Y-117798390D02*
X197086778Y-117846009D01*
X197086778Y-117846009D02*
X197134397Y-117941247D01*
X197134397Y-117941247D02*
X197134397Y-118179342D01*
X197134397Y-118179342D02*
X197086778Y-118274580D01*
X197086778Y-118274580D02*
X197039159Y-118322200D01*
X197039159Y-118322200D02*
X196943921Y-118369819D01*
X196943921Y-118369819D02*
X196658207Y-118369819D01*
X196658207Y-118369819D02*
X196562969Y-118322200D01*
X196562969Y-118322200D02*
X196515350Y-118274580D01*
X199027255Y-131369819D02*
X199217731Y-131369819D01*
X199217731Y-131369819D02*
X199312969Y-131417438D01*
X199312969Y-131417438D02*
X199408207Y-131512676D01*
X199408207Y-131512676D02*
X199455826Y-131703152D01*
X199455826Y-131703152D02*
X199455826Y-132036485D01*
X199455826Y-132036485D02*
X199408207Y-132226961D01*
X199408207Y-132226961D02*
X199312969Y-132322200D01*
X199312969Y-132322200D02*
X199217731Y-132369819D01*
X199217731Y-132369819D02*
X199027255Y-132369819D01*
X199027255Y-132369819D02*
X198932017Y-132322200D01*
X198932017Y-132322200D02*
X198836779Y-132226961D01*
X198836779Y-132226961D02*
X198789160Y-132036485D01*
X198789160Y-132036485D02*
X198789160Y-131703152D01*
X198789160Y-131703152D02*
X198836779Y-131512676D01*
X198836779Y-131512676D02*
X198932017Y-131417438D01*
X198932017Y-131417438D02*
X199027255Y-131369819D01*
X199884398Y-131369819D02*
X199884398Y-132179342D01*
X199884398Y-132179342D02*
X199932017Y-132274580D01*
X199932017Y-132274580D02*
X199979636Y-132322200D01*
X199979636Y-132322200D02*
X200074874Y-132369819D01*
X200074874Y-132369819D02*
X200265350Y-132369819D01*
X200265350Y-132369819D02*
X200360588Y-132322200D01*
X200360588Y-132322200D02*
X200408207Y-132274580D01*
X200408207Y-132274580D02*
X200455826Y-132179342D01*
X200455826Y-132179342D02*
X200455826Y-131369819D01*
X200789160Y-131369819D02*
X201360588Y-131369819D01*
X201074874Y-132369819D02*
X201074874Y-131369819D01*
X201646303Y-131465057D02*
X201693922Y-131417438D01*
X201693922Y-131417438D02*
X201789160Y-131369819D01*
X201789160Y-131369819D02*
X202027255Y-131369819D01*
X202027255Y-131369819D02*
X202122493Y-131417438D01*
X202122493Y-131417438D02*
X202170112Y-131465057D01*
X202170112Y-131465057D02*
X202217731Y-131560295D01*
X202217731Y-131560295D02*
X202217731Y-131655533D01*
X202217731Y-131655533D02*
X202170112Y-131798390D01*
X202170112Y-131798390D02*
X201598684Y-132369819D01*
X201598684Y-132369819D02*
X202217731Y-132369819D01*
X183730667Y-60061438D02*
X183664000Y-60013819D01*
X183664000Y-60013819D02*
X183564000Y-60013819D01*
X183564000Y-60013819D02*
X183464000Y-60061438D01*
X183464000Y-60061438D02*
X183397334Y-60156676D01*
X183397334Y-60156676D02*
X183364000Y-60251914D01*
X183364000Y-60251914D02*
X183330667Y-60442390D01*
X183330667Y-60442390D02*
X183330667Y-60585247D01*
X183330667Y-60585247D02*
X183364000Y-60775723D01*
X183364000Y-60775723D02*
X183397334Y-60870961D01*
X183397334Y-60870961D02*
X183464000Y-60966200D01*
X183464000Y-60966200D02*
X183564000Y-61013819D01*
X183564000Y-61013819D02*
X183630667Y-61013819D01*
X183630667Y-61013819D02*
X183730667Y-60966200D01*
X183730667Y-60966200D02*
X183764000Y-60918580D01*
X183764000Y-60918580D02*
X183764000Y-60585247D01*
X183764000Y-60585247D02*
X183630667Y-60585247D01*
X184064000Y-61013819D02*
X184064000Y-60013819D01*
X184064000Y-60013819D02*
X184464000Y-61013819D01*
X184464000Y-61013819D02*
X184464000Y-60013819D01*
X184797333Y-61013819D02*
X184797333Y-60013819D01*
X184797333Y-60013819D02*
X184964000Y-60013819D01*
X184964000Y-60013819D02*
X185064000Y-60061438D01*
X185064000Y-60061438D02*
X185130667Y-60156676D01*
X185130667Y-60156676D02*
X185164000Y-60251914D01*
X185164000Y-60251914D02*
X185197333Y-60442390D01*
X185197333Y-60442390D02*
X185197333Y-60585247D01*
X185197333Y-60585247D02*
X185164000Y-60775723D01*
X185164000Y-60775723D02*
X185130667Y-60870961D01*
X185130667Y-60870961D02*
X185064000Y-60966200D01*
X185064000Y-60966200D02*
X184964000Y-61013819D01*
X184964000Y-61013819D02*
X184797333Y-61013819D01*
X185870666Y-60013819D02*
X186104000Y-61013819D01*
X186104000Y-61013819D02*
X186337333Y-60013819D01*
X186570666Y-61013819D02*
X186570666Y-60013819D01*
X186570666Y-60013819D02*
X186737333Y-60013819D01*
X186737333Y-60013819D02*
X186837333Y-60061438D01*
X186837333Y-60061438D02*
X186904000Y-60156676D01*
X186904000Y-60156676D02*
X186937333Y-60251914D01*
X186937333Y-60251914D02*
X186970666Y-60442390D01*
X186970666Y-60442390D02*
X186970666Y-60585247D01*
X186970666Y-60585247D02*
X186937333Y-60775723D01*
X186937333Y-60775723D02*
X186904000Y-60870961D01*
X186904000Y-60870961D02*
X186837333Y-60966200D01*
X186837333Y-60966200D02*
X186737333Y-61013819D01*
X186737333Y-61013819D02*
X186570666Y-61013819D01*
X187270666Y-61013819D02*
X187270666Y-60013819D01*
X187270666Y-60013819D02*
X187437333Y-60013819D01*
X187437333Y-60013819D02*
X187537333Y-60061438D01*
X187537333Y-60061438D02*
X187604000Y-60156676D01*
X187604000Y-60156676D02*
X187637333Y-60251914D01*
X187637333Y-60251914D02*
X187670666Y-60442390D01*
X187670666Y-60442390D02*
X187670666Y-60585247D01*
X187670666Y-60585247D02*
X187637333Y-60775723D01*
X187637333Y-60775723D02*
X187604000Y-60870961D01*
X187604000Y-60870961D02*
X187537333Y-60966200D01*
X187537333Y-60966200D02*
X187437333Y-61013819D01*
X187437333Y-61013819D02*
X187270666Y-61013819D01*
X188510666Y-60966200D02*
X188610666Y-61013819D01*
X188610666Y-61013819D02*
X188777333Y-61013819D01*
X188777333Y-61013819D02*
X188843999Y-60966200D01*
X188843999Y-60966200D02*
X188877333Y-60918580D01*
X188877333Y-60918580D02*
X188910666Y-60823342D01*
X188910666Y-60823342D02*
X188910666Y-60728104D01*
X188910666Y-60728104D02*
X188877333Y-60632866D01*
X188877333Y-60632866D02*
X188843999Y-60585247D01*
X188843999Y-60585247D02*
X188777333Y-60537628D01*
X188777333Y-60537628D02*
X188643999Y-60490009D01*
X188643999Y-60490009D02*
X188577333Y-60442390D01*
X188577333Y-60442390D02*
X188543999Y-60394771D01*
X188543999Y-60394771D02*
X188510666Y-60299533D01*
X188510666Y-60299533D02*
X188510666Y-60204295D01*
X188510666Y-60204295D02*
X188543999Y-60109057D01*
X188543999Y-60109057D02*
X188577333Y-60061438D01*
X188577333Y-60061438D02*
X188643999Y-60013819D01*
X188643999Y-60013819D02*
X188810666Y-60013819D01*
X188810666Y-60013819D02*
X188910666Y-60061438D01*
X189610666Y-60918580D02*
X189577333Y-60966200D01*
X189577333Y-60966200D02*
X189477333Y-61013819D01*
X189477333Y-61013819D02*
X189410666Y-61013819D01*
X189410666Y-61013819D02*
X189310666Y-60966200D01*
X189310666Y-60966200D02*
X189244000Y-60870961D01*
X189244000Y-60870961D02*
X189210666Y-60775723D01*
X189210666Y-60775723D02*
X189177333Y-60585247D01*
X189177333Y-60585247D02*
X189177333Y-60442390D01*
X189177333Y-60442390D02*
X189210666Y-60251914D01*
X189210666Y-60251914D02*
X189244000Y-60156676D01*
X189244000Y-60156676D02*
X189310666Y-60061438D01*
X189310666Y-60061438D02*
X189410666Y-60013819D01*
X189410666Y-60013819D02*
X189477333Y-60013819D01*
X189477333Y-60013819D02*
X189577333Y-60061438D01*
X189577333Y-60061438D02*
X189610666Y-60109057D01*
X190244000Y-61013819D02*
X189910666Y-61013819D01*
X189910666Y-61013819D02*
X189910666Y-60013819D01*
X191161000Y-60966200D02*
X191261000Y-61013819D01*
X191261000Y-61013819D02*
X191427667Y-61013819D01*
X191427667Y-61013819D02*
X191494333Y-60966200D01*
X191494333Y-60966200D02*
X191527667Y-60918580D01*
X191527667Y-60918580D02*
X191561000Y-60823342D01*
X191561000Y-60823342D02*
X191561000Y-60728104D01*
X191561000Y-60728104D02*
X191527667Y-60632866D01*
X191527667Y-60632866D02*
X191494333Y-60585247D01*
X191494333Y-60585247D02*
X191427667Y-60537628D01*
X191427667Y-60537628D02*
X191294333Y-60490009D01*
X191294333Y-60490009D02*
X191227667Y-60442390D01*
X191227667Y-60442390D02*
X191194333Y-60394771D01*
X191194333Y-60394771D02*
X191161000Y-60299533D01*
X191161000Y-60299533D02*
X191161000Y-60204295D01*
X191161000Y-60204295D02*
X191194333Y-60109057D01*
X191194333Y-60109057D02*
X191227667Y-60061438D01*
X191227667Y-60061438D02*
X191294333Y-60013819D01*
X191294333Y-60013819D02*
X191461000Y-60013819D01*
X191461000Y-60013819D02*
X191561000Y-60061438D01*
X191861000Y-61013819D02*
X191861000Y-60013819D01*
X191861000Y-60013819D02*
X192027667Y-60013819D01*
X192027667Y-60013819D02*
X192127667Y-60061438D01*
X192127667Y-60061438D02*
X192194334Y-60156676D01*
X192194334Y-60156676D02*
X192227667Y-60251914D01*
X192227667Y-60251914D02*
X192261000Y-60442390D01*
X192261000Y-60442390D02*
X192261000Y-60585247D01*
X192261000Y-60585247D02*
X192227667Y-60775723D01*
X192227667Y-60775723D02*
X192194334Y-60870961D01*
X192194334Y-60870961D02*
X192127667Y-60966200D01*
X192127667Y-60966200D02*
X192027667Y-61013819D01*
X192027667Y-61013819D02*
X191861000Y-61013819D01*
X192527667Y-60728104D02*
X192861000Y-60728104D01*
X192461000Y-61013819D02*
X192694334Y-60013819D01*
X192694334Y-60013819D02*
X192927667Y-61013819D01*
X180086779Y-118619819D02*
X180086779Y-117619819D01*
X180562969Y-118619819D02*
X180562969Y-117619819D01*
X180562969Y-117619819D02*
X181134397Y-118619819D01*
X181134397Y-118619819D02*
X181134397Y-117619819D01*
X181562969Y-117715057D02*
X181610588Y-117667438D01*
X181610588Y-117667438D02*
X181705826Y-117619819D01*
X181705826Y-117619819D02*
X181943921Y-117619819D01*
X181943921Y-117619819D02*
X182039159Y-117667438D01*
X182039159Y-117667438D02*
X182086778Y-117715057D01*
X182086778Y-117715057D02*
X182134397Y-117810295D01*
X182134397Y-117810295D02*
X182134397Y-117905533D01*
X182134397Y-117905533D02*
X182086778Y-118048390D01*
X182086778Y-118048390D02*
X181515350Y-118619819D01*
X181515350Y-118619819D02*
X182134397Y-118619819D01*
X180157200Y-94583332D02*
X180204819Y-94440475D01*
X180204819Y-94440475D02*
X180204819Y-94202380D01*
X180204819Y-94202380D02*
X180157200Y-94107142D01*
X180157200Y-94107142D02*
X180109580Y-94059523D01*
X180109580Y-94059523D02*
X180014342Y-94011904D01*
X180014342Y-94011904D02*
X179919104Y-94011904D01*
X179919104Y-94011904D02*
X179823866Y-94059523D01*
X179823866Y-94059523D02*
X179776247Y-94107142D01*
X179776247Y-94107142D02*
X179728628Y-94202380D01*
X179728628Y-94202380D02*
X179681009Y-94392856D01*
X179681009Y-94392856D02*
X179633390Y-94488094D01*
X179633390Y-94488094D02*
X179585771Y-94535713D01*
X179585771Y-94535713D02*
X179490533Y-94583332D01*
X179490533Y-94583332D02*
X179395295Y-94583332D01*
X179395295Y-94583332D02*
X179300057Y-94535713D01*
X179300057Y-94535713D02*
X179252438Y-94488094D01*
X179252438Y-94488094D02*
X179204819Y-94392856D01*
X179204819Y-94392856D02*
X179204819Y-94154761D01*
X179204819Y-94154761D02*
X179252438Y-94011904D01*
X179204819Y-93678570D02*
X180204819Y-93440475D01*
X180204819Y-93440475D02*
X179490533Y-93249999D01*
X179490533Y-93249999D02*
X180204819Y-93059523D01*
X180204819Y-93059523D02*
X179204819Y-92821428D01*
X180204819Y-91916666D02*
X180204819Y-92488094D01*
X180204819Y-92202380D02*
X179204819Y-92202380D01*
X179204819Y-92202380D02*
X179347676Y-92297618D01*
X179347676Y-92297618D02*
X179442914Y-92392856D01*
X179442914Y-92392856D02*
X179490533Y-92488094D01*
%TO.C,J6*%
D12*
X174442800Y-152400000D02*
X174445000Y-156300000D01*
X174445000Y-147300000D02*
X174447200Y-151200000D01*
X174445000Y-147300000D02*
X184953000Y-147300000D01*
X179147200Y-151800000D02*
X182147200Y-151800000D01*
X180647200Y-153300000D02*
X180647200Y-150300000D01*
X184953000Y-147300000D02*
X184953000Y-151000000D01*
X184953000Y-152600000D02*
X184953000Y-156300000D01*
X184953000Y-156300000D02*
X174445000Y-156300000D01*
D13*
X182209300Y-151800000D02*
G75*
G02*
X179059700Y-151800000I-1574800J0D01*
G01*
X179059700Y-151800000D02*
G75*
G02*
X182209300Y-151800000I1574800J0D01*
G01*
X182847200Y-151800000D02*
G75*
G02*
X178421800Y-151800000I-2212700J0D01*
G01*
X178421800Y-151800000D02*
G75*
G02*
X182847200Y-151800000I2212700J0D01*
G01*
%TO.C,J1*%
D12*
X181640600Y-109900000D02*
X181642800Y-113800000D01*
X181642800Y-104800000D02*
X181645000Y-108700000D01*
X181642800Y-104800000D02*
X192150800Y-104800000D01*
X186345000Y-109300000D02*
X189345000Y-109300000D01*
X187845000Y-110800000D02*
X187845000Y-107800000D01*
X192150800Y-104800000D02*
X192150800Y-108500000D01*
X192150800Y-110100000D02*
X192150800Y-113800000D01*
X192150800Y-113800000D02*
X181642800Y-113800000D01*
D13*
X189407100Y-109300000D02*
G75*
G02*
X186257500Y-109300000I-1574800J0D01*
G01*
X186257500Y-109300000D02*
G75*
G02*
X189407100Y-109300000I1574800J0D01*
G01*
X190045000Y-109300000D02*
G75*
G02*
X185619600Y-109300000I-2212700J0D01*
G01*
X185619600Y-109300000D02*
G75*
G02*
X190045000Y-109300000I2212700J0D01*
G01*
%TO.C,D3*%
D12*
X193190000Y-130330000D02*
X198110000Y-130330000D01*
X193190000Y-132950000D02*
X193190000Y-130330000D01*
X193310000Y-130330000D02*
X193310000Y-130560000D01*
X193310000Y-132720000D02*
X193310000Y-132950000D01*
X193430000Y-130330000D02*
X193430000Y-130560000D01*
X193430000Y-132720000D02*
X193430000Y-132950000D01*
X198110000Y-130330000D02*
X198110000Y-132950000D01*
X198110000Y-132950000D02*
X193190000Y-132950000D01*
%TO.C,D5*%
X193190000Y-144540000D02*
X198110000Y-144540000D01*
X193190000Y-147160000D02*
X193190000Y-144540000D01*
X193310000Y-144540000D02*
X193310000Y-144770000D01*
X193310000Y-146930000D02*
X193310000Y-147160000D01*
X193430000Y-144540000D02*
X193430000Y-144770000D01*
X193430000Y-146930000D02*
X193430000Y-147160000D01*
X198110000Y-144540000D02*
X198110000Y-147160000D01*
X198110000Y-147160000D02*
X193190000Y-147160000D01*
%TO.C,D2*%
X178424200Y-130330000D02*
X183344200Y-130330000D01*
X178424200Y-132950000D02*
X178424200Y-130330000D01*
X183104200Y-130560000D02*
X183104200Y-130330000D01*
X183104200Y-132950000D02*
X183104200Y-132720000D01*
X183224200Y-130560000D02*
X183224200Y-130330000D01*
X183224200Y-132950000D02*
X183224200Y-132720000D01*
X183344200Y-130330000D02*
X183344200Y-132950000D01*
X183344200Y-132950000D02*
X178424200Y-132950000D01*
%TO.C,J4*%
X174442800Y-138200000D02*
X174445000Y-142100000D01*
X174445000Y-133100000D02*
X174447200Y-137000000D01*
X174445000Y-133100000D02*
X184953000Y-133100000D01*
X179147200Y-137600000D02*
X182147200Y-137600000D01*
X180647200Y-139100000D02*
X180647200Y-136100000D01*
X184953000Y-133100000D02*
X184953000Y-136800000D01*
X184953000Y-138400000D02*
X184953000Y-142100000D01*
X184953000Y-142100000D02*
X174445000Y-142100000D01*
D13*
X182209300Y-137600000D02*
G75*
G02*
X179059700Y-137600000I-1574800J0D01*
G01*
X179059700Y-137600000D02*
G75*
G02*
X182209300Y-137600000I1574800J0D01*
G01*
X182847200Y-137600000D02*
G75*
G02*
X178421800Y-137600000I-2212700J0D01*
G01*
X178421800Y-137600000D02*
G75*
G02*
X182847200Y-137600000I2212700J0D01*
G01*
%TO.C,J7*%
D12*
X191587200Y-147300000D02*
X202095200Y-147300000D01*
X191587200Y-151000000D02*
X191587200Y-147300000D01*
X191587200Y-156300000D02*
X191587200Y-152600000D01*
X195893000Y-150300000D02*
X195893000Y-153300000D01*
X197393000Y-151800000D02*
X194393000Y-151800000D01*
X202095200Y-156300000D02*
X191587200Y-156300000D01*
X202095200Y-156300000D02*
X202093000Y-152400000D01*
X202097400Y-151200000D02*
X202095200Y-147300000D01*
D13*
X198118400Y-151800000D02*
G75*
G02*
X193693000Y-151800000I-2212700J0D01*
G01*
X193693000Y-151800000D02*
G75*
G02*
X198118400Y-151800000I2212700J0D01*
G01*
X197480500Y-151800000D02*
G75*
G02*
X194330900Y-151800000I-1574800J0D01*
G01*
X194330900Y-151800000D02*
G75*
G02*
X197480500Y-151800000I1574800J0D01*
G01*
%TO.C,D4*%
D12*
X178424200Y-144540000D02*
X183344200Y-144540000D01*
X178424200Y-147160000D02*
X178424200Y-144540000D01*
X183104200Y-144770000D02*
X183104200Y-144540000D01*
X183104200Y-147160000D02*
X183104200Y-146930000D01*
X183224200Y-144770000D02*
X183224200Y-144540000D01*
X183224200Y-147160000D02*
X183224200Y-146930000D01*
X183344200Y-144540000D02*
X183344200Y-147160000D01*
X183344200Y-147160000D02*
X178424200Y-147160000D01*
%TO.C,J3*%
X191587200Y-118800000D02*
X202095200Y-118800000D01*
X191587200Y-122500000D02*
X191587200Y-118800000D01*
X191587200Y-127800000D02*
X191587200Y-124100000D01*
X195893000Y-121800000D02*
X195893000Y-124800000D01*
X197393000Y-123300000D02*
X194393000Y-123300000D01*
X202095200Y-127800000D02*
X191587200Y-127800000D01*
X202095200Y-127800000D02*
X202093000Y-123900000D01*
X202097400Y-122700000D02*
X202095200Y-118800000D01*
D13*
X198118400Y-123300000D02*
G75*
G02*
X193693000Y-123300000I-2212700J0D01*
G01*
X193693000Y-123300000D02*
G75*
G02*
X198118400Y-123300000I2212700J0D01*
G01*
X197480500Y-123300000D02*
G75*
G02*
X194330900Y-123300000I-1574800J0D01*
G01*
X194330900Y-123300000D02*
G75*
G02*
X197480500Y-123300000I1574800J0D01*
G01*
%TO.C,J5*%
D12*
X191587200Y-133100000D02*
X202095200Y-133100000D01*
X191587200Y-136800000D02*
X191587200Y-133100000D01*
X191587200Y-142100000D02*
X191587200Y-138400000D01*
X195893000Y-136100000D02*
X195893000Y-139100000D01*
X197393000Y-137600000D02*
X194393000Y-137600000D01*
X202095200Y-142100000D02*
X191587200Y-142100000D01*
X202095200Y-142100000D02*
X202093000Y-138200000D01*
X202097400Y-137000000D02*
X202095200Y-133100000D01*
D13*
X198118400Y-137600000D02*
G75*
G02*
X193693000Y-137600000I-2212700J0D01*
G01*
X193693000Y-137600000D02*
G75*
G02*
X198118400Y-137600000I2212700J0D01*
G01*
X197480500Y-137600000D02*
G75*
G02*
X194330900Y-137600000I-1574800J0D01*
G01*
X194330900Y-137600000D02*
G75*
G02*
X197480500Y-137600000I1574800J0D01*
G01*
%TO.C,U1*%
D12*
X174358000Y-57003000D02*
X201790000Y-57003000D01*
X174358000Y-62210000D02*
X201790000Y-62210000D01*
X174358000Y-79101000D02*
X201790000Y-79101000D01*
X174358000Y-84181000D02*
X174485000Y-57003000D01*
X182934000Y-59730000D02*
X182934000Y-58400000D01*
X184264000Y-59730000D02*
X182934000Y-59730000D01*
X185534000Y-57070000D02*
X193214000Y-57070000D01*
X185534000Y-59730000D02*
X185534000Y-57070000D01*
X185534000Y-59730000D02*
X193214000Y-59730000D01*
X193214000Y-59730000D02*
X193214000Y-57070000D01*
X201790000Y-84181000D02*
X174358000Y-84181000D01*
X201790000Y-84181000D02*
X201790000Y-57003000D01*
%TO.C,J2*%
X174442800Y-123900000D02*
X174445000Y-127800000D01*
X174445000Y-118800000D02*
X174447200Y-122700000D01*
X174445000Y-118800000D02*
X184953000Y-118800000D01*
X179147200Y-123300000D02*
X182147200Y-123300000D01*
X180647200Y-124800000D02*
X180647200Y-121800000D01*
X184953000Y-118800000D02*
X184953000Y-122500000D01*
X184953000Y-124100000D02*
X184953000Y-127800000D01*
X184953000Y-127800000D02*
X174445000Y-127800000D01*
D13*
X182209300Y-123300000D02*
G75*
G02*
X179059700Y-123300000I-1574800J0D01*
G01*
X179059700Y-123300000D02*
G75*
G02*
X182209300Y-123300000I1574800J0D01*
G01*
X182847200Y-123300000D02*
G75*
G02*
X178421800Y-123300000I-2212700J0D01*
G01*
X178421800Y-123300000D02*
G75*
G02*
X182847200Y-123300000I2212700J0D01*
G01*
%TO.C,SW1*%
D12*
X182185000Y-87300000D02*
X184585000Y-87300000D01*
X182185000Y-91400000D02*
X182185000Y-87300000D01*
X182185000Y-95400000D02*
X182185000Y-99500000D01*
X182185000Y-99500000D02*
X193985000Y-99500000D01*
X183985000Y-100600000D02*
X184285000Y-100900000D01*
X183985000Y-101200000D02*
X183985000Y-100600000D01*
X184285000Y-100900000D02*
X183985000Y-101200000D01*
X186785000Y-87300000D02*
X189385000Y-87300000D01*
X187585000Y-93400000D02*
X188585000Y-93400000D01*
X188085000Y-93900000D02*
X188085000Y-92900000D01*
X191585000Y-87300000D02*
X193985000Y-87300000D01*
X193985000Y-87300000D02*
X193985000Y-91400000D01*
X193985000Y-95400000D02*
X193985000Y-99500000D01*
X191085000Y-93400000D02*
G75*
G02*
X185085000Y-93400000I-3000000J0D01*
G01*
X185085000Y-93400000D02*
G75*
G02*
X191085000Y-93400000I3000000J0D01*
G01*
%TD*%
%LPC*%
D14*
%TO.C,J6*%
X175440200Y-151800000D03*
X186413000Y-151800000D03*
X184000000Y-151800000D03*
%TD*%
%TO.C,J1*%
X182638000Y-109300000D03*
X193610800Y-109300000D03*
X191197800Y-109300000D03*
%TD*%
D15*
%TO.C,D3*%
X194380000Y-131640000D03*
D16*
X196920000Y-131640000D03*
%TD*%
D15*
%TO.C,D5*%
X194380000Y-145850000D03*
D16*
X196920000Y-145850000D03*
%TD*%
D15*
%TO.C,D2*%
X182154200Y-131640000D03*
D16*
X179614200Y-131640000D03*
%TD*%
D14*
%TO.C,J4*%
X175440200Y-137600000D03*
X186413000Y-137600000D03*
X184000000Y-137600000D03*
%TD*%
%TO.C,J7*%
X201100000Y-151800000D03*
X190127200Y-151800000D03*
X192540200Y-151800000D03*
%TD*%
D15*
%TO.C,D4*%
X182154200Y-145850000D03*
D16*
X179614200Y-145850000D03*
%TD*%
D17*
%TO.C,H1*%
X188085000Y-81300000D03*
%TD*%
D14*
%TO.C,J3*%
X201100000Y-123300000D03*
X190127200Y-123300000D03*
X192540200Y-123300000D03*
%TD*%
%TO.C,J5*%
X201100000Y-137600000D03*
X190127200Y-137600000D03*
X192540200Y-137600000D03*
%TD*%
D17*
%TO.C,H2*%
X188085000Y-119200000D03*
%TD*%
D18*
%TO.C,U1*%
X184264000Y-58400000D03*
D19*
X186804000Y-58400000D03*
X189344000Y-58400000D03*
X191884000Y-58400000D03*
%TD*%
D14*
%TO.C,J2*%
X175440200Y-123300000D03*
X186413000Y-123300000D03*
X184000000Y-123300000D03*
%TD*%
D20*
%TO.C,SW1*%
X185585000Y-100900000D03*
D21*
X190585000Y-100900000D03*
X188085000Y-100900000D03*
D22*
X182485000Y-93400000D03*
X193685000Y-93400000D03*
D21*
X190585000Y-86400000D03*
X185585000Y-86400000D03*
%TD*%
D18*
%TO.C,J9*%
X175200000Y-63700000D03*
D23*
X175200000Y-66240000D03*
X175200000Y-68780000D03*
X175200000Y-71320000D03*
X175200000Y-73860000D03*
X175200000Y-76400000D03*
X175200000Y-78940000D03*
X175200000Y-81480000D03*
%TD*%
D24*
%TO.C,C2*%
X189000000Y-63250000D03*
X194000000Y-63250000D03*
%TD*%
%TO.C,C1*%
X186514600Y-63250000D03*
X181434600Y-63250000D03*
%TD*%
%TO.C,R34*%
X179250000Y-96810000D03*
X179250000Y-89190000D03*
%TD*%
%TO.C,R30*%
X200250000Y-61940000D03*
X200250000Y-69560000D03*
%TD*%
%TO.C,R35*%
X179250000Y-106560000D03*
X179250000Y-98940000D03*
%TD*%
%TO.C,R26*%
X178500000Y-71690000D03*
X178500000Y-79310000D03*
%TD*%
D18*
%TO.C,J8*%
X200900000Y-89500000D03*
D23*
X200900000Y-92040000D03*
X200900000Y-94580000D03*
X200900000Y-97120000D03*
X200900000Y-99660000D03*
X200900000Y-102200000D03*
X200900000Y-104740000D03*
X200900000Y-107280000D03*
%TD*%
D24*
%TO.C,R29*%
X200250000Y-71690000D03*
X200250000Y-79310000D03*
%TD*%
D25*
%TO.C,U2*%
X181900000Y-66450000D03*
D26*
X184440000Y-66450000D03*
X186980000Y-66450000D03*
X189520000Y-66450000D03*
X192060000Y-66450000D03*
X194600000Y-66450000D03*
X197140000Y-66450000D03*
X197140000Y-74070000D03*
X194600000Y-74070000D03*
X192060000Y-74070000D03*
X189520000Y-74070000D03*
X186980000Y-74070000D03*
X184440000Y-74070000D03*
X181900000Y-74070000D03*
%TD*%
D24*
%TO.C,R36*%
X196750000Y-96810000D03*
X196750000Y-89190000D03*
%TD*%
%TO.C,R32*%
X176130000Y-143500000D03*
X183750000Y-143500000D03*
%TD*%
%TO.C,R37*%
X196750000Y-106620000D03*
X196750000Y-99000000D03*
%TD*%
%TO.C,R27*%
X178500000Y-61940000D03*
X178500000Y-69560000D03*
%TD*%
%TO.C,R33*%
X200810000Y-143500000D03*
X193190000Y-143500000D03*
%TD*%
%TO.C,R31*%
X200810000Y-129250000D03*
X193190000Y-129250000D03*
%TD*%
%TO.C,R28*%
X175940000Y-129500000D03*
X183560000Y-129500000D03*
%TD*%
%LPD*%
M02*
