%TF.GenerationSoftware,KiCad,Pcbnew,10.0.5*%
%TF.CreationDate,2026-09-11T13:15:11-03:00*%
%TF.ProjectId,ControlPCB_SMD_V3.1,436f6e74-726f-46c5-9043-425f534d445f,rev?*%
%TF.SameCoordinates,Original*%
%TF.FileFunction,Legend,Bot*%
%TF.FilePolarity,Positive*%
%FSLAX46Y46*%
G04 Gerber Fmt 4.6, Leading zero omitted, Abs format (unit mm)*
G04 Created by KiCad (PCBNEW 10.0.5) date 2026-09-11 13:15:11*
%MOMM*%
%LPD*%
G01*
G04 APERTURE LIST*
%ADD10C,0.152000*%
%ADD11C,0.250000*%
%ADD12C,0.000000*%
%ADD13C,0.150000*%
%ADD14C,0.120000*%
%ADD15C,1.930400*%
%ADD16R,1.800000X1.800000*%
%ADD17C,1.800000*%
%ADD18C,2.200000*%
%ADD19R,1.700000X1.700000*%
%ADD20O,1.700000X1.700000*%
%ADD21R,2.000000X2.000000*%
%ADD22C,2.000000*%
%ADD23R,2.000000X3.200000*%
%ADD24C,1.600000*%
%ADD25R,1.500000X1.050000*%
%ADD26O,1.500000X1.050000*%
%ADD27C,1.700000*%
G04 APERTURE END LIST*
D10*
G36*
X174366443Y-110870977D02*
G01*
X174368311Y-110919502D01*
X174374631Y-110967972D01*
X174387216Y-111015178D01*
X174407329Y-111059911D01*
X174436290Y-111099534D01*
X174474099Y-111130363D01*
X174495724Y-111141034D01*
X174519382Y-111148004D01*
X174567907Y-111153060D01*
X175053925Y-111153060D01*
X175102395Y-111148004D01*
X175126100Y-111141031D01*
X175147733Y-111130363D01*
X175185487Y-111099534D01*
X175214448Y-111059911D01*
X175234561Y-111015178D01*
X175247146Y-110967972D01*
X175253466Y-110919502D01*
X175255389Y-110870977D01*
X175250492Y-110799990D01*
X175235825Y-110730623D01*
X175212036Y-110663951D01*
X175179826Y-110601535D01*
X175009852Y-110601535D01*
X175009852Y-110719907D01*
X175106792Y-110719907D01*
X175130697Y-110793601D01*
X175137337Y-110832165D01*
X175139545Y-110870977D01*
X175138281Y-110901862D01*
X175133829Y-110933351D01*
X175124377Y-110964180D01*
X175108660Y-110991878D01*
X175097984Y-111003025D01*
X175084755Y-111011386D01*
X175069862Y-111016571D01*
X175053925Y-111018311D01*
X174567907Y-111018311D01*
X174551962Y-111016572D01*
X174537022Y-111011386D01*
X174523793Y-111003025D01*
X174513117Y-110991878D01*
X174497345Y-110964180D01*
X174487893Y-110933351D01*
X174483496Y-110901862D01*
X174482287Y-110870977D01*
X174484481Y-110832164D01*
X174491080Y-110793601D01*
X174514985Y-110719907D01*
X174611980Y-110719907D01*
X174611980Y-110601535D01*
X174441950Y-110601535D01*
X174409741Y-110663951D01*
X174385952Y-110730623D01*
X174371326Y-110799989D01*
X174366443Y-110870977D01*
G37*
G36*
X174659672Y-109828157D02*
G01*
X174692544Y-109834313D01*
X174723913Y-109845352D01*
X174752334Y-109862010D01*
X174777490Y-109883524D01*
X174798936Y-109909216D01*
X174816420Y-109937905D01*
X174829765Y-109968402D01*
X174843933Y-109944327D01*
X174861254Y-109922460D01*
X174881486Y-109903481D01*
X174904064Y-109888443D01*
X174928727Y-109877110D01*
X174955062Y-109869539D01*
X175009852Y-109863879D01*
X175042535Y-109865754D01*
X175075907Y-109871462D01*
X175108141Y-109881560D01*
X175137621Y-109896632D01*
X175164307Y-109916390D01*
X175188015Y-109940705D01*
X175207754Y-109968360D01*
X175222636Y-109998023D01*
X175233311Y-110029435D01*
X175240222Y-110062210D01*
X175245277Y-110128320D01*
X175245277Y-110387651D01*
X174376500Y-110387651D01*
X174376500Y-110128320D01*
X174492344Y-110128320D01*
X174492344Y-110252957D01*
X174768106Y-110252957D01*
X174768106Y-110128320D01*
X174883951Y-110128320D01*
X174883951Y-110252957D01*
X175129433Y-110252957D01*
X175129433Y-110128320D01*
X175122509Y-110077927D01*
X175113029Y-110054261D01*
X175098603Y-110033908D01*
X175079775Y-110017714D01*
X175057058Y-110006816D01*
X175032257Y-110000660D01*
X175007324Y-109998627D01*
X174982300Y-110000649D01*
X174956930Y-110006816D01*
X174933702Y-110017751D01*
X174914780Y-110033908D01*
X174900355Y-110054261D01*
X174890875Y-110077927D01*
X174883951Y-110128320D01*
X174768106Y-110128320D01*
X174765578Y-110087379D01*
X174755467Y-110047757D01*
X174735958Y-110011871D01*
X174707656Y-109982910D01*
X174690299Y-109972715D01*
X174670507Y-109965874D01*
X174629566Y-109960819D01*
X174589284Y-109965874D01*
X174569949Y-109972657D01*
X174552135Y-109982910D01*
X174536410Y-109996107D01*
X174523173Y-110011871D01*
X174504324Y-110048361D01*
X174494872Y-110088039D01*
X174492344Y-110128320D01*
X174376500Y-110128320D01*
X174381500Y-110054626D01*
X174388457Y-110018033D01*
X174399141Y-109982855D01*
X174414060Y-109949288D01*
X174433762Y-109917404D01*
X174458059Y-109889029D01*
X174486629Y-109865802D01*
X174518868Y-109847853D01*
X174554003Y-109835577D01*
X174590683Y-109828469D01*
X174627038Y-109826125D01*
X174659672Y-109828157D01*
G37*
G36*
X174376500Y-109438475D02*
G01*
X175031229Y-109671427D01*
X175031229Y-109526622D01*
X174594340Y-109385608D01*
X174557190Y-109373628D01*
X174520041Y-109361648D01*
X174557190Y-109349723D01*
X174594340Y-109337743D01*
X175031229Y-109196729D01*
X175031229Y-109051924D01*
X174376500Y-109284877D01*
X174376500Y-109438475D01*
G37*
G36*
X174366443Y-108602615D02*
G01*
X174371499Y-108673121D01*
X174378410Y-108707786D01*
X174389084Y-108741100D01*
X174403842Y-108772710D01*
X174423046Y-108802210D01*
X174446411Y-108828361D01*
X174473439Y-108850020D01*
X174503595Y-108867154D01*
X174536363Y-108879641D01*
X174570718Y-108887187D01*
X174605660Y-108889698D01*
X174611980Y-108889698D01*
X174611980Y-108754949D01*
X174608188Y-108754949D01*
X174581045Y-108751987D01*
X174554662Y-108743024D01*
X174531030Y-108728366D01*
X174511853Y-108708402D01*
X174497540Y-108684463D01*
X174488552Y-108658009D01*
X174482287Y-108602615D01*
X174484941Y-108571507D01*
X174492948Y-108540901D01*
X174506706Y-108512795D01*
X174526306Y-108489298D01*
X174550948Y-108471075D01*
X174579832Y-108459073D01*
X174610935Y-108452426D01*
X174642150Y-108450225D01*
X174684355Y-108453413D01*
X174704516Y-108458283D01*
X174723373Y-108466602D01*
X174756071Y-108491771D01*
X174780031Y-108525788D01*
X174792616Y-108564861D01*
X174795803Y-108606352D01*
X174795803Y-108741100D01*
X174912912Y-108741100D01*
X175129433Y-108508148D01*
X175129433Y-108884642D01*
X175245277Y-108884642D01*
X175245277Y-108349494D01*
X175129433Y-108349494D01*
X174911648Y-108583710D01*
X174909588Y-108547580D01*
X174903460Y-108512599D01*
X174893241Y-108478613D01*
X174878895Y-108445829D01*
X174860352Y-108415196D01*
X174837349Y-108387302D01*
X174810504Y-108363311D01*
X174780691Y-108344493D01*
X174748208Y-108330680D01*
X174713316Y-108321851D01*
X174642150Y-108315532D01*
X174604567Y-108317426D01*
X174567247Y-108323115D01*
X174531027Y-108333179D01*
X174496740Y-108348285D01*
X174465169Y-108368357D01*
X174436950Y-108393567D01*
X174413166Y-108423019D01*
X174394744Y-108455886D01*
X174381378Y-108491179D01*
X174372763Y-108527657D01*
X174366443Y-108602615D01*
G37*
G36*
X174376500Y-107934201D02*
G01*
X174543946Y-107934201D01*
X174543946Y-107766700D01*
X174376500Y-107766700D01*
X174376500Y-107934201D01*
G37*
G36*
X174376500Y-107124719D02*
G01*
X175104264Y-107124719D01*
X174979627Y-107266997D01*
X175055189Y-107342560D01*
X175245277Y-107124719D01*
X175245277Y-106991290D01*
X174376500Y-106991290D01*
X174376500Y-107124719D01*
G37*
D11*
G36*
X175877500Y-111231363D02*
G01*
X177325463Y-111231363D01*
X177325463Y-110419225D01*
X177132389Y-110419225D01*
X177132389Y-111008980D01*
X176727373Y-111008980D01*
X176727373Y-110553589D01*
X176534299Y-110553589D01*
X176534299Y-111008980D01*
X175877500Y-111008980D01*
X175877500Y-111231363D01*
G37*
G36*
X176721053Y-109152062D02*
G01*
X176760073Y-109163264D01*
X176797715Y-109180364D01*
X176832431Y-109202761D01*
X176862745Y-109229732D01*
X176913120Y-109294761D01*
X176948840Y-109369225D01*
X176970822Y-109447993D01*
X176982363Y-109528777D01*
X176985568Y-109611575D01*
X176982363Y-109694556D01*
X176970822Y-109775340D01*
X176948840Y-109854016D01*
X176913120Y-109928572D01*
X176862745Y-109993601D01*
X176832437Y-110020499D01*
X176797715Y-110042877D01*
X176760080Y-110059929D01*
X176721053Y-110071179D01*
X176639262Y-110079605D01*
X176206953Y-110079605D01*
X176125070Y-110071179D01*
X176086122Y-110059933D01*
X176048500Y-110042877D01*
X176013778Y-110020499D01*
X175983470Y-109993601D01*
X175933095Y-109928572D01*
X175897466Y-109854016D01*
X175875393Y-109775340D01*
X175863852Y-109694556D01*
X175860738Y-109611575D01*
X176053812Y-109611575D01*
X176055827Y-109665156D01*
X176064254Y-109717637D01*
X176082114Y-109769020D01*
X176111423Y-109814174D01*
X176131059Y-109831674D01*
X176154471Y-109844583D01*
X176206953Y-109855024D01*
X176639262Y-109855024D01*
X176691744Y-109844583D01*
X176715139Y-109831670D01*
X176734700Y-109814174D01*
X176764101Y-109769020D01*
X176781961Y-109717637D01*
X176790388Y-109665156D01*
X176792494Y-109611575D01*
X176790388Y-109558177D01*
X176781961Y-109505696D01*
X176764101Y-109454221D01*
X176734700Y-109409159D01*
X176715129Y-109391610D01*
X176691744Y-109378750D01*
X176639262Y-109368217D01*
X176206953Y-109368217D01*
X176154471Y-109378750D01*
X176131069Y-109391606D01*
X176111423Y-109409159D01*
X176082114Y-109454221D01*
X176064254Y-109505696D01*
X176055827Y-109558177D01*
X176053812Y-109611575D01*
X175860738Y-109611575D01*
X175863852Y-109528777D01*
X175875393Y-109447993D01*
X175897466Y-109369225D01*
X175933095Y-109294761D01*
X175983470Y-109229732D01*
X176013784Y-109202761D01*
X176048500Y-109180364D01*
X176086129Y-109163260D01*
X176125070Y-109152062D01*
X176206953Y-109143636D01*
X176639262Y-109143636D01*
X176721053Y-109152062D01*
G37*
G36*
X175877500Y-108661226D02*
G01*
X176968715Y-108661226D01*
X176968715Y-108436736D01*
X176681211Y-108436736D01*
X176730215Y-108413153D01*
X176776649Y-108384255D01*
X176819498Y-108350344D01*
X176857432Y-108311898D01*
X176890453Y-108268972D01*
X176918340Y-108221680D01*
X176959282Y-108119831D01*
X176980256Y-108012853D01*
X176985568Y-107903676D01*
X176775642Y-107903676D01*
X176774542Y-107974018D01*
X176769322Y-108043261D01*
X176757781Y-108111496D01*
X176741020Y-108178633D01*
X176717939Y-108244761D01*
X176685424Y-108306677D01*
X176642377Y-108361174D01*
X176588887Y-108404221D01*
X176524865Y-108429409D01*
X176456721Y-108436736D01*
X175877500Y-108436736D01*
X175877500Y-108661226D01*
G37*
G36*
X176968715Y-106867323D02*
G01*
X176815575Y-106867323D01*
X176857271Y-106893563D01*
X176894252Y-106926125D01*
X176925277Y-106963993D01*
X176948749Y-107005809D01*
X176965808Y-107050846D01*
X176977142Y-107098133D01*
X176985568Y-107194670D01*
X176978149Y-107291207D01*
X176967616Y-107338326D01*
X176950855Y-107382523D01*
X176927884Y-107423574D01*
X176898465Y-107461200D01*
X176863537Y-107493786D01*
X176823910Y-107520001D01*
X176780668Y-107539658D01*
X176734700Y-107552516D01*
X176639262Y-107561950D01*
X176206953Y-107561950D01*
X176111423Y-107552516D01*
X176065534Y-107539661D01*
X176022305Y-107520001D01*
X175982737Y-107493796D01*
X175947750Y-107461200D01*
X175918311Y-107423578D01*
X175895268Y-107382523D01*
X175878578Y-107338330D01*
X175868066Y-107291207D01*
X175860738Y-107194670D01*
X175868797Y-107102346D01*
X176053812Y-107102346D01*
X176055827Y-107155927D01*
X176065261Y-107207309D01*
X176083121Y-107256677D01*
X176112522Y-107299633D01*
X176155478Y-107327935D01*
X176206953Y-107337369D01*
X176639262Y-107337369D01*
X176690645Y-107327935D01*
X176733693Y-107299633D01*
X176763002Y-107256677D01*
X176780862Y-107207309D01*
X176790388Y-107155927D01*
X176792494Y-107102346D01*
X176790388Y-107048857D01*
X176780862Y-106997474D01*
X176763002Y-106948198D01*
X176733693Y-106905150D01*
X176690645Y-106876757D01*
X176639262Y-106867323D01*
X176206953Y-106867323D01*
X176155478Y-106876757D01*
X176112522Y-106905150D01*
X176083121Y-106948198D01*
X176065261Y-106997474D01*
X176055827Y-107048857D01*
X176053812Y-107102346D01*
X175868797Y-107102346D01*
X175869165Y-107098133D01*
X175880407Y-107050844D01*
X175897375Y-107005809D01*
X175920917Y-106963989D01*
X175951963Y-106926125D01*
X175988959Y-106893569D01*
X176030731Y-106867323D01*
X175745334Y-106867323D01*
X175694959Y-106876757D01*
X175651911Y-106904051D01*
X175622510Y-106944993D01*
X175604741Y-106993261D01*
X175595307Y-107044644D01*
X175592102Y-107096026D01*
X175594208Y-107143287D01*
X175600528Y-107190457D01*
X175612069Y-107236618D01*
X175633043Y-107278659D01*
X175667664Y-107311174D01*
X175689387Y-107321477D01*
X175711720Y-107324821D01*
X175713826Y-107324821D01*
X175713826Y-107549310D01*
X175705400Y-107549310D01*
X175654095Y-107544311D01*
X175605749Y-107529435D01*
X175561108Y-107505544D01*
X175521760Y-107473839D01*
X175488182Y-107435770D01*
X175460943Y-107393056D01*
X175423208Y-107298626D01*
X175404340Y-107197875D01*
X175399028Y-107096026D01*
X175405348Y-106988040D01*
X175428428Y-106883077D01*
X175448095Y-106832937D01*
X175473583Y-106785441D01*
X175505332Y-106742399D01*
X175543833Y-106705757D01*
X175588338Y-106676922D01*
X175638264Y-106657488D01*
X175691263Y-106646430D01*
X175745334Y-106642742D01*
X176968715Y-106642742D01*
X176968715Y-106867323D01*
G37*
G36*
X176721053Y-105375580D02*
G01*
X176760073Y-105386781D01*
X176797715Y-105403881D01*
X176832431Y-105426278D01*
X176862745Y-105453249D01*
X176913120Y-105518278D01*
X176948840Y-105592742D01*
X176970822Y-105671510D01*
X176982363Y-105752294D01*
X176985568Y-105835092D01*
X176982363Y-105918073D01*
X176970822Y-105998857D01*
X176948840Y-106077534D01*
X176913120Y-106152089D01*
X176862745Y-106217118D01*
X176832437Y-106244016D01*
X176797715Y-106266394D01*
X176760080Y-106283446D01*
X176721053Y-106294696D01*
X176639262Y-106303122D01*
X176206953Y-106303122D01*
X176125070Y-106294696D01*
X176086276Y-106283414D01*
X176049508Y-106266394D01*
X175984478Y-106217118D01*
X175933095Y-106153096D01*
X175897466Y-106079640D01*
X175875393Y-106000963D01*
X175863852Y-105920180D01*
X175860738Y-105837199D01*
X175865959Y-105731319D01*
X175885834Y-105627363D01*
X175925768Y-105529819D01*
X175954429Y-105485386D01*
X175989790Y-105446929D01*
X176031355Y-105415252D01*
X176078908Y-105391333D01*
X176130009Y-105376320D01*
X176181765Y-105371366D01*
X176196511Y-105371366D01*
X176196511Y-105593841D01*
X176190191Y-105593841D01*
X176165655Y-105596946D01*
X176141923Y-105606389D01*
X176101989Y-105638904D01*
X176075794Y-105684058D01*
X176061140Y-105734433D01*
X176053812Y-105785816D01*
X176051706Y-105837199D01*
X176053812Y-105891787D01*
X176062147Y-105945368D01*
X176080007Y-105996750D01*
X176110416Y-106040806D01*
X176154471Y-106070206D01*
X176206953Y-106080648D01*
X176326571Y-106080648D01*
X176519644Y-106080648D01*
X176639262Y-106080648D01*
X176691744Y-106070206D01*
X176735799Y-106039798D01*
X176766208Y-105994644D01*
X176784068Y-105943261D01*
X176792494Y-105889680D01*
X176794601Y-105835092D01*
X176792494Y-105780595D01*
X176784068Y-105727106D01*
X176766208Y-105675632D01*
X176735799Y-105630569D01*
X176691744Y-105600161D01*
X176639262Y-105589628D01*
X176519644Y-105589628D01*
X176519644Y-106080648D01*
X176326571Y-106080648D01*
X176326571Y-105367153D01*
X176639262Y-105367153D01*
X176721053Y-105375580D01*
G37*
G36*
X175860738Y-104578371D02*
G01*
X175868066Y-104692768D01*
X175878823Y-104749512D01*
X175896367Y-104804051D01*
X175920739Y-104855683D01*
X175951963Y-104903702D01*
X175989703Y-104946709D01*
X176033754Y-104983478D01*
X176083115Y-105012566D01*
X176136611Y-105032754D01*
X176192676Y-105044590D01*
X176248901Y-105048508D01*
X176269967Y-105048508D01*
X176269967Y-104823927D01*
X176259434Y-104823927D01*
X176214342Y-104818967D01*
X176171232Y-104804051D01*
X176132801Y-104780051D01*
X176101989Y-104748456D01*
X176079028Y-104710535D01*
X176064254Y-104667581D01*
X176053812Y-104578371D01*
X176063246Y-104491359D01*
X176076350Y-104449875D01*
X176096769Y-104411584D01*
X176124771Y-104378878D01*
X176160791Y-104353881D01*
X176201810Y-104338125D01*
X176244780Y-104332907D01*
X176295564Y-104339897D01*
X176344339Y-104361209D01*
X176387815Y-104393336D01*
X176423107Y-104432558D01*
X176451661Y-104477354D01*
X176474490Y-104525981D01*
X176514332Y-104625632D01*
X176557380Y-104724275D01*
X176609862Y-104817607D01*
X176675990Y-104900497D01*
X176714770Y-104936946D01*
X176757781Y-104968732D01*
X176804702Y-104994417D01*
X176855417Y-105012787D01*
X176908136Y-105023811D01*
X176960381Y-105027442D01*
X177016308Y-105023512D01*
X177070473Y-105011780D01*
X177122422Y-104992376D01*
X177171223Y-104965618D01*
X177215057Y-104931471D01*
X177252007Y-104890055D01*
X177282453Y-104843107D01*
X177306595Y-104792511D01*
X177324201Y-104739337D01*
X177334897Y-104685441D01*
X177342315Y-104574158D01*
X177333889Y-104461959D01*
X177322335Y-104407174D01*
X177304488Y-104353881D01*
X177280073Y-104303456D01*
X177248893Y-104257344D01*
X177211178Y-104216488D01*
X177167010Y-104181782D01*
X177117964Y-104154477D01*
X177065252Y-104135620D01*
X177010167Y-104124561D01*
X176954061Y-104120874D01*
X176933087Y-104120874D01*
X176933087Y-104345455D01*
X176943528Y-104345455D01*
X176986779Y-104349663D01*
X177028524Y-104362308D01*
X177066334Y-104383303D01*
X177097767Y-104412683D01*
X177121971Y-104448356D01*
X177137701Y-104488154D01*
X177149241Y-104574158D01*
X177139716Y-104658147D01*
X177126295Y-104698119D01*
X177105095Y-104733709D01*
X177076645Y-104763251D01*
X177041164Y-104785092D01*
X177001458Y-104798508D01*
X176960381Y-104802952D01*
X176907681Y-104795893D01*
X176858531Y-104774651D01*
X176815120Y-104742474D01*
X176779855Y-104703301D01*
X176751281Y-104658509D01*
X176728381Y-104609878D01*
X176688538Y-104510227D01*
X176645582Y-104412591D01*
X176593101Y-104319260D01*
X176526972Y-104235271D01*
X176488122Y-104199057D01*
X176445089Y-104168135D01*
X176398490Y-104143000D01*
X176348552Y-104124079D01*
X176296480Y-104112277D01*
X176242673Y-104108326D01*
X176186417Y-104112514D01*
X176130382Y-104125178D01*
X176076974Y-104145961D01*
X176028625Y-104174454D01*
X175985729Y-104210527D01*
X175948849Y-104254230D01*
X175918601Y-104303066D01*
X175895268Y-104354889D01*
X175878533Y-104409167D01*
X175868066Y-104465073D01*
X175860738Y-104578371D01*
G37*
G36*
X176721053Y-102857924D02*
G01*
X176760073Y-102869126D01*
X176797715Y-102886226D01*
X176832431Y-102908623D01*
X176862745Y-102935594D01*
X176913120Y-103000623D01*
X176948840Y-103075087D01*
X176970822Y-103153855D01*
X176982363Y-103234638D01*
X176985568Y-103317437D01*
X176982363Y-103400418D01*
X176970822Y-103481202D01*
X176948840Y-103559878D01*
X176913120Y-103634433D01*
X176862745Y-103699463D01*
X176832437Y-103726360D01*
X176797715Y-103748739D01*
X176760080Y-103765791D01*
X176721053Y-103777041D01*
X176639262Y-103785467D01*
X176206953Y-103785467D01*
X176125070Y-103777041D01*
X176086276Y-103765758D01*
X176049508Y-103748739D01*
X175984478Y-103699463D01*
X175933095Y-103635441D01*
X175897466Y-103561985D01*
X175875393Y-103483308D01*
X175863852Y-103402525D01*
X175860738Y-103319543D01*
X175865959Y-103213664D01*
X175885834Y-103109708D01*
X175925768Y-103012164D01*
X175954429Y-102967731D01*
X175989790Y-102929274D01*
X176031355Y-102897597D01*
X176078908Y-102873678D01*
X176130009Y-102858664D01*
X176181765Y-102853711D01*
X176196511Y-102853711D01*
X176196511Y-103076186D01*
X176190191Y-103076186D01*
X176165655Y-103079290D01*
X176141923Y-103088734D01*
X176101989Y-103121249D01*
X176075794Y-103166403D01*
X176061140Y-103216778D01*
X176053812Y-103268161D01*
X176051706Y-103319543D01*
X176053812Y-103374132D01*
X176062147Y-103427712D01*
X176080007Y-103479095D01*
X176110416Y-103523150D01*
X176154471Y-103552551D01*
X176206953Y-103562992D01*
X176326571Y-103562992D01*
X176519644Y-103562992D01*
X176639262Y-103562992D01*
X176691744Y-103552551D01*
X176735799Y-103522143D01*
X176766208Y-103476988D01*
X176784068Y-103425606D01*
X176792494Y-103372025D01*
X176794601Y-103317437D01*
X176792494Y-103262940D01*
X176784068Y-103209451D01*
X176766208Y-103157977D01*
X176735799Y-103112914D01*
X176691744Y-103082506D01*
X176639262Y-103071973D01*
X176519644Y-103071973D01*
X176519644Y-103562992D01*
X176326571Y-103562992D01*
X176326571Y-102849498D01*
X176639262Y-102849498D01*
X176721053Y-102857924D01*
G37*
G36*
X175877500Y-102367088D02*
G01*
X176968715Y-102367088D01*
X176968715Y-102142598D01*
X176681211Y-102142598D01*
X176730215Y-102119014D01*
X176776649Y-102090116D01*
X176819498Y-102056206D01*
X176857432Y-102017759D01*
X176890453Y-101974834D01*
X176918340Y-101927542D01*
X176959282Y-101825693D01*
X176980256Y-101718715D01*
X176985568Y-101609538D01*
X176775642Y-101609538D01*
X176774542Y-101679880D01*
X176769322Y-101749123D01*
X176757781Y-101817358D01*
X176741020Y-101884494D01*
X176717939Y-101950623D01*
X176685424Y-102012539D01*
X176642377Y-102067035D01*
X176588887Y-102110083D01*
X176524865Y-102135271D01*
X176456721Y-102142598D01*
X175877500Y-102142598D01*
X175877500Y-102367088D01*
G37*
G36*
X175877500Y-101221650D02*
G01*
X176070573Y-101221650D01*
X176070573Y-100894212D01*
X176775642Y-100894212D01*
X176775642Y-101188036D01*
X176968715Y-101188036D01*
X176968715Y-100671829D01*
X176070573Y-100671829D01*
X176070573Y-100378005D01*
X175877500Y-100378005D01*
X175877500Y-101221650D01*
G37*
G36*
X177163896Y-100921598D02*
G01*
X177432533Y-100921598D01*
X177432533Y-100652961D01*
X177163896Y-100652961D01*
X177163896Y-100921598D01*
G37*
G36*
X176721053Y-99081441D02*
G01*
X176760073Y-99092643D01*
X176797715Y-99109743D01*
X176832431Y-99132140D01*
X176862745Y-99159111D01*
X176913120Y-99224140D01*
X176948840Y-99298604D01*
X176970822Y-99377372D01*
X176982363Y-99458155D01*
X176985568Y-99540954D01*
X176982363Y-99623935D01*
X176970822Y-99704719D01*
X176948840Y-99783395D01*
X176913120Y-99857950D01*
X176862745Y-99922980D01*
X176832437Y-99949877D01*
X176797715Y-99972256D01*
X176760080Y-99989308D01*
X176721053Y-100000558D01*
X176639262Y-100008984D01*
X176206953Y-100008984D01*
X176125070Y-100000558D01*
X176086276Y-99989276D01*
X176049508Y-99972256D01*
X175984478Y-99922980D01*
X175933095Y-99858958D01*
X175897466Y-99785502D01*
X175875393Y-99706825D01*
X175863852Y-99626042D01*
X175860738Y-99543060D01*
X175865959Y-99437181D01*
X175885834Y-99333225D01*
X175925768Y-99235681D01*
X175954429Y-99191248D01*
X175989790Y-99152791D01*
X176031355Y-99121114D01*
X176078908Y-99097195D01*
X176130009Y-99082181D01*
X176181765Y-99077228D01*
X176196511Y-99077228D01*
X176196511Y-99299703D01*
X176190191Y-99299703D01*
X176165655Y-99302808D01*
X176141923Y-99312251D01*
X176101989Y-99344766D01*
X176075794Y-99389920D01*
X176061140Y-99440295D01*
X176053812Y-99491678D01*
X176051706Y-99543060D01*
X176053812Y-99597649D01*
X176062147Y-99651229D01*
X176080007Y-99702612D01*
X176110416Y-99746667D01*
X176154471Y-99776068D01*
X176206953Y-99786509D01*
X176326571Y-99786509D01*
X176519644Y-99786509D01*
X176639262Y-99786509D01*
X176691744Y-99776068D01*
X176735799Y-99745660D01*
X176766208Y-99700505D01*
X176784068Y-99649123D01*
X176792494Y-99595542D01*
X176794601Y-99540954D01*
X176792494Y-99486457D01*
X176784068Y-99432968D01*
X176766208Y-99381494D01*
X176735799Y-99336431D01*
X176691744Y-99306023D01*
X176639262Y-99295490D01*
X176519644Y-99295490D01*
X176519644Y-99786509D01*
X176326571Y-99786509D01*
X176326571Y-99073015D01*
X176639262Y-99073015D01*
X176721053Y-99081441D01*
G37*
G36*
X175860738Y-98284233D02*
G01*
X175865959Y-98386082D01*
X175883728Y-98485733D01*
X175920456Y-98580163D01*
X175947615Y-98623874D01*
X175980265Y-98662046D01*
X176018945Y-98693642D01*
X176064254Y-98717642D01*
X176113262Y-98732591D01*
X176162897Y-98737517D01*
X176175537Y-98737517D01*
X176175537Y-98515134D01*
X176171324Y-98515134D01*
X176148912Y-98512044D01*
X176127177Y-98502586D01*
X176092555Y-98469979D01*
X176071581Y-98426932D01*
X176060040Y-98379762D01*
X176053812Y-98331494D01*
X176051706Y-98284233D01*
X176053812Y-98237063D01*
X176060040Y-98188795D01*
X176071581Y-98141534D01*
X176092555Y-98098578D01*
X176126169Y-98064964D01*
X176147327Y-98054763D01*
X176171324Y-98051317D01*
X176201194Y-98056473D01*
X176228934Y-98072291D01*
X176252677Y-98095225D01*
X176270975Y-98121659D01*
X176296162Y-98181468D01*
X176312923Y-98244391D01*
X176328677Y-98307405D01*
X176346537Y-98369229D01*
X176366413Y-98430137D01*
X176390593Y-98489946D01*
X176421001Y-98547649D01*
X176457729Y-98601138D01*
X176501784Y-98648399D01*
X176554266Y-98685127D01*
X176614075Y-98708208D01*
X176676998Y-98716543D01*
X176726522Y-98711835D01*
X176774542Y-98697675D01*
X176819531Y-98675329D01*
X176859539Y-98646292D01*
X176893911Y-98610849D01*
X176921454Y-98569631D01*
X176960289Y-98477307D01*
X176980256Y-98379762D01*
X176985568Y-98280020D01*
X176980256Y-98180460D01*
X176961388Y-98083923D01*
X176923561Y-97992607D01*
X176896470Y-97950993D01*
X176863752Y-97914938D01*
X176825407Y-97885132D01*
X176780862Y-97862456D01*
X176732841Y-97848295D01*
X176683318Y-97843588D01*
X176670770Y-97843588D01*
X176670770Y-98065971D01*
X176674983Y-98065971D01*
X176706438Y-98071921D01*
X176734700Y-98090151D01*
X176757671Y-98116265D01*
X176773535Y-98145747D01*
X176790388Y-98211876D01*
X176794601Y-98280020D01*
X176790388Y-98348255D01*
X176773535Y-98414384D01*
X176757940Y-98444142D01*
X176735799Y-98471079D01*
X176708292Y-98489991D01*
X176676998Y-98496174D01*
X176645297Y-98490935D01*
X176617189Y-98475200D01*
X176593514Y-98452288D01*
X176575240Y-98425924D01*
X176550053Y-98366115D01*
X176533292Y-98303192D01*
X176517538Y-98241277D01*
X176499678Y-98179361D01*
X176479711Y-98117445D01*
X176455622Y-98057636D01*
X176426222Y-97999934D01*
X176389494Y-97946445D01*
X176344339Y-97900283D01*
X176291949Y-97863555D01*
X176232140Y-97839375D01*
X176169217Y-97830949D01*
X176119430Y-97835873D01*
X176069474Y-97850915D01*
X176023142Y-97874946D01*
X175983470Y-97906603D01*
X175949883Y-97944608D01*
X175922562Y-97987386D01*
X175884827Y-98081816D01*
X175865959Y-98182475D01*
X175860738Y-98284233D01*
G37*
D12*
G36*
X188048565Y-68601227D02*
G01*
X187986835Y-68580649D01*
X187986835Y-68909855D01*
X187945690Y-68930440D01*
X187966260Y-68518926D01*
X188007410Y-68498349D01*
X188048565Y-68601227D01*
G37*
G36*
X188085699Y-74753201D02*
G01*
X188090059Y-75102958D01*
X188089713Y-75452839D01*
X187986835Y-75473412D01*
X187986835Y-75411684D01*
X188048565Y-75411684D01*
X188048565Y-74053715D01*
X188069136Y-74053715D01*
X188085699Y-74753201D01*
G37*
G36*
X186221405Y-71255747D02*
G01*
X186244989Y-71256640D01*
X186267854Y-71258165D01*
X186290280Y-71260335D01*
X186312606Y-71263180D01*
X186335118Y-71266729D01*
X186358129Y-71271006D01*
X186381952Y-71276030D01*
X186381952Y-71296609D01*
X186258498Y-71296609D01*
X186237926Y-71358333D01*
X186196775Y-71255452D01*
X186221405Y-71255747D01*
G37*
G36*
X188048565Y-68601227D02*
G01*
X187986835Y-68580649D01*
X187986835Y-70473584D01*
X187966260Y-70473584D01*
X187956863Y-70197318D01*
X187949668Y-69921068D01*
X187944998Y-69644758D01*
X187943174Y-69368342D01*
X187943114Y-69311084D01*
X187943941Y-69112736D01*
X187947801Y-68914791D01*
X187955109Y-68716956D01*
X187966260Y-68518926D01*
X188007410Y-68498349D01*
X188048565Y-68601227D01*
G37*
G36*
X190085407Y-67793646D02*
G01*
X190085118Y-67800186D01*
X190084566Y-67806177D01*
X190083641Y-67811817D01*
X190082269Y-67817275D01*
X190080360Y-67822725D01*
X190077811Y-67828363D01*
X190074543Y-67834363D01*
X190070464Y-67840899D01*
X190065471Y-67848162D01*
X190059486Y-67856338D01*
X190044175Y-67876101D01*
X190023806Y-67901664D01*
X190023806Y-67798786D01*
X189797471Y-67819361D01*
X189776898Y-67778209D01*
X190085526Y-67778209D01*
X190085407Y-67793646D01*
G37*
G36*
X193064525Y-70115848D02*
G01*
X193059836Y-70127847D01*
X193054900Y-70139303D01*
X193049701Y-70150283D01*
X193044244Y-70160843D01*
X193038519Y-70171052D01*
X193032538Y-70180970D01*
X193026275Y-70190671D01*
X193019746Y-70200199D01*
X193012936Y-70209638D01*
X193005849Y-70219048D01*
X192998472Y-70228481D01*
X192982871Y-70247711D01*
X192966088Y-70267833D01*
X192945518Y-70164956D01*
X193007234Y-70144379D01*
X193027811Y-70103230D01*
X193068970Y-70103230D01*
X193064525Y-70115848D01*
G37*
G36*
X186204120Y-72581073D02*
G01*
X186207291Y-72584621D01*
X186210260Y-72587629D01*
X186213154Y-72590139D01*
X186214606Y-72591224D01*
X186216069Y-72592193D01*
X186217567Y-72593046D01*
X186219114Y-72593797D01*
X186220723Y-72594457D01*
X186222390Y-72595021D01*
X186224153Y-72595485D01*
X186226023Y-72595862D01*
X186230097Y-72596378D01*
X186234739Y-72596578D01*
X186240045Y-72596507D01*
X186246119Y-72596199D01*
X186253078Y-72595675D01*
X186270074Y-72594138D01*
X186320224Y-72592858D01*
X186299647Y-72654580D01*
X186285572Y-72659257D01*
X186274504Y-72662862D01*
X186265477Y-72665611D01*
X186257538Y-72667761D01*
X186249716Y-72669550D01*
X186241053Y-72671221D01*
X186230590Y-72673009D01*
X186217348Y-72675152D01*
X186210565Y-72661459D01*
X186207812Y-72655673D01*
X186205456Y-72650406D01*
X186203464Y-72645490D01*
X186201807Y-72640801D01*
X186200434Y-72636162D01*
X186199347Y-72631432D01*
X186198496Y-72626469D01*
X186197860Y-72621108D01*
X186197401Y-72615203D01*
X186197096Y-72608618D01*
X186196818Y-72592737D01*
X186196775Y-72572278D01*
X186204120Y-72581073D01*
G37*
G36*
X186378475Y-67818563D02*
G01*
X186396114Y-67858338D01*
X186414342Y-67897587D01*
X186433209Y-67936437D01*
X186452729Y-67974957D01*
X186472962Y-68013238D01*
X186493932Y-68051354D01*
X186515689Y-68089415D01*
X186562820Y-68171635D01*
X186608682Y-68254452D01*
X186653519Y-68337836D01*
X186697536Y-68421764D01*
X186814435Y-68646676D01*
X186873809Y-68758632D01*
X186934334Y-68869994D01*
X186959349Y-68915000D01*
X186991886Y-68973264D01*
X187024691Y-69031358D01*
X187057864Y-69089233D01*
X187091484Y-69146880D01*
X187123309Y-69200481D01*
X187185682Y-69305933D01*
X187208100Y-69342953D01*
X187229249Y-69378916D01*
X187248734Y-69414486D01*
X187257738Y-69432318D01*
X187266182Y-69450307D01*
X187274010Y-69468519D01*
X187281195Y-69487053D01*
X187287668Y-69505970D01*
X187293393Y-69525378D01*
X187298327Y-69545338D01*
X187302410Y-69565946D01*
X187305598Y-69587282D01*
X187307848Y-69609425D01*
X187297017Y-69617463D01*
X187286563Y-69624883D01*
X187276410Y-69631698D01*
X187266468Y-69637945D01*
X187256673Y-69643645D01*
X187246941Y-69648839D01*
X187237181Y-69653544D01*
X187227330Y-69657792D01*
X187217307Y-69661621D01*
X187207030Y-69665045D01*
X187196404Y-69668105D01*
X187185372Y-69670819D01*
X187173847Y-69673224D01*
X187161755Y-69675352D01*
X187149008Y-69677218D01*
X187135527Y-69678864D01*
X187100014Y-69664760D01*
X187084806Y-69657500D01*
X187070680Y-69649232D01*
X187057142Y-69639294D01*
X187043734Y-69627051D01*
X187029972Y-69611839D01*
X187015395Y-69593008D01*
X186999511Y-69569909D01*
X186981862Y-69541896D01*
X186939356Y-69468497D01*
X186884094Y-69367593D01*
X186812281Y-69233979D01*
X186776747Y-69167047D01*
X186646942Y-68923011D01*
X186518267Y-68678387D01*
X186479448Y-68604586D01*
X186440089Y-68531167D01*
X186399929Y-68458163D01*
X186358720Y-68385683D01*
X186314920Y-68309569D01*
X186272032Y-68233069D01*
X186230183Y-68156004D01*
X186189509Y-68078176D01*
X186167205Y-68034119D01*
X186151294Y-68002392D01*
X186136634Y-67971403D01*
X186123195Y-67940758D01*
X186110943Y-67910025D01*
X186099856Y-67878818D01*
X186094740Y-67862897D01*
X186089912Y-67846718D01*
X186085351Y-67830203D01*
X186081075Y-67813313D01*
X186077064Y-67796001D01*
X186073321Y-67778209D01*
X186361382Y-67778209D01*
X186378475Y-67818563D01*
G37*
G36*
X190085486Y-67791878D02*
G01*
X190085382Y-67797589D01*
X190085183Y-67802720D01*
X190084859Y-67807385D01*
X190084363Y-67811731D01*
X190083677Y-67815881D01*
X190082768Y-67819956D01*
X190081588Y-67824081D01*
X190080130Y-67828397D01*
X190078341Y-67833015D01*
X190076198Y-67838073D01*
X190073672Y-67843709D01*
X190070722Y-67850027D01*
X190063424Y-67865254D01*
X190030235Y-67926096D01*
X190001414Y-67978830D01*
X189972345Y-68031416D01*
X189943010Y-68083859D01*
X189913405Y-68136161D01*
X189822377Y-68296076D01*
X189732702Y-68456598D01*
X189644951Y-68618166D01*
X189559718Y-68781238D01*
X189483311Y-68930217D01*
X189405877Y-69078572D01*
X189326757Y-69226022D01*
X189245261Y-69372291D01*
X189207212Y-69438391D01*
X189171293Y-69501719D01*
X189137529Y-69559509D01*
X189130165Y-69572016D01*
X189122999Y-69583746D01*
X189115940Y-69594731D01*
X189108907Y-69605037D01*
X189101810Y-69614706D01*
X189094565Y-69623774D01*
X189087085Y-69632287D01*
X189079285Y-69640305D01*
X189071081Y-69647856D01*
X189062379Y-69654992D01*
X189053104Y-69661767D01*
X189043159Y-69668223D01*
X189032465Y-69674392D01*
X189020941Y-69680334D01*
X189008487Y-69686100D01*
X188995030Y-69691720D01*
X188977702Y-69679974D01*
X188969604Y-69674267D01*
X188961846Y-69668615D01*
X188954407Y-69662938D01*
X188947276Y-69657209D01*
X188940421Y-69651365D01*
X188933797Y-69645361D01*
X188927417Y-69639133D01*
X188921226Y-69632628D01*
X188915219Y-69625814D01*
X188909363Y-69618604D01*
X188903639Y-69610986D01*
X188898020Y-69602870D01*
X188892486Y-69594221D01*
X188887004Y-69584987D01*
X188871574Y-69547693D01*
X188830427Y-69547693D01*
X188830460Y-69527245D01*
X188830541Y-69518830D01*
X188830695Y-69511435D01*
X188830964Y-69504896D01*
X188831351Y-69499085D01*
X188831892Y-69493858D01*
X188832616Y-69489064D01*
X188833539Y-69484550D01*
X188834702Y-69480182D01*
X188836120Y-69475822D01*
X188837819Y-69471318D01*
X188839819Y-69466523D01*
X188842156Y-69461292D01*
X188847932Y-69448952D01*
X188872701Y-69407443D01*
X188900457Y-69360349D01*
X188931121Y-69308917D01*
X188961615Y-69257387D01*
X188993188Y-69203618D01*
X189030548Y-69139617D01*
X189067504Y-69075394D01*
X189104049Y-69010948D01*
X189140238Y-68946272D01*
X189166064Y-68899564D01*
X189244581Y-68757198D01*
X189322632Y-68614566D01*
X189416600Y-68442228D01*
X189568913Y-68163195D01*
X189720312Y-67883662D01*
X189776898Y-67778209D01*
X190085526Y-67778209D01*
X190085486Y-67791878D01*
G37*
G36*
X190722672Y-67757277D02*
G01*
X190743300Y-67758364D01*
X190763945Y-67760037D01*
X190805281Y-67764823D01*
X190846630Y-67771073D01*
X190887971Y-67778209D01*
X190863149Y-67830050D01*
X190837735Y-67881512D01*
X190811768Y-67932624D01*
X190785277Y-67983426D01*
X190730872Y-68084329D01*
X190674798Y-68184559D01*
X190530788Y-68439510D01*
X190459920Y-68567605D01*
X190390090Y-68696306D01*
X190228509Y-68995585D01*
X190146585Y-69144585D01*
X190063664Y-69293072D01*
X189956115Y-69485046D01*
X189903015Y-69581395D01*
X189850596Y-69678140D01*
X189767785Y-69832200D01*
X189684168Y-69985822D01*
X189653441Y-70041508D01*
X189611517Y-70116915D01*
X189590260Y-70154453D01*
X189568715Y-70191838D01*
X189542848Y-70235691D01*
X189532057Y-70254636D01*
X189521364Y-70272412D01*
X189510562Y-70289309D01*
X189499444Y-70305622D01*
X189487802Y-70321627D01*
X189475437Y-70337617D01*
X189462133Y-70353884D01*
X189447689Y-70370716D01*
X189420464Y-70377869D01*
X189407770Y-70380985D01*
X189395569Y-70383728D01*
X189383779Y-70386047D01*
X189372287Y-70387892D01*
X189361029Y-70389209D01*
X189349902Y-70389960D01*
X189338815Y-70390081D01*
X189327676Y-70389540D01*
X189316401Y-70388271D01*
X189304897Y-70386244D01*
X189293076Y-70383391D01*
X189280849Y-70379673D01*
X189268114Y-70375033D01*
X189254793Y-70369424D01*
X189246818Y-70359521D01*
X189239694Y-70349868D01*
X189233379Y-70340385D01*
X189227813Y-70331038D01*
X189222953Y-70321740D01*
X189218739Y-70312443D01*
X189215120Y-70303095D01*
X189212045Y-70293608D01*
X189209460Y-70283949D01*
X189207318Y-70274046D01*
X189205574Y-70263834D01*
X189204147Y-70253269D01*
X189203014Y-70242273D01*
X189202100Y-70230781D01*
X189200785Y-70206105D01*
X189282516Y-70090372D01*
X189346101Y-69998581D01*
X189396529Y-69922019D01*
X189418353Y-69886725D01*
X189438761Y-69851969D01*
X189458364Y-69816666D01*
X189477782Y-69779716D01*
X189518561Y-69696557D01*
X189566081Y-69593782D01*
X189625298Y-69462657D01*
X189702967Y-69311239D01*
X189722880Y-69272502D01*
X189791956Y-69139392D01*
X189862266Y-69007064D01*
X189934255Y-68875644D01*
X190008372Y-68745250D01*
X190053829Y-68666739D01*
X190098620Y-68587947D01*
X190142454Y-68508617D01*
X190185025Y-68428505D01*
X190241620Y-68319215D01*
X190298919Y-68210293D01*
X190319097Y-68172092D01*
X190338989Y-68133797D01*
X190358493Y-68095320D01*
X190377531Y-68056539D01*
X190413549Y-67981071D01*
X190432572Y-67943303D01*
X190442571Y-67924674D01*
X190452973Y-67906314D01*
X190463855Y-67888299D01*
X190475272Y-67870707D01*
X190487296Y-67853607D01*
X190499987Y-67837090D01*
X190513413Y-67821213D01*
X190527646Y-67806053D01*
X190542733Y-67791694D01*
X190558760Y-67778209D01*
X190579104Y-67772041D01*
X190599497Y-67767023D01*
X190619933Y-67763103D01*
X190640417Y-67760191D01*
X190660930Y-67758228D01*
X190681477Y-67757139D01*
X190702064Y-67756844D01*
X190722672Y-67757277D01*
G37*
G36*
X185569839Y-67778293D02*
G01*
X185581533Y-67781483D01*
X185593209Y-67787286D01*
X185605483Y-67796616D01*
X185618932Y-67810368D01*
X185634149Y-67829417D01*
X185651728Y-67854690D01*
X185696342Y-67927413D01*
X185757526Y-68035717D01*
X185948513Y-68387709D01*
X186016655Y-68513934D01*
X186085276Y-68639904D01*
X186167555Y-68789826D01*
X186248666Y-68940227D01*
X186328044Y-69091543D01*
X186405105Y-69244210D01*
X186451810Y-69338450D01*
X186499198Y-69432316D01*
X186547353Y-69525780D01*
X186596370Y-69618837D01*
X186621782Y-69666406D01*
X186685469Y-69785625D01*
X186749446Y-69904675D01*
X186798304Y-69995473D01*
X186821268Y-70038370D01*
X186837689Y-70068765D01*
X186853308Y-70098778D01*
X186867876Y-70128734D01*
X186874702Y-70143788D01*
X186881177Y-70158944D01*
X186887280Y-70174236D01*
X186892974Y-70189703D01*
X186898229Y-70205379D01*
X186903011Y-70221327D01*
X186907311Y-70237558D01*
X186911072Y-70254123D01*
X186914283Y-70271067D01*
X186916913Y-70288406D01*
X186873188Y-70329560D01*
X186860782Y-70337951D01*
X186849080Y-70345341D01*
X186837957Y-70351791D01*
X186827286Y-70357332D01*
X186816970Y-70362017D01*
X186806848Y-70365892D01*
X186796836Y-70369011D01*
X186786787Y-70371418D01*
X186776581Y-70373160D01*
X186766104Y-70374284D01*
X186755224Y-70374831D01*
X186743835Y-70374861D01*
X186731790Y-70374418D01*
X186718988Y-70373553D01*
X186705291Y-70372296D01*
X186690582Y-70370716D01*
X186670006Y-70350138D01*
X186653496Y-70335706D01*
X186638015Y-70321127D01*
X186623502Y-70306375D01*
X186609860Y-70291427D01*
X186597020Y-70276238D01*
X186584899Y-70260775D01*
X186573425Y-70245016D01*
X186562514Y-70228935D01*
X186552082Y-70212485D01*
X186542057Y-70195648D01*
X186532363Y-70178380D01*
X186522909Y-70160662D01*
X186504423Y-70123732D01*
X186485980Y-70084608D01*
X186432512Y-69967447D01*
X186405204Y-69909279D01*
X186377291Y-69851471D01*
X186348580Y-69794066D01*
X186318903Y-69737117D01*
X186288083Y-69680702D01*
X186255932Y-69624852D01*
X186235903Y-69590491D01*
X186216443Y-69556039D01*
X186197529Y-69521448D01*
X186179090Y-69486663D01*
X186161095Y-69451646D01*
X186143500Y-69416361D01*
X186126278Y-69380729D01*
X186109366Y-69344735D01*
X186065068Y-69249531D01*
X186042492Y-69202309D01*
X186019434Y-69155387D01*
X185995744Y-69108784D01*
X185971261Y-69062554D01*
X185945868Y-69016701D01*
X185919391Y-68971285D01*
X185871959Y-68891830D01*
X185825752Y-68811796D01*
X185780589Y-68731257D01*
X185736325Y-68650246D01*
X185649867Y-68487052D01*
X185565128Y-68322653D01*
X185516821Y-68228166D01*
X185467987Y-68133963D01*
X185442688Y-68085866D01*
X185417529Y-68037704D01*
X185395619Y-67995536D01*
X185386743Y-67978775D01*
X185378223Y-67962177D01*
X185370027Y-67945640D01*
X185362115Y-67929068D01*
X185354449Y-67912363D01*
X185346997Y-67895427D01*
X185339732Y-67878177D01*
X185332606Y-67860511D01*
X185334730Y-67844078D01*
X185336500Y-67831326D01*
X185337330Y-67826038D01*
X185338155Y-67821305D01*
X185339019Y-67817013D01*
X185339945Y-67813030D01*
X185340957Y-67809251D01*
X185342091Y-67805549D01*
X185343384Y-67801801D01*
X185344860Y-67797899D01*
X185346547Y-67793695D01*
X185348477Y-67789102D01*
X185353183Y-67778209D01*
X185406472Y-67777486D01*
X185475353Y-67776929D01*
X185544074Y-67776197D01*
X185569839Y-67778293D01*
G37*
G36*
X188020829Y-68519611D02*
G01*
X188033569Y-68541026D01*
X188045671Y-68562582D01*
X188057183Y-68584294D01*
X188068145Y-68606167D01*
X188078608Y-68628196D01*
X188098234Y-68672742D01*
X188116403Y-68717949D01*
X188133502Y-68763854D01*
X188149892Y-68810469D01*
X188165935Y-68857826D01*
X188202084Y-68966100D01*
X188238578Y-69074252D01*
X188253916Y-69119389D01*
X188311159Y-69284774D01*
X188370062Y-69449529D01*
X188490778Y-69778042D01*
X188544412Y-69924804D01*
X188596944Y-70071965D01*
X188615099Y-70122925D01*
X188633825Y-70173461D01*
X188653365Y-70223693D01*
X188663520Y-70248719D01*
X188673964Y-70273703D01*
X188700811Y-70335083D01*
X188726861Y-70396676D01*
X188776944Y-70520493D01*
X188824939Y-70645155D01*
X188871574Y-70770645D01*
X188938520Y-70953615D01*
X188972867Y-71044766D01*
X189008614Y-71135380D01*
X189053338Y-71246009D01*
X189096531Y-71357295D01*
X189138268Y-71469192D01*
X189178624Y-71581615D01*
X189217637Y-71694514D01*
X189255400Y-71807821D01*
X189327408Y-72035435D01*
X189346642Y-72098517D01*
X189366511Y-72161186D01*
X189376935Y-72192333D01*
X189387816Y-72223352D01*
X189399266Y-72254226D01*
X189411361Y-72284949D01*
X189452666Y-72384731D01*
X189490160Y-72485366D01*
X189524172Y-72586865D01*
X189555019Y-72689218D01*
X189583044Y-72792433D01*
X189608571Y-72896513D01*
X189631922Y-73001444D01*
X189653441Y-73107237D01*
X189611966Y-73108898D01*
X189571019Y-73108939D01*
X189530572Y-73107439D01*
X189490559Y-73104471D01*
X189450937Y-73100112D01*
X189411654Y-73094444D01*
X189372654Y-73087545D01*
X189333898Y-73079482D01*
X189295333Y-73070335D01*
X189256905Y-73060195D01*
X189218562Y-73049130D01*
X189180270Y-73037212D01*
X189103588Y-73011131D01*
X189026462Y-72982581D01*
X188964756Y-72958721D01*
X188902958Y-72935084D01*
X188772088Y-72885221D01*
X188646097Y-72837165D01*
X188519932Y-72789584D01*
X188461354Y-72767745D01*
X188412383Y-72749522D01*
X188364283Y-72732980D01*
X188316627Y-72718229D01*
X188268950Y-72705386D01*
X188244974Y-72699705D01*
X188220816Y-72694541D01*
X188196432Y-72689908D01*
X188171769Y-72685821D01*
X188146754Y-72682282D01*
X188121349Y-72679323D01*
X188095497Y-72676939D01*
X188069136Y-72675152D01*
X188060925Y-72681961D01*
X188057613Y-72684864D01*
X188054781Y-72687554D01*
X188052389Y-72690111D01*
X188050415Y-72692638D01*
X188049576Y-72693912D01*
X188048820Y-72695206D01*
X188048153Y-72696541D01*
X188047572Y-72697915D01*
X188047067Y-72699345D01*
X188046633Y-72700844D01*
X188046265Y-72702422D01*
X188045969Y-72704084D01*
X188045548Y-72707725D01*
X188045337Y-72711853D01*
X188045298Y-72716557D01*
X188045408Y-72721920D01*
X188045903Y-72734977D01*
X188045835Y-72786797D01*
X188045711Y-72844883D01*
X188045990Y-72907916D01*
X188046840Y-73026027D01*
X188049098Y-73143986D01*
X188053019Y-73261901D01*
X188058855Y-73379864D01*
X188063661Y-73462488D01*
X188066967Y-73545016D01*
X188068833Y-73627593D01*
X188069312Y-73710350D01*
X188069437Y-73861620D01*
X188070775Y-74012832D01*
X188073172Y-74164031D01*
X188076461Y-74315273D01*
X188082991Y-74599666D01*
X188087965Y-74884006D01*
X188090493Y-75168374D01*
X188089713Y-75452839D01*
X187986835Y-75473412D01*
X187925728Y-75297738D01*
X187863724Y-75122424D01*
X187800312Y-74947623D01*
X187734982Y-74773476D01*
X187719358Y-74732702D01*
X187657505Y-74572313D01*
X187594569Y-74412397D01*
X187466014Y-74093580D01*
X187393223Y-73915608D01*
X187321371Y-73737271D01*
X187260433Y-73582355D01*
X187198487Y-73428008D01*
X187166500Y-73351276D01*
X187133513Y-73274965D01*
X187099274Y-73199161D01*
X187063518Y-73123962D01*
X187039878Y-73074732D01*
X187017053Y-73025244D01*
X186994948Y-72975498D01*
X186973452Y-72925518D01*
X186931945Y-72824884D01*
X186891746Y-72723441D01*
X186849509Y-72617012D01*
X186806165Y-72511457D01*
X186761598Y-72406691D01*
X186715713Y-72302639D01*
X186668379Y-72199233D01*
X186619489Y-72096381D01*
X186568929Y-71994010D01*
X186516594Y-71892047D01*
X186450656Y-71766110D01*
X186348515Y-71570514D01*
X186316775Y-71510482D01*
X186287270Y-71454536D01*
X186274562Y-71430106D01*
X186262294Y-71405634D01*
X186250457Y-71381068D01*
X186239019Y-71356379D01*
X186227951Y-71331511D01*
X186217236Y-71306425D01*
X186206849Y-71281093D01*
X186196775Y-71255452D01*
X186224879Y-71257343D01*
X186252648Y-71259944D01*
X186280128Y-71263227D01*
X186307354Y-71267149D01*
X186334341Y-71271689D01*
X186361144Y-71276780D01*
X186414277Y-71288516D01*
X186467033Y-71302066D01*
X186519652Y-71317118D01*
X186572405Y-71333379D01*
X186625566Y-71350536D01*
X186711160Y-71378905D01*
X186800888Y-71407634D01*
X186890383Y-71436953D01*
X186979421Y-71467609D01*
X187023690Y-71483683D01*
X187067738Y-71500368D01*
X187210166Y-71556075D01*
X187281466Y-71583058D01*
X187352980Y-71609198D01*
X187424852Y-71634336D01*
X187497200Y-71658286D01*
X187570138Y-71680859D01*
X187643801Y-71701884D01*
X187706498Y-71718402D01*
X187752577Y-71730280D01*
X187797522Y-71740852D01*
X187841781Y-71750000D01*
X187885835Y-71757589D01*
X187930136Y-71763502D01*
X187952521Y-71765778D01*
X187975143Y-71767592D01*
X187998059Y-71768922D01*
X188021326Y-71769754D01*
X188044997Y-71770062D01*
X188069136Y-71769838D01*
X188034482Y-71466738D01*
X188006482Y-71163206D01*
X187984485Y-70859289D01*
X187967846Y-70555059D01*
X187955911Y-70250548D01*
X187948040Y-69945813D01*
X187941866Y-69335870D01*
X187941833Y-69280211D01*
X187943195Y-69089619D01*
X187947740Y-68899371D01*
X187955449Y-68709229D01*
X187966260Y-68518926D01*
X188007410Y-68498349D01*
X188020829Y-68519611D01*
G37*
G36*
X193899028Y-68591364D02*
G01*
X193761698Y-68838985D01*
X193724806Y-68904710D01*
X193583347Y-69156759D01*
X193496072Y-69312340D01*
X193470187Y-69358658D01*
X193438982Y-69414487D01*
X193408299Y-69470525D01*
X193378286Y-69526922D01*
X193349058Y-69583813D01*
X193302084Y-69677650D01*
X193254431Y-69771063D01*
X193205966Y-69864061D01*
X193156564Y-69956650D01*
X193084159Y-70090278D01*
X193074783Y-70107611D01*
X193045251Y-70162225D01*
X192986082Y-70271908D01*
X192927333Y-70381818D01*
X192825748Y-70572626D01*
X192722883Y-70762586D01*
X192617807Y-70951301D01*
X192564144Y-71045089D01*
X192509570Y-71138426D01*
X192440426Y-71257012D01*
X192372988Y-71376333D01*
X192307293Y-71496614D01*
X192248156Y-71609013D01*
X192243377Y-71618098D01*
X192190941Y-71719610D01*
X192138031Y-71820843D01*
X192084462Y-71921710D01*
X192030020Y-72022164D01*
X191907167Y-72247586D01*
X191846713Y-72360813D01*
X191787175Y-72474556D01*
X191687551Y-72664733D01*
X191586133Y-72853881D01*
X191483312Y-73042283D01*
X191379525Y-73230206D01*
X191290018Y-73392222D01*
X191201103Y-73554551D01*
X191184441Y-73585144D01*
X191170879Y-73610049D01*
X191111405Y-73719279D01*
X190929118Y-74053715D01*
X190774135Y-74337948D01*
X190710970Y-74453992D01*
X190679644Y-74511512D01*
X190591986Y-74671974D01*
X190503306Y-74831880D01*
X190442463Y-74941109D01*
X190417844Y-74986289D01*
X190382713Y-75050747D01*
X190324458Y-75161185D01*
X190296028Y-75216819D01*
X190268134Y-75272806D01*
X190230343Y-75348410D01*
X190191511Y-75423263D01*
X190151465Y-75497472D01*
X190130903Y-75534374D01*
X190109961Y-75571146D01*
X189975633Y-75808891D01*
X189884501Y-75971990D01*
X189794875Y-76135915D01*
X189665016Y-76376161D01*
X189541083Y-76604256D01*
X189374864Y-76910180D01*
X189250657Y-77138015D01*
X189163057Y-77299150D01*
X189074667Y-77459776D01*
X188984648Y-77619478D01*
X188892152Y-77777864D01*
X188820566Y-77897402D01*
X188773179Y-77978125D01*
X188750097Y-78017431D01*
X188715736Y-78077922D01*
X188682185Y-78138881D01*
X188649634Y-78200431D01*
X188618245Y-78262661D01*
X188575148Y-78349586D01*
X188531178Y-78436004D01*
X188486447Y-78522042D01*
X188441051Y-78607786D01*
X188404774Y-78675462D01*
X188369911Y-78741331D01*
X188336379Y-78803573D01*
X188318610Y-78836640D01*
X188312132Y-78848417D01*
X188306292Y-78858682D01*
X188300361Y-78868691D01*
X188293631Y-78879671D01*
X188274886Y-78909505D01*
X188258993Y-78927546D01*
X188244609Y-78943534D01*
X188237716Y-78950793D01*
X188230882Y-78957561D01*
X188224011Y-78963866D01*
X188216973Y-78969715D01*
X188209694Y-78975111D01*
X188202032Y-78980076D01*
X188193905Y-78984608D01*
X188185190Y-78988739D01*
X188175795Y-78992461D01*
X188165610Y-78995785D01*
X188154524Y-78998728D01*
X188142437Y-79001294D01*
X188089713Y-78999518D01*
X188058446Y-78998957D01*
X188047213Y-78998549D01*
X188037307Y-78997961D01*
X188027523Y-78997079D01*
X188016653Y-78995819D01*
X187986835Y-78991810D01*
X187942533Y-78974183D01*
X187924023Y-78965862D01*
X187907409Y-78957182D01*
X187892258Y-78947612D01*
X187878163Y-78936620D01*
X187864705Y-78923680D01*
X187851463Y-78908273D01*
X187838038Y-78889868D01*
X187824009Y-78867943D01*
X187808966Y-78841976D01*
X187792481Y-78811433D01*
X187753559Y-78734532D01*
X187703922Y-78633031D01*
X187665467Y-78555103D01*
X187645783Y-78516504D01*
X187625739Y-78478140D01*
X187605299Y-78439990D01*
X187584383Y-78402053D01*
X187562971Y-78364300D01*
X187541001Y-78326747D01*
X187490102Y-78241466D01*
X187440004Y-78155857D01*
X187391150Y-78069534D01*
X187367325Y-78025993D01*
X187348257Y-77990163D01*
X187842751Y-77990163D01*
X187842833Y-78003311D01*
X187843459Y-78015861D01*
X187844665Y-78027889D01*
X187846466Y-78039461D01*
X187848909Y-78050685D01*
X187852016Y-78061618D01*
X187855815Y-78072341D01*
X187860346Y-78082933D01*
X187865634Y-78093480D01*
X187871721Y-78104060D01*
X187878614Y-78114739D01*
X187886356Y-78125605D01*
X187894994Y-78136739D01*
X187904533Y-78148215D01*
X187915945Y-78157536D01*
X187926707Y-78165904D01*
X187936933Y-78173357D01*
X187946766Y-78179947D01*
X187956325Y-78185724D01*
X187965743Y-78190732D01*
X187975125Y-78195007D01*
X187984621Y-78198610D01*
X187994341Y-78201586D01*
X188004422Y-78203980D01*
X188014986Y-78205840D01*
X188026156Y-78207197D01*
X188038060Y-78208117D01*
X188050820Y-78208633D01*
X188064571Y-78208799D01*
X188079423Y-78208656D01*
X188108160Y-78200661D01*
X188121221Y-78196692D01*
X188133518Y-78192641D01*
X188145156Y-78188417D01*
X188156200Y-78183945D01*
X188166761Y-78179133D01*
X188176921Y-78173902D01*
X188186764Y-78168176D01*
X188196383Y-78161856D01*
X188205863Y-78154881D01*
X188215289Y-78147150D01*
X188224768Y-78138580D01*
X188234375Y-78129097D01*
X188244190Y-78118625D01*
X188254310Y-78107069D01*
X188261418Y-78078368D01*
X188267656Y-78049628D01*
X188270266Y-78035269D01*
X188272446Y-78020932D01*
X188274115Y-78006618D01*
X188275206Y-77992346D01*
X188275645Y-77978125D01*
X188275351Y-77963959D01*
X188274269Y-77949862D01*
X188272314Y-77935841D01*
X188269408Y-77921908D01*
X188265487Y-77908074D01*
X188260486Y-77894348D01*
X188254310Y-77880736D01*
X188233768Y-77859803D01*
X188213180Y-77841162D01*
X188192502Y-77824837D01*
X188182110Y-77817548D01*
X188171672Y-77810834D01*
X188161199Y-77804711D01*
X188150674Y-77799184D01*
X188140087Y-77794237D01*
X188129438Y-77789889D01*
X188118721Y-77786132D01*
X188107928Y-77782973D01*
X188097051Y-77780412D01*
X188086088Y-77778458D01*
X188075036Y-77777105D01*
X188063884Y-77776349D01*
X188052628Y-77776206D01*
X188041262Y-77776683D01*
X188029786Y-77777748D01*
X188018183Y-77779451D01*
X188006455Y-77781756D01*
X187994599Y-77784683D01*
X187982589Y-77788232D01*
X187970450Y-77792398D01*
X187958165Y-77797189D01*
X187945715Y-77802605D01*
X187920326Y-77815334D01*
X187894245Y-77830580D01*
X187884056Y-77847715D01*
X187879554Y-77855788D01*
X187875403Y-77863607D01*
X187871589Y-77871269D01*
X187868068Y-77878799D01*
X187864840Y-77886276D01*
X187861866Y-77893768D01*
X187859116Y-77901342D01*
X187856566Y-77909045D01*
X187854199Y-77916953D01*
X187851981Y-77925127D01*
X187849880Y-77933633D01*
X187847889Y-77942530D01*
X187844098Y-77961749D01*
X187843186Y-77976338D01*
X187842751Y-77990163D01*
X187348257Y-77990163D01*
X187343983Y-77982133D01*
X187291455Y-77882145D01*
X187238143Y-77782645D01*
X187183946Y-77683622D01*
X187128775Y-77585062D01*
X187004441Y-77366597D01*
X186881214Y-77147479D01*
X186820704Y-77037319D01*
X186761291Y-76926582D01*
X186703251Y-76815111D01*
X186646865Y-76702796D01*
X186605398Y-76620015D01*
X186604782Y-76618835D01*
X186933612Y-76618835D01*
X186933756Y-76631492D01*
X186934257Y-76644591D01*
X186935083Y-76658214D01*
X186937486Y-76687365D01*
X186942475Y-76701700D01*
X186947466Y-76714779D01*
X186952545Y-76726720D01*
X186957792Y-76737640D01*
X186963279Y-76747654D01*
X186969077Y-76756889D01*
X186975266Y-76765449D01*
X186981920Y-76773450D01*
X186989119Y-76781017D01*
X186996926Y-76788250D01*
X187005428Y-76795282D01*
X187014700Y-76802223D01*
X187024811Y-76809183D01*
X187035834Y-76816289D01*
X187047859Y-76823653D01*
X187060939Y-76831395D01*
X187073171Y-76832407D01*
X187085206Y-76833105D01*
X187097068Y-76833512D01*
X187108779Y-76833604D01*
X187120363Y-76833392D01*
X187131847Y-76832877D01*
X187143250Y-76832055D01*
X187154600Y-76830921D01*
X187165910Y-76829485D01*
X187177216Y-76827738D01*
X187188531Y-76825687D01*
X187199883Y-76823329D01*
X187211296Y-76820662D01*
X187222793Y-76817680D01*
X187234390Y-76814399D01*
X187246123Y-76810821D01*
X187264820Y-76797706D01*
X187272487Y-76792162D01*
X187279194Y-76787079D01*
X187285051Y-76782325D01*
X187290190Y-76777734D01*
X187294729Y-76773154D01*
X187298784Y-76768453D01*
X187302484Y-76763464D01*
X187305945Y-76758041D01*
X187309279Y-76752033D01*
X187312630Y-76745293D01*
X187316086Y-76737653D01*
X187319801Y-76728993D01*
X187328426Y-76707937D01*
X187330712Y-76691646D01*
X187332551Y-76675930D01*
X187333928Y-76660724D01*
X187334763Y-76645967D01*
X187335024Y-76631602D01*
X187334675Y-76617561D01*
X187333656Y-76603792D01*
X187331928Y-76590222D01*
X187329454Y-76576788D01*
X187326175Y-76563446D01*
X187322060Y-76550123D01*
X187317054Y-76536752D01*
X187311121Y-76523273D01*
X187304207Y-76509635D01*
X187296274Y-76495762D01*
X187287272Y-76481611D01*
X187277493Y-76473835D01*
X187267663Y-76466576D01*
X187257789Y-76459825D01*
X187247868Y-76453585D01*
X187237920Y-76447860D01*
X187227919Y-76442644D01*
X187217893Y-76437941D01*
X187207841Y-76433737D01*
X187197763Y-76430054D01*
X187187668Y-76426863D01*
X187177555Y-76424194D01*
X187167428Y-76422020D01*
X187157297Y-76420359D01*
X187147157Y-76419210D01*
X187137018Y-76418559D01*
X187126886Y-76418410D01*
X187116762Y-76418764D01*
X187106642Y-76419626D01*
X187096540Y-76420990D01*
X187086460Y-76422856D01*
X187076402Y-76425217D01*
X187066366Y-76428088D01*
X187056362Y-76431459D01*
X187046391Y-76435321D01*
X187036466Y-76439689D01*
X187026572Y-76444553D01*
X187016734Y-76449916D01*
X187006943Y-76455777D01*
X186997206Y-76462132D01*
X186987522Y-76468987D01*
X186968351Y-76484182D01*
X186961632Y-76497633D01*
X186955751Y-76510584D01*
X186950674Y-76523126D01*
X186946359Y-76535334D01*
X186942750Y-76547310D01*
X186939811Y-76559126D01*
X186937494Y-76570870D01*
X186935768Y-76582631D01*
X186934572Y-76594483D01*
X186933861Y-76606525D01*
X186933612Y-76618835D01*
X186604782Y-76618835D01*
X186562639Y-76538107D01*
X186518591Y-76456885D01*
X186473260Y-76376161D01*
X186430425Y-76300137D01*
X186388666Y-76223721D01*
X186348061Y-76146679D01*
X186308658Y-76068811D01*
X186271745Y-75994617D01*
X186234169Y-75920837D01*
X186195891Y-75847440D01*
X186156912Y-75774326D01*
X186125093Y-75715045D01*
X186093704Y-75655575D01*
X186062888Y-75595816D01*
X186032814Y-75535622D01*
X185982109Y-75433590D01*
X185956240Y-75383048D01*
X185929885Y-75332834D01*
X185902929Y-75282929D01*
X185875270Y-75233355D01*
X185846799Y-75184110D01*
X185817414Y-75135200D01*
X185786691Y-75084397D01*
X185756614Y-75033315D01*
X185730957Y-74988670D01*
X186053398Y-74988670D01*
X186053639Y-75001980D01*
X186054568Y-75015311D01*
X186056207Y-75028740D01*
X186058579Y-75042308D01*
X186061711Y-75056090D01*
X186065626Y-75070121D01*
X186070348Y-75084476D01*
X186075897Y-75099198D01*
X186092282Y-75117806D01*
X186100174Y-75126327D01*
X186107965Y-75134364D01*
X186115706Y-75141960D01*
X186123488Y-75149142D01*
X186131344Y-75155951D01*
X186139377Y-75162413D01*
X186147627Y-75168573D01*
X186156168Y-75174456D01*
X186165078Y-75180094D01*
X186174414Y-75185542D01*
X186184240Y-75190802D01*
X186194627Y-75195939D01*
X186205636Y-75200970D01*
X186217348Y-75205928D01*
X186245548Y-75205052D01*
X186258749Y-75204276D01*
X186271444Y-75203221D01*
X186283703Y-75201842D01*
X186295594Y-75200103D01*
X186307200Y-75197949D01*
X186318579Y-75195346D01*
X186329812Y-75192246D01*
X186340967Y-75188613D01*
X186352113Y-75184407D01*
X186363326Y-75179582D01*
X186374677Y-75174090D01*
X186386232Y-75167887D01*
X186398060Y-75160944D01*
X186410243Y-75153210D01*
X186416054Y-75144362D01*
X186421387Y-75135943D01*
X186426262Y-75127902D01*
X186430709Y-75120136D01*
X186434779Y-75112583D01*
X186438484Y-75105172D01*
X186441868Y-75097820D01*
X186444964Y-75090458D01*
X186447795Y-75083007D01*
X186450397Y-75075393D01*
X186452802Y-75067538D01*
X186455041Y-75059364D01*
X186457141Y-75050809D01*
X186459142Y-75041781D01*
X186462973Y-75022037D01*
X186463882Y-75007456D01*
X186464312Y-74993623D01*
X186464229Y-74980488D01*
X186463603Y-74967933D01*
X186462405Y-74955905D01*
X186460596Y-74944327D01*
X186458157Y-74933108D01*
X186455048Y-74922177D01*
X186451246Y-74911455D01*
X186446715Y-74900858D01*
X186441430Y-74890314D01*
X186435349Y-74879735D01*
X186428448Y-74869055D01*
X186420701Y-74858183D01*
X186412068Y-74847053D01*
X186402529Y-74835578D01*
X186391021Y-74826182D01*
X186380180Y-74817761D01*
X186369874Y-74810274D01*
X186359977Y-74803649D01*
X186350358Y-74797871D01*
X186340882Y-74792863D01*
X186331440Y-74788596D01*
X186321888Y-74785008D01*
X186312109Y-74782057D01*
X186301970Y-74779694D01*
X186291335Y-74777867D01*
X186280085Y-74776543D01*
X186268085Y-74775645D01*
X186255220Y-74775147D01*
X186241347Y-74774995D01*
X186226352Y-74775131D01*
X186212087Y-74779085D01*
X186198902Y-74782910D01*
X186186720Y-74786696D01*
X186175419Y-74790552D01*
X186164911Y-74794570D01*
X186155101Y-74798832D01*
X186145884Y-74803453D01*
X186141460Y-74805926D01*
X186137153Y-74808518D01*
X186132943Y-74811255D01*
X186128827Y-74814131D01*
X186124785Y-74817172D01*
X186120791Y-74820388D01*
X186116860Y-74823782D01*
X186112961Y-74827371D01*
X186109089Y-74831176D01*
X186105232Y-74835189D01*
X186097502Y-74843939D01*
X186089673Y-74853721D01*
X186081643Y-74864612D01*
X186073321Y-74876727D01*
X186068927Y-74891786D01*
X186065029Y-74906417D01*
X186061648Y-74920692D01*
X186058818Y-74934673D01*
X186056551Y-74948400D01*
X186054883Y-74961941D01*
X186053816Y-74975346D01*
X186053398Y-74988670D01*
X185730957Y-74988670D01*
X185727107Y-74981970D01*
X185698135Y-74930368D01*
X185641481Y-74826392D01*
X185586098Y-74721440D01*
X185549648Y-74651574D01*
X185512862Y-74581879D01*
X185449625Y-74463203D01*
X185387348Y-74344150D01*
X185326884Y-74224183D01*
X185297604Y-74163691D01*
X185269101Y-74102768D01*
X185247609Y-74056321D01*
X185225769Y-74010338D01*
X185203451Y-73964765D01*
X185180532Y-73919612D01*
X185156907Y-73874826D01*
X185132444Y-73830405D01*
X185107033Y-73786314D01*
X185080559Y-73742506D01*
X185051429Y-73694786D01*
X185023026Y-73646764D01*
X184997655Y-73602632D01*
X185334055Y-73602632D01*
X185334540Y-73614109D01*
X185335630Y-73625716D01*
X185337305Y-73637558D01*
X185339509Y-73649743D01*
X185342233Y-73662368D01*
X185345449Y-73675541D01*
X185353183Y-73703929D01*
X185363098Y-73717432D01*
X185372541Y-73729808D01*
X185381647Y-73741121D01*
X185390536Y-73751419D01*
X185399348Y-73760776D01*
X185408211Y-73769258D01*
X185417246Y-73776926D01*
X185426588Y-73783833D01*
X185436374Y-73790054D01*
X185446733Y-73795660D01*
X185457784Y-73800699D01*
X185469666Y-73805234D01*
X185482505Y-73809333D01*
X185496429Y-73813068D01*
X185511578Y-73816493D01*
X185528082Y-73819665D01*
X185544678Y-73816486D01*
X185559907Y-73813090D01*
X185573902Y-73809399D01*
X185586782Y-73805355D01*
X185598699Y-73800892D01*
X185604328Y-73798473D01*
X185609757Y-73795931D01*
X185615026Y-73793238D01*
X185620116Y-73790397D01*
X185625075Y-73787403D01*
X185629899Y-73784244D01*
X185634605Y-73780904D01*
X185639217Y-73777382D01*
X185648224Y-73769756D01*
X185657050Y-73761284D01*
X185665812Y-73751911D01*
X185674664Y-73741553D01*
X185683713Y-73730153D01*
X185693102Y-73717634D01*
X185702965Y-73703929D01*
X185707270Y-73690044D01*
X185711183Y-73676358D01*
X185714646Y-73662861D01*
X185717642Y-73649509D01*
X185720106Y-73636279D01*
X185722002Y-73623169D01*
X185723295Y-73610113D01*
X185723927Y-73597114D01*
X185723865Y-73584140D01*
X185723070Y-73571160D01*
X185721489Y-73558144D01*
X185719084Y-73545084D01*
X185715823Y-73531932D01*
X185711647Y-73518679D01*
X185706510Y-73505289D01*
X185700390Y-73491742D01*
X185676666Y-73470823D01*
X185665152Y-73461144D01*
X185653762Y-73452025D01*
X185642409Y-73443483D01*
X185631020Y-73435548D01*
X185619509Y-73428247D01*
X185607804Y-73421606D01*
X185595814Y-73415648D01*
X185583464Y-73410406D01*
X185570669Y-73405898D01*
X185557350Y-73402149D01*
X185543429Y-73399183D01*
X185528813Y-73397046D01*
X185513436Y-73395738D01*
X185497207Y-73395294D01*
X185486085Y-73400692D01*
X185475467Y-73406099D01*
X185465306Y-73411542D01*
X185455557Y-73417065D01*
X185446184Y-73422704D01*
X185437146Y-73428503D01*
X185428389Y-73434498D01*
X185419889Y-73440724D01*
X185411585Y-73447206D01*
X185403456Y-73454004D01*
X185395446Y-73461142D01*
X185387513Y-73468658D01*
X185379617Y-73476606D01*
X185371726Y-73484997D01*
X185363790Y-73493896D01*
X185355750Y-73503318D01*
X185350266Y-73517427D01*
X185345634Y-73530844D01*
X185341825Y-73543674D01*
X185338809Y-73556021D01*
X185336556Y-73567992D01*
X185335034Y-73579679D01*
X185334205Y-73591194D01*
X185334055Y-73602632D01*
X184997655Y-73602632D01*
X184995251Y-73598451D01*
X184968046Y-73549861D01*
X184914992Y-73451867D01*
X184863227Y-73352858D01*
X184751836Y-73138915D01*
X184695295Y-73032412D01*
X184637949Y-72926292D01*
X184606036Y-72868050D01*
X184515373Y-72702605D01*
X184455663Y-72593249D01*
X184396720Y-72483543D01*
X184338964Y-72373217D01*
X184282809Y-72262003D01*
X184244495Y-72184686D01*
X184205443Y-72107958D01*
X184185339Y-72069919D01*
X184164671Y-72032149D01*
X184143351Y-71994693D01*
X184121229Y-71957588D01*
X184078699Y-71888368D01*
X184042210Y-71826273D01*
X183991681Y-71736210D01*
X183942043Y-71646390D01*
X184262686Y-71646390D01*
X184267473Y-71659872D01*
X184272247Y-71672598D01*
X184277080Y-71684624D01*
X184282021Y-71696019D01*
X184287139Y-71706862D01*
X184292485Y-71717203D01*
X184298136Y-71727114D01*
X184304123Y-71736675D01*
X184310534Y-71745945D01*
X184317415Y-71754994D01*
X184324831Y-71763891D01*
X184332837Y-71772696D01*
X184341496Y-71781480D01*
X184350862Y-71790326D01*
X184361013Y-71799281D01*
X184371991Y-71808419D01*
X184386671Y-71814268D01*
X184401001Y-71819387D01*
X184415058Y-71823769D01*
X184428880Y-71827443D01*
X184442516Y-71830394D01*
X184456030Y-71832640D01*
X184469466Y-71834175D01*
X184482882Y-71835013D01*
X184496324Y-71835166D01*
X184509865Y-71834631D01*
X184523525Y-71833416D01*
X184537381Y-71831540D01*
X184551482Y-71828993D01*
X184565874Y-71825786D01*
X184580609Y-71821929D01*
X184595750Y-71817425D01*
X184605450Y-71810224D01*
X184614411Y-71803207D01*
X184622710Y-71796294D01*
X184630379Y-71789432D01*
X184637492Y-71782548D01*
X184644094Y-71775590D01*
X184650243Y-71768483D01*
X184656016Y-71761165D01*
X184661436Y-71753583D01*
X184666586Y-71745667D01*
X184671507Y-71737344D01*
X184676265Y-71728557D01*
X184680920Y-71719253D01*
X184685509Y-71709356D01*
X184690111Y-71698805D01*
X184694768Y-71687539D01*
X184695816Y-71672596D01*
X184696555Y-71657840D01*
X184696924Y-71643288D01*
X184696903Y-71628900D01*
X184696433Y-71614691D01*
X184695493Y-71600638D01*
X184694047Y-71586737D01*
X184692045Y-71572974D01*
X184689452Y-71559341D01*
X184686236Y-71545828D01*
X184682347Y-71532434D01*
X184677753Y-71519147D01*
X184672433Y-71505948D01*
X184666320Y-71492837D01*
X184659402Y-71479802D01*
X184651606Y-71466834D01*
X184642200Y-71457858D01*
X184632633Y-71449543D01*
X184622916Y-71441871D01*
X184613056Y-71434831D01*
X184603073Y-71428419D01*
X184592954Y-71422621D01*
X184582730Y-71417415D01*
X184572401Y-71412815D01*
X184561957Y-71408787D01*
X184551445Y-71405343D01*
X184540835Y-71402451D01*
X184530162Y-71400119D01*
X184519415Y-71398319D01*
X184508610Y-71397060D01*
X184497765Y-71396321D01*
X184486885Y-71396091D01*
X184475965Y-71396359D01*
X184465028Y-71397121D01*
X184443104Y-71400068D01*
X184421194Y-71404857D01*
X184399349Y-71411398D01*
X184377667Y-71419612D01*
X184356183Y-71429431D01*
X184334980Y-71440747D01*
X184314129Y-71453495D01*
X184306639Y-71465756D01*
X184299909Y-71477655D01*
X184293888Y-71489263D01*
X184288556Y-71500645D01*
X184283851Y-71511881D01*
X184279743Y-71523042D01*
X184276192Y-71534196D01*
X184273160Y-71545419D01*
X184270601Y-71556781D01*
X184268479Y-71568352D01*
X184266750Y-71580220D01*
X184265390Y-71592448D01*
X184264331Y-71605109D01*
X184263560Y-71618263D01*
X184262686Y-71646390D01*
X183942043Y-71646390D01*
X183907040Y-71583052D01*
X183822413Y-71430064D01*
X183756605Y-71311888D01*
X183691377Y-71193416D01*
X183627613Y-71074169D01*
X183596561Y-71014103D01*
X183566192Y-70953662D01*
X183508208Y-70837223D01*
X183449023Y-70721452D01*
X183388813Y-70606205D01*
X183327757Y-70491351D01*
X183307218Y-70453013D01*
X183192429Y-70240319D01*
X183134029Y-70134538D01*
X183128736Y-70125189D01*
X183502597Y-70125189D01*
X183502758Y-70134570D01*
X183503257Y-70143485D01*
X183504171Y-70152030D01*
X183505576Y-70160292D01*
X183507515Y-70168367D01*
X183508726Y-70172357D01*
X183510098Y-70176323D01*
X183511633Y-70180288D01*
X183513359Y-70184267D01*
X183515272Y-70188257D01*
X183517389Y-70192266D01*
X183519711Y-70196318D01*
X183522247Y-70200431D01*
X183528011Y-70208817D01*
X183534758Y-70217552D01*
X183542545Y-70226681D01*
X183565269Y-70234673D01*
X183583270Y-70240629D01*
X183591027Y-70242923D01*
X183598231Y-70244801D01*
X183605098Y-70246296D01*
X183611844Y-70247429D01*
X183618678Y-70248231D01*
X183625802Y-70248742D01*
X183633436Y-70248987D01*
X183641780Y-70248993D01*
X183661474Y-70248420D01*
X183686580Y-70247258D01*
X183707361Y-70237720D01*
X183715928Y-70233653D01*
X183723470Y-70229895D01*
X183730152Y-70226326D01*
X183736115Y-70222818D01*
X183741506Y-70219270D01*
X183746489Y-70215533D01*
X183751204Y-70211508D01*
X183755806Y-70207067D01*
X183760436Y-70202093D01*
X183765260Y-70196463D01*
X183770421Y-70190055D01*
X183776081Y-70182744D01*
X183789452Y-70164956D01*
X183794509Y-70144458D01*
X183796505Y-70135934D01*
X183798129Y-70128307D01*
X183799398Y-70121407D01*
X183800301Y-70115046D01*
X183800844Y-70109048D01*
X183801021Y-70103230D01*
X183800844Y-70097410D01*
X183800301Y-70091418D01*
X183799398Y-70085056D01*
X183798129Y-70078156D01*
X183796505Y-70070529D01*
X183794509Y-70061999D01*
X183789452Y-70041508D01*
X183777171Y-70025094D01*
X183764858Y-70010420D01*
X183752446Y-69997473D01*
X183746197Y-69991652D01*
X183739897Y-69986252D01*
X183733550Y-69981281D01*
X183727143Y-69976740D01*
X183720678Y-69972619D01*
X183714131Y-69968928D01*
X183707513Y-69965654D01*
X183700814Y-69962807D01*
X183694028Y-69960377D01*
X183687139Y-69958368D01*
X183680140Y-69956781D01*
X183673033Y-69955603D01*
X183665813Y-69954841D01*
X183658460Y-69954509D01*
X183650980Y-69954581D01*
X183643354Y-69955063D01*
X183635592Y-69955958D01*
X183627663Y-69957268D01*
X183619586Y-69958975D01*
X183611342Y-69961104D01*
X183594319Y-69966565D01*
X183576556Y-69973657D01*
X183557979Y-69982352D01*
X183544527Y-69994962D01*
X183539031Y-70000294D01*
X183534253Y-70005183D01*
X183530123Y-70009759D01*
X183526535Y-70014176D01*
X183523434Y-70018572D01*
X183520721Y-70023103D01*
X183518338Y-70027910D01*
X183516197Y-70033127D01*
X183514221Y-70038915D01*
X183512319Y-70045410D01*
X183510419Y-70052755D01*
X183508452Y-70061106D01*
X183503971Y-70081371D01*
X183503019Y-70104715D01*
X183502708Y-70115267D01*
X183502597Y-70125189D01*
X183128736Y-70125189D01*
X183074489Y-70029372D01*
X183045995Y-69979097D01*
X183018226Y-69928597D01*
X182991142Y-69877845D01*
X182964666Y-69826817D01*
X182938732Y-69775513D01*
X182913277Y-69723902D01*
X182863559Y-69619708D01*
X182811837Y-69511452D01*
X182785294Y-69457853D01*
X182758258Y-69404569D01*
X182730648Y-69351588D01*
X182702424Y-69298862D01*
X182673545Y-69246399D01*
X182643946Y-69194131D01*
X182608474Y-69131965D01*
X182573490Y-69069564D01*
X182539008Y-69006881D01*
X182505058Y-68943858D01*
X182481630Y-68899564D01*
X182424634Y-68791131D01*
X182396640Y-68736653D01*
X182369193Y-68681890D01*
X182313326Y-68568567D01*
X182288054Y-68518926D01*
X182678377Y-68518926D01*
X182687453Y-68547575D01*
X182692029Y-68560946D01*
X182696728Y-68573776D01*
X182701601Y-68586090D01*
X182706726Y-68597967D01*
X182712170Y-68609450D01*
X182717996Y-68620585D01*
X182724273Y-68631450D01*
X182731067Y-68642082D01*
X182738438Y-68652533D01*
X182746463Y-68662869D01*
X182755199Y-68673147D01*
X182764732Y-68683402D01*
X182775104Y-68693704D01*
X182786401Y-68704102D01*
X182800501Y-68708966D01*
X182813939Y-68713078D01*
X182826809Y-68716442D01*
X182839217Y-68719096D01*
X182851249Y-68721065D01*
X182863018Y-68722356D01*
X182874608Y-68723019D01*
X182886113Y-68723055D01*
X182897642Y-68722502D01*
X182909286Y-68721385D01*
X182921137Y-68719718D01*
X182933304Y-68717533D01*
X182945873Y-68714860D01*
X182958958Y-68711708D01*
X182987005Y-68704102D01*
X183000371Y-68694284D01*
X183012837Y-68684581D01*
X183024427Y-68674944D01*
X183035190Y-68665262D01*
X183045149Y-68655489D01*
X183054333Y-68645529D01*
X183062768Y-68635321D01*
X183070499Y-68624766D01*
X183077548Y-68613804D01*
X183083945Y-68602342D01*
X183089730Y-68590317D01*
X183094922Y-68577642D01*
X183099568Y-68564242D01*
X183103681Y-68550042D01*
X183107305Y-68534964D01*
X183110461Y-68518926D01*
X184324413Y-68518926D01*
X184327547Y-68534902D01*
X184331174Y-68549938D01*
X184335318Y-68564091D01*
X184340000Y-68577454D01*
X184345242Y-68590093D01*
X184351097Y-68602099D01*
X184357560Y-68613537D01*
X184364670Y-68624493D01*
X184372447Y-68635040D01*
X184380924Y-68645260D01*
X184390129Y-68655235D01*
X184400070Y-68665037D01*
X184410796Y-68674745D01*
X184422317Y-68684443D01*
X184434663Y-68694200D01*
X184447868Y-68704102D01*
X184460187Y-68707837D01*
X184471990Y-68711130D01*
X184483332Y-68713999D01*
X184494310Y-68716444D01*
X184505002Y-68718471D01*
X184515469Y-68720074D01*
X184525794Y-68721247D01*
X184536069Y-68722007D01*
X184546352Y-68722342D01*
X184556733Y-68722266D01*
X184567284Y-68721770D01*
X184578077Y-68720861D01*
X184589209Y-68719542D01*
X184600739Y-68717808D01*
X184612755Y-68715658D01*
X184625322Y-68713106D01*
X184637604Y-68705382D01*
X184649000Y-68697617D01*
X184659586Y-68689755D01*
X184669440Y-68681771D01*
X184678614Y-68673602D01*
X184687216Y-68665219D01*
X184695287Y-68656582D01*
X184702912Y-68647633D01*
X184710164Y-68638348D01*
X184717108Y-68628667D01*
X184723827Y-68618560D01*
X184730387Y-68607980D01*
X184736861Y-68596885D01*
X184743324Y-68585228D01*
X184756497Y-68560077D01*
X184759497Y-68533129D01*
X184760631Y-68520459D01*
X184761486Y-68508221D01*
X184761986Y-68496349D01*
X184762113Y-68484782D01*
X184761817Y-68473434D01*
X184761064Y-68462243D01*
X184759801Y-68451140D01*
X184757988Y-68440036D01*
X184755598Y-68428886D01*
X184752577Y-68417609D01*
X184748882Y-68406123D01*
X184744472Y-68394364D01*
X184739305Y-68382266D01*
X184733349Y-68369751D01*
X184711505Y-68350331D01*
X184690121Y-68333287D01*
X184669097Y-68318611D01*
X184658682Y-68312148D01*
X184648328Y-68306275D01*
X184638019Y-68300976D01*
X184627740Y-68296261D01*
X184617484Y-68292120D01*
X184607235Y-68288556D01*
X184596977Y-68285550D01*
X184586708Y-68283128D01*
X184576415Y-68281261D01*
X184566086Y-68279965D01*
X184555705Y-68279231D01*
X184545263Y-68279053D01*
X184534745Y-68279424D01*
X184524143Y-68280356D01*
X184513448Y-68281833D01*
X184502647Y-68283860D01*
X184491733Y-68286439D01*
X184480672Y-68289555D01*
X184458128Y-68297410D01*
X184434919Y-68307404D01*
X184410952Y-68319520D01*
X184386143Y-68333743D01*
X184375933Y-68345597D01*
X184366905Y-68356809D01*
X184359002Y-68367496D01*
X184352138Y-68377799D01*
X184346241Y-68387845D01*
X184341234Y-68397774D01*
X184337059Y-68407699D01*
X184333615Y-68417766D01*
X184330874Y-68428100D01*
X184328722Y-68438832D01*
X184327097Y-68450095D01*
X184325938Y-68462017D01*
X184325163Y-68474728D01*
X184324697Y-68488369D01*
X184324413Y-68518926D01*
X183110461Y-68518926D01*
X183110175Y-68488369D01*
X183109716Y-68474728D01*
X183108934Y-68462017D01*
X183107775Y-68450095D01*
X183106157Y-68438832D01*
X183104004Y-68428100D01*
X183101251Y-68417766D01*
X183097820Y-68407699D01*
X183093638Y-68397774D01*
X183088634Y-68387845D01*
X183082737Y-68377799D01*
X183075869Y-68367496D01*
X183067976Y-68356809D01*
X183058947Y-68345597D01*
X183048737Y-68333743D01*
X183027693Y-68320296D01*
X183007347Y-68308546D01*
X182987585Y-68298516D01*
X182968346Y-68290227D01*
X182958885Y-68286756D01*
X182949514Y-68283722D01*
X182940236Y-68281138D01*
X182931005Y-68279014D01*
X182921860Y-68277348D01*
X182912753Y-68276148D01*
X182903676Y-68275406D01*
X182894631Y-68275131D01*
X182885596Y-68275343D01*
X182876566Y-68276018D01*
X182867522Y-68277181D01*
X182858466Y-68278823D01*
X182849363Y-68280958D01*
X182840227Y-68283581D01*
X182831037Y-68286697D01*
X182821775Y-68290316D01*
X182812440Y-68294427D01*
X182803011Y-68299052D01*
X182793490Y-68304186D01*
X182783853Y-68309827D01*
X182764200Y-68322669D01*
X182743959Y-68337606D01*
X182734751Y-68349614D01*
X182726378Y-68360959D01*
X182718809Y-68371741D01*
X182712012Y-68382098D01*
X182705959Y-68392149D01*
X182700604Y-68402021D01*
X182695925Y-68411850D01*
X182691883Y-68421761D01*
X182688437Y-68431862D01*
X182685566Y-68442305D01*
X182683228Y-68453194D01*
X182681392Y-68464676D01*
X182680021Y-68476851D01*
X182679088Y-68489877D01*
X182678548Y-68503854D01*
X182678377Y-68518926D01*
X182288054Y-68518926D01*
X182284806Y-68512547D01*
X182255628Y-68456993D01*
X182225562Y-68401932D01*
X182194407Y-68347361D01*
X182161949Y-68293336D01*
X182127981Y-68239878D01*
X182105478Y-68205760D01*
X182083500Y-68171696D01*
X182061966Y-68137564D01*
X182040795Y-68103313D01*
X181999254Y-68034100D01*
X181958238Y-67963388D01*
X184818226Y-67963388D01*
X184828683Y-67984067D01*
X184839328Y-68004656D01*
X184850170Y-68025145D01*
X184861184Y-68045535D01*
X184942396Y-68192940D01*
X185022764Y-68340750D01*
X185098783Y-68484782D01*
X185101290Y-68489512D01*
X185139557Y-68564434D01*
X185177005Y-68639805D01*
X185199539Y-68686533D01*
X185210979Y-68709773D01*
X185222644Y-68732884D01*
X185234617Y-68755833D01*
X185246980Y-68778590D01*
X185259808Y-68801106D01*
X185273199Y-68823358D01*
X185297006Y-68861084D01*
X185320072Y-68899058D01*
X185342504Y-68937286D01*
X185364374Y-68975787D01*
X185385771Y-69014559D01*
X185406762Y-69053618D01*
X185447889Y-69132630D01*
X185510416Y-69254975D01*
X185574127Y-69376483D01*
X185606860Y-69436731D01*
X185640411Y-69496534D01*
X185674966Y-69555840D01*
X185710676Y-69614564D01*
X185773819Y-69717234D01*
X185801229Y-69764509D01*
X185831344Y-69819255D01*
X185916058Y-69981680D01*
X186016084Y-70177812D01*
X186060806Y-70265518D01*
X186102093Y-70346331D01*
X186143772Y-70426945D01*
X186168257Y-70473785D01*
X186192629Y-70520693D01*
X186213490Y-70561029D01*
X186223628Y-70580959D01*
X186233154Y-70600764D01*
X186242117Y-70620482D01*
X186250545Y-70640158D01*
X186258468Y-70659816D01*
X186265904Y-70679503D01*
X186279459Y-70719069D01*
X186291440Y-70759126D01*
X186302079Y-70799975D01*
X186311595Y-70841872D01*
X186320224Y-70885101D01*
X186254294Y-70866693D01*
X186188293Y-70848520D01*
X186133760Y-70833665D01*
X186038631Y-70805939D01*
X185988955Y-70792971D01*
X185963851Y-70787420D01*
X185938673Y-70782785D01*
X185913507Y-70779261D01*
X185888432Y-70777036D01*
X185863519Y-70776336D01*
X185838852Y-70777356D01*
X185814488Y-70780305D01*
X185802460Y-70782575D01*
X185790526Y-70785392D01*
X185778724Y-70788798D01*
X185767050Y-70792822D01*
X185755510Y-70797481D01*
X185744117Y-70802799D01*
X185742770Y-70831860D01*
X185742303Y-70859374D01*
X185742457Y-70872695D01*
X185742906Y-70885794D01*
X185743678Y-70898741D01*
X185744786Y-70911576D01*
X185746263Y-70924371D01*
X185748128Y-70937168D01*
X185750416Y-70950034D01*
X185753142Y-70963036D01*
X185756331Y-70976206D01*
X185760017Y-70989621D01*
X185764211Y-71003331D01*
X185768949Y-71017393D01*
X185791790Y-71066933D01*
X185814027Y-71116449D01*
X185835561Y-71166076D01*
X185856287Y-71215926D01*
X185876123Y-71266125D01*
X185894981Y-71316807D01*
X185912728Y-71368069D01*
X185929285Y-71420060D01*
X185977743Y-71576544D01*
X186028561Y-71732017D01*
X186081509Y-71886788D01*
X186136336Y-72041184D01*
X186200872Y-72220468D01*
X186232420Y-72310351D01*
X186263312Y-72400497D01*
X186286711Y-72473016D01*
X186295410Y-72499624D01*
X186302768Y-72522829D01*
X186305832Y-72533516D01*
X186308431Y-72543789D01*
X186310527Y-72553772D01*
X186312072Y-72563618D01*
X186313026Y-72573467D01*
X186313349Y-72583469D01*
X186313002Y-72593759D01*
X186311929Y-72604493D01*
X186310098Y-72615788D01*
X186307475Y-72627813D01*
X186304002Y-72640696D01*
X186299647Y-72654580D01*
X186285572Y-72659257D01*
X186274504Y-72662862D01*
X186265477Y-72665611D01*
X186257538Y-72667761D01*
X186249716Y-72669550D01*
X186241053Y-72671221D01*
X186230590Y-72673009D01*
X186217348Y-72675152D01*
X186193201Y-72638826D01*
X186185043Y-72626317D01*
X186178485Y-72615968D01*
X186172794Y-72606571D01*
X186167211Y-72596917D01*
X186160981Y-72585783D01*
X186153361Y-72571987D01*
X186128461Y-72524452D01*
X186100170Y-72470493D01*
X186070757Y-72414109D01*
X186019801Y-72316468D01*
X185969406Y-72218571D01*
X185919519Y-72120399D01*
X185870140Y-72021972D01*
X185758059Y-71799131D01*
X185644504Y-71577047D01*
X185623234Y-71535795D01*
X185454777Y-71210485D01*
X185284811Y-70885965D01*
X185236162Y-70793792D01*
X185178836Y-70684885D01*
X185120864Y-70576387D01*
X185091327Y-70522438D01*
X185061265Y-70468785D01*
X185030547Y-70415484D01*
X184999062Y-70362593D01*
X184964016Y-70304078D01*
X184930088Y-70245082D01*
X184897129Y-70185541D01*
X184886130Y-70164956D01*
X185250306Y-70164956D01*
X185255026Y-70179531D01*
X185260358Y-70193287D01*
X185266290Y-70206266D01*
X185272818Y-70218529D01*
X185279922Y-70230130D01*
X185287615Y-70241122D01*
X185295871Y-70251563D01*
X185304682Y-70261507D01*
X185314048Y-70271003D01*
X185323956Y-70280103D01*
X185334396Y-70288872D01*
X185345366Y-70297359D01*
X185356852Y-70305619D01*
X185368845Y-70313699D01*
X185381346Y-70321665D01*
X185394333Y-70329560D01*
X185411514Y-70332461D01*
X185428206Y-70334825D01*
X185444461Y-70336617D01*
X185460337Y-70337823D01*
X185475883Y-70338413D01*
X185491163Y-70338367D01*
X185506225Y-70337648D01*
X185521130Y-70336247D01*
X185535926Y-70334133D01*
X185550678Y-70331294D01*
X185565436Y-70327684D01*
X185580257Y-70323292D01*
X185595188Y-70318096D01*
X185610291Y-70312069D01*
X185625627Y-70305175D01*
X185641240Y-70297416D01*
X185656365Y-70281062D01*
X185662550Y-70274176D01*
X185667931Y-70267922D01*
X185672600Y-70262101D01*
X185676652Y-70256570D01*
X185680173Y-70251129D01*
X185683253Y-70245625D01*
X185685994Y-70239865D01*
X185688468Y-70233679D01*
X185690774Y-70226888D01*
X185693004Y-70219329D01*
X185695253Y-70210820D01*
X185697597Y-70201176D01*
X185702965Y-70177812D01*
X185702825Y-70162076D01*
X185702355Y-70147308D01*
X185701545Y-70133393D01*
X185700329Y-70120234D01*
X185698692Y-70107701D01*
X185696581Y-70095702D01*
X185693969Y-70084101D01*
X185690800Y-70072807D01*
X185687054Y-70061703D01*
X185682682Y-70050668D01*
X185677650Y-70039602D01*
X185671920Y-70028379D01*
X185665456Y-70016905D01*
X185658207Y-70005058D01*
X185650149Y-69992711D01*
X185641240Y-69979779D01*
X185619468Y-69965517D01*
X185598510Y-69953315D01*
X185578259Y-69943145D01*
X185568364Y-69938834D01*
X185558592Y-69934995D01*
X185548941Y-69931659D01*
X185539394Y-69928826D01*
X185529938Y-69926471D01*
X185520556Y-69924608D01*
X185511231Y-69923217D01*
X185501953Y-69922303D01*
X185492696Y-69921870D01*
X185483471Y-69921905D01*
X185474242Y-69922412D01*
X185464996Y-69923384D01*
X185455723Y-69924805D01*
X185446419Y-69926690D01*
X185437042Y-69929024D01*
X185427608Y-69931812D01*
X185408456Y-69938719D01*
X185388862Y-69947382D01*
X185368693Y-69957774D01*
X185347831Y-69969870D01*
X185326175Y-69983639D01*
X185315170Y-69995327D01*
X185305230Y-70006327D01*
X185296296Y-70016751D01*
X185288328Y-70026766D01*
X185281272Y-70036490D01*
X185275091Y-70046079D01*
X185269724Y-70055672D01*
X185265132Y-70065392D01*
X185261265Y-70075390D01*
X185258069Y-70085811D01*
X185255490Y-70096794D01*
X185253502Y-70108473D01*
X185252030Y-70120985D01*
X185251042Y-70134474D01*
X185250481Y-70149095D01*
X185250306Y-70164956D01*
X184886130Y-70164956D01*
X184864985Y-70125381D01*
X184840077Y-70077514D01*
X184767099Y-69937313D01*
X184731138Y-69866945D01*
X184695734Y-69796284D01*
X184654203Y-69712911D01*
X184611727Y-69630371D01*
X184589905Y-69589421D01*
X184567603Y-69548691D01*
X184544719Y-69508206D01*
X184521163Y-69467967D01*
X184499861Y-69431681D01*
X184479099Y-69395210D01*
X184458843Y-69358554D01*
X184439013Y-69321705D01*
X184400453Y-69247388D01*
X184362994Y-69172197D01*
X184324244Y-69092138D01*
X184313858Y-69072367D01*
X184303561Y-69052538D01*
X184293361Y-69032660D01*
X184283261Y-69012728D01*
X184276662Y-68994959D01*
X184269908Y-68977729D01*
X184262907Y-68960926D01*
X184255539Y-68944468D01*
X184247697Y-68928239D01*
X184239267Y-68912140D01*
X184230152Y-68896057D01*
X184220232Y-68879899D01*
X184171642Y-68860560D01*
X184151350Y-68852790D01*
X184133122Y-68846203D01*
X184116486Y-68840738D01*
X184101007Y-68836313D01*
X184086209Y-68832882D01*
X184071647Y-68830366D01*
X184056873Y-68828715D01*
X184041413Y-68827851D01*
X184024823Y-68827718D01*
X184006640Y-68828253D01*
X183986416Y-68829380D01*
X183963685Y-68831045D01*
X183908901Y-68835714D01*
X183865054Y-68837626D01*
X183821194Y-68839090D01*
X183756650Y-68840768D01*
X183692133Y-68842822D01*
X183627631Y-68845273D01*
X183563126Y-68848137D01*
X183563126Y-68909855D01*
X183578609Y-68925463D01*
X183591221Y-68938885D01*
X183596889Y-68945447D01*
X183602401Y-68952272D01*
X183607914Y-68959636D01*
X183613619Y-68967807D01*
X183626364Y-68987643D01*
X183642095Y-69013953D01*
X183688347Y-69094639D01*
X183722581Y-69155476D01*
X183798258Y-69291367D01*
X183872453Y-69427973D01*
X183945332Y-69565281D01*
X184017065Y-69703296D01*
X184098847Y-69861097D01*
X184181705Y-70018251D01*
X184227282Y-70103230D01*
X184265674Y-70174822D01*
X184350773Y-70330843D01*
X184480953Y-70568437D01*
X184545329Y-70687608D01*
X184608939Y-70807202D01*
X184634333Y-70855518D01*
X184700979Y-70982632D01*
X184733865Y-71046399D01*
X184766223Y-71110465D01*
X184791782Y-71162254D01*
X184817872Y-71213629D01*
X184844766Y-71264576D01*
X184858629Y-71289891D01*
X184872794Y-71315091D01*
X184918076Y-71394016D01*
X184962537Y-71473333D01*
X185049479Y-71632953D01*
X185054938Y-71643288D01*
X185134468Y-71793633D01*
X185218384Y-71955060D01*
X185444615Y-72388689D01*
X185674182Y-72820570D01*
X185780569Y-73019135D01*
X185885966Y-73218221D01*
X186008399Y-73450968D01*
X186086230Y-73597114D01*
X186132033Y-73683113D01*
X186257304Y-73914368D01*
X186384669Y-74144456D01*
X186431077Y-74227578D01*
X186476774Y-74310971D01*
X186521384Y-74394958D01*
X186543154Y-74437264D01*
X186564506Y-74479833D01*
X186637152Y-74624504D01*
X186711903Y-74767989D01*
X186788182Y-74910676D01*
X186833193Y-74993623D01*
X186865402Y-75052982D01*
X187048522Y-75390850D01*
X187085377Y-75459270D01*
X187208212Y-75688452D01*
X187329713Y-75918356D01*
X187379777Y-76013485D01*
X187430293Y-76108358D01*
X187532471Y-76297515D01*
X187597893Y-76417942D01*
X187662587Y-76538664D01*
X187711118Y-76631602D01*
X187725985Y-76660069D01*
X187787512Y-76782522D01*
X187815517Y-76838699D01*
X187844232Y-76894403D01*
X187873606Y-76949729D01*
X187903568Y-77004692D01*
X187964986Y-77113845D01*
X188027989Y-77222324D01*
X188089713Y-77222324D01*
X188140949Y-77129616D01*
X188192591Y-77037141D01*
X188250751Y-76936767D01*
X188308042Y-76836055D01*
X188336117Y-76785407D01*
X188363682Y-76734460D01*
X188390656Y-76683151D01*
X188416921Y-76631401D01*
X188419614Y-76626016D01*
X188789278Y-76626016D01*
X188789388Y-76629608D01*
X188789652Y-76633231D01*
X188790650Y-76640676D01*
X188792271Y-76648589D01*
X188794529Y-76657168D01*
X188797401Y-76666658D01*
X188800923Y-76677264D01*
X188809854Y-76702796D01*
X188825526Y-76727866D01*
X188832821Y-76739013D01*
X188839912Y-76749333D01*
X188846926Y-76758881D01*
X188853989Y-76767728D01*
X188861223Y-76775928D01*
X188868740Y-76783540D01*
X188876663Y-76790654D01*
X188885121Y-76797307D01*
X188894241Y-76803583D01*
X188904132Y-76809530D01*
X188914919Y-76815225D01*
X188926719Y-76820721D01*
X188939671Y-76826085D01*
X188953884Y-76831395D01*
X188969160Y-76831912D01*
X188983998Y-76832059D01*
X188998444Y-76831782D01*
X189012510Y-76831065D01*
X189026264Y-76829880D01*
X189039746Y-76828209D01*
X189052990Y-76826014D01*
X189066045Y-76823280D01*
X189078946Y-76819970D01*
X189091745Y-76816072D01*
X189104473Y-76811546D01*
X189117182Y-76806369D01*
X189129919Y-76800519D01*
X189142701Y-76793975D01*
X189155596Y-76786698D01*
X189168641Y-76778663D01*
X189175453Y-76767697D01*
X189181680Y-76757013D01*
X189187345Y-76746536D01*
X189192478Y-76736215D01*
X189197101Y-76725989D01*
X189201260Y-76715814D01*
X189204979Y-76705628D01*
X189208270Y-76695374D01*
X189211180Y-76685002D01*
X189213732Y-76674445D01*
X189215967Y-76663663D01*
X189217904Y-76652582D01*
X189219580Y-76641158D01*
X189221009Y-76629333D01*
X189223290Y-76604256D01*
X189222533Y-76592665D01*
X189221400Y-76581744D01*
X189219881Y-76571432D01*
X189217971Y-76561646D01*
X189215634Y-76552348D01*
X189212885Y-76543431D01*
X189209708Y-76534843D01*
X189206075Y-76526533D01*
X189201993Y-76518394D01*
X189197436Y-76510391D01*
X189192406Y-76502430D01*
X189186877Y-76494455D01*
X189180849Y-76486402D01*
X189174304Y-76478191D01*
X189167244Y-76469764D01*
X189159634Y-76461036D01*
X189135684Y-76446776D01*
X189113513Y-76434339D01*
X189102841Y-76428807D01*
X189092325Y-76423739D01*
X189081876Y-76419142D01*
X189071375Y-76415020D01*
X189060745Y-76411359D01*
X189049878Y-76408177D01*
X189038692Y-76405482D01*
X189027079Y-76403268D01*
X189014947Y-76401541D01*
X189002194Y-76400300D01*
X188988730Y-76399557D01*
X188974451Y-76399305D01*
X188960100Y-76406943D01*
X188946601Y-76414463D01*
X188933882Y-76421950D01*
X188921876Y-76429480D01*
X188910513Y-76437118D01*
X188899746Y-76444947D01*
X188889474Y-76453031D01*
X188879643Y-76461459D01*
X188870185Y-76470294D01*
X188861031Y-76479608D01*
X188852099Y-76489478D01*
X188843350Y-76499977D01*
X188834676Y-76511183D01*
X188826041Y-76523166D01*
X188817363Y-76536008D01*
X188808563Y-76549762D01*
X188800060Y-76575060D01*
X188796723Y-76585584D01*
X188794006Y-76595001D01*
X188791896Y-76603524D01*
X188790402Y-76611388D01*
X188789531Y-76618809D01*
X188789324Y-76622422D01*
X188789278Y-76626016D01*
X188419614Y-76626016D01*
X188518195Y-76428873D01*
X188622131Y-76228156D01*
X188675550Y-76128613D01*
X188730174Y-76029655D01*
X188786184Y-75931351D01*
X188843763Y-75833733D01*
X188917078Y-75710255D01*
X188988773Y-75586085D01*
X189058975Y-75461220D01*
X189127748Y-75335644D01*
X189195194Y-75209328D01*
X189261383Y-75082275D01*
X189298381Y-75008756D01*
X189673241Y-75008756D01*
X189673463Y-75024859D01*
X189674020Y-75041336D01*
X189679183Y-75054735D01*
X189684365Y-75067031D01*
X189689631Y-75078317D01*
X189695047Y-75088715D01*
X189700660Y-75098333D01*
X189706544Y-75107259D01*
X189712755Y-75115620D01*
X189719355Y-75123506D01*
X189726409Y-75131046D01*
X189733984Y-75138328D01*
X189742118Y-75145469D01*
X189750903Y-75152577D01*
X189760376Y-75159751D01*
X189770612Y-75167107D01*
X189793611Y-75182788D01*
X189807643Y-75187624D01*
X189820789Y-75191887D01*
X189833187Y-75195562D01*
X189844952Y-75198640D01*
X189856214Y-75201110D01*
X189867088Y-75202969D01*
X189877716Y-75204200D01*
X189888216Y-75204791D01*
X189898704Y-75204733D01*
X189909326Y-75204017D01*
X189920196Y-75202638D01*
X189931423Y-75200574D01*
X189943170Y-75197831D01*
X189955540Y-75194385D01*
X189968652Y-75190230D01*
X189982652Y-75185363D01*
X190004716Y-75163672D01*
X190014850Y-75153150D01*
X190024420Y-75142748D01*
X190033457Y-75132385D01*
X190041974Y-75121980D01*
X190050015Y-75111465D01*
X190057590Y-75100755D01*
X190064733Y-75089769D01*
X190071469Y-75078447D01*
X190077833Y-75066692D01*
X190083832Y-75054447D01*
X190089503Y-75041611D01*
X190094877Y-75028135D01*
X190099967Y-75013916D01*
X190104820Y-74998898D01*
X190105006Y-74986289D01*
X190105004Y-74974409D01*
X190104762Y-74963162D01*
X190104265Y-74952481D01*
X190103469Y-74942266D01*
X190102333Y-74932416D01*
X190100830Y-74922866D01*
X190098924Y-74913517D01*
X190096582Y-74904282D01*
X190093758Y-74895085D01*
X190090431Y-74885817D01*
X190086563Y-74876410D01*
X190082114Y-74866777D01*
X190077051Y-74856811D01*
X190071352Y-74846439D01*
X190064949Y-74835578D01*
X190044413Y-74818008D01*
X190023978Y-74802567D01*
X190003605Y-74789253D01*
X189993427Y-74783382D01*
X189983254Y-74778044D01*
X189973083Y-74773228D01*
X189962891Y-74768935D01*
X189952693Y-74765171D01*
X189942469Y-74761930D01*
X189932227Y-74759206D01*
X189921959Y-74756999D01*
X189911660Y-74755308D01*
X189901311Y-74754138D01*
X189890932Y-74753491D01*
X189880498Y-74753352D01*
X189870015Y-74753724D01*
X189859477Y-74754608D01*
X189848876Y-74756007D01*
X189838197Y-74757908D01*
X189827457Y-74760328D01*
X189816643Y-74763239D01*
X189794758Y-74770602D01*
X189772500Y-74779974D01*
X189749845Y-74791345D01*
X189726740Y-74804715D01*
X189718291Y-74818909D01*
X189710692Y-74833042D01*
X189703924Y-74847140D01*
X189697941Y-74861231D01*
X189692712Y-74875348D01*
X189688192Y-74889525D01*
X189684347Y-74903791D01*
X189681149Y-74918172D01*
X189678548Y-74932706D01*
X189676503Y-74947431D01*
X189675001Y-74962360D01*
X189673973Y-74977533D01*
X189673402Y-74992995D01*
X189673241Y-75008756D01*
X189298381Y-75008756D01*
X189390407Y-74825890D01*
X189421705Y-74762458D01*
X189453549Y-74699562D01*
X189485982Y-74637140D01*
X189519055Y-74575150D01*
X189552800Y-74513519D01*
X189587269Y-74452185D01*
X189622527Y-74391098D01*
X189658586Y-74330190D01*
X189728090Y-74212436D01*
X189795590Y-74093828D01*
X189861136Y-73974123D01*
X189924781Y-73853104D01*
X190010367Y-73688828D01*
X190053244Y-73608631D01*
X190429943Y-73608631D01*
X190430168Y-73620835D01*
X190430923Y-73632723D01*
X190432226Y-73644412D01*
X190434134Y-73655984D01*
X190436676Y-73667550D01*
X190439906Y-73679216D01*
X190443839Y-73691067D01*
X190448520Y-73703224D01*
X190453994Y-73715788D01*
X190460291Y-73728843D01*
X190467459Y-73742506D01*
X190479594Y-73752748D01*
X190491234Y-73761851D01*
X190502485Y-73769879D01*
X190513454Y-73776915D01*
X190524244Y-73783006D01*
X190534970Y-73788228D01*
X190545725Y-73792638D01*
X190556620Y-73796310D01*
X190567765Y-73799304D01*
X190579268Y-73801682D01*
X190591226Y-73803526D01*
X190603754Y-73804878D01*
X190616954Y-73805818D01*
X190630926Y-73806410D01*
X190661639Y-73806804D01*
X190677585Y-73801720D01*
X190692216Y-73796664D01*
X190705645Y-73791535D01*
X190718013Y-73786230D01*
X190729421Y-73780675D01*
X190739997Y-73774787D01*
X190749856Y-73768456D01*
X190759129Y-73761596D01*
X190767920Y-73754124D01*
X190776355Y-73745944D01*
X190784558Y-73736959D01*
X190792648Y-73727090D01*
X190800743Y-73716249D01*
X190808962Y-73704327D01*
X190817414Y-73691253D01*
X190826242Y-73676918D01*
X190830392Y-73661128D01*
X190833911Y-73646476D01*
X190836783Y-73632821D01*
X190838998Y-73620012D01*
X190840528Y-73607900D01*
X190841334Y-73596319D01*
X190841414Y-73585144D01*
X190840739Y-73574211D01*
X190839298Y-73563379D01*
X190837054Y-73552489D01*
X190833992Y-73541388D01*
X190830093Y-73529945D01*
X190825336Y-73517990D01*
X190819687Y-73505377D01*
X190813140Y-73491967D01*
X190805667Y-73477597D01*
X190790050Y-73461822D01*
X190774667Y-73447723D01*
X190759396Y-73435256D01*
X190744184Y-73424415D01*
X190728925Y-73415153D01*
X190713548Y-73407443D01*
X190697964Y-73401264D01*
X190690063Y-73398739D01*
X190682084Y-73396581D01*
X190673998Y-73394786D01*
X190665826Y-73393366D01*
X190649105Y-73391581D01*
X190631839Y-73391215D01*
X190613940Y-73392217D01*
X190595325Y-73394576D01*
X190575909Y-73398250D01*
X190555601Y-73403220D01*
X190534325Y-73409444D01*
X190524933Y-73416463D01*
X190516208Y-73423431D01*
X190508110Y-73430379D01*
X190500581Y-73437361D01*
X190493567Y-73444421D01*
X190487031Y-73451593D01*
X190480889Y-73458928D01*
X190475110Y-73466462D01*
X190469637Y-73474243D01*
X190464404Y-73482329D01*
X190459379Y-73490739D01*
X190454489Y-73499529D01*
X190449693Y-73508732D01*
X190444941Y-73518409D01*
X190435309Y-73539321D01*
X190433497Y-73554620D01*
X190432006Y-73569111D01*
X190430900Y-73582867D01*
X190430198Y-73596007D01*
X190429943Y-73608631D01*
X190053244Y-73608631D01*
X190097645Y-73525584D01*
X190186895Y-73363410D01*
X190278380Y-73202350D01*
X190371845Y-73039352D01*
X190463347Y-72875522D01*
X190552719Y-72710518D01*
X190639775Y-72543992D01*
X190707808Y-72412609D01*
X190777009Y-72281989D01*
X190847678Y-72152174D01*
X190920117Y-72023180D01*
X191005242Y-71872752D01*
X191089179Y-71721733D01*
X191138302Y-71632040D01*
X191478505Y-71632040D01*
X191479113Y-71644475D01*
X191480356Y-71657775D01*
X191482200Y-71672076D01*
X191484657Y-71687539D01*
X191491708Y-71702934D01*
X191498904Y-71717461D01*
X191506326Y-71731151D01*
X191514007Y-71744057D01*
X191522019Y-71756217D01*
X191530418Y-71767662D01*
X191539272Y-71778445D01*
X191548635Y-71788602D01*
X191558578Y-71798171D01*
X191569140Y-71807186D01*
X191580409Y-71815704D01*
X191592428Y-71823758D01*
X191605258Y-71831383D01*
X191618965Y-71838637D01*
X191633618Y-71845537D01*
X191649253Y-71852140D01*
X191664417Y-71852712D01*
X191679170Y-71852877D01*
X191693541Y-71852609D01*
X191707569Y-71851896D01*
X191721310Y-71850709D01*
X191734791Y-71849035D01*
X191748043Y-71846848D01*
X191761126Y-71844128D01*
X191774060Y-71840865D01*
X191786898Y-71837008D01*
X191799670Y-71832569D01*
X191812430Y-71827515D01*
X191825205Y-71821821D01*
X191838029Y-71815465D01*
X191850956Y-71808433D01*
X191864014Y-71800706D01*
X191871196Y-71788781D01*
X191877696Y-71777088D01*
X191883555Y-71765579D01*
X191888805Y-71754189D01*
X191893495Y-71742886D01*
X191897663Y-71731607D01*
X191901340Y-71720297D01*
X191904560Y-71708911D01*
X191907364Y-71697407D01*
X191909800Y-71685724D01*
X191911901Y-71673803D01*
X191913696Y-71661609D01*
X191915237Y-71649086D01*
X191916553Y-71636172D01*
X191918674Y-71609013D01*
X191917974Y-71596981D01*
X191916942Y-71585659D01*
X191915552Y-71574977D01*
X191913787Y-71564859D01*
X191911605Y-71555238D01*
X191909011Y-71546033D01*
X191905977Y-71537183D01*
X191902472Y-71528596D01*
X191898473Y-71520230D01*
X191893969Y-71511981D01*
X191888924Y-71503794D01*
X191883341Y-71495593D01*
X191877172Y-71487304D01*
X191870415Y-71478864D01*
X191863028Y-71470191D01*
X191855011Y-71461204D01*
X191843851Y-71453604D01*
X191832757Y-71446576D01*
X191821716Y-71440117D01*
X191810741Y-71434225D01*
X191799824Y-71428897D01*
X191788976Y-71424139D01*
X191778182Y-71419945D01*
X191767445Y-71416324D01*
X191756778Y-71413258D01*
X191746162Y-71410760D01*
X191735605Y-71408828D01*
X191725118Y-71407458D01*
X191714678Y-71406649D01*
X191704305Y-71406405D01*
X191693983Y-71406719D01*
X191683719Y-71407590D01*
X191673514Y-71409026D01*
X191663365Y-71411018D01*
X191653274Y-71413569D01*
X191643243Y-71416675D01*
X191633261Y-71420344D01*
X191623333Y-71424573D01*
X191613472Y-71429338D01*
X191603653Y-71434674D01*
X191593900Y-71440557D01*
X191584195Y-71446995D01*
X191574547Y-71453994D01*
X191564947Y-71461529D01*
X191555402Y-71469629D01*
X191545911Y-71478274D01*
X191536477Y-71487473D01*
X191527094Y-71497213D01*
X191518697Y-71510642D01*
X191511155Y-71523173D01*
X191504438Y-71534985D01*
X191498541Y-71546194D01*
X191493440Y-71556958D01*
X191489119Y-71567427D01*
X191485562Y-71577733D01*
X191482742Y-71588031D01*
X191480641Y-71598466D01*
X191479246Y-71609186D01*
X191478542Y-71620326D01*
X191478505Y-71632040D01*
X191138302Y-71632040D01*
X191172172Y-71570197D01*
X191254467Y-71418207D01*
X191349378Y-71242824D01*
X191444791Y-71067707D01*
X191597399Y-70787878D01*
X191754259Y-70500286D01*
X191833578Y-70356986D01*
X191913814Y-70214181D01*
X191941493Y-70164956D01*
X192389976Y-70164956D01*
X192395376Y-70181730D01*
X192397739Y-70188638D01*
X192399998Y-70194727D01*
X192402234Y-70200100D01*
X192404550Y-70204900D01*
X192405759Y-70207117D01*
X192407031Y-70209225D01*
X192408360Y-70211258D01*
X192409764Y-70213219D01*
X192411252Y-70215121D01*
X192412843Y-70216983D01*
X192414544Y-70218821D01*
X192416363Y-70220652D01*
X192420403Y-70224336D01*
X192425072Y-70228162D01*
X192430445Y-70232241D01*
X192436605Y-70236707D01*
X192451704Y-70247258D01*
X192480534Y-70249673D01*
X192507932Y-70251189D01*
X192534319Y-70251668D01*
X192547276Y-70251482D01*
X192560137Y-70251006D01*
X192572973Y-70250193D01*
X192585826Y-70249058D01*
X192598759Y-70247576D01*
X192611820Y-70245730D01*
X192625068Y-70243500D01*
X192638552Y-70240884D01*
X192652337Y-70237855D01*
X192666456Y-70234396D01*
X192678826Y-70224901D01*
X192683885Y-70220840D01*
X192688319Y-70217063D01*
X192692188Y-70213446D01*
X192695580Y-70209870D01*
X192698563Y-70206200D01*
X192701235Y-70202309D01*
X192703660Y-70198077D01*
X192705921Y-70193373D01*
X192708091Y-70188081D01*
X192710256Y-70182057D01*
X192712504Y-70175193D01*
X192714903Y-70167353D01*
X192720466Y-70148240D01*
X192721904Y-70125444D01*
X192722301Y-70115996D01*
X192722406Y-70107611D01*
X192722152Y-70100091D01*
X192721874Y-70096601D01*
X192721480Y-70093272D01*
X192720969Y-70090055D01*
X192720330Y-70086945D01*
X192719554Y-70083912D01*
X192718633Y-70080936D01*
X192717561Y-70078001D01*
X192716328Y-70075069D01*
X192714934Y-70072127D01*
X192713358Y-70069143D01*
X192711605Y-70066107D01*
X192709659Y-70062993D01*
X192705161Y-70056407D01*
X192699823Y-70049232D01*
X192693560Y-70041262D01*
X192678033Y-70022215D01*
X192662018Y-70011831D01*
X192646336Y-70002923D01*
X192630931Y-69995503D01*
X192623324Y-69992340D01*
X192615772Y-69989534D01*
X192608251Y-69987083D01*
X192600785Y-69985000D01*
X192593344Y-69983269D01*
X192585927Y-69981899D01*
X192578537Y-69980873D01*
X192571156Y-69980203D01*
X192563786Y-69979881D01*
X192556418Y-69979916D01*
X192549043Y-69980285D01*
X192541665Y-69981002D01*
X192534265Y-69982063D01*
X192526839Y-69983459D01*
X192519386Y-69985191D01*
X192511896Y-69987262D01*
X192496787Y-69992414D01*
X192481471Y-69998882D01*
X192465875Y-70006657D01*
X192449971Y-70015729D01*
X192433695Y-70026071D01*
X192428161Y-70034899D01*
X192423099Y-70043451D01*
X192418469Y-70051784D01*
X192414271Y-70059962D01*
X192410478Y-70068022D01*
X192407066Y-70076027D01*
X192404026Y-70084038D01*
X192401330Y-70092092D01*
X192398969Y-70100262D01*
X192396915Y-70108590D01*
X192395149Y-70117134D01*
X192393654Y-70125942D01*
X192392401Y-70135073D01*
X192391386Y-70144583D01*
X192390581Y-70154529D01*
X192389976Y-70164956D01*
X191941493Y-70164956D01*
X192107228Y-69870208D01*
X192202554Y-69697477D01*
X192296723Y-69524065D01*
X192328248Y-69465396D01*
X192380428Y-69368453D01*
X192432325Y-69271373D01*
X192465846Y-69208203D01*
X192510077Y-69126343D01*
X192530796Y-69085823D01*
X192540535Y-69065464D01*
X192549759Y-69044949D01*
X192558390Y-69024239D01*
X192566361Y-69003274D01*
X192573573Y-68981984D01*
X192579963Y-68960307D01*
X192585450Y-68938208D01*
X192589954Y-68915612D01*
X192593412Y-68892463D01*
X192595728Y-68868702D01*
X192446761Y-68856968D01*
X192372231Y-68852248D01*
X192297682Y-68848557D01*
X192223091Y-68846096D01*
X192148451Y-68845057D01*
X192073769Y-68845675D01*
X191999044Y-68848137D01*
X191991070Y-68855531D01*
X191984827Y-68861600D01*
X191982190Y-68864372D01*
X191979783Y-68867085D01*
X191977545Y-68869840D01*
X191975420Y-68872723D01*
X191973318Y-68875839D01*
X191971202Y-68879272D01*
X191968986Y-68883112D01*
X191966600Y-68887467D01*
X191961112Y-68898060D01*
X191954190Y-68911803D01*
X191923734Y-68968615D01*
X191889926Y-69031428D01*
X191778997Y-69238401D01*
X191722569Y-69341365D01*
X191664611Y-69443454D01*
X191612657Y-69533844D01*
X191562486Y-69624796D01*
X191513981Y-69716642D01*
X191466984Y-69809689D01*
X191402733Y-69938537D01*
X191336864Y-70066194D01*
X191303137Y-70129592D01*
X191280806Y-70170594D01*
X191268783Y-70192683D01*
X191233721Y-70255486D01*
X191197889Y-70317992D01*
X191131558Y-70433793D01*
X191066911Y-70550372D01*
X191003775Y-70667776D01*
X190941978Y-70786079D01*
X190899003Y-70869629D01*
X190855184Y-70952523D01*
X190832758Y-70993670D01*
X190809878Y-71034596D01*
X190786463Y-71075278D01*
X190762432Y-71115687D01*
X190730712Y-71168514D01*
X190699834Y-71221662D01*
X190669821Y-71275302D01*
X190655153Y-71302360D01*
X190640720Y-71329608D01*
X190619333Y-71370711D01*
X190597845Y-71411776D01*
X190573234Y-71458556D01*
X190490348Y-71615206D01*
X190406864Y-71771526D01*
X190368445Y-71843134D01*
X190310795Y-71950066D01*
X190251897Y-72055919D01*
X190221684Y-72108386D01*
X190190823Y-72160516D01*
X190159190Y-72212281D01*
X190126679Y-72263648D01*
X190110448Y-72261922D01*
X190097583Y-72260430D01*
X190086895Y-72258944D01*
X190077169Y-72257217D01*
X190067202Y-72255009D01*
X190055789Y-72252076D01*
X190041726Y-72248179D01*
X190023806Y-72243073D01*
X190018296Y-72234282D01*
X190013163Y-72225499D01*
X190008360Y-72216733D01*
X190003859Y-72207956D01*
X189999632Y-72199152D01*
X189995661Y-72190323D01*
X189991918Y-72181430D01*
X189988376Y-72172478D01*
X189981771Y-72154328D01*
X189975615Y-72135737D01*
X189969719Y-72116596D01*
X189963844Y-72096803D01*
X189944796Y-72021889D01*
X189912613Y-71895614D01*
X189890770Y-71809555D01*
X189837808Y-71601264D01*
X189818048Y-71522936D01*
X189777697Y-71362533D01*
X189758294Y-71282153D01*
X189739844Y-71201522D01*
X189729318Y-71143576D01*
X189725132Y-71121063D01*
X189721742Y-71100195D01*
X189720411Y-71090207D01*
X189719361Y-71080446D01*
X189718617Y-71070824D01*
X189718215Y-71061279D01*
X189718168Y-71051760D01*
X189718499Y-71042195D01*
X189719259Y-71032506D01*
X189720458Y-71022648D01*
X189722118Y-71012542D01*
X189724282Y-71002124D01*
X189726964Y-70991331D01*
X189730197Y-70980087D01*
X189756325Y-70926243D01*
X189782988Y-70870450D01*
X189796448Y-70842615D01*
X189810069Y-70814856D01*
X189830903Y-70773212D01*
X189861912Y-70711724D01*
X189893427Y-70650586D01*
X189925685Y-70589828D01*
X189958947Y-70529527D01*
X190016635Y-70429183D01*
X190072993Y-70328315D01*
X190128080Y-70226746D01*
X190181950Y-70124299D01*
X190192896Y-70103230D01*
X190497039Y-70103230D01*
X190497187Y-70119137D01*
X190497671Y-70134140D01*
X190498511Y-70148357D01*
X190499752Y-70161869D01*
X190501424Y-70174812D01*
X190503574Y-70187256D01*
X190506231Y-70199318D01*
X190509424Y-70211104D01*
X190513196Y-70222715D01*
X190517578Y-70234248D01*
X190522617Y-70245816D01*
X190528336Y-70257517D01*
X190534769Y-70269450D01*
X190541965Y-70281724D01*
X190549951Y-70294437D01*
X190558760Y-70307692D01*
X190574032Y-70317680D01*
X190589009Y-70326444D01*
X190603769Y-70334045D01*
X190618375Y-70340527D01*
X190632888Y-70345946D01*
X190647396Y-70350351D01*
X190661931Y-70353792D01*
X190676577Y-70356344D01*
X190691402Y-70358021D01*
X190706477Y-70358897D01*
X190721850Y-70359021D01*
X190737602Y-70358441D01*
X190753792Y-70357211D01*
X190770490Y-70355382D01*
X190787758Y-70353012D01*
X190805667Y-70350138D01*
X190815239Y-70346616D01*
X190824189Y-70343169D01*
X190832551Y-70339750D01*
X190840399Y-70336283D01*
X190847770Y-70332733D01*
X190854739Y-70329022D01*
X190861340Y-70325106D01*
X190867649Y-70320916D01*
X190873703Y-70316404D01*
X190879564Y-70311516D01*
X190885294Y-70306187D01*
X190890934Y-70300366D01*
X190896542Y-70293992D01*
X190902193Y-70287004D01*
X190907912Y-70279349D01*
X190913771Y-70270969D01*
X190918426Y-70256323D01*
X190922241Y-70241814D01*
X190925227Y-70227417D01*
X190927442Y-70213125D01*
X190928935Y-70198901D01*
X190929725Y-70184729D01*
X190929865Y-70170594D01*
X190929389Y-70156473D01*
X190928353Y-70142347D01*
X190926781Y-70128188D01*
X190924720Y-70113990D01*
X190922221Y-70099711D01*
X190919307Y-70085346D01*
X190916031Y-70070872D01*
X190908545Y-70041508D01*
X190894376Y-70021507D01*
X190880391Y-70003909D01*
X190866466Y-69988576D01*
X190859501Y-69981712D01*
X190852503Y-69975382D01*
X190845478Y-69969552D01*
X190838399Y-69964207D01*
X190831246Y-69959336D01*
X190824022Y-69954927D01*
X190816694Y-69950953D01*
X190809266Y-69947413D01*
X190801706Y-69944276D01*
X190794023Y-69941529D01*
X190786177Y-69939171D01*
X190778174Y-69937177D01*
X190761620Y-69934210D01*
X190744242Y-69932506D01*
X190725924Y-69931951D01*
X190706559Y-69932408D01*
X190686035Y-69933757D01*
X190664239Y-69935874D01*
X190641060Y-69938626D01*
X190627753Y-69945836D01*
X190615216Y-69953400D01*
X190603406Y-69961326D01*
X190592276Y-69969628D01*
X190581790Y-69978317D01*
X190571914Y-69987417D01*
X190562588Y-69996931D01*
X190553796Y-70006864D01*
X190545467Y-70017234D01*
X190537577Y-70028072D01*
X190530079Y-70039357D01*
X190522932Y-70051134D01*
X190516097Y-70063387D01*
X190509532Y-70076151D01*
X190503190Y-70089430D01*
X190497039Y-70103230D01*
X190192896Y-70103230D01*
X190315340Y-69867557D01*
X190383446Y-69739970D01*
X190453309Y-69613281D01*
X190514822Y-69502896D01*
X190575498Y-69392080D01*
X190695150Y-69169498D01*
X190822841Y-68931115D01*
X190887982Y-68812650D01*
X190954844Y-68695095D01*
X190980283Y-68650851D01*
X191005275Y-68606394D01*
X191054119Y-68516908D01*
X191073250Y-68480822D01*
X191419476Y-68480822D01*
X191420275Y-68496425D01*
X191421329Y-68511492D01*
X191422672Y-68526030D01*
X191424389Y-68540096D01*
X191426535Y-68553730D01*
X191429181Y-68566946D01*
X191432385Y-68579787D01*
X191436236Y-68592314D01*
X191440767Y-68604530D01*
X191446058Y-68616502D01*
X191452187Y-68628238D01*
X191459208Y-68639782D01*
X191467183Y-68651181D01*
X191476184Y-68662461D01*
X191486268Y-68673658D01*
X191497510Y-68684810D01*
X191512397Y-68693193D01*
X191526408Y-68700720D01*
X191539685Y-68707389D01*
X191552377Y-68713225D01*
X191564629Y-68718252D01*
X191576580Y-68722476D01*
X191588369Y-68725927D01*
X191600144Y-68728608D01*
X191612048Y-68730552D01*
X191624219Y-68731761D01*
X191636814Y-68732256D01*
X191649964Y-68732066D01*
X191663810Y-68731193D01*
X191678501Y-68729660D01*
X191694176Y-68727479D01*
X191710983Y-68724678D01*
X191737104Y-68709486D01*
X191748990Y-68702265D01*
X191760139Y-68695154D01*
X191770584Y-68688031D01*
X191780349Y-68680782D01*
X191789473Y-68673301D01*
X191797991Y-68665467D01*
X191805939Y-68657168D01*
X191813326Y-68648303D01*
X191820212Y-68638739D01*
X191823481Y-68633664D01*
X191826625Y-68628372D01*
X191832579Y-68617096D01*
X191838129Y-68604796D01*
X191843287Y-68591337D01*
X191848104Y-68576637D01*
X191852180Y-68545075D01*
X191853696Y-68530151D01*
X191854797Y-68515720D01*
X191855411Y-68501695D01*
X191855480Y-68488003D01*
X191854951Y-68474584D01*
X191853772Y-68461364D01*
X191851875Y-68448278D01*
X191849504Y-68436624D01*
X193068970Y-68436624D01*
X193069310Y-68471833D01*
X193069845Y-68487762D01*
X193069860Y-68488003D01*
X193070721Y-68502758D01*
X193072006Y-68516981D01*
X193073762Y-68530549D01*
X193076079Y-68543604D01*
X193079009Y-68556305D01*
X193082628Y-68568780D01*
X193087009Y-68581178D01*
X193092227Y-68593630D01*
X193098346Y-68606276D01*
X193105441Y-68619259D01*
X193113574Y-68632730D01*
X193122823Y-68646810D01*
X193133265Y-68661665D01*
X193146275Y-68670739D01*
X193158789Y-68678918D01*
X193170903Y-68686239D01*
X193182713Y-68692751D01*
X193194318Y-68698504D01*
X193205817Y-68703544D01*
X193217301Y-68707912D01*
X193228875Y-68711657D01*
X193240645Y-68714822D01*
X193252697Y-68717460D01*
X193265123Y-68719612D01*
X193278032Y-68721324D01*
X193291521Y-68722639D01*
X193305693Y-68723608D01*
X193320626Y-68724267D01*
X193336441Y-68724678D01*
X193350964Y-68720044D01*
X193364623Y-68714730D01*
X193377465Y-68708738D01*
X193389563Y-68702114D01*
X193400998Y-68694869D01*
X193411814Y-68687034D01*
X193422091Y-68678612D01*
X193431885Y-68669641D01*
X193441271Y-68660139D01*
X193450307Y-68650125D01*
X193459074Y-68639635D01*
X193467632Y-68628671D01*
X193476038Y-68617280D01*
X193484369Y-68605452D01*
X193501046Y-68580649D01*
X193507227Y-68558261D01*
X193509927Y-68547642D01*
X193512337Y-68537333D01*
X193514432Y-68527259D01*
X193516184Y-68517360D01*
X193517583Y-68507585D01*
X193518598Y-68497865D01*
X193519199Y-68488142D01*
X193519368Y-68478350D01*
X193519089Y-68468428D01*
X193518332Y-68458325D01*
X193517062Y-68447965D01*
X193515288Y-68437289D01*
X193512951Y-68426238D01*
X193510050Y-68414763D01*
X193492558Y-68391895D01*
X193475323Y-68370933D01*
X193458195Y-68351887D01*
X193441090Y-68334822D01*
X193423842Y-68319747D01*
X193415138Y-68312978D01*
X193406341Y-68306725D01*
X193397468Y-68300981D01*
X193388470Y-68295762D01*
X193379352Y-68291084D01*
X193370091Y-68286928D01*
X193360686Y-68283305D01*
X193351087Y-68280226D01*
X193341308Y-68277694D01*
X193331332Y-68275716D01*
X193321120Y-68274288D01*
X193310683Y-68273416D01*
X193299990Y-68273114D01*
X193289039Y-68273373D01*
X193277792Y-68274208D01*
X193266248Y-68275623D01*
X193254391Y-68277616D01*
X193242208Y-68280190D01*
X193229675Y-68283358D01*
X193216783Y-68287130D01*
X193189840Y-68296447D01*
X193177693Y-68304206D01*
X193166463Y-68311613D01*
X193156084Y-68318782D01*
X193146495Y-68325807D01*
X193137618Y-68332790D01*
X193129403Y-68339846D01*
X193121781Y-68347066D01*
X193114681Y-68354552D01*
X193108042Y-68362418D01*
X193101800Y-68370759D01*
X193095894Y-68379685D01*
X193090240Y-68389291D01*
X193084789Y-68399686D01*
X193079464Y-68410975D01*
X193074212Y-68423251D01*
X193068970Y-68436624D01*
X191849504Y-68436624D01*
X191849222Y-68435239D01*
X191845734Y-68422197D01*
X191841360Y-68409062D01*
X191836041Y-68395787D01*
X191829721Y-68382279D01*
X191822347Y-68368481D01*
X191813857Y-68354320D01*
X191792589Y-68337524D01*
X191772158Y-68322157D01*
X191762094Y-68315017D01*
X191752046Y-68308263D01*
X191741945Y-68301896D01*
X191731724Y-68295919D01*
X191721308Y-68290338D01*
X191710644Y-68285171D01*
X191699669Y-68280407D01*
X191688301Y-68276064D01*
X191676489Y-68272150D01*
X191664162Y-68268661D01*
X191651245Y-68265621D01*
X191637687Y-68263022D01*
X191625989Y-68265270D01*
X191614865Y-68267728D01*
X191604235Y-68270426D01*
X191594052Y-68273362D01*
X191584260Y-68276559D01*
X191574785Y-68280035D01*
X191565576Y-68283807D01*
X191556570Y-68287892D01*
X191547712Y-68292301D01*
X191538929Y-68297054D01*
X191530183Y-68302161D01*
X191521393Y-68307657D01*
X191512504Y-68313548D01*
X191503453Y-68319851D01*
X191494197Y-68326575D01*
X191484657Y-68333743D01*
X191476954Y-68342645D01*
X191469827Y-68351284D01*
X191463249Y-68359728D01*
X191457209Y-68368033D01*
X191451673Y-68376285D01*
X191446635Y-68384518D01*
X191442071Y-68392815D01*
X191437979Y-68401243D01*
X191434315Y-68409851D01*
X191431073Y-68418711D01*
X191428240Y-68427899D01*
X191425789Y-68437461D01*
X191423707Y-68447469D01*
X191421973Y-68457991D01*
X191420568Y-68469092D01*
X191419476Y-68480822D01*
X191073250Y-68480822D01*
X191101874Y-68426831D01*
X191149019Y-68336315D01*
X191177212Y-68281387D01*
X191204547Y-68228448D01*
X191228490Y-68181769D01*
X191258327Y-68127995D01*
X191265873Y-68111148D01*
X191273585Y-68094639D01*
X191281511Y-68078404D01*
X191289704Y-68062389D01*
X191298213Y-68046552D01*
X191307077Y-68030810D01*
X191316360Y-68015119D01*
X191326085Y-67999420D01*
X191344013Y-67981292D01*
X191351794Y-67973956D01*
X191359140Y-67967647D01*
X191366346Y-67962299D01*
X191373690Y-67957826D01*
X191381441Y-67954136D01*
X191389875Y-67951151D01*
X191399280Y-67948785D01*
X191409926Y-67946963D01*
X191422089Y-67945596D01*
X191436045Y-67944597D01*
X191452078Y-67943897D01*
X191470454Y-67943390D01*
X191515380Y-67942679D01*
X191577497Y-67944374D01*
X191681593Y-67944386D01*
X191733633Y-67944712D01*
X191785684Y-67945357D01*
X191860669Y-67946377D01*
X191935658Y-67946969D01*
X192133737Y-67947890D01*
X192331810Y-67949845D01*
X192534140Y-67951914D01*
X192736498Y-67953173D01*
X193112991Y-67956022D01*
X193489275Y-67961568D01*
X193865491Y-67970615D01*
X194241762Y-67983960D01*
X194216729Y-68025419D01*
X194183529Y-68080529D01*
X194145016Y-68145401D01*
X194107383Y-68210689D01*
X194070529Y-68276425D01*
X194034311Y-68342606D01*
X193960495Y-68478350D01*
X193899028Y-68591364D01*
G37*
D11*
G36*
X197039654Y-64612500D02*
G01*
X197427908Y-63164536D01*
X197192886Y-63164536D01*
X196957771Y-64129815D01*
X196933683Y-64226352D01*
X196911610Y-64322889D01*
X196889628Y-64226352D01*
X196865448Y-64129815D01*
X196630425Y-63164536D01*
X196395402Y-63164536D01*
X196783657Y-64612500D01*
X197039654Y-64612500D01*
G37*
G36*
X195735763Y-63507636D02*
G01*
X195816547Y-63519177D01*
X195895223Y-63541159D01*
X195969779Y-63576879D01*
X196034808Y-63627254D01*
X196061706Y-63657562D01*
X196084084Y-63692284D01*
X196101136Y-63729919D01*
X196112386Y-63768946D01*
X196120812Y-63850737D01*
X196120812Y-64283046D01*
X196112386Y-64364929D01*
X196101140Y-64403877D01*
X196084084Y-64441499D01*
X196061706Y-64476221D01*
X196034808Y-64506529D01*
X195969779Y-64556904D01*
X195895223Y-64592533D01*
X195816547Y-64614606D01*
X195735763Y-64626147D01*
X195652782Y-64629261D01*
X195569984Y-64626147D01*
X195489200Y-64614606D01*
X195410432Y-64592533D01*
X195335968Y-64556904D01*
X195270939Y-64506529D01*
X195243968Y-64476215D01*
X195221571Y-64441499D01*
X195204467Y-64403870D01*
X195193269Y-64364929D01*
X195184843Y-64283046D01*
X195184843Y-63850737D01*
X195409424Y-63850737D01*
X195409424Y-64283046D01*
X195419957Y-64335528D01*
X195432813Y-64358930D01*
X195450366Y-64378576D01*
X195495428Y-64407885D01*
X195546903Y-64425745D01*
X195599384Y-64434172D01*
X195652782Y-64436187D01*
X195706363Y-64434172D01*
X195758844Y-64425745D01*
X195810227Y-64407885D01*
X195855381Y-64378576D01*
X195872881Y-64358940D01*
X195885790Y-64335528D01*
X195896231Y-64283046D01*
X195896231Y-63850737D01*
X195885790Y-63798255D01*
X195872877Y-63774860D01*
X195855381Y-63755299D01*
X195810227Y-63725898D01*
X195758844Y-63708038D01*
X195706363Y-63699611D01*
X195652782Y-63697505D01*
X195599384Y-63699611D01*
X195546903Y-63708038D01*
X195495428Y-63725898D01*
X195450366Y-63755299D01*
X195432817Y-63774870D01*
X195419957Y-63798255D01*
X195409424Y-63850737D01*
X195184843Y-63850737D01*
X195193269Y-63768946D01*
X195204471Y-63729926D01*
X195221571Y-63692284D01*
X195243968Y-63657568D01*
X195270939Y-63627254D01*
X195335968Y-63576879D01*
X195410432Y-63541159D01*
X195489200Y-63519177D01*
X195569984Y-63507636D01*
X195652782Y-63504431D01*
X195735763Y-63507636D01*
G37*
G36*
X194815823Y-64612500D02*
G01*
X194815823Y-64419426D01*
X194488385Y-64419426D01*
X194488385Y-63252647D01*
X194782209Y-63252647D01*
X194782209Y-63059573D01*
X194266002Y-63059573D01*
X194266002Y-64419426D01*
X193972177Y-64419426D01*
X193972177Y-64612500D01*
X194815823Y-64612500D01*
G37*
G36*
X192683949Y-64612500D02*
G01*
X192984093Y-64612500D01*
X193082737Y-64604165D01*
X193129925Y-64592358D01*
X193175060Y-64573756D01*
X193216919Y-64548376D01*
X193254836Y-64516054D01*
X193287158Y-64478137D01*
X193312538Y-64436278D01*
X193331143Y-64391065D01*
X193342947Y-64343863D01*
X193351282Y-64245219D01*
X193351282Y-63714357D01*
X193657654Y-63714357D01*
X193657654Y-63521284D01*
X193351282Y-63521284D01*
X193351282Y-63200165D01*
X193126792Y-63200165D01*
X193126792Y-63521284D01*
X192683949Y-63521284D01*
X192683949Y-63714357D01*
X193126792Y-63714357D01*
X193126792Y-64245219D01*
X193120472Y-64309241D01*
X193110936Y-64340105D01*
X193095284Y-64366944D01*
X193073706Y-64389109D01*
X193046008Y-64405778D01*
X193015047Y-64416065D01*
X192984093Y-64419426D01*
X192683949Y-64419426D01*
X192683949Y-64612500D01*
G37*
G36*
X191981262Y-63509743D02*
G01*
X192083112Y-63529710D01*
X192131421Y-63547192D01*
X192178549Y-63570651D01*
X192222000Y-63599869D01*
X192259333Y-63634582D01*
X192289856Y-63675214D01*
X192312822Y-63722692D01*
X192327048Y-63773469D01*
X192331690Y-63823442D01*
X192331690Y-63840204D01*
X192109307Y-63840204D01*
X192109307Y-63833975D01*
X192103078Y-63798188D01*
X192084119Y-63765740D01*
X192056393Y-63739135D01*
X192024310Y-63720677D01*
X191952961Y-63700710D01*
X191878406Y-63695398D01*
X191833343Y-63696497D01*
X191788188Y-63700710D01*
X191743126Y-63708038D01*
X191701177Y-63721685D01*
X191664449Y-63746872D01*
X191651810Y-63764457D01*
X191647596Y-63785707D01*
X191647596Y-63951487D01*
X191830137Y-63951487D01*
X191950854Y-63957807D01*
X192067358Y-63980887D01*
X192122754Y-64000984D01*
X192176443Y-64028057D01*
X192225874Y-64061988D01*
X192268767Y-64102612D01*
X192303054Y-64149975D01*
X192326469Y-64204370D01*
X192339857Y-64262802D01*
X192344329Y-64322889D01*
X192333888Y-64412098D01*
X192319378Y-64455282D01*
X192297160Y-64493981D01*
X192268319Y-64528225D01*
X192234145Y-64557911D01*
X192195860Y-64582321D01*
X192154461Y-64600959D01*
X192066259Y-64622941D01*
X191977049Y-64629261D01*
X191881611Y-64622941D01*
X191835181Y-64613561D01*
X191790295Y-64597845D01*
X191747871Y-64576054D01*
X191708504Y-64548477D01*
X191674313Y-64515124D01*
X191647596Y-64476120D01*
X191647596Y-64612500D01*
X191425121Y-64612500D01*
X191425121Y-64316569D01*
X191647596Y-64316569D01*
X191650680Y-64339126D01*
X191660236Y-64361723D01*
X191674920Y-64381722D01*
X191693758Y-64397444D01*
X191738912Y-64418418D01*
X191787181Y-64429959D01*
X191835449Y-64436187D01*
X191884725Y-64438293D01*
X191936200Y-64436187D01*
X191987582Y-64428859D01*
X192036950Y-64414205D01*
X192081005Y-64388010D01*
X192111413Y-64348076D01*
X192121855Y-64297701D01*
X192117981Y-64269084D01*
X192106101Y-64241098D01*
X192087955Y-64216099D01*
X192065251Y-64195943D01*
X192011762Y-64168649D01*
X191952961Y-64152987D01*
X191892053Y-64145660D01*
X191830137Y-64144561D01*
X191647596Y-64144561D01*
X191647596Y-64316569D01*
X191425121Y-64316569D01*
X191425121Y-63785707D01*
X191435654Y-63711152D01*
X191449082Y-63676119D01*
X191468169Y-63645115D01*
X191520651Y-63593732D01*
X191585681Y-63555905D01*
X191656022Y-63530717D01*
X191728379Y-63514964D01*
X191802935Y-63506537D01*
X191878406Y-63504431D01*
X191981262Y-63509743D01*
G37*
G36*
X190814758Y-63511850D02*
G01*
X190861878Y-63522383D01*
X190906075Y-63539144D01*
X190947126Y-63562115D01*
X190984752Y-63591534D01*
X191017337Y-63626462D01*
X191043553Y-63666089D01*
X191063209Y-63709331D01*
X191076068Y-63755299D01*
X191085502Y-63850737D01*
X191085502Y-64283046D01*
X191076068Y-64378576D01*
X191063213Y-64424465D01*
X191043553Y-64467694D01*
X191017348Y-64507262D01*
X190984752Y-64542249D01*
X190947130Y-64571688D01*
X190906075Y-64594731D01*
X190861882Y-64611421D01*
X190814758Y-64621933D01*
X190718222Y-64629261D01*
X190621685Y-64620834D01*
X190574395Y-64609592D01*
X190529361Y-64592624D01*
X190487541Y-64569082D01*
X190449676Y-64538036D01*
X190417121Y-64501040D01*
X190390875Y-64459268D01*
X190390875Y-64744665D01*
X190400309Y-64795040D01*
X190427603Y-64838088D01*
X190468544Y-64867489D01*
X190516813Y-64885258D01*
X190568195Y-64894692D01*
X190619578Y-64897897D01*
X190666839Y-64895791D01*
X190714008Y-64889471D01*
X190760170Y-64877930D01*
X190802211Y-64856956D01*
X190834725Y-64822335D01*
X190845029Y-64800612D01*
X190848372Y-64778279D01*
X190848372Y-64776173D01*
X191072862Y-64776173D01*
X191072862Y-64784599D01*
X191067863Y-64835904D01*
X191052987Y-64884250D01*
X191029096Y-64928891D01*
X190997391Y-64968239D01*
X190959322Y-65001817D01*
X190916608Y-65029056D01*
X190822177Y-65066791D01*
X190721427Y-65085659D01*
X190619578Y-65090971D01*
X190511592Y-65084651D01*
X190406629Y-65061571D01*
X190356489Y-65041904D01*
X190308993Y-65016416D01*
X190265951Y-64984667D01*
X190229308Y-64946166D01*
X190200474Y-64901661D01*
X190181040Y-64851735D01*
X190169981Y-64798736D01*
X190166294Y-64744665D01*
X190166294Y-63850737D01*
X190390875Y-63850737D01*
X190390875Y-64283046D01*
X190400309Y-64334521D01*
X190428702Y-64377477D01*
X190471750Y-64406878D01*
X190521026Y-64424738D01*
X190572409Y-64434172D01*
X190625898Y-64436187D01*
X190679478Y-64434172D01*
X190730861Y-64424738D01*
X190780229Y-64406878D01*
X190823185Y-64377477D01*
X190851487Y-64334521D01*
X190860920Y-64283046D01*
X190860920Y-63850737D01*
X190851487Y-63799354D01*
X190823185Y-63756306D01*
X190780229Y-63726997D01*
X190730861Y-63709137D01*
X190679478Y-63699611D01*
X190625898Y-63697505D01*
X190572409Y-63699611D01*
X190521026Y-63709137D01*
X190471750Y-63726997D01*
X190428702Y-63756306D01*
X190400309Y-63799354D01*
X190390875Y-63850737D01*
X190166294Y-63850737D01*
X190166294Y-63521284D01*
X190390875Y-63521284D01*
X190390875Y-63674424D01*
X190417115Y-63632728D01*
X190449676Y-63595747D01*
X190487544Y-63564722D01*
X190529361Y-63541250D01*
X190574398Y-63524191D01*
X190621685Y-63512857D01*
X190718222Y-63504431D01*
X190814758Y-63511850D01*
G37*
G36*
X189441625Y-63507636D02*
G01*
X189522409Y-63519177D01*
X189601085Y-63541159D01*
X189675640Y-63576879D01*
X189740670Y-63627254D01*
X189767567Y-63657562D01*
X189789946Y-63692284D01*
X189806998Y-63729919D01*
X189818248Y-63768946D01*
X189826674Y-63850737D01*
X189826674Y-64283046D01*
X189818248Y-64364929D01*
X189806965Y-64403723D01*
X189789946Y-64440491D01*
X189740670Y-64505521D01*
X189676648Y-64556904D01*
X189603192Y-64592533D01*
X189524515Y-64614606D01*
X189443732Y-64626147D01*
X189360750Y-64629261D01*
X189254871Y-64624040D01*
X189150915Y-64604165D01*
X189053371Y-64564231D01*
X189008938Y-64535570D01*
X188970481Y-64500209D01*
X188938804Y-64458644D01*
X188914885Y-64411091D01*
X188899871Y-64359990D01*
X188894918Y-64308234D01*
X188894918Y-64293488D01*
X189117393Y-64293488D01*
X189117393Y-64299808D01*
X189120497Y-64324344D01*
X189129941Y-64348076D01*
X189162456Y-64388010D01*
X189207610Y-64414205D01*
X189257985Y-64428859D01*
X189309368Y-64436187D01*
X189360750Y-64438293D01*
X189415339Y-64436187D01*
X189468919Y-64427852D01*
X189520302Y-64409992D01*
X189564357Y-64379583D01*
X189593758Y-64335528D01*
X189604199Y-64283046D01*
X189604199Y-64163428D01*
X188890705Y-64163428D01*
X188890705Y-63850737D01*
X189113180Y-63850737D01*
X189113180Y-63970355D01*
X189604199Y-63970355D01*
X189604199Y-63850737D01*
X189593758Y-63798255D01*
X189563350Y-63754200D01*
X189518195Y-63723791D01*
X189466813Y-63705931D01*
X189413232Y-63697505D01*
X189358644Y-63695398D01*
X189304147Y-63697505D01*
X189250658Y-63705931D01*
X189199184Y-63723791D01*
X189154121Y-63754200D01*
X189123713Y-63798255D01*
X189113180Y-63850737D01*
X188890705Y-63850737D01*
X188899131Y-63768946D01*
X188910333Y-63729926D01*
X188927433Y-63692284D01*
X188949830Y-63657568D01*
X188976801Y-63627254D01*
X189041830Y-63576879D01*
X189116294Y-63541159D01*
X189195062Y-63519177D01*
X189275845Y-63507636D01*
X189358644Y-63504431D01*
X189441625Y-63507636D01*
G37*
G36*
X187201949Y-64612500D02*
G01*
X187201949Y-63164536D01*
X186389811Y-63164536D01*
X186389811Y-63357610D01*
X186979566Y-63357610D01*
X186979566Y-63762626D01*
X186524175Y-63762626D01*
X186524175Y-63955700D01*
X186979566Y-63955700D01*
X186979566Y-64612500D01*
X187201949Y-64612500D01*
G37*
G36*
X185665142Y-63507636D02*
G01*
X185745926Y-63519177D01*
X185824602Y-63541159D01*
X185899157Y-63576879D01*
X185964187Y-63627254D01*
X185991084Y-63657562D01*
X186013463Y-63692284D01*
X186030515Y-63729919D01*
X186041765Y-63768946D01*
X186050191Y-63850737D01*
X186050191Y-64283046D01*
X186041765Y-64364929D01*
X186030519Y-64403877D01*
X186013463Y-64441499D01*
X185991084Y-64476221D01*
X185964187Y-64506529D01*
X185899157Y-64556904D01*
X185824602Y-64592533D01*
X185745926Y-64614606D01*
X185665142Y-64626147D01*
X185582161Y-64629261D01*
X185499362Y-64626147D01*
X185418579Y-64614606D01*
X185339811Y-64592533D01*
X185265347Y-64556904D01*
X185200318Y-64506529D01*
X185173347Y-64476215D01*
X185150950Y-64441499D01*
X185133846Y-64403870D01*
X185122648Y-64364929D01*
X185114222Y-64283046D01*
X185114222Y-63850737D01*
X185338803Y-63850737D01*
X185338803Y-64283046D01*
X185349336Y-64335528D01*
X185362192Y-64358930D01*
X185379745Y-64378576D01*
X185424807Y-64407885D01*
X185476282Y-64425745D01*
X185528763Y-64434172D01*
X185582161Y-64436187D01*
X185635742Y-64434172D01*
X185688223Y-64425745D01*
X185739606Y-64407885D01*
X185784760Y-64378576D01*
X185802260Y-64358940D01*
X185815168Y-64335528D01*
X185825610Y-64283046D01*
X185825610Y-63850737D01*
X185815168Y-63798255D01*
X185802256Y-63774860D01*
X185784760Y-63755299D01*
X185739606Y-63725898D01*
X185688223Y-63708038D01*
X185635742Y-63699611D01*
X185582161Y-63697505D01*
X185528763Y-63699611D01*
X185476282Y-63708038D01*
X185424807Y-63725898D01*
X185379745Y-63755299D01*
X185362196Y-63774870D01*
X185349336Y-63798255D01*
X185338803Y-63850737D01*
X185114222Y-63850737D01*
X185122648Y-63768946D01*
X185133850Y-63729926D01*
X185150950Y-63692284D01*
X185173347Y-63657568D01*
X185200318Y-63627254D01*
X185265347Y-63576879D01*
X185339811Y-63541159D01*
X185418579Y-63519177D01*
X185499362Y-63507636D01*
X185582161Y-63504431D01*
X185665142Y-63507636D01*
G37*
G36*
X184415749Y-64629261D02*
G01*
X184511278Y-64621933D01*
X184557237Y-64611164D01*
X184600396Y-64593632D01*
X184640650Y-64569867D01*
X184678065Y-64540143D01*
X184710370Y-64505116D01*
X184735768Y-64465587D01*
X184754378Y-64422537D01*
X184766176Y-64377477D01*
X184774511Y-64283046D01*
X184774511Y-63521284D01*
X184550021Y-63521284D01*
X184550021Y-64283046D01*
X184541686Y-64333422D01*
X184530613Y-64356835D01*
X184514392Y-64376469D01*
X184472352Y-64405778D01*
X184425182Y-64423639D01*
X184374807Y-64433073D01*
X184323333Y-64436187D01*
X184271951Y-64433073D01*
X184221667Y-64423639D01*
X184174406Y-64405778D01*
X184132457Y-64376469D01*
X184116185Y-64356826D01*
X184105163Y-64333422D01*
X184096737Y-64283046D01*
X184096737Y-63521284D01*
X183872156Y-63521284D01*
X183872156Y-64612500D01*
X184096737Y-64612500D01*
X184096737Y-64461374D01*
X184121380Y-64502795D01*
X184153432Y-64539043D01*
X184190904Y-64569411D01*
X184231101Y-64592624D01*
X184274337Y-64609523D01*
X184321318Y-64620834D01*
X184415749Y-64629261D01*
G37*
G36*
X183515683Y-64612500D02*
G01*
X183515683Y-63521284D01*
X183291193Y-63521284D01*
X183291193Y-63672317D01*
X183266564Y-63630907D01*
X183234590Y-63594740D01*
X183197054Y-63564382D01*
X183156921Y-63541250D01*
X183113604Y-63524257D01*
X183066612Y-63512857D01*
X182972182Y-63504431D01*
X182876744Y-63511850D01*
X182830706Y-63522622D01*
X182787534Y-63540151D01*
X182747296Y-63563921D01*
X182709957Y-63593640D01*
X182677608Y-63628618D01*
X182652254Y-63668196D01*
X182633574Y-63711251D01*
X182621754Y-63756306D01*
X182613328Y-63850737D01*
X182613328Y-64612500D01*
X182837909Y-64612500D01*
X182837909Y-63850737D01*
X182846336Y-63800362D01*
X182857361Y-63776974D01*
X182873630Y-63757405D01*
X182915578Y-63728005D01*
X182962839Y-63710144D01*
X183013123Y-63700710D01*
X183064506Y-63697505D01*
X183115980Y-63700710D01*
X183166355Y-63710144D01*
X183213524Y-63728005D01*
X183255564Y-63757405D01*
X183271781Y-63776964D01*
X183282859Y-63800362D01*
X183291193Y-63850737D01*
X183291193Y-64612500D01*
X183515683Y-64612500D01*
G37*
G36*
X181579082Y-63674424D02*
G01*
X181605322Y-63632728D01*
X181637883Y-63595747D01*
X181675751Y-63564722D01*
X181717567Y-63541250D01*
X181762604Y-63524191D01*
X181809891Y-63512857D01*
X181906428Y-63504431D01*
X182002965Y-63511850D01*
X182050084Y-63522383D01*
X182094281Y-63539144D01*
X182135333Y-63562115D01*
X182172958Y-63591534D01*
X182205544Y-63626462D01*
X182231760Y-63666089D01*
X182251416Y-63709331D01*
X182264274Y-63755299D01*
X182273708Y-63850737D01*
X182273708Y-64283046D01*
X182264274Y-64378576D01*
X182251420Y-64424465D01*
X182231760Y-64467694D01*
X182205554Y-64507262D01*
X182172958Y-64542249D01*
X182135336Y-64571688D01*
X182094281Y-64594731D01*
X182050089Y-64611421D01*
X182002965Y-64621933D01*
X181906428Y-64629261D01*
X181809891Y-64620834D01*
X181762602Y-64609592D01*
X181717567Y-64592624D01*
X181675747Y-64569082D01*
X181637883Y-64538036D01*
X181605327Y-64501040D01*
X181579082Y-64459268D01*
X181579082Y-64612500D01*
X181354500Y-64612500D01*
X181354500Y-63850737D01*
X181579082Y-63850737D01*
X181579082Y-64283046D01*
X181588515Y-64334521D01*
X181616909Y-64377477D01*
X181659957Y-64406878D01*
X181709232Y-64424738D01*
X181760615Y-64434172D01*
X181814104Y-64436187D01*
X181867685Y-64434172D01*
X181919068Y-64424738D01*
X181968435Y-64406878D01*
X182011391Y-64377477D01*
X182039693Y-64334521D01*
X182049127Y-64283046D01*
X182049127Y-63850737D01*
X182039693Y-63799354D01*
X182011391Y-63756306D01*
X181968435Y-63726997D01*
X181919068Y-63709137D01*
X181867685Y-63699611D01*
X181814104Y-63697505D01*
X181760615Y-63699611D01*
X181709232Y-63709137D01*
X181659957Y-63726997D01*
X181616909Y-63756306D01*
X181588515Y-63799354D01*
X181579082Y-63850737D01*
X181354500Y-63850737D01*
X181354500Y-63059573D01*
X181579082Y-63059573D01*
X181579082Y-63674424D01*
G37*
G36*
X180855329Y-64612500D02*
G01*
X180855329Y-63521284D01*
X180630839Y-63521284D01*
X180630839Y-63808788D01*
X180607256Y-63759784D01*
X180578358Y-63713350D01*
X180544447Y-63670501D01*
X180506001Y-63632567D01*
X180463075Y-63599546D01*
X180415783Y-63571659D01*
X180313934Y-63530717D01*
X180206956Y-63509743D01*
X180097779Y-63504431D01*
X180097779Y-63714357D01*
X180168121Y-63715457D01*
X180237364Y-63720677D01*
X180305599Y-63732218D01*
X180372736Y-63748979D01*
X180438864Y-63772060D01*
X180500780Y-63804575D01*
X180555277Y-63847622D01*
X180598324Y-63901112D01*
X180623512Y-63965134D01*
X180630839Y-64033278D01*
X180630839Y-64612500D01*
X180855329Y-64612500D01*
G37*
G36*
X179569299Y-65074210D02*
G01*
X179511596Y-64906232D01*
X179453802Y-64738437D01*
X179403519Y-64591525D01*
X179774921Y-63521284D01*
X179539898Y-63521284D01*
X179283901Y-64352289D01*
X179036239Y-63521284D01*
X178801216Y-63521284D01*
X179258713Y-64851735D01*
X179334185Y-65074210D01*
X179569299Y-65074210D01*
G37*
G36*
X192384171Y-67132500D02*
G01*
X192384171Y-65684536D01*
X192123961Y-65684536D01*
X191876299Y-66442086D01*
X191628728Y-65684536D01*
X191368518Y-65684536D01*
X191368518Y-67132500D01*
X191582566Y-67132500D01*
X191582566Y-66842889D01*
X191579452Y-66590006D01*
X191569926Y-66335016D01*
X191561592Y-66192317D01*
X191556371Y-66080118D01*
X191553165Y-65967827D01*
X191792401Y-66698083D01*
X191960288Y-66698083D01*
X192199523Y-65967827D01*
X192196409Y-66080118D01*
X192191097Y-66192317D01*
X192182762Y-66335016D01*
X192173328Y-66590006D01*
X192170123Y-66842889D01*
X192170123Y-67132500D01*
X192384171Y-67132500D01*
G37*
G36*
X190700452Y-66027636D02*
G01*
X190781236Y-66039177D01*
X190859912Y-66061159D01*
X190934468Y-66096879D01*
X190999497Y-66147254D01*
X191026395Y-66177562D01*
X191048773Y-66212284D01*
X191065825Y-66249919D01*
X191077075Y-66288946D01*
X191085501Y-66370737D01*
X191085501Y-66803046D01*
X191077075Y-66884929D01*
X191065829Y-66923877D01*
X191048773Y-66961499D01*
X191026395Y-66996221D01*
X190999497Y-67026529D01*
X190934468Y-67076904D01*
X190859912Y-67112533D01*
X190781236Y-67134606D01*
X190700452Y-67146147D01*
X190617471Y-67149261D01*
X190534673Y-67146147D01*
X190453889Y-67134606D01*
X190375121Y-67112533D01*
X190300657Y-67076904D01*
X190235628Y-67026529D01*
X190208657Y-66996215D01*
X190186260Y-66961499D01*
X190169156Y-66923870D01*
X190157958Y-66884929D01*
X190149532Y-66803046D01*
X190149532Y-66370737D01*
X190374113Y-66370737D01*
X190374113Y-66803046D01*
X190384646Y-66855528D01*
X190397502Y-66878930D01*
X190415055Y-66898576D01*
X190460117Y-66927885D01*
X190511592Y-66945745D01*
X190564073Y-66954172D01*
X190617471Y-66956187D01*
X190671052Y-66954172D01*
X190723533Y-66945745D01*
X190774916Y-66927885D01*
X190820070Y-66898576D01*
X190837570Y-66878940D01*
X190850479Y-66855528D01*
X190860920Y-66803046D01*
X190860920Y-66370737D01*
X190850479Y-66318255D01*
X190837566Y-66294860D01*
X190820070Y-66275299D01*
X190774916Y-66245898D01*
X190723533Y-66228038D01*
X190671052Y-66219611D01*
X190617471Y-66217505D01*
X190564073Y-66219611D01*
X190511592Y-66228038D01*
X190460117Y-66245898D01*
X190415055Y-66275299D01*
X190397506Y-66294870D01*
X190384646Y-66318255D01*
X190374113Y-66370737D01*
X190149532Y-66370737D01*
X190157958Y-66288946D01*
X190169160Y-66249926D01*
X190186260Y-66212284D01*
X190208657Y-66177568D01*
X190235628Y-66147254D01*
X190300657Y-66096879D01*
X190375121Y-66061159D01*
X190453889Y-66039177D01*
X190534673Y-66027636D01*
X190617471Y-66024431D01*
X190700452Y-66027636D01*
G37*
G36*
X189132047Y-66194424D02*
G01*
X189158287Y-66152728D01*
X189190848Y-66115747D01*
X189228716Y-66084722D01*
X189270533Y-66061250D01*
X189315570Y-66044191D01*
X189362856Y-66032857D01*
X189459393Y-66024431D01*
X189555930Y-66031850D01*
X189603050Y-66042383D01*
X189647247Y-66059144D01*
X189688298Y-66082115D01*
X189725923Y-66111534D01*
X189758509Y-66146462D01*
X189784725Y-66186089D01*
X189804381Y-66229331D01*
X189817240Y-66275299D01*
X189826674Y-66370737D01*
X189826674Y-66803046D01*
X189817240Y-66898576D01*
X189804385Y-66944465D01*
X189784725Y-66987694D01*
X189758520Y-67027262D01*
X189725923Y-67062249D01*
X189688302Y-67091688D01*
X189647247Y-67114731D01*
X189603054Y-67131421D01*
X189555930Y-67141933D01*
X189459393Y-67149261D01*
X189362856Y-67140834D01*
X189315567Y-67129592D01*
X189270533Y-67112624D01*
X189228712Y-67089082D01*
X189190848Y-67058036D01*
X189158293Y-67021040D01*
X189132047Y-66979268D01*
X189132047Y-67132500D01*
X188907466Y-67132500D01*
X188907466Y-66370737D01*
X189132047Y-66370737D01*
X189132047Y-66803046D01*
X189141481Y-66854521D01*
X189169874Y-66897477D01*
X189212922Y-66926878D01*
X189262198Y-66944738D01*
X189313580Y-66954172D01*
X189367070Y-66956187D01*
X189420650Y-66954172D01*
X189472033Y-66944738D01*
X189521401Y-66926878D01*
X189564357Y-66897477D01*
X189592658Y-66854521D01*
X189602092Y-66803046D01*
X189602092Y-66370737D01*
X189592658Y-66319354D01*
X189564357Y-66276306D01*
X189521401Y-66246997D01*
X189472033Y-66229137D01*
X189420650Y-66219611D01*
X189367070Y-66217505D01*
X189313580Y-66219611D01*
X189262198Y-66229137D01*
X189212922Y-66246997D01*
X189169874Y-66276306D01*
X189141481Y-66319354D01*
X189132047Y-66370737D01*
X188907466Y-66370737D01*
X188907466Y-65579573D01*
X189132047Y-65579573D01*
X189132047Y-66194424D01*
G37*
G36*
X188192231Y-67149261D02*
G01*
X188287760Y-67141933D01*
X188333719Y-67131164D01*
X188376879Y-67113632D01*
X188417133Y-67089867D01*
X188454548Y-67060143D01*
X188486853Y-67025116D01*
X188512250Y-66985587D01*
X188530860Y-66942537D01*
X188542658Y-66897477D01*
X188550993Y-66803046D01*
X188550993Y-66041284D01*
X188326503Y-66041284D01*
X188326503Y-66803046D01*
X188318169Y-66853422D01*
X188307095Y-66876835D01*
X188290875Y-66896469D01*
X188248834Y-66925778D01*
X188201665Y-66943639D01*
X188151290Y-66953073D01*
X188099816Y-66956187D01*
X188048433Y-66953073D01*
X187998150Y-66943639D01*
X187950889Y-66925778D01*
X187908940Y-66896469D01*
X187892667Y-66876826D01*
X187881646Y-66853422D01*
X187873219Y-66803046D01*
X187873219Y-66041284D01*
X187648638Y-66041284D01*
X187648638Y-67132500D01*
X187873219Y-67132500D01*
X187873219Y-66981374D01*
X187897862Y-67022795D01*
X187929914Y-67059043D01*
X187967386Y-67089411D01*
X188007583Y-67112624D01*
X188050819Y-67129523D01*
X188097801Y-67140834D01*
X188192231Y-67149261D01*
G37*
G36*
X187262856Y-67132500D02*
G01*
X187262856Y-66939426D01*
X186935418Y-66939426D01*
X186935418Y-65772647D01*
X187229242Y-65772647D01*
X187229242Y-65579573D01*
X186713035Y-65579573D01*
X186713035Y-66939426D01*
X186419211Y-66939426D01*
X186419211Y-67132500D01*
X187262856Y-67132500D01*
G37*
G36*
X185687124Y-66029743D02*
G01*
X185788973Y-66049710D01*
X185837283Y-66067192D01*
X185884411Y-66090651D01*
X185927862Y-66119869D01*
X185965194Y-66154582D01*
X185995717Y-66195214D01*
X186018683Y-66242692D01*
X186032909Y-66293469D01*
X186037551Y-66343442D01*
X186037551Y-66360204D01*
X185815168Y-66360204D01*
X185815168Y-66353975D01*
X185808939Y-66318188D01*
X185789980Y-66285740D01*
X185762255Y-66259135D01*
X185730171Y-66240677D01*
X185658822Y-66220710D01*
X185584267Y-66215398D01*
X185539204Y-66216497D01*
X185494050Y-66220710D01*
X185448987Y-66228038D01*
X185407038Y-66241685D01*
X185370310Y-66266872D01*
X185357671Y-66284457D01*
X185353457Y-66305707D01*
X185353457Y-66471487D01*
X185535998Y-66471487D01*
X185656715Y-66477807D01*
X185773219Y-66500887D01*
X185828615Y-66520984D01*
X185882304Y-66548057D01*
X185931736Y-66581988D01*
X185974628Y-66622612D01*
X186008916Y-66669975D01*
X186032330Y-66724370D01*
X186045718Y-66782802D01*
X186050191Y-66842889D01*
X186039749Y-66932098D01*
X186025240Y-66975282D01*
X186003021Y-67013981D01*
X185974180Y-67048225D01*
X185940007Y-67077911D01*
X185901721Y-67102321D01*
X185860322Y-67120959D01*
X185772120Y-67142941D01*
X185682911Y-67149261D01*
X185587473Y-67142941D01*
X185541042Y-67133561D01*
X185496156Y-67117845D01*
X185453732Y-67096054D01*
X185414365Y-67068477D01*
X185380175Y-67035124D01*
X185353457Y-66996120D01*
X185353457Y-67132500D01*
X185130983Y-67132500D01*
X185130983Y-66836569D01*
X185353457Y-66836569D01*
X185356542Y-66859126D01*
X185366097Y-66881723D01*
X185380781Y-66901722D01*
X185399619Y-66917444D01*
X185444774Y-66938418D01*
X185493042Y-66949959D01*
X185541311Y-66956187D01*
X185590587Y-66958293D01*
X185642061Y-66956187D01*
X185693443Y-66948859D01*
X185742811Y-66934205D01*
X185786866Y-66908010D01*
X185817275Y-66868076D01*
X185827716Y-66817701D01*
X185823842Y-66789084D01*
X185811962Y-66761098D01*
X185793816Y-66736099D01*
X185771113Y-66715943D01*
X185717624Y-66688649D01*
X185658822Y-66672987D01*
X185597914Y-66665660D01*
X185535998Y-66664561D01*
X185353457Y-66664561D01*
X185353457Y-66836569D01*
X185130983Y-66836569D01*
X185130983Y-66305707D01*
X185141516Y-66231152D01*
X185154944Y-66196119D01*
X185174031Y-66165115D01*
X185226512Y-66113732D01*
X185291542Y-66075905D01*
X185361884Y-66050717D01*
X185434241Y-66034964D01*
X185508796Y-66026537D01*
X185584267Y-66024431D01*
X185687124Y-66029743D01*
G37*
G36*
X184631811Y-67132500D02*
G01*
X184631811Y-66041284D01*
X184407322Y-66041284D01*
X184407322Y-66328788D01*
X184383738Y-66279784D01*
X184354840Y-66233350D01*
X184320929Y-66190501D01*
X184282483Y-66152567D01*
X184239557Y-66119546D01*
X184192266Y-66091659D01*
X184090417Y-66050717D01*
X183983438Y-66029743D01*
X183874262Y-66024431D01*
X183874262Y-66234357D01*
X183944604Y-66235457D01*
X184013846Y-66240677D01*
X184082082Y-66252218D01*
X184149218Y-66268979D01*
X184215347Y-66292060D01*
X184277262Y-66324575D01*
X184331759Y-66367622D01*
X184374807Y-66421112D01*
X184399994Y-66485134D01*
X184407322Y-66553278D01*
X184407322Y-67132500D01*
X184631811Y-67132500D01*
G37*
G36*
X194056728Y-52122500D02*
G01*
X194056728Y-50545668D01*
X193182309Y-50545668D01*
X193182309Y-50721523D01*
X193707309Y-50721523D01*
X193707309Y-51249087D01*
X193356240Y-51249087D01*
X193356240Y-51424942D01*
X193707309Y-51424942D01*
X193707309Y-52122500D01*
X194056728Y-52122500D01*
G37*
G36*
X192551434Y-50903880D02*
G01*
X192614708Y-50922967D01*
X192673346Y-50954751D01*
X192728292Y-51000326D01*
X192773899Y-51054997D01*
X192805806Y-51113829D01*
X192825033Y-51177813D01*
X192831606Y-51248354D01*
X192831606Y-51773171D01*
X192825083Y-51842858D01*
X192805964Y-51906323D01*
X192774176Y-51964930D01*
X192728658Y-52019643D01*
X192673951Y-52065117D01*
X192615346Y-52096877D01*
X192551878Y-52115981D01*
X192482186Y-52122500D01*
X192131118Y-52122500D01*
X192061422Y-52115936D01*
X191997944Y-52096694D01*
X191939310Y-52064686D01*
X191884555Y-52018818D01*
X191838925Y-51963683D01*
X191807146Y-51905047D01*
X191788090Y-51841981D01*
X191781606Y-51773171D01*
X191781606Y-51248354D01*
X191781632Y-51248080D01*
X192131118Y-51248080D01*
X192131118Y-51773080D01*
X192136820Y-51818011D01*
X192153661Y-51858298D01*
X192182409Y-51895262D01*
X192219166Y-51924079D01*
X192260081Y-51941106D01*
X192306606Y-51946919D01*
X192353195Y-51941105D01*
X192394171Y-51924078D01*
X192430987Y-51895262D01*
X192459680Y-51858304D01*
X192476493Y-51818017D01*
X192482186Y-51773080D01*
X192482186Y-51248080D01*
X192476402Y-51202023D01*
X192459402Y-51161182D01*
X192430529Y-51124157D01*
X192393504Y-51095284D01*
X192352663Y-51078284D01*
X192306606Y-51072500D01*
X192261143Y-51078251D01*
X192220466Y-51095221D01*
X192183233Y-51124157D01*
X192154085Y-51161214D01*
X192136945Y-51202054D01*
X192131118Y-51248080D01*
X191781632Y-51248080D01*
X191788120Y-51178672D01*
X191807225Y-51115076D01*
X191839014Y-51056220D01*
X191884555Y-51001150D01*
X191939316Y-50955238D01*
X191997951Y-50923202D01*
X192061427Y-50903946D01*
X192131118Y-50897377D01*
X192482186Y-50897377D01*
X192551434Y-50903880D01*
G37*
G36*
X191084140Y-52122500D02*
G01*
X191433560Y-52122500D01*
X191433560Y-50897377D01*
X191084140Y-50897377D01*
X191084140Y-51249087D01*
X191061069Y-51135207D01*
X191024383Y-51049241D01*
X190975880Y-50985305D01*
X190929490Y-50947932D01*
X190874745Y-50920645D01*
X190810000Y-50903469D01*
X190733072Y-50897377D01*
X190559140Y-50897377D01*
X190559140Y-51249087D01*
X190908560Y-51249087D01*
X190954647Y-51254828D01*
X190995490Y-51271688D01*
X191032483Y-51300286D01*
X191061395Y-51337008D01*
X191078374Y-51377368D01*
X191084140Y-51422744D01*
X191084140Y-52122500D01*
G37*
G36*
X190104121Y-50903880D02*
G01*
X190167395Y-50922967D01*
X190226032Y-50954751D01*
X190280978Y-51000326D01*
X190326589Y-51055041D01*
X190358495Y-51113905D01*
X190377721Y-51177906D01*
X190384293Y-51248446D01*
X190384293Y-51773354D01*
X190377768Y-51843090D01*
X190358647Y-51906585D01*
X190326858Y-51965206D01*
X190281345Y-52019918D01*
X190226632Y-52065436D01*
X190168025Y-52097224D01*
X190104560Y-52116342D01*
X190034873Y-52122866D01*
X189859293Y-52122866D01*
X189801836Y-52115608D01*
X189757831Y-52095463D01*
X189723961Y-52062740D01*
X189698944Y-52014954D01*
X189683804Y-51947286D01*
X189683804Y-52298354D01*
X189689626Y-52344326D01*
X189706761Y-52385200D01*
X189735920Y-52422369D01*
X189773166Y-52451414D01*
X189813841Y-52468440D01*
X189859293Y-52474209D01*
X190034873Y-52474209D01*
X190095146Y-52466736D01*
X190139984Y-52446258D01*
X190173292Y-52413406D01*
X190196617Y-52365760D01*
X190208804Y-52298354D01*
X190384293Y-52298354D01*
X190360815Y-52414505D01*
X190323119Y-52501595D01*
X190273089Y-52565836D01*
X190210369Y-52611387D01*
X190132417Y-52639857D01*
X190034873Y-52650064D01*
X189683804Y-52650064D01*
X189614976Y-52643550D01*
X189551892Y-52624402D01*
X189493233Y-52592457D01*
X189438066Y-52546566D01*
X189392099Y-52491528D01*
X189360066Y-52432818D01*
X189340841Y-52369486D01*
X189334293Y-52300186D01*
X189334293Y-51773812D01*
X189683804Y-51773812D01*
X189689506Y-51818744D01*
X189706348Y-51859030D01*
X189735095Y-51895995D01*
X189771853Y-51924812D01*
X189812768Y-51941838D01*
X189859293Y-51947652D01*
X189905882Y-51941838D01*
X189946858Y-51924810D01*
X189983674Y-51895995D01*
X190012366Y-51859037D01*
X190029180Y-51818750D01*
X190034873Y-51773812D01*
X190034873Y-51248812D01*
X190029089Y-51202756D01*
X190012088Y-51161914D01*
X189983216Y-51124890D01*
X189946191Y-51096017D01*
X189905349Y-51079017D01*
X189859293Y-51073232D01*
X189683804Y-51073232D01*
X189683804Y-51773812D01*
X189334293Y-51773812D01*
X189334293Y-50897377D01*
X190034873Y-50897377D01*
X190104121Y-50903880D01*
G37*
G36*
X188706075Y-50903880D02*
G01*
X188769349Y-50922967D01*
X188827986Y-50954751D01*
X188882932Y-51000326D01*
X188928540Y-51054997D01*
X188960446Y-51113829D01*
X188979674Y-51177813D01*
X188986247Y-51248354D01*
X188986247Y-51773171D01*
X188979723Y-51842858D01*
X188960605Y-51906323D01*
X188928817Y-51964930D01*
X188883299Y-52019643D01*
X188828591Y-52065117D01*
X188769986Y-52096877D01*
X188706519Y-52115981D01*
X188636827Y-52122500D01*
X188285758Y-52122500D01*
X188188493Y-52112310D01*
X188110666Y-52083870D01*
X188047958Y-52038340D01*
X187997847Y-51974097D01*
X187959985Y-51886981D01*
X187936247Y-51770790D01*
X188111827Y-51770790D01*
X188119659Y-51837504D01*
X188140616Y-51884772D01*
X188173379Y-51917784D01*
X188220076Y-51938808D01*
X188285758Y-51946645D01*
X188461247Y-51946645D01*
X188507811Y-51940795D01*
X188548786Y-51923656D01*
X188585628Y-51894621D01*
X188614308Y-51857427D01*
X188631129Y-51816866D01*
X188636827Y-51771614D01*
X188636827Y-51594935D01*
X187936247Y-51594935D01*
X187936247Y-51246980D01*
X187936410Y-51245240D01*
X188285758Y-51245240D01*
X188285758Y-51419080D01*
X188636827Y-51419080D01*
X188636827Y-51245240D01*
X188631043Y-51199184D01*
X188614042Y-51158342D01*
X188585170Y-51121318D01*
X188548145Y-51092445D01*
X188507303Y-51075445D01*
X188461247Y-51069660D01*
X188415783Y-51075412D01*
X188375107Y-51092382D01*
X188337874Y-51121318D01*
X188308726Y-51158375D01*
X188291586Y-51199214D01*
X188285758Y-51245240D01*
X187936410Y-51245240D01*
X187942756Y-51177587D01*
X187961852Y-51114238D01*
X187993637Y-51055590D01*
X188039195Y-51000692D01*
X188093929Y-50955002D01*
X188152556Y-50923103D01*
X188216043Y-50903922D01*
X188285758Y-50897377D01*
X188636827Y-50897377D01*
X188706075Y-50903880D01*
G37*
G36*
X186713781Y-50897377D02*
G01*
X186887712Y-50897377D01*
X186903613Y-50828537D01*
X186928294Y-50780466D01*
X186960576Y-50748076D01*
X187001351Y-50728485D01*
X187053401Y-50721523D01*
X187113095Y-50727129D01*
X187158185Y-50742317D01*
X187192069Y-50765761D01*
X187217011Y-50798150D01*
X187232940Y-50840974D01*
X187238781Y-50897469D01*
X187233303Y-50939256D01*
X187216577Y-50979835D01*
X187187124Y-51020293D01*
X186816363Y-51436024D01*
X186757954Y-51516842D01*
X186724697Y-51598249D01*
X186713781Y-51682404D01*
X186713781Y-51770790D01*
X186720251Y-51840098D01*
X186739260Y-51903607D01*
X186770936Y-51962626D01*
X186816363Y-52018086D01*
X186870931Y-52064256D01*
X186929533Y-52096487D01*
X186993154Y-52115878D01*
X187063201Y-52122500D01*
X187238781Y-52122500D01*
X187326124Y-52116110D01*
X187396915Y-52098429D01*
X187454228Y-52070971D01*
X187500457Y-52034206D01*
X187536950Y-51987719D01*
X187564245Y-51930044D01*
X187581840Y-51858764D01*
X187588201Y-51770790D01*
X187412712Y-51770790D01*
X187414269Y-51799824D01*
X187407868Y-51845036D01*
X187389707Y-51880772D01*
X187359315Y-51909367D01*
X187301610Y-51937354D01*
X187238781Y-51946645D01*
X187178100Y-51940759D01*
X187134739Y-51925158D01*
X187104234Y-51901490D01*
X187082461Y-51868977D01*
X187068381Y-51826177D01*
X187063201Y-51770057D01*
X187068721Y-51727630D01*
X187085487Y-51686933D01*
X187114858Y-51646867D01*
X187485619Y-51231410D01*
X187543945Y-51150808D01*
X187577243Y-51069131D01*
X187588201Y-50984206D01*
X187588201Y-50895546D01*
X187581717Y-50826128D01*
X187562698Y-50762752D01*
X187531050Y-50704081D01*
X187485710Y-50649166D01*
X187431153Y-50603436D01*
X187372536Y-50571479D01*
X187308877Y-50552240D01*
X187238781Y-50545668D01*
X187063201Y-50545668D01*
X186971813Y-50553556D01*
X186898275Y-50575433D01*
X186838975Y-50609775D01*
X186791358Y-50656707D01*
X186754203Y-50717981D01*
X186727772Y-50796770D01*
X186713781Y-50897377D01*
G37*
G36*
X186082907Y-50903880D02*
G01*
X186146181Y-50922967D01*
X186204818Y-50954751D01*
X186259764Y-51000326D01*
X186305372Y-51054997D01*
X186337278Y-51113829D01*
X186356506Y-51177813D01*
X186363079Y-51248354D01*
X186363079Y-51773171D01*
X186356555Y-51842858D01*
X186337437Y-51906323D01*
X186305649Y-51964930D01*
X186260130Y-52019643D01*
X186205423Y-52065117D01*
X186146818Y-52096877D01*
X186083351Y-52115981D01*
X186013659Y-52122500D01*
X185662590Y-52122500D01*
X185565325Y-52112310D01*
X185487498Y-52083870D01*
X185424789Y-52038340D01*
X185374678Y-51974097D01*
X185336817Y-51886981D01*
X185313079Y-51770790D01*
X185488659Y-51770790D01*
X185496491Y-51837504D01*
X185517447Y-51884772D01*
X185550211Y-51917784D01*
X185596908Y-51938808D01*
X185662590Y-51946645D01*
X185838079Y-51946645D01*
X185884643Y-51940795D01*
X185925618Y-51923656D01*
X185962459Y-51894621D01*
X185991140Y-51857427D01*
X186007960Y-51816866D01*
X186013659Y-51771614D01*
X186013659Y-51594935D01*
X185313079Y-51594935D01*
X185313079Y-51246980D01*
X185313242Y-51245240D01*
X185662590Y-51245240D01*
X185662590Y-51419080D01*
X186013659Y-51419080D01*
X186013659Y-51245240D01*
X186007874Y-51199184D01*
X185990874Y-51158342D01*
X185962001Y-51121318D01*
X185924977Y-51092445D01*
X185884135Y-51075445D01*
X185838079Y-51069660D01*
X185792615Y-51075412D01*
X185751939Y-51092382D01*
X185714706Y-51121318D01*
X185685558Y-51158375D01*
X185668418Y-51199214D01*
X185662590Y-51245240D01*
X185313242Y-51245240D01*
X185319588Y-51177587D01*
X185338684Y-51114238D01*
X185370469Y-51055590D01*
X185416027Y-51000692D01*
X185470761Y-50955002D01*
X185529388Y-50923103D01*
X185592874Y-50903922D01*
X185662590Y-50897377D01*
X186013659Y-50897377D01*
X186082907Y-50903880D01*
G37*
G36*
X184615613Y-52122500D02*
G01*
X184965033Y-52122500D01*
X184965033Y-50897377D01*
X184615613Y-50897377D01*
X184615613Y-51249087D01*
X184592542Y-51135207D01*
X184555855Y-51049241D01*
X184507352Y-50985305D01*
X184460962Y-50947932D01*
X184406218Y-50920645D01*
X184341472Y-50903469D01*
X184264544Y-50897377D01*
X184090613Y-50897377D01*
X184090613Y-51249087D01*
X184440033Y-51249087D01*
X184486119Y-51254828D01*
X184526963Y-51271688D01*
X184563955Y-51300286D01*
X184592868Y-51337008D01*
X184609847Y-51377368D01*
X184615613Y-51422744D01*
X184615613Y-52122500D01*
G37*
G36*
X183915765Y-50721523D02*
G01*
X183915765Y-50545668D01*
X183566345Y-50545668D01*
X183566345Y-50721523D01*
X183915765Y-50721523D01*
G37*
G36*
X183915765Y-52122500D02*
G01*
X183915765Y-50896919D01*
X183566345Y-50896919D01*
X183566345Y-52122500D01*
X183915765Y-52122500D01*
G37*
G36*
X182935105Y-50903880D02*
G01*
X182998379Y-50922967D01*
X183057016Y-50954751D01*
X183111962Y-51000326D01*
X183157570Y-51054997D01*
X183189476Y-51113829D01*
X183208704Y-51177813D01*
X183215277Y-51248354D01*
X183215277Y-51773171D01*
X183208753Y-51842858D01*
X183189635Y-51906323D01*
X183157847Y-51964930D01*
X183112329Y-52019643D01*
X183057621Y-52065117D01*
X182999016Y-52096877D01*
X182935549Y-52115981D01*
X182865857Y-52122500D01*
X182514788Y-52122500D01*
X182417523Y-52112310D01*
X182339696Y-52083870D01*
X182276988Y-52038340D01*
X182226877Y-51974097D01*
X182189015Y-51886981D01*
X182165277Y-51770790D01*
X182340857Y-51770790D01*
X182348689Y-51837504D01*
X182369646Y-51884772D01*
X182402409Y-51917784D01*
X182449106Y-51938808D01*
X182514788Y-51946645D01*
X182690277Y-51946645D01*
X182736841Y-51940795D01*
X182777816Y-51923656D01*
X182814658Y-51894621D01*
X182843338Y-51857427D01*
X182860159Y-51816866D01*
X182865857Y-51771614D01*
X182865857Y-51594935D01*
X182165277Y-51594935D01*
X182165277Y-51246980D01*
X182165440Y-51245240D01*
X182514788Y-51245240D01*
X182514788Y-51419080D01*
X182865857Y-51419080D01*
X182865857Y-51245240D01*
X182860073Y-51199184D01*
X182843072Y-51158342D01*
X182814200Y-51121318D01*
X182777175Y-51092445D01*
X182736333Y-51075445D01*
X182690277Y-51069660D01*
X182644813Y-51075412D01*
X182604137Y-51092382D01*
X182566904Y-51121318D01*
X182537756Y-51158375D01*
X182520616Y-51199214D01*
X182514788Y-51245240D01*
X182165440Y-51245240D01*
X182171786Y-51177587D01*
X182190882Y-51114238D01*
X182222667Y-51055590D01*
X182268225Y-51000692D01*
X182322959Y-50955002D01*
X182381586Y-50923103D01*
X182445073Y-50903922D01*
X182514788Y-50897377D01*
X182865857Y-50897377D01*
X182935105Y-50903880D01*
G37*
G36*
X180942811Y-51249087D02*
G01*
X181116742Y-51249087D01*
X181132643Y-51180247D01*
X181157324Y-51132176D01*
X181189606Y-51099785D01*
X181230381Y-51080195D01*
X181282431Y-51073232D01*
X181343365Y-51077993D01*
X181388664Y-51090701D01*
X181421924Y-51109777D01*
X181447314Y-51137176D01*
X181462993Y-51172511D01*
X181468635Y-51218312D01*
X181459836Y-51248435D01*
X181426251Y-51289900D01*
X181351533Y-51348377D01*
X181213554Y-51429796D01*
X181076224Y-51512499D01*
X181004503Y-51572067D01*
X180974410Y-51614719D01*
X180950778Y-51690089D01*
X180942811Y-51770790D01*
X180949378Y-51841788D01*
X180968569Y-51906053D01*
X181000370Y-51965003D01*
X181045759Y-52019643D01*
X181100466Y-52065117D01*
X181159072Y-52096877D01*
X181222539Y-52115981D01*
X181292231Y-52122500D01*
X181467811Y-52122500D01*
X181566616Y-52114255D01*
X181644077Y-52091674D01*
X181704663Y-52056737D01*
X181751580Y-52009611D01*
X181786429Y-51948634D01*
X181808987Y-51870536D01*
X181817231Y-51770790D01*
X181641651Y-51770790D01*
X181626688Y-51839602D01*
X181602620Y-51887626D01*
X181570692Y-51920010D01*
X181529986Y-51939644D01*
X181477611Y-51946645D01*
X181416701Y-51941850D01*
X181371436Y-51929051D01*
X181338210Y-51909825D01*
X181312749Y-51882145D01*
X181297047Y-51846640D01*
X181291407Y-51800832D01*
X181300076Y-51771425D01*
X181333384Y-51730375D01*
X181407822Y-51671821D01*
X181545663Y-51589531D01*
X181683513Y-51507373D01*
X181755466Y-51447976D01*
X181785632Y-51405250D01*
X181809290Y-51329663D01*
X181817231Y-51249545D01*
X181810633Y-51178275D01*
X181791365Y-51113854D01*
X181759451Y-51054845D01*
X181713916Y-51000234D01*
X181658976Y-50954703D01*
X181600340Y-50922947D01*
X181537064Y-50903876D01*
X181467811Y-50897377D01*
X181292231Y-50897377D01*
X181200843Y-50905266D01*
X181127305Y-50927143D01*
X181068005Y-50961484D01*
X181020388Y-51008416D01*
X180983233Y-51069690D01*
X180956802Y-51148479D01*
X180942811Y-51249087D01*
G37*
D13*
X197392857Y-120574819D02*
X197726190Y-120098628D01*
X197964285Y-120574819D02*
X197964285Y-119574819D01*
X197964285Y-119574819D02*
X197583333Y-119574819D01*
X197583333Y-119574819D02*
X197488095Y-119622438D01*
X197488095Y-119622438D02*
X197440476Y-119670057D01*
X197440476Y-119670057D02*
X197392857Y-119765295D01*
X197392857Y-119765295D02*
X197392857Y-119908152D01*
X197392857Y-119908152D02*
X197440476Y-120003390D01*
X197440476Y-120003390D02*
X197488095Y-120051009D01*
X197488095Y-120051009D02*
X197583333Y-120098628D01*
X197583333Y-120098628D02*
X197964285Y-120098628D01*
X197011904Y-119670057D02*
X196964285Y-119622438D01*
X196964285Y-119622438D02*
X196869047Y-119574819D01*
X196869047Y-119574819D02*
X196630952Y-119574819D01*
X196630952Y-119574819D02*
X196535714Y-119622438D01*
X196535714Y-119622438D02*
X196488095Y-119670057D01*
X196488095Y-119670057D02*
X196440476Y-119765295D01*
X196440476Y-119765295D02*
X196440476Y-119860533D01*
X196440476Y-119860533D02*
X196488095Y-120003390D01*
X196488095Y-120003390D02*
X197059523Y-120574819D01*
X197059523Y-120574819D02*
X196440476Y-120574819D01*
X195488095Y-120574819D02*
X196059523Y-120574819D01*
X195773809Y-120574819D02*
X195773809Y-119574819D01*
X195773809Y-119574819D02*
X195869047Y-119717676D01*
X195869047Y-119717676D02*
X195964285Y-119812914D01*
X195964285Y-119812914D02*
X196059523Y-119860533D01*
X180392857Y-120454819D02*
X180726190Y-119978628D01*
X180964285Y-120454819D02*
X180964285Y-119454819D01*
X180964285Y-119454819D02*
X180583333Y-119454819D01*
X180583333Y-119454819D02*
X180488095Y-119502438D01*
X180488095Y-119502438D02*
X180440476Y-119550057D01*
X180440476Y-119550057D02*
X180392857Y-119645295D01*
X180392857Y-119645295D02*
X180392857Y-119788152D01*
X180392857Y-119788152D02*
X180440476Y-119883390D01*
X180440476Y-119883390D02*
X180488095Y-119931009D01*
X180488095Y-119931009D02*
X180583333Y-119978628D01*
X180583333Y-119978628D02*
X180964285Y-119978628D01*
X179440476Y-120454819D02*
X180011904Y-120454819D01*
X179726190Y-120454819D02*
X179726190Y-119454819D01*
X179726190Y-119454819D02*
X179821428Y-119597676D01*
X179821428Y-119597676D02*
X179916666Y-119692914D01*
X179916666Y-119692914D02*
X180011904Y-119740533D01*
X178964285Y-120454819D02*
X178773809Y-120454819D01*
X178773809Y-120454819D02*
X178678571Y-120407200D01*
X178678571Y-120407200D02*
X178630952Y-120359580D01*
X178630952Y-120359580D02*
X178535714Y-120216723D01*
X178535714Y-120216723D02*
X178488095Y-120026247D01*
X178488095Y-120026247D02*
X178488095Y-119645295D01*
X178488095Y-119645295D02*
X178535714Y-119550057D01*
X178535714Y-119550057D02*
X178583333Y-119502438D01*
X178583333Y-119502438D02*
X178678571Y-119454819D01*
X178678571Y-119454819D02*
X178869047Y-119454819D01*
X178869047Y-119454819D02*
X178964285Y-119502438D01*
X178964285Y-119502438D02*
X179011904Y-119550057D01*
X179011904Y-119550057D02*
X179059523Y-119645295D01*
X179059523Y-119645295D02*
X179059523Y-119883390D01*
X179059523Y-119883390D02*
X179011904Y-119978628D01*
X179011904Y-119978628D02*
X178964285Y-120026247D01*
X178964285Y-120026247D02*
X178869047Y-120073866D01*
X178869047Y-120073866D02*
X178678571Y-120073866D01*
X178678571Y-120073866D02*
X178583333Y-120026247D01*
X178583333Y-120026247D02*
X178535714Y-119978628D01*
X178535714Y-119978628D02*
X178488095Y-119883390D01*
X185740057Y-141904761D02*
X185692438Y-141809523D01*
X185692438Y-141809523D02*
X185597200Y-141714285D01*
X185597200Y-141714285D02*
X185454342Y-141571428D01*
X185454342Y-141571428D02*
X185406723Y-141476190D01*
X185406723Y-141476190D02*
X185406723Y-141380952D01*
X185644819Y-141428571D02*
X185597200Y-141333333D01*
X185597200Y-141333333D02*
X185501961Y-141238095D01*
X185501961Y-141238095D02*
X185311485Y-141190476D01*
X185311485Y-141190476D02*
X184978152Y-141190476D01*
X184978152Y-141190476D02*
X184787676Y-141238095D01*
X184787676Y-141238095D02*
X184692438Y-141333333D01*
X184692438Y-141333333D02*
X184644819Y-141428571D01*
X184644819Y-141428571D02*
X184644819Y-141619047D01*
X184644819Y-141619047D02*
X184692438Y-141714285D01*
X184692438Y-141714285D02*
X184787676Y-141809523D01*
X184787676Y-141809523D02*
X184978152Y-141857142D01*
X184978152Y-141857142D02*
X185311485Y-141857142D01*
X185311485Y-141857142D02*
X185501961Y-141809523D01*
X185501961Y-141809523D02*
X185597200Y-141714285D01*
X185597200Y-141714285D02*
X185644819Y-141619047D01*
X185644819Y-141619047D02*
X185644819Y-141428571D01*
X184644819Y-142190476D02*
X184644819Y-142809523D01*
X184644819Y-142809523D02*
X185025771Y-142476190D01*
X185025771Y-142476190D02*
X185025771Y-142619047D01*
X185025771Y-142619047D02*
X185073390Y-142714285D01*
X185073390Y-142714285D02*
X185121009Y-142761904D01*
X185121009Y-142761904D02*
X185216247Y-142809523D01*
X185216247Y-142809523D02*
X185454342Y-142809523D01*
X185454342Y-142809523D02*
X185549580Y-142761904D01*
X185549580Y-142761904D02*
X185597200Y-142714285D01*
X185597200Y-142714285D02*
X185644819Y-142619047D01*
X185644819Y-142619047D02*
X185644819Y-142333333D01*
X185644819Y-142333333D02*
X185597200Y-142238095D01*
X185597200Y-142238095D02*
X185549580Y-142190476D01*
X175533333Y-60384819D02*
X175533333Y-61099104D01*
X175533333Y-61099104D02*
X175580952Y-61241961D01*
X175580952Y-61241961D02*
X175676190Y-61337200D01*
X175676190Y-61337200D02*
X175819047Y-61384819D01*
X175819047Y-61384819D02*
X175914285Y-61384819D01*
X175009523Y-61384819D02*
X174819047Y-61384819D01*
X174819047Y-61384819D02*
X174723809Y-61337200D01*
X174723809Y-61337200D02*
X174676190Y-61289580D01*
X174676190Y-61289580D02*
X174580952Y-61146723D01*
X174580952Y-61146723D02*
X174533333Y-60956247D01*
X174533333Y-60956247D02*
X174533333Y-60575295D01*
X174533333Y-60575295D02*
X174580952Y-60480057D01*
X174580952Y-60480057D02*
X174628571Y-60432438D01*
X174628571Y-60432438D02*
X174723809Y-60384819D01*
X174723809Y-60384819D02*
X174914285Y-60384819D01*
X174914285Y-60384819D02*
X175009523Y-60432438D01*
X175009523Y-60432438D02*
X175057142Y-60480057D01*
X175057142Y-60480057D02*
X175104761Y-60575295D01*
X175104761Y-60575295D02*
X175104761Y-60813390D01*
X175104761Y-60813390D02*
X175057142Y-60908628D01*
X175057142Y-60908628D02*
X175009523Y-60956247D01*
X175009523Y-60956247D02*
X174914285Y-61003866D01*
X174914285Y-61003866D02*
X174723809Y-61003866D01*
X174723809Y-61003866D02*
X174628571Y-60956247D01*
X174628571Y-60956247D02*
X174580952Y-60908628D01*
X174580952Y-60908628D02*
X174533333Y-60813390D01*
X197392857Y-127584819D02*
X197726190Y-127108628D01*
X197964285Y-127584819D02*
X197964285Y-126584819D01*
X197964285Y-126584819D02*
X197583333Y-126584819D01*
X197583333Y-126584819D02*
X197488095Y-126632438D01*
X197488095Y-126632438D02*
X197440476Y-126680057D01*
X197440476Y-126680057D02*
X197392857Y-126775295D01*
X197392857Y-126775295D02*
X197392857Y-126918152D01*
X197392857Y-126918152D02*
X197440476Y-127013390D01*
X197440476Y-127013390D02*
X197488095Y-127061009D01*
X197488095Y-127061009D02*
X197583333Y-127108628D01*
X197583333Y-127108628D02*
X197964285Y-127108628D01*
X197011904Y-126680057D02*
X196964285Y-126632438D01*
X196964285Y-126632438D02*
X196869047Y-126584819D01*
X196869047Y-126584819D02*
X196630952Y-126584819D01*
X196630952Y-126584819D02*
X196535714Y-126632438D01*
X196535714Y-126632438D02*
X196488095Y-126680057D01*
X196488095Y-126680057D02*
X196440476Y-126775295D01*
X196440476Y-126775295D02*
X196440476Y-126870533D01*
X196440476Y-126870533D02*
X196488095Y-127013390D01*
X196488095Y-127013390D02*
X197059523Y-127584819D01*
X197059523Y-127584819D02*
X196440476Y-127584819D01*
X195583333Y-126918152D02*
X195583333Y-127584819D01*
X195821428Y-126537200D02*
X196059523Y-127251485D01*
X196059523Y-127251485D02*
X195440476Y-127251485D01*
X191860057Y-133154761D02*
X191812438Y-133059523D01*
X191812438Y-133059523D02*
X191717200Y-132964285D01*
X191717200Y-132964285D02*
X191574342Y-132821428D01*
X191574342Y-132821428D02*
X191526723Y-132726190D01*
X191526723Y-132726190D02*
X191526723Y-132630952D01*
X191764819Y-132678571D02*
X191717200Y-132583333D01*
X191717200Y-132583333D02*
X191621961Y-132488095D01*
X191621961Y-132488095D02*
X191431485Y-132440476D01*
X191431485Y-132440476D02*
X191098152Y-132440476D01*
X191098152Y-132440476D02*
X190907676Y-132488095D01*
X190907676Y-132488095D02*
X190812438Y-132583333D01*
X190812438Y-132583333D02*
X190764819Y-132678571D01*
X190764819Y-132678571D02*
X190764819Y-132869047D01*
X190764819Y-132869047D02*
X190812438Y-132964285D01*
X190812438Y-132964285D02*
X190907676Y-133059523D01*
X190907676Y-133059523D02*
X191098152Y-133107142D01*
X191098152Y-133107142D02*
X191431485Y-133107142D01*
X191431485Y-133107142D02*
X191621961Y-133059523D01*
X191621961Y-133059523D02*
X191717200Y-132964285D01*
X191717200Y-132964285D02*
X191764819Y-132869047D01*
X191764819Y-132869047D02*
X191764819Y-132678571D01*
X191764819Y-134059523D02*
X191764819Y-133488095D01*
X191764819Y-133773809D02*
X190764819Y-133773809D01*
X190764819Y-133773809D02*
X190907676Y-133678571D01*
X190907676Y-133678571D02*
X191002914Y-133583333D01*
X191002914Y-133583333D02*
X191050533Y-133488095D01*
X180642857Y-127704819D02*
X180976190Y-127228628D01*
X181214285Y-127704819D02*
X181214285Y-126704819D01*
X181214285Y-126704819D02*
X180833333Y-126704819D01*
X180833333Y-126704819D02*
X180738095Y-126752438D01*
X180738095Y-126752438D02*
X180690476Y-126800057D01*
X180690476Y-126800057D02*
X180642857Y-126895295D01*
X180642857Y-126895295D02*
X180642857Y-127038152D01*
X180642857Y-127038152D02*
X180690476Y-127133390D01*
X180690476Y-127133390D02*
X180738095Y-127181009D01*
X180738095Y-127181009D02*
X180833333Y-127228628D01*
X180833333Y-127228628D02*
X181214285Y-127228628D01*
X180261904Y-126800057D02*
X180214285Y-126752438D01*
X180214285Y-126752438D02*
X180119047Y-126704819D01*
X180119047Y-126704819D02*
X179880952Y-126704819D01*
X179880952Y-126704819D02*
X179785714Y-126752438D01*
X179785714Y-126752438D02*
X179738095Y-126800057D01*
X179738095Y-126800057D02*
X179690476Y-126895295D01*
X179690476Y-126895295D02*
X179690476Y-126990533D01*
X179690476Y-126990533D02*
X179738095Y-127133390D01*
X179738095Y-127133390D02*
X180309523Y-127704819D01*
X180309523Y-127704819D02*
X179690476Y-127704819D01*
X179309523Y-126800057D02*
X179261904Y-126752438D01*
X179261904Y-126752438D02*
X179166666Y-126704819D01*
X179166666Y-126704819D02*
X178928571Y-126704819D01*
X178928571Y-126704819D02*
X178833333Y-126752438D01*
X178833333Y-126752438D02*
X178785714Y-126800057D01*
X178785714Y-126800057D02*
X178738095Y-126895295D01*
X178738095Y-126895295D02*
X178738095Y-126990533D01*
X178738095Y-126990533D02*
X178785714Y-127133390D01*
X178785714Y-127133390D02*
X179357142Y-127704819D01*
X179357142Y-127704819D02*
X178738095Y-127704819D01*
X197392857Y-112834819D02*
X197726190Y-112358628D01*
X197964285Y-112834819D02*
X197964285Y-111834819D01*
X197964285Y-111834819D02*
X197583333Y-111834819D01*
X197583333Y-111834819D02*
X197488095Y-111882438D01*
X197488095Y-111882438D02*
X197440476Y-111930057D01*
X197440476Y-111930057D02*
X197392857Y-112025295D01*
X197392857Y-112025295D02*
X197392857Y-112168152D01*
X197392857Y-112168152D02*
X197440476Y-112263390D01*
X197440476Y-112263390D02*
X197488095Y-112311009D01*
X197488095Y-112311009D02*
X197583333Y-112358628D01*
X197583333Y-112358628D02*
X197964285Y-112358628D01*
X197011904Y-111930057D02*
X196964285Y-111882438D01*
X196964285Y-111882438D02*
X196869047Y-111834819D01*
X196869047Y-111834819D02*
X196630952Y-111834819D01*
X196630952Y-111834819D02*
X196535714Y-111882438D01*
X196535714Y-111882438D02*
X196488095Y-111930057D01*
X196488095Y-111930057D02*
X196440476Y-112025295D01*
X196440476Y-112025295D02*
X196440476Y-112120533D01*
X196440476Y-112120533D02*
X196488095Y-112263390D01*
X196488095Y-112263390D02*
X197059523Y-112834819D01*
X197059523Y-112834819D02*
X196440476Y-112834819D01*
X195821428Y-111834819D02*
X195726190Y-111834819D01*
X195726190Y-111834819D02*
X195630952Y-111882438D01*
X195630952Y-111882438D02*
X195583333Y-111930057D01*
X195583333Y-111930057D02*
X195535714Y-112025295D01*
X195535714Y-112025295D02*
X195488095Y-112215771D01*
X195488095Y-112215771D02*
X195488095Y-112453866D01*
X195488095Y-112453866D02*
X195535714Y-112644342D01*
X195535714Y-112644342D02*
X195583333Y-112739580D01*
X195583333Y-112739580D02*
X195630952Y-112787200D01*
X195630952Y-112787200D02*
X195726190Y-112834819D01*
X195726190Y-112834819D02*
X195821428Y-112834819D01*
X195821428Y-112834819D02*
X195916666Y-112787200D01*
X195916666Y-112787200D02*
X195964285Y-112739580D01*
X195964285Y-112739580D02*
X196011904Y-112644342D01*
X196011904Y-112644342D02*
X196059523Y-112453866D01*
X196059523Y-112453866D02*
X196059523Y-112215771D01*
X196059523Y-112215771D02*
X196011904Y-112025295D01*
X196011904Y-112025295D02*
X195964285Y-111930057D01*
X195964285Y-111930057D02*
X195916666Y-111882438D01*
X195916666Y-111882438D02*
X195821428Y-111834819D01*
X201233333Y-86184819D02*
X201233333Y-86899104D01*
X201233333Y-86899104D02*
X201280952Y-87041961D01*
X201280952Y-87041961D02*
X201376190Y-87137200D01*
X201376190Y-87137200D02*
X201519047Y-87184819D01*
X201519047Y-87184819D02*
X201614285Y-87184819D01*
X200614285Y-86613390D02*
X200709523Y-86565771D01*
X200709523Y-86565771D02*
X200757142Y-86518152D01*
X200757142Y-86518152D02*
X200804761Y-86422914D01*
X200804761Y-86422914D02*
X200804761Y-86375295D01*
X200804761Y-86375295D02*
X200757142Y-86280057D01*
X200757142Y-86280057D02*
X200709523Y-86232438D01*
X200709523Y-86232438D02*
X200614285Y-86184819D01*
X200614285Y-86184819D02*
X200423809Y-86184819D01*
X200423809Y-86184819D02*
X200328571Y-86232438D01*
X200328571Y-86232438D02*
X200280952Y-86280057D01*
X200280952Y-86280057D02*
X200233333Y-86375295D01*
X200233333Y-86375295D02*
X200233333Y-86422914D01*
X200233333Y-86422914D02*
X200280952Y-86518152D01*
X200280952Y-86518152D02*
X200328571Y-86565771D01*
X200328571Y-86565771D02*
X200423809Y-86613390D01*
X200423809Y-86613390D02*
X200614285Y-86613390D01*
X200614285Y-86613390D02*
X200709523Y-86661009D01*
X200709523Y-86661009D02*
X200757142Y-86708628D01*
X200757142Y-86708628D02*
X200804761Y-86803866D01*
X200804761Y-86803866D02*
X200804761Y-86994342D01*
X200804761Y-86994342D02*
X200757142Y-87089580D01*
X200757142Y-87089580D02*
X200709523Y-87137200D01*
X200709523Y-87137200D02*
X200614285Y-87184819D01*
X200614285Y-87184819D02*
X200423809Y-87184819D01*
X200423809Y-87184819D02*
X200328571Y-87137200D01*
X200328571Y-87137200D02*
X200280952Y-87089580D01*
X200280952Y-87089580D02*
X200233333Y-86994342D01*
X200233333Y-86994342D02*
X200233333Y-86803866D01*
X200233333Y-86803866D02*
X200280952Y-86708628D01*
X200280952Y-86708628D02*
X200328571Y-86661009D01*
X200328571Y-86661009D02*
X200423809Y-86613390D01*
X185550057Y-127154761D02*
X185502438Y-127059523D01*
X185502438Y-127059523D02*
X185407200Y-126964285D01*
X185407200Y-126964285D02*
X185264342Y-126821428D01*
X185264342Y-126821428D02*
X185216723Y-126726190D01*
X185216723Y-126726190D02*
X185216723Y-126630952D01*
X185454819Y-126678571D02*
X185407200Y-126583333D01*
X185407200Y-126583333D02*
X185311961Y-126488095D01*
X185311961Y-126488095D02*
X185121485Y-126440476D01*
X185121485Y-126440476D02*
X184788152Y-126440476D01*
X184788152Y-126440476D02*
X184597676Y-126488095D01*
X184597676Y-126488095D02*
X184502438Y-126583333D01*
X184502438Y-126583333D02*
X184454819Y-126678571D01*
X184454819Y-126678571D02*
X184454819Y-126869047D01*
X184454819Y-126869047D02*
X184502438Y-126964285D01*
X184502438Y-126964285D02*
X184597676Y-127059523D01*
X184597676Y-127059523D02*
X184788152Y-127107142D01*
X184788152Y-127107142D02*
X185121485Y-127107142D01*
X185121485Y-127107142D02*
X185311961Y-127059523D01*
X185311961Y-127059523D02*
X185407200Y-126964285D01*
X185407200Y-126964285D02*
X185454819Y-126869047D01*
X185454819Y-126869047D02*
X185454819Y-126678571D01*
X184550057Y-127488095D02*
X184502438Y-127535714D01*
X184502438Y-127535714D02*
X184454819Y-127630952D01*
X184454819Y-127630952D02*
X184454819Y-127869047D01*
X184454819Y-127869047D02*
X184502438Y-127964285D01*
X184502438Y-127964285D02*
X184550057Y-128011904D01*
X184550057Y-128011904D02*
X184645295Y-128059523D01*
X184645295Y-128059523D02*
X184740533Y-128059523D01*
X184740533Y-128059523D02*
X184883390Y-128011904D01*
X184883390Y-128011904D02*
X185454819Y-127440476D01*
X185454819Y-127440476D02*
X185454819Y-128059523D01*
X197392857Y-142204819D02*
X197726190Y-141728628D01*
X197964285Y-142204819D02*
X197964285Y-141204819D01*
X197964285Y-141204819D02*
X197583333Y-141204819D01*
X197583333Y-141204819D02*
X197488095Y-141252438D01*
X197488095Y-141252438D02*
X197440476Y-141300057D01*
X197440476Y-141300057D02*
X197392857Y-141395295D01*
X197392857Y-141395295D02*
X197392857Y-141538152D01*
X197392857Y-141538152D02*
X197440476Y-141633390D01*
X197440476Y-141633390D02*
X197488095Y-141681009D01*
X197488095Y-141681009D02*
X197583333Y-141728628D01*
X197583333Y-141728628D02*
X197964285Y-141728628D01*
X197011904Y-141300057D02*
X196964285Y-141252438D01*
X196964285Y-141252438D02*
X196869047Y-141204819D01*
X196869047Y-141204819D02*
X196630952Y-141204819D01*
X196630952Y-141204819D02*
X196535714Y-141252438D01*
X196535714Y-141252438D02*
X196488095Y-141300057D01*
X196488095Y-141300057D02*
X196440476Y-141395295D01*
X196440476Y-141395295D02*
X196440476Y-141490533D01*
X196440476Y-141490533D02*
X196488095Y-141633390D01*
X196488095Y-141633390D02*
X197059523Y-142204819D01*
X197059523Y-142204819D02*
X196440476Y-142204819D01*
X195535714Y-141204819D02*
X196011904Y-141204819D01*
X196011904Y-141204819D02*
X196059523Y-141681009D01*
X196059523Y-141681009D02*
X196011904Y-141633390D01*
X196011904Y-141633390D02*
X195916666Y-141585771D01*
X195916666Y-141585771D02*
X195678571Y-141585771D01*
X195678571Y-141585771D02*
X195583333Y-141633390D01*
X195583333Y-141633390D02*
X195535714Y-141681009D01*
X195535714Y-141681009D02*
X195488095Y-141776247D01*
X195488095Y-141776247D02*
X195488095Y-142014342D01*
X195488095Y-142014342D02*
X195535714Y-142109580D01*
X195535714Y-142109580D02*
X195583333Y-142157200D01*
X195583333Y-142157200D02*
X195678571Y-142204819D01*
X195678571Y-142204819D02*
X195916666Y-142204819D01*
X195916666Y-142204819D02*
X196011904Y-142157200D01*
X196011904Y-142157200D02*
X196059523Y-142109580D01*
X192110057Y-147404761D02*
X192062438Y-147309523D01*
X192062438Y-147309523D02*
X191967200Y-147214285D01*
X191967200Y-147214285D02*
X191824342Y-147071428D01*
X191824342Y-147071428D02*
X191776723Y-146976190D01*
X191776723Y-146976190D02*
X191776723Y-146880952D01*
X192014819Y-146928571D02*
X191967200Y-146833333D01*
X191967200Y-146833333D02*
X191871961Y-146738095D01*
X191871961Y-146738095D02*
X191681485Y-146690476D01*
X191681485Y-146690476D02*
X191348152Y-146690476D01*
X191348152Y-146690476D02*
X191157676Y-146738095D01*
X191157676Y-146738095D02*
X191062438Y-146833333D01*
X191062438Y-146833333D02*
X191014819Y-146928571D01*
X191014819Y-146928571D02*
X191014819Y-147119047D01*
X191014819Y-147119047D02*
X191062438Y-147214285D01*
X191062438Y-147214285D02*
X191157676Y-147309523D01*
X191157676Y-147309523D02*
X191348152Y-147357142D01*
X191348152Y-147357142D02*
X191681485Y-147357142D01*
X191681485Y-147357142D02*
X191871961Y-147309523D01*
X191871961Y-147309523D02*
X191967200Y-147214285D01*
X191967200Y-147214285D02*
X192014819Y-147119047D01*
X192014819Y-147119047D02*
X192014819Y-146928571D01*
X191348152Y-148214285D02*
X192014819Y-148214285D01*
X190967200Y-147976190D02*
X191681485Y-147738095D01*
X191681485Y-147738095D02*
X191681485Y-148357142D01*
X180392857Y-112954819D02*
X180726190Y-112478628D01*
X180964285Y-112954819D02*
X180964285Y-111954819D01*
X180964285Y-111954819D02*
X180583333Y-111954819D01*
X180583333Y-111954819D02*
X180488095Y-112002438D01*
X180488095Y-112002438D02*
X180440476Y-112050057D01*
X180440476Y-112050057D02*
X180392857Y-112145295D01*
X180392857Y-112145295D02*
X180392857Y-112288152D01*
X180392857Y-112288152D02*
X180440476Y-112383390D01*
X180440476Y-112383390D02*
X180488095Y-112431009D01*
X180488095Y-112431009D02*
X180583333Y-112478628D01*
X180583333Y-112478628D02*
X180964285Y-112478628D01*
X179440476Y-112954819D02*
X180011904Y-112954819D01*
X179726190Y-112954819D02*
X179726190Y-111954819D01*
X179726190Y-111954819D02*
X179821428Y-112097676D01*
X179821428Y-112097676D02*
X179916666Y-112192914D01*
X179916666Y-112192914D02*
X180011904Y-112240533D01*
X178869047Y-112383390D02*
X178964285Y-112335771D01*
X178964285Y-112335771D02*
X179011904Y-112288152D01*
X179011904Y-112288152D02*
X179059523Y-112192914D01*
X179059523Y-112192914D02*
X179059523Y-112145295D01*
X179059523Y-112145295D02*
X179011904Y-112050057D01*
X179011904Y-112050057D02*
X178964285Y-112002438D01*
X178964285Y-112002438D02*
X178869047Y-111954819D01*
X178869047Y-111954819D02*
X178678571Y-111954819D01*
X178678571Y-111954819D02*
X178583333Y-112002438D01*
X178583333Y-112002438D02*
X178535714Y-112050057D01*
X178535714Y-112050057D02*
X178488095Y-112145295D01*
X178488095Y-112145295D02*
X178488095Y-112192914D01*
X178488095Y-112192914D02*
X178535714Y-112288152D01*
X178535714Y-112288152D02*
X178583333Y-112335771D01*
X178583333Y-112335771D02*
X178678571Y-112383390D01*
X178678571Y-112383390D02*
X178869047Y-112383390D01*
X178869047Y-112383390D02*
X178964285Y-112431009D01*
X178964285Y-112431009D02*
X179011904Y-112478628D01*
X179011904Y-112478628D02*
X179059523Y-112573866D01*
X179059523Y-112573866D02*
X179059523Y-112764342D01*
X179059523Y-112764342D02*
X179011904Y-112859580D01*
X179011904Y-112859580D02*
X178964285Y-112907200D01*
X178964285Y-112907200D02*
X178869047Y-112954819D01*
X178869047Y-112954819D02*
X178678571Y-112954819D01*
X178678571Y-112954819D02*
X178583333Y-112907200D01*
X178583333Y-112907200D02*
X178535714Y-112859580D01*
X178535714Y-112859580D02*
X178488095Y-112764342D01*
X178488095Y-112764342D02*
X178488095Y-112573866D01*
X178488095Y-112573866D02*
X178535714Y-112478628D01*
X178535714Y-112478628D02*
X178583333Y-112431009D01*
X178583333Y-112431009D02*
X178678571Y-112383390D01*
X180642857Y-142204819D02*
X180976190Y-141728628D01*
X181214285Y-142204819D02*
X181214285Y-141204819D01*
X181214285Y-141204819D02*
X180833333Y-141204819D01*
X180833333Y-141204819D02*
X180738095Y-141252438D01*
X180738095Y-141252438D02*
X180690476Y-141300057D01*
X180690476Y-141300057D02*
X180642857Y-141395295D01*
X180642857Y-141395295D02*
X180642857Y-141538152D01*
X180642857Y-141538152D02*
X180690476Y-141633390D01*
X180690476Y-141633390D02*
X180738095Y-141681009D01*
X180738095Y-141681009D02*
X180833333Y-141728628D01*
X180833333Y-141728628D02*
X181214285Y-141728628D01*
X180261904Y-141300057D02*
X180214285Y-141252438D01*
X180214285Y-141252438D02*
X180119047Y-141204819D01*
X180119047Y-141204819D02*
X179880952Y-141204819D01*
X179880952Y-141204819D02*
X179785714Y-141252438D01*
X179785714Y-141252438D02*
X179738095Y-141300057D01*
X179738095Y-141300057D02*
X179690476Y-141395295D01*
X179690476Y-141395295D02*
X179690476Y-141490533D01*
X179690476Y-141490533D02*
X179738095Y-141633390D01*
X179738095Y-141633390D02*
X180309523Y-142204819D01*
X180309523Y-142204819D02*
X179690476Y-142204819D01*
X179357142Y-141204819D02*
X178738095Y-141204819D01*
X178738095Y-141204819D02*
X179071428Y-141585771D01*
X179071428Y-141585771D02*
X178928571Y-141585771D01*
X178928571Y-141585771D02*
X178833333Y-141633390D01*
X178833333Y-141633390D02*
X178785714Y-141681009D01*
X178785714Y-141681009D02*
X178738095Y-141776247D01*
X178738095Y-141776247D02*
X178738095Y-142014342D01*
X178738095Y-142014342D02*
X178785714Y-142109580D01*
X178785714Y-142109580D02*
X178833333Y-142157200D01*
X178833333Y-142157200D02*
X178928571Y-142204819D01*
X178928571Y-142204819D02*
X179214285Y-142204819D01*
X179214285Y-142204819D02*
X179309523Y-142157200D01*
X179309523Y-142157200D02*
X179357142Y-142109580D01*
%TO.C,R21*%
D14*
X193480000Y-116380000D02*
X200020000Y-116380000D01*
X193480000Y-116710000D02*
X193480000Y-116380000D01*
X193480000Y-118790000D02*
X193480000Y-119120000D01*
X193480000Y-119120000D02*
X200020000Y-119120000D01*
X200020000Y-116380000D02*
X200020000Y-116710000D01*
X200020000Y-119120000D02*
X200020000Y-118790000D01*
%TO.C,R19*%
X176480000Y-116380000D02*
X183020000Y-116380000D01*
X176480000Y-116710000D02*
X176480000Y-116380000D01*
X176480000Y-118790000D02*
X176480000Y-119120000D01*
X176480000Y-119120000D02*
X183020000Y-119120000D01*
X183020000Y-116380000D02*
X183020000Y-116710000D01*
X183020000Y-119120000D02*
X183020000Y-118790000D01*
%TO.C,Q3*%
X190600000Y-140200000D02*
X190600000Y-143800000D01*
X186150000Y-142000000D02*
G75*
G02*
X190588478Y-140161522I2600000J0D01*
G01*
X190588478Y-143838478D02*
G75*
G02*
X186149999Y-142000000I-1838478J1838478D01*
G01*
%TO.C,J9*%
X173870000Y-62370000D02*
X173870000Y-63700000D01*
X173870000Y-64970000D02*
X173870000Y-82810000D01*
X175200000Y-62370000D02*
X173870000Y-62370000D01*
X176530000Y-64970000D02*
X173870000Y-64970000D01*
X176530000Y-64970000D02*
X176530000Y-82810000D01*
X176530000Y-82810000D02*
X173870000Y-82810000D01*
%TO.C,R24*%
X193480000Y-128130000D02*
X193480000Y-128460000D01*
X193480000Y-130870000D02*
X193480000Y-130540000D01*
X200020000Y-128130000D02*
X193480000Y-128130000D01*
X200020000Y-128460000D02*
X200020000Y-128130000D01*
X200020000Y-130540000D02*
X200020000Y-130870000D01*
X200020000Y-130870000D02*
X193480000Y-130870000D01*
%TO.C,Q1*%
X185900000Y-134800000D02*
X185900000Y-131200000D01*
X185911522Y-131161522D02*
G75*
G02*
X190350001Y-133000000I1838478J-1838478D01*
G01*
X190350000Y-133000000D02*
G75*
G02*
X185911522Y-134838478I-2600000J0D01*
G01*
%TO.C,R22*%
X176480000Y-128130000D02*
X183020000Y-128130000D01*
X176480000Y-128460000D02*
X176480000Y-128130000D01*
X176480000Y-130540000D02*
X176480000Y-130870000D01*
X176480000Y-130870000D02*
X183020000Y-130870000D01*
X183020000Y-128130000D02*
X183020000Y-128460000D01*
X183020000Y-130870000D02*
X183020000Y-130540000D01*
%TO.C,R20*%
X193480000Y-113380000D02*
X193480000Y-113710000D01*
X193480000Y-116120000D02*
X193480000Y-115790000D01*
X200020000Y-113380000D02*
X193480000Y-113380000D01*
X200020000Y-113710000D02*
X200020000Y-113380000D01*
X200020000Y-115790000D02*
X200020000Y-116120000D01*
X200020000Y-116120000D02*
X193480000Y-116120000D01*
%TO.C,J8*%
X199570000Y-88170000D02*
X199570000Y-89500000D01*
X199570000Y-90770000D02*
X199570000Y-108610000D01*
X200900000Y-88170000D02*
X199570000Y-88170000D01*
X202230000Y-90770000D02*
X199570000Y-90770000D01*
X202230000Y-90770000D02*
X202230000Y-108610000D01*
X202230000Y-108610000D02*
X199570000Y-108610000D01*
%TO.C,Q2*%
X190350000Y-125720000D02*
X190350000Y-129320000D01*
X185900000Y-127520000D02*
G75*
G02*
X190338478Y-125681522I2600000J0D01*
G01*
X190338478Y-129358478D02*
G75*
G02*
X185899999Y-127520000I-1838478J1838478D01*
G01*
%TO.C,R25*%
X193480000Y-142380000D02*
X200020000Y-142380000D01*
X193480000Y-142710000D02*
X193480000Y-142380000D01*
X193480000Y-144790000D02*
X193480000Y-145120000D01*
X193480000Y-145120000D02*
X200020000Y-145120000D01*
X200020000Y-142380000D02*
X200020000Y-142710000D01*
X200020000Y-145120000D02*
X200020000Y-144790000D01*
%TO.C,Q4*%
X186150000Y-149300000D02*
X186150000Y-145700000D01*
X186161522Y-145661522D02*
G75*
G02*
X190600001Y-147500000I1838478J-1838478D01*
G01*
X190600000Y-147500000D02*
G75*
G02*
X186161522Y-149338478I-2600000J0D01*
G01*
%TO.C,R18*%
X176480000Y-113380000D02*
X183020000Y-113380000D01*
X176480000Y-113710000D02*
X176480000Y-113380000D01*
X176480000Y-115790000D02*
X176480000Y-116120000D01*
X176480000Y-116120000D02*
X183020000Y-116120000D01*
X183020000Y-113380000D02*
X183020000Y-113710000D01*
X183020000Y-116120000D02*
X183020000Y-115790000D01*
%TO.C,R23*%
X176480000Y-142380000D02*
X183020000Y-142380000D01*
X176480000Y-142710000D02*
X176480000Y-142380000D01*
X176480000Y-144790000D02*
X176480000Y-145120000D01*
X176480000Y-145120000D02*
X183020000Y-145120000D01*
X183020000Y-142380000D02*
X183020000Y-142710000D01*
X183020000Y-145120000D02*
X183020000Y-144790000D01*
%TD*%
%LPC*%
D15*
%TO.C,J6*%
X175440200Y-151800000D03*
X186413000Y-151800000D03*
X184000000Y-151800000D03*
%TD*%
%TO.C,J1*%
X182638000Y-109300000D03*
X193610800Y-109300000D03*
X191197800Y-109300000D03*
%TD*%
D16*
%TO.C,D3*%
X194380000Y-131640000D03*
D17*
X196920000Y-131640000D03*
%TD*%
D16*
%TO.C,D5*%
X194380000Y-145850000D03*
D17*
X196920000Y-145850000D03*
%TD*%
D16*
%TO.C,D2*%
X182154200Y-131640000D03*
D17*
X179614200Y-131640000D03*
%TD*%
D15*
%TO.C,J4*%
X175440200Y-137600000D03*
X186413000Y-137600000D03*
X184000000Y-137600000D03*
%TD*%
%TO.C,J7*%
X201100000Y-151800000D03*
X190127200Y-151800000D03*
X192540200Y-151800000D03*
%TD*%
D16*
%TO.C,D4*%
X182154200Y-145850000D03*
D17*
X179614200Y-145850000D03*
%TD*%
D18*
%TO.C,H1*%
X188085000Y-81300000D03*
%TD*%
D15*
%TO.C,J3*%
X201100000Y-123300000D03*
X190127200Y-123300000D03*
X192540200Y-123300000D03*
%TD*%
%TO.C,J5*%
X201100000Y-137600000D03*
X190127200Y-137600000D03*
X192540200Y-137600000D03*
%TD*%
D18*
%TO.C,H2*%
X188085000Y-119200000D03*
%TD*%
D19*
%TO.C,U1*%
X184264000Y-58400000D03*
D20*
X186804000Y-58400000D03*
X189344000Y-58400000D03*
X191884000Y-58400000D03*
%TD*%
D15*
%TO.C,J2*%
X175440200Y-123300000D03*
X186413000Y-123300000D03*
X184000000Y-123300000D03*
%TD*%
D21*
%TO.C,SW1*%
X185585000Y-100900000D03*
D22*
X190585000Y-100900000D03*
X188085000Y-100900000D03*
D23*
X182485000Y-93400000D03*
X193685000Y-93400000D03*
D22*
X190585000Y-86400000D03*
X185585000Y-86400000D03*
%TD*%
D24*
%TO.C,R21*%
X192940000Y-117750000D03*
X200560000Y-117750000D03*
%TD*%
%TO.C,R19*%
X175940000Y-117750000D03*
X183560000Y-117750000D03*
%TD*%
D25*
%TO.C,Q3*%
X188750000Y-140730000D03*
D26*
X188750000Y-142000000D03*
X188750000Y-143270000D03*
%TD*%
D19*
%TO.C,J9*%
X175200000Y-63700000D03*
D27*
X175200000Y-66240000D03*
X175200000Y-68780000D03*
X175200000Y-71320000D03*
X175200000Y-73860000D03*
X175200000Y-76400000D03*
X175200000Y-78940000D03*
X175200000Y-81480000D03*
%TD*%
D24*
%TO.C,R24*%
X200560000Y-129500000D03*
X192940000Y-129500000D03*
%TD*%
D25*
%TO.C,Q1*%
X187750000Y-134270000D03*
D26*
X187750000Y-133000000D03*
X187750000Y-131730000D03*
%TD*%
D24*
%TO.C,R22*%
X175940000Y-129500000D03*
X183560000Y-129500000D03*
%TD*%
%TO.C,R20*%
X200560000Y-114750000D03*
X192940000Y-114750000D03*
%TD*%
D19*
%TO.C,J8*%
X200900000Y-89500000D03*
D27*
X200900000Y-92040000D03*
X200900000Y-94580000D03*
X200900000Y-97120000D03*
X200900000Y-99660000D03*
X200900000Y-102200000D03*
X200900000Y-104740000D03*
X200900000Y-107280000D03*
%TD*%
D25*
%TO.C,Q2*%
X188500000Y-126250000D03*
D26*
X188500000Y-127520000D03*
X188500000Y-128790000D03*
%TD*%
D24*
%TO.C,R25*%
X192940000Y-143750000D03*
X200560000Y-143750000D03*
%TD*%
D25*
%TO.C,Q4*%
X188000000Y-148770000D03*
D26*
X188000000Y-147500000D03*
X188000000Y-146230000D03*
%TD*%
D24*
%TO.C,R18*%
X175940000Y-114750000D03*
X183560000Y-114750000D03*
%TD*%
%TO.C,R23*%
X175940000Y-143750000D03*
X183560000Y-143750000D03*
%TD*%
%LPD*%
M02*
