%TF.GenerationSoftware,KiCad,Pcbnew,10.0.5*%
%TF.CreationDate,2026-09-11T13:15:11-03:00*%
%TF.ProjectId,ControlPCB_SMD_V3.1,436f6e74-726f-46c5-9043-425f534d445f,rev?*%
%TF.SameCoordinates,Original*%
%TF.FileFunction,Copper,L1,Top*%
%TF.FilePolarity,Positive*%
%FSLAX46Y46*%
G04 Gerber Fmt 4.6, Leading zero omitted, Abs format (unit mm)*
G04 Created by KiCad (PCBNEW 10.0.5) date 2026-09-11 13:15:11*
%MOMM*%
%LPD*%
G01*
G04 APERTURE LIST*
%TA.AperFunction,ComponentPad*%
%ADD10C,1.930400*%
%TD*%
%TA.AperFunction,ComponentPad*%
%ADD11R,1.800000X1.800000*%
%TD*%
%TA.AperFunction,ComponentPad*%
%ADD12C,1.800000*%
%TD*%
%TA.AperFunction,ComponentPad*%
%ADD13R,1.700000X1.700000*%
%TD*%
%TA.AperFunction,ComponentPad*%
%ADD14O,1.700000X1.700000*%
%TD*%
%TA.AperFunction,ComponentPad*%
%ADD15R,2.000000X2.000000*%
%TD*%
%TA.AperFunction,ComponentPad*%
%ADD16C,2.000000*%
%TD*%
%TA.AperFunction,ComponentPad*%
%ADD17R,2.000000X3.200000*%
%TD*%
%TA.AperFunction,ComponentPad*%
%ADD18C,1.600000*%
%TD*%
%TA.AperFunction,ComponentPad*%
%ADD19R,1.500000X1.050000*%
%TD*%
%TA.AperFunction,ComponentPad*%
%ADD20O,1.500000X1.050000*%
%TD*%
%TA.AperFunction,ComponentPad*%
%ADD21C,1.700000*%
%TD*%
%TA.AperFunction,ViaPad*%
%ADD22C,0.600000*%
%TD*%
%TA.AperFunction,Conductor*%
%ADD23C,0.200000*%
%TD*%
%TA.AperFunction,Conductor*%
%ADD24C,0.500000*%
%TD*%
G04 APERTURE END LIST*
D10*
%TO.P,J6,1,SIG_1*%
%TO.N,O3_CON*%
X175440200Y-151800000D03*
%TO.P,J6,2,SHEILD_2*%
%TO.N,GND*%
X186413000Y-151800000D03*
%TO.P,J6,3,SW_3*%
%TO.N,unconnected-(J6-SW-Pad3)*%
X184000000Y-151800000D03*
%TD*%
%TO.P,J1,1,SIG_1*%
%TO.N,IN_1*%
X182638000Y-109300000D03*
%TO.P,J1,2,SHEILD_2*%
%TO.N,GND*%
X193610800Y-109300000D03*
%TO.P,J1,3,SW_3*%
X191197800Y-109300000D03*
%TD*%
D11*
%TO.P,D3,1,K_1*%
%TO.N,Net-(D3-K)*%
X194380000Y-131640000D03*
D12*
%TO.P,D3,2,A_2*%
%TO.N,ARD_3*%
X196920000Y-131640000D03*
%TD*%
D11*
%TO.P,D5,1,K_1*%
%TO.N,Net-(D5-K)*%
X194380000Y-145850000D03*
D12*
%TO.P,D5,2,A_2*%
%TO.N,ARD_3*%
X196920000Y-145850000D03*
%TD*%
D11*
%TO.P,D2,1,K_1*%
%TO.N,Net-(D2-K)*%
X182154200Y-131640000D03*
D12*
%TO.P,D2,2,A_2*%
%TO.N,ARD_3*%
X179614200Y-131640000D03*
%TD*%
D10*
%TO.P,J4,1,SIG_1*%
%TO.N,O1_CON*%
X175440200Y-137600000D03*
%TO.P,J4,2,SHEILD_2*%
%TO.N,GND*%
X186413000Y-137600000D03*
%TO.P,J4,3,SW_3*%
%TO.N,unconnected-(J4-SW-Pad3)*%
X184000000Y-137600000D03*
%TD*%
%TO.P,J7,1,SIG_1*%
%TO.N,O4_CON*%
X201100000Y-151800000D03*
%TO.P,J7,2,SHEILD_2*%
%TO.N,GND*%
X190127200Y-151800000D03*
%TO.P,J7,3,SW_3*%
%TO.N,unconnected-(J7-SW-Pad3)*%
X192540200Y-151800000D03*
%TD*%
D11*
%TO.P,D4,1,K_1*%
%TO.N,Net-(D4-K)*%
X182154200Y-145850000D03*
D12*
%TO.P,D4,2,A_2*%
%TO.N,ARD_3*%
X179614200Y-145850000D03*
%TD*%
D10*
%TO.P,J3,1,SIG_1*%
%TO.N,IN_3*%
X201100000Y-123300000D03*
%TO.P,J3,2,SHEILD_2*%
%TO.N,GND*%
X190127200Y-123300000D03*
%TO.P,J3,3,SW_3*%
X192540200Y-123300000D03*
%TD*%
%TO.P,J5,1,SIG_1*%
%TO.N,O2_CON*%
X201100000Y-137600000D03*
%TO.P,J5,2,SHEILD_2*%
%TO.N,GND*%
X190127200Y-137600000D03*
%TO.P,J5,3,SW_3*%
%TO.N,unconnected-(J5-SW-Pad3)*%
X192540200Y-137600000D03*
%TD*%
D13*
%TO.P,U1,1,GND_1*%
%TO.N,GND*%
X184264000Y-58400000D03*
D14*
%TO.P,U1,2,VCC_2*%
%TO.N,ARD_3*%
X186804000Y-58400000D03*
%TO.P,U1,3,SCL_3*%
%TO.N,SCL*%
X189344000Y-58400000D03*
%TO.P,U1,4,SDA_4*%
%TO.N,SDA*%
X191884000Y-58400000D03*
%TD*%
D10*
%TO.P,J2,1,SIG_1*%
%TO.N,IN_2*%
X175440200Y-123300000D03*
%TO.P,J2,2,SHEILD_2*%
%TO.N,GND*%
X186413000Y-123300000D03*
%TO.P,J2,3,SW_3*%
X184000000Y-123300000D03*
%TD*%
D15*
%TO.P,SW1,A,A_A*%
%TO.N,ENC_1*%
X185585000Y-100900000D03*
D16*
%TO.P,SW1,B,B_B*%
%TO.N,ENC_2*%
X190585000Y-100900000D03*
%TO.P,SW1,C,C_C*%
%TO.N,GND*%
X188085000Y-100900000D03*
D17*
%TO.P,SW1,MP,MP_MP*%
X182485000Y-93400000D03*
X193685000Y-93400000D03*
D16*
%TO.P,SW1,S1,S1_S1*%
%TO.N,ENC_SW*%
X190585000Y-86400000D03*
%TO.P,SW1,S2,S2_S2*%
%TO.N,GND*%
X185585000Y-86400000D03*
%TD*%
D18*
%TO.P,R21,1*%
%TO.N,Net-(Q2-C)*%
X192940000Y-117750000D03*
%TO.P,R21,2*%
%TO.N,Net-(D3-K)*%
X200560000Y-117750000D03*
%TD*%
%TO.P,R19,1*%
%TO.N,Net-(Q1-C)*%
X175940000Y-117750000D03*
%TO.P,R19,2*%
%TO.N,Net-(D2-K)*%
X183560000Y-117750000D03*
%TD*%
D19*
%TO.P,Q3,1,C_1*%
%TO.N,Net-(Q3-C)*%
X188750000Y-140730000D03*
D20*
%TO.P,Q3,2,B_2*%
%TO.N,Net-(Q3-B)*%
X188750000Y-142000000D03*
%TO.P,Q3,3,E_3*%
%TO.N,GND*%
X188750000Y-143270000D03*
%TD*%
D13*
%TO.P,J9,1,Pin_1_1*%
%TO.N,GND*%
X175200000Y-63700000D03*
D21*
%TO.P,J9,2,Pin_2_2*%
%TO.N,SDA*%
X175200000Y-66240000D03*
%TO.P,J9,3,Pin_3_3*%
%TO.N,SCL*%
X175200000Y-68780000D03*
%TO.P,J9,4,Pin_4_4*%
%TO.N,ARD_3*%
X175200000Y-71320000D03*
%TO.P,J9,5,Pin_5_5*%
%TO.N,-10V*%
X175200000Y-73860000D03*
%TO.P,J9,6,Pin_6_6*%
%TO.N,IN_1*%
X175200000Y-76400000D03*
%TO.P,J9,7,Pin_7_7*%
%TO.N,IN_2*%
X175200000Y-78940000D03*
%TO.P,J9,8,Pin_8_8*%
%TO.N,IN_3*%
X175200000Y-81480000D03*
%TD*%
D18*
%TO.P,R24,1*%
%TO.N,O4_CON*%
X200560000Y-129500000D03*
%TO.P,R24,2*%
%TO.N,Net-(Q4-B)*%
X192940000Y-129500000D03*
%TD*%
D19*
%TO.P,Q1,1,C_1*%
%TO.N,Net-(Q1-C)*%
X187750000Y-134270000D03*
D20*
%TO.P,Q1,2,B_2*%
%TO.N,Net-(Q1-B)*%
X187750000Y-133000000D03*
%TO.P,Q1,3,E_3*%
%TO.N,GND*%
X187750000Y-131730000D03*
%TD*%
D18*
%TO.P,R22,1*%
%TO.N,O3_CON*%
X175940000Y-129500000D03*
%TO.P,R22,2*%
%TO.N,Net-(Q3-B)*%
X183560000Y-129500000D03*
%TD*%
%TO.P,R20,1*%
%TO.N,O2_CON*%
X200560000Y-114750000D03*
%TO.P,R20,2*%
%TO.N,Net-(Q2-B)*%
X192940000Y-114750000D03*
%TD*%
D13*
%TO.P,J8,1,Pin_1_1*%
%TO.N,ENC_SW*%
X200900000Y-89500000D03*
D21*
%TO.P,J8,2,Pin_2_2*%
%TO.N,ENC_1*%
X200900000Y-92040000D03*
%TO.P,J8,3,Pin_3_3*%
%TO.N,ENC_2*%
X200900000Y-94580000D03*
%TO.P,J8,4,Pin_4_4*%
%TO.N,O1_CON*%
X200900000Y-97120000D03*
%TO.P,J8,5,Pin_5_5*%
%TO.N,O2_CON*%
X200900000Y-99660000D03*
%TO.P,J8,6,Pin_6_6*%
%TO.N,O3_CON*%
X200900000Y-102200000D03*
%TO.P,J8,7,Pin_7_7*%
%TO.N,O4_CON*%
X200900000Y-104740000D03*
%TO.P,J8,8,Pin_8_8*%
%TO.N,GND*%
X200900000Y-107280000D03*
%TD*%
D19*
%TO.P,Q2,1,C_1*%
%TO.N,Net-(Q2-C)*%
X188500000Y-126250000D03*
D20*
%TO.P,Q2,2,B_2*%
%TO.N,Net-(Q2-B)*%
X188500000Y-127520000D03*
%TO.P,Q2,3,E_3*%
%TO.N,GND*%
X188500000Y-128790000D03*
%TD*%
D18*
%TO.P,R25,1*%
%TO.N,Net-(Q4-C)*%
X192940000Y-143750000D03*
%TO.P,R25,2*%
%TO.N,Net-(D5-K)*%
X200560000Y-143750000D03*
%TD*%
D19*
%TO.P,Q4,1,C_1*%
%TO.N,Net-(Q4-C)*%
X188000000Y-148770000D03*
D20*
%TO.P,Q4,2,B_2*%
%TO.N,Net-(Q4-B)*%
X188000000Y-147500000D03*
%TO.P,Q4,3,E_3*%
%TO.N,GND*%
X188000000Y-146230000D03*
%TD*%
D18*
%TO.P,R18,1*%
%TO.N,O1_CON*%
X175940000Y-114750000D03*
%TO.P,R18,2*%
%TO.N,Net-(Q1-B)*%
X183560000Y-114750000D03*
%TD*%
%TO.P,R23,1*%
%TO.N,Net-(Q3-C)*%
X175940000Y-143750000D03*
%TO.P,R23,2*%
%TO.N,Net-(D4-K)*%
X183560000Y-143750000D03*
%TD*%
D22*
%TO.N,O3_CON*%
X194250000Y-104750000D03*
X199000000Y-102500000D03*
%TO.N,GND*%
X186000000Y-70500000D03*
X200250000Y-132000000D03*
X190250000Y-70500000D03*
X201750000Y-127500000D03*
X182250000Y-64500000D03*
X189250000Y-144750000D03*
X199250000Y-113250000D03*
X196750000Y-108750000D03*
X197750000Y-133500000D03*
X200500000Y-120750000D03*
X178750000Y-70000000D03*
X175000000Y-132250000D03*
X175500000Y-140000000D03*
X176250000Y-89000000D03*
X201000000Y-140750000D03*
X198750000Y-144000000D03*
X201000000Y-109500000D03*
X175500000Y-101500000D03*
X175250000Y-58250000D03*
X187000000Y-144750000D03*
X191750000Y-142000000D03*
X178250000Y-74750000D03*
X187750000Y-109250000D03*
X189250000Y-65250000D03*
X192500000Y-135000000D03*
%TO.N,Net-(D3-K)*%
X196250000Y-129750000D03*
%TO.N,O1_CON*%
X194450000Y-99500000D03*
X179750000Y-101500000D03*
%TO.N,O4_CON*%
X198517475Y-117150000D03*
%TO.N,SCL*%
X189250000Y-61150000D03*
%TO.N,SDA*%
X192000000Y-61150000D03*
%TO.N,IN_1*%
X183750000Y-102750000D03*
%TO.N,Net-(Q1-C)*%
X176650000Y-127500000D03*
%TO.N,IN_3*%
X198000000Y-123000000D03*
%TD*%
%TO.N,O3_CON*%
D23*
X184660000Y-118590000D02*
X184660000Y-114048537D01*
X175940000Y-127310000D02*
X184660000Y-118590000D01*
X199550000Y-102200000D02*
X200900000Y-102200000D01*
X193958537Y-104750000D02*
X194250000Y-104750000D01*
X184660000Y-114048537D02*
X193958537Y-104750000D01*
X199250000Y-102500000D02*
X199550000Y-102200000D01*
X177040000Y-130600000D02*
X175940000Y-129500000D01*
X175440200Y-151800000D02*
X177040000Y-150200200D01*
X199000000Y-102500000D02*
X199250000Y-102500000D01*
X175940000Y-129500000D02*
X175940000Y-127310000D01*
X177040000Y-150200200D02*
X177040000Y-130600000D01*
%TO.N,Net-(D3-K)*%
X200560000Y-117750000D02*
X198401471Y-117750000D01*
X195750000Y-129250000D02*
X196250000Y-129750000D01*
X195750000Y-120401471D02*
X195750000Y-129250000D01*
X198401471Y-117750000D02*
X195750000Y-120401471D01*
%TO.N,ARD_3*%
D24*
X179614200Y-145850000D02*
X183529200Y-149765000D01*
X177500000Y-73620000D02*
X177500000Y-80462182D01*
X179614200Y-131640000D02*
X179614200Y-145850000D01*
X195250000Y-98212182D02*
X195250000Y-100250000D01*
X195250000Y-100250000D02*
X195200000Y-100300000D01*
X175200000Y-71320000D02*
X177500000Y-73620000D01*
X193005000Y-149765000D02*
X196920000Y-145850000D01*
X195200000Y-100300000D02*
X195200000Y-129920000D01*
X177500000Y-80462182D02*
X195250000Y-98212182D01*
X196920000Y-145850000D02*
X196920000Y-131640000D01*
X195200000Y-129920000D02*
X196920000Y-131640000D01*
X183529200Y-149765000D02*
X193005000Y-149765000D01*
%TO.N,O1_CON*%
D23*
X182250000Y-99000000D02*
X193950000Y-99000000D01*
X193950000Y-99000000D02*
X194450000Y-99500000D01*
X179750000Y-101500000D02*
X182250000Y-99000000D01*
%TO.N,O4_CON*%
X198517475Y-107122525D02*
X198517475Y-117150000D01*
X200900000Y-104740000D02*
X198517475Y-107122525D01*
%TO.N,SCL*%
X176500000Y-65505686D02*
X181055686Y-60950000D01*
X176500000Y-66750000D02*
X176500000Y-65505686D01*
X175200000Y-68050000D02*
X176500000Y-66750000D01*
X181055686Y-60950000D02*
X189050000Y-60950000D01*
X189050000Y-60950000D02*
X189250000Y-61150000D01*
%TO.N,SDA*%
X191400000Y-60550000D02*
X192000000Y-61150000D01*
X175200000Y-66240000D02*
X180890000Y-60550000D01*
X180890000Y-60550000D02*
X191400000Y-60550000D01*
%TO.N,ENC_SW*%
X197800000Y-86400000D02*
X190600000Y-86400000D01*
X200900000Y-89500000D02*
X197800000Y-86400000D01*
%TO.N,IN_1*%
X183750000Y-108188000D02*
X182638000Y-109300000D01*
X183750000Y-102750000D02*
X183750000Y-108188000D01*
%TO.N,Net-(Q1-C)*%
X184807818Y-133557818D02*
X185520000Y-134270000D01*
X176650000Y-127500000D02*
X183115635Y-127500000D01*
X183115635Y-127500000D02*
X184807818Y-129192182D01*
X185520000Y-134270000D02*
X187750000Y-134270000D01*
X184807818Y-129192182D02*
X184807818Y-133557818D01*
%TO.N,IN_2*%
X177040000Y-121700200D02*
X177040000Y-80780000D01*
X177040000Y-80780000D02*
X175200000Y-78940000D01*
X175440200Y-123300000D02*
X177040000Y-121700200D01*
%TO.N,Net-(Q3-B)*%
X188145000Y-142000000D02*
X188750000Y-142000000D01*
X183560000Y-132957737D02*
X187678200Y-137075937D01*
X187678200Y-141533200D02*
X188145000Y-142000000D01*
X187678200Y-137075937D02*
X187678200Y-141533200D01*
X183560000Y-129500000D02*
X183560000Y-132957737D01*
%TO.N,IN_3*%
X200800000Y-123000000D02*
X201100000Y-123300000D01*
X198000000Y-123000000D02*
X200800000Y-123000000D01*
%TD*%
%TA.AperFunction,Conductor*%
%TO.N,GND*%
G36*
X202012130Y-117800465D02*
G01*
X202070363Y-117839075D01*
X202098477Y-117903038D01*
X202099500Y-117918931D01*
X202099500Y-121971110D01*
X202079815Y-122038149D01*
X202027011Y-122083904D01*
X201957853Y-122093848D01*
X201902616Y-122071429D01*
X201868196Y-122046422D01*
X201662637Y-121941685D01*
X201662636Y-121941684D01*
X201662633Y-121941683D01*
X201549944Y-121905068D01*
X201443219Y-121870390D01*
X201246508Y-121839234D01*
X201215353Y-121834300D01*
X200984647Y-121834300D01*
X200957239Y-121838641D01*
X200756780Y-121870390D01*
X200585805Y-121925944D01*
X200537367Y-121941683D01*
X200537364Y-121941684D01*
X200537362Y-121941685D01*
X200331805Y-122046421D01*
X200225317Y-122123789D01*
X200145161Y-122182027D01*
X200145159Y-122182029D01*
X200145158Y-122182029D01*
X199982029Y-122345158D01*
X199982024Y-122345164D01*
X199979680Y-122348391D01*
X199924348Y-122391054D01*
X199879366Y-122399500D01*
X198579766Y-122399500D01*
X198512727Y-122379815D01*
X198510875Y-122378602D01*
X198379185Y-122290609D01*
X198379172Y-122290602D01*
X198233501Y-122230264D01*
X198233489Y-122230261D01*
X198078845Y-122199500D01*
X198078842Y-122199500D01*
X197921158Y-122199500D01*
X197921155Y-122199500D01*
X197766510Y-122230261D01*
X197766498Y-122230264D01*
X197620827Y-122290602D01*
X197620814Y-122290609D01*
X197489711Y-122378210D01*
X197489707Y-122378213D01*
X197378213Y-122489707D01*
X197378210Y-122489711D01*
X197290609Y-122620814D01*
X197290602Y-122620827D01*
X197230264Y-122766498D01*
X197230261Y-122766510D01*
X197199500Y-122921153D01*
X197199500Y-123078846D01*
X197230261Y-123233489D01*
X197230264Y-123233501D01*
X197290602Y-123379172D01*
X197290609Y-123379185D01*
X197378210Y-123510288D01*
X197378213Y-123510292D01*
X197489707Y-123621786D01*
X197489711Y-123621789D01*
X197620814Y-123709390D01*
X197620827Y-123709397D01*
X197766498Y-123769735D01*
X197766503Y-123769737D01*
X197921153Y-123800499D01*
X197921156Y-123800500D01*
X197921158Y-123800500D01*
X198078844Y-123800500D01*
X198078845Y-123800499D01*
X198233497Y-123769737D01*
X198379179Y-123709394D01*
X198433663Y-123672989D01*
X198510875Y-123621398D01*
X198577553Y-123600520D01*
X198579766Y-123600500D01*
X199566419Y-123600500D01*
X199633458Y-123620185D01*
X199679213Y-123672989D01*
X199684350Y-123686181D01*
X199741684Y-123862637D01*
X199846283Y-124067924D01*
X199846421Y-124068194D01*
X199982027Y-124254839D01*
X200145161Y-124417973D01*
X200331806Y-124553579D01*
X200537367Y-124658317D01*
X200714850Y-124715984D01*
X200756780Y-124729609D01*
X200870714Y-124747654D01*
X200984647Y-124765700D01*
X200984648Y-124765700D01*
X201215352Y-124765700D01*
X201215353Y-124765700D01*
X201443219Y-124729609D01*
X201662633Y-124658317D01*
X201868194Y-124553579D01*
X201902614Y-124528570D01*
X201968420Y-124505091D01*
X202036474Y-124520916D01*
X202085169Y-124571022D01*
X202099500Y-124628889D01*
X202099500Y-129331068D01*
X202079815Y-129398107D01*
X202027011Y-129443862D01*
X201957853Y-129453806D01*
X201894297Y-129424781D01*
X201856523Y-129366003D01*
X201853027Y-129350466D01*
X201828477Y-129195465D01*
X201778160Y-129040606D01*
X201765220Y-129000781D01*
X201765218Y-129000778D01*
X201765218Y-129000776D01*
X201731503Y-128934607D01*
X201672287Y-128818390D01*
X201615792Y-128740630D01*
X201551971Y-128652786D01*
X201407213Y-128508028D01*
X201241613Y-128387715D01*
X201241612Y-128387714D01*
X201241610Y-128387713D01*
X201184653Y-128358691D01*
X201059223Y-128294781D01*
X200864534Y-128231522D01*
X200689995Y-128203878D01*
X200662352Y-128199500D01*
X200457648Y-128199500D01*
X200433329Y-128203351D01*
X200255465Y-128231522D01*
X200060776Y-128294781D01*
X199878386Y-128387715D01*
X199712786Y-128508028D01*
X199568028Y-128652786D01*
X199447715Y-128818386D01*
X199354781Y-129000776D01*
X199291522Y-129195465D01*
X199259500Y-129397648D01*
X199259500Y-129602351D01*
X199291522Y-129804534D01*
X199354781Y-129999223D01*
X199413844Y-130115139D01*
X199440274Y-130167011D01*
X199447715Y-130181613D01*
X199568028Y-130347213D01*
X199712786Y-130491971D01*
X199867749Y-130604556D01*
X199878390Y-130612287D01*
X199994607Y-130671503D01*
X200060776Y-130705218D01*
X200060778Y-130705218D01*
X200060781Y-130705220D01*
X200129786Y-130727641D01*
X200255465Y-130768477D01*
X200356557Y-130784488D01*
X200457648Y-130800500D01*
X200457649Y-130800500D01*
X200662351Y-130800500D01*
X200662352Y-130800500D01*
X200864534Y-130768477D01*
X201059219Y-130705220D01*
X201241610Y-130612287D01*
X201367333Y-130520945D01*
X201407213Y-130491971D01*
X201407215Y-130491968D01*
X201407219Y-130491966D01*
X201551966Y-130347219D01*
X201551968Y-130347215D01*
X201551971Y-130347213D01*
X201630227Y-130239501D01*
X201672287Y-130181610D01*
X201765220Y-129999219D01*
X201828477Y-129804534D01*
X201853027Y-129649532D01*
X201882956Y-129586398D01*
X201942268Y-129549467D01*
X202012130Y-129550465D01*
X202070363Y-129589075D01*
X202098477Y-129653038D01*
X202099500Y-129668931D01*
X202099500Y-136271110D01*
X202079815Y-136338149D01*
X202027011Y-136383904D01*
X201957853Y-136393848D01*
X201902616Y-136371429D01*
X201868196Y-136346422D01*
X201662637Y-136241685D01*
X201662636Y-136241684D01*
X201662633Y-136241683D01*
X201545623Y-136203664D01*
X201443219Y-136170390D01*
X201246508Y-136139234D01*
X201215353Y-136134300D01*
X200984647Y-136134300D01*
X200957239Y-136138641D01*
X200756780Y-136170390D01*
X200585805Y-136225944D01*
X200537367Y-136241683D01*
X200537364Y-136241684D01*
X200537362Y-136241685D01*
X200331805Y-136346421D01*
X200225317Y-136423789D01*
X200145161Y-136482027D01*
X200145159Y-136482029D01*
X200145158Y-136482029D01*
X199982029Y-136645158D01*
X199982029Y-136645159D01*
X199982027Y-136645161D01*
X199931006Y-136715385D01*
X199846421Y-136831805D01*
X199741685Y-137037362D01*
X199670390Y-137256780D01*
X199634300Y-137484647D01*
X199634300Y-137715352D01*
X199670390Y-137943219D01*
X199703299Y-138044500D01*
X199741683Y-138162633D01*
X199846421Y-138368194D01*
X199982027Y-138554839D01*
X200145161Y-138717973D01*
X200331806Y-138853579D01*
X200537367Y-138958317D01*
X200700903Y-139011453D01*
X200756780Y-139029609D01*
X200870714Y-139047654D01*
X200984647Y-139065700D01*
X200984648Y-139065700D01*
X201215352Y-139065700D01*
X201215353Y-139065700D01*
X201443219Y-139029609D01*
X201662633Y-138958317D01*
X201868194Y-138853579D01*
X201902614Y-138828570D01*
X201968420Y-138805091D01*
X202036474Y-138820916D01*
X202085169Y-138871022D01*
X202099500Y-138928889D01*
X202099500Y-143581068D01*
X202079815Y-143648107D01*
X202027011Y-143693862D01*
X201957853Y-143703806D01*
X201894297Y-143674781D01*
X201856523Y-143616003D01*
X201853027Y-143600466D01*
X201828477Y-143445465D01*
X201765218Y-143250776D01*
X201701261Y-143125255D01*
X201672287Y-143068390D01*
X201664556Y-143057749D01*
X201551971Y-142902786D01*
X201407213Y-142758028D01*
X201241613Y-142637715D01*
X201241612Y-142637714D01*
X201241610Y-142637713D01*
X201184653Y-142608691D01*
X201059223Y-142544781D01*
X200864534Y-142481522D01*
X200689995Y-142453878D01*
X200662352Y-142449500D01*
X200457648Y-142449500D01*
X200433329Y-142453351D01*
X200255465Y-142481522D01*
X200060776Y-142544781D01*
X199878386Y-142637715D01*
X199712786Y-142758028D01*
X199568028Y-142902786D01*
X199447715Y-143068386D01*
X199354781Y-143250776D01*
X199291522Y-143445465D01*
X199259500Y-143647648D01*
X199259500Y-143852351D01*
X199291522Y-144054534D01*
X199354781Y-144249223D01*
X199418691Y-144374653D01*
X199446798Y-144429815D01*
X199447715Y-144431613D01*
X199568028Y-144597213D01*
X199712786Y-144741971D01*
X199818200Y-144818557D01*
X199878390Y-144862287D01*
X199994607Y-144921503D01*
X200060776Y-144955218D01*
X200060778Y-144955218D01*
X200060781Y-144955220D01*
X200165137Y-144989127D01*
X200255465Y-145018477D01*
X200356557Y-145034488D01*
X200457648Y-145050500D01*
X200457649Y-145050500D01*
X200662351Y-145050500D01*
X200662352Y-145050500D01*
X200864534Y-145018477D01*
X201059219Y-144955220D01*
X201241610Y-144862287D01*
X201352450Y-144781758D01*
X201407213Y-144741971D01*
X201407215Y-144741968D01*
X201407219Y-144741966D01*
X201551966Y-144597219D01*
X201551968Y-144597215D01*
X201551971Y-144597213D01*
X201618093Y-144506202D01*
X201672287Y-144431610D01*
X201765220Y-144249219D01*
X201828477Y-144054534D01*
X201853027Y-143899532D01*
X201882956Y-143836398D01*
X201942268Y-143799467D01*
X202012130Y-143800465D01*
X202070363Y-143839075D01*
X202098477Y-143903038D01*
X202099500Y-143918931D01*
X202099500Y-150471110D01*
X202079815Y-150538149D01*
X202027011Y-150583904D01*
X201957853Y-150593848D01*
X201902616Y-150571429D01*
X201868196Y-150546422D01*
X201662637Y-150441685D01*
X201662636Y-150441684D01*
X201662633Y-150441683D01*
X201549944Y-150405068D01*
X201443219Y-150370390D01*
X201246508Y-150339234D01*
X201215353Y-150334300D01*
X200984647Y-150334300D01*
X200957239Y-150338641D01*
X200756780Y-150370390D01*
X200598594Y-150421789D01*
X200537367Y-150441683D01*
X200537364Y-150441684D01*
X200537362Y-150441685D01*
X200331805Y-150546421D01*
X200263338Y-150596166D01*
X200145161Y-150682027D01*
X200145159Y-150682029D01*
X200145158Y-150682029D01*
X199982029Y-150845158D01*
X199982029Y-150845159D01*
X199982027Y-150845161D01*
X199931006Y-150915385D01*
X199846421Y-151031805D01*
X199741685Y-151237362D01*
X199670390Y-151456780D01*
X199634300Y-151684647D01*
X199634300Y-151915352D01*
X199670390Y-152143219D01*
X199703299Y-152244500D01*
X199741683Y-152362633D01*
X199846421Y-152568194D01*
X199982027Y-152754839D01*
X200145161Y-152917973D01*
X200331806Y-153053579D01*
X200537367Y-153158317D01*
X200714850Y-153215984D01*
X200756780Y-153229609D01*
X200870714Y-153247654D01*
X200984647Y-153265700D01*
X200984648Y-153265700D01*
X201215352Y-153265700D01*
X201215353Y-153265700D01*
X201443219Y-153229609D01*
X201662633Y-153158317D01*
X201868194Y-153053579D01*
X201902614Y-153028570D01*
X201968420Y-153005091D01*
X202036474Y-153020916D01*
X202085169Y-153071022D01*
X202099500Y-153128889D01*
X202099500Y-155575500D01*
X202079815Y-155642539D01*
X202027011Y-155688294D01*
X201975500Y-155699500D01*
X174224500Y-155699500D01*
X174157461Y-155679815D01*
X174111706Y-155627011D01*
X174100500Y-155575500D01*
X174100500Y-152831290D01*
X174120185Y-152764251D01*
X174172989Y-152718496D01*
X174242147Y-152708552D01*
X174305703Y-152737577D01*
X174318546Y-152751575D01*
X174319063Y-152751134D01*
X174322224Y-152754835D01*
X174322227Y-152754839D01*
X174485361Y-152917973D01*
X174672006Y-153053579D01*
X174877567Y-153158317D01*
X175055050Y-153215984D01*
X175096980Y-153229609D01*
X175210914Y-153247654D01*
X175324847Y-153265700D01*
X175324848Y-153265700D01*
X175555552Y-153265700D01*
X175555553Y-153265700D01*
X175783419Y-153229609D01*
X176002833Y-153158317D01*
X176208394Y-153053579D01*
X176395039Y-152917973D01*
X176558173Y-152754839D01*
X176693779Y-152568194D01*
X176798517Y-152362633D01*
X176869809Y-152143219D01*
X176905900Y-151915353D01*
X176905900Y-151684647D01*
X176869809Y-151456781D01*
X176835129Y-151350051D01*
X176833135Y-151280211D01*
X176865378Y-151224055D01*
X177408713Y-150680721D01*
X177408716Y-150680720D01*
X177520520Y-150568916D01*
X177570639Y-150482104D01*
X177599577Y-150431985D01*
X177640501Y-150279257D01*
X177640501Y-150121143D01*
X177640501Y-150113548D01*
X177640500Y-150113530D01*
X177640500Y-130689059D01*
X177640501Y-130689046D01*
X177640501Y-130520945D01*
X177640501Y-130520943D01*
X177599577Y-130368215D01*
X177599575Y-130368212D01*
X177599575Y-130368210D01*
X177599574Y-130368209D01*
X177565723Y-130309578D01*
X177565721Y-130309576D01*
X177528963Y-130245909D01*
X177520520Y-130231284D01*
X177408716Y-130119480D01*
X177408715Y-130119479D01*
X177404385Y-130115149D01*
X177404374Y-130115139D01*
X177234077Y-129944842D01*
X177200592Y-129883519D01*
X177203828Y-129818841D01*
X177205076Y-129815000D01*
X177208477Y-129804534D01*
X177240500Y-129602352D01*
X177240500Y-129397648D01*
X177221405Y-129277089D01*
X177208477Y-129195465D01*
X177158160Y-129040606D01*
X177145220Y-129000781D01*
X177145218Y-129000778D01*
X177145218Y-129000776D01*
X177111503Y-128934607D01*
X177052287Y-128818390D01*
X176995792Y-128740630D01*
X176931971Y-128652786D01*
X176787217Y-128508032D01*
X176787212Y-128508028D01*
X176779765Y-128502617D01*
X176737101Y-128447286D01*
X176731123Y-128377672D01*
X176763731Y-128315878D01*
X176824571Y-128281523D01*
X176828402Y-128280695D01*
X176883497Y-128269737D01*
X177029179Y-128209394D01*
X177029185Y-128209390D01*
X177160875Y-128121398D01*
X177227553Y-128100520D01*
X177229766Y-128100500D01*
X182815538Y-128100500D01*
X182882577Y-128120185D01*
X182903219Y-128136819D01*
X182940362Y-128173962D01*
X182973847Y-128235285D01*
X182968863Y-128304977D01*
X182926991Y-128360910D01*
X182908978Y-128372127D01*
X182878386Y-128387714D01*
X182712786Y-128508028D01*
X182568028Y-128652786D01*
X182447715Y-128818386D01*
X182354781Y-129000776D01*
X182291522Y-129195465D01*
X182259500Y-129397648D01*
X182259500Y-129602351D01*
X182291522Y-129804534D01*
X182354782Y-129999226D01*
X182385344Y-130059206D01*
X182398240Y-130127875D01*
X182371963Y-130192615D01*
X182314857Y-130232872D01*
X182274859Y-130239500D01*
X181206329Y-130239500D01*
X181206323Y-130239501D01*
X181146716Y-130245908D01*
X181011871Y-130296202D01*
X181011864Y-130296206D01*
X180896655Y-130382452D01*
X180896652Y-130382455D01*
X180810406Y-130497664D01*
X180810403Y-130497669D01*
X180780598Y-130577581D01*
X180738726Y-130633514D01*
X180673262Y-130657931D01*
X180604989Y-130643079D01*
X180576735Y-130621928D01*
X180526563Y-130571756D01*
X180526558Y-130571752D01*
X180348225Y-130442187D01*
X180348224Y-130442186D01*
X180348222Y-130442185D01*
X180230991Y-130382452D01*
X180151806Y-130342104D01*
X180151803Y-130342103D01*
X179942152Y-130273985D01*
X179833286Y-130256742D01*
X179724422Y-130239500D01*
X179503978Y-130239500D01*
X179431401Y-130250995D01*
X179286247Y-130273985D01*
X179076596Y-130342103D01*
X179076593Y-130342104D01*
X178880174Y-130442187D01*
X178701841Y-130571752D01*
X178701836Y-130571756D01*
X178545956Y-130727636D01*
X178545952Y-130727641D01*
X178416387Y-130905974D01*
X178316304Y-131102393D01*
X178316303Y-131102396D01*
X178248185Y-131312047D01*
X178213700Y-131529778D01*
X178213700Y-131750221D01*
X178248185Y-131967952D01*
X178316303Y-132177603D01*
X178316304Y-132177606D01*
X178416387Y-132374025D01*
X178545952Y-132552358D01*
X178545956Y-132552363D01*
X178701838Y-132708245D01*
X178767321Y-132755820D01*
X178803810Y-132782331D01*
X178812584Y-132788705D01*
X178855251Y-132844035D01*
X178863700Y-132889024D01*
X178863700Y-144600975D01*
X178844015Y-144668014D01*
X178812587Y-144701291D01*
X178803810Y-144707669D01*
X178701832Y-144781760D01*
X178545956Y-144937636D01*
X178545952Y-144937641D01*
X178416387Y-145115974D01*
X178316304Y-145312393D01*
X178316303Y-145312396D01*
X178248185Y-145522047D01*
X178213700Y-145739778D01*
X178213700Y-145960221D01*
X178248185Y-146177952D01*
X178316303Y-146387603D01*
X178316304Y-146387606D01*
X178380660Y-146513909D01*
X178414052Y-146579444D01*
X178416387Y-146584025D01*
X178545952Y-146762358D01*
X178545956Y-146762363D01*
X178701836Y-146918243D01*
X178701841Y-146918247D01*
X178803806Y-146992328D01*
X178880178Y-147047815D01*
X179008575Y-147113237D01*
X179076593Y-147147895D01*
X179076596Y-147147896D01*
X179181421Y-147181955D01*
X179286249Y-147216015D01*
X179503978Y-147250500D01*
X179503979Y-147250500D01*
X179724420Y-147250500D01*
X179724422Y-147250500D01*
X179859631Y-147229084D01*
X179928922Y-147238038D01*
X179966708Y-147263876D01*
X182946249Y-150243416D01*
X183050784Y-150347951D01*
X183050787Y-150347953D01*
X183050788Y-150347954D01*
X183139451Y-150407197D01*
X183184257Y-150460809D01*
X183192964Y-150530134D01*
X183162810Y-150593161D01*
X183143447Y-150610616D01*
X183045167Y-150682022D01*
X183045158Y-150682029D01*
X182882029Y-150845158D01*
X182882029Y-150845159D01*
X182882027Y-150845161D01*
X182831006Y-150915385D01*
X182746421Y-151031805D01*
X182641685Y-151237362D01*
X182570390Y-151456780D01*
X182534300Y-151684647D01*
X182534300Y-151915352D01*
X182570390Y-152143219D01*
X182603299Y-152244500D01*
X182641683Y-152362633D01*
X182746421Y-152568194D01*
X182882027Y-152754839D01*
X183045161Y-152917973D01*
X183231806Y-153053579D01*
X183437367Y-153158317D01*
X183614850Y-153215984D01*
X183656780Y-153229609D01*
X183770714Y-153247654D01*
X183884647Y-153265700D01*
X183884648Y-153265700D01*
X184115352Y-153265700D01*
X184115353Y-153265700D01*
X184343219Y-153229609D01*
X184562633Y-153158317D01*
X184768194Y-153053579D01*
X184954839Y-152917973D01*
X185117973Y-152754839D01*
X185162328Y-152693789D01*
X185166723Y-152688920D01*
X185176589Y-152682857D01*
X185975352Y-151884094D01*
X185998792Y-151971571D01*
X186057311Y-152072930D01*
X186140070Y-152155689D01*
X186241429Y-152214208D01*
X186328905Y-152237647D01*
X185568806Y-152997744D01*
X185645067Y-153053151D01*
X185850553Y-153157852D01*
X186069897Y-153229122D01*
X186297681Y-153265200D01*
X186528319Y-153265200D01*
X186756102Y-153229122D01*
X186975446Y-153157852D01*
X187180924Y-153053155D01*
X187180930Y-153053151D01*
X187257191Y-152997744D01*
X187257192Y-152997744D01*
X186497094Y-152237647D01*
X186584571Y-152214208D01*
X186685930Y-152155689D01*
X186768689Y-152072930D01*
X186827208Y-151971571D01*
X186850647Y-151884095D01*
X187610744Y-152644192D01*
X187610744Y-152644191D01*
X187666151Y-152567930D01*
X187666155Y-152567924D01*
X187770852Y-152362446D01*
X187842122Y-152143102D01*
X187878200Y-151915319D01*
X187878200Y-151684680D01*
X187842122Y-151456897D01*
X187770852Y-151237553D01*
X187666151Y-151032067D01*
X187610744Y-150955807D01*
X187610744Y-150955806D01*
X186850647Y-151715904D01*
X186827208Y-151628429D01*
X186768689Y-151527070D01*
X186685930Y-151444311D01*
X186584571Y-151385792D01*
X186497093Y-151362352D01*
X187274364Y-150585082D01*
X187275254Y-150580850D01*
X187324306Y-150531094D01*
X187384507Y-150515500D01*
X189155692Y-150515500D01*
X189222731Y-150535185D01*
X189266824Y-150586071D01*
X190043106Y-151362352D01*
X189955629Y-151385792D01*
X189854270Y-151444311D01*
X189771511Y-151527070D01*
X189712992Y-151628429D01*
X189689552Y-151715905D01*
X188929454Y-150955807D01*
X188874047Y-151032069D01*
X188769347Y-151237553D01*
X188698077Y-151456897D01*
X188662000Y-151684680D01*
X188662000Y-151915319D01*
X188698077Y-152143102D01*
X188769347Y-152362446D01*
X188874050Y-152567935D01*
X188929453Y-152644191D01*
X188929454Y-152644192D01*
X189689552Y-151884094D01*
X189712992Y-151971571D01*
X189771511Y-152072930D01*
X189854270Y-152155689D01*
X189955629Y-152214208D01*
X190043105Y-152237647D01*
X189283006Y-152997744D01*
X189359267Y-153053151D01*
X189564753Y-153157852D01*
X189784097Y-153229122D01*
X190011881Y-153265200D01*
X190242519Y-153265200D01*
X190470302Y-153229122D01*
X190689646Y-153157852D01*
X190895124Y-153053155D01*
X190895130Y-153053151D01*
X190971391Y-152997744D01*
X190971392Y-152997744D01*
X190211294Y-152237647D01*
X190298771Y-152214208D01*
X190400130Y-152155689D01*
X190482889Y-152072930D01*
X190541408Y-151971571D01*
X190564847Y-151884095D01*
X191365366Y-152684614D01*
X191365252Y-152684727D01*
X191381741Y-152699115D01*
X191419855Y-152751575D01*
X191422227Y-152754839D01*
X191585361Y-152917973D01*
X191772006Y-153053579D01*
X191977567Y-153158317D01*
X192155050Y-153215984D01*
X192196980Y-153229609D01*
X192310914Y-153247654D01*
X192424847Y-153265700D01*
X192424848Y-153265700D01*
X192655552Y-153265700D01*
X192655553Y-153265700D01*
X192883419Y-153229609D01*
X193102833Y-153158317D01*
X193308394Y-153053579D01*
X193495039Y-152917973D01*
X193658173Y-152754839D01*
X193793779Y-152568194D01*
X193898517Y-152362633D01*
X193969809Y-152143219D01*
X194005900Y-151915353D01*
X194005900Y-151684647D01*
X193980942Y-151527070D01*
X193969809Y-151456780D01*
X193946743Y-151385792D01*
X193898517Y-151237367D01*
X193793779Y-151031806D01*
X193658173Y-150845161D01*
X193495039Y-150682027D01*
X193393877Y-150608528D01*
X193351212Y-150553197D01*
X193345233Y-150483584D01*
X193377839Y-150421789D01*
X193397863Y-150405114D01*
X193409729Y-150397186D01*
X193483416Y-150347952D01*
X196567491Y-147263874D01*
X196628812Y-147230391D01*
X196674564Y-147229084D01*
X196809778Y-147250500D01*
X196809779Y-147250500D01*
X197030221Y-147250500D01*
X197030222Y-147250500D01*
X197247951Y-147216015D01*
X197457606Y-147147895D01*
X197654022Y-147047815D01*
X197832365Y-146918242D01*
X197988242Y-146762365D01*
X198117815Y-146584022D01*
X198217895Y-146387606D01*
X198286015Y-146177951D01*
X198320500Y-145960222D01*
X198320500Y-145739778D01*
X198286015Y-145522049D01*
X198251955Y-145417221D01*
X198217896Y-145312396D01*
X198217895Y-145312393D01*
X198163174Y-145205000D01*
X198117815Y-145115978D01*
X198059501Y-145035715D01*
X197988247Y-144937641D01*
X197988243Y-144937636D01*
X197832367Y-144781760D01*
X197832365Y-144781758D01*
X197721613Y-144701291D01*
X197678949Y-144645963D01*
X197670500Y-144600975D01*
X197670500Y-132889024D01*
X197690185Y-132821985D01*
X197721616Y-132788705D01*
X197730390Y-132782331D01*
X197832365Y-132708242D01*
X197988242Y-132552365D01*
X198117815Y-132374022D01*
X198217895Y-132177606D01*
X198286015Y-131967951D01*
X198320500Y-131750222D01*
X198320500Y-131529778D01*
X198286015Y-131312049D01*
X198217895Y-131102394D01*
X198217895Y-131102393D01*
X198132007Y-130933832D01*
X198117815Y-130905978D01*
X198076226Y-130848735D01*
X197988247Y-130727641D01*
X197988243Y-130727636D01*
X197832363Y-130571756D01*
X197832358Y-130571752D01*
X197654025Y-130442187D01*
X197654024Y-130442186D01*
X197654022Y-130442185D01*
X197536791Y-130382452D01*
X197457606Y-130342104D01*
X197457603Y-130342103D01*
X197247952Y-130273985D01*
X197076227Y-130246786D01*
X197013092Y-130216857D01*
X196976161Y-130157545D01*
X196977159Y-130087683D01*
X196981056Y-130076880D01*
X197019737Y-129983497D01*
X197050500Y-129828842D01*
X197050500Y-129671158D01*
X197050500Y-129671155D01*
X197050499Y-129671153D01*
X197046198Y-129649533D01*
X197019737Y-129516503D01*
X197019735Y-129516498D01*
X196959397Y-129370827D01*
X196959390Y-129370814D01*
X196871789Y-129239711D01*
X196871786Y-129239707D01*
X196760292Y-129128213D01*
X196760288Y-129128210D01*
X196629185Y-129040609D01*
X196629172Y-129040602D01*
X196483501Y-128980264D01*
X196483489Y-128980261D01*
X196450309Y-128973661D01*
X196388398Y-128941276D01*
X196353824Y-128880561D01*
X196350500Y-128852044D01*
X196350500Y-120701568D01*
X196370185Y-120634529D01*
X196386819Y-120613887D01*
X198613887Y-118386819D01*
X198675210Y-118353334D01*
X198701568Y-118350500D01*
X199330398Y-118350500D01*
X199397437Y-118370185D01*
X199440883Y-118418205D01*
X199447715Y-118431614D01*
X199568028Y-118597213D01*
X199712786Y-118741971D01*
X199822643Y-118821785D01*
X199878390Y-118862287D01*
X199994607Y-118921503D01*
X200060776Y-118955218D01*
X200060778Y-118955218D01*
X200060781Y-118955220D01*
X200165137Y-118989127D01*
X200255465Y-119018477D01*
X200356557Y-119034488D01*
X200457648Y-119050500D01*
X200457649Y-119050500D01*
X200662351Y-119050500D01*
X200662352Y-119050500D01*
X200864534Y-119018477D01*
X201059219Y-118955220D01*
X201241610Y-118862287D01*
X201334590Y-118794732D01*
X201407213Y-118741971D01*
X201407215Y-118741968D01*
X201407219Y-118741966D01*
X201551966Y-118597219D01*
X201551968Y-118597215D01*
X201551971Y-118597213D01*
X201614649Y-118510943D01*
X201672287Y-118431610D01*
X201765220Y-118249219D01*
X201828477Y-118054534D01*
X201853027Y-117899532D01*
X201882956Y-117836398D01*
X201942268Y-117799467D01*
X202012130Y-117800465D01*
G37*
%TD.AperFunction*%
%TA.AperFunction,Conductor*%
G36*
X185508531Y-150535185D02*
G01*
X185552624Y-150586071D01*
X186328906Y-151362352D01*
X186241429Y-151385792D01*
X186140070Y-151444311D01*
X186057311Y-151527070D01*
X185998792Y-151628429D01*
X185975352Y-151715905D01*
X185174833Y-150915385D01*
X185174944Y-150915273D01*
X185158458Y-150900884D01*
X185117973Y-150845161D01*
X184999993Y-150727181D01*
X184966508Y-150665858D01*
X184971492Y-150596166D01*
X185013364Y-150540233D01*
X185078828Y-150515816D01*
X185087674Y-150515500D01*
X185441492Y-150515500D01*
X185508531Y-150535185D01*
G37*
%TD.AperFunction*%
%TA.AperFunction,Conductor*%
G36*
X191519565Y-150535185D02*
G01*
X191565320Y-150587989D01*
X191575264Y-150657147D01*
X191546239Y-150720703D01*
X191540207Y-150727181D01*
X191422229Y-150845158D01*
X191422226Y-150845161D01*
X191381740Y-150900885D01*
X191364307Y-150914326D01*
X191365366Y-150915385D01*
X190564847Y-151715904D01*
X190541408Y-151628429D01*
X190482889Y-151527070D01*
X190400130Y-151444311D01*
X190298771Y-151385792D01*
X190211293Y-151362352D01*
X190988564Y-150585082D01*
X190989454Y-150580850D01*
X191038506Y-150531094D01*
X191098707Y-150515500D01*
X191452526Y-150515500D01*
X191519565Y-150535185D01*
G37*
%TD.AperFunction*%
%TA.AperFunction,Conductor*%
G36*
X174305703Y-138537577D02*
G01*
X174318546Y-138551575D01*
X174319063Y-138551134D01*
X174322224Y-138554835D01*
X174322227Y-138554839D01*
X174485361Y-138717973D01*
X174672006Y-138853579D01*
X174877567Y-138958317D01*
X175041103Y-139011453D01*
X175096980Y-139029609D01*
X175210914Y-139047654D01*
X175324847Y-139065700D01*
X175324848Y-139065700D01*
X175555552Y-139065700D01*
X175555553Y-139065700D01*
X175783419Y-139029609D01*
X176002833Y-138958317D01*
X176208394Y-138853579D01*
X176242613Y-138828716D01*
X176308420Y-138805236D01*
X176376474Y-138821061D01*
X176425169Y-138871166D01*
X176439500Y-138929034D01*
X176439500Y-142374199D01*
X176419815Y-142441238D01*
X176367011Y-142486993D01*
X176297853Y-142496937D01*
X176277183Y-142492130D01*
X176244542Y-142481524D01*
X176244535Y-142481523D01*
X176143443Y-142465511D01*
X176042352Y-142449500D01*
X175837648Y-142449500D01*
X175813329Y-142453351D01*
X175635465Y-142481522D01*
X175440776Y-142544781D01*
X175258386Y-142637715D01*
X175092786Y-142758028D01*
X174948028Y-142902786D01*
X174827715Y-143068386D01*
X174734781Y-143250776D01*
X174671522Y-143445465D01*
X174639500Y-143647648D01*
X174639500Y-143852351D01*
X174671522Y-144054534D01*
X174734781Y-144249223D01*
X174798691Y-144374653D01*
X174826798Y-144429815D01*
X174827715Y-144431613D01*
X174948028Y-144597213D01*
X175092786Y-144741971D01*
X175198200Y-144818557D01*
X175258390Y-144862287D01*
X175374607Y-144921503D01*
X175440776Y-144955218D01*
X175440778Y-144955218D01*
X175440781Y-144955220D01*
X175545137Y-144989127D01*
X175635465Y-145018477D01*
X175736557Y-145034488D01*
X175837648Y-145050500D01*
X175837649Y-145050500D01*
X176042351Y-145050500D01*
X176042352Y-145050500D01*
X176244534Y-145018477D01*
X176244539Y-145018475D01*
X176244541Y-145018475D01*
X176277180Y-145007870D01*
X176347021Y-145005873D01*
X176406855Y-145041953D01*
X176437684Y-145104653D01*
X176439500Y-145125800D01*
X176439500Y-149900102D01*
X176419815Y-149967141D01*
X176403181Y-149987783D01*
X176016145Y-150374818D01*
X175954822Y-150408303D01*
X175890146Y-150405068D01*
X175783421Y-150370391D01*
X175631508Y-150346330D01*
X175555553Y-150334300D01*
X175324847Y-150334300D01*
X175297439Y-150338641D01*
X175096980Y-150370390D01*
X174938794Y-150421789D01*
X174877567Y-150441683D01*
X174877564Y-150441684D01*
X174877562Y-150441685D01*
X174672005Y-150546421D01*
X174603538Y-150596166D01*
X174485361Y-150682027D01*
X174485359Y-150682029D01*
X174485358Y-150682029D01*
X174322229Y-150845158D01*
X174319063Y-150848866D01*
X174317338Y-150847393D01*
X174269378Y-150884303D01*
X174199759Y-150890216D01*
X174137995Y-150857551D01*
X174103696Y-150796679D01*
X174100500Y-150768709D01*
X174100500Y-138631290D01*
X174120185Y-138564251D01*
X174172989Y-138518496D01*
X174242147Y-138508552D01*
X174305703Y-138537577D01*
G37*
%TD.AperFunction*%
%TA.AperFunction,Conductor*%
G36*
X193196592Y-109471571D02*
G01*
X193255111Y-109572930D01*
X193337870Y-109655689D01*
X193439229Y-109714208D01*
X193526704Y-109737647D01*
X192766606Y-110497744D01*
X192842867Y-110553151D01*
X193048353Y-110657852D01*
X193267697Y-110729122D01*
X193495481Y-110765200D01*
X193726119Y-110765200D01*
X193953902Y-110729122D01*
X194173246Y-110657852D01*
X194269205Y-110608958D01*
X194337874Y-110596062D01*
X194402614Y-110622338D01*
X194442872Y-110679444D01*
X194449500Y-110719443D01*
X194449500Y-114404351D01*
X194429815Y-114471390D01*
X194377011Y-114517145D01*
X194307853Y-114527089D01*
X194244297Y-114498064D01*
X194207569Y-114442670D01*
X194155232Y-114281594D01*
X194145220Y-114250781D01*
X194145218Y-114250778D01*
X194145218Y-114250776D01*
X194111503Y-114184607D01*
X194052287Y-114068390D01*
X194044556Y-114057749D01*
X193931971Y-113902786D01*
X193787213Y-113758028D01*
X193621613Y-113637715D01*
X193621612Y-113637714D01*
X193621610Y-113637713D01*
X193539255Y-113595751D01*
X193439223Y-113544781D01*
X193244534Y-113481522D01*
X193069995Y-113453878D01*
X193042352Y-113449500D01*
X192837648Y-113449500D01*
X192813329Y-113453351D01*
X192635465Y-113481522D01*
X192440776Y-113544781D01*
X192258386Y-113637715D01*
X192092786Y-113758028D01*
X191948028Y-113902786D01*
X191827715Y-114068386D01*
X191734781Y-114250776D01*
X191671522Y-114445465D01*
X191639500Y-114647648D01*
X191639500Y-114852351D01*
X191671522Y-115054534D01*
X191734781Y-115249223D01*
X191827715Y-115431613D01*
X191948028Y-115597213D01*
X192092786Y-115741971D01*
X192247749Y-115854556D01*
X192258390Y-115862287D01*
X192374607Y-115921503D01*
X192440776Y-115955218D01*
X192440778Y-115955218D01*
X192440781Y-115955220D01*
X192545137Y-115989127D01*
X192635465Y-116018477D01*
X192736557Y-116034488D01*
X192837648Y-116050500D01*
X192837649Y-116050500D01*
X193042351Y-116050500D01*
X193042352Y-116050500D01*
X193244534Y-116018477D01*
X193439219Y-115955220D01*
X193621610Y-115862287D01*
X193714590Y-115794732D01*
X193787213Y-115741971D01*
X193787215Y-115741968D01*
X193787219Y-115741966D01*
X193931966Y-115597219D01*
X193931968Y-115597215D01*
X193931971Y-115597213D01*
X193984732Y-115524590D01*
X194052287Y-115431610D01*
X194145220Y-115249219D01*
X194207569Y-115057329D01*
X194247007Y-114999654D01*
X194311366Y-114972456D01*
X194380212Y-114984371D01*
X194431688Y-115031615D01*
X194449500Y-115095648D01*
X194449500Y-117404351D01*
X194429815Y-117471390D01*
X194377011Y-117517145D01*
X194307853Y-117527089D01*
X194244297Y-117498064D01*
X194207569Y-117442670D01*
X194145218Y-117250776D01*
X194111503Y-117184607D01*
X194052287Y-117068390D01*
X194018940Y-117022491D01*
X193931971Y-116902786D01*
X193787213Y-116758028D01*
X193621613Y-116637715D01*
X193621612Y-116637714D01*
X193621610Y-116637713D01*
X193564653Y-116608691D01*
X193439223Y-116544781D01*
X193244534Y-116481522D01*
X193069995Y-116453878D01*
X193042352Y-116449500D01*
X192837648Y-116449500D01*
X192813329Y-116453351D01*
X192635465Y-116481522D01*
X192440776Y-116544781D01*
X192258386Y-116637715D01*
X192092786Y-116758028D01*
X191948028Y-116902786D01*
X191827715Y-117068386D01*
X191734781Y-117250776D01*
X191671522Y-117445465D01*
X191639500Y-117647648D01*
X191639500Y-117852351D01*
X191671522Y-118054534D01*
X191734781Y-118249223D01*
X191827715Y-118431613D01*
X191948028Y-118597213D01*
X192092786Y-118741971D01*
X192202643Y-118821785D01*
X192258390Y-118862287D01*
X192374607Y-118921503D01*
X192440776Y-118955218D01*
X192440778Y-118955218D01*
X192440781Y-118955220D01*
X192545137Y-118989127D01*
X192635465Y-119018477D01*
X192736557Y-119034488D01*
X192837648Y-119050500D01*
X192837649Y-119050500D01*
X193042351Y-119050500D01*
X193042352Y-119050500D01*
X193244534Y-119018477D01*
X193439219Y-118955220D01*
X193621610Y-118862287D01*
X193714590Y-118794732D01*
X193787213Y-118741971D01*
X193787215Y-118741968D01*
X193787219Y-118741966D01*
X193931966Y-118597219D01*
X193931968Y-118597215D01*
X193931971Y-118597213D01*
X193994649Y-118510943D01*
X194052287Y-118431610D01*
X194145220Y-118249219D01*
X194207569Y-118057329D01*
X194247007Y-117999654D01*
X194311366Y-117972456D01*
X194380212Y-117984371D01*
X194431688Y-118031615D01*
X194449500Y-118095648D01*
X194449500Y-129154351D01*
X194429815Y-129221390D01*
X194377011Y-129267145D01*
X194307853Y-129277089D01*
X194244297Y-129248064D01*
X194207569Y-129192670D01*
X194158160Y-129040606D01*
X194145220Y-129000781D01*
X194145218Y-129000778D01*
X194145218Y-129000776D01*
X194111503Y-128934607D01*
X194052287Y-128818390D01*
X193995792Y-128740630D01*
X193931971Y-128652786D01*
X193787213Y-128508028D01*
X193621613Y-128387715D01*
X193621612Y-128387714D01*
X193621610Y-128387713D01*
X193564653Y-128358691D01*
X193439223Y-128294781D01*
X193244534Y-128231522D01*
X193069995Y-128203878D01*
X193042352Y-128199500D01*
X192837648Y-128199500D01*
X192813329Y-128203351D01*
X192635465Y-128231522D01*
X192440776Y-128294781D01*
X192258386Y-128387715D01*
X192092786Y-128508028D01*
X191948028Y-128652786D01*
X191827715Y-128818386D01*
X191734781Y-129000776D01*
X191671522Y-129195465D01*
X191639500Y-129397648D01*
X191639500Y-129602351D01*
X191671522Y-129804534D01*
X191734781Y-129999223D01*
X191793844Y-130115139D01*
X191820274Y-130167011D01*
X191827715Y-130181613D01*
X191948028Y-130347213D01*
X192092786Y-130491971D01*
X192247749Y-130604556D01*
X192258390Y-130612287D01*
X192374607Y-130671503D01*
X192440776Y-130705218D01*
X192440778Y-130705218D01*
X192440781Y-130705220D01*
X192509786Y-130727641D01*
X192635465Y-130768477D01*
X192736557Y-130784488D01*
X192837648Y-130800500D01*
X192855500Y-130800500D01*
X192922539Y-130820185D01*
X192968294Y-130872989D01*
X192979500Y-130924500D01*
X192979500Y-132587870D01*
X192979501Y-132587876D01*
X192985908Y-132647483D01*
X193036202Y-132782328D01*
X193036206Y-132782335D01*
X193122452Y-132897544D01*
X193122455Y-132897547D01*
X193237664Y-132983793D01*
X193237671Y-132983797D01*
X193372517Y-133034091D01*
X193372516Y-133034091D01*
X193379444Y-133034835D01*
X193432127Y-133040500D01*
X195327872Y-133040499D01*
X195387483Y-133034091D01*
X195522331Y-132983796D01*
X195637546Y-132897546D01*
X195723796Y-132782331D01*
X195751428Y-132708245D01*
X195753601Y-132702420D01*
X195795471Y-132646486D01*
X195860936Y-132622068D01*
X195929209Y-132636919D01*
X195957464Y-132658071D01*
X196007638Y-132708245D01*
X196073121Y-132755820D01*
X196109610Y-132782331D01*
X196118384Y-132788705D01*
X196161051Y-132844035D01*
X196169500Y-132889024D01*
X196169500Y-144600975D01*
X196149815Y-144668014D01*
X196118387Y-144701291D01*
X196109610Y-144707669D01*
X196007632Y-144781760D01*
X195957463Y-144831929D01*
X195896140Y-144865413D01*
X195826448Y-144860428D01*
X195770515Y-144818557D01*
X195753601Y-144787580D01*
X195723797Y-144707671D01*
X195723793Y-144707664D01*
X195637547Y-144592455D01*
X195637544Y-144592452D01*
X195522335Y-144506206D01*
X195522328Y-144506202D01*
X195387482Y-144455908D01*
X195387483Y-144455908D01*
X195327883Y-144449501D01*
X195327881Y-144449500D01*
X195327873Y-144449500D01*
X195327865Y-144449500D01*
X194245522Y-144449500D01*
X194178483Y-144429815D01*
X194132728Y-144377011D01*
X194122784Y-144307853D01*
X194135037Y-144269206D01*
X194145217Y-144249226D01*
X194145217Y-144249222D01*
X194145220Y-144249219D01*
X194208477Y-144054534D01*
X194240500Y-143852352D01*
X194240500Y-143647648D01*
X194229955Y-143581068D01*
X194208477Y-143445465D01*
X194145218Y-143250776D01*
X194081261Y-143125255D01*
X194052287Y-143068390D01*
X194044556Y-143057749D01*
X193931971Y-142902786D01*
X193787213Y-142758028D01*
X193621613Y-142637715D01*
X193621612Y-142637714D01*
X193621610Y-142637713D01*
X193564653Y-142608691D01*
X193439223Y-142544781D01*
X193244534Y-142481522D01*
X193069995Y-142453878D01*
X193042352Y-142449500D01*
X192837648Y-142449500D01*
X192813329Y-142453351D01*
X192635465Y-142481522D01*
X192440776Y-142544781D01*
X192258386Y-142637715D01*
X192092786Y-142758028D01*
X191948028Y-142902786D01*
X191827715Y-143068386D01*
X191734781Y-143250776D01*
X191671522Y-143445465D01*
X191639500Y-143647648D01*
X191639500Y-143852351D01*
X191671522Y-144054534D01*
X191734781Y-144249223D01*
X191798691Y-144374653D01*
X191826798Y-144429815D01*
X191827715Y-144431613D01*
X191948028Y-144597213D01*
X192092786Y-144741971D01*
X192198200Y-144818557D01*
X192258390Y-144862287D01*
X192374607Y-144921503D01*
X192440776Y-144955218D01*
X192440778Y-144955218D01*
X192440781Y-144955220D01*
X192545137Y-144989127D01*
X192635465Y-145018477D01*
X192736557Y-145034488D01*
X192837648Y-145050500D01*
X192855500Y-145050500D01*
X192922539Y-145070185D01*
X192968294Y-145122989D01*
X192979500Y-145174500D01*
X192979500Y-146797870D01*
X192979501Y-146797876D01*
X192985908Y-146857483D01*
X193036202Y-146992328D01*
X193036206Y-146992335D01*
X193122452Y-147107544D01*
X193122455Y-147107547D01*
X193237664Y-147193793D01*
X193237671Y-147193797D01*
X193372517Y-147244091D01*
X193372516Y-147244091D01*
X193379444Y-147244835D01*
X193432127Y-147250500D01*
X194158770Y-147250499D01*
X194225809Y-147270183D01*
X194271564Y-147322987D01*
X194281508Y-147392146D01*
X194252483Y-147455702D01*
X194246451Y-147462180D01*
X192730451Y-148978181D01*
X192669128Y-149011666D01*
X192642770Y-149014500D01*
X189374500Y-149014500D01*
X189307461Y-148994815D01*
X189261706Y-148942011D01*
X189250500Y-148890500D01*
X189250499Y-148197129D01*
X189250498Y-148197123D01*
X189250497Y-148197116D01*
X189244091Y-148137517D01*
X189193796Y-148002669D01*
X189192967Y-148001562D01*
X189192485Y-148000268D01*
X189189546Y-147994886D01*
X189190319Y-147994463D01*
X189168551Y-147936099D01*
X189177675Y-147879798D01*
X189211089Y-147799132D01*
X189211089Y-147799131D01*
X189211091Y-147799127D01*
X189250500Y-147601003D01*
X189250500Y-147398997D01*
X189211091Y-147200873D01*
X189133786Y-147014244D01*
X189079794Y-146933439D01*
X189058917Y-146866764D01*
X189077401Y-146799384D01*
X189079796Y-146795658D01*
X189133344Y-146715518D01*
X189133346Y-146715515D01*
X189210609Y-146528983D01*
X189210612Y-146528974D01*
X189220353Y-146480000D01*
X188365866Y-146480000D01*
X188341674Y-146477617D01*
X188326004Y-146474500D01*
X188326003Y-146474500D01*
X188285830Y-146474500D01*
X188300075Y-146460255D01*
X188349444Y-146374745D01*
X188375000Y-146279370D01*
X188375000Y-146180630D01*
X188349444Y-146085255D01*
X188300075Y-145999745D01*
X188280330Y-145980000D01*
X189220353Y-145980000D01*
X189210612Y-145931025D01*
X189210609Y-145931016D01*
X189133347Y-145744486D01*
X189133340Y-145744473D01*
X189021170Y-145576600D01*
X189021167Y-145576596D01*
X188878403Y-145433832D01*
X188878399Y-145433829D01*
X188710526Y-145321659D01*
X188710513Y-145321652D01*
X188523983Y-145244390D01*
X188523974Y-145244387D01*
X188325958Y-145205000D01*
X188250000Y-145205000D01*
X188250000Y-145949670D01*
X188230255Y-145929925D01*
X188144745Y-145880556D01*
X188049370Y-145855000D01*
X187950630Y-145855000D01*
X187855255Y-145880556D01*
X187769745Y-145929925D01*
X187750000Y-145949670D01*
X187750000Y-145205000D01*
X187674041Y-145205000D01*
X187476025Y-145244387D01*
X187476016Y-145244390D01*
X187289486Y-145321652D01*
X187289473Y-145321659D01*
X187121600Y-145433829D01*
X187121596Y-145433832D01*
X186978832Y-145576596D01*
X186978829Y-145576600D01*
X186866659Y-145744473D01*
X186866652Y-145744486D01*
X186789390Y-145931016D01*
X186789387Y-145931025D01*
X186779647Y-145980000D01*
X187719670Y-145980000D01*
X187699925Y-145999745D01*
X187650556Y-146085255D01*
X187625000Y-146180630D01*
X187625000Y-146279370D01*
X187650556Y-146374745D01*
X187699925Y-146460255D01*
X187714170Y-146474500D01*
X187673997Y-146474500D01*
X187673996Y-146474500D01*
X187658326Y-146477617D01*
X187634134Y-146480000D01*
X186779647Y-146480000D01*
X186789387Y-146528974D01*
X186789390Y-146528983D01*
X186866652Y-146715513D01*
X186866659Y-146715526D01*
X186920203Y-146795659D01*
X186941081Y-146862336D01*
X186922597Y-146929716D01*
X186920204Y-146933439D01*
X186866214Y-147014243D01*
X186788909Y-147200872D01*
X186788907Y-147200880D01*
X186749500Y-147398992D01*
X186749500Y-147601007D01*
X186788907Y-147799119D01*
X186788909Y-147799127D01*
X186822325Y-147879800D01*
X186829794Y-147949270D01*
X186810038Y-147994660D01*
X186810454Y-147994887D01*
X186807919Y-147999528D01*
X186807037Y-148001556D01*
X186806206Y-148002665D01*
X186806202Y-148002672D01*
X186755908Y-148137517D01*
X186749501Y-148197116D01*
X186749501Y-148197123D01*
X186749500Y-148197135D01*
X186749501Y-148890500D01*
X186729817Y-148957539D01*
X186677013Y-149003294D01*
X186625501Y-149014500D01*
X183891429Y-149014500D01*
X183824390Y-148994815D01*
X183803748Y-148978181D01*
X182287748Y-147462180D01*
X182254263Y-147400857D01*
X182259247Y-147331165D01*
X182301119Y-147275232D01*
X182366583Y-147250815D01*
X182375429Y-147250499D01*
X183102071Y-147250499D01*
X183102072Y-147250499D01*
X183161683Y-147244091D01*
X183296531Y-147193796D01*
X183411746Y-147107546D01*
X183497996Y-146992331D01*
X183548291Y-146857483D01*
X183554700Y-146797873D01*
X183554699Y-145880556D01*
X183554699Y-145173456D01*
X183574383Y-145106417D01*
X183627187Y-145060662D01*
X183659301Y-145050983D01*
X183662351Y-145050500D01*
X183662352Y-145050500D01*
X183864534Y-145018477D01*
X184059219Y-144955220D01*
X184241610Y-144862287D01*
X184352450Y-144781758D01*
X184407213Y-144741971D01*
X184407215Y-144741968D01*
X184407219Y-144741966D01*
X184551966Y-144597219D01*
X184551968Y-144597215D01*
X184551971Y-144597213D01*
X184618093Y-144506202D01*
X184672287Y-144431610D01*
X184765220Y-144249219D01*
X184828477Y-144054534D01*
X184860500Y-143852352D01*
X184860500Y-143647648D01*
X184849955Y-143581068D01*
X184838076Y-143506068D01*
X184834361Y-143482620D01*
X184828477Y-143445466D01*
X184765220Y-143250781D01*
X184765218Y-143250778D01*
X184765218Y-143250776D01*
X184701261Y-143125255D01*
X184672287Y-143068390D01*
X184664556Y-143057749D01*
X184551971Y-142902786D01*
X184407213Y-142758028D01*
X184241613Y-142637715D01*
X184241612Y-142637714D01*
X184241610Y-142637713D01*
X184184653Y-142608691D01*
X184059223Y-142544781D01*
X183864534Y-142481522D01*
X183689995Y-142453878D01*
X183662352Y-142449500D01*
X183457648Y-142449500D01*
X183433329Y-142453351D01*
X183255465Y-142481522D01*
X183060776Y-142544781D01*
X182878386Y-142637715D01*
X182712786Y-142758028D01*
X182568028Y-142902786D01*
X182447715Y-143068386D01*
X182354781Y-143250776D01*
X182291522Y-143445465D01*
X182259500Y-143647648D01*
X182259500Y-143852351D01*
X182291522Y-144054534D01*
X182354782Y-144249226D01*
X182364963Y-144269206D01*
X182377859Y-144337875D01*
X182351582Y-144402616D01*
X182294475Y-144442872D01*
X182254478Y-144449500D01*
X181206329Y-144449500D01*
X181206323Y-144449501D01*
X181146716Y-144455908D01*
X181011871Y-144506202D01*
X181011864Y-144506206D01*
X180896655Y-144592452D01*
X180896652Y-144592455D01*
X180810406Y-144707664D01*
X180810403Y-144707669D01*
X180780598Y-144787581D01*
X180738726Y-144843514D01*
X180673262Y-144867931D01*
X180604989Y-144853079D01*
X180576735Y-144831928D01*
X180526567Y-144781760D01*
X180526565Y-144781758D01*
X180415813Y-144701291D01*
X180373149Y-144645963D01*
X180364700Y-144600975D01*
X180364700Y-132889024D01*
X180384385Y-132821985D01*
X180415816Y-132788705D01*
X180424590Y-132782331D01*
X180526565Y-132708242D01*
X180576736Y-132658070D01*
X180638057Y-132624586D01*
X180707748Y-132629570D01*
X180763682Y-132671441D01*
X180780598Y-132702419D01*
X180810402Y-132782328D01*
X180810406Y-132782335D01*
X180896652Y-132897544D01*
X180896655Y-132897547D01*
X181011864Y-132983793D01*
X181011871Y-132983797D01*
X181146717Y-133034091D01*
X181146716Y-133034091D01*
X181153644Y-133034835D01*
X181206327Y-133040500D01*
X182865343Y-133040499D01*
X182932382Y-133060184D01*
X182978137Y-133112987D01*
X182985117Y-133132404D01*
X183000421Y-133189519D01*
X183000422Y-133189520D01*
X183029358Y-133239637D01*
X183029359Y-133239641D01*
X183029360Y-133239641D01*
X183079479Y-133326451D01*
X183079481Y-133326454D01*
X183198349Y-133445322D01*
X183198355Y-133445327D01*
X185825677Y-136072649D01*
X185859162Y-136133972D01*
X185854178Y-136203664D01*
X185812306Y-136259597D01*
X185794291Y-136270815D01*
X185645069Y-136346847D01*
X185568807Y-136402254D01*
X186328905Y-137162352D01*
X186241429Y-137185792D01*
X186140070Y-137244311D01*
X186057311Y-137327070D01*
X185998792Y-137428429D01*
X185975352Y-137515905D01*
X185174833Y-136715385D01*
X185174944Y-136715273D01*
X185158458Y-136700884D01*
X185117973Y-136645161D01*
X184954839Y-136482027D01*
X184768194Y-136346421D01*
X184620387Y-136271110D01*
X184562637Y-136241685D01*
X184562636Y-136241684D01*
X184562633Y-136241683D01*
X184445623Y-136203664D01*
X184343219Y-136170390D01*
X184146508Y-136139234D01*
X184115353Y-136134300D01*
X183884647Y-136134300D01*
X183857239Y-136138641D01*
X183656780Y-136170390D01*
X183485805Y-136225944D01*
X183437367Y-136241683D01*
X183437364Y-136241684D01*
X183437362Y-136241685D01*
X183231805Y-136346421D01*
X183125317Y-136423789D01*
X183045161Y-136482027D01*
X183045159Y-136482029D01*
X183045158Y-136482029D01*
X182882029Y-136645158D01*
X182882029Y-136645159D01*
X182882027Y-136645161D01*
X182831006Y-136715385D01*
X182746421Y-136831805D01*
X182641685Y-137037362D01*
X182570390Y-137256780D01*
X182534300Y-137484647D01*
X182534300Y-137715352D01*
X182570390Y-137943219D01*
X182603299Y-138044500D01*
X182641683Y-138162633D01*
X182746421Y-138368194D01*
X182882027Y-138554839D01*
X183045161Y-138717973D01*
X183231806Y-138853579D01*
X183437367Y-138958317D01*
X183600903Y-139011453D01*
X183656780Y-139029609D01*
X183770714Y-139047654D01*
X183884647Y-139065700D01*
X183884648Y-139065700D01*
X184115352Y-139065700D01*
X184115353Y-139065700D01*
X184343219Y-139029609D01*
X184562633Y-138958317D01*
X184768194Y-138853579D01*
X184954839Y-138717973D01*
X185117973Y-138554839D01*
X185158459Y-138499114D01*
X185175890Y-138485671D01*
X185174833Y-138484614D01*
X185975352Y-137684094D01*
X185998792Y-137771571D01*
X186057311Y-137872930D01*
X186140070Y-137955689D01*
X186241429Y-138014208D01*
X186328904Y-138037647D01*
X185568806Y-138797744D01*
X185645067Y-138853151D01*
X185850553Y-138957852D01*
X186069897Y-139029122D01*
X186297681Y-139065200D01*
X186528319Y-139065200D01*
X186756102Y-139029122D01*
X186915381Y-138977368D01*
X186985222Y-138975373D01*
X187045055Y-139011453D01*
X187075884Y-139074153D01*
X187077700Y-139095299D01*
X187077700Y-141446530D01*
X187077699Y-141446548D01*
X187077699Y-141612254D01*
X187077698Y-141612254D01*
X187118623Y-141764985D01*
X187147558Y-141815100D01*
X187147559Y-141815104D01*
X187147560Y-141815104D01*
X187197679Y-141901914D01*
X187197681Y-141901917D01*
X187316549Y-142020785D01*
X187316555Y-142020790D01*
X187498410Y-142202645D01*
X187531895Y-142263968D01*
X187532346Y-142266135D01*
X187538907Y-142299119D01*
X187538909Y-142299127D01*
X187616212Y-142485754D01*
X187670204Y-142566558D01*
X187691081Y-142633235D01*
X187672596Y-142700615D01*
X187670204Y-142704337D01*
X187616655Y-142784479D01*
X187616654Y-142784481D01*
X187539390Y-142971016D01*
X187539387Y-142971025D01*
X187529647Y-143020000D01*
X188384134Y-143020000D01*
X188408326Y-143022383D01*
X188411123Y-143022939D01*
X188423995Y-143025499D01*
X188423996Y-143025500D01*
X188423997Y-143025500D01*
X188464170Y-143025500D01*
X188449925Y-143039745D01*
X188400556Y-143125255D01*
X188375000Y-143220630D01*
X188375000Y-143319370D01*
X188400556Y-143414745D01*
X188449925Y-143500255D01*
X188469670Y-143520000D01*
X187529647Y-143520000D01*
X187539387Y-143568974D01*
X187539390Y-143568983D01*
X187616652Y-143755513D01*
X187616659Y-143755526D01*
X187728829Y-143923399D01*
X187728832Y-143923403D01*
X187871596Y-144066167D01*
X187871600Y-144066170D01*
X188039473Y-144178340D01*
X188039486Y-144178347D01*
X188226016Y-144255609D01*
X188226025Y-144255612D01*
X188424041Y-144294999D01*
X188424045Y-144295000D01*
X188500000Y-144295000D01*
X188500000Y-143550330D01*
X188519745Y-143570075D01*
X188605255Y-143619444D01*
X188700630Y-143645000D01*
X188799370Y-143645000D01*
X188894745Y-143619444D01*
X188980255Y-143570075D01*
X189000000Y-143550330D01*
X189000000Y-144295000D01*
X189075955Y-144295000D01*
X189075958Y-144294999D01*
X189273974Y-144255612D01*
X189273983Y-144255609D01*
X189460513Y-144178347D01*
X189460526Y-144178340D01*
X189628399Y-144066170D01*
X189628403Y-144066167D01*
X189771167Y-143923403D01*
X189771170Y-143923399D01*
X189883340Y-143755526D01*
X189883347Y-143755513D01*
X189960609Y-143568983D01*
X189960612Y-143568974D01*
X189970353Y-143520000D01*
X189030330Y-143520000D01*
X189050075Y-143500255D01*
X189099444Y-143414745D01*
X189125000Y-143319370D01*
X189125000Y-143220630D01*
X189099444Y-143125255D01*
X189050075Y-143039745D01*
X189035830Y-143025500D01*
X189076004Y-143025500D01*
X189076004Y-143025499D01*
X189089473Y-143022820D01*
X189091674Y-143022383D01*
X189115866Y-143020000D01*
X189970353Y-143020000D01*
X189960612Y-142971025D01*
X189960609Y-142971016D01*
X189883347Y-142784486D01*
X189883343Y-142784479D01*
X189829795Y-142704340D01*
X189808917Y-142637662D01*
X189827401Y-142570282D01*
X189829733Y-142566652D01*
X189883786Y-142485756D01*
X189961091Y-142299127D01*
X190000500Y-142101003D01*
X190000500Y-141898997D01*
X189961091Y-141700873D01*
X189927673Y-141620198D01*
X189920205Y-141550730D01*
X189939964Y-141505340D01*
X189939547Y-141505112D01*
X189942095Y-141500444D01*
X189942972Y-141498431D01*
X189943796Y-141497331D01*
X189994091Y-141362483D01*
X190000500Y-141302873D01*
X190000499Y-140157128D01*
X189994091Y-140097517D01*
X189943796Y-139962669D01*
X189943795Y-139962668D01*
X189943793Y-139962664D01*
X189857547Y-139847455D01*
X189857544Y-139847452D01*
X189742335Y-139761206D01*
X189742328Y-139761202D01*
X189607482Y-139710908D01*
X189607483Y-139710908D01*
X189547883Y-139704501D01*
X189547881Y-139704500D01*
X189547873Y-139704500D01*
X189547865Y-139704500D01*
X188402700Y-139704500D01*
X188335661Y-139684815D01*
X188289906Y-139632011D01*
X188278700Y-139580500D01*
X188278700Y-137484680D01*
X188662000Y-137484680D01*
X188662000Y-137715319D01*
X188698077Y-137943102D01*
X188769347Y-138162446D01*
X188874050Y-138367935D01*
X188929453Y-138444191D01*
X188929454Y-138444192D01*
X189689552Y-137684094D01*
X189712992Y-137771571D01*
X189771511Y-137872930D01*
X189854270Y-137955689D01*
X189955629Y-138014208D01*
X190043105Y-138037647D01*
X189283006Y-138797744D01*
X189359267Y-138853151D01*
X189564753Y-138957852D01*
X189784097Y-139029122D01*
X190011881Y-139065200D01*
X190242519Y-139065200D01*
X190470302Y-139029122D01*
X190689646Y-138957852D01*
X190895124Y-138853155D01*
X190895130Y-138853151D01*
X190971391Y-138797744D01*
X190971392Y-138797744D01*
X190211294Y-138037647D01*
X190298771Y-138014208D01*
X190400130Y-137955689D01*
X190482889Y-137872930D01*
X190541408Y-137771571D01*
X190564847Y-137684095D01*
X191365366Y-138484614D01*
X191365252Y-138484727D01*
X191381741Y-138499115D01*
X191419855Y-138551575D01*
X191422227Y-138554839D01*
X191585361Y-138717973D01*
X191772006Y-138853579D01*
X191977567Y-138958317D01*
X192141103Y-139011453D01*
X192196980Y-139029609D01*
X192310914Y-139047654D01*
X192424847Y-139065700D01*
X192424848Y-139065700D01*
X192655552Y-139065700D01*
X192655553Y-139065700D01*
X192883419Y-139029609D01*
X193102833Y-138958317D01*
X193308394Y-138853579D01*
X193495039Y-138717973D01*
X193658173Y-138554839D01*
X193793779Y-138368194D01*
X193898517Y-138162633D01*
X193969809Y-137943219D01*
X194005900Y-137715353D01*
X194005900Y-137484647D01*
X193996996Y-137428429D01*
X193969809Y-137256780D01*
X193946743Y-137185792D01*
X193898517Y-137037367D01*
X193793779Y-136831806D01*
X193658173Y-136645161D01*
X193495039Y-136482027D01*
X193308394Y-136346421D01*
X193160587Y-136271110D01*
X193102837Y-136241685D01*
X193102836Y-136241684D01*
X193102833Y-136241683D01*
X192985823Y-136203664D01*
X192883419Y-136170390D01*
X192686708Y-136139234D01*
X192655553Y-136134300D01*
X192424847Y-136134300D01*
X192397439Y-136138641D01*
X192196980Y-136170390D01*
X192026005Y-136225944D01*
X191977567Y-136241683D01*
X191977564Y-136241684D01*
X191977562Y-136241685D01*
X191772005Y-136346421D01*
X191665517Y-136423789D01*
X191585361Y-136482027D01*
X191585359Y-136482029D01*
X191585358Y-136482029D01*
X191422226Y-136645161D01*
X191381740Y-136700885D01*
X191364307Y-136714326D01*
X191365366Y-136715385D01*
X190564847Y-137515904D01*
X190541408Y-137428429D01*
X190482889Y-137327070D01*
X190400130Y-137244311D01*
X190298771Y-137185792D01*
X190211293Y-137162352D01*
X190971392Y-136402254D01*
X190971391Y-136402253D01*
X190895135Y-136346850D01*
X190689646Y-136242147D01*
X190470302Y-136170877D01*
X190242519Y-136134800D01*
X190011881Y-136134800D01*
X189784097Y-136170877D01*
X189564753Y-136242147D01*
X189359269Y-136346847D01*
X189283007Y-136402254D01*
X190043106Y-137162352D01*
X189955629Y-137185792D01*
X189854270Y-137244311D01*
X189771511Y-137327070D01*
X189712992Y-137428429D01*
X189689552Y-137515905D01*
X188929454Y-136755807D01*
X188874047Y-136832069D01*
X188769347Y-137037553D01*
X188698077Y-137256897D01*
X188662000Y-137484680D01*
X188278700Y-137484680D01*
X188278700Y-136996883D01*
X188278700Y-136996880D01*
X188266855Y-136952675D01*
X188253181Y-136901637D01*
X188253181Y-136901636D01*
X188237779Y-136844157D01*
X188237776Y-136844151D01*
X188202080Y-136782323D01*
X188202080Y-136782322D01*
X188158724Y-136707227D01*
X188158721Y-136707223D01*
X188158720Y-136707221D01*
X188046916Y-136595417D01*
X188046915Y-136595416D01*
X188042585Y-136591086D01*
X188042574Y-136591076D01*
X186958678Y-135507180D01*
X186925193Y-135445857D01*
X186930177Y-135376165D01*
X186972049Y-135320232D01*
X187037513Y-135295815D01*
X187046332Y-135295499D01*
X188547872Y-135295499D01*
X188607483Y-135289091D01*
X188742331Y-135238796D01*
X188857546Y-135152546D01*
X188943796Y-135037331D01*
X188994091Y-134902483D01*
X189000500Y-134842873D01*
X189000499Y-133697128D01*
X188994091Y-133637517D01*
X188943796Y-133502669D01*
X188942967Y-133501562D01*
X188942485Y-133500268D01*
X188939546Y-133494886D01*
X188940319Y-133494463D01*
X188918551Y-133436099D01*
X188927675Y-133379798D01*
X188961089Y-133299132D01*
X188961089Y-133299131D01*
X188961091Y-133299127D01*
X189000500Y-133101003D01*
X189000500Y-132898997D01*
X188961091Y-132700873D01*
X188883786Y-132514244D01*
X188829794Y-132433439D01*
X188808917Y-132366764D01*
X188827401Y-132299384D01*
X188829796Y-132295658D01*
X188883344Y-132215518D01*
X188883346Y-132215515D01*
X188960609Y-132028983D01*
X188960612Y-132028974D01*
X188970353Y-131980000D01*
X188115866Y-131980000D01*
X188091674Y-131977617D01*
X188076004Y-131974500D01*
X188076003Y-131974500D01*
X188035830Y-131974500D01*
X188050075Y-131960255D01*
X188099444Y-131874745D01*
X188125000Y-131779370D01*
X188125000Y-131680630D01*
X188099444Y-131585255D01*
X188050075Y-131499745D01*
X188030330Y-131480000D01*
X188970353Y-131480000D01*
X188960612Y-131431025D01*
X188960609Y-131431016D01*
X188883347Y-131244486D01*
X188883340Y-131244473D01*
X188771170Y-131076600D01*
X188771167Y-131076596D01*
X188628403Y-130933832D01*
X188628399Y-130933829D01*
X188460526Y-130821659D01*
X188460513Y-130821652D01*
X188273983Y-130744390D01*
X188273974Y-130744387D01*
X188075958Y-130705000D01*
X188000000Y-130705000D01*
X188000000Y-131449670D01*
X187980255Y-131429925D01*
X187894745Y-131380556D01*
X187799370Y-131355000D01*
X187700630Y-131355000D01*
X187605255Y-131380556D01*
X187519745Y-131429925D01*
X187500000Y-131449670D01*
X187500000Y-130705000D01*
X187424041Y-130705000D01*
X187226025Y-130744387D01*
X187226016Y-130744390D01*
X187039486Y-130821652D01*
X187039473Y-130821659D01*
X186871600Y-130933829D01*
X186871596Y-130933832D01*
X186728832Y-131076596D01*
X186728829Y-131076600D01*
X186616659Y-131244473D01*
X186616652Y-131244486D01*
X186539390Y-131431016D01*
X186539387Y-131431025D01*
X186529647Y-131480000D01*
X187469670Y-131480000D01*
X187449925Y-131499745D01*
X187400556Y-131585255D01*
X187375000Y-131680630D01*
X187375000Y-131779370D01*
X187400556Y-131874745D01*
X187449925Y-131960255D01*
X187464170Y-131974500D01*
X187423997Y-131974500D01*
X187423996Y-131974500D01*
X187408326Y-131977617D01*
X187384134Y-131980000D01*
X186529647Y-131980000D01*
X186539387Y-132028974D01*
X186539390Y-132028983D01*
X186616652Y-132215513D01*
X186616659Y-132215526D01*
X186670203Y-132295659D01*
X186691081Y-132362336D01*
X186672597Y-132429716D01*
X186670204Y-132433439D01*
X186616214Y-132514243D01*
X186538909Y-132700872D01*
X186538907Y-132700880D01*
X186499500Y-132898992D01*
X186499500Y-133101007D01*
X186538907Y-133299119D01*
X186538909Y-133299127D01*
X186572325Y-133379800D01*
X186579794Y-133449270D01*
X186560038Y-133494660D01*
X186560454Y-133494887D01*
X186557919Y-133499528D01*
X186557037Y-133501556D01*
X186556206Y-133502665D01*
X186556202Y-133502672D01*
X186524067Y-133588833D01*
X186482196Y-133644767D01*
X186416732Y-133669184D01*
X186407885Y-133669500D01*
X185820097Y-133669500D01*
X185753058Y-133649815D01*
X185732416Y-133633181D01*
X185444637Y-133345402D01*
X185411152Y-133284079D01*
X185408318Y-133257721D01*
X185408318Y-129113127D01*
X185408318Y-129113125D01*
X185367395Y-128960398D01*
X185356355Y-128941276D01*
X185288342Y-128823472D01*
X185288339Y-128823468D01*
X185288338Y-128823466D01*
X185176534Y-128711662D01*
X185176533Y-128711661D01*
X185172203Y-128707331D01*
X185172192Y-128707321D01*
X183603225Y-127138355D01*
X183603223Y-127138352D01*
X183484352Y-127019481D01*
X183484344Y-127019475D01*
X183347425Y-126940426D01*
X183347420Y-126940423D01*
X183296510Y-126926781D01*
X183194692Y-126899499D01*
X183036577Y-126899499D01*
X183028981Y-126899499D01*
X183028965Y-126899500D01*
X177499097Y-126899500D01*
X177432058Y-126879815D01*
X177386303Y-126827011D01*
X177376359Y-126757853D01*
X177405384Y-126694297D01*
X177411416Y-126687819D01*
X178422100Y-125677135D01*
X187249500Y-125677135D01*
X187249500Y-126822870D01*
X187249501Y-126822876D01*
X187255908Y-126882483D01*
X187306202Y-127017328D01*
X187306203Y-127017330D01*
X187306204Y-127017331D01*
X187307028Y-127018432D01*
X187307509Y-127019721D01*
X187310454Y-127025114D01*
X187309678Y-127025537D01*
X187331448Y-127083895D01*
X187322325Y-127140198D01*
X187288910Y-127220868D01*
X187288907Y-127220880D01*
X187249500Y-127418992D01*
X187249500Y-127621007D01*
X187288907Y-127819119D01*
X187288909Y-127819127D01*
X187366212Y-128005754D01*
X187420204Y-128086558D01*
X187441081Y-128153235D01*
X187422596Y-128220615D01*
X187420204Y-128224337D01*
X187366655Y-128304479D01*
X187366654Y-128304481D01*
X187289390Y-128491016D01*
X187289387Y-128491025D01*
X187279647Y-128540000D01*
X188134134Y-128540000D01*
X188158326Y-128542383D01*
X188161123Y-128542939D01*
X188173995Y-128545499D01*
X188173996Y-128545500D01*
X188173997Y-128545500D01*
X188214170Y-128545500D01*
X188199925Y-128559745D01*
X188150556Y-128645255D01*
X188125000Y-128740630D01*
X188125000Y-128839370D01*
X188150556Y-128934745D01*
X188199925Y-129020255D01*
X188219670Y-129040000D01*
X187279647Y-129040000D01*
X187289387Y-129088974D01*
X187289390Y-129088983D01*
X187366652Y-129275513D01*
X187366659Y-129275526D01*
X187478829Y-129443399D01*
X187478832Y-129443403D01*
X187621596Y-129586167D01*
X187621600Y-129586170D01*
X187789473Y-129698340D01*
X187789486Y-129698347D01*
X187976016Y-129775609D01*
X187976025Y-129775612D01*
X188174041Y-129814999D01*
X188174045Y-129815000D01*
X188250000Y-129815000D01*
X188250000Y-129070330D01*
X188269745Y-129090075D01*
X188355255Y-129139444D01*
X188450630Y-129165000D01*
X188549370Y-129165000D01*
X188644745Y-129139444D01*
X188730255Y-129090075D01*
X188750000Y-129070330D01*
X188750000Y-129815000D01*
X188825955Y-129815000D01*
X188825958Y-129814999D01*
X189023974Y-129775612D01*
X189023983Y-129775609D01*
X189210513Y-129698347D01*
X189210526Y-129698340D01*
X189378399Y-129586170D01*
X189378403Y-129586167D01*
X189521167Y-129443403D01*
X189521170Y-129443399D01*
X189633340Y-129275526D01*
X189633347Y-129275513D01*
X189710609Y-129088983D01*
X189710612Y-129088974D01*
X189720353Y-129040000D01*
X188780330Y-129040000D01*
X188800075Y-129020255D01*
X188849444Y-128934745D01*
X188875000Y-128839370D01*
X188875000Y-128740630D01*
X188849444Y-128645255D01*
X188800075Y-128559745D01*
X188785830Y-128545500D01*
X188826004Y-128545500D01*
X188826004Y-128545499D01*
X188839473Y-128542820D01*
X188841674Y-128542383D01*
X188865866Y-128540000D01*
X189720353Y-128540000D01*
X189710612Y-128491025D01*
X189710609Y-128491016D01*
X189633347Y-128304486D01*
X189633343Y-128304479D01*
X189579795Y-128224340D01*
X189558917Y-128157662D01*
X189577401Y-128090282D01*
X189579733Y-128086652D01*
X189633786Y-128005756D01*
X189711091Y-127819127D01*
X189750500Y-127621003D01*
X189750500Y-127418997D01*
X189711091Y-127220873D01*
X189677673Y-127140198D01*
X189670205Y-127070730D01*
X189689964Y-127025340D01*
X189689547Y-127025112D01*
X189692095Y-127020444D01*
X189692972Y-127018431D01*
X189693796Y-127017331D01*
X189744091Y-126882483D01*
X189750500Y-126822873D01*
X189750499Y-125677128D01*
X189744091Y-125617517D01*
X189693796Y-125482669D01*
X189693795Y-125482668D01*
X189693793Y-125482664D01*
X189607547Y-125367455D01*
X189607544Y-125367452D01*
X189492335Y-125281206D01*
X189492328Y-125281202D01*
X189357482Y-125230908D01*
X189357483Y-125230908D01*
X189297883Y-125224501D01*
X189297881Y-125224500D01*
X189297873Y-125224500D01*
X189297864Y-125224500D01*
X187702129Y-125224500D01*
X187702123Y-125224501D01*
X187642516Y-125230908D01*
X187507671Y-125281202D01*
X187507664Y-125281206D01*
X187392455Y-125367452D01*
X187392452Y-125367455D01*
X187306206Y-125482664D01*
X187306202Y-125482671D01*
X187255908Y-125617517D01*
X187249501Y-125677116D01*
X187249501Y-125677123D01*
X187249500Y-125677135D01*
X178422100Y-125677135D01*
X178513110Y-125586125D01*
X178874735Y-125224500D01*
X180914555Y-123184680D01*
X182534800Y-123184680D01*
X182534800Y-123415319D01*
X182570877Y-123643102D01*
X182642147Y-123862446D01*
X182746850Y-124067935D01*
X182802253Y-124144191D01*
X182802254Y-124144192D01*
X183458657Y-123487789D01*
X183467447Y-123520591D01*
X183542687Y-123650909D01*
X183649091Y-123757313D01*
X183779409Y-123832553D01*
X183812210Y-123841342D01*
X183155806Y-124497744D01*
X183232067Y-124553151D01*
X183437553Y-124657852D01*
X183656897Y-124729122D01*
X183884681Y-124765200D01*
X184115319Y-124765200D01*
X184343102Y-124729122D01*
X184562446Y-124657852D01*
X184767924Y-124553155D01*
X184767930Y-124553151D01*
X184844191Y-124497744D01*
X184844192Y-124497744D01*
X184187789Y-123841342D01*
X184220591Y-123832553D01*
X184350909Y-123757313D01*
X184457313Y-123650909D01*
X184532553Y-123520591D01*
X184541342Y-123487790D01*
X185197820Y-124144268D01*
X185215177Y-124144268D01*
X185975352Y-123384093D01*
X185998792Y-123471571D01*
X186057311Y-123572930D01*
X186140070Y-123655689D01*
X186241429Y-123714208D01*
X186328905Y-123737647D01*
X185568806Y-124497744D01*
X185645067Y-124553151D01*
X185850553Y-124657852D01*
X186069897Y-124729122D01*
X186297681Y-124765200D01*
X186528319Y-124765200D01*
X186756102Y-124729122D01*
X186975446Y-124657852D01*
X187180924Y-124553155D01*
X187180930Y-124553151D01*
X187257191Y-124497744D01*
X187257192Y-124497744D01*
X186497094Y-123737647D01*
X186584571Y-123714208D01*
X186685930Y-123655689D01*
X186768689Y-123572930D01*
X186827208Y-123471571D01*
X186850647Y-123384095D01*
X187610744Y-124144192D01*
X187610744Y-124144191D01*
X187666151Y-124067930D01*
X187666155Y-124067924D01*
X187770852Y-123862446D01*
X187842122Y-123643102D01*
X187878200Y-123415319D01*
X187878200Y-123184680D01*
X188662000Y-123184680D01*
X188662000Y-123415319D01*
X188698077Y-123643102D01*
X188769347Y-123862446D01*
X188874050Y-124067935D01*
X188929453Y-124144191D01*
X188929454Y-124144192D01*
X189689552Y-123384094D01*
X189712992Y-123471571D01*
X189771511Y-123572930D01*
X189854270Y-123655689D01*
X189955629Y-123714208D01*
X190043105Y-123737647D01*
X189283006Y-124497744D01*
X189359267Y-124553151D01*
X189564753Y-124657852D01*
X189784097Y-124729122D01*
X190011881Y-124765200D01*
X190242519Y-124765200D01*
X190470302Y-124729122D01*
X190689646Y-124657852D01*
X190895124Y-124553155D01*
X190895130Y-124553151D01*
X190971391Y-124497744D01*
X190971392Y-124497744D01*
X190211294Y-123737647D01*
X190298771Y-123714208D01*
X190400130Y-123655689D01*
X190482889Y-123572930D01*
X190541408Y-123471571D01*
X190564847Y-123384095D01*
X191325020Y-124144268D01*
X191342377Y-124144268D01*
X191998857Y-123487788D01*
X192007647Y-123520591D01*
X192082887Y-123650909D01*
X192189291Y-123757313D01*
X192319609Y-123832553D01*
X192352410Y-123841342D01*
X191696006Y-124497744D01*
X191772267Y-124553151D01*
X191977753Y-124657852D01*
X192197097Y-124729122D01*
X192424881Y-124765200D01*
X192655519Y-124765200D01*
X192883302Y-124729122D01*
X193102646Y-124657852D01*
X193308124Y-124553155D01*
X193308130Y-124553151D01*
X193384391Y-124497744D01*
X193384392Y-124497744D01*
X192727989Y-123841342D01*
X192760791Y-123832553D01*
X192891109Y-123757313D01*
X192997513Y-123650909D01*
X193072753Y-123520591D01*
X193081542Y-123487790D01*
X193737944Y-124144192D01*
X193737944Y-124144191D01*
X193793351Y-124067930D01*
X193793355Y-124067924D01*
X193898052Y-123862446D01*
X193969322Y-123643102D01*
X194005400Y-123415319D01*
X194005400Y-123184680D01*
X193969322Y-122956897D01*
X193898052Y-122737553D01*
X193793351Y-122532067D01*
X193737944Y-122455807D01*
X193737944Y-122455806D01*
X193081541Y-123112209D01*
X193072753Y-123079409D01*
X192997513Y-122949091D01*
X192891109Y-122842687D01*
X192760791Y-122767447D01*
X192727988Y-122758657D01*
X193384392Y-122102254D01*
X193384391Y-122102253D01*
X193308135Y-122046850D01*
X193102646Y-121942147D01*
X192883302Y-121870877D01*
X192655519Y-121834800D01*
X192424881Y-121834800D01*
X192197097Y-121870877D01*
X191977753Y-121942147D01*
X191772269Y-122046847D01*
X191696007Y-122102254D01*
X192352411Y-122758657D01*
X192319609Y-122767447D01*
X192189291Y-122842687D01*
X192082887Y-122949091D01*
X192007647Y-123079409D01*
X191998857Y-123112210D01*
X191342377Y-122455730D01*
X191325021Y-122455730D01*
X190564847Y-123215904D01*
X190541408Y-123128429D01*
X190482889Y-123027070D01*
X190400130Y-122944311D01*
X190298771Y-122885792D01*
X190211293Y-122862352D01*
X190971392Y-122102254D01*
X190971391Y-122102253D01*
X190895135Y-122046850D01*
X190689646Y-121942147D01*
X190470302Y-121870877D01*
X190242519Y-121834800D01*
X190011881Y-121834800D01*
X189784097Y-121870877D01*
X189564753Y-121942147D01*
X189359269Y-122046847D01*
X189283007Y-122102254D01*
X190043106Y-122862352D01*
X189955629Y-122885792D01*
X189854270Y-122944311D01*
X189771511Y-123027070D01*
X189712992Y-123128429D01*
X189689552Y-123215905D01*
X188929454Y-122455807D01*
X188874047Y-122532069D01*
X188769347Y-122737553D01*
X188698077Y-122956897D01*
X188662000Y-123184680D01*
X187878200Y-123184680D01*
X187842122Y-122956897D01*
X187770852Y-122737553D01*
X187666151Y-122532067D01*
X187610744Y-122455807D01*
X187610744Y-122455806D01*
X186850647Y-123215904D01*
X186827208Y-123128429D01*
X186768689Y-123027070D01*
X186685930Y-122944311D01*
X186584571Y-122885792D01*
X186497093Y-122862352D01*
X187257192Y-122102254D01*
X187257191Y-122102253D01*
X187180935Y-122046850D01*
X186975446Y-121942147D01*
X186756102Y-121870877D01*
X186528319Y-121834800D01*
X186297681Y-121834800D01*
X186069897Y-121870877D01*
X185850553Y-121942147D01*
X185645069Y-122046847D01*
X185568807Y-122102254D01*
X186328906Y-122862352D01*
X186241429Y-122885792D01*
X186140070Y-122944311D01*
X186057311Y-123027070D01*
X185998792Y-123128429D01*
X185975352Y-123215905D01*
X185215177Y-122455730D01*
X185197821Y-122455730D01*
X184541341Y-123112209D01*
X184532553Y-123079409D01*
X184457313Y-122949091D01*
X184350909Y-122842687D01*
X184220591Y-122767447D01*
X184187788Y-122758657D01*
X184844192Y-122102254D01*
X184844191Y-122102253D01*
X184767935Y-122046850D01*
X184562446Y-121942147D01*
X184343102Y-121870877D01*
X184115319Y-121834800D01*
X183884681Y-121834800D01*
X183656897Y-121870877D01*
X183437553Y-121942147D01*
X183232069Y-122046847D01*
X183155807Y-122102254D01*
X183812211Y-122758657D01*
X183779409Y-122767447D01*
X183649091Y-122842687D01*
X183542687Y-122949091D01*
X183467447Y-123079409D01*
X183458657Y-123112210D01*
X182802254Y-122455807D01*
X182746847Y-122532069D01*
X182642147Y-122737553D01*
X182570877Y-122956897D01*
X182534800Y-123184680D01*
X180914555Y-123184680D01*
X185005521Y-119093713D01*
X186734500Y-119093713D01*
X186734500Y-119306287D01*
X186744534Y-119369644D01*
X186767753Y-119516239D01*
X186833444Y-119718414D01*
X186929951Y-119907820D01*
X187054890Y-120079786D01*
X187205213Y-120230109D01*
X187377179Y-120355048D01*
X187377181Y-120355049D01*
X187377184Y-120355051D01*
X187566588Y-120451557D01*
X187768757Y-120517246D01*
X187978713Y-120550500D01*
X187978714Y-120550500D01*
X188191286Y-120550500D01*
X188191287Y-120550500D01*
X188401243Y-120517246D01*
X188603412Y-120451557D01*
X188792816Y-120355051D01*
X188814789Y-120339086D01*
X188964786Y-120230109D01*
X188964788Y-120230106D01*
X188964792Y-120230104D01*
X189115104Y-120079792D01*
X189115106Y-120079788D01*
X189115109Y-120079786D01*
X189240048Y-119907820D01*
X189240047Y-119907820D01*
X189240051Y-119907816D01*
X189336557Y-119718412D01*
X189402246Y-119516243D01*
X189435500Y-119306287D01*
X189435500Y-119093713D01*
X189402246Y-118883757D01*
X189336557Y-118681588D01*
X189240051Y-118492184D01*
X189240049Y-118492181D01*
X189240048Y-118492179D01*
X189115109Y-118320213D01*
X188964786Y-118169890D01*
X188792820Y-118044951D01*
X188603414Y-117948444D01*
X188603413Y-117948443D01*
X188603412Y-117948443D01*
X188401243Y-117882754D01*
X188401241Y-117882753D01*
X188401240Y-117882753D01*
X188239957Y-117857208D01*
X188191287Y-117849500D01*
X187978713Y-117849500D01*
X187930042Y-117857208D01*
X187768760Y-117882753D01*
X187566585Y-117948444D01*
X187377179Y-118044951D01*
X187205213Y-118169890D01*
X187054890Y-118320213D01*
X186929951Y-118492179D01*
X186833444Y-118681585D01*
X186767753Y-118883760D01*
X186738173Y-119070520D01*
X186734500Y-119093713D01*
X185005521Y-119093713D01*
X185028713Y-119070521D01*
X185028716Y-119070520D01*
X185140520Y-118958716D01*
X185183796Y-118883760D01*
X185196193Y-118862288D01*
X185196194Y-118862286D01*
X185219574Y-118821790D01*
X185219573Y-118821790D01*
X185219577Y-118821785D01*
X185260500Y-118669058D01*
X185260500Y-118510943D01*
X185260500Y-114348633D01*
X185280185Y-114281594D01*
X185296814Y-114260957D01*
X189670453Y-109887317D01*
X189731771Y-109853836D01*
X189801463Y-109858820D01*
X189857396Y-109900692D01*
X189868614Y-109918707D01*
X189944650Y-110067935D01*
X190000053Y-110144191D01*
X190000054Y-110144192D01*
X190656457Y-109487788D01*
X190665247Y-109520591D01*
X190740487Y-109650909D01*
X190846891Y-109757313D01*
X190977209Y-109832553D01*
X191010010Y-109841342D01*
X190353606Y-110497744D01*
X190429867Y-110553151D01*
X190635353Y-110657852D01*
X190854697Y-110729122D01*
X191082481Y-110765200D01*
X191313119Y-110765200D01*
X191540902Y-110729122D01*
X191760246Y-110657852D01*
X191965724Y-110553155D01*
X191965730Y-110553151D01*
X192041991Y-110497744D01*
X192041992Y-110497744D01*
X191385589Y-109841342D01*
X191418391Y-109832553D01*
X191548709Y-109757313D01*
X191655113Y-109650909D01*
X191730353Y-109520591D01*
X191739142Y-109487789D01*
X192395620Y-110144268D01*
X192412977Y-110144268D01*
X193173152Y-109384093D01*
X193196592Y-109471571D01*
G37*
%TD.AperFunction*%
%TA.AperFunction,Conductor*%
G36*
X177845703Y-81869699D02*
G01*
X177852181Y-81875731D01*
X194175690Y-98199240D01*
X194209175Y-98260563D01*
X194204191Y-98330255D01*
X194162319Y-98386188D01*
X194096855Y-98410605D01*
X194055916Y-98406696D01*
X194029057Y-98399499D01*
X193870943Y-98399499D01*
X193863347Y-98399499D01*
X193863331Y-98399500D01*
X182336669Y-98399500D01*
X182336653Y-98399499D01*
X182329057Y-98399499D01*
X182170943Y-98399499D01*
X182063587Y-98428265D01*
X182018210Y-98440424D01*
X182018209Y-98440425D01*
X181968096Y-98469359D01*
X181968095Y-98469360D01*
X181924689Y-98494420D01*
X181881285Y-98519479D01*
X181881282Y-98519481D01*
X179735339Y-100665425D01*
X179674016Y-100698910D01*
X179671850Y-100699361D01*
X179516508Y-100730261D01*
X179516498Y-100730264D01*
X179370827Y-100790602D01*
X179370814Y-100790609D01*
X179239711Y-100878210D01*
X179239707Y-100878213D01*
X179128213Y-100989707D01*
X179128210Y-100989711D01*
X179040609Y-101120814D01*
X179040602Y-101120827D01*
X178980264Y-101266498D01*
X178980261Y-101266510D01*
X178949500Y-101421153D01*
X178949500Y-101578846D01*
X178980261Y-101733489D01*
X178980264Y-101733501D01*
X179040602Y-101879172D01*
X179040609Y-101879185D01*
X179128210Y-102010288D01*
X179128213Y-102010292D01*
X179239707Y-102121786D01*
X179239711Y-102121789D01*
X179370814Y-102209390D01*
X179370827Y-102209397D01*
X179508683Y-102266498D01*
X179516503Y-102269737D01*
X179621217Y-102290566D01*
X179671153Y-102300499D01*
X179671156Y-102300500D01*
X179671158Y-102300500D01*
X179828844Y-102300500D01*
X179828845Y-102300499D01*
X179983497Y-102269737D01*
X180129179Y-102209394D01*
X180260289Y-102121789D01*
X180371789Y-102010289D01*
X180459394Y-101879179D01*
X180460085Y-101877512D01*
X180483385Y-101821260D01*
X180519737Y-101733497D01*
X180546391Y-101599500D01*
X180550638Y-101578150D01*
X180583023Y-101516239D01*
X180584518Y-101514716D01*
X182462416Y-99636819D01*
X182523739Y-99603334D01*
X182550097Y-99600500D01*
X183983933Y-99600500D01*
X184050972Y-99620185D01*
X184096727Y-99672989D01*
X184106671Y-99742147D01*
X184100115Y-99767832D01*
X184090909Y-99792514D01*
X184090908Y-99792516D01*
X184084501Y-99852116D01*
X184084500Y-99852135D01*
X184084500Y-101849259D01*
X184064815Y-101916298D01*
X184012011Y-101962053D01*
X183942853Y-101971997D01*
X183936309Y-101970876D01*
X183828845Y-101949500D01*
X183828842Y-101949500D01*
X183671158Y-101949500D01*
X183671155Y-101949500D01*
X183516510Y-101980261D01*
X183516498Y-101980264D01*
X183370827Y-102040602D01*
X183370814Y-102040609D01*
X183239711Y-102128210D01*
X183239707Y-102128213D01*
X183128213Y-102239707D01*
X183128210Y-102239711D01*
X183040609Y-102370814D01*
X183040602Y-102370827D01*
X182980264Y-102516498D01*
X182980261Y-102516510D01*
X182949500Y-102671153D01*
X182949500Y-102828846D01*
X182980261Y-102983489D01*
X182980264Y-102983501D01*
X183040602Y-103129172D01*
X183040609Y-103129185D01*
X183128602Y-103260874D01*
X183149480Y-103327551D01*
X183149500Y-103329765D01*
X183149500Y-107754397D01*
X183129815Y-107821436D01*
X183077011Y-107867191D01*
X183007853Y-107877135D01*
X182987184Y-107872329D01*
X182981218Y-107870390D01*
X182789443Y-107840016D01*
X182753353Y-107834300D01*
X182522647Y-107834300D01*
X182495239Y-107838641D01*
X182294780Y-107870390D01*
X182133363Y-107922839D01*
X182075367Y-107941683D01*
X182075364Y-107941684D01*
X182075362Y-107941685D01*
X181869805Y-108046421D01*
X181763317Y-108123789D01*
X181683161Y-108182027D01*
X181683159Y-108182029D01*
X181683158Y-108182029D01*
X181520029Y-108345158D01*
X181520029Y-108345159D01*
X181520027Y-108345161D01*
X181483621Y-108395269D01*
X181384421Y-108531805D01*
X181279685Y-108737362D01*
X181279684Y-108737364D01*
X181279683Y-108737367D01*
X181266550Y-108777785D01*
X181208390Y-108956780D01*
X181172300Y-109184647D01*
X181172300Y-109415352D01*
X181208390Y-109643219D01*
X181241299Y-109744500D01*
X181279683Y-109862633D01*
X181384421Y-110068194D01*
X181520027Y-110254839D01*
X181683161Y-110417973D01*
X181869806Y-110553579D01*
X182075367Y-110658317D01*
X182252850Y-110715984D01*
X182294780Y-110729609D01*
X182408714Y-110747654D01*
X182522647Y-110765700D01*
X182522648Y-110765700D01*
X182753352Y-110765700D01*
X182753353Y-110765700D01*
X182981219Y-110729609D01*
X183200633Y-110658317D01*
X183406194Y-110553579D01*
X183592839Y-110417973D01*
X183755973Y-110254839D01*
X183891579Y-110068194D01*
X183996317Y-109862633D01*
X184067609Y-109643219D01*
X184103700Y-109415353D01*
X184103700Y-109184647D01*
X184067609Y-108956781D01*
X184032929Y-108850051D01*
X184030935Y-108780211D01*
X184063178Y-108724055D01*
X184108506Y-108678728D01*
X184108511Y-108678724D01*
X184118714Y-108668520D01*
X184118716Y-108668520D01*
X184230520Y-108556716D01*
X184309577Y-108419784D01*
X184350500Y-108267057D01*
X184350500Y-103329765D01*
X184370185Y-103262726D01*
X184371398Y-103260874D01*
X184459390Y-103129185D01*
X184459390Y-103129184D01*
X184459394Y-103129179D01*
X184519737Y-102983497D01*
X184550500Y-102828842D01*
X184550500Y-102671158D01*
X184550500Y-102671155D01*
X184550499Y-102671153D01*
X184526140Y-102548690D01*
X184532367Y-102479099D01*
X184575230Y-102423921D01*
X184641120Y-102400677D01*
X184647721Y-102400499D01*
X186632872Y-102400499D01*
X186692483Y-102394091D01*
X186827331Y-102343796D01*
X186942546Y-102257546D01*
X187028796Y-102142331D01*
X187028796Y-102142329D01*
X187030989Y-102139401D01*
X187086923Y-102097530D01*
X187156615Y-102092546D01*
X187203142Y-102113394D01*
X187298828Y-102182914D01*
X187509197Y-102290102D01*
X187733752Y-102363065D01*
X187733751Y-102363065D01*
X187966948Y-102400000D01*
X188203052Y-102400000D01*
X188436247Y-102363065D01*
X188660802Y-102290102D01*
X188871163Y-102182918D01*
X188871169Y-102182914D01*
X188954104Y-102122658D01*
X188954105Y-102122658D01*
X188214409Y-101382962D01*
X188277993Y-101365925D01*
X188392007Y-101300099D01*
X188485099Y-101207007D01*
X188550925Y-101092993D01*
X188567962Y-101029409D01*
X189314270Y-101775717D01*
X189357943Y-101784891D01*
X189399614Y-101821259D01*
X189440483Y-101877510D01*
X189607490Y-102044517D01*
X189798567Y-102183343D01*
X189849695Y-102209394D01*
X190009003Y-102290566D01*
X190009005Y-102290566D01*
X190009008Y-102290568D01*
X190129412Y-102329689D01*
X190233631Y-102363553D01*
X190466903Y-102400500D01*
X190466908Y-102400500D01*
X190703097Y-102400500D01*
X190936368Y-102363553D01*
X190937870Y-102363065D01*
X191160992Y-102290568D01*
X191371433Y-102183343D01*
X191562510Y-102044517D01*
X191729517Y-101877510D01*
X191868343Y-101686433D01*
X191975568Y-101475992D01*
X192048553Y-101251368D01*
X192055579Y-101207007D01*
X192085500Y-101018097D01*
X192085500Y-100781902D01*
X192048553Y-100548631D01*
X191975566Y-100324003D01*
X191872532Y-100121789D01*
X191868343Y-100113567D01*
X191729517Y-99922490D01*
X191619208Y-99812181D01*
X191585723Y-99750858D01*
X191590707Y-99681166D01*
X191632579Y-99625233D01*
X191698043Y-99600816D01*
X191706889Y-99600500D01*
X193552044Y-99600500D01*
X193619083Y-99620185D01*
X193664838Y-99672989D01*
X193673661Y-99700309D01*
X193680261Y-99733489D01*
X193680264Y-99733501D01*
X193740602Y-99879172D01*
X193740609Y-99879185D01*
X193828210Y-100010288D01*
X193828213Y-100010292D01*
X193939707Y-100121786D01*
X193939711Y-100121789D01*
X194070814Y-100209390D01*
X194070827Y-100209397D01*
X194216498Y-100269735D01*
X194216503Y-100269737D01*
X194326987Y-100291713D01*
X194349691Y-100296230D01*
X194411602Y-100328615D01*
X194446176Y-100389330D01*
X194449500Y-100417847D01*
X194449500Y-103825500D01*
X194429815Y-103892539D01*
X194377011Y-103938294D01*
X194325500Y-103949500D01*
X194171155Y-103949500D01*
X194016510Y-103980261D01*
X194016498Y-103980264D01*
X193870827Y-104040602D01*
X193870814Y-104040609D01*
X193739711Y-104128210D01*
X193739707Y-104128213D01*
X193623904Y-104244017D01*
X193623062Y-104243175D01*
X193596818Y-104265440D01*
X193589820Y-104269480D01*
X193533919Y-104325382D01*
X193478017Y-104381284D01*
X193478015Y-104381286D01*
X184292050Y-113567250D01*
X184230727Y-113600735D01*
X184161035Y-113595751D01*
X184148079Y-113590056D01*
X184108157Y-113569715D01*
X184059216Y-113544778D01*
X183864536Y-113481523D01*
X183729746Y-113460174D01*
X183662352Y-113449500D01*
X183457648Y-113449500D01*
X183433329Y-113453351D01*
X183255465Y-113481522D01*
X183060776Y-113544781D01*
X182878386Y-113637715D01*
X182712786Y-113758028D01*
X182568028Y-113902786D01*
X182447715Y-114068386D01*
X182354781Y-114250776D01*
X182291522Y-114445465D01*
X182259500Y-114647648D01*
X182259500Y-114852351D01*
X182291522Y-115054534D01*
X182354781Y-115249223D01*
X182447715Y-115431613D01*
X182568028Y-115597213D01*
X182712786Y-115741971D01*
X182867749Y-115854556D01*
X182878390Y-115862287D01*
X182994607Y-115921503D01*
X183060776Y-115955218D01*
X183060778Y-115955218D01*
X183060781Y-115955220D01*
X183165137Y-115989127D01*
X183255465Y-116018477D01*
X183356557Y-116034488D01*
X183457648Y-116050500D01*
X183457649Y-116050500D01*
X183662351Y-116050500D01*
X183662352Y-116050500D01*
X183864534Y-116018477D01*
X183864539Y-116018475D01*
X183864541Y-116018475D01*
X183897180Y-116007870D01*
X183967021Y-116005873D01*
X184026855Y-116041953D01*
X184057684Y-116104653D01*
X184059500Y-116125800D01*
X184059500Y-116374199D01*
X184039815Y-116441238D01*
X183987011Y-116486993D01*
X183917853Y-116496937D01*
X183897183Y-116492130D01*
X183864542Y-116481524D01*
X183864535Y-116481523D01*
X183763443Y-116465511D01*
X183662352Y-116449500D01*
X183457648Y-116449500D01*
X183433329Y-116453351D01*
X183255465Y-116481522D01*
X183060776Y-116544781D01*
X182878386Y-116637715D01*
X182712786Y-116758028D01*
X182568028Y-116902786D01*
X182447715Y-117068386D01*
X182354781Y-117250776D01*
X182291522Y-117445465D01*
X182259500Y-117647648D01*
X182259500Y-117852351D01*
X182291522Y-118054534D01*
X182354781Y-118249223D01*
X182447715Y-118431613D01*
X182568028Y-118597213D01*
X182712786Y-118741971D01*
X182822643Y-118821785D01*
X182878390Y-118862287D01*
X183060781Y-118955220D01*
X183158742Y-118987049D01*
X183216415Y-119026485D01*
X183243614Y-119090844D01*
X183231700Y-119159690D01*
X183208103Y-119192660D01*
X175571286Y-126829478D01*
X175459481Y-126941282D01*
X175459479Y-126941284D01*
X175439827Y-126975323D01*
X175431521Y-126989711D01*
X175411082Y-127025112D01*
X175382301Y-127074963D01*
X175380423Y-127078215D01*
X175339499Y-127230943D01*
X175339499Y-127230945D01*
X175339499Y-127399046D01*
X175339500Y-127399059D01*
X175339500Y-128270397D01*
X175319815Y-128337436D01*
X175271800Y-128380879D01*
X175258389Y-128387712D01*
X175092786Y-128508028D01*
X174948028Y-128652786D01*
X174827715Y-128818386D01*
X174734781Y-129000776D01*
X174671522Y-129195465D01*
X174639500Y-129397648D01*
X174639500Y-129602351D01*
X174671522Y-129804534D01*
X174734781Y-129999223D01*
X174793844Y-130115139D01*
X174820274Y-130167011D01*
X174827715Y-130181613D01*
X174948028Y-130347213D01*
X175092786Y-130491971D01*
X175247749Y-130604556D01*
X175258390Y-130612287D01*
X175374607Y-130671503D01*
X175440776Y-130705218D01*
X175440778Y-130705218D01*
X175440781Y-130705220D01*
X175509786Y-130727641D01*
X175635465Y-130768477D01*
X175736557Y-130784488D01*
X175837648Y-130800500D01*
X175837649Y-130800500D01*
X176042351Y-130800500D01*
X176042352Y-130800500D01*
X176244534Y-130768477D01*
X176258842Y-130763827D01*
X176328682Y-130761831D01*
X176384842Y-130794077D01*
X176403181Y-130812416D01*
X176436666Y-130873739D01*
X176439500Y-130900097D01*
X176439500Y-136270965D01*
X176419815Y-136338004D01*
X176367011Y-136383759D01*
X176297853Y-136393703D01*
X176242615Y-136371284D01*
X176208393Y-136346420D01*
X176002837Y-136241685D01*
X176002836Y-136241684D01*
X176002833Y-136241683D01*
X175885823Y-136203664D01*
X175783419Y-136170390D01*
X175586708Y-136139234D01*
X175555553Y-136134300D01*
X175324847Y-136134300D01*
X175297439Y-136138641D01*
X175096980Y-136170390D01*
X174926005Y-136225944D01*
X174877567Y-136241683D01*
X174877564Y-136241684D01*
X174877562Y-136241685D01*
X174672005Y-136346421D01*
X174565517Y-136423789D01*
X174485361Y-136482027D01*
X174485359Y-136482029D01*
X174485358Y-136482029D01*
X174322229Y-136645158D01*
X174319063Y-136648866D01*
X174317338Y-136647393D01*
X174269378Y-136684303D01*
X174199759Y-136690216D01*
X174137995Y-136657551D01*
X174103696Y-136596679D01*
X174100500Y-136568709D01*
X174100500Y-124331290D01*
X174120185Y-124264251D01*
X174172989Y-124218496D01*
X174242147Y-124208552D01*
X174305703Y-124237577D01*
X174318546Y-124251575D01*
X174319063Y-124251134D01*
X174322225Y-124254836D01*
X174322227Y-124254839D01*
X174485361Y-124417973D01*
X174672006Y-124553579D01*
X174877567Y-124658317D01*
X175055050Y-124715984D01*
X175096980Y-124729609D01*
X175210914Y-124747654D01*
X175324847Y-124765700D01*
X175324848Y-124765700D01*
X175555552Y-124765700D01*
X175555553Y-124765700D01*
X175783419Y-124729609D01*
X176002833Y-124658317D01*
X176208394Y-124553579D01*
X176395039Y-124417973D01*
X176558173Y-124254839D01*
X176693779Y-124068194D01*
X176798517Y-123862633D01*
X176869809Y-123643219D01*
X176905900Y-123415353D01*
X176905900Y-123184647D01*
X176869809Y-122956781D01*
X176835129Y-122850051D01*
X176833135Y-122780211D01*
X176865378Y-122724055D01*
X177408713Y-122180721D01*
X177408716Y-122180720D01*
X177520520Y-122068916D01*
X177570639Y-121982104D01*
X177599577Y-121931985D01*
X177640501Y-121779257D01*
X177640501Y-121621143D01*
X177640501Y-121613548D01*
X177640500Y-121613530D01*
X177640500Y-91752155D01*
X180985000Y-91752155D01*
X180985000Y-93150000D01*
X181735000Y-93150000D01*
X181735000Y-93650000D01*
X180985000Y-93650000D01*
X180985000Y-95047844D01*
X180991401Y-95107372D01*
X180991403Y-95107379D01*
X181041645Y-95242086D01*
X181041649Y-95242093D01*
X181127809Y-95357187D01*
X181127812Y-95357190D01*
X181242906Y-95443350D01*
X181242913Y-95443354D01*
X181377620Y-95493596D01*
X181377627Y-95493598D01*
X181437155Y-95499999D01*
X181437172Y-95500000D01*
X182235000Y-95500000D01*
X182235000Y-94758240D01*
X182266233Y-94771178D01*
X182411131Y-94800000D01*
X182558869Y-94800000D01*
X182703767Y-94771178D01*
X182735000Y-94758240D01*
X182735000Y-95500000D01*
X183532828Y-95500000D01*
X183532844Y-95499999D01*
X183592372Y-95493598D01*
X183592379Y-95493596D01*
X183727086Y-95443354D01*
X183727093Y-95443350D01*
X183842187Y-95357190D01*
X183842190Y-95357187D01*
X183928350Y-95242093D01*
X183928354Y-95242086D01*
X183978596Y-95107379D01*
X183978598Y-95107372D01*
X183984999Y-95047844D01*
X183985000Y-95047827D01*
X183985000Y-93650000D01*
X183235000Y-93650000D01*
X183235000Y-93150000D01*
X183985000Y-93150000D01*
X183985000Y-91752172D01*
X183984999Y-91752155D01*
X183978598Y-91692627D01*
X183978596Y-91692620D01*
X183928354Y-91557913D01*
X183928350Y-91557906D01*
X183842190Y-91442812D01*
X183842187Y-91442809D01*
X183727093Y-91356649D01*
X183727086Y-91356645D01*
X183592379Y-91306403D01*
X183592372Y-91306401D01*
X183532844Y-91300000D01*
X182735000Y-91300000D01*
X182735000Y-92041759D01*
X182703767Y-92028822D01*
X182558869Y-92000000D01*
X182411131Y-92000000D01*
X182266233Y-92028822D01*
X182235000Y-92041759D01*
X182235000Y-91300000D01*
X181437155Y-91300000D01*
X181377627Y-91306401D01*
X181377620Y-91306403D01*
X181242913Y-91356645D01*
X181242906Y-91356649D01*
X181127812Y-91442809D01*
X181127809Y-91442812D01*
X181041649Y-91557906D01*
X181041645Y-91557913D01*
X180991403Y-91692620D01*
X180991401Y-91692627D01*
X180985000Y-91752155D01*
X177640500Y-91752155D01*
X177640500Y-81963412D01*
X177660185Y-81896373D01*
X177712989Y-81850618D01*
X177782147Y-81840674D01*
X177845703Y-81869699D01*
G37*
%TD.AperFunction*%
%TA.AperFunction,Conductor*%
G36*
X176358834Y-82333576D02*
G01*
X176414767Y-82375448D01*
X176439184Y-82440912D01*
X176439500Y-82449758D01*
X176439500Y-113374199D01*
X176419815Y-113441238D01*
X176367011Y-113486993D01*
X176297853Y-113496937D01*
X176277183Y-113492130D01*
X176244542Y-113481524D01*
X176244535Y-113481523D01*
X176143443Y-113465511D01*
X176042352Y-113449500D01*
X175837648Y-113449500D01*
X175813329Y-113453351D01*
X175635465Y-113481522D01*
X175440776Y-113544781D01*
X175258386Y-113637715D01*
X175092786Y-113758028D01*
X174948028Y-113902786D01*
X174827715Y-114068386D01*
X174734781Y-114250776D01*
X174671522Y-114445465D01*
X174639500Y-114647648D01*
X174639500Y-114852351D01*
X174671522Y-115054534D01*
X174734781Y-115249223D01*
X174827715Y-115431613D01*
X174948028Y-115597213D01*
X175092786Y-115741971D01*
X175247749Y-115854556D01*
X175258390Y-115862287D01*
X175374607Y-115921503D01*
X175440776Y-115955218D01*
X175440778Y-115955218D01*
X175440781Y-115955220D01*
X175545137Y-115989127D01*
X175635465Y-116018477D01*
X175736557Y-116034488D01*
X175837648Y-116050500D01*
X175837649Y-116050500D01*
X176042351Y-116050500D01*
X176042352Y-116050500D01*
X176244534Y-116018477D01*
X176244539Y-116018475D01*
X176244541Y-116018475D01*
X176277180Y-116007870D01*
X176347021Y-116005873D01*
X176406855Y-116041953D01*
X176437684Y-116104653D01*
X176439500Y-116125800D01*
X176439500Y-116374199D01*
X176419815Y-116441238D01*
X176367011Y-116486993D01*
X176297853Y-116496937D01*
X176277183Y-116492130D01*
X176244542Y-116481524D01*
X176244535Y-116481523D01*
X176143443Y-116465511D01*
X176042352Y-116449500D01*
X175837648Y-116449500D01*
X175813329Y-116453351D01*
X175635465Y-116481522D01*
X175440776Y-116544781D01*
X175258386Y-116637715D01*
X175092786Y-116758028D01*
X174948028Y-116902786D01*
X174827715Y-117068386D01*
X174734781Y-117250776D01*
X174671522Y-117445465D01*
X174639500Y-117647648D01*
X174639500Y-117852351D01*
X174671522Y-118054534D01*
X174734781Y-118249223D01*
X174827715Y-118431613D01*
X174948028Y-118597213D01*
X175092786Y-118741971D01*
X175202643Y-118821785D01*
X175258390Y-118862287D01*
X175374607Y-118921503D01*
X175440776Y-118955218D01*
X175440778Y-118955218D01*
X175440781Y-118955220D01*
X175545137Y-118989127D01*
X175635465Y-119018477D01*
X175736557Y-119034488D01*
X175837648Y-119050500D01*
X175837649Y-119050500D01*
X176042351Y-119050500D01*
X176042352Y-119050500D01*
X176244534Y-119018477D01*
X176244539Y-119018475D01*
X176244541Y-119018475D01*
X176277180Y-119007870D01*
X176347021Y-119005873D01*
X176406855Y-119041953D01*
X176437684Y-119104653D01*
X176439500Y-119125800D01*
X176439500Y-121400102D01*
X176419815Y-121467141D01*
X176403181Y-121487783D01*
X176016145Y-121874818D01*
X175954822Y-121908303D01*
X175890146Y-121905068D01*
X175783421Y-121870391D01*
X175631508Y-121846330D01*
X175555553Y-121834300D01*
X175324847Y-121834300D01*
X175297439Y-121838641D01*
X175096980Y-121870390D01*
X174926005Y-121925944D01*
X174877567Y-121941683D01*
X174877564Y-121941684D01*
X174877562Y-121941685D01*
X174672005Y-122046421D01*
X174565517Y-122123789D01*
X174485361Y-122182027D01*
X174485359Y-122182029D01*
X174485358Y-122182029D01*
X174322229Y-122345158D01*
X174319063Y-122348866D01*
X174317338Y-122347393D01*
X174269378Y-122384303D01*
X174199759Y-122390216D01*
X174137995Y-122357551D01*
X174103696Y-122296679D01*
X174100500Y-122268709D01*
X174100500Y-82589758D01*
X174120185Y-82522719D01*
X174172989Y-82476964D01*
X174242147Y-82467020D01*
X174305703Y-82496045D01*
X174312181Y-82502077D01*
X174320213Y-82510109D01*
X174492179Y-82635048D01*
X174492181Y-82635049D01*
X174492184Y-82635051D01*
X174681588Y-82731557D01*
X174883757Y-82797246D01*
X175093713Y-82830500D01*
X175093714Y-82830500D01*
X175306286Y-82830500D01*
X175306287Y-82830500D01*
X175516243Y-82797246D01*
X175718412Y-82731557D01*
X175907816Y-82635051D01*
X175970157Y-82589758D01*
X176079786Y-82510109D01*
X176079788Y-82510106D01*
X176079792Y-82510104D01*
X176227819Y-82362077D01*
X176289142Y-82328592D01*
X176358834Y-82333576D01*
G37*
%TD.AperFunction*%
%TA.AperFunction,Conductor*%
G36*
X202042539Y-57720185D02*
G01*
X202088294Y-57772989D01*
X202099500Y-57824500D01*
X202099500Y-88067581D01*
X202079815Y-88134620D01*
X202027011Y-88180375D01*
X201957853Y-88190319D01*
X201932168Y-88183763D01*
X201857485Y-88155909D01*
X201857483Y-88155908D01*
X201797883Y-88149501D01*
X201797881Y-88149500D01*
X201797873Y-88149500D01*
X201797865Y-88149500D01*
X200450097Y-88149500D01*
X200383058Y-88129815D01*
X200362416Y-88113181D01*
X198287590Y-86038355D01*
X198287588Y-86038352D01*
X198168717Y-85919481D01*
X198168716Y-85919480D01*
X198081904Y-85869360D01*
X198081904Y-85869359D01*
X198081900Y-85869358D01*
X198031785Y-85840423D01*
X197879057Y-85799499D01*
X197720943Y-85799499D01*
X197713347Y-85799499D01*
X197713331Y-85799500D01*
X192039068Y-85799500D01*
X191972029Y-85779815D01*
X191928583Y-85731795D01*
X191868477Y-85613830D01*
X191868343Y-85613567D01*
X191729517Y-85422490D01*
X191562510Y-85255483D01*
X191371433Y-85116657D01*
X191160996Y-85009433D01*
X190936368Y-84936446D01*
X190703097Y-84899500D01*
X190703092Y-84899500D01*
X190466908Y-84899500D01*
X190466903Y-84899500D01*
X190233631Y-84936446D01*
X190009003Y-85009433D01*
X189798566Y-85116657D01*
X189715047Y-85177338D01*
X189607490Y-85255483D01*
X189607488Y-85255485D01*
X189607487Y-85255485D01*
X189440485Y-85422487D01*
X189440485Y-85422488D01*
X189440483Y-85422490D01*
X189380862Y-85504550D01*
X189301657Y-85613566D01*
X189194433Y-85824003D01*
X189121446Y-86048631D01*
X189084500Y-86281902D01*
X189084500Y-86518097D01*
X189121446Y-86751368D01*
X189194433Y-86975996D01*
X189301519Y-87186163D01*
X189301657Y-87186433D01*
X189440483Y-87377510D01*
X189607490Y-87544517D01*
X189798567Y-87683343D01*
X189897991Y-87734002D01*
X190009003Y-87790566D01*
X190009005Y-87790566D01*
X190009008Y-87790568D01*
X190077502Y-87812823D01*
X190233631Y-87863553D01*
X190466903Y-87900500D01*
X190466908Y-87900500D01*
X190703097Y-87900500D01*
X190936368Y-87863553D01*
X191160992Y-87790568D01*
X191371433Y-87683343D01*
X191562510Y-87544517D01*
X191729517Y-87377510D01*
X191868343Y-87186433D01*
X191928583Y-87068204D01*
X191976558Y-87017409D01*
X192039068Y-87000500D01*
X197499903Y-87000500D01*
X197566942Y-87020185D01*
X197587584Y-87036819D01*
X199513181Y-88962416D01*
X199546666Y-89023739D01*
X199549500Y-89050097D01*
X199549500Y-90397870D01*
X199549501Y-90397876D01*
X199555908Y-90457483D01*
X199606202Y-90592328D01*
X199606206Y-90592335D01*
X199692452Y-90707544D01*
X199692455Y-90707547D01*
X199807664Y-90793793D01*
X199807671Y-90793797D01*
X199939082Y-90842810D01*
X199995016Y-90884681D01*
X200019433Y-90950145D01*
X200004582Y-91018418D01*
X199983431Y-91046673D01*
X199869889Y-91160215D01*
X199744951Y-91332179D01*
X199648444Y-91521585D01*
X199582753Y-91723760D01*
X199549500Y-91933713D01*
X199549500Y-92146286D01*
X199582753Y-92356239D01*
X199648444Y-92558414D01*
X199744951Y-92747820D01*
X199869890Y-92919786D01*
X200020213Y-93070109D01*
X200192182Y-93195050D01*
X200200946Y-93199516D01*
X200251742Y-93247491D01*
X200268536Y-93315312D01*
X200245998Y-93381447D01*
X200200946Y-93420484D01*
X200192182Y-93424949D01*
X200020213Y-93549890D01*
X199869890Y-93700213D01*
X199744951Y-93872179D01*
X199648444Y-94061585D01*
X199582753Y-94263760D01*
X199549500Y-94473713D01*
X199549500Y-94686286D01*
X199562945Y-94771178D01*
X199582754Y-94896243D01*
X199632012Y-95047844D01*
X199648444Y-95098414D01*
X199744951Y-95287820D01*
X199869890Y-95459786D01*
X200020213Y-95610109D01*
X200192182Y-95735050D01*
X200200946Y-95739516D01*
X200251742Y-95787491D01*
X200268536Y-95855312D01*
X200245998Y-95921447D01*
X200200946Y-95960484D01*
X200192182Y-95964949D01*
X200020213Y-96089890D01*
X199869890Y-96240213D01*
X199744951Y-96412179D01*
X199648444Y-96601585D01*
X199582753Y-96803760D01*
X199549500Y-97013713D01*
X199549500Y-97226286D01*
X199582753Y-97436239D01*
X199648444Y-97638414D01*
X199744951Y-97827820D01*
X199869890Y-97999786D01*
X200020213Y-98150109D01*
X200192182Y-98275050D01*
X200200946Y-98279516D01*
X200251742Y-98327491D01*
X200268536Y-98395312D01*
X200245998Y-98461447D01*
X200200946Y-98500484D01*
X200192182Y-98504949D01*
X200020213Y-98629890D01*
X199869890Y-98780213D01*
X199744951Y-98952179D01*
X199648444Y-99141585D01*
X199582753Y-99343760D01*
X199549500Y-99553713D01*
X199549500Y-99766287D01*
X199582754Y-99976243D01*
X199627373Y-100113567D01*
X199648444Y-100178414D01*
X199744951Y-100367820D01*
X199869890Y-100539786D01*
X200020213Y-100690109D01*
X200192182Y-100815050D01*
X200200946Y-100819516D01*
X200251742Y-100867491D01*
X200268536Y-100935312D01*
X200245998Y-101001447D01*
X200200946Y-101040484D01*
X200192182Y-101044949D01*
X200020213Y-101169890D01*
X199869890Y-101320213D01*
X199744948Y-101492184D01*
X199744947Y-101492185D01*
X199724765Y-101531795D01*
X199676791Y-101582591D01*
X199614281Y-101599500D01*
X199470943Y-101599500D01*
X199318215Y-101640423D01*
X199318214Y-101640423D01*
X199318212Y-101640424D01*
X199318209Y-101640425D01*
X199268096Y-101669359D01*
X199268095Y-101669360D01*
X199221226Y-101696419D01*
X199221189Y-101696441D01*
X199153289Y-101712912D01*
X199134998Y-101710670D01*
X199078844Y-101699500D01*
X199078842Y-101699500D01*
X198921158Y-101699500D01*
X198921155Y-101699500D01*
X198766510Y-101730261D01*
X198766498Y-101730264D01*
X198620827Y-101790602D01*
X198620814Y-101790609D01*
X198489711Y-101878210D01*
X198489707Y-101878213D01*
X198378213Y-101989707D01*
X198378210Y-101989711D01*
X198290609Y-102120814D01*
X198290602Y-102120827D01*
X198230264Y-102266498D01*
X198230261Y-102266510D01*
X198199500Y-102421153D01*
X198199500Y-102578846D01*
X198230261Y-102733489D01*
X198230264Y-102733501D01*
X198290602Y-102879172D01*
X198290609Y-102879185D01*
X198378210Y-103010288D01*
X198378213Y-103010292D01*
X198489707Y-103121786D01*
X198489711Y-103121789D01*
X198620814Y-103209390D01*
X198620827Y-103209397D01*
X198749577Y-103262726D01*
X198766503Y-103269737D01*
X198921153Y-103300499D01*
X198921156Y-103300500D01*
X198921158Y-103300500D01*
X199078844Y-103300500D01*
X199078845Y-103300499D01*
X199233497Y-103269737D01*
X199379179Y-103209394D01*
X199510289Y-103121789D01*
X199621789Y-103010289D01*
X199621792Y-103010283D01*
X199624768Y-103006658D01*
X199682508Y-102967315D01*
X199752352Y-102965435D01*
X199812126Y-103001614D01*
X199820951Y-103012424D01*
X199869896Y-103079792D01*
X200020213Y-103230109D01*
X200192182Y-103355050D01*
X200200946Y-103359516D01*
X200251742Y-103407491D01*
X200268536Y-103475312D01*
X200245998Y-103541447D01*
X200200946Y-103580484D01*
X200192182Y-103584949D01*
X200020213Y-103709890D01*
X199869890Y-103860213D01*
X199744951Y-104032179D01*
X199648444Y-104221585D01*
X199582753Y-104423760D01*
X199549500Y-104633713D01*
X199549500Y-104846286D01*
X199582754Y-105056244D01*
X199582754Y-105056247D01*
X199596491Y-105098523D01*
X199598486Y-105168364D01*
X199566241Y-105224522D01*
X198148761Y-106642003D01*
X198036956Y-106753807D01*
X198036954Y-106753810D01*
X197986836Y-106840619D01*
X197986834Y-106840621D01*
X197957900Y-106890734D01*
X197957899Y-106890735D01*
X197957898Y-106890740D01*
X197916974Y-107043468D01*
X197916974Y-107043470D01*
X197916974Y-107211571D01*
X197916975Y-107211584D01*
X197916975Y-116570234D01*
X197897290Y-116637273D01*
X197896077Y-116639125D01*
X197808084Y-116770814D01*
X197808077Y-116770827D01*
X197747739Y-116916498D01*
X197747736Y-116916510D01*
X197716975Y-117071153D01*
X197716975Y-117228846D01*
X197747735Y-117383488D01*
X197747738Y-117383498D01*
X197766116Y-117427868D01*
X197773583Y-117497338D01*
X197742307Y-117559816D01*
X197739235Y-117562999D01*
X196162181Y-119140054D01*
X196100858Y-119173539D01*
X196031166Y-119168555D01*
X195975233Y-119126683D01*
X195950816Y-119061219D01*
X195950500Y-119052373D01*
X195950500Y-100544659D01*
X195959939Y-100497206D01*
X195971659Y-100468912D01*
X196000500Y-100323917D01*
X196000500Y-100176082D01*
X196000500Y-98138264D01*
X195989318Y-98082051D01*
X195971659Y-97993270D01*
X195917408Y-97862299D01*
X195915765Y-97857707D01*
X195915084Y-97856687D01*
X195882186Y-97807452D01*
X195882185Y-97807450D01*
X195832956Y-97733771D01*
X195832952Y-97733766D01*
X193810867Y-95711681D01*
X193777382Y-95650358D01*
X193782366Y-95580666D01*
X193824238Y-95524733D01*
X193889702Y-95500316D01*
X193898548Y-95500000D01*
X194732828Y-95500000D01*
X194732844Y-95499999D01*
X194792372Y-95493598D01*
X194792379Y-95493596D01*
X194927086Y-95443354D01*
X194927093Y-95443350D01*
X195042187Y-95357190D01*
X195042190Y-95357187D01*
X195128350Y-95242093D01*
X195128354Y-95242086D01*
X195178596Y-95107379D01*
X195178598Y-95107372D01*
X195184999Y-95047844D01*
X195185000Y-95047827D01*
X195185000Y-93650000D01*
X194435000Y-93650000D01*
X194435000Y-93150000D01*
X195185000Y-93150000D01*
X195185000Y-91752172D01*
X195184999Y-91752155D01*
X195178598Y-91692627D01*
X195178596Y-91692620D01*
X195128354Y-91557913D01*
X195128350Y-91557906D01*
X195042190Y-91442812D01*
X195042187Y-91442809D01*
X194927093Y-91356649D01*
X194927086Y-91356645D01*
X194792379Y-91306403D01*
X194792372Y-91306401D01*
X194732844Y-91300000D01*
X193935000Y-91300000D01*
X193935000Y-92041759D01*
X193903767Y-92028822D01*
X193758869Y-92000000D01*
X193611131Y-92000000D01*
X193466233Y-92028822D01*
X193435000Y-92041759D01*
X193435000Y-91300000D01*
X192637155Y-91300000D01*
X192577627Y-91306401D01*
X192577620Y-91306403D01*
X192442913Y-91356645D01*
X192442906Y-91356649D01*
X192327812Y-91442809D01*
X192327809Y-91442812D01*
X192241649Y-91557906D01*
X192241645Y-91557913D01*
X192191403Y-91692620D01*
X192191401Y-91692627D01*
X192185000Y-91752155D01*
X192185000Y-93150000D01*
X192935000Y-93150000D01*
X192935000Y-93650000D01*
X192185000Y-93650000D01*
X192185000Y-93786452D01*
X192165315Y-93853491D01*
X192112511Y-93899246D01*
X192043353Y-93909190D01*
X191979797Y-93880165D01*
X191973319Y-93874133D01*
X186098957Y-87999771D01*
X186065472Y-87938448D01*
X186070456Y-87868756D01*
X186112328Y-87812823D01*
X186148322Y-87794158D01*
X186160801Y-87790103D01*
X186371163Y-87682918D01*
X186371169Y-87682914D01*
X186454104Y-87622658D01*
X186454105Y-87622658D01*
X185714408Y-86882962D01*
X185777993Y-86865925D01*
X185892007Y-86800099D01*
X185985099Y-86707007D01*
X186050925Y-86592993D01*
X186067962Y-86529409D01*
X186807658Y-87269105D01*
X186807658Y-87269104D01*
X186867914Y-87186169D01*
X186867918Y-87186163D01*
X186975102Y-86975802D01*
X187048065Y-86751247D01*
X187085000Y-86518052D01*
X187085000Y-86281947D01*
X187048065Y-86048752D01*
X186975102Y-85824197D01*
X186867914Y-85613828D01*
X186807658Y-85530894D01*
X186807658Y-85530893D01*
X186067962Y-86270590D01*
X186050925Y-86207007D01*
X185985099Y-86092993D01*
X185892007Y-85999901D01*
X185777993Y-85934075D01*
X185714409Y-85917037D01*
X186454105Y-85177340D01*
X186454104Y-85177338D01*
X186371174Y-85117087D01*
X186160802Y-85009897D01*
X185936247Y-84936934D01*
X185936248Y-84936934D01*
X185703052Y-84900000D01*
X185466948Y-84900000D01*
X185233752Y-84936934D01*
X185009197Y-85009897D01*
X184798830Y-85117084D01*
X184715894Y-85177340D01*
X185455591Y-85917037D01*
X185392007Y-85934075D01*
X185277993Y-85999901D01*
X185184901Y-86092993D01*
X185119075Y-86207007D01*
X185102037Y-86270591D01*
X184362340Y-85530894D01*
X184302084Y-85613830D01*
X184194895Y-85824199D01*
X184190840Y-85836682D01*
X184151402Y-85894357D01*
X184087043Y-85921554D01*
X184018197Y-85909638D01*
X183985229Y-85886043D01*
X179292899Y-81193713D01*
X186734500Y-81193713D01*
X186734500Y-81406286D01*
X186767753Y-81616239D01*
X186833444Y-81818414D01*
X186929951Y-82007820D01*
X187054890Y-82179786D01*
X187205213Y-82330109D01*
X187377179Y-82455048D01*
X187377181Y-82455049D01*
X187377184Y-82455051D01*
X187566588Y-82551557D01*
X187768757Y-82617246D01*
X187978713Y-82650500D01*
X187978714Y-82650500D01*
X188191286Y-82650500D01*
X188191287Y-82650500D01*
X188401243Y-82617246D01*
X188603412Y-82551557D01*
X188792816Y-82455051D01*
X188923930Y-82359792D01*
X188964786Y-82330109D01*
X188964788Y-82330106D01*
X188964792Y-82330104D01*
X189115104Y-82179792D01*
X189115106Y-82179788D01*
X189115109Y-82179786D01*
X189240048Y-82007820D01*
X189240047Y-82007820D01*
X189240051Y-82007816D01*
X189336557Y-81818412D01*
X189402246Y-81616243D01*
X189435500Y-81406287D01*
X189435500Y-81193713D01*
X189402246Y-80983757D01*
X189336557Y-80781588D01*
X189240051Y-80592184D01*
X189240049Y-80592181D01*
X189240048Y-80592179D01*
X189115109Y-80420213D01*
X188964786Y-80269890D01*
X188792820Y-80144951D01*
X188603414Y-80048444D01*
X188603413Y-80048443D01*
X188603412Y-80048443D01*
X188401243Y-79982754D01*
X188401241Y-79982753D01*
X188401240Y-79982753D01*
X188232610Y-79956045D01*
X188191287Y-79949500D01*
X187978713Y-79949500D01*
X187937390Y-79956045D01*
X187768760Y-79982753D01*
X187566585Y-80048444D01*
X187377179Y-80144951D01*
X187205213Y-80269890D01*
X187054890Y-80420213D01*
X186929951Y-80592179D01*
X186833444Y-80781585D01*
X186767753Y-80983760D01*
X186734500Y-81193713D01*
X179292899Y-81193713D01*
X178286819Y-80187633D01*
X178253334Y-80126310D01*
X178250500Y-80099952D01*
X178250500Y-73546079D01*
X178221659Y-73401092D01*
X178221658Y-73401091D01*
X178221658Y-73401087D01*
X178221656Y-73401082D01*
X178165087Y-73264511D01*
X178165080Y-73264498D01*
X178082952Y-73141585D01*
X178082951Y-73141584D01*
X177978416Y-73037049D01*
X177277412Y-72336045D01*
X176570175Y-71628807D01*
X176536690Y-71567484D01*
X176535383Y-71521728D01*
X176550500Y-71426285D01*
X176550500Y-71213713D01*
X176517246Y-71003760D01*
X176517246Y-71003757D01*
X176451557Y-70801588D01*
X176355051Y-70612184D01*
X176355049Y-70612181D01*
X176355048Y-70612179D01*
X176230109Y-70440213D01*
X176079786Y-70289890D01*
X175907820Y-70164951D01*
X175907115Y-70164591D01*
X175899054Y-70160485D01*
X175848259Y-70112512D01*
X175831463Y-70044692D01*
X175853999Y-69978556D01*
X175899054Y-69939515D01*
X175907816Y-69935051D01*
X175970157Y-69889758D01*
X176079786Y-69810109D01*
X176079788Y-69810106D01*
X176079792Y-69810104D01*
X176230104Y-69659792D01*
X176230106Y-69659788D01*
X176230109Y-69659786D01*
X176355048Y-69487820D01*
X176355047Y-69487820D01*
X176355051Y-69487816D01*
X176451557Y-69298412D01*
X176517246Y-69096243D01*
X176550500Y-68886287D01*
X176550500Y-68673713D01*
X176517246Y-68463757D01*
X176451557Y-68261588D01*
X176355051Y-68072184D01*
X176279275Y-67967886D01*
X176255796Y-67902079D01*
X176271622Y-67834025D01*
X176291909Y-67807325D01*
X176980520Y-67118716D01*
X177059577Y-66981784D01*
X177100501Y-66829057D01*
X177100501Y-66670942D01*
X177100501Y-66663347D01*
X177100500Y-66663329D01*
X177100500Y-65805783D01*
X177120185Y-65738744D01*
X177136819Y-65718102D01*
X181268102Y-61586819D01*
X181329425Y-61553334D01*
X181355783Y-61550500D01*
X188488573Y-61550500D01*
X188555612Y-61570185D01*
X188591675Y-61605610D01*
X188628207Y-61660284D01*
X188628213Y-61660292D01*
X188739707Y-61771786D01*
X188739711Y-61771789D01*
X188870814Y-61859390D01*
X188870827Y-61859397D01*
X189016498Y-61919735D01*
X189016503Y-61919737D01*
X189171153Y-61950499D01*
X189171156Y-61950500D01*
X189171158Y-61950500D01*
X189328844Y-61950500D01*
X189328845Y-61950499D01*
X189483497Y-61919737D01*
X189629179Y-61859394D01*
X189760289Y-61771789D01*
X189871789Y-61660289D01*
X189959394Y-61529179D01*
X190019737Y-61383497D01*
X190024505Y-61359524D01*
X190046231Y-61250308D01*
X190078616Y-61188397D01*
X190139332Y-61153823D01*
X190167848Y-61150500D01*
X191082152Y-61150500D01*
X191149191Y-61170185D01*
X191194946Y-61222989D01*
X191203769Y-61250308D01*
X191230261Y-61383491D01*
X191230264Y-61383501D01*
X191290602Y-61529172D01*
X191290609Y-61529185D01*
X191378210Y-61660288D01*
X191378213Y-61660292D01*
X191489707Y-61771786D01*
X191489711Y-61771789D01*
X191620814Y-61859390D01*
X191620827Y-61859397D01*
X191766498Y-61919735D01*
X191766503Y-61919737D01*
X191921153Y-61950499D01*
X191921156Y-61950500D01*
X191921158Y-61950500D01*
X192078844Y-61950500D01*
X192078845Y-61950499D01*
X192233497Y-61919737D01*
X192379179Y-61859394D01*
X192510289Y-61771789D01*
X192621789Y-61660289D01*
X192709394Y-61529179D01*
X192769737Y-61383497D01*
X192800500Y-61228842D01*
X192800500Y-61071158D01*
X192800500Y-61071155D01*
X192800499Y-61071153D01*
X192769738Y-60916510D01*
X192769737Y-60916503D01*
X192769735Y-60916498D01*
X192709397Y-60770827D01*
X192709390Y-60770814D01*
X192621789Y-60639711D01*
X192621786Y-60639707D01*
X192510292Y-60528213D01*
X192510288Y-60528210D01*
X192379185Y-60440609D01*
X192379172Y-60440602D01*
X192233501Y-60380264D01*
X192233491Y-60380261D01*
X192078149Y-60349361D01*
X192016238Y-60316976D01*
X192014660Y-60315425D01*
X191887590Y-60188355D01*
X191887588Y-60188352D01*
X191768717Y-60069481D01*
X191768716Y-60069480D01*
X191748728Y-60057940D01*
X191691646Y-60024984D01*
X191691643Y-60024983D01*
X191681904Y-60019360D01*
X191631785Y-59990423D01*
X191479057Y-59949499D01*
X191320943Y-59949499D01*
X191313347Y-59949499D01*
X191313331Y-59949500D01*
X189728343Y-59949500D01*
X189661304Y-59929815D01*
X189615549Y-59877011D01*
X189605605Y-59807853D01*
X189634630Y-59744297D01*
X189690024Y-59707569D01*
X189862412Y-59651557D01*
X190051816Y-59555051D01*
X190138471Y-59492093D01*
X190223786Y-59430109D01*
X190223788Y-59430106D01*
X190223792Y-59430104D01*
X190374104Y-59279792D01*
X190374106Y-59279788D01*
X190374109Y-59279786D01*
X190499048Y-59107820D01*
X190499047Y-59107820D01*
X190499051Y-59107816D01*
X190503514Y-59099054D01*
X190551488Y-59048259D01*
X190619308Y-59031463D01*
X190685444Y-59053999D01*
X190724486Y-59099056D01*
X190728951Y-59107820D01*
X190853890Y-59279786D01*
X191004213Y-59430109D01*
X191176179Y-59555048D01*
X191176181Y-59555049D01*
X191176184Y-59555051D01*
X191365588Y-59651557D01*
X191558074Y-59714099D01*
X191559031Y-59714754D01*
X191561409Y-59715236D01*
X191566950Y-59717212D01*
X191567976Y-59717280D01*
X191777713Y-59750500D01*
X191777714Y-59750500D01*
X191990286Y-59750500D01*
X191990287Y-59750500D01*
X192200243Y-59717246D01*
X192402412Y-59651557D01*
X192591816Y-59555051D01*
X192678471Y-59492093D01*
X192763786Y-59430109D01*
X192763788Y-59430106D01*
X192763792Y-59430104D01*
X192914104Y-59279792D01*
X192914106Y-59279788D01*
X192914109Y-59279786D01*
X193039048Y-59107820D01*
X193039047Y-59107820D01*
X193039051Y-59107816D01*
X193135557Y-58918412D01*
X193201246Y-58716243D01*
X193234500Y-58506287D01*
X193234500Y-58293713D01*
X193201246Y-58083757D01*
X193135557Y-57881588D01*
X193135555Y-57881585D01*
X193135555Y-57881583D01*
X193135154Y-57880796D01*
X193135091Y-57880463D01*
X193133690Y-57877079D01*
X193134400Y-57876784D01*
X193122257Y-57812127D01*
X193148532Y-57747387D01*
X193205638Y-57707129D01*
X193245638Y-57700500D01*
X201975500Y-57700500D01*
X202042539Y-57720185D01*
G37*
%TD.AperFunction*%
%TA.AperFunction,Conductor*%
G36*
X199469334Y-107122414D02*
G01*
X199525267Y-107164286D01*
X199549684Y-107229750D01*
X199550000Y-107238596D01*
X199550000Y-107386246D01*
X199583242Y-107596127D01*
X199583242Y-107596130D01*
X199648904Y-107798217D01*
X199745375Y-107987550D01*
X199784728Y-108041716D01*
X200417037Y-107409408D01*
X200434075Y-107472993D01*
X200499901Y-107587007D01*
X200592993Y-107680099D01*
X200707007Y-107745925D01*
X200770590Y-107762962D01*
X200138282Y-108395269D01*
X200138282Y-108395270D01*
X200192449Y-108434624D01*
X200381782Y-108531095D01*
X200583870Y-108596757D01*
X200793754Y-108630000D01*
X201006246Y-108630000D01*
X201216127Y-108596757D01*
X201216130Y-108596757D01*
X201418217Y-108531095D01*
X201607554Y-108434622D01*
X201661716Y-108395270D01*
X201661717Y-108395270D01*
X201029408Y-107762962D01*
X201092993Y-107745925D01*
X201207007Y-107680099D01*
X201300099Y-107587007D01*
X201365925Y-107472993D01*
X201382962Y-107409408D01*
X202033361Y-108059808D01*
X202034140Y-108059972D01*
X202083900Y-108109019D01*
X202099500Y-108169230D01*
X202099500Y-114581068D01*
X202079815Y-114648107D01*
X202027011Y-114693862D01*
X201957853Y-114703806D01*
X201894297Y-114674781D01*
X201856523Y-114616003D01*
X201853027Y-114600466D01*
X201828477Y-114445465D01*
X201783053Y-114305665D01*
X201765220Y-114250781D01*
X201765218Y-114250778D01*
X201765218Y-114250776D01*
X201731503Y-114184607D01*
X201672287Y-114068390D01*
X201664556Y-114057749D01*
X201551971Y-113902786D01*
X201407213Y-113758028D01*
X201241613Y-113637715D01*
X201241612Y-113637714D01*
X201241610Y-113637713D01*
X201159255Y-113595751D01*
X201059223Y-113544781D01*
X200864534Y-113481522D01*
X200689995Y-113453878D01*
X200662352Y-113449500D01*
X200457648Y-113449500D01*
X200433329Y-113453351D01*
X200255465Y-113481522D01*
X200060776Y-113544781D01*
X199878386Y-113637715D01*
X199712786Y-113758028D01*
X199568028Y-113902786D01*
X199447715Y-114068386D01*
X199352568Y-114255122D01*
X199350501Y-114254068D01*
X199312593Y-114301014D01*
X199246277Y-114323012D01*
X199178595Y-114305665D01*
X199131036Y-114254481D01*
X199117975Y-114199087D01*
X199117975Y-107422621D01*
X199137660Y-107355582D01*
X199154289Y-107334945D01*
X199338320Y-107150913D01*
X199399642Y-107117430D01*
X199469334Y-107122414D01*
G37*
%TD.AperFunction*%
%TA.AperFunction,Conductor*%
G36*
X194158437Y-105547969D02*
G01*
X194171157Y-105550500D01*
X194325500Y-105550500D01*
X194392539Y-105570185D01*
X194438294Y-105622989D01*
X194449500Y-105674500D01*
X194449500Y-107880556D01*
X194429815Y-107947595D01*
X194377011Y-107993350D01*
X194307853Y-108003294D01*
X194269206Y-107991041D01*
X194173249Y-107942148D01*
X193953902Y-107870877D01*
X193726119Y-107834800D01*
X193495481Y-107834800D01*
X193267697Y-107870877D01*
X193048353Y-107942147D01*
X192842869Y-108046847D01*
X192766607Y-108102254D01*
X193526705Y-108862352D01*
X193439229Y-108885792D01*
X193337870Y-108944311D01*
X193255111Y-109027070D01*
X193196592Y-109128429D01*
X193173152Y-109215905D01*
X192412977Y-108455730D01*
X192395621Y-108455730D01*
X191739141Y-109112209D01*
X191730353Y-109079409D01*
X191655113Y-108949091D01*
X191548709Y-108842687D01*
X191418391Y-108767447D01*
X191385588Y-108758657D01*
X192041992Y-108102254D01*
X192041991Y-108102253D01*
X191965735Y-108046850D01*
X191816507Y-107970814D01*
X191765711Y-107922839D01*
X191748916Y-107855018D01*
X191771453Y-107788883D01*
X191785108Y-107772662D01*
X193987597Y-105570173D01*
X194048918Y-105536690D01*
X194099464Y-105536239D01*
X194158437Y-105547969D01*
G37*
%TD.AperFunction*%
%TA.AperFunction,Conductor*%
G36*
X202018834Y-105633576D02*
G01*
X202074767Y-105675448D01*
X202099184Y-105740912D01*
X202099500Y-105749758D01*
X202099500Y-106390768D01*
X202079815Y-106457807D01*
X202049326Y-106484225D01*
X201382962Y-107150590D01*
X201365925Y-107087007D01*
X201300099Y-106972993D01*
X201207007Y-106879901D01*
X201092993Y-106814075D01*
X201029408Y-106797037D01*
X201661716Y-106164728D01*
X201607547Y-106125373D01*
X201607547Y-106125372D01*
X201598500Y-106120763D01*
X201547706Y-106072788D01*
X201530912Y-106004966D01*
X201553451Y-105938832D01*
X201598508Y-105899793D01*
X201607816Y-105895051D01*
X201687007Y-105837515D01*
X201779786Y-105770109D01*
X201779788Y-105770106D01*
X201779792Y-105770104D01*
X201887819Y-105662077D01*
X201949142Y-105628592D01*
X202018834Y-105633576D01*
G37*
%TD.AperFunction*%
%TA.AperFunction,Conductor*%
G36*
X189530150Y-99620185D02*
G01*
X189575905Y-99672989D01*
X189585849Y-99742147D01*
X189556824Y-99805703D01*
X189550792Y-99812181D01*
X189440485Y-99922487D01*
X189440482Y-99922490D01*
X189399615Y-99978739D01*
X189344285Y-100021404D01*
X189312455Y-100026096D01*
X188567962Y-100770590D01*
X188550925Y-100707007D01*
X188485099Y-100592993D01*
X188392007Y-100499901D01*
X188277993Y-100434075D01*
X188214408Y-100417037D01*
X188994527Y-99636919D01*
X188998022Y-99640414D01*
X189021858Y-99616173D01*
X189082200Y-99600500D01*
X189463111Y-99600500D01*
X189530150Y-99620185D01*
G37*
%TD.AperFunction*%
%TA.AperFunction,Conductor*%
G36*
X182857039Y-57720185D02*
G01*
X182902794Y-57772989D01*
X182914000Y-57824500D01*
X182914000Y-58150000D01*
X183830988Y-58150000D01*
X183798075Y-58207007D01*
X183764000Y-58334174D01*
X183764000Y-58465826D01*
X183798075Y-58592993D01*
X183830988Y-58650000D01*
X182914000Y-58650000D01*
X182914000Y-59297844D01*
X182920401Y-59357372D01*
X182920403Y-59357379D01*
X182970645Y-59492086D01*
X182970649Y-59492093D01*
X183056809Y-59607187D01*
X183056812Y-59607190D01*
X183171906Y-59693350D01*
X183171913Y-59693354D01*
X183214714Y-59709318D01*
X183270648Y-59751189D01*
X183295065Y-59816654D01*
X183280213Y-59884927D01*
X183230808Y-59934332D01*
X183171381Y-59949500D01*
X180969057Y-59949500D01*
X180810943Y-59949500D01*
X180658215Y-59990423D01*
X180658214Y-59990423D01*
X180658212Y-59990424D01*
X180658209Y-59990425D01*
X180608096Y-60019359D01*
X180608095Y-60019360D01*
X180598354Y-60024984D01*
X180521285Y-60069479D01*
X180521282Y-60069481D01*
X176677083Y-63913681D01*
X176615760Y-63947166D01*
X176589402Y-63950000D01*
X175633012Y-63950000D01*
X175665925Y-63892993D01*
X175700000Y-63765826D01*
X175700000Y-63634174D01*
X175665925Y-63507007D01*
X175633012Y-63450000D01*
X176550000Y-63450000D01*
X176550000Y-62802172D01*
X176549999Y-62802155D01*
X176543598Y-62742627D01*
X176543596Y-62742620D01*
X176493354Y-62607913D01*
X176493350Y-62607906D01*
X176407190Y-62492812D01*
X176407187Y-62492809D01*
X176292093Y-62406649D01*
X176292086Y-62406645D01*
X176157379Y-62356403D01*
X176157372Y-62356401D01*
X176097844Y-62350000D01*
X175450000Y-62350000D01*
X175450000Y-63266988D01*
X175392993Y-63234075D01*
X175265826Y-63200000D01*
X175134174Y-63200000D01*
X175007007Y-63234075D01*
X174950000Y-63266988D01*
X174950000Y-62350000D01*
X174302155Y-62350000D01*
X174237756Y-62356925D01*
X174168996Y-62344520D01*
X174117859Y-62296910D01*
X174100500Y-62233636D01*
X174100500Y-57824500D01*
X174120185Y-57757461D01*
X174172989Y-57711706D01*
X174224500Y-57700500D01*
X182790000Y-57700500D01*
X182857039Y-57720185D01*
G37*
%TD.AperFunction*%
%TD*%
M02*
