%TF.GenerationSoftware,KiCad,Pcbnew,10.0.5*%
%TF.CreationDate,2026-09-11T17:02:31-03:00*%
%TF.ProjectId,ControlPCB_SMD_V3.1,436f6e74-726f-46c5-9043-425f534d445f,rev?*%
%TF.SameCoordinates,Original*%
%TF.FileFunction,Soldermask,Top*%
%TF.FilePolarity,Negative*%
%FSLAX46Y46*%
G04 Gerber Fmt 4.6, Leading zero omitted, Abs format (unit mm)*
G04 Created by KiCad (PCBNEW 10.0.5) date 2026-09-11 17:02:31*
%MOMM*%
%LPD*%
G01*
G04 APERTURE LIST*
%ADD10C,1.930400*%
%ADD11R,1.800000X1.800000*%
%ADD12C,1.800000*%
%ADD13R,1.700000X1.700000*%
%ADD14O,1.700000X1.700000*%
%ADD15R,2.000000X2.000000*%
%ADD16C,2.000000*%
%ADD17R,2.000000X3.200000*%
%ADD18C,1.700000*%
%ADD19C,1.600000*%
%ADD20R,1.600000X1.600000*%
%ADD21O,1.600000X1.600000*%
G04 APERTURE END LIST*
D10*
%TO.C,J6*%
X175440200Y-151800000D03*
X186413000Y-151800000D03*
X184000000Y-151800000D03*
%TD*%
%TO.C,J1*%
X182638000Y-109300000D03*
X193610800Y-109300000D03*
X191197800Y-109300000D03*
%TD*%
D11*
%TO.C,D3*%
X194380000Y-131640000D03*
D12*
X196920000Y-131640000D03*
%TD*%
D11*
%TO.C,D5*%
X194380000Y-145850000D03*
D12*
X196920000Y-145850000D03*
%TD*%
D11*
%TO.C,D2*%
X182154200Y-131640000D03*
D12*
X179614200Y-131640000D03*
%TD*%
D10*
%TO.C,J4*%
X175440200Y-137600000D03*
X186413000Y-137600000D03*
X184000000Y-137600000D03*
%TD*%
%TO.C,J7*%
X201100000Y-151800000D03*
X190127200Y-151800000D03*
X192540200Y-151800000D03*
%TD*%
D11*
%TO.C,D4*%
X182154200Y-145850000D03*
D12*
X179614200Y-145850000D03*
%TD*%
D10*
%TO.C,J3*%
X201100000Y-123300000D03*
X190127200Y-123300000D03*
X192540200Y-123300000D03*
%TD*%
%TO.C,J5*%
X201100000Y-137600000D03*
X190127200Y-137600000D03*
X192540200Y-137600000D03*
%TD*%
D13*
%TO.C,U1*%
X184264000Y-58400000D03*
D14*
X186804000Y-58400000D03*
X189344000Y-58400000D03*
X191884000Y-58400000D03*
%TD*%
D10*
%TO.C,J2*%
X175440200Y-123300000D03*
X186413000Y-123300000D03*
X184000000Y-123300000D03*
%TD*%
D15*
%TO.C,SW1*%
X185585000Y-100900000D03*
D16*
X190585000Y-100900000D03*
X188085000Y-100900000D03*
D17*
X182485000Y-93400000D03*
X193685000Y-93400000D03*
D16*
X190585000Y-86400000D03*
X185585000Y-86400000D03*
%TD*%
D13*
%TO.C,J9*%
X175200000Y-63700000D03*
D18*
X175200000Y-66240000D03*
X175200000Y-68780000D03*
X175200000Y-71320000D03*
X175200000Y-73860000D03*
X175200000Y-76400000D03*
X175200000Y-78940000D03*
X175200000Y-81480000D03*
%TD*%
D19*
%TO.C,C2*%
X189000000Y-63250000D03*
X194000000Y-63250000D03*
%TD*%
%TO.C,C1*%
X186514600Y-63250000D03*
X181434600Y-63250000D03*
%TD*%
%TO.C,R34*%
X179250000Y-96810000D03*
X179250000Y-89190000D03*
%TD*%
%TO.C,R30*%
X200250000Y-61940000D03*
X200250000Y-69560000D03*
%TD*%
%TO.C,R35*%
X179250000Y-106560000D03*
X179250000Y-98940000D03*
%TD*%
%TO.C,R26*%
X178500000Y-71690000D03*
X178500000Y-79310000D03*
%TD*%
D13*
%TO.C,J8*%
X200900000Y-89500000D03*
D18*
X200900000Y-92040000D03*
X200900000Y-94580000D03*
X200900000Y-97120000D03*
X200900000Y-99660000D03*
X200900000Y-102200000D03*
X200900000Y-104740000D03*
X200900000Y-107280000D03*
%TD*%
D19*
%TO.C,R29*%
X200250000Y-71690000D03*
X200250000Y-79310000D03*
%TD*%
D20*
%TO.C,U2*%
X181900000Y-66450000D03*
D21*
X184440000Y-66450000D03*
X186980000Y-66450000D03*
X189520000Y-66450000D03*
X192060000Y-66450000D03*
X194600000Y-66450000D03*
X197140000Y-66450000D03*
X197140000Y-74070000D03*
X194600000Y-74070000D03*
X192060000Y-74070000D03*
X189520000Y-74070000D03*
X186980000Y-74070000D03*
X184440000Y-74070000D03*
X181900000Y-74070000D03*
%TD*%
D19*
%TO.C,R36*%
X196750000Y-96810000D03*
X196750000Y-89190000D03*
%TD*%
%TO.C,R32*%
X176130000Y-143500000D03*
X183750000Y-143500000D03*
%TD*%
%TO.C,R37*%
X196750000Y-106620000D03*
X196750000Y-99000000D03*
%TD*%
%TO.C,R27*%
X178500000Y-61940000D03*
X178500000Y-69560000D03*
%TD*%
%TO.C,R33*%
X200810000Y-143500000D03*
X193190000Y-143500000D03*
%TD*%
%TO.C,R31*%
X200810000Y-129250000D03*
X193190000Y-129250000D03*
%TD*%
%TO.C,R28*%
X175940000Y-129500000D03*
X183560000Y-129500000D03*
%TD*%
M02*
