%TF.GenerationSoftware,KiCad,Pcbnew,10.0.5*%
%TF.CreationDate,2026-09-11T13:15:11-03:00*%
%TF.ProjectId,ControlPCB_SMD_V3.1,436f6e74-726f-46c5-9043-425f534d445f,rev?*%
%TF.SameCoordinates,Original*%
%TF.FileFunction,Copper,L2,Bot*%
%TF.FilePolarity,Positive*%
%FSLAX46Y46*%
G04 Gerber Fmt 4.6, Leading zero omitted, Abs format (unit mm)*
G04 Created by KiCad (PCBNEW 10.0.5) date 2026-09-11 13:15:11*
%MOMM*%
%LPD*%
G01*
G04 APERTURE LIST*
%TA.AperFunction,ComponentPad*%
%ADD10C,1.930400*%
%TD*%
%TA.AperFunction,ComponentPad*%
%ADD11R,1.800000X1.800000*%
%TD*%
%TA.AperFunction,ComponentPad*%
%ADD12C,1.800000*%
%TD*%
%TA.AperFunction,ComponentPad*%
%ADD13R,1.700000X1.700000*%
%TD*%
%TA.AperFunction,ComponentPad*%
%ADD14O,1.700000X1.700000*%
%TD*%
%TA.AperFunction,ComponentPad*%
%ADD15R,2.000000X2.000000*%
%TD*%
%TA.AperFunction,ComponentPad*%
%ADD16C,2.000000*%
%TD*%
%TA.AperFunction,ComponentPad*%
%ADD17R,2.000000X3.200000*%
%TD*%
%TA.AperFunction,ComponentPad*%
%ADD18C,1.600000*%
%TD*%
%TA.AperFunction,ComponentPad*%
%ADD19R,1.500000X1.050000*%
%TD*%
%TA.AperFunction,ComponentPad*%
%ADD20O,1.500000X1.050000*%
%TD*%
%TA.AperFunction,ComponentPad*%
%ADD21C,1.700000*%
%TD*%
%TA.AperFunction,ViaPad*%
%ADD22C,0.600000*%
%TD*%
%TA.AperFunction,Conductor*%
%ADD23C,0.200000*%
%TD*%
%TA.AperFunction,Conductor*%
%ADD24C,0.500000*%
%TD*%
G04 APERTURE END LIST*
D10*
%TO.P,J6,1,SIG_1*%
%TO.N,O3_CON*%
X175440200Y-151800000D03*
%TO.P,J6,2,SHEILD_2*%
%TO.N,GND*%
X186413000Y-151800000D03*
%TO.P,J6,3,SW_3*%
%TO.N,unconnected-(J6-SW-Pad3)*%
X184000000Y-151800000D03*
%TD*%
%TO.P,J1,1,SIG_1*%
%TO.N,IN_1*%
X182638000Y-109300000D03*
%TO.P,J1,2,SHEILD_2*%
%TO.N,GND*%
X193610800Y-109300000D03*
%TO.P,J1,3,SW_3*%
X191197800Y-109300000D03*
%TD*%
D11*
%TO.P,D3,1,K_1*%
%TO.N,Net-(D3-K)*%
X194380000Y-131640000D03*
D12*
%TO.P,D3,2,A_2*%
%TO.N,ARD_3*%
X196920000Y-131640000D03*
%TD*%
D11*
%TO.P,D5,1,K_1*%
%TO.N,Net-(D5-K)*%
X194380000Y-145850000D03*
D12*
%TO.P,D5,2,A_2*%
%TO.N,ARD_3*%
X196920000Y-145850000D03*
%TD*%
D11*
%TO.P,D2,1,K_1*%
%TO.N,Net-(D2-K)*%
X182154200Y-131640000D03*
D12*
%TO.P,D2,2,A_2*%
%TO.N,ARD_3*%
X179614200Y-131640000D03*
%TD*%
D10*
%TO.P,J4,1,SIG_1*%
%TO.N,O1_CON*%
X175440200Y-137600000D03*
%TO.P,J4,2,SHEILD_2*%
%TO.N,GND*%
X186413000Y-137600000D03*
%TO.P,J4,3,SW_3*%
%TO.N,unconnected-(J4-SW-Pad3)*%
X184000000Y-137600000D03*
%TD*%
%TO.P,J7,1,SIG_1*%
%TO.N,O4_CON*%
X201100000Y-151800000D03*
%TO.P,J7,2,SHEILD_2*%
%TO.N,GND*%
X190127200Y-151800000D03*
%TO.P,J7,3,SW_3*%
%TO.N,unconnected-(J7-SW-Pad3)*%
X192540200Y-151800000D03*
%TD*%
D11*
%TO.P,D4,1,K_1*%
%TO.N,Net-(D4-K)*%
X182154200Y-145850000D03*
D12*
%TO.P,D4,2,A_2*%
%TO.N,ARD_3*%
X179614200Y-145850000D03*
%TD*%
D10*
%TO.P,J3,1,SIG_1*%
%TO.N,IN_3*%
X201100000Y-123300000D03*
%TO.P,J3,2,SHEILD_2*%
%TO.N,GND*%
X190127200Y-123300000D03*
%TO.P,J3,3,SW_3*%
X192540200Y-123300000D03*
%TD*%
%TO.P,J5,1,SIG_1*%
%TO.N,O2_CON*%
X201100000Y-137600000D03*
%TO.P,J5,2,SHEILD_2*%
%TO.N,GND*%
X190127200Y-137600000D03*
%TO.P,J5,3,SW_3*%
%TO.N,unconnected-(J5-SW-Pad3)*%
X192540200Y-137600000D03*
%TD*%
D13*
%TO.P,U1,1,GND_1*%
%TO.N,GND*%
X184264000Y-58400000D03*
D14*
%TO.P,U1,2,VCC_2*%
%TO.N,ARD_3*%
X186804000Y-58400000D03*
%TO.P,U1,3,SCL_3*%
%TO.N,SCL*%
X189344000Y-58400000D03*
%TO.P,U1,4,SDA_4*%
%TO.N,SDA*%
X191884000Y-58400000D03*
%TD*%
D10*
%TO.P,J2,1,SIG_1*%
%TO.N,IN_2*%
X175440200Y-123300000D03*
%TO.P,J2,2,SHEILD_2*%
%TO.N,GND*%
X186413000Y-123300000D03*
%TO.P,J2,3,SW_3*%
X184000000Y-123300000D03*
%TD*%
D15*
%TO.P,SW1,A,A_A*%
%TO.N,ENC_1*%
X185585000Y-100900000D03*
D16*
%TO.P,SW1,B,B_B*%
%TO.N,ENC_2*%
X190585000Y-100900000D03*
%TO.P,SW1,C,C_C*%
%TO.N,GND*%
X188085000Y-100900000D03*
D17*
%TO.P,SW1,MP,MP_MP*%
X182485000Y-93400000D03*
X193685000Y-93400000D03*
D16*
%TO.P,SW1,S1,S1_S1*%
%TO.N,ENC_SW*%
X190585000Y-86400000D03*
%TO.P,SW1,S2,S2_S2*%
%TO.N,GND*%
X185585000Y-86400000D03*
%TD*%
D18*
%TO.P,R21,1*%
%TO.N,Net-(Q2-C)*%
X192940000Y-117750000D03*
%TO.P,R21,2*%
%TO.N,Net-(D3-K)*%
X200560000Y-117750000D03*
%TD*%
%TO.P,R19,1*%
%TO.N,Net-(Q1-C)*%
X175940000Y-117750000D03*
%TO.P,R19,2*%
%TO.N,Net-(D2-K)*%
X183560000Y-117750000D03*
%TD*%
D19*
%TO.P,Q3,1,C_1*%
%TO.N,Net-(Q3-C)*%
X188750000Y-140730000D03*
D20*
%TO.P,Q3,2,B_2*%
%TO.N,Net-(Q3-B)*%
X188750000Y-142000000D03*
%TO.P,Q3,3,E_3*%
%TO.N,GND*%
X188750000Y-143270000D03*
%TD*%
D13*
%TO.P,J9,1,Pin_1_1*%
%TO.N,GND*%
X175200000Y-63700000D03*
D21*
%TO.P,J9,2,Pin_2_2*%
%TO.N,SDA*%
X175200000Y-66240000D03*
%TO.P,J9,3,Pin_3_3*%
%TO.N,SCL*%
X175200000Y-68780000D03*
%TO.P,J9,4,Pin_4_4*%
%TO.N,ARD_3*%
X175200000Y-71320000D03*
%TO.P,J9,5,Pin_5_5*%
%TO.N,-10V*%
X175200000Y-73860000D03*
%TO.P,J9,6,Pin_6_6*%
%TO.N,IN_1*%
X175200000Y-76400000D03*
%TO.P,J9,7,Pin_7_7*%
%TO.N,IN_2*%
X175200000Y-78940000D03*
%TO.P,J9,8,Pin_8_8*%
%TO.N,IN_3*%
X175200000Y-81480000D03*
%TD*%
D18*
%TO.P,R24,1*%
%TO.N,O4_CON*%
X200560000Y-129500000D03*
%TO.P,R24,2*%
%TO.N,Net-(Q4-B)*%
X192940000Y-129500000D03*
%TD*%
D19*
%TO.P,Q1,1,C_1*%
%TO.N,Net-(Q1-C)*%
X187750000Y-134270000D03*
D20*
%TO.P,Q1,2,B_2*%
%TO.N,Net-(Q1-B)*%
X187750000Y-133000000D03*
%TO.P,Q1,3,E_3*%
%TO.N,GND*%
X187750000Y-131730000D03*
%TD*%
D18*
%TO.P,R22,1*%
%TO.N,O3_CON*%
X175940000Y-129500000D03*
%TO.P,R22,2*%
%TO.N,Net-(Q3-B)*%
X183560000Y-129500000D03*
%TD*%
%TO.P,R20,1*%
%TO.N,O2_CON*%
X200560000Y-114750000D03*
%TO.P,R20,2*%
%TO.N,Net-(Q2-B)*%
X192940000Y-114750000D03*
%TD*%
D13*
%TO.P,J8,1,Pin_1_1*%
%TO.N,ENC_SW*%
X200900000Y-89500000D03*
D21*
%TO.P,J8,2,Pin_2_2*%
%TO.N,ENC_1*%
X200900000Y-92040000D03*
%TO.P,J8,3,Pin_3_3*%
%TO.N,ENC_2*%
X200900000Y-94580000D03*
%TO.P,J8,4,Pin_4_4*%
%TO.N,O1_CON*%
X200900000Y-97120000D03*
%TO.P,J8,5,Pin_5_5*%
%TO.N,O2_CON*%
X200900000Y-99660000D03*
%TO.P,J8,6,Pin_6_6*%
%TO.N,O3_CON*%
X200900000Y-102200000D03*
%TO.P,J8,7,Pin_7_7*%
%TO.N,O4_CON*%
X200900000Y-104740000D03*
%TO.P,J8,8,Pin_8_8*%
%TO.N,GND*%
X200900000Y-107280000D03*
%TD*%
D19*
%TO.P,Q2,1,C_1*%
%TO.N,Net-(Q2-C)*%
X188500000Y-126250000D03*
D20*
%TO.P,Q2,2,B_2*%
%TO.N,Net-(Q2-B)*%
X188500000Y-127520000D03*
%TO.P,Q2,3,E_3*%
%TO.N,GND*%
X188500000Y-128790000D03*
%TD*%
D18*
%TO.P,R25,1*%
%TO.N,Net-(Q4-C)*%
X192940000Y-143750000D03*
%TO.P,R25,2*%
%TO.N,Net-(D5-K)*%
X200560000Y-143750000D03*
%TD*%
D19*
%TO.P,Q4,1,C_1*%
%TO.N,Net-(Q4-C)*%
X188000000Y-148770000D03*
D20*
%TO.P,Q4,2,B_2*%
%TO.N,Net-(Q4-B)*%
X188000000Y-147500000D03*
%TO.P,Q4,3,E_3*%
%TO.N,GND*%
X188000000Y-146230000D03*
%TD*%
D18*
%TO.P,R18,1*%
%TO.N,O1_CON*%
X175940000Y-114750000D03*
%TO.P,R18,2*%
%TO.N,Net-(Q1-B)*%
X183560000Y-114750000D03*
%TD*%
%TO.P,R23,1*%
%TO.N,Net-(Q3-C)*%
X175940000Y-143750000D03*
%TO.P,R23,2*%
%TO.N,Net-(D4-K)*%
X183560000Y-143750000D03*
%TD*%
D22*
%TO.N,O3_CON*%
X194250000Y-104750000D03*
X199000000Y-102500000D03*
%TO.N,GND*%
X186000000Y-70500000D03*
X200250000Y-132000000D03*
X190250000Y-70500000D03*
X201750000Y-127500000D03*
X182250000Y-64500000D03*
X189250000Y-144750000D03*
X199250000Y-113250000D03*
X196750000Y-108750000D03*
X197750000Y-133500000D03*
X200500000Y-120750000D03*
X178750000Y-70000000D03*
X175000000Y-132250000D03*
X175500000Y-140000000D03*
X176250000Y-89000000D03*
X201000000Y-140750000D03*
X198750000Y-144000000D03*
X201000000Y-109500000D03*
X175500000Y-101500000D03*
X175250000Y-58250000D03*
X187000000Y-144750000D03*
X191750000Y-142000000D03*
X178250000Y-74750000D03*
X187750000Y-109250000D03*
X189250000Y-65250000D03*
X192500000Y-135000000D03*
%TO.N,Net-(D3-K)*%
X196250000Y-129750000D03*
%TO.N,O1_CON*%
X194450000Y-99500000D03*
X179750000Y-101500000D03*
%TO.N,O4_CON*%
X198517475Y-117150000D03*
%TO.N,SCL*%
X189250000Y-61150000D03*
%TO.N,SDA*%
X192000000Y-61150000D03*
%TO.N,IN_1*%
X183750000Y-102750000D03*
%TO.N,Net-(Q1-C)*%
X176650000Y-127500000D03*
%TO.N,IN_3*%
X198000000Y-123000000D03*
%TD*%
%TO.N,O3_CON*%
D23*
X196500000Y-102500000D02*
X199000000Y-102500000D01*
X194250000Y-104750000D02*
X196500000Y-102500000D01*
%TO.N,Net-(D3-K)*%
X196250000Y-129770000D02*
X194380000Y-131640000D01*
X196250000Y-129750000D02*
X196250000Y-129770000D01*
%TO.N,ARD_3*%
D24*
X177270000Y-69250000D02*
X178600000Y-69250000D01*
X186804000Y-61046000D02*
X186804000Y-58400000D01*
X175200000Y-71320000D02*
X177270000Y-69250000D01*
X186350000Y-61500000D02*
X186804000Y-61046000D01*
X178600000Y-69250000D02*
X186275000Y-61575000D01*
%TO.N,Net-(D5-K)*%
D23*
X199000000Y-147250000D02*
X200560000Y-145690000D01*
X200560000Y-145690000D02*
X200560000Y-143750000D01*
X195780000Y-147250000D02*
X199000000Y-147250000D01*
X194380000Y-145850000D02*
X195780000Y-147250000D01*
%TO.N,Net-(D2-K)*%
X184250000Y-118440000D02*
X183560000Y-117750000D01*
X182154200Y-131640000D02*
X182154200Y-122790852D01*
X182154200Y-122790852D02*
X184250000Y-120695051D01*
X184250000Y-120695051D02*
X184250000Y-118440000D01*
%TO.N,O1_CON*%
X177250000Y-135790200D02*
X175440200Y-137600000D01*
X194450000Y-99500000D02*
X198520000Y-99500000D01*
X177250000Y-116060000D02*
X177250000Y-135790200D01*
X179750000Y-110940000D02*
X179750000Y-101500000D01*
X175940000Y-114750000D02*
X177250000Y-116060000D01*
X175940000Y-114750000D02*
X179750000Y-110940000D01*
X198520000Y-99500000D02*
X200900000Y-97120000D01*
%TO.N,O4_CON*%
X200560000Y-129500000D02*
X199460000Y-130600000D01*
X199460000Y-140710000D02*
X202000000Y-143250000D01*
X202000000Y-143250000D02*
X202000000Y-150900000D01*
X202000000Y-150900000D02*
X201100000Y-151800000D01*
X199460000Y-130600000D02*
X199460000Y-140710000D01*
X198750000Y-127690000D02*
X200560000Y-129500000D01*
X198750000Y-117382525D02*
X198750000Y-127690000D01*
X198517475Y-117150000D02*
X198750000Y-117382525D01*
%TO.N,Net-(D4-K)*%
X183560000Y-143750000D02*
X182154200Y-145155800D01*
X182154200Y-145155800D02*
X182154200Y-145850000D01*
%TO.N,O2_CON*%
X200000000Y-108006346D02*
X199750000Y-107756346D01*
X201998529Y-136701471D02*
X201100000Y-137600000D01*
X199750000Y-104263654D02*
X200000000Y-104013654D01*
X200000000Y-105466346D02*
X199750000Y-105216346D01*
X201998529Y-129382894D02*
X201998529Y-136701471D01*
X199750000Y-101723654D02*
X200000000Y-101473654D01*
X199750000Y-106803654D02*
X200000000Y-106553654D01*
X199150000Y-126534364D02*
X201998529Y-129382894D01*
X200000000Y-104013654D02*
X200000000Y-102926346D01*
X199750000Y-107756346D02*
X199750000Y-106803654D01*
X199150000Y-116160000D02*
X199150000Y-126534364D01*
X200560000Y-114750000D02*
X200000000Y-114190000D01*
X200000000Y-100560000D02*
X200900000Y-99660000D01*
X200560000Y-114750000D02*
X199150000Y-116160000D01*
X200000000Y-101473654D02*
X200000000Y-100560000D01*
X199750000Y-102676346D02*
X199750000Y-101723654D01*
X199750000Y-105216346D02*
X199750000Y-104263654D01*
X200000000Y-102926346D02*
X199750000Y-102676346D01*
X200000000Y-106553654D02*
X200000000Y-105466346D01*
X200000000Y-114190000D02*
X200000000Y-108006346D01*
%TO.N,SCL*%
D24*
X189250000Y-61150000D02*
X189250000Y-58494000D01*
%TO.N,SDA*%
X192000000Y-61150000D02*
X192000000Y-58516000D01*
%TO.N,ENC_1*%
D23*
X199500000Y-93440000D02*
X200900000Y-92040000D01*
X199500000Y-95414314D02*
X199500000Y-93440000D01*
X186500000Y-97450000D02*
X185585000Y-98365000D01*
X197464314Y-97450000D02*
X199500000Y-95414314D01*
X185585000Y-98365000D02*
X185585000Y-100900000D01*
X186500000Y-97450000D02*
X197464314Y-97450000D01*
%TO.N,ENC_2*%
X197230000Y-98250000D02*
X200900000Y-94580000D01*
X190500000Y-98350000D02*
X190500000Y-100815000D01*
X190600000Y-98250000D02*
X197230000Y-98250000D01*
%TO.N,IN_1*%
X175200000Y-76400000D02*
X184032843Y-85232843D01*
X184032843Y-102467157D02*
X183750000Y-102750000D01*
X184032843Y-85232843D02*
X184032843Y-102467157D01*
%TO.N,Net-(Q2-C)*%
X192940000Y-117750000D02*
X188500000Y-122190000D01*
X188500000Y-122190000D02*
X188500000Y-126250000D01*
%TO.N,Net-(Q1-C)*%
X176739999Y-127410001D02*
X176650000Y-127500000D01*
X175940000Y-117750000D02*
X176739999Y-118549999D01*
X176739999Y-118549999D02*
X176739999Y-127410001D01*
%TO.N,Net-(Q3-C)*%
X175940000Y-143750000D02*
X178960000Y-140730000D01*
X178960000Y-140730000D02*
X188750000Y-140730000D01*
%TO.N,IN_3*%
X198000000Y-118000000D02*
X175200000Y-95200000D01*
X198000000Y-123000000D02*
X198000000Y-118000000D01*
X175200000Y-95200000D02*
X175200000Y-81480000D01*
%TO.N,Net-(Q4-B)*%
X193805400Y-133465400D02*
X192940000Y-132600000D01*
X192940000Y-132600000D02*
X192940000Y-129500000D01*
X188225000Y-147500000D02*
X191375000Y-144350000D01*
X191375000Y-143625000D02*
X193805400Y-141194600D01*
X188000000Y-147500000D02*
X188225000Y-147500000D01*
X193805400Y-141194600D02*
X193805400Y-133465400D01*
X191375000Y-144350000D02*
X191375000Y-143625000D01*
%TO.N,Net-(Q1-B)*%
X184660000Y-120850737D02*
X182734800Y-122775937D01*
X186700000Y-127789263D02*
X186700000Y-132200000D01*
X184660000Y-115850000D02*
X184660000Y-120850737D01*
X186700000Y-132200000D02*
X187500000Y-133000000D01*
X182734800Y-122775937D02*
X182734800Y-123824063D01*
X182734800Y-123824063D02*
X186700000Y-127789263D01*
X187500000Y-133000000D02*
X187750000Y-133000000D01*
X183560000Y-114750000D02*
X184660000Y-115850000D01*
%TO.N,Net-(Q2-B)*%
X187525000Y-127075000D02*
X187970000Y-127520000D01*
X187450000Y-125425000D02*
X187450000Y-127075000D01*
X187450000Y-127075000D02*
X187525000Y-127075000D01*
X192940000Y-114750000D02*
X191250000Y-116440000D01*
X188100000Y-124775000D02*
X187450000Y-125425000D01*
X188100000Y-122024315D02*
X188100000Y-124775000D01*
X191250000Y-118874315D02*
X188100000Y-122024315D01*
X191250000Y-116440000D02*
X191250000Y-118874315D01*
X187970000Y-127520000D02*
X188500000Y-127520000D01*
%TO.N,Net-(Q4-C)*%
X188230000Y-148770000D02*
X188000000Y-148770000D01*
X191940000Y-144750000D02*
X191540686Y-144750000D01*
X189250000Y-147040686D02*
X189250000Y-147750000D01*
X189250000Y-147750000D02*
X188230000Y-148770000D01*
X192940000Y-143750000D02*
X191940000Y-144750000D01*
X191540686Y-144750000D02*
X189250000Y-147040686D01*
%TD*%
%TA.AperFunction,Conductor*%
%TO.N,GND*%
G36*
X180697826Y-101564234D02*
G01*
X180744255Y-101593490D01*
X192489984Y-113339219D01*
X192523469Y-113400542D01*
X192518485Y-113470234D01*
X192476613Y-113526167D01*
X192445105Y-113542511D01*
X192445274Y-113542919D01*
X192440782Y-113544778D01*
X192258386Y-113637715D01*
X192092786Y-113758028D01*
X191948028Y-113902786D01*
X191827715Y-114068386D01*
X191734781Y-114250776D01*
X191671522Y-114445465D01*
X191639500Y-114647648D01*
X191639500Y-114852351D01*
X191671522Y-115054534D01*
X191676173Y-115068848D01*
X191678165Y-115138690D01*
X191645921Y-115194842D01*
X190881286Y-115959478D01*
X190769481Y-116071282D01*
X190769480Y-116071284D01*
X190730351Y-116139058D01*
X190690423Y-116208215D01*
X190649499Y-116360943D01*
X190649499Y-116360945D01*
X190649499Y-116529046D01*
X190649500Y-116529059D01*
X190649500Y-118574217D01*
X190629815Y-118641256D01*
X190613181Y-118661898D01*
X189595834Y-119679244D01*
X189534511Y-119712729D01*
X189464819Y-119707745D01*
X189408886Y-119665873D01*
X189384469Y-119600409D01*
X189390222Y-119553248D01*
X189402246Y-119516243D01*
X189435500Y-119306287D01*
X189435500Y-119093713D01*
X189402246Y-118883757D01*
X189336557Y-118681588D01*
X189240051Y-118492184D01*
X189240049Y-118492181D01*
X189240048Y-118492179D01*
X189115109Y-118320213D01*
X188964786Y-118169890D01*
X188792820Y-118044951D01*
X188603414Y-117948444D01*
X188603413Y-117948443D01*
X188603412Y-117948443D01*
X188401243Y-117882754D01*
X188401241Y-117882753D01*
X188401240Y-117882753D01*
X188239957Y-117857208D01*
X188191287Y-117849500D01*
X187978713Y-117849500D01*
X187930042Y-117857208D01*
X187768760Y-117882753D01*
X187566585Y-117948444D01*
X187377179Y-118044951D01*
X187205213Y-118169890D01*
X187054890Y-118320213D01*
X186929951Y-118492179D01*
X186833444Y-118681585D01*
X186767753Y-118883760D01*
X186756435Y-118955220D01*
X186734500Y-119093713D01*
X186734500Y-119306287D01*
X186767754Y-119516243D01*
X186831596Y-119712729D01*
X186833444Y-119718414D01*
X186929951Y-119907820D01*
X187054890Y-120079786D01*
X187205213Y-120230109D01*
X187377179Y-120355048D01*
X187377181Y-120355049D01*
X187377184Y-120355051D01*
X187566588Y-120451557D01*
X187768757Y-120517246D01*
X187978713Y-120550500D01*
X187978714Y-120550500D01*
X188191286Y-120550500D01*
X188191287Y-120550500D01*
X188401243Y-120517246D01*
X188438246Y-120505222D01*
X188508084Y-120503226D01*
X188567917Y-120539305D01*
X188598746Y-120602006D01*
X188590783Y-120671420D01*
X188564244Y-120710834D01*
X187731286Y-121543793D01*
X187619481Y-121655597D01*
X187619480Y-121655599D01*
X187588372Y-121709480D01*
X187552711Y-121771246D01*
X187542529Y-121788883D01*
X187540423Y-121792530D01*
X187499499Y-121945258D01*
X187499499Y-121945260D01*
X187499499Y-122034937D01*
X187479814Y-122101976D01*
X187427010Y-122147731D01*
X187357852Y-122157675D01*
X187302613Y-122135255D01*
X187180932Y-122046848D01*
X186975446Y-121942147D01*
X186756102Y-121870877D01*
X186528319Y-121834800D01*
X186297681Y-121834800D01*
X186069897Y-121870877D01*
X185850553Y-121942147D01*
X185645069Y-122046847D01*
X185568807Y-122102254D01*
X186328905Y-122862352D01*
X186241429Y-122885792D01*
X186140070Y-122944311D01*
X186057311Y-123027070D01*
X185998792Y-123128429D01*
X185975352Y-123215905D01*
X185215177Y-122455730D01*
X185197821Y-122455730D01*
X184541341Y-123112209D01*
X184532553Y-123079409D01*
X184457313Y-122949091D01*
X184350909Y-122842687D01*
X184220591Y-122767447D01*
X184187788Y-122758657D01*
X184844192Y-122102254D01*
X184844191Y-122102253D01*
X184767935Y-122046850D01*
X184618707Y-121970814D01*
X184567911Y-121922839D01*
X184551116Y-121855018D01*
X184573653Y-121788883D01*
X184587308Y-121772662D01*
X185028713Y-121331258D01*
X185028716Y-121331257D01*
X185140520Y-121219453D01*
X185190639Y-121132641D01*
X185219577Y-121082522D01*
X185260501Y-120929794D01*
X185260501Y-120771680D01*
X185260501Y-120764085D01*
X185260500Y-120764067D01*
X185260500Y-115939059D01*
X185260501Y-115939046D01*
X185260501Y-115770945D01*
X185260501Y-115770943D01*
X185219577Y-115618215D01*
X185185678Y-115559500D01*
X185140520Y-115481284D01*
X185028716Y-115369480D01*
X185028715Y-115369479D01*
X185024385Y-115365149D01*
X185024374Y-115365139D01*
X184854077Y-115194842D01*
X184820592Y-115133519D01*
X184823828Y-115068841D01*
X184823829Y-115068838D01*
X184828477Y-115054534D01*
X184860500Y-114852352D01*
X184860500Y-114647648D01*
X184828477Y-114445466D01*
X184765220Y-114250781D01*
X184765218Y-114250778D01*
X184765218Y-114250776D01*
X184720501Y-114163015D01*
X184672287Y-114068390D01*
X184664556Y-114057749D01*
X184551971Y-113902786D01*
X184407213Y-113758028D01*
X184241613Y-113637715D01*
X184241612Y-113637714D01*
X184241610Y-113637713D01*
X184184653Y-113608691D01*
X184059223Y-113544781D01*
X183864534Y-113481522D01*
X183689995Y-113453878D01*
X183662352Y-113449500D01*
X183457648Y-113449500D01*
X183433329Y-113453351D01*
X183255465Y-113481522D01*
X183060776Y-113544781D01*
X182878386Y-113637715D01*
X182712786Y-113758028D01*
X182568028Y-113902786D01*
X182447715Y-114068386D01*
X182354781Y-114250776D01*
X182291522Y-114445465D01*
X182259500Y-114647648D01*
X182259500Y-114852351D01*
X182291522Y-115054534D01*
X182354781Y-115249223D01*
X182447715Y-115431613D01*
X182568028Y-115597213D01*
X182712786Y-115741971D01*
X182867749Y-115854556D01*
X182878390Y-115862287D01*
X182994607Y-115921503D01*
X183060776Y-115955218D01*
X183060778Y-115955218D01*
X183060781Y-115955220D01*
X183165137Y-115989127D01*
X183255465Y-116018477D01*
X183342026Y-116032187D01*
X183457648Y-116050500D01*
X183457649Y-116050500D01*
X183662351Y-116050500D01*
X183662352Y-116050500D01*
X183864534Y-116018477D01*
X183878842Y-116013827D01*
X183902445Y-116013153D01*
X183925500Y-116008039D01*
X183936723Y-116012172D01*
X183948682Y-116011831D01*
X183968904Y-116024025D01*
X183991064Y-116032187D01*
X184004842Y-116044077D01*
X184023181Y-116062416D01*
X184056666Y-116123739D01*
X184059500Y-116150097D01*
X184059500Y-116374199D01*
X184050924Y-116403402D01*
X184044575Y-116433179D01*
X184041174Y-116436607D01*
X184039815Y-116441238D01*
X184016817Y-116461165D01*
X183995373Y-116482787D01*
X183990657Y-116483832D01*
X183987011Y-116486993D01*
X183956882Y-116491325D01*
X183927161Y-116497918D01*
X183922631Y-116496249D01*
X183917853Y-116496937D01*
X183897183Y-116492130D01*
X183864542Y-116481524D01*
X183864535Y-116481523D01*
X183763443Y-116465511D01*
X183662352Y-116449500D01*
X183457648Y-116449500D01*
X183433329Y-116453351D01*
X183255465Y-116481522D01*
X183060776Y-116544781D01*
X182878386Y-116637715D01*
X182712786Y-116758028D01*
X182568028Y-116902786D01*
X182447715Y-117068386D01*
X182354781Y-117250776D01*
X182291522Y-117445465D01*
X182259500Y-117647648D01*
X182259500Y-117852351D01*
X182291522Y-118054534D01*
X182354781Y-118249223D01*
X182447715Y-118431613D01*
X182568028Y-118597213D01*
X182712786Y-118741971D01*
X182867749Y-118854556D01*
X182878390Y-118862287D01*
X182994607Y-118921503D01*
X183060776Y-118955218D01*
X183060778Y-118955218D01*
X183060781Y-118955220D01*
X183165137Y-118989127D01*
X183255465Y-119018477D01*
X183356557Y-119034488D01*
X183457648Y-119050500D01*
X183525500Y-119050500D01*
X183592539Y-119070185D01*
X183638294Y-119122989D01*
X183649500Y-119174500D01*
X183649500Y-120394954D01*
X183629815Y-120461993D01*
X183613181Y-120482635D01*
X181673681Y-122422134D01*
X181673679Y-122422136D01*
X181654285Y-122455730D01*
X181638931Y-122482324D01*
X181594623Y-122559067D01*
X181553699Y-122711795D01*
X181553699Y-122711797D01*
X181553699Y-122879899D01*
X181553700Y-122879912D01*
X181553700Y-130115500D01*
X181534015Y-130182539D01*
X181481211Y-130228294D01*
X181429701Y-130239500D01*
X181206330Y-130239500D01*
X181206323Y-130239501D01*
X181146716Y-130245908D01*
X181011871Y-130296202D01*
X181011864Y-130296206D01*
X180896655Y-130382452D01*
X180896652Y-130382455D01*
X180810406Y-130497664D01*
X180810403Y-130497669D01*
X180780598Y-130577581D01*
X180738726Y-130633514D01*
X180673262Y-130657931D01*
X180604989Y-130643079D01*
X180576735Y-130621928D01*
X180526563Y-130571756D01*
X180526558Y-130571752D01*
X180348225Y-130442187D01*
X180348224Y-130442186D01*
X180348222Y-130442185D01*
X180230991Y-130382452D01*
X180151806Y-130342104D01*
X180151803Y-130342103D01*
X179942152Y-130273985D01*
X179833286Y-130256742D01*
X179724422Y-130239500D01*
X179503978Y-130239500D01*
X179431401Y-130250995D01*
X179286247Y-130273985D01*
X179076596Y-130342103D01*
X179076593Y-130342104D01*
X178880174Y-130442187D01*
X178701841Y-130571752D01*
X178701836Y-130571756D01*
X178545956Y-130727636D01*
X178545952Y-130727641D01*
X178416387Y-130905974D01*
X178316304Y-131102393D01*
X178316303Y-131102396D01*
X178248185Y-131312047D01*
X178213700Y-131529778D01*
X178213700Y-131750221D01*
X178248185Y-131967952D01*
X178316303Y-132177603D01*
X178316304Y-132177606D01*
X178416387Y-132374025D01*
X178545952Y-132552358D01*
X178545956Y-132552363D01*
X178701836Y-132708243D01*
X178701841Y-132708247D01*
X178803803Y-132782326D01*
X178880178Y-132837815D01*
X179000243Y-132898992D01*
X179076593Y-132937895D01*
X179076596Y-132937896D01*
X179171440Y-132968712D01*
X179286249Y-133006015D01*
X179503978Y-133040500D01*
X179503979Y-133040500D01*
X179724421Y-133040500D01*
X179724422Y-133040500D01*
X179942151Y-133006015D01*
X180151806Y-132937895D01*
X180348222Y-132837815D01*
X180526565Y-132708242D01*
X180576736Y-132658070D01*
X180638057Y-132624586D01*
X180707748Y-132629570D01*
X180763682Y-132671441D01*
X180780598Y-132702419D01*
X180810402Y-132782328D01*
X180810406Y-132782335D01*
X180896652Y-132897544D01*
X180896655Y-132897547D01*
X181011864Y-132983793D01*
X181011871Y-132983797D01*
X181146717Y-133034091D01*
X181146716Y-133034091D01*
X181153644Y-133034835D01*
X181206327Y-133040500D01*
X183102072Y-133040499D01*
X183161683Y-133034091D01*
X183296531Y-132983796D01*
X183411746Y-132897546D01*
X183497996Y-132782331D01*
X183548291Y-132647483D01*
X183554700Y-132587873D01*
X183554699Y-130923455D01*
X183574384Y-130856417D01*
X183627187Y-130810662D01*
X183659301Y-130800983D01*
X183662351Y-130800500D01*
X183662352Y-130800500D01*
X183864534Y-130768477D01*
X184059219Y-130705220D01*
X184241610Y-130612287D01*
X184367333Y-130520945D01*
X184407213Y-130491971D01*
X184407215Y-130491968D01*
X184407219Y-130491966D01*
X184551966Y-130347219D01*
X184551968Y-130347215D01*
X184551971Y-130347213D01*
X184630227Y-130239501D01*
X184672287Y-130181610D01*
X184765220Y-129999219D01*
X184828477Y-129804534D01*
X184860500Y-129602352D01*
X184860500Y-129397648D01*
X184856250Y-129370814D01*
X184828477Y-129195465D01*
X184778160Y-129040606D01*
X184765220Y-129000781D01*
X184765218Y-129000778D01*
X184765218Y-129000776D01*
X184721003Y-128914000D01*
X184672287Y-128818390D01*
X184615792Y-128740630D01*
X184551971Y-128652786D01*
X184407213Y-128508028D01*
X184241613Y-128387715D01*
X184241612Y-128387714D01*
X184241610Y-128387713D01*
X184158745Y-128345491D01*
X184059223Y-128294781D01*
X183864534Y-128231522D01*
X183689995Y-128203878D01*
X183662352Y-128199500D01*
X183457648Y-128199500D01*
X183433329Y-128203351D01*
X183255465Y-128231522D01*
X183060776Y-128294781D01*
X182934995Y-128358871D01*
X182866326Y-128371767D01*
X182801585Y-128345491D01*
X182761328Y-128288384D01*
X182754700Y-128248386D01*
X182754700Y-124992560D01*
X182774385Y-124925521D01*
X182827189Y-124879766D01*
X182896347Y-124869822D01*
X182959903Y-124898847D01*
X182966381Y-124904879D01*
X186063181Y-128001679D01*
X186096666Y-128063002D01*
X186099500Y-128089360D01*
X186099500Y-132113330D01*
X186099499Y-132113348D01*
X186099499Y-132279054D01*
X186099498Y-132279054D01*
X186104946Y-132299384D01*
X186140423Y-132431785D01*
X186146264Y-132441901D01*
X186146265Y-132441902D01*
X186146266Y-132441905D01*
X186219477Y-132568712D01*
X186219481Y-132568717D01*
X186338349Y-132687585D01*
X186338355Y-132687590D01*
X186463181Y-132812416D01*
X186496666Y-132873739D01*
X186499500Y-132900097D01*
X186499500Y-133101007D01*
X186538907Y-133299119D01*
X186538909Y-133299127D01*
X186572325Y-133379800D01*
X186579794Y-133449270D01*
X186560038Y-133494660D01*
X186560454Y-133494887D01*
X186557919Y-133499528D01*
X186557037Y-133501556D01*
X186556206Y-133502665D01*
X186556202Y-133502672D01*
X186505908Y-133637517D01*
X186501576Y-133677816D01*
X186499501Y-133697123D01*
X186499500Y-133697135D01*
X186499500Y-134842870D01*
X186499501Y-134842876D01*
X186505908Y-134902483D01*
X186556202Y-135037328D01*
X186556206Y-135037335D01*
X186642452Y-135152544D01*
X186642455Y-135152547D01*
X186757664Y-135238793D01*
X186757671Y-135238797D01*
X186892517Y-135289091D01*
X186892516Y-135289091D01*
X186899444Y-135289835D01*
X186952127Y-135295500D01*
X188547872Y-135295499D01*
X188607483Y-135289091D01*
X188742331Y-135238796D01*
X188857546Y-135152546D01*
X188943796Y-135037331D01*
X188994091Y-134902483D01*
X189000500Y-134842873D01*
X189000499Y-133697128D01*
X188994091Y-133637517D01*
X188943796Y-133502669D01*
X188942967Y-133501562D01*
X188942485Y-133500268D01*
X188939546Y-133494886D01*
X188940319Y-133494463D01*
X188918551Y-133436099D01*
X188927675Y-133379798D01*
X188961089Y-133299132D01*
X188961089Y-133299131D01*
X188961091Y-133299127D01*
X189000500Y-133101003D01*
X189000500Y-132898997D01*
X188961091Y-132700873D01*
X188883786Y-132514244D01*
X188829794Y-132433439D01*
X188808917Y-132366764D01*
X188827401Y-132299384D01*
X188829796Y-132295658D01*
X188883344Y-132215518D01*
X188883346Y-132215515D01*
X188960609Y-132028983D01*
X188960612Y-132028974D01*
X188970353Y-131980000D01*
X188115866Y-131980000D01*
X188091674Y-131977617D01*
X188076004Y-131974500D01*
X188076003Y-131974500D01*
X188035830Y-131974500D01*
X188050075Y-131960255D01*
X188099444Y-131874745D01*
X188125000Y-131779370D01*
X188125000Y-131680630D01*
X188099444Y-131585255D01*
X188050075Y-131499745D01*
X188030330Y-131480000D01*
X188970353Y-131480000D01*
X188960612Y-131431025D01*
X188960609Y-131431016D01*
X188883347Y-131244486D01*
X188883340Y-131244473D01*
X188771170Y-131076600D01*
X188771167Y-131076596D01*
X188628403Y-130933832D01*
X188628399Y-130933829D01*
X188460526Y-130821659D01*
X188460513Y-130821652D01*
X188273983Y-130744390D01*
X188273974Y-130744387D01*
X188075958Y-130705000D01*
X188000000Y-130705000D01*
X188000000Y-131449670D01*
X187980255Y-131429925D01*
X187894745Y-131380556D01*
X187799370Y-131355000D01*
X187700630Y-131355000D01*
X187605255Y-131380556D01*
X187519745Y-131429925D01*
X187500000Y-131449670D01*
X187500000Y-130740453D01*
X187382076Y-130697517D01*
X187370843Y-130689244D01*
X187357461Y-130685315D01*
X187343269Y-130668937D01*
X187325817Y-130656084D01*
X187320839Y-130643052D01*
X187311706Y-130632511D01*
X187304945Y-130601434D01*
X187300889Y-130590813D01*
X187301745Y-130586723D01*
X187300500Y-130581000D01*
X187300500Y-129564433D01*
X187320185Y-129497394D01*
X187372989Y-129451639D01*
X187442147Y-129441695D01*
X187505703Y-129470720D01*
X187512181Y-129476752D01*
X187621596Y-129586167D01*
X187621600Y-129586170D01*
X187789473Y-129698340D01*
X187789486Y-129698347D01*
X187976016Y-129775609D01*
X187976025Y-129775612D01*
X188174041Y-129814999D01*
X188174045Y-129815000D01*
X188250000Y-129815000D01*
X188250000Y-129070330D01*
X188269745Y-129090075D01*
X188355255Y-129139444D01*
X188450630Y-129165000D01*
X188549370Y-129165000D01*
X188644745Y-129139444D01*
X188730255Y-129090075D01*
X188750000Y-129070330D01*
X188750000Y-129815000D01*
X188825955Y-129815000D01*
X188825958Y-129814999D01*
X189023974Y-129775612D01*
X189023983Y-129775609D01*
X189210513Y-129698347D01*
X189210526Y-129698340D01*
X189378399Y-129586170D01*
X189378403Y-129586167D01*
X189521167Y-129443403D01*
X189521170Y-129443399D01*
X189633340Y-129275526D01*
X189633347Y-129275513D01*
X189710609Y-129088983D01*
X189710612Y-129088974D01*
X189720353Y-129040000D01*
X188780330Y-129040000D01*
X188800075Y-129020255D01*
X188849444Y-128934745D01*
X188875000Y-128839370D01*
X188875000Y-128740630D01*
X188849444Y-128645255D01*
X188800075Y-128559745D01*
X188785830Y-128545500D01*
X188826004Y-128545500D01*
X188826004Y-128545499D01*
X188839473Y-128542820D01*
X188841674Y-128542383D01*
X188865866Y-128540000D01*
X189720353Y-128540000D01*
X189710612Y-128491025D01*
X189710609Y-128491016D01*
X189633347Y-128304486D01*
X189633343Y-128304479D01*
X189579795Y-128224340D01*
X189558917Y-128157662D01*
X189577401Y-128090282D01*
X189579733Y-128086652D01*
X189633786Y-128005756D01*
X189711091Y-127819127D01*
X189750500Y-127621003D01*
X189750500Y-127418997D01*
X189711091Y-127220873D01*
X189677673Y-127140198D01*
X189670205Y-127070730D01*
X189689964Y-127025340D01*
X189689547Y-127025112D01*
X189692095Y-127020444D01*
X189692972Y-127018431D01*
X189693796Y-127017331D01*
X189744091Y-126882483D01*
X189750500Y-126822873D01*
X189750499Y-125677128D01*
X189744091Y-125617517D01*
X189701774Y-125504060D01*
X189693797Y-125482671D01*
X189693793Y-125482664D01*
X189607547Y-125367455D01*
X189607544Y-125367452D01*
X189492335Y-125281206D01*
X189492328Y-125281202D01*
X189357482Y-125230908D01*
X189357483Y-125230908D01*
X189297883Y-125224501D01*
X189297881Y-125224500D01*
X189297873Y-125224500D01*
X189297865Y-125224500D01*
X189224500Y-125224500D01*
X189157461Y-125204815D01*
X189111706Y-125152011D01*
X189100500Y-125100500D01*
X189100500Y-124608509D01*
X189120185Y-124541470D01*
X189172989Y-124495715D01*
X189242147Y-124485771D01*
X189297386Y-124508192D01*
X189359263Y-124553149D01*
X189564753Y-124657852D01*
X189784097Y-124729122D01*
X190011881Y-124765200D01*
X190242519Y-124765200D01*
X190470302Y-124729122D01*
X190689646Y-124657852D01*
X190895124Y-124553155D01*
X190895130Y-124553151D01*
X190971391Y-124497744D01*
X190971392Y-124497744D01*
X190211294Y-123737647D01*
X190298771Y-123714208D01*
X190400130Y-123655689D01*
X190482889Y-123572930D01*
X190541408Y-123471571D01*
X190564847Y-123384095D01*
X191325020Y-124144268D01*
X191342377Y-124144268D01*
X191998857Y-123487788D01*
X192007647Y-123520591D01*
X192082887Y-123650909D01*
X192189291Y-123757313D01*
X192319609Y-123832553D01*
X192352410Y-123841342D01*
X191696006Y-124497744D01*
X191772267Y-124553151D01*
X191977753Y-124657852D01*
X192197097Y-124729122D01*
X192424881Y-124765200D01*
X192655519Y-124765200D01*
X192883302Y-124729122D01*
X193102646Y-124657852D01*
X193308124Y-124553155D01*
X193308130Y-124553151D01*
X193384391Y-124497744D01*
X193384392Y-124497744D01*
X192727989Y-123841342D01*
X192760791Y-123832553D01*
X192891109Y-123757313D01*
X192997513Y-123650909D01*
X193072753Y-123520591D01*
X193081542Y-123487790D01*
X193737944Y-124144192D01*
X193737944Y-124144191D01*
X193793351Y-124067930D01*
X193793355Y-124067924D01*
X193898052Y-123862446D01*
X193969322Y-123643102D01*
X194005400Y-123415319D01*
X194005400Y-123184680D01*
X193969322Y-122956897D01*
X193898052Y-122737553D01*
X193793351Y-122532067D01*
X193737944Y-122455807D01*
X193737944Y-122455806D01*
X193081541Y-123112209D01*
X193072753Y-123079409D01*
X192997513Y-122949091D01*
X192891109Y-122842687D01*
X192760791Y-122767447D01*
X192727988Y-122758657D01*
X193384392Y-122102254D01*
X193384391Y-122102253D01*
X193308135Y-122046850D01*
X193102646Y-121942147D01*
X192883302Y-121870877D01*
X192655519Y-121834800D01*
X192424881Y-121834800D01*
X192197097Y-121870877D01*
X191977753Y-121942147D01*
X191772269Y-122046847D01*
X191696007Y-122102254D01*
X192352411Y-122758657D01*
X192319609Y-122767447D01*
X192189291Y-122842687D01*
X192082887Y-122949091D01*
X192007647Y-123079409D01*
X191998857Y-123112210D01*
X191342377Y-122455730D01*
X191325021Y-122455730D01*
X190564847Y-123215904D01*
X190541408Y-123128429D01*
X190482889Y-123027070D01*
X190400130Y-122944311D01*
X190298771Y-122885792D01*
X190211293Y-122862352D01*
X190971392Y-122102254D01*
X190971391Y-122102253D01*
X190895135Y-122046850D01*
X190689646Y-121942147D01*
X190470302Y-121870877D01*
X190242519Y-121834800D01*
X190007014Y-121834800D01*
X190007014Y-121833389D01*
X189944841Y-121820311D01*
X189895098Y-121771246D01*
X189879778Y-121703077D01*
X189903745Y-121637446D01*
X189915821Y-121623412D01*
X192495158Y-119044075D01*
X192556479Y-119010592D01*
X192621151Y-119013825D01*
X192635466Y-119018477D01*
X192837648Y-119050500D01*
X192837649Y-119050500D01*
X193042351Y-119050500D01*
X193042352Y-119050500D01*
X193244534Y-119018477D01*
X193439219Y-118955220D01*
X193621610Y-118862287D01*
X193714590Y-118794732D01*
X193787213Y-118741971D01*
X193787215Y-118741968D01*
X193787219Y-118741966D01*
X193931966Y-118597219D01*
X193931968Y-118597215D01*
X193931971Y-118597213D01*
X193984732Y-118524590D01*
X194052287Y-118431610D01*
X194145220Y-118249219D01*
X194208477Y-118054534D01*
X194240500Y-117852352D01*
X194240500Y-117647648D01*
X194208477Y-117445466D01*
X194145220Y-117250781D01*
X194145218Y-117250778D01*
X194145218Y-117250776D01*
X194111503Y-117184607D01*
X194052287Y-117068390D01*
X194029500Y-117037026D01*
X193931971Y-116902786D01*
X193787213Y-116758028D01*
X193621613Y-116637715D01*
X193621612Y-116637714D01*
X193621610Y-116637713D01*
X193542945Y-116597631D01*
X193439223Y-116544781D01*
X193244534Y-116481522D01*
X193069995Y-116453878D01*
X193042352Y-116449500D01*
X192837648Y-116449500D01*
X192813329Y-116453351D01*
X192635465Y-116481522D01*
X192440776Y-116544781D01*
X192258386Y-116637714D01*
X192228028Y-116659771D01*
X192162221Y-116683250D01*
X192094167Y-116667424D01*
X192045473Y-116617317D01*
X192031599Y-116548839D01*
X192056949Y-116483730D01*
X192067457Y-116471776D01*
X192495158Y-116044075D01*
X192556479Y-116010592D01*
X192621151Y-116013825D01*
X192635466Y-116018477D01*
X192837648Y-116050500D01*
X192837649Y-116050500D01*
X193042351Y-116050500D01*
X193042352Y-116050500D01*
X193244534Y-116018477D01*
X193439219Y-115955220D01*
X193621610Y-115862287D01*
X193747333Y-115770945D01*
X193787213Y-115741971D01*
X193787215Y-115741968D01*
X193787219Y-115741966D01*
X193931966Y-115597219D01*
X193931968Y-115597215D01*
X193931971Y-115597213D01*
X193984732Y-115524590D01*
X194052287Y-115431610D01*
X194145220Y-115249219D01*
X194147084Y-115244719D01*
X194148077Y-115245130D01*
X194184592Y-115191713D01*
X194248947Y-115164506D01*
X194317795Y-115176411D01*
X194350780Y-115200015D01*
X197363181Y-118212416D01*
X197396666Y-118273739D01*
X197399500Y-118300097D01*
X197399500Y-122420234D01*
X197379815Y-122487273D01*
X197378602Y-122489125D01*
X197290609Y-122620814D01*
X197290602Y-122620827D01*
X197230264Y-122766498D01*
X197230261Y-122766510D01*
X197199500Y-122921153D01*
X197199500Y-123078846D01*
X197230261Y-123233489D01*
X197230264Y-123233501D01*
X197290602Y-123379172D01*
X197290609Y-123379185D01*
X197378210Y-123510288D01*
X197378213Y-123510292D01*
X197489707Y-123621786D01*
X197489711Y-123621789D01*
X197620814Y-123709390D01*
X197620827Y-123709397D01*
X197766498Y-123769735D01*
X197766503Y-123769737D01*
X197921153Y-123800499D01*
X197921156Y-123800500D01*
X198025500Y-123800500D01*
X198092539Y-123820185D01*
X198138294Y-123872989D01*
X198149500Y-123924500D01*
X198149500Y-127603330D01*
X198149499Y-127603348D01*
X198149499Y-127769054D01*
X198149498Y-127769054D01*
X198190423Y-127921785D01*
X198218015Y-127969574D01*
X198218016Y-127969578D01*
X198218017Y-127969578D01*
X198269479Y-128058714D01*
X198269481Y-128058717D01*
X198388349Y-128177585D01*
X198388355Y-128177590D01*
X199265921Y-129055157D01*
X199299406Y-129116480D01*
X199296173Y-129181149D01*
X199291523Y-129195460D01*
X199291523Y-129195462D01*
X199259500Y-129397648D01*
X199259500Y-129602351D01*
X199291522Y-129804534D01*
X199296173Y-129818848D01*
X199298165Y-129888690D01*
X199265921Y-129944842D01*
X199091286Y-130119478D01*
X198979481Y-130231282D01*
X198979479Y-130231285D01*
X198929361Y-130318094D01*
X198929359Y-130318096D01*
X198900425Y-130368209D01*
X198900424Y-130368210D01*
X198896607Y-130382455D01*
X198859499Y-130520943D01*
X198859499Y-130520945D01*
X198859499Y-130689046D01*
X198859500Y-130689059D01*
X198859500Y-140623330D01*
X198859499Y-140623348D01*
X198859499Y-140789054D01*
X198859498Y-140789054D01*
X198900423Y-140941785D01*
X198911970Y-140961784D01*
X198911972Y-140961787D01*
X198979479Y-141078714D01*
X198979481Y-141078717D01*
X199098349Y-141197585D01*
X199098355Y-141197590D01*
X200208104Y-142307339D01*
X200241589Y-142368662D01*
X200236605Y-142438354D01*
X200194733Y-142494287D01*
X200158741Y-142512950D01*
X200060781Y-142544780D01*
X200060778Y-142544781D01*
X199878386Y-142637715D01*
X199712786Y-142758028D01*
X199568028Y-142902786D01*
X199447715Y-143068386D01*
X199354781Y-143250776D01*
X199291522Y-143445465D01*
X199259500Y-143647648D01*
X199259500Y-143852351D01*
X199291522Y-144054534D01*
X199354781Y-144249223D01*
X199418691Y-144374653D01*
X199446798Y-144429815D01*
X199447715Y-144431613D01*
X199568028Y-144597213D01*
X199568034Y-144597219D01*
X199712781Y-144741966D01*
X199878390Y-144862287D01*
X199891793Y-144869116D01*
X199942589Y-144917088D01*
X199959500Y-144979601D01*
X199959500Y-145389903D01*
X199939815Y-145456942D01*
X199923181Y-145477584D01*
X198787584Y-146613181D01*
X198726261Y-146646666D01*
X198699903Y-146649500D01*
X198286803Y-146649500D01*
X198219764Y-146629815D01*
X198174009Y-146577011D01*
X198164065Y-146507853D01*
X198176318Y-146469205D01*
X198217895Y-146387606D01*
X198217896Y-146387603D01*
X198253062Y-146279370D01*
X198286015Y-146177951D01*
X198320500Y-145960222D01*
X198320500Y-145739778D01*
X198286015Y-145522049D01*
X198230276Y-145350500D01*
X198217896Y-145312396D01*
X198217895Y-145312393D01*
X198163174Y-145205000D01*
X198117815Y-145115978D01*
X198059501Y-145035715D01*
X197988247Y-144937641D01*
X197988243Y-144937636D01*
X197832363Y-144781756D01*
X197832358Y-144781752D01*
X197654025Y-144652187D01*
X197654024Y-144652186D01*
X197654022Y-144652185D01*
X197591096Y-144620122D01*
X197457606Y-144552104D01*
X197457603Y-144552103D01*
X197247952Y-144483985D01*
X197139086Y-144466742D01*
X197030222Y-144449500D01*
X196809778Y-144449500D01*
X196737201Y-144460995D01*
X196592047Y-144483985D01*
X196382396Y-144552103D01*
X196382393Y-144552104D01*
X196185974Y-144652187D01*
X196007641Y-144781752D01*
X196007636Y-144781756D01*
X195957463Y-144831929D01*
X195896140Y-144865413D01*
X195826448Y-144860428D01*
X195770515Y-144818557D01*
X195753601Y-144787580D01*
X195723797Y-144707671D01*
X195723793Y-144707664D01*
X195637547Y-144592455D01*
X195637544Y-144592452D01*
X195522335Y-144506206D01*
X195522328Y-144506202D01*
X195387482Y-144455908D01*
X195387483Y-144455908D01*
X195327883Y-144449501D01*
X195327881Y-144449500D01*
X195327873Y-144449500D01*
X195327865Y-144449500D01*
X194245522Y-144449500D01*
X194178483Y-144429815D01*
X194132728Y-144377011D01*
X194122784Y-144307853D01*
X194135037Y-144269206D01*
X194145217Y-144249226D01*
X194145217Y-144249222D01*
X194145220Y-144249219D01*
X194208477Y-144054534D01*
X194240500Y-143852352D01*
X194240500Y-143647648D01*
X194236033Y-143619444D01*
X194208477Y-143445465D01*
X194167506Y-143319370D01*
X194145220Y-143250781D01*
X194145218Y-143250778D01*
X194145218Y-143250776D01*
X194081261Y-143125255D01*
X194052287Y-143068390D01*
X194044556Y-143057749D01*
X193931971Y-142902786D01*
X193787213Y-142758028D01*
X193621613Y-142637715D01*
X193621612Y-142637714D01*
X193621610Y-142637713D01*
X193502011Y-142576774D01*
X193451215Y-142528799D01*
X193434420Y-142460978D01*
X193456958Y-142394843D01*
X193470618Y-142378616D01*
X194285920Y-141563316D01*
X194364977Y-141426384D01*
X194405901Y-141273657D01*
X194405901Y-141115542D01*
X194405901Y-141107947D01*
X194405900Y-141107929D01*
X194405900Y-133386345D01*
X194405900Y-133386343D01*
X194364977Y-133233616D01*
X194360867Y-133226498D01*
X194344395Y-133158599D01*
X194367247Y-133092572D01*
X194422169Y-133049381D01*
X194468255Y-133040499D01*
X195327871Y-133040499D01*
X195327872Y-133040499D01*
X195387483Y-133034091D01*
X195522331Y-132983796D01*
X195637546Y-132897546D01*
X195723796Y-132782331D01*
X195751429Y-132708243D01*
X195753601Y-132702420D01*
X195795471Y-132646486D01*
X195860936Y-132622068D01*
X195929209Y-132636919D01*
X195957464Y-132658071D01*
X196007636Y-132708243D01*
X196007641Y-132708247D01*
X196109603Y-132782326D01*
X196185978Y-132837815D01*
X196306043Y-132898992D01*
X196382393Y-132937895D01*
X196382396Y-132937896D01*
X196477240Y-132968712D01*
X196592049Y-133006015D01*
X196809778Y-133040500D01*
X196809779Y-133040500D01*
X197030221Y-133040500D01*
X197030222Y-133040500D01*
X197247951Y-133006015D01*
X197457606Y-132937895D01*
X197654022Y-132837815D01*
X197832365Y-132708242D01*
X197988242Y-132552365D01*
X198117815Y-132374022D01*
X198217895Y-132177606D01*
X198286015Y-131967951D01*
X198320500Y-131750222D01*
X198320500Y-131529778D01*
X198286015Y-131312049D01*
X198217895Y-131102394D01*
X198217895Y-131102393D01*
X198132007Y-130933832D01*
X198117815Y-130905978D01*
X198064836Y-130833058D01*
X197988247Y-130727641D01*
X197988243Y-130727636D01*
X197832363Y-130571756D01*
X197832358Y-130571752D01*
X197654025Y-130442187D01*
X197654024Y-130442186D01*
X197654022Y-130442185D01*
X197536791Y-130382452D01*
X197457606Y-130342104D01*
X197457603Y-130342103D01*
X197247952Y-130273985D01*
X197076227Y-130246786D01*
X197013092Y-130216857D01*
X196976161Y-130157545D01*
X196977159Y-130087683D01*
X196981056Y-130076880D01*
X197019737Y-129983497D01*
X197050500Y-129828842D01*
X197050500Y-129671158D01*
X197050500Y-129671155D01*
X197050499Y-129671153D01*
X197019737Y-129516503D01*
X196992870Y-129451639D01*
X196959397Y-129370827D01*
X196959390Y-129370814D01*
X196871789Y-129239711D01*
X196871786Y-129239707D01*
X196760292Y-129128213D01*
X196760288Y-129128210D01*
X196629185Y-129040609D01*
X196629172Y-129040602D01*
X196483501Y-128980264D01*
X196483489Y-128980261D01*
X196328845Y-128949500D01*
X196328842Y-128949500D01*
X196171158Y-128949500D01*
X196171155Y-128949500D01*
X196016510Y-128980261D01*
X196016498Y-128980264D01*
X195870827Y-129040602D01*
X195870814Y-129040609D01*
X195739711Y-129128210D01*
X195739707Y-129128213D01*
X195628213Y-129239707D01*
X195628210Y-129239711D01*
X195540609Y-129370814D01*
X195540602Y-129370827D01*
X195480264Y-129516498D01*
X195480261Y-129516510D01*
X195449500Y-129671153D01*
X195448903Y-129677218D01*
X195447395Y-129677069D01*
X195429815Y-129736941D01*
X195413181Y-129757583D01*
X194967583Y-130203181D01*
X194906260Y-130236666D01*
X194879902Y-130239500D01*
X194225141Y-130239500D01*
X194158102Y-130219815D01*
X194112347Y-130167011D01*
X194102403Y-130097853D01*
X194114656Y-130059206D01*
X194145217Y-129999226D01*
X194145217Y-129999222D01*
X194145220Y-129999219D01*
X194208477Y-129804534D01*
X194240500Y-129602352D01*
X194240500Y-129397648D01*
X194236250Y-129370814D01*
X194208477Y-129195465D01*
X194158160Y-129040606D01*
X194145220Y-129000781D01*
X194145218Y-129000778D01*
X194145218Y-129000776D01*
X194101003Y-128914000D01*
X194052287Y-128818390D01*
X193995792Y-128740630D01*
X193931971Y-128652786D01*
X193787213Y-128508028D01*
X193621613Y-128387715D01*
X193621612Y-128387714D01*
X193621610Y-128387713D01*
X193538745Y-128345491D01*
X193439223Y-128294781D01*
X193244534Y-128231522D01*
X193069995Y-128203878D01*
X193042352Y-128199500D01*
X192837648Y-128199500D01*
X192813329Y-128203351D01*
X192635465Y-128231522D01*
X192440776Y-128294781D01*
X192258386Y-128387715D01*
X192092786Y-128508028D01*
X191948028Y-128652786D01*
X191827715Y-128818386D01*
X191734781Y-129000776D01*
X191671522Y-129195465D01*
X191639500Y-129397648D01*
X191639500Y-129602351D01*
X191671522Y-129804534D01*
X191734781Y-129999223D01*
X191794028Y-130115500D01*
X191820274Y-130167011D01*
X191827715Y-130181613D01*
X191948028Y-130347213D01*
X191948034Y-130347219D01*
X192092781Y-130491966D01*
X192258390Y-130612287D01*
X192271793Y-130619116D01*
X192322589Y-130667088D01*
X192339500Y-130729601D01*
X192339500Y-132513330D01*
X192339499Y-132513348D01*
X192339499Y-132679054D01*
X192339498Y-132679054D01*
X192380424Y-132831789D01*
X192380425Y-132831790D01*
X192399541Y-132864899D01*
X192399542Y-132864900D01*
X192459477Y-132968712D01*
X192459481Y-132968717D01*
X192578349Y-133087585D01*
X192578355Y-133087590D01*
X193168581Y-133677816D01*
X193202066Y-133739139D01*
X193204900Y-133765497D01*
X193204900Y-136104174D01*
X193185215Y-136171213D01*
X193132411Y-136216968D01*
X193063253Y-136226912D01*
X193042582Y-136222105D01*
X192883422Y-136170391D01*
X192694824Y-136140520D01*
X192655553Y-136134300D01*
X192424847Y-136134300D01*
X192397439Y-136138641D01*
X192196980Y-136170390D01*
X192037822Y-136222105D01*
X191977567Y-136241683D01*
X191977564Y-136241684D01*
X191977562Y-136241685D01*
X191772005Y-136346421D01*
X191687052Y-136408144D01*
X191585361Y-136482027D01*
X191585359Y-136482029D01*
X191585358Y-136482029D01*
X191422226Y-136645161D01*
X191381740Y-136700885D01*
X191364307Y-136714326D01*
X191365366Y-136715385D01*
X190564847Y-137515904D01*
X190541408Y-137428429D01*
X190482889Y-137327070D01*
X190400130Y-137244311D01*
X190298771Y-137185792D01*
X190211293Y-137162352D01*
X190971392Y-136402254D01*
X190971391Y-136402253D01*
X190895135Y-136346850D01*
X190689646Y-136242147D01*
X190470302Y-136170877D01*
X190242519Y-136134800D01*
X190011881Y-136134800D01*
X189784097Y-136170877D01*
X189564753Y-136242147D01*
X189359269Y-136346847D01*
X189283007Y-136402254D01*
X190043106Y-137162352D01*
X189955629Y-137185792D01*
X189854270Y-137244311D01*
X189771511Y-137327070D01*
X189712992Y-137428429D01*
X189689552Y-137515905D01*
X188929454Y-136755807D01*
X188874047Y-136832069D01*
X188769347Y-137037553D01*
X188698077Y-137256897D01*
X188662000Y-137484680D01*
X188662000Y-137715319D01*
X188698077Y-137943102D01*
X188769347Y-138162446D01*
X188874050Y-138367935D01*
X188929453Y-138444191D01*
X188929454Y-138444192D01*
X189689552Y-137684094D01*
X189712992Y-137771571D01*
X189771511Y-137872930D01*
X189854270Y-137955689D01*
X189955629Y-138014208D01*
X190043105Y-138037647D01*
X189283006Y-138797744D01*
X189359267Y-138853151D01*
X189564753Y-138957852D01*
X189784097Y-139029122D01*
X190011881Y-139065200D01*
X190242519Y-139065200D01*
X190470302Y-139029122D01*
X190689646Y-138957852D01*
X190895124Y-138853155D01*
X190895130Y-138853151D01*
X190971391Y-138797744D01*
X190971392Y-138797744D01*
X190211294Y-138037647D01*
X190298771Y-138014208D01*
X190400130Y-137955689D01*
X190482889Y-137872930D01*
X190541408Y-137771571D01*
X190564847Y-137684095D01*
X191365366Y-138484614D01*
X191365252Y-138484727D01*
X191381741Y-138499115D01*
X191419855Y-138551575D01*
X191422227Y-138554839D01*
X191585361Y-138717973D01*
X191772006Y-138853579D01*
X191977567Y-138958317D01*
X192155050Y-139015984D01*
X192196980Y-139029609D01*
X192310914Y-139047654D01*
X192424847Y-139065700D01*
X192424848Y-139065700D01*
X192655552Y-139065700D01*
X192655553Y-139065700D01*
X192883419Y-139029609D01*
X193042584Y-138977892D01*
X193112422Y-138975898D01*
X193172255Y-139011978D01*
X193203084Y-139074678D01*
X193204900Y-139095824D01*
X193204900Y-140894502D01*
X193185215Y-140961541D01*
X193168581Y-140982183D01*
X190894481Y-143256282D01*
X190894480Y-143256284D01*
X190852465Y-143329057D01*
X190815423Y-143393215D01*
X190774499Y-143545943D01*
X190774499Y-143545945D01*
X190774499Y-143714046D01*
X190774500Y-143714059D01*
X190774500Y-144049901D01*
X190754815Y-144116940D01*
X190738181Y-144137582D01*
X189239358Y-145636404D01*
X189178035Y-145669889D01*
X189108343Y-145664905D01*
X189052410Y-145623033D01*
X189048575Y-145617614D01*
X189021170Y-145576600D01*
X189021167Y-145576596D01*
X188878403Y-145433832D01*
X188878399Y-145433829D01*
X188710526Y-145321659D01*
X188710513Y-145321652D01*
X188523983Y-145244390D01*
X188523974Y-145244387D01*
X188325958Y-145205000D01*
X188250000Y-145205000D01*
X188250000Y-145949670D01*
X188230255Y-145929925D01*
X188144745Y-145880556D01*
X188049370Y-145855000D01*
X187950630Y-145855000D01*
X187855255Y-145880556D01*
X187769745Y-145929925D01*
X187750000Y-145949670D01*
X187750000Y-145205000D01*
X187674041Y-145205000D01*
X187476025Y-145244387D01*
X187476016Y-145244390D01*
X187289486Y-145321652D01*
X187289473Y-145321659D01*
X187121600Y-145433829D01*
X187121596Y-145433832D01*
X186978832Y-145576596D01*
X186978829Y-145576600D01*
X186866659Y-145744473D01*
X186866652Y-145744486D01*
X186789390Y-145931016D01*
X186789387Y-145931025D01*
X186779647Y-145980000D01*
X187719670Y-145980000D01*
X187699925Y-145999745D01*
X187650556Y-146085255D01*
X187625000Y-146180630D01*
X187625000Y-146279370D01*
X187650556Y-146374745D01*
X187699925Y-146460255D01*
X187714170Y-146474500D01*
X187673996Y-146474500D01*
X187658326Y-146477617D01*
X187634134Y-146480000D01*
X186779647Y-146480000D01*
X186789387Y-146528974D01*
X186789390Y-146528983D01*
X186866652Y-146715513D01*
X186866659Y-146715526D01*
X186920203Y-146795659D01*
X186941081Y-146862336D01*
X186922597Y-146929716D01*
X186920204Y-146933439D01*
X186866214Y-147014243D01*
X186788909Y-147200872D01*
X186788907Y-147200880D01*
X186749500Y-147398992D01*
X186749500Y-147601007D01*
X186788907Y-147799119D01*
X186788909Y-147799127D01*
X186822325Y-147879800D01*
X186829794Y-147949270D01*
X186810038Y-147994660D01*
X186810454Y-147994887D01*
X186807919Y-147999528D01*
X186807037Y-148001556D01*
X186806206Y-148002665D01*
X186806202Y-148002672D01*
X186755908Y-148137517D01*
X186749501Y-148197116D01*
X186749500Y-148197135D01*
X186749500Y-149342870D01*
X186749501Y-149342876D01*
X186755908Y-149402483D01*
X186806202Y-149537328D01*
X186806206Y-149537335D01*
X186892452Y-149652544D01*
X186892455Y-149652547D01*
X187007664Y-149738793D01*
X187007671Y-149738797D01*
X187142517Y-149789091D01*
X187142516Y-149789091D01*
X187149444Y-149789835D01*
X187202127Y-149795500D01*
X188797872Y-149795499D01*
X188857483Y-149789091D01*
X188992331Y-149738796D01*
X189107546Y-149652546D01*
X189193796Y-149537331D01*
X189244091Y-149402483D01*
X189250500Y-149342873D01*
X189250499Y-148650095D01*
X189270183Y-148583057D01*
X189286813Y-148562420D01*
X189608506Y-148240728D01*
X189608511Y-148240724D01*
X189618714Y-148230520D01*
X189618716Y-148230520D01*
X189730520Y-148118716D01*
X189797519Y-148002669D01*
X189809577Y-147981785D01*
X189850501Y-147829057D01*
X189850501Y-147670943D01*
X189850501Y-147663348D01*
X189850500Y-147663330D01*
X189850500Y-147340783D01*
X189870185Y-147273744D01*
X189886819Y-147253102D01*
X191753102Y-145386819D01*
X191814425Y-145353334D01*
X191840783Y-145350500D01*
X191853331Y-145350500D01*
X191853347Y-145350501D01*
X191860943Y-145350501D01*
X192019054Y-145350501D01*
X192019057Y-145350501D01*
X192171785Y-145309577D01*
X192221904Y-145280639D01*
X192308716Y-145230520D01*
X192420520Y-145118716D01*
X192420520Y-145118714D01*
X192430728Y-145108507D01*
X192430730Y-145108504D01*
X192495158Y-145044075D01*
X192556479Y-145010592D01*
X192621151Y-145013825D01*
X192635466Y-145018477D01*
X192837648Y-145050500D01*
X192855500Y-145050500D01*
X192922539Y-145070185D01*
X192968294Y-145122989D01*
X192979500Y-145174500D01*
X192979500Y-146797870D01*
X192979501Y-146797876D01*
X192985908Y-146857483D01*
X193036202Y-146992328D01*
X193036206Y-146992335D01*
X193122452Y-147107544D01*
X193122455Y-147107547D01*
X193237664Y-147193793D01*
X193237671Y-147193797D01*
X193372517Y-147244091D01*
X193372516Y-147244091D01*
X193379444Y-147244835D01*
X193432127Y-147250500D01*
X194879902Y-147250499D01*
X194946941Y-147270184D01*
X194967583Y-147286818D01*
X195295139Y-147614374D01*
X195295149Y-147614385D01*
X195299479Y-147618715D01*
X195299480Y-147618716D01*
X195411284Y-147730520D01*
X195498095Y-147780639D01*
X195498097Y-147780641D01*
X195530102Y-147799119D01*
X195548215Y-147809577D01*
X195700943Y-147850501D01*
X195700946Y-147850501D01*
X195866653Y-147850501D01*
X195866669Y-147850500D01*
X198913331Y-147850500D01*
X198913347Y-147850501D01*
X198920943Y-147850501D01*
X199079054Y-147850501D01*
X199079057Y-147850501D01*
X199231785Y-147809577D01*
X199281904Y-147780639D01*
X199368716Y-147730520D01*
X199480520Y-147618716D01*
X199480520Y-147618714D01*
X199490728Y-147608507D01*
X199490730Y-147608504D01*
X200918506Y-146180728D01*
X200918511Y-146180724D01*
X200928714Y-146170520D01*
X200928716Y-146170520D01*
X201040520Y-146058716D01*
X201097385Y-145960222D01*
X201119577Y-145921785D01*
X201155725Y-145786874D01*
X201192090Y-145727215D01*
X201254937Y-145696686D01*
X201324312Y-145704981D01*
X201378190Y-145749466D01*
X201399465Y-145816018D01*
X201399500Y-145818969D01*
X201399500Y-150218281D01*
X201379815Y-150285320D01*
X201327011Y-150331075D01*
X201257853Y-150341019D01*
X201256103Y-150340754D01*
X201215353Y-150334300D01*
X200984647Y-150334300D01*
X200957239Y-150338641D01*
X200756780Y-150370390D01*
X200585805Y-150425944D01*
X200537367Y-150441683D01*
X200537364Y-150441684D01*
X200537362Y-150441685D01*
X200331805Y-150546421D01*
X200225317Y-150623789D01*
X200145161Y-150682027D01*
X200145159Y-150682029D01*
X200145158Y-150682029D01*
X199982029Y-150845158D01*
X199982029Y-150845159D01*
X199982027Y-150845161D01*
X199953589Y-150884303D01*
X199846421Y-151031805D01*
X199741685Y-151237362D01*
X199670390Y-151456780D01*
X199634300Y-151684647D01*
X199634300Y-151915352D01*
X199670390Y-152143219D01*
X199703299Y-152244500D01*
X199741683Y-152362633D01*
X199846421Y-152568194D01*
X199982027Y-152754839D01*
X200145161Y-152917973D01*
X200331806Y-153053579D01*
X200537367Y-153158317D01*
X200714850Y-153215984D01*
X200756780Y-153229609D01*
X200870714Y-153247654D01*
X200984647Y-153265700D01*
X200984648Y-153265700D01*
X201215352Y-153265700D01*
X201215353Y-153265700D01*
X201443219Y-153229609D01*
X201662633Y-153158317D01*
X201868194Y-153053579D01*
X201902614Y-153028570D01*
X201968420Y-153005091D01*
X202036474Y-153020916D01*
X202085169Y-153071022D01*
X202099500Y-153128889D01*
X202099500Y-155575500D01*
X202079815Y-155642539D01*
X202027011Y-155688294D01*
X201975500Y-155699500D01*
X174224500Y-155699500D01*
X174157461Y-155679815D01*
X174111706Y-155627011D01*
X174100500Y-155575500D01*
X174100500Y-152831290D01*
X174120185Y-152764251D01*
X174172989Y-152718496D01*
X174242147Y-152708552D01*
X174305703Y-152737577D01*
X174318546Y-152751575D01*
X174319063Y-152751134D01*
X174322224Y-152754835D01*
X174322227Y-152754839D01*
X174485361Y-152917973D01*
X174672006Y-153053579D01*
X174877567Y-153158317D01*
X175055050Y-153215984D01*
X175096980Y-153229609D01*
X175210914Y-153247654D01*
X175324847Y-153265700D01*
X175324848Y-153265700D01*
X175555552Y-153265700D01*
X175555553Y-153265700D01*
X175783419Y-153229609D01*
X176002833Y-153158317D01*
X176208394Y-153053579D01*
X176395039Y-152917973D01*
X176558173Y-152754839D01*
X176693779Y-152568194D01*
X176798517Y-152362633D01*
X176869809Y-152143219D01*
X176905900Y-151915353D01*
X176905900Y-151684647D01*
X182534300Y-151684647D01*
X182534300Y-151915352D01*
X182570390Y-152143219D01*
X182603299Y-152244500D01*
X182641683Y-152362633D01*
X182746421Y-152568194D01*
X182882027Y-152754839D01*
X183045161Y-152917973D01*
X183231806Y-153053579D01*
X183437367Y-153158317D01*
X183614850Y-153215984D01*
X183656780Y-153229609D01*
X183770714Y-153247654D01*
X183884647Y-153265700D01*
X183884648Y-153265700D01*
X184115352Y-153265700D01*
X184115353Y-153265700D01*
X184343219Y-153229609D01*
X184562633Y-153158317D01*
X184768194Y-153053579D01*
X184954839Y-152917973D01*
X185117973Y-152754839D01*
X185162328Y-152693789D01*
X185166723Y-152688920D01*
X185176589Y-152682857D01*
X185975352Y-151884094D01*
X185998792Y-151971571D01*
X186057311Y-152072930D01*
X186140070Y-152155689D01*
X186241429Y-152214208D01*
X186328905Y-152237647D01*
X185568806Y-152997744D01*
X185645067Y-153053151D01*
X185850553Y-153157852D01*
X186069897Y-153229122D01*
X186297681Y-153265200D01*
X186528319Y-153265200D01*
X186756102Y-153229122D01*
X186975446Y-153157852D01*
X187180924Y-153053155D01*
X187180930Y-153053151D01*
X187257191Y-152997744D01*
X187257192Y-152997744D01*
X186497094Y-152237647D01*
X186584571Y-152214208D01*
X186685930Y-152155689D01*
X186768689Y-152072930D01*
X186827208Y-151971571D01*
X186850647Y-151884095D01*
X187610744Y-152644192D01*
X187610744Y-152644191D01*
X187666151Y-152567930D01*
X187666155Y-152567924D01*
X187770852Y-152362446D01*
X187842122Y-152143102D01*
X187878200Y-151915319D01*
X187878200Y-151684680D01*
X188662000Y-151684680D01*
X188662000Y-151915319D01*
X188698077Y-152143102D01*
X188769347Y-152362446D01*
X188874050Y-152567935D01*
X188929453Y-152644191D01*
X188929454Y-152644192D01*
X189689552Y-151884094D01*
X189712992Y-151971571D01*
X189771511Y-152072930D01*
X189854270Y-152155689D01*
X189955629Y-152214208D01*
X190043105Y-152237647D01*
X189283006Y-152997744D01*
X189359267Y-153053151D01*
X189564753Y-153157852D01*
X189784097Y-153229122D01*
X190011881Y-153265200D01*
X190242519Y-153265200D01*
X190470302Y-153229122D01*
X190689646Y-153157852D01*
X190895124Y-153053155D01*
X190895130Y-153053151D01*
X190971391Y-152997744D01*
X190971392Y-152997744D01*
X190211294Y-152237647D01*
X190298771Y-152214208D01*
X190400130Y-152155689D01*
X190482889Y-152072930D01*
X190541408Y-151971571D01*
X190564847Y-151884095D01*
X191365366Y-152684614D01*
X191365252Y-152684727D01*
X191381741Y-152699115D01*
X191419855Y-152751575D01*
X191422227Y-152754839D01*
X191585361Y-152917973D01*
X191772006Y-153053579D01*
X191977567Y-153158317D01*
X192155050Y-153215984D01*
X192196980Y-153229609D01*
X192310914Y-153247654D01*
X192424847Y-153265700D01*
X192424848Y-153265700D01*
X192655552Y-153265700D01*
X192655553Y-153265700D01*
X192883419Y-153229609D01*
X193102833Y-153158317D01*
X193308394Y-153053579D01*
X193495039Y-152917973D01*
X193658173Y-152754839D01*
X193793779Y-152568194D01*
X193898517Y-152362633D01*
X193969809Y-152143219D01*
X194005900Y-151915353D01*
X194005900Y-151684647D01*
X193980942Y-151527070D01*
X193969809Y-151456780D01*
X193946743Y-151385792D01*
X193898517Y-151237367D01*
X193793779Y-151031806D01*
X193658173Y-150845161D01*
X193495039Y-150682027D01*
X193308394Y-150546421D01*
X193102833Y-150441683D01*
X193012464Y-150412320D01*
X192883419Y-150370390D01*
X192686708Y-150339234D01*
X192655553Y-150334300D01*
X192424847Y-150334300D01*
X192397439Y-150338641D01*
X192196980Y-150370390D01*
X192026005Y-150425944D01*
X191977567Y-150441683D01*
X191977564Y-150441684D01*
X191977562Y-150441685D01*
X191772005Y-150546421D01*
X191665517Y-150623789D01*
X191585361Y-150682027D01*
X191585359Y-150682029D01*
X191585358Y-150682029D01*
X191422226Y-150845161D01*
X191381740Y-150900885D01*
X191364307Y-150914326D01*
X191365366Y-150915385D01*
X190564847Y-151715904D01*
X190541408Y-151628429D01*
X190482889Y-151527070D01*
X190400130Y-151444311D01*
X190298771Y-151385792D01*
X190211293Y-151362352D01*
X190971392Y-150602254D01*
X190971391Y-150602253D01*
X190895135Y-150546850D01*
X190689646Y-150442147D01*
X190470302Y-150370877D01*
X190242519Y-150334800D01*
X190011881Y-150334800D01*
X189784097Y-150370877D01*
X189564753Y-150442147D01*
X189359269Y-150546847D01*
X189283007Y-150602254D01*
X190043106Y-151362352D01*
X189955629Y-151385792D01*
X189854270Y-151444311D01*
X189771511Y-151527070D01*
X189712992Y-151628429D01*
X189689552Y-151715905D01*
X188929454Y-150955807D01*
X188874047Y-151032069D01*
X188769347Y-151237553D01*
X188698077Y-151456897D01*
X188662000Y-151684680D01*
X187878200Y-151684680D01*
X187842122Y-151456897D01*
X187770852Y-151237553D01*
X187666151Y-151032067D01*
X187610744Y-150955807D01*
X187610744Y-150955806D01*
X186850647Y-151715904D01*
X186827208Y-151628429D01*
X186768689Y-151527070D01*
X186685930Y-151444311D01*
X186584571Y-151385792D01*
X186497093Y-151362352D01*
X187257192Y-150602254D01*
X187257191Y-150602253D01*
X187180935Y-150546850D01*
X186975446Y-150442147D01*
X186756102Y-150370877D01*
X186528319Y-150334800D01*
X186297681Y-150334800D01*
X186069897Y-150370877D01*
X185850553Y-150442147D01*
X185645069Y-150546847D01*
X185568807Y-150602254D01*
X186328906Y-151362352D01*
X186241429Y-151385792D01*
X186140070Y-151444311D01*
X186057311Y-151527070D01*
X185998792Y-151628429D01*
X185975352Y-151715905D01*
X185184300Y-150924852D01*
X185166722Y-150911078D01*
X185162325Y-150906206D01*
X185117973Y-150845161D01*
X184954839Y-150682027D01*
X184768194Y-150546421D01*
X184562633Y-150441683D01*
X184472264Y-150412320D01*
X184343219Y-150370390D01*
X184146508Y-150339234D01*
X184115353Y-150334300D01*
X183884647Y-150334300D01*
X183857239Y-150338641D01*
X183656780Y-150370390D01*
X183485805Y-150425944D01*
X183437367Y-150441683D01*
X183437364Y-150441684D01*
X183437362Y-150441685D01*
X183231805Y-150546421D01*
X183125317Y-150623789D01*
X183045161Y-150682027D01*
X183045159Y-150682029D01*
X183045158Y-150682029D01*
X182882029Y-150845158D01*
X182882029Y-150845159D01*
X182882027Y-150845161D01*
X182853589Y-150884303D01*
X182746421Y-151031805D01*
X182641685Y-151237362D01*
X182570390Y-151456780D01*
X182534300Y-151684647D01*
X176905900Y-151684647D01*
X176880942Y-151527070D01*
X176869809Y-151456780D01*
X176846743Y-151385792D01*
X176798517Y-151237367D01*
X176693779Y-151031806D01*
X176558173Y-150845161D01*
X176395039Y-150682027D01*
X176208394Y-150546421D01*
X176002833Y-150441683D01*
X175912464Y-150412320D01*
X175783419Y-150370390D01*
X175586708Y-150339234D01*
X175555553Y-150334300D01*
X175324847Y-150334300D01*
X175297439Y-150338641D01*
X175096980Y-150370390D01*
X174926005Y-150425944D01*
X174877567Y-150441683D01*
X174877564Y-150441684D01*
X174877562Y-150441685D01*
X174672005Y-150546421D01*
X174565517Y-150623789D01*
X174485361Y-150682027D01*
X174485359Y-150682029D01*
X174485358Y-150682029D01*
X174322229Y-150845158D01*
X174319063Y-150848866D01*
X174317338Y-150847393D01*
X174269378Y-150884303D01*
X174199759Y-150890216D01*
X174137995Y-150857551D01*
X174103696Y-150796679D01*
X174100500Y-150768709D01*
X174100500Y-145739778D01*
X178213700Y-145739778D01*
X178213700Y-145960221D01*
X178248185Y-146177952D01*
X178316303Y-146387603D01*
X178316304Y-146387606D01*
X178380660Y-146513909D01*
X178414052Y-146579444D01*
X178416387Y-146584025D01*
X178545952Y-146762358D01*
X178545956Y-146762363D01*
X178701836Y-146918243D01*
X178701841Y-146918247D01*
X178803806Y-146992328D01*
X178880178Y-147047815D01*
X179008575Y-147113237D01*
X179076593Y-147147895D01*
X179076596Y-147147896D01*
X179181421Y-147181955D01*
X179286249Y-147216015D01*
X179503978Y-147250500D01*
X179503979Y-147250500D01*
X179724421Y-147250500D01*
X179724422Y-147250500D01*
X179942151Y-147216015D01*
X180151806Y-147147895D01*
X180348222Y-147047815D01*
X180526565Y-146918242D01*
X180576736Y-146868070D01*
X180638057Y-146834586D01*
X180707748Y-146839570D01*
X180763682Y-146881441D01*
X180780598Y-146912419D01*
X180810402Y-146992328D01*
X180810406Y-146992335D01*
X180896652Y-147107544D01*
X180896655Y-147107547D01*
X181011864Y-147193793D01*
X181011871Y-147193797D01*
X181146717Y-147244091D01*
X181146716Y-147244091D01*
X181153644Y-147244835D01*
X181206327Y-147250500D01*
X183102072Y-147250499D01*
X183161683Y-147244091D01*
X183296531Y-147193796D01*
X183411746Y-147107546D01*
X183497996Y-146992331D01*
X183548291Y-146857483D01*
X183554700Y-146797873D01*
X183554699Y-145921786D01*
X183554699Y-145173456D01*
X183574383Y-145106417D01*
X183627187Y-145060662D01*
X183659301Y-145050983D01*
X183662351Y-145050500D01*
X183662352Y-145050500D01*
X183864534Y-145018477D01*
X184059219Y-144955220D01*
X184241610Y-144862287D01*
X184352450Y-144781758D01*
X184407213Y-144741971D01*
X184407215Y-144741968D01*
X184407219Y-144741966D01*
X184551966Y-144597219D01*
X184551968Y-144597215D01*
X184551971Y-144597213D01*
X184618093Y-144506202D01*
X184672287Y-144431610D01*
X184765220Y-144249219D01*
X184828477Y-144054534D01*
X184860500Y-143852352D01*
X184860500Y-143647648D01*
X184856033Y-143619444D01*
X184838076Y-143506068D01*
X184834361Y-143482620D01*
X184828477Y-143445466D01*
X184765220Y-143250781D01*
X184765218Y-143250778D01*
X184765218Y-143250776D01*
X184701261Y-143125255D01*
X184672287Y-143068390D01*
X184664556Y-143057749D01*
X184551971Y-142902786D01*
X184407213Y-142758028D01*
X184241613Y-142637715D01*
X184241612Y-142637714D01*
X184241610Y-142637713D01*
X184184653Y-142608691D01*
X184059223Y-142544781D01*
X183864534Y-142481522D01*
X183689995Y-142453878D01*
X183662352Y-142449500D01*
X183457648Y-142449500D01*
X183433329Y-142453351D01*
X183255465Y-142481522D01*
X183060776Y-142544781D01*
X182878386Y-142637715D01*
X182712786Y-142758028D01*
X182568028Y-142902786D01*
X182447715Y-143068386D01*
X182354781Y-143250776D01*
X182291522Y-143445465D01*
X182259500Y-143647648D01*
X182259500Y-143852351D01*
X182291522Y-144054534D01*
X182296173Y-144068848D01*
X182298165Y-144138690D01*
X182265921Y-144194842D01*
X182047582Y-144413181D01*
X181986259Y-144446666D01*
X181959901Y-144449500D01*
X181206329Y-144449500D01*
X181206323Y-144449501D01*
X181146716Y-144455908D01*
X181011871Y-144506202D01*
X181011864Y-144506206D01*
X180896655Y-144592452D01*
X180896652Y-144592455D01*
X180810406Y-144707664D01*
X180810403Y-144707669D01*
X180780598Y-144787581D01*
X180738726Y-144843514D01*
X180673262Y-144867931D01*
X180604989Y-144853079D01*
X180576735Y-144831928D01*
X180526563Y-144781756D01*
X180526558Y-144781752D01*
X180348225Y-144652187D01*
X180348224Y-144652186D01*
X180348222Y-144652185D01*
X180285296Y-144620122D01*
X180151806Y-144552104D01*
X180151803Y-144552103D01*
X179942152Y-144483985D01*
X179833286Y-144466742D01*
X179724422Y-144449500D01*
X179503978Y-144449500D01*
X179431401Y-144460995D01*
X179286247Y-144483985D01*
X179076596Y-144552103D01*
X179076593Y-144552104D01*
X178880174Y-144652187D01*
X178701841Y-144781752D01*
X178701836Y-144781756D01*
X178545956Y-144937636D01*
X178545952Y-144937641D01*
X178416387Y-145115974D01*
X178316304Y-145312393D01*
X178316303Y-145312396D01*
X178248185Y-145522047D01*
X178213700Y-145739778D01*
X174100500Y-145739778D01*
X174100500Y-143647648D01*
X174639500Y-143647648D01*
X174639500Y-143852351D01*
X174671522Y-144054534D01*
X174734781Y-144249223D01*
X174798691Y-144374653D01*
X174826798Y-144429815D01*
X174827715Y-144431613D01*
X174948028Y-144597213D01*
X175092786Y-144741971D01*
X175198200Y-144818557D01*
X175258390Y-144862287D01*
X175339499Y-144903614D01*
X175440776Y-144955218D01*
X175440778Y-144955218D01*
X175440781Y-144955220D01*
X175515818Y-144979601D01*
X175635465Y-145018477D01*
X175736557Y-145034488D01*
X175837648Y-145050500D01*
X175837649Y-145050500D01*
X176042351Y-145050500D01*
X176042352Y-145050500D01*
X176244534Y-145018477D01*
X176439219Y-144955220D01*
X176621610Y-144862287D01*
X176732450Y-144781758D01*
X176787213Y-144741971D01*
X176787215Y-144741968D01*
X176787219Y-144741966D01*
X176931966Y-144597219D01*
X176931968Y-144597215D01*
X176931971Y-144597213D01*
X176998093Y-144506202D01*
X177052287Y-144431610D01*
X177145220Y-144249219D01*
X177208477Y-144054534D01*
X177240500Y-143852352D01*
X177240500Y-143647648D01*
X177228213Y-143570075D01*
X177208478Y-143445472D01*
X177208477Y-143445471D01*
X177208477Y-143445466D01*
X177203825Y-143431151D01*
X177201832Y-143361312D01*
X177234075Y-143305158D01*
X179172416Y-141366819D01*
X179233739Y-141333334D01*
X179260097Y-141330500D01*
X187407885Y-141330500D01*
X187474924Y-141350185D01*
X187520679Y-141402989D01*
X187524067Y-141411167D01*
X187556202Y-141497328D01*
X187556203Y-141497330D01*
X187556204Y-141497331D01*
X187557028Y-141498432D01*
X187557509Y-141499721D01*
X187560454Y-141505114D01*
X187559678Y-141505537D01*
X187581448Y-141563895D01*
X187572325Y-141620198D01*
X187538910Y-141700868D01*
X187538907Y-141700880D01*
X187499500Y-141898992D01*
X187499500Y-142101007D01*
X187538907Y-142299119D01*
X187538909Y-142299127D01*
X187616212Y-142485754D01*
X187670204Y-142566558D01*
X187691081Y-142633235D01*
X187672596Y-142700615D01*
X187670204Y-142704337D01*
X187616655Y-142784479D01*
X187616654Y-142784481D01*
X187539390Y-142971016D01*
X187539387Y-142971025D01*
X187529647Y-143020000D01*
X188384134Y-143020000D01*
X188408326Y-143022383D01*
X188411123Y-143022939D01*
X188423995Y-143025499D01*
X188423996Y-143025500D01*
X188423997Y-143025500D01*
X188464170Y-143025500D01*
X188449925Y-143039745D01*
X188400556Y-143125255D01*
X188375000Y-143220630D01*
X188375000Y-143319370D01*
X188400556Y-143414745D01*
X188449925Y-143500255D01*
X188469670Y-143520000D01*
X187529647Y-143520000D01*
X187539387Y-143568974D01*
X187539390Y-143568983D01*
X187616652Y-143755513D01*
X187616659Y-143755526D01*
X187728829Y-143923399D01*
X187728832Y-143923403D01*
X187871596Y-144066167D01*
X187871600Y-144066170D01*
X188039473Y-144178340D01*
X188039486Y-144178347D01*
X188226016Y-144255609D01*
X188226025Y-144255612D01*
X188424041Y-144294999D01*
X188424045Y-144295000D01*
X188500000Y-144295000D01*
X188500000Y-143550330D01*
X188519745Y-143570075D01*
X188605255Y-143619444D01*
X188700630Y-143645000D01*
X188799370Y-143645000D01*
X188894745Y-143619444D01*
X188980255Y-143570075D01*
X189000000Y-143550330D01*
X189000000Y-144295000D01*
X189075955Y-144295000D01*
X189075958Y-144294999D01*
X189273974Y-144255612D01*
X189273983Y-144255609D01*
X189460513Y-144178347D01*
X189460526Y-144178340D01*
X189628399Y-144066170D01*
X189628403Y-144066167D01*
X189771167Y-143923403D01*
X189771170Y-143923399D01*
X189883340Y-143755526D01*
X189883347Y-143755513D01*
X189960609Y-143568983D01*
X189960612Y-143568974D01*
X189970353Y-143520000D01*
X189030330Y-143520000D01*
X189050075Y-143500255D01*
X189099444Y-143414745D01*
X189125000Y-143319370D01*
X189125000Y-143220630D01*
X189099444Y-143125255D01*
X189050075Y-143039745D01*
X189035830Y-143025500D01*
X189076004Y-143025500D01*
X189076004Y-143025499D01*
X189089473Y-143022820D01*
X189091674Y-143022383D01*
X189115866Y-143020000D01*
X189970353Y-143020000D01*
X189960612Y-142971025D01*
X189960609Y-142971016D01*
X189883347Y-142784486D01*
X189883343Y-142784479D01*
X189829795Y-142704340D01*
X189808917Y-142637662D01*
X189827401Y-142570282D01*
X189829733Y-142566652D01*
X189883786Y-142485756D01*
X189961091Y-142299127D01*
X190000500Y-142101003D01*
X190000500Y-141898997D01*
X189961091Y-141700873D01*
X189927673Y-141620198D01*
X189920205Y-141550730D01*
X189939964Y-141505340D01*
X189939547Y-141505112D01*
X189942095Y-141500444D01*
X189942972Y-141498431D01*
X189943796Y-141497331D01*
X189994091Y-141362483D01*
X190000500Y-141302873D01*
X190000499Y-140157128D01*
X189994091Y-140097517D01*
X189975933Y-140048834D01*
X189943797Y-139962671D01*
X189943793Y-139962664D01*
X189857547Y-139847455D01*
X189857544Y-139847452D01*
X189742335Y-139761206D01*
X189742328Y-139761202D01*
X189607482Y-139710908D01*
X189607483Y-139710908D01*
X189547883Y-139704501D01*
X189547881Y-139704500D01*
X189547873Y-139704500D01*
X189547864Y-139704500D01*
X187952129Y-139704500D01*
X187952123Y-139704501D01*
X187892516Y-139710908D01*
X187757671Y-139761202D01*
X187757664Y-139761206D01*
X187642455Y-139847452D01*
X187642452Y-139847455D01*
X187556206Y-139962664D01*
X187556203Y-139962669D01*
X187524066Y-140048834D01*
X187482194Y-140104767D01*
X187416730Y-140129184D01*
X187407884Y-140129500D01*
X179046669Y-140129500D01*
X179046653Y-140129499D01*
X179039057Y-140129499D01*
X178880943Y-140129499D01*
X178777832Y-140157128D01*
X178728210Y-140170424D01*
X178728209Y-140170425D01*
X178678096Y-140199359D01*
X178678095Y-140199360D01*
X178634689Y-140224420D01*
X178591285Y-140249479D01*
X178591282Y-140249481D01*
X178479478Y-140361286D01*
X176384842Y-142455921D01*
X176323519Y-142489406D01*
X176258848Y-142486173D01*
X176244534Y-142481522D01*
X176069995Y-142453878D01*
X176042352Y-142449500D01*
X175837648Y-142449500D01*
X175813329Y-142453351D01*
X175635465Y-142481522D01*
X175440776Y-142544781D01*
X175258386Y-142637715D01*
X175092786Y-142758028D01*
X174948028Y-142902786D01*
X174827715Y-143068386D01*
X174734781Y-143250776D01*
X174671522Y-143445465D01*
X174639500Y-143647648D01*
X174100500Y-143647648D01*
X174100500Y-138631290D01*
X174120185Y-138564251D01*
X174172989Y-138518496D01*
X174242147Y-138508552D01*
X174305703Y-138537577D01*
X174318546Y-138551575D01*
X174319063Y-138551134D01*
X174322224Y-138554835D01*
X174322227Y-138554839D01*
X174485361Y-138717973D01*
X174672006Y-138853579D01*
X174877567Y-138958317D01*
X175055050Y-139015984D01*
X175096980Y-139029609D01*
X175210914Y-139047654D01*
X175324847Y-139065700D01*
X175324848Y-139065700D01*
X175555552Y-139065700D01*
X175555553Y-139065700D01*
X175783419Y-139029609D01*
X176002833Y-138958317D01*
X176208394Y-138853579D01*
X176395039Y-138717973D01*
X176558173Y-138554839D01*
X176693779Y-138368194D01*
X176798517Y-138162633D01*
X176869809Y-137943219D01*
X176905900Y-137715353D01*
X176905900Y-137484647D01*
X182534300Y-137484647D01*
X182534300Y-137715352D01*
X182570390Y-137943219D01*
X182603299Y-138044500D01*
X182641683Y-138162633D01*
X182746421Y-138368194D01*
X182882027Y-138554839D01*
X183045161Y-138717973D01*
X183231806Y-138853579D01*
X183437367Y-138958317D01*
X183614850Y-139015984D01*
X183656780Y-139029609D01*
X183770714Y-139047654D01*
X183884647Y-139065700D01*
X183884648Y-139065700D01*
X184115352Y-139065700D01*
X184115353Y-139065700D01*
X184343219Y-139029609D01*
X184562633Y-138958317D01*
X184768194Y-138853579D01*
X184954839Y-138717973D01*
X185117973Y-138554839D01*
X185162328Y-138493789D01*
X185166723Y-138488920D01*
X185176589Y-138482857D01*
X185975352Y-137684094D01*
X185998792Y-137771571D01*
X186057311Y-137872930D01*
X186140070Y-137955689D01*
X186241429Y-138014208D01*
X186328905Y-138037647D01*
X185568806Y-138797744D01*
X185645067Y-138853151D01*
X185850553Y-138957852D01*
X186069897Y-139029122D01*
X186297681Y-139065200D01*
X186528319Y-139065200D01*
X186756102Y-139029122D01*
X186975446Y-138957852D01*
X187180924Y-138853155D01*
X187180930Y-138853151D01*
X187257191Y-138797744D01*
X187257192Y-138797744D01*
X186497094Y-138037647D01*
X186584571Y-138014208D01*
X186685930Y-137955689D01*
X186768689Y-137872930D01*
X186827208Y-137771571D01*
X186850647Y-137684095D01*
X187610744Y-138444192D01*
X187610744Y-138444191D01*
X187666151Y-138367930D01*
X187666155Y-138367924D01*
X187770852Y-138162446D01*
X187842122Y-137943102D01*
X187878200Y-137715319D01*
X187878200Y-137484680D01*
X187842122Y-137256897D01*
X187770852Y-137037553D01*
X187666151Y-136832067D01*
X187610744Y-136755807D01*
X187610744Y-136755806D01*
X186850647Y-137515904D01*
X186827208Y-137428429D01*
X186768689Y-137327070D01*
X186685930Y-137244311D01*
X186584571Y-137185792D01*
X186497093Y-137162352D01*
X187257192Y-136402254D01*
X187257191Y-136402253D01*
X187180935Y-136346850D01*
X186975446Y-136242147D01*
X186756102Y-136170877D01*
X186528319Y-136134800D01*
X186297681Y-136134800D01*
X186069897Y-136170877D01*
X185850553Y-136242147D01*
X185645069Y-136346847D01*
X185568807Y-136402254D01*
X186328906Y-137162352D01*
X186241429Y-137185792D01*
X186140070Y-137244311D01*
X186057311Y-137327070D01*
X185998792Y-137428429D01*
X185975352Y-137515905D01*
X185184300Y-136724852D01*
X185166722Y-136711078D01*
X185162325Y-136706206D01*
X185117973Y-136645161D01*
X184954839Y-136482027D01*
X184768194Y-136346421D01*
X184562633Y-136241683D01*
X184449944Y-136205068D01*
X184343219Y-136170390D01*
X184146508Y-136139234D01*
X184115353Y-136134300D01*
X183884647Y-136134300D01*
X183857239Y-136138641D01*
X183656780Y-136170390D01*
X183497622Y-136222105D01*
X183437367Y-136241683D01*
X183437364Y-136241684D01*
X183437362Y-136241685D01*
X183231805Y-136346421D01*
X183146852Y-136408144D01*
X183045161Y-136482027D01*
X183045159Y-136482029D01*
X183045158Y-136482029D01*
X182882029Y-136645158D01*
X182882029Y-136645159D01*
X182882027Y-136645161D01*
X182853589Y-136684303D01*
X182746421Y-136831805D01*
X182641685Y-137037362D01*
X182570390Y-137256780D01*
X182534300Y-137484647D01*
X176905900Y-137484647D01*
X176869809Y-137256781D01*
X176835129Y-137150051D01*
X176833135Y-137080211D01*
X176865378Y-137024055D01*
X177730520Y-136158916D01*
X177809577Y-136021984D01*
X177850501Y-135869257D01*
X177850501Y-135711142D01*
X177850501Y-135703547D01*
X177850500Y-135703529D01*
X177850500Y-116149060D01*
X177850501Y-116149047D01*
X177850501Y-115980944D01*
X177839274Y-115939046D01*
X177809577Y-115828216D01*
X177809573Y-115828209D01*
X177730524Y-115691290D01*
X177730518Y-115691282D01*
X177234077Y-115194841D01*
X177200592Y-115133518D01*
X177203828Y-115068841D01*
X177208477Y-115054534D01*
X177240500Y-114852352D01*
X177240500Y-114647648D01*
X177208477Y-114445466D01*
X177203825Y-114431151D01*
X177201832Y-114361312D01*
X177234075Y-114305158D01*
X180230520Y-111308716D01*
X180309577Y-111171784D01*
X180350501Y-111019057D01*
X180350501Y-110860942D01*
X180350501Y-110853347D01*
X180350500Y-110853329D01*
X180350500Y-109184647D01*
X181172300Y-109184647D01*
X181172300Y-109415352D01*
X181208390Y-109643219D01*
X181241299Y-109744500D01*
X181279683Y-109862633D01*
X181384421Y-110068194D01*
X181520027Y-110254839D01*
X181683161Y-110417973D01*
X181869806Y-110553579D01*
X182075367Y-110658317D01*
X182252850Y-110715984D01*
X182294780Y-110729609D01*
X182408714Y-110747654D01*
X182522647Y-110765700D01*
X182522648Y-110765700D01*
X182753352Y-110765700D01*
X182753353Y-110765700D01*
X182981219Y-110729609D01*
X183200633Y-110658317D01*
X183406194Y-110553579D01*
X183592839Y-110417973D01*
X183755973Y-110254839D01*
X183891579Y-110068194D01*
X183996317Y-109862633D01*
X184067609Y-109643219D01*
X184103700Y-109415353D01*
X184103700Y-109184647D01*
X184078742Y-109027070D01*
X184067609Y-108956780D01*
X184044543Y-108885792D01*
X183996317Y-108737367D01*
X183891579Y-108531806D01*
X183755973Y-108345161D01*
X183592839Y-108182027D01*
X183406194Y-108046421D01*
X183200633Y-107941683D01*
X183110264Y-107912320D01*
X182981219Y-107870390D01*
X182784508Y-107839234D01*
X182753353Y-107834300D01*
X182522647Y-107834300D01*
X182495239Y-107838641D01*
X182294780Y-107870390D01*
X182123805Y-107925944D01*
X182075367Y-107941683D01*
X182075364Y-107941684D01*
X182075362Y-107941685D01*
X181869805Y-108046421D01*
X181763317Y-108123789D01*
X181683161Y-108182027D01*
X181683159Y-108182029D01*
X181683158Y-108182029D01*
X181520029Y-108345158D01*
X181520029Y-108345159D01*
X181520027Y-108345161D01*
X181483621Y-108395270D01*
X181384421Y-108531805D01*
X181279685Y-108737362D01*
X181279684Y-108737364D01*
X181279683Y-108737367D01*
X181264029Y-108785546D01*
X181208390Y-108956780D01*
X181172300Y-109184647D01*
X180350500Y-109184647D01*
X180350500Y-102079765D01*
X180370185Y-102012726D01*
X180371398Y-102010874D01*
X180459390Y-101879185D01*
X180459390Y-101879184D01*
X180459394Y-101879179D01*
X180460085Y-101877512D01*
X180483385Y-101821260D01*
X180519737Y-101733497D01*
X180534957Y-101656977D01*
X180567341Y-101595069D01*
X180628056Y-101560495D01*
X180697826Y-101564234D01*
G37*
%TD.AperFunction*%
%TA.AperFunction,Conductor*%
G36*
X200257384Y-138799508D02*
G01*
X200331806Y-138853579D01*
X200537367Y-138958317D01*
X200714850Y-139015984D01*
X200756780Y-139029609D01*
X200870714Y-139047654D01*
X200984647Y-139065700D01*
X200984648Y-139065700D01*
X201215352Y-139065700D01*
X201215353Y-139065700D01*
X201443219Y-139029609D01*
X201662633Y-138958317D01*
X201868194Y-138853579D01*
X201902614Y-138828570D01*
X201968420Y-138805091D01*
X202036474Y-138820916D01*
X202085169Y-138871022D01*
X202099500Y-138928889D01*
X202099500Y-142200903D01*
X202079815Y-142267942D01*
X202027011Y-142313697D01*
X201957853Y-142323641D01*
X201894297Y-142294616D01*
X201887819Y-142288584D01*
X200096819Y-140497584D01*
X200063334Y-140436261D01*
X200060500Y-140409903D01*
X200060500Y-138899827D01*
X200080185Y-138832788D01*
X200132989Y-138787033D01*
X200202147Y-138777089D01*
X200257384Y-138799508D01*
G37*
%TD.AperFunction*%
%TA.AperFunction,Conductor*%
G36*
X174305703Y-124237577D02*
G01*
X174318546Y-124251575D01*
X174319063Y-124251134D01*
X174322225Y-124254836D01*
X174322227Y-124254839D01*
X174485361Y-124417973D01*
X174672006Y-124553579D01*
X174877567Y-124658317D01*
X175055050Y-124715984D01*
X175096980Y-124729609D01*
X175199616Y-124745865D01*
X175324847Y-124765700D01*
X175324848Y-124765700D01*
X175555552Y-124765700D01*
X175555553Y-124765700D01*
X175783419Y-124729609D01*
X175977183Y-124666650D01*
X176047021Y-124664656D01*
X176106854Y-124700736D01*
X176137683Y-124763436D01*
X176139499Y-124784582D01*
X176139499Y-126827060D01*
X176119814Y-126894099D01*
X176103180Y-126914741D01*
X176028213Y-126989707D01*
X176028210Y-126989711D01*
X175940609Y-127120814D01*
X175940602Y-127120827D01*
X175880264Y-127266498D01*
X175880261Y-127266510D01*
X175849500Y-127421153D01*
X175849500Y-127578846D01*
X175880261Y-127733489D01*
X175880264Y-127733501D01*
X175940602Y-127879172D01*
X175940609Y-127879185D01*
X176025752Y-128006609D01*
X176046630Y-128073286D01*
X176028146Y-128140666D01*
X175976167Y-128187357D01*
X175922650Y-128199500D01*
X175837648Y-128199500D01*
X175813329Y-128203351D01*
X175635465Y-128231522D01*
X175440776Y-128294781D01*
X175258386Y-128387715D01*
X175092786Y-128508028D01*
X174948028Y-128652786D01*
X174827715Y-128818386D01*
X174734781Y-129000776D01*
X174671522Y-129195465D01*
X174639500Y-129397648D01*
X174639500Y-129602351D01*
X174671522Y-129804534D01*
X174734781Y-129999223D01*
X174794028Y-130115500D01*
X174820274Y-130167011D01*
X174827715Y-130181613D01*
X174948028Y-130347213D01*
X175092786Y-130491971D01*
X175223204Y-130586723D01*
X175258390Y-130612287D01*
X175365943Y-130667088D01*
X175440776Y-130705218D01*
X175440778Y-130705218D01*
X175440781Y-130705220D01*
X175509786Y-130727641D01*
X175635465Y-130768477D01*
X175736557Y-130784488D01*
X175837648Y-130800500D01*
X175837649Y-130800500D01*
X176042351Y-130800500D01*
X176042352Y-130800500D01*
X176244534Y-130768477D01*
X176439219Y-130705220D01*
X176459399Y-130694938D01*
X176469204Y-130689942D01*
X176537873Y-130677045D01*
X176602614Y-130703320D01*
X176642871Y-130760426D01*
X176649500Y-130800426D01*
X176649500Y-135490102D01*
X176629815Y-135557141D01*
X176613181Y-135577783D01*
X176016145Y-136174818D01*
X175954822Y-136208303D01*
X175890146Y-136205068D01*
X175783421Y-136170391D01*
X175596497Y-136140785D01*
X175555553Y-136134300D01*
X175324847Y-136134300D01*
X175297439Y-136138641D01*
X175096980Y-136170390D01*
X174937822Y-136222105D01*
X174877567Y-136241683D01*
X174877564Y-136241684D01*
X174877562Y-136241685D01*
X174672005Y-136346421D01*
X174587052Y-136408144D01*
X174485361Y-136482027D01*
X174485359Y-136482029D01*
X174485358Y-136482029D01*
X174322229Y-136645158D01*
X174319063Y-136648866D01*
X174317338Y-136647393D01*
X174269378Y-136684303D01*
X174199759Y-136690216D01*
X174137995Y-136657551D01*
X174103696Y-136596679D01*
X174100500Y-136568709D01*
X174100500Y-124331290D01*
X174120185Y-124264251D01*
X174172989Y-124218496D01*
X174242147Y-124208552D01*
X174305703Y-124237577D01*
G37*
%TD.AperFunction*%
%TA.AperFunction,Conductor*%
G36*
X201351143Y-130637832D02*
G01*
X201391401Y-130694938D01*
X201398029Y-130734937D01*
X201398029Y-136018047D01*
X201378344Y-136085086D01*
X201325540Y-136130841D01*
X201256382Y-136140785D01*
X201254632Y-136140520D01*
X201215360Y-136134300D01*
X201215353Y-136134300D01*
X200984647Y-136134300D01*
X200957239Y-136138641D01*
X200756780Y-136170390D01*
X200597622Y-136222105D01*
X200537367Y-136241683D01*
X200537364Y-136241684D01*
X200537362Y-136241685D01*
X200331802Y-136346423D01*
X200257385Y-136400490D01*
X200191579Y-136423970D01*
X200123525Y-136408144D01*
X200074830Y-136358038D01*
X200060500Y-136300172D01*
X200060500Y-130900097D01*
X200080185Y-130833058D01*
X200096819Y-130812416D01*
X200115158Y-130794077D01*
X200176481Y-130760592D01*
X200241157Y-130763827D01*
X200255466Y-130768477D01*
X200457648Y-130800500D01*
X200457649Y-130800500D01*
X200662351Y-130800500D01*
X200662352Y-130800500D01*
X200864534Y-130768477D01*
X201059219Y-130705220D01*
X201217735Y-130624451D01*
X201286403Y-130611556D01*
X201351143Y-130637832D01*
G37*
%TD.AperFunction*%
%TA.AperFunction,Conductor*%
G36*
X199955703Y-124224088D02*
G01*
X199974814Y-124244912D01*
X199982027Y-124254839D01*
X200145161Y-124417973D01*
X200331806Y-124553579D01*
X200537367Y-124658317D01*
X200714850Y-124715984D01*
X200756780Y-124729609D01*
X200859416Y-124745865D01*
X200984647Y-124765700D01*
X200984648Y-124765700D01*
X201215352Y-124765700D01*
X201215353Y-124765700D01*
X201443219Y-124729609D01*
X201662633Y-124658317D01*
X201868194Y-124553579D01*
X201902614Y-124528570D01*
X201968420Y-124505091D01*
X202036474Y-124520916D01*
X202085169Y-124571022D01*
X202099500Y-124628889D01*
X202099500Y-128335267D01*
X202079815Y-128402306D01*
X202027011Y-128448061D01*
X201957853Y-128458005D01*
X201894297Y-128428980D01*
X201887819Y-128422948D01*
X199786819Y-126321948D01*
X199753334Y-126260625D01*
X199750500Y-126234267D01*
X199750500Y-124317801D01*
X199770185Y-124250762D01*
X199822989Y-124205007D01*
X199892147Y-124195063D01*
X199955703Y-124224088D01*
G37*
%TD.AperFunction*%
%TA.AperFunction,Conductor*%
G36*
X185998792Y-123471571D02*
G01*
X186057311Y-123572930D01*
X186140070Y-123655689D01*
X186241429Y-123714208D01*
X186328904Y-123737647D01*
X185568806Y-124497744D01*
X185645067Y-124553151D01*
X185850553Y-124657852D01*
X186069897Y-124729122D01*
X186297681Y-124765200D01*
X186528319Y-124765200D01*
X186756102Y-124729122D01*
X186975446Y-124657852D01*
X187078049Y-124605573D01*
X187146718Y-124592677D01*
X187211459Y-124618953D01*
X187251716Y-124676060D01*
X187254708Y-124745865D01*
X187222025Y-124803739D01*
X186969481Y-125056282D01*
X186969479Y-125056285D01*
X186919361Y-125143094D01*
X186919359Y-125143096D01*
X186890425Y-125193209D01*
X186890424Y-125193210D01*
X186882040Y-125224500D01*
X186849499Y-125345943D01*
X186849499Y-125345945D01*
X186849499Y-125514046D01*
X186849500Y-125514059D01*
X186849500Y-126790165D01*
X186829815Y-126857204D01*
X186777011Y-126902959D01*
X186707853Y-126912903D01*
X186644297Y-126883878D01*
X186637819Y-126877846D01*
X184587323Y-124827350D01*
X184553838Y-124766027D01*
X184558822Y-124696335D01*
X184600694Y-124640402D01*
X184618710Y-124629184D01*
X184767919Y-124553158D01*
X184767930Y-124553151D01*
X184844191Y-124497744D01*
X184844192Y-124497744D01*
X184187789Y-123841342D01*
X184220591Y-123832553D01*
X184350909Y-123757313D01*
X184457313Y-123650909D01*
X184532553Y-123520591D01*
X184541342Y-123487790D01*
X185197820Y-124144268D01*
X185215177Y-124144268D01*
X185975352Y-123384093D01*
X185998792Y-123471571D01*
G37*
%TD.AperFunction*%
%TA.AperFunction,Conductor*%
G36*
X202012130Y-117800465D02*
G01*
X202070363Y-117839075D01*
X202098477Y-117903038D01*
X202099500Y-117918931D01*
X202099500Y-121971110D01*
X202079815Y-122038149D01*
X202027011Y-122083904D01*
X201957853Y-122093848D01*
X201902616Y-122071429D01*
X201868196Y-122046422D01*
X201662637Y-121941685D01*
X201662636Y-121941684D01*
X201662633Y-121941683D01*
X201572264Y-121912320D01*
X201443219Y-121870390D01*
X201246508Y-121839234D01*
X201215353Y-121834300D01*
X200984647Y-121834300D01*
X200957239Y-121838641D01*
X200756780Y-121870390D01*
X200595363Y-121922839D01*
X200537367Y-121941683D01*
X200537364Y-121941684D01*
X200537362Y-121941685D01*
X200331805Y-122046421D01*
X200253420Y-122103372D01*
X200145161Y-122182027D01*
X200145159Y-122182029D01*
X200145158Y-122182029D01*
X199982029Y-122345158D01*
X199982022Y-122345167D01*
X199974817Y-122355084D01*
X199919487Y-122397750D01*
X199849874Y-122403728D01*
X199788079Y-122371121D01*
X199753722Y-122310282D01*
X199750500Y-122282198D01*
X199750500Y-118999473D01*
X199770185Y-118932434D01*
X199822989Y-118886679D01*
X199892147Y-118876735D01*
X199930795Y-118888989D01*
X200060771Y-118955216D01*
X200060776Y-118955217D01*
X200060781Y-118955220D01*
X200168888Y-118990346D01*
X200255465Y-119018477D01*
X200356557Y-119034488D01*
X200457648Y-119050500D01*
X200457649Y-119050500D01*
X200662351Y-119050500D01*
X200662352Y-119050500D01*
X200864534Y-119018477D01*
X201059219Y-118955220D01*
X201241610Y-118862287D01*
X201334590Y-118794732D01*
X201407213Y-118741971D01*
X201407215Y-118741968D01*
X201407219Y-118741966D01*
X201551966Y-118597219D01*
X201551968Y-118597215D01*
X201551971Y-118597213D01*
X201604732Y-118524590D01*
X201672287Y-118431610D01*
X201765220Y-118249219D01*
X201828477Y-118054534D01*
X201853027Y-117899532D01*
X201882956Y-117836398D01*
X201942268Y-117799467D01*
X202012130Y-117800465D01*
G37*
%TD.AperFunction*%
%TA.AperFunction,Conductor*%
G36*
X174305703Y-82496045D02*
G01*
X174312181Y-82502077D01*
X174320213Y-82510109D01*
X174492184Y-82635051D01*
X174492184Y-82635052D01*
X174531793Y-82655233D01*
X174582590Y-82703206D01*
X174599500Y-82765718D01*
X174599500Y-95113330D01*
X174599499Y-95113348D01*
X174599499Y-95279054D01*
X174599498Y-95279054D01*
X174640424Y-95431787D01*
X174656592Y-95459790D01*
X174656593Y-95459792D01*
X174719477Y-95568712D01*
X174719481Y-95568717D01*
X174838349Y-95687585D01*
X174838355Y-95687590D01*
X179656509Y-100505744D01*
X179689994Y-100567067D01*
X179685010Y-100636759D01*
X179643138Y-100692692D01*
X179593020Y-100715042D01*
X179516508Y-100730261D01*
X179516498Y-100730264D01*
X179370827Y-100790602D01*
X179370814Y-100790609D01*
X179239711Y-100878210D01*
X179239707Y-100878213D01*
X179128213Y-100989707D01*
X179128210Y-100989711D01*
X179040609Y-101120814D01*
X179040602Y-101120827D01*
X178980264Y-101266498D01*
X178980261Y-101266510D01*
X178949500Y-101421153D01*
X178949500Y-101578846D01*
X178980261Y-101733489D01*
X178980264Y-101733501D01*
X179040602Y-101879172D01*
X179040609Y-101879185D01*
X179128602Y-102010874D01*
X179149480Y-102077551D01*
X179149500Y-102079765D01*
X179149500Y-110639902D01*
X179129815Y-110706941D01*
X179113181Y-110727583D01*
X176384842Y-113455921D01*
X176323519Y-113489406D01*
X176258848Y-113486173D01*
X176244534Y-113481522D01*
X176069995Y-113453878D01*
X176042352Y-113449500D01*
X175837648Y-113449500D01*
X175813329Y-113453351D01*
X175635465Y-113481522D01*
X175440776Y-113544781D01*
X175258386Y-113637715D01*
X175092786Y-113758028D01*
X174948028Y-113902786D01*
X174827715Y-114068386D01*
X174734781Y-114250776D01*
X174671522Y-114445465D01*
X174639500Y-114647648D01*
X174639500Y-114852351D01*
X174671522Y-115054534D01*
X174734781Y-115249223D01*
X174827715Y-115431613D01*
X174948028Y-115597213D01*
X175092786Y-115741971D01*
X175247749Y-115854556D01*
X175258390Y-115862287D01*
X175374607Y-115921503D01*
X175440776Y-115955218D01*
X175440778Y-115955218D01*
X175440781Y-115955220D01*
X175545137Y-115989127D01*
X175635465Y-116018477D01*
X175722026Y-116032187D01*
X175837648Y-116050500D01*
X175837649Y-116050500D01*
X176042351Y-116050500D01*
X176042352Y-116050500D01*
X176244534Y-116018477D01*
X176258842Y-116013827D01*
X176328679Y-116011831D01*
X176384841Y-116044077D01*
X176613181Y-116272416D01*
X176646666Y-116333739D01*
X176649500Y-116360097D01*
X176649500Y-116449573D01*
X176629815Y-116516612D01*
X176577011Y-116562367D01*
X176507853Y-116572311D01*
X176469206Y-116560058D01*
X176439226Y-116544782D01*
X176244534Y-116481522D01*
X176069995Y-116453878D01*
X176042352Y-116449500D01*
X175837648Y-116449500D01*
X175813329Y-116453351D01*
X175635465Y-116481522D01*
X175440776Y-116544781D01*
X175258386Y-116637715D01*
X175092786Y-116758028D01*
X174948028Y-116902786D01*
X174827715Y-117068386D01*
X174734781Y-117250776D01*
X174671522Y-117445465D01*
X174639500Y-117647648D01*
X174639500Y-117852351D01*
X174671522Y-118054534D01*
X174734781Y-118249223D01*
X174827715Y-118431613D01*
X174948028Y-118597213D01*
X175092786Y-118741971D01*
X175247749Y-118854556D01*
X175258390Y-118862287D01*
X175374607Y-118921503D01*
X175440776Y-118955218D01*
X175440778Y-118955218D01*
X175440781Y-118955220D01*
X175545137Y-118989127D01*
X175635465Y-119018477D01*
X175736557Y-119034488D01*
X175837648Y-119050500D01*
X175837649Y-119050500D01*
X176015499Y-119050500D01*
X176082538Y-119070185D01*
X176128293Y-119122989D01*
X176139499Y-119174500D01*
X176139499Y-121815416D01*
X176119814Y-121882455D01*
X176067010Y-121928210D01*
X175997852Y-121938154D01*
X175977181Y-121933347D01*
X175783422Y-121870391D01*
X175612519Y-121843322D01*
X175555553Y-121834300D01*
X175324847Y-121834300D01*
X175297439Y-121838641D01*
X175096980Y-121870390D01*
X174935563Y-121922839D01*
X174877567Y-121941683D01*
X174877564Y-121941684D01*
X174877562Y-121941685D01*
X174672005Y-122046421D01*
X174593620Y-122103372D01*
X174485361Y-122182027D01*
X174485359Y-122182029D01*
X174485358Y-122182029D01*
X174322229Y-122345158D01*
X174319063Y-122348866D01*
X174317338Y-122347393D01*
X174269378Y-122384303D01*
X174199759Y-122390216D01*
X174137995Y-122357551D01*
X174103696Y-122296679D01*
X174100500Y-122268709D01*
X174100500Y-82589758D01*
X174120185Y-82522719D01*
X174172989Y-82476964D01*
X174242147Y-82467020D01*
X174305703Y-82496045D01*
G37*
%TD.AperFunction*%
%TA.AperFunction,Conductor*%
G36*
X193756280Y-98870185D02*
G01*
X193802035Y-98922989D01*
X193811979Y-98992147D01*
X193792343Y-99043391D01*
X193740609Y-99120815D01*
X193740602Y-99120827D01*
X193680264Y-99266498D01*
X193680261Y-99266510D01*
X193649500Y-99421153D01*
X193649500Y-99578846D01*
X193680261Y-99733489D01*
X193680264Y-99733501D01*
X193740602Y-99879172D01*
X193740609Y-99879185D01*
X193828210Y-100010288D01*
X193828213Y-100010292D01*
X193939707Y-100121786D01*
X193939711Y-100121789D01*
X194070814Y-100209390D01*
X194070827Y-100209397D01*
X194198350Y-100262218D01*
X194216503Y-100269737D01*
X194371153Y-100300499D01*
X194371156Y-100300500D01*
X194371158Y-100300500D01*
X194528844Y-100300500D01*
X194528845Y-100300499D01*
X194683497Y-100269737D01*
X194829179Y-100209394D01*
X194856281Y-100191285D01*
X194960875Y-100121398D01*
X195027553Y-100100520D01*
X195029766Y-100100500D01*
X198433331Y-100100500D01*
X198433347Y-100100501D01*
X198440943Y-100100501D01*
X198599054Y-100100501D01*
X198599057Y-100100501D01*
X198751785Y-100059577D01*
X198805237Y-100028716D01*
X198888716Y-99980520D01*
X199000520Y-99868716D01*
X199000520Y-99868714D01*
X199010724Y-99858511D01*
X199010728Y-99858506D01*
X199337819Y-99531415D01*
X199399142Y-99497930D01*
X199468834Y-99502914D01*
X199524767Y-99544786D01*
X199549184Y-99610250D01*
X199549500Y-99619096D01*
X199549500Y-99766287D01*
X199557208Y-99814957D01*
X199582753Y-99976240D01*
X199582754Y-99976244D01*
X199596491Y-100018522D01*
X199598486Y-100088363D01*
X199566243Y-100144519D01*
X199519478Y-100191285D01*
X199478527Y-100262216D01*
X199478527Y-100262218D01*
X199440423Y-100328214D01*
X199440423Y-100328215D01*
X199399499Y-100480943D01*
X199399499Y-100480945D01*
X199399499Y-100649046D01*
X199399500Y-100649059D01*
X199399500Y-101173556D01*
X199379815Y-101240595D01*
X199363181Y-101261237D01*
X199269481Y-101354936D01*
X199269475Y-101354944D01*
X199231248Y-101421157D01*
X199231248Y-101421158D01*
X199190423Y-101491869D01*
X199159413Y-101607596D01*
X199123050Y-101667254D01*
X199060203Y-101697783D01*
X199039640Y-101699500D01*
X198921155Y-101699500D01*
X198766510Y-101730261D01*
X198766498Y-101730264D01*
X198620827Y-101790602D01*
X198620814Y-101790609D01*
X198489125Y-101878602D01*
X198422447Y-101899480D01*
X198420234Y-101899500D01*
X196586670Y-101899500D01*
X196586654Y-101899499D01*
X196579058Y-101899499D01*
X196420943Y-101899499D01*
X196344579Y-101919961D01*
X196268214Y-101940423D01*
X196268209Y-101940426D01*
X196131290Y-102019475D01*
X196131282Y-102019481D01*
X194235339Y-103915425D01*
X194174016Y-103948910D01*
X194171850Y-103949361D01*
X194016508Y-103980261D01*
X194016498Y-103980264D01*
X193870827Y-104040602D01*
X193870814Y-104040609D01*
X193739711Y-104128210D01*
X193739707Y-104128213D01*
X193628213Y-104239707D01*
X193628210Y-104239711D01*
X193540609Y-104370814D01*
X193540602Y-104370827D01*
X193480264Y-104516498D01*
X193480261Y-104516510D01*
X193449500Y-104671153D01*
X193449500Y-104828846D01*
X193480261Y-104983489D01*
X193480264Y-104983501D01*
X193540602Y-105129172D01*
X193540609Y-105129185D01*
X193628210Y-105260288D01*
X193628213Y-105260292D01*
X193739707Y-105371786D01*
X193739711Y-105371789D01*
X193870814Y-105459390D01*
X193870827Y-105459397D01*
X194016498Y-105519735D01*
X194016503Y-105519737D01*
X194171153Y-105550499D01*
X194171156Y-105550500D01*
X194171158Y-105550500D01*
X194328844Y-105550500D01*
X194328845Y-105550499D01*
X194483497Y-105519737D01*
X194629179Y-105459394D01*
X194760289Y-105371789D01*
X194871789Y-105260289D01*
X194959394Y-105129179D01*
X195019737Y-104983497D01*
X195039113Y-104886085D01*
X195050638Y-104828150D01*
X195083023Y-104766239D01*
X195084517Y-104764717D01*
X196712417Y-103136819D01*
X196773740Y-103103334D01*
X196800098Y-103100500D01*
X198420234Y-103100500D01*
X198487273Y-103120185D01*
X198489125Y-103121398D01*
X198620814Y-103209390D01*
X198620827Y-103209397D01*
X198766498Y-103269735D01*
X198766503Y-103269737D01*
X198896982Y-103295691D01*
X198921153Y-103300499D01*
X198921156Y-103300500D01*
X198921158Y-103300500D01*
X199078844Y-103300500D01*
X199078845Y-103300499D01*
X199233497Y-103269737D01*
X199233509Y-103269731D01*
X199239324Y-103267969D01*
X199240158Y-103270720D01*
X199297359Y-103264497D01*
X199359878Y-103295691D01*
X199395608Y-103355734D01*
X199399500Y-103386555D01*
X199399500Y-103713556D01*
X199379815Y-103780595D01*
X199363181Y-103801237D01*
X199269481Y-103894936D01*
X199269479Y-103894938D01*
X199257652Y-103915425D01*
X199237979Y-103949500D01*
X199190423Y-104031869D01*
X199149499Y-104184597D01*
X199149499Y-104184599D01*
X199149499Y-104352700D01*
X199149500Y-104352713D01*
X199149500Y-105129676D01*
X199149499Y-105129694D01*
X199149499Y-105295400D01*
X199149498Y-105295400D01*
X199149499Y-105295403D01*
X199190423Y-105448131D01*
X199190424Y-105448133D01*
X199190423Y-105448133D01*
X199196926Y-105459395D01*
X199196927Y-105459396D01*
X199269477Y-105585058D01*
X199269481Y-105585063D01*
X199363181Y-105678763D01*
X199396666Y-105740086D01*
X199399500Y-105766444D01*
X199399500Y-106253556D01*
X199379815Y-106320595D01*
X199363181Y-106341237D01*
X199269481Y-106434936D01*
X199269479Y-106434939D01*
X199219361Y-106521748D01*
X199219359Y-106521750D01*
X199190425Y-106571863D01*
X199190424Y-106571864D01*
X199190423Y-106571869D01*
X199149499Y-106724597D01*
X199149499Y-106724599D01*
X199149499Y-106892700D01*
X199149500Y-106892713D01*
X199149500Y-107669676D01*
X199149499Y-107669694D01*
X199149499Y-107835400D01*
X199149498Y-107835400D01*
X199190423Y-107988131D01*
X199219358Y-108038246D01*
X199219359Y-108038250D01*
X199219360Y-108038250D01*
X199256311Y-108102253D01*
X199269479Y-108125060D01*
X199269481Y-108125063D01*
X199363181Y-108218763D01*
X199396666Y-108280086D01*
X199399500Y-108306444D01*
X199399500Y-114103330D01*
X199399499Y-114103348D01*
X199399499Y-114133244D01*
X199385984Y-114189539D01*
X199354782Y-114250776D01*
X199291522Y-114445465D01*
X199259500Y-114647648D01*
X199259500Y-114852351D01*
X199291522Y-115054534D01*
X199296173Y-115068848D01*
X199298165Y-115138690D01*
X199265921Y-115194842D01*
X198781286Y-115679478D01*
X198669481Y-115791282D01*
X198669479Y-115791284D01*
X198649913Y-115825174D01*
X198641643Y-115839500D01*
X198590423Y-115928215D01*
X198549499Y-116080943D01*
X198549499Y-116080945D01*
X198549499Y-116226193D01*
X198529814Y-116293232D01*
X198477010Y-116338987D01*
X198444495Y-116347752D01*
X198444607Y-116348311D01*
X198283985Y-116380261D01*
X198283973Y-116380264D01*
X198138302Y-116440602D01*
X198138289Y-116440609D01*
X198007186Y-116528210D01*
X198007182Y-116528213D01*
X197895688Y-116639707D01*
X197895685Y-116639711D01*
X197816711Y-116757903D01*
X197763098Y-116802708D01*
X197693773Y-116811415D01*
X197630746Y-116781260D01*
X197625928Y-116776693D01*
X191712254Y-110863019D01*
X191678769Y-110801696D01*
X191683753Y-110732004D01*
X191725625Y-110676071D01*
X191755993Y-110660326D01*
X191755742Y-110659718D01*
X191760242Y-110657853D01*
X191965724Y-110553155D01*
X191965730Y-110553151D01*
X192041991Y-110497744D01*
X192041992Y-110497744D01*
X191385588Y-109841342D01*
X191418391Y-109832553D01*
X191548709Y-109757313D01*
X191655113Y-109650909D01*
X191730353Y-109520591D01*
X191739142Y-109487789D01*
X192395620Y-110144268D01*
X192412977Y-110144268D01*
X193173152Y-109384093D01*
X193196592Y-109471571D01*
X193255111Y-109572930D01*
X193337870Y-109655689D01*
X193439229Y-109714208D01*
X193526705Y-109737647D01*
X192766606Y-110497744D01*
X192842867Y-110553151D01*
X193048353Y-110657852D01*
X193267697Y-110729122D01*
X193495481Y-110765200D01*
X193726119Y-110765200D01*
X193953902Y-110729122D01*
X194173246Y-110657852D01*
X194378724Y-110553155D01*
X194378730Y-110553151D01*
X194454991Y-110497744D01*
X194454992Y-110497744D01*
X193694894Y-109737647D01*
X193782371Y-109714208D01*
X193883730Y-109655689D01*
X193966489Y-109572930D01*
X194025008Y-109471571D01*
X194048447Y-109384095D01*
X194808544Y-110144192D01*
X194808544Y-110144191D01*
X194863951Y-110067930D01*
X194863955Y-110067924D01*
X194968652Y-109862446D01*
X195039922Y-109643102D01*
X195076000Y-109415319D01*
X195076000Y-109184680D01*
X195039922Y-108956897D01*
X194968652Y-108737553D01*
X194863951Y-108532067D01*
X194808544Y-108455807D01*
X194808544Y-108455806D01*
X194048447Y-109215904D01*
X194025008Y-109128429D01*
X193966489Y-109027070D01*
X193883730Y-108944311D01*
X193782371Y-108885792D01*
X193694893Y-108862352D01*
X194454992Y-108102254D01*
X194454991Y-108102253D01*
X194378735Y-108046850D01*
X194173246Y-107942147D01*
X193953902Y-107870877D01*
X193726119Y-107834800D01*
X193495481Y-107834800D01*
X193267697Y-107870877D01*
X193048353Y-107942147D01*
X192842869Y-108046847D01*
X192766607Y-108102254D01*
X193526706Y-108862352D01*
X193439229Y-108885792D01*
X193337870Y-108944311D01*
X193255111Y-109027070D01*
X193196592Y-109128429D01*
X193173152Y-109215905D01*
X192412977Y-108455730D01*
X192395621Y-108455730D01*
X191739141Y-109112209D01*
X191730353Y-109079409D01*
X191655113Y-108949091D01*
X191548709Y-108842687D01*
X191418391Y-108767447D01*
X191385588Y-108758657D01*
X192041992Y-108102254D01*
X192041991Y-108102253D01*
X191965735Y-108046850D01*
X191760246Y-107942147D01*
X191540902Y-107870877D01*
X191313119Y-107834800D01*
X191082481Y-107834800D01*
X190854697Y-107870877D01*
X190635353Y-107942147D01*
X190429869Y-108046847D01*
X190353607Y-108102254D01*
X191010011Y-108758657D01*
X190977209Y-108767447D01*
X190846891Y-108842687D01*
X190740487Y-108949091D01*
X190665247Y-109079409D01*
X190656457Y-109112211D01*
X190000054Y-108455807D01*
X189944647Y-108532069D01*
X189839944Y-108737559D01*
X189838085Y-108742051D01*
X189836757Y-108741501D01*
X189800953Y-108793860D01*
X189736594Y-108821057D01*
X189667748Y-108809141D01*
X189634781Y-108785546D01*
X184328337Y-103479102D01*
X184294852Y-103417779D01*
X184299836Y-103348087D01*
X184328337Y-103303740D01*
X184371789Y-103260289D01*
X184459394Y-103129179D01*
X184519737Y-102983497D01*
X184550500Y-102828842D01*
X184550500Y-102804774D01*
X184567113Y-102742774D01*
X184592420Y-102698941D01*
X184628559Y-102564069D01*
X184633343Y-102546215D01*
X184633343Y-102524499D01*
X184653028Y-102457460D01*
X184705832Y-102411705D01*
X184757343Y-102400499D01*
X186632871Y-102400499D01*
X186632872Y-102400499D01*
X186692483Y-102394091D01*
X186827331Y-102343796D01*
X186942546Y-102257546D01*
X187028796Y-102142331D01*
X187028796Y-102142329D01*
X187030989Y-102139401D01*
X187086923Y-102097530D01*
X187156615Y-102092546D01*
X187203142Y-102113394D01*
X187298828Y-102182914D01*
X187509197Y-102290102D01*
X187733752Y-102363065D01*
X187733751Y-102363065D01*
X187966948Y-102400000D01*
X188203052Y-102400000D01*
X188436247Y-102363065D01*
X188660802Y-102290102D01*
X188871163Y-102182918D01*
X188871169Y-102182914D01*
X188954104Y-102122658D01*
X188954105Y-102122658D01*
X188214409Y-101382962D01*
X188277993Y-101365925D01*
X188392007Y-101300099D01*
X188485099Y-101207007D01*
X188550925Y-101092993D01*
X188567962Y-101029409D01*
X189314270Y-101775717D01*
X189357943Y-101784891D01*
X189399614Y-101821259D01*
X189440483Y-101877510D01*
X189607490Y-102044517D01*
X189798567Y-102183343D01*
X189841360Y-102205147D01*
X190009003Y-102290566D01*
X190009005Y-102290566D01*
X190009008Y-102290568D01*
X190129412Y-102329689D01*
X190233631Y-102363553D01*
X190466903Y-102400500D01*
X190466908Y-102400500D01*
X190703097Y-102400500D01*
X190936368Y-102363553D01*
X190937870Y-102363065D01*
X191160992Y-102290568D01*
X191371433Y-102183343D01*
X191562510Y-102044517D01*
X191729517Y-101877510D01*
X191868343Y-101686433D01*
X191975568Y-101475992D01*
X192048553Y-101251368D01*
X192055579Y-101207007D01*
X192085500Y-101018097D01*
X192085500Y-100781902D01*
X192048553Y-100548631D01*
X191976935Y-100328215D01*
X191975568Y-100324008D01*
X191975566Y-100324005D01*
X191975566Y-100324003D01*
X191907942Y-100191284D01*
X191868343Y-100113567D01*
X191729517Y-99922490D01*
X191562510Y-99755483D01*
X191371433Y-99616657D01*
X191168203Y-99513106D01*
X191117409Y-99465134D01*
X191100500Y-99402623D01*
X191100500Y-98974500D01*
X191120185Y-98907461D01*
X191172989Y-98861706D01*
X191224500Y-98850500D01*
X193689241Y-98850500D01*
X193756280Y-98870185D01*
G37*
%TD.AperFunction*%
%TA.AperFunction,Conductor*%
G36*
X202033361Y-108059808D02*
G01*
X202034140Y-108059972D01*
X202083900Y-108109019D01*
X202099500Y-108169230D01*
X202099500Y-114581068D01*
X202079815Y-114648107D01*
X202027011Y-114693862D01*
X201957853Y-114703806D01*
X201894297Y-114674781D01*
X201856523Y-114616003D01*
X201853027Y-114600466D01*
X201828477Y-114445465D01*
X201799127Y-114355137D01*
X201765220Y-114250781D01*
X201765218Y-114250778D01*
X201765218Y-114250776D01*
X201720501Y-114163015D01*
X201672287Y-114068390D01*
X201664556Y-114057749D01*
X201551971Y-113902786D01*
X201407213Y-113758028D01*
X201241613Y-113637715D01*
X201241612Y-113637714D01*
X201241610Y-113637713D01*
X201184653Y-113608691D01*
X201059223Y-113544781D01*
X200864534Y-113481522D01*
X200705102Y-113456271D01*
X200641967Y-113426342D01*
X200605036Y-113367030D01*
X200600500Y-113333798D01*
X200600500Y-108744576D01*
X200620185Y-108677537D01*
X200672989Y-108631782D01*
X200742147Y-108621838D01*
X200743899Y-108622103D01*
X200793755Y-108630000D01*
X201006246Y-108630000D01*
X201216127Y-108596757D01*
X201216130Y-108596757D01*
X201418217Y-108531095D01*
X201607554Y-108434622D01*
X201661716Y-108395270D01*
X201661717Y-108395270D01*
X201029409Y-107762962D01*
X201092993Y-107745925D01*
X201207007Y-107680099D01*
X201300099Y-107587007D01*
X201365925Y-107472993D01*
X201382962Y-107409408D01*
X202033361Y-108059808D01*
G37*
%TD.AperFunction*%
%TA.AperFunction,Conductor*%
G36*
X202018834Y-105633576D02*
G01*
X202074767Y-105675448D01*
X202099184Y-105740912D01*
X202099500Y-105749758D01*
X202099500Y-106390768D01*
X202079815Y-106457807D01*
X202049326Y-106484225D01*
X201382962Y-107150590D01*
X201365925Y-107087007D01*
X201300099Y-106972993D01*
X201207007Y-106879901D01*
X201092993Y-106814075D01*
X201029407Y-106797036D01*
X201661716Y-106164728D01*
X201607547Y-106125373D01*
X201607547Y-106125372D01*
X201598500Y-106120763D01*
X201547706Y-106072788D01*
X201530912Y-106004966D01*
X201553451Y-105938832D01*
X201598508Y-105899793D01*
X201607816Y-105895051D01*
X201687007Y-105837515D01*
X201779786Y-105770109D01*
X201779788Y-105770106D01*
X201779792Y-105770104D01*
X201887819Y-105662077D01*
X201949142Y-105628592D01*
X202018834Y-105633576D01*
G37*
%TD.AperFunction*%
%TA.AperFunction,Conductor*%
G36*
X176755703Y-78805384D02*
G01*
X176762181Y-78811416D01*
X183396024Y-85445259D01*
X183429509Y-85506582D01*
X183432343Y-85532940D01*
X183432343Y-91176000D01*
X183412658Y-91243039D01*
X183359854Y-91288794D01*
X183308343Y-91300000D01*
X182735000Y-91300000D01*
X182735000Y-92041759D01*
X182703767Y-92028822D01*
X182558869Y-92000000D01*
X182411131Y-92000000D01*
X182266233Y-92028822D01*
X182235000Y-92041759D01*
X182235000Y-91300000D01*
X181437155Y-91300000D01*
X181377627Y-91306401D01*
X181377620Y-91306403D01*
X181242913Y-91356645D01*
X181242906Y-91356649D01*
X181127812Y-91442809D01*
X181127809Y-91442812D01*
X181041649Y-91557906D01*
X181041645Y-91557913D01*
X180991403Y-91692620D01*
X180991401Y-91692627D01*
X180985000Y-91752155D01*
X180985000Y-93150000D01*
X181735000Y-93150000D01*
X181735000Y-93650000D01*
X180985000Y-93650000D01*
X180985000Y-95047844D01*
X180991401Y-95107372D01*
X180991403Y-95107379D01*
X181041645Y-95242086D01*
X181041649Y-95242093D01*
X181127809Y-95357187D01*
X181127812Y-95357190D01*
X181242906Y-95443350D01*
X181242913Y-95443354D01*
X181377620Y-95493596D01*
X181377627Y-95493598D01*
X181437155Y-95499999D01*
X181437172Y-95500000D01*
X182235000Y-95500000D01*
X182235000Y-94758240D01*
X182266233Y-94771178D01*
X182411131Y-94800000D01*
X182558869Y-94800000D01*
X182703767Y-94771178D01*
X182735000Y-94758240D01*
X182735000Y-95500000D01*
X183308343Y-95500000D01*
X183375382Y-95519685D01*
X183421137Y-95572489D01*
X183432343Y-95624000D01*
X183432343Y-101933399D01*
X183412658Y-102000438D01*
X183374710Y-102035463D01*
X183375885Y-102037222D01*
X183239715Y-102128207D01*
X183239707Y-102128213D01*
X183196259Y-102171662D01*
X183134936Y-102205147D01*
X183065244Y-102200163D01*
X183020897Y-102171662D01*
X175836819Y-94987584D01*
X175803334Y-94926261D01*
X175800500Y-94899903D01*
X175800500Y-82765718D01*
X175820185Y-82698679D01*
X175868207Y-82655233D01*
X175907815Y-82635052D01*
X175907815Y-82635051D01*
X175907816Y-82635051D01*
X175999193Y-82568661D01*
X176079786Y-82510109D01*
X176079788Y-82510106D01*
X176079792Y-82510104D01*
X176230104Y-82359792D01*
X176230106Y-82359788D01*
X176230109Y-82359786D01*
X176355048Y-82187820D01*
X176355047Y-82187820D01*
X176355051Y-82187816D01*
X176451557Y-81998412D01*
X176517246Y-81796243D01*
X176550500Y-81586287D01*
X176550500Y-81373713D01*
X176517246Y-81163757D01*
X176451557Y-80961588D01*
X176355051Y-80772184D01*
X176355049Y-80772181D01*
X176355048Y-80772179D01*
X176230109Y-80600213D01*
X176079786Y-80449890D01*
X175907820Y-80324951D01*
X175907115Y-80324591D01*
X175899054Y-80320485D01*
X175848259Y-80272512D01*
X175831463Y-80204692D01*
X175853999Y-80138556D01*
X175899054Y-80099515D01*
X175907816Y-80095051D01*
X175970157Y-80049758D01*
X176079786Y-79970109D01*
X176079788Y-79970106D01*
X176079792Y-79970104D01*
X176230104Y-79819792D01*
X176230106Y-79819788D01*
X176230109Y-79819786D01*
X176355048Y-79647820D01*
X176355047Y-79647820D01*
X176355051Y-79647816D01*
X176451557Y-79458412D01*
X176517246Y-79256243D01*
X176550500Y-79046287D01*
X176550500Y-78899097D01*
X176570185Y-78832058D01*
X176622989Y-78786303D01*
X176692147Y-78776359D01*
X176755703Y-78805384D01*
G37*
%TD.AperFunction*%
%TA.AperFunction,Conductor*%
G36*
X189864007Y-98070185D02*
G01*
X189909762Y-98122989D01*
X189919706Y-98192147D01*
X189916745Y-98206581D01*
X189899500Y-98270943D01*
X189899500Y-98270945D01*
X189899500Y-99489241D01*
X189879815Y-99556280D01*
X189831796Y-99599725D01*
X189798569Y-99616655D01*
X189742119Y-99657669D01*
X189607490Y-99755483D01*
X189607488Y-99755485D01*
X189607487Y-99755485D01*
X189440482Y-99922490D01*
X189399615Y-99978739D01*
X189344285Y-100021404D01*
X189312455Y-100026096D01*
X188567962Y-100770590D01*
X188550925Y-100707007D01*
X188485099Y-100592993D01*
X188392007Y-100499901D01*
X188277993Y-100434075D01*
X188214408Y-100417037D01*
X188954105Y-99677340D01*
X188954104Y-99677338D01*
X188871174Y-99617087D01*
X188660802Y-99509897D01*
X188436247Y-99436934D01*
X188436248Y-99436934D01*
X188203052Y-99400000D01*
X187966948Y-99400000D01*
X187733752Y-99436934D01*
X187509197Y-99509897D01*
X187298824Y-99617087D01*
X187203141Y-99686605D01*
X187137334Y-99710085D01*
X187069281Y-99694259D01*
X187030990Y-99660599D01*
X186950974Y-99553713D01*
X186942546Y-99542454D01*
X186942544Y-99542453D01*
X186942544Y-99542452D01*
X186827335Y-99456206D01*
X186827328Y-99456202D01*
X186692482Y-99405908D01*
X186692483Y-99405908D01*
X186632883Y-99399501D01*
X186632881Y-99399500D01*
X186632873Y-99399500D01*
X186632865Y-99399500D01*
X186309500Y-99399500D01*
X186242461Y-99379815D01*
X186196706Y-99327011D01*
X186185500Y-99275500D01*
X186185500Y-98665097D01*
X186205185Y-98598058D01*
X186221819Y-98577416D01*
X186712416Y-98086819D01*
X186773739Y-98053334D01*
X186800097Y-98050500D01*
X189796968Y-98050500D01*
X189864007Y-98070185D01*
G37*
%TD.AperFunction*%
%TA.AperFunction,Conductor*%
G36*
X202042539Y-57720185D02*
G01*
X202088294Y-57772989D01*
X202099500Y-57824500D01*
X202099500Y-88067581D01*
X202079815Y-88134620D01*
X202027011Y-88180375D01*
X201957853Y-88190319D01*
X201932168Y-88183763D01*
X201857485Y-88155909D01*
X201857483Y-88155908D01*
X201797883Y-88149501D01*
X201797881Y-88149500D01*
X201797873Y-88149500D01*
X201797864Y-88149500D01*
X200002129Y-88149500D01*
X200002123Y-88149501D01*
X199942516Y-88155908D01*
X199807671Y-88206202D01*
X199807664Y-88206206D01*
X199692455Y-88292452D01*
X199692452Y-88292455D01*
X199606206Y-88407664D01*
X199606202Y-88407671D01*
X199555908Y-88542517D01*
X199549501Y-88602116D01*
X199549500Y-88602135D01*
X199549500Y-90397870D01*
X199549501Y-90397876D01*
X199555908Y-90457483D01*
X199606202Y-90592328D01*
X199606206Y-90592335D01*
X199692452Y-90707544D01*
X199692455Y-90707547D01*
X199807664Y-90793793D01*
X199807671Y-90793797D01*
X199939082Y-90842810D01*
X199995016Y-90884681D01*
X200019433Y-90950145D01*
X200004582Y-91018418D01*
X199983431Y-91046673D01*
X199869889Y-91160215D01*
X199744951Y-91332179D01*
X199648444Y-91521585D01*
X199582753Y-91723760D01*
X199549500Y-91933713D01*
X199549500Y-92146286D01*
X199582754Y-92356244D01*
X199582754Y-92356247D01*
X199596491Y-92398523D01*
X199598486Y-92468364D01*
X199566241Y-92524522D01*
X199131286Y-92959478D01*
X199019481Y-93071282D01*
X199019479Y-93071285D01*
X198969361Y-93158094D01*
X198969359Y-93158096D01*
X198940425Y-93208209D01*
X198940424Y-93208210D01*
X198940423Y-93208215D01*
X198899499Y-93360943D01*
X198899499Y-93360945D01*
X198899499Y-93529046D01*
X198899500Y-93529059D01*
X198899500Y-95114216D01*
X198879815Y-95181255D01*
X198863181Y-95201897D01*
X197251898Y-96813181D01*
X197190575Y-96846666D01*
X197164217Y-96849500D01*
X186420940Y-96849500D01*
X186380019Y-96860464D01*
X186380019Y-96860465D01*
X186342751Y-96870451D01*
X186268214Y-96890423D01*
X186268209Y-96890426D01*
X186131290Y-96969475D01*
X186131282Y-96969481D01*
X185664521Y-97436243D01*
X185216286Y-97884478D01*
X185216284Y-97884480D01*
X185160382Y-97940381D01*
X185104481Y-97996282D01*
X185104480Y-97996284D01*
X185091818Y-98018216D01*
X185025423Y-98133215D01*
X184984499Y-98285943D01*
X184984499Y-98285945D01*
X184984499Y-98454046D01*
X184984500Y-98454059D01*
X184984500Y-99275500D01*
X184964815Y-99342539D01*
X184912011Y-99388294D01*
X184860500Y-99399500D01*
X184757343Y-99399500D01*
X184690304Y-99379815D01*
X184644549Y-99327011D01*
X184633343Y-99275500D01*
X184633343Y-91752155D01*
X192185000Y-91752155D01*
X192185000Y-93150000D01*
X192935000Y-93150000D01*
X192935000Y-93650000D01*
X192185000Y-93650000D01*
X192185000Y-95047844D01*
X192191401Y-95107372D01*
X192191403Y-95107379D01*
X192241645Y-95242086D01*
X192241649Y-95242093D01*
X192327809Y-95357187D01*
X192327812Y-95357190D01*
X192442906Y-95443350D01*
X192442913Y-95443354D01*
X192577620Y-95493596D01*
X192577627Y-95493598D01*
X192637155Y-95499999D01*
X192637172Y-95500000D01*
X193435000Y-95500000D01*
X193435000Y-94758240D01*
X193466233Y-94771178D01*
X193611131Y-94800000D01*
X193758869Y-94800000D01*
X193903767Y-94771178D01*
X193935000Y-94758240D01*
X193935000Y-95500000D01*
X194732828Y-95500000D01*
X194732844Y-95499999D01*
X194792372Y-95493598D01*
X194792379Y-95493596D01*
X194927086Y-95443354D01*
X194927093Y-95443350D01*
X195042187Y-95357190D01*
X195042190Y-95357187D01*
X195128350Y-95242093D01*
X195128354Y-95242086D01*
X195178596Y-95107379D01*
X195178598Y-95107372D01*
X195184999Y-95047844D01*
X195185000Y-95047827D01*
X195185000Y-93650000D01*
X194435000Y-93650000D01*
X194435000Y-93150000D01*
X195185000Y-93150000D01*
X195185000Y-91752172D01*
X195184999Y-91752155D01*
X195178598Y-91692627D01*
X195178596Y-91692620D01*
X195128354Y-91557913D01*
X195128350Y-91557906D01*
X195042190Y-91442812D01*
X195042187Y-91442809D01*
X194927093Y-91356649D01*
X194927086Y-91356645D01*
X194792379Y-91306403D01*
X194792372Y-91306401D01*
X194732844Y-91300000D01*
X193935000Y-91300000D01*
X193935000Y-92041759D01*
X193903767Y-92028822D01*
X193758869Y-92000000D01*
X193611131Y-92000000D01*
X193466233Y-92028822D01*
X193435000Y-92041759D01*
X193435000Y-91300000D01*
X192637155Y-91300000D01*
X192577627Y-91306401D01*
X192577620Y-91306403D01*
X192442913Y-91356645D01*
X192442906Y-91356649D01*
X192327812Y-91442809D01*
X192327809Y-91442812D01*
X192241649Y-91557906D01*
X192241645Y-91557913D01*
X192191403Y-91692620D01*
X192191401Y-91692627D01*
X192185000Y-91752155D01*
X184633343Y-91752155D01*
X184633343Y-87800945D01*
X184653028Y-87733906D01*
X184705832Y-87688151D01*
X184774990Y-87678207D01*
X184813638Y-87690460D01*
X185009197Y-87790102D01*
X185233752Y-87863065D01*
X185233751Y-87863065D01*
X185466948Y-87900000D01*
X185703052Y-87900000D01*
X185936247Y-87863065D01*
X186160802Y-87790102D01*
X186371163Y-87682918D01*
X186371169Y-87682914D01*
X186454104Y-87622658D01*
X186454105Y-87622658D01*
X185714409Y-86882962D01*
X185777993Y-86865925D01*
X185892007Y-86800099D01*
X185985099Y-86707007D01*
X186050925Y-86592993D01*
X186067962Y-86529409D01*
X186807658Y-87269105D01*
X186807658Y-87269104D01*
X186867914Y-87186169D01*
X186867918Y-87186163D01*
X186975102Y-86975802D01*
X187048065Y-86751247D01*
X187085000Y-86518052D01*
X187085000Y-86281947D01*
X187084993Y-86281902D01*
X189084500Y-86281902D01*
X189084500Y-86518097D01*
X189121446Y-86751368D01*
X189194433Y-86975996D01*
X189301519Y-87186163D01*
X189301657Y-87186433D01*
X189440483Y-87377510D01*
X189607490Y-87544517D01*
X189798567Y-87683343D01*
X189897803Y-87733906D01*
X190009003Y-87790566D01*
X190009005Y-87790566D01*
X190009008Y-87790568D01*
X190129412Y-87829689D01*
X190233631Y-87863553D01*
X190466903Y-87900500D01*
X190466908Y-87900500D01*
X190703097Y-87900500D01*
X190936368Y-87863553D01*
X190937870Y-87863065D01*
X191160992Y-87790568D01*
X191371433Y-87683343D01*
X191562510Y-87544517D01*
X191729517Y-87377510D01*
X191868343Y-87186433D01*
X191975568Y-86975992D01*
X192048553Y-86751368D01*
X192055579Y-86707007D01*
X192085500Y-86518097D01*
X192085500Y-86281902D01*
X192048553Y-86048631D01*
X191975566Y-85824003D01*
X191919002Y-85712991D01*
X191868343Y-85613567D01*
X191729517Y-85422490D01*
X191562510Y-85255483D01*
X191371433Y-85116657D01*
X191160996Y-85009433D01*
X190936368Y-84936446D01*
X190703097Y-84899500D01*
X190703092Y-84899500D01*
X190466908Y-84899500D01*
X190466903Y-84899500D01*
X190233631Y-84936446D01*
X190009003Y-85009433D01*
X189798566Y-85116657D01*
X189786665Y-85125304D01*
X189607490Y-85255483D01*
X189607488Y-85255485D01*
X189607487Y-85255485D01*
X189440485Y-85422487D01*
X189440485Y-85422488D01*
X189440483Y-85422490D01*
X189397553Y-85481578D01*
X189301657Y-85613566D01*
X189194433Y-85824003D01*
X189121446Y-86048631D01*
X189084500Y-86281902D01*
X187084993Y-86281902D01*
X187048065Y-86048752D01*
X186975102Y-85824197D01*
X186867914Y-85613828D01*
X186807658Y-85530894D01*
X186807658Y-85530893D01*
X186067962Y-86270590D01*
X186050925Y-86207007D01*
X185985099Y-86092993D01*
X185892007Y-85999901D01*
X185777993Y-85934075D01*
X185714408Y-85917037D01*
X186454105Y-85177340D01*
X186454104Y-85177338D01*
X186371174Y-85117087D01*
X186160802Y-85009897D01*
X185936247Y-84936934D01*
X185936248Y-84936934D01*
X185703052Y-84900000D01*
X185466948Y-84900000D01*
X185233752Y-84936934D01*
X185009197Y-85009897D01*
X184798821Y-85117088D01*
X184798030Y-85117664D01*
X184797678Y-85117789D01*
X184794673Y-85119631D01*
X184794285Y-85118999D01*
X184732221Y-85141137D01*
X184664169Y-85125304D01*
X184615480Y-85075192D01*
X184605381Y-85049432D01*
X184594663Y-85009433D01*
X184592420Y-85001059D01*
X184555116Y-84936446D01*
X184513367Y-84864133D01*
X184513364Y-84864129D01*
X184513363Y-84864127D01*
X184401559Y-84752323D01*
X184401558Y-84752322D01*
X184397228Y-84747992D01*
X184397217Y-84747982D01*
X180842948Y-81193713D01*
X186734500Y-81193713D01*
X186734500Y-81406286D01*
X186767753Y-81616239D01*
X186833444Y-81818414D01*
X186929951Y-82007820D01*
X187054890Y-82179786D01*
X187205213Y-82330109D01*
X187377179Y-82455048D01*
X187377181Y-82455049D01*
X187377184Y-82455051D01*
X187566588Y-82551557D01*
X187768757Y-82617246D01*
X187978713Y-82650500D01*
X187978714Y-82650500D01*
X188191286Y-82650500D01*
X188191287Y-82650500D01*
X188401243Y-82617246D01*
X188603412Y-82551557D01*
X188792816Y-82455051D01*
X188923930Y-82359792D01*
X188964786Y-82330109D01*
X188964788Y-82330106D01*
X188964792Y-82330104D01*
X189115104Y-82179792D01*
X189115106Y-82179788D01*
X189115109Y-82179786D01*
X189240048Y-82007820D01*
X189240047Y-82007820D01*
X189240051Y-82007816D01*
X189336557Y-81818412D01*
X189402246Y-81616243D01*
X189435500Y-81406287D01*
X189435500Y-81193713D01*
X189402246Y-80983757D01*
X189336557Y-80781588D01*
X189240051Y-80592184D01*
X189240049Y-80592181D01*
X189240048Y-80592179D01*
X189115109Y-80420213D01*
X188964786Y-80269890D01*
X188792820Y-80144951D01*
X188603414Y-80048444D01*
X188603413Y-80048443D01*
X188603412Y-80048443D01*
X188401243Y-79982754D01*
X188401241Y-79982753D01*
X188401240Y-79982753D01*
X188232610Y-79956045D01*
X188191287Y-79949500D01*
X187978713Y-79949500D01*
X187937390Y-79956045D01*
X187768760Y-79982753D01*
X187566585Y-80048444D01*
X187377179Y-80144951D01*
X187205213Y-80269890D01*
X187054890Y-80420213D01*
X186929951Y-80592179D01*
X186833444Y-80781585D01*
X186767753Y-80983760D01*
X186734500Y-81193713D01*
X180842948Y-81193713D01*
X176533757Y-76884522D01*
X176500272Y-76823199D01*
X176503507Y-76758523D01*
X176517246Y-76716243D01*
X176550500Y-76506287D01*
X176550500Y-76293713D01*
X176517246Y-76083757D01*
X176451557Y-75881588D01*
X176355051Y-75692184D01*
X176355049Y-75692181D01*
X176355048Y-75692179D01*
X176230109Y-75520213D01*
X176079786Y-75369890D01*
X175907820Y-75244951D01*
X175907115Y-75244591D01*
X175899054Y-75240485D01*
X175848259Y-75192512D01*
X175831463Y-75124692D01*
X175853999Y-75058556D01*
X175899054Y-75019515D01*
X175907816Y-75015051D01*
X175970157Y-74969758D01*
X176079786Y-74890109D01*
X176079788Y-74890106D01*
X176079792Y-74890104D01*
X176230104Y-74739792D01*
X176230106Y-74739788D01*
X176230109Y-74739786D01*
X176355048Y-74567820D01*
X176355047Y-74567820D01*
X176355051Y-74567816D01*
X176451557Y-74378412D01*
X176517246Y-74176243D01*
X176550500Y-73966287D01*
X176550500Y-73753713D01*
X176517246Y-73543757D01*
X176451557Y-73341588D01*
X176355051Y-73152184D01*
X176355049Y-73152181D01*
X176355048Y-73152179D01*
X176230109Y-72980213D01*
X176079786Y-72829890D01*
X175907820Y-72704951D01*
X175907115Y-72704591D01*
X175899054Y-72700485D01*
X175848259Y-72652512D01*
X175831463Y-72584692D01*
X175853999Y-72518556D01*
X175899054Y-72479515D01*
X175907816Y-72475051D01*
X175970157Y-72429758D01*
X176079786Y-72350109D01*
X176079788Y-72350106D01*
X176079792Y-72350104D01*
X176230104Y-72199792D01*
X176230106Y-72199788D01*
X176230109Y-72199786D01*
X176355048Y-72027820D01*
X176355047Y-72027820D01*
X176355051Y-72027816D01*
X176451557Y-71838412D01*
X176517246Y-71636243D01*
X176550500Y-71426287D01*
X176550500Y-71213713D01*
X176535382Y-71118268D01*
X176544336Y-71048979D01*
X176570171Y-71011195D01*
X177544549Y-70036819D01*
X177605872Y-70003334D01*
X177632230Y-70000500D01*
X178673920Y-70000500D01*
X178771462Y-69981096D01*
X178818913Y-69971658D01*
X178955495Y-69915084D01*
X179004729Y-69882186D01*
X179078416Y-69832952D01*
X186821347Y-62090018D01*
X186821354Y-62090013D01*
X186828414Y-62082952D01*
X186828416Y-62082952D01*
X187386952Y-61524416D01*
X187452655Y-61426083D01*
X187469084Y-61401495D01*
X187525658Y-61264913D01*
X187554500Y-61119918D01*
X187554500Y-59587220D01*
X187574185Y-59520181D01*
X187605614Y-59486902D01*
X187683792Y-59430104D01*
X187834104Y-59279792D01*
X187834106Y-59279788D01*
X187834109Y-59279786D01*
X187959048Y-59107820D01*
X187959047Y-59107820D01*
X187959051Y-59107816D01*
X187963514Y-59099054D01*
X188011488Y-59048259D01*
X188079308Y-59031463D01*
X188145444Y-59053999D01*
X188184486Y-59099056D01*
X188188951Y-59107820D01*
X188313890Y-59279786D01*
X188463181Y-59429077D01*
X188496666Y-59490400D01*
X188499500Y-59516758D01*
X188499500Y-60845396D01*
X188490062Y-60892844D01*
X188480263Y-60916503D01*
X188480262Y-60916506D01*
X188480260Y-60916511D01*
X188449500Y-61071153D01*
X188449500Y-61228846D01*
X188480261Y-61383489D01*
X188480264Y-61383501D01*
X188540602Y-61529172D01*
X188540609Y-61529185D01*
X188628210Y-61660288D01*
X188628213Y-61660292D01*
X188739707Y-61771786D01*
X188739711Y-61771789D01*
X188870814Y-61859390D01*
X188870827Y-61859397D01*
X189016498Y-61919735D01*
X189016503Y-61919737D01*
X189171153Y-61950499D01*
X189171156Y-61950500D01*
X189171158Y-61950500D01*
X189328844Y-61950500D01*
X189328845Y-61950499D01*
X189483497Y-61919737D01*
X189629179Y-61859394D01*
X189760289Y-61771789D01*
X189871789Y-61660289D01*
X189959394Y-61529179D01*
X190019737Y-61383497D01*
X190050500Y-61228842D01*
X190050500Y-61071158D01*
X190050500Y-61071155D01*
X190050499Y-61071153D01*
X190019739Y-60916511D01*
X190019738Y-60916508D01*
X190019737Y-60916503D01*
X190009937Y-60892844D01*
X190000500Y-60845396D01*
X190000500Y-59655515D01*
X190020185Y-59588476D01*
X190051615Y-59555196D01*
X190051811Y-59555053D01*
X190051816Y-59555051D01*
X190223792Y-59430104D01*
X190374104Y-59279792D01*
X190374106Y-59279788D01*
X190374109Y-59279786D01*
X190499048Y-59107820D01*
X190499047Y-59107820D01*
X190499051Y-59107816D01*
X190503514Y-59099054D01*
X190551488Y-59048259D01*
X190619308Y-59031463D01*
X190685444Y-59053999D01*
X190724486Y-59099056D01*
X190728951Y-59107820D01*
X190853890Y-59279786D01*
X191004213Y-59430109D01*
X191175161Y-59554308D01*
X191176184Y-59555051D01*
X191181792Y-59557908D01*
X191232589Y-59605881D01*
X191249500Y-59668394D01*
X191249500Y-60845396D01*
X191240062Y-60892844D01*
X191230263Y-60916503D01*
X191230262Y-60916506D01*
X191230260Y-60916511D01*
X191199500Y-61071153D01*
X191199500Y-61228846D01*
X191230261Y-61383489D01*
X191230264Y-61383501D01*
X191290602Y-61529172D01*
X191290609Y-61529185D01*
X191378210Y-61660288D01*
X191378213Y-61660292D01*
X191489707Y-61771786D01*
X191489711Y-61771789D01*
X191620814Y-61859390D01*
X191620827Y-61859397D01*
X191766498Y-61919735D01*
X191766503Y-61919737D01*
X191921153Y-61950499D01*
X191921156Y-61950500D01*
X191921158Y-61950500D01*
X192078844Y-61950500D01*
X192078845Y-61950499D01*
X192233497Y-61919737D01*
X192379179Y-61859394D01*
X192510289Y-61771789D01*
X192621789Y-61660289D01*
X192709394Y-61529179D01*
X192769737Y-61383497D01*
X192800500Y-61228842D01*
X192800500Y-61071158D01*
X192800500Y-61071155D01*
X192800499Y-61071153D01*
X192769739Y-60916511D01*
X192769738Y-60916508D01*
X192769737Y-60916503D01*
X192759937Y-60892844D01*
X192750500Y-60845396D01*
X192750500Y-59494758D01*
X192770185Y-59427719D01*
X192786819Y-59407077D01*
X192836524Y-59357372D01*
X192914104Y-59279792D01*
X192914106Y-59279788D01*
X192914109Y-59279786D01*
X193039048Y-59107820D01*
X193039047Y-59107820D01*
X193039051Y-59107816D01*
X193135557Y-58918412D01*
X193201246Y-58716243D01*
X193234500Y-58506287D01*
X193234500Y-58293713D01*
X193201246Y-58083757D01*
X193135557Y-57881588D01*
X193135555Y-57881585D01*
X193135555Y-57881583D01*
X193135154Y-57880796D01*
X193135091Y-57880463D01*
X193133690Y-57877079D01*
X193134400Y-57876784D01*
X193122257Y-57812127D01*
X193148532Y-57747387D01*
X193205638Y-57707129D01*
X193245638Y-57700500D01*
X201975500Y-57700500D01*
X202042539Y-57720185D01*
G37*
%TD.AperFunction*%
%TA.AperFunction,Conductor*%
G36*
X182857039Y-57720185D02*
G01*
X182902794Y-57772989D01*
X182914000Y-57824500D01*
X182914000Y-58150000D01*
X183830988Y-58150000D01*
X183798075Y-58207007D01*
X183764000Y-58334174D01*
X183764000Y-58465826D01*
X183798075Y-58592993D01*
X183830988Y-58650000D01*
X182914000Y-58650000D01*
X182914000Y-59297844D01*
X182920401Y-59357372D01*
X182920403Y-59357379D01*
X182970645Y-59492086D01*
X182970649Y-59492093D01*
X183056809Y-59607187D01*
X183056812Y-59607190D01*
X183171906Y-59693350D01*
X183171913Y-59693354D01*
X183306620Y-59743596D01*
X183306627Y-59743598D01*
X183366155Y-59749999D01*
X183366172Y-59750000D01*
X184014000Y-59750000D01*
X184014000Y-58833012D01*
X184071007Y-58865925D01*
X184198174Y-58900000D01*
X184329826Y-58900000D01*
X184456993Y-58865925D01*
X184514000Y-58833012D01*
X184514000Y-59750000D01*
X185161828Y-59750000D01*
X185161844Y-59749999D01*
X185221372Y-59743598D01*
X185221379Y-59743596D01*
X185356086Y-59693354D01*
X185356093Y-59693350D01*
X185471187Y-59607190D01*
X185471190Y-59607187D01*
X185557350Y-59492093D01*
X185557354Y-59492086D01*
X185606422Y-59360529D01*
X185648293Y-59304595D01*
X185713757Y-59280178D01*
X185782030Y-59295030D01*
X185810285Y-59316181D01*
X185924208Y-59430104D01*
X186002384Y-59486902D01*
X186045051Y-59542231D01*
X186053500Y-59587220D01*
X186053500Y-60683770D01*
X186033815Y-60750809D01*
X186017181Y-60771451D01*
X178325451Y-68463181D01*
X178264128Y-68496666D01*
X178237770Y-68499500D01*
X177196080Y-68499500D01*
X177051092Y-68528340D01*
X177051086Y-68528342D01*
X176914508Y-68584914D01*
X176914496Y-68584921D01*
X176865270Y-68617811D01*
X176865271Y-68617812D01*
X176791581Y-68667049D01*
X176791577Y-68667052D01*
X176754634Y-68703996D01*
X176693311Y-68737481D01*
X176623619Y-68732495D01*
X176567686Y-68690623D01*
X176544481Y-68635712D01*
X176541646Y-68617811D01*
X176517246Y-68463757D01*
X176451557Y-68261588D01*
X176355051Y-68072184D01*
X176355049Y-68072181D01*
X176355048Y-68072179D01*
X176230109Y-67900213D01*
X176079786Y-67749890D01*
X175907820Y-67624951D01*
X175907115Y-67624591D01*
X175899054Y-67620485D01*
X175848259Y-67572512D01*
X175831463Y-67504692D01*
X175853999Y-67438556D01*
X175899054Y-67399515D01*
X175907816Y-67395051D01*
X175970157Y-67349758D01*
X176079786Y-67270109D01*
X176079788Y-67270106D01*
X176079792Y-67270104D01*
X176230104Y-67119792D01*
X176230106Y-67119788D01*
X176230109Y-67119786D01*
X176355048Y-66947820D01*
X176355047Y-66947820D01*
X176355051Y-66947816D01*
X176451557Y-66758412D01*
X176517246Y-66556243D01*
X176550500Y-66346287D01*
X176550500Y-66133713D01*
X176517246Y-65923757D01*
X176451557Y-65721588D01*
X176355051Y-65532184D01*
X176355049Y-65532181D01*
X176355048Y-65532179D01*
X176230109Y-65360213D01*
X176116181Y-65246285D01*
X176082696Y-65184962D01*
X176087680Y-65115270D01*
X176129552Y-65059337D01*
X176160529Y-65042422D01*
X176292086Y-64993354D01*
X176292093Y-64993350D01*
X176407187Y-64907190D01*
X176407190Y-64907187D01*
X176493350Y-64792093D01*
X176493354Y-64792086D01*
X176543596Y-64657379D01*
X176543598Y-64657372D01*
X176549999Y-64597844D01*
X176550000Y-64597827D01*
X176550000Y-63950000D01*
X175633012Y-63950000D01*
X175665925Y-63892993D01*
X175700000Y-63765826D01*
X175700000Y-63634174D01*
X175665925Y-63507007D01*
X175633012Y-63450000D01*
X176550000Y-63450000D01*
X176550000Y-62802172D01*
X176549999Y-62802155D01*
X176543598Y-62742627D01*
X176543596Y-62742620D01*
X176493354Y-62607913D01*
X176493350Y-62607906D01*
X176407190Y-62492812D01*
X176407187Y-62492809D01*
X176292093Y-62406649D01*
X176292086Y-62406645D01*
X176157379Y-62356403D01*
X176157372Y-62356401D01*
X176097844Y-62350000D01*
X175450000Y-62350000D01*
X175450000Y-63266988D01*
X175392993Y-63234075D01*
X175265826Y-63200000D01*
X175134174Y-63200000D01*
X175007007Y-63234075D01*
X174950000Y-63266988D01*
X174950000Y-62350000D01*
X174302155Y-62350000D01*
X174237756Y-62356925D01*
X174168996Y-62344520D01*
X174117859Y-62296910D01*
X174100500Y-62233636D01*
X174100500Y-57824500D01*
X174120185Y-57757461D01*
X174172989Y-57711706D01*
X174224500Y-57700500D01*
X182790000Y-57700500D01*
X182857039Y-57720185D01*
G37*
%TD.AperFunction*%
%TD*%
M02*
