%TF.GenerationSoftware,KiCad,Pcbnew,10.0.5*%
%TF.CreationDate,2026-09-11T13:15:11-03:00*%
%TF.ProjectId,ControlPCB_SMD_V3.1,436f6e74-726f-46c5-9043-425f534d445f,rev?*%
%TF.SameCoordinates,Original*%
%TF.FileFunction,Soldermask,Bot*%
%TF.FilePolarity,Negative*%
%FSLAX46Y46*%
G04 Gerber Fmt 4.6, Leading zero omitted, Abs format (unit mm)*
G04 Created by KiCad (PCBNEW 10.0.5) date 2026-09-11 13:15:11*
%MOMM*%
%LPD*%
G01*
G04 APERTURE LIST*
%ADD10C,1.930400*%
%ADD11R,1.800000X1.800000*%
%ADD12C,1.800000*%
%ADD13C,2.200000*%
%ADD14R,1.700000X1.700000*%
%ADD15O,1.700000X1.700000*%
%ADD16R,2.000000X2.000000*%
%ADD17C,2.000000*%
%ADD18R,2.000000X3.200000*%
%ADD19C,1.600000*%
%ADD20R,1.500000X1.050000*%
%ADD21O,1.500000X1.050000*%
%ADD22C,1.700000*%
G04 APERTURE END LIST*
D10*
%TO.C,J6*%
X175440200Y-151800000D03*
X186413000Y-151800000D03*
X184000000Y-151800000D03*
%TD*%
%TO.C,J1*%
X182638000Y-109300000D03*
X193610800Y-109300000D03*
X191197800Y-109300000D03*
%TD*%
D11*
%TO.C,D3*%
X194380000Y-131640000D03*
D12*
X196920000Y-131640000D03*
%TD*%
D11*
%TO.C,D5*%
X194380000Y-145850000D03*
D12*
X196920000Y-145850000D03*
%TD*%
D11*
%TO.C,D2*%
X182154200Y-131640000D03*
D12*
X179614200Y-131640000D03*
%TD*%
D10*
%TO.C,J4*%
X175440200Y-137600000D03*
X186413000Y-137600000D03*
X184000000Y-137600000D03*
%TD*%
%TO.C,J7*%
X201100000Y-151800000D03*
X190127200Y-151800000D03*
X192540200Y-151800000D03*
%TD*%
D11*
%TO.C,D4*%
X182154200Y-145850000D03*
D12*
X179614200Y-145850000D03*
%TD*%
D13*
%TO.C,H1*%
X188085000Y-81300000D03*
%TD*%
D10*
%TO.C,J3*%
X201100000Y-123300000D03*
X190127200Y-123300000D03*
X192540200Y-123300000D03*
%TD*%
%TO.C,J5*%
X201100000Y-137600000D03*
X190127200Y-137600000D03*
X192540200Y-137600000D03*
%TD*%
D13*
%TO.C,H2*%
X188085000Y-119200000D03*
%TD*%
D14*
%TO.C,U1*%
X184264000Y-58400000D03*
D15*
X186804000Y-58400000D03*
X189344000Y-58400000D03*
X191884000Y-58400000D03*
%TD*%
D10*
%TO.C,J2*%
X175440200Y-123300000D03*
X186413000Y-123300000D03*
X184000000Y-123300000D03*
%TD*%
D16*
%TO.C,SW1*%
X185585000Y-100900000D03*
D17*
X190585000Y-100900000D03*
X188085000Y-100900000D03*
D18*
X182485000Y-93400000D03*
X193685000Y-93400000D03*
D17*
X190585000Y-86400000D03*
X185585000Y-86400000D03*
%TD*%
D19*
%TO.C,R21*%
X192940000Y-117750000D03*
X200560000Y-117750000D03*
%TD*%
%TO.C,R19*%
X175940000Y-117750000D03*
X183560000Y-117750000D03*
%TD*%
D20*
%TO.C,Q3*%
X188750000Y-140730000D03*
D21*
X188750000Y-142000000D03*
X188750000Y-143270000D03*
%TD*%
D14*
%TO.C,J9*%
X175200000Y-63700000D03*
D22*
X175200000Y-66240000D03*
X175200000Y-68780000D03*
X175200000Y-71320000D03*
X175200000Y-73860000D03*
X175200000Y-76400000D03*
X175200000Y-78940000D03*
X175200000Y-81480000D03*
%TD*%
D19*
%TO.C,R24*%
X200560000Y-129500000D03*
X192940000Y-129500000D03*
%TD*%
D20*
%TO.C,Q1*%
X187750000Y-134270000D03*
D21*
X187750000Y-133000000D03*
X187750000Y-131730000D03*
%TD*%
D19*
%TO.C,R22*%
X175940000Y-129500000D03*
X183560000Y-129500000D03*
%TD*%
%TO.C,R20*%
X200560000Y-114750000D03*
X192940000Y-114750000D03*
%TD*%
D14*
%TO.C,J8*%
X200900000Y-89500000D03*
D22*
X200900000Y-92040000D03*
X200900000Y-94580000D03*
X200900000Y-97120000D03*
X200900000Y-99660000D03*
X200900000Y-102200000D03*
X200900000Y-104740000D03*
X200900000Y-107280000D03*
%TD*%
D20*
%TO.C,Q2*%
X188500000Y-126250000D03*
D21*
X188500000Y-127520000D03*
X188500000Y-128790000D03*
%TD*%
D19*
%TO.C,R25*%
X192940000Y-143750000D03*
X200560000Y-143750000D03*
%TD*%
D20*
%TO.C,Q4*%
X188000000Y-148770000D03*
D21*
X188000000Y-147500000D03*
X188000000Y-146230000D03*
%TD*%
D19*
%TO.C,R18*%
X175940000Y-114750000D03*
X183560000Y-114750000D03*
%TD*%
%TO.C,R23*%
X175940000Y-143750000D03*
X183560000Y-143750000D03*
%TD*%
M02*
