M48
; DRILL file KiCad 10.0.5 date 2026-09-11T13:15:11
; FORMAT={-:-/ absolute / inch / decimal}
; #@! TF.CreationDate,2026-09-11T13:15:11-03:00
; #@! TF.GenerationSoftware,Kicad,Pcbnew,10.0.5
; #@! TF.FileFunction,Plated,1,2,PTH
FMAT,2
INCH
; #@! TA.AperFunction,Plated,PTH,ViaDrill
T1C0.0118
; #@! TA.AperFunction,Plated,PTH,ComponentDrill
T2C0.0295
; #@! TA.AperFunction,Plated,PTH,ComponentDrill
T3C0.0315
; #@! TA.AperFunction,Plated,PTH,ComponentDrill
T4C0.0350
; #@! TA.AperFunction,Plated,PTH,ComponentDrill
T5C0.0354
; #@! TA.AperFunction,Plated,PTH,ComponentDrill
T6C0.0394
; #@! TA.AperFunction,Plated,PTH,ComponentDrill
T7C0.0450
; #@! TA.AperFunction,Plated,PTH,ComponentDrill
T8C0.0591
%
G90
G05
T1
X6.8898Y-5.2067
X6.8996Y-2.2933
X6.9094Y-3.9961
X6.9094Y-5.5118
X6.939Y-3.5039
X6.9547Y-5.0197
X7.0177Y-2.9429
X7.0374Y-2.7559
X7.0768Y-3.9961
X7.1752Y-2.5394
X7.2343Y-4.0453
X7.3228Y-2.7756
X7.3622Y-5.6988
X7.3917Y-4.3012
X7.4508Y-2.4075
X7.4508Y-2.5689
X7.4508Y-5.6988
X7.4902Y-2.7756
X7.5492Y-5.5906
X7.5591Y-2.4075
X7.5787Y-5.315
X7.6476Y-4.124
X7.6555Y-3.9173
X7.7264Y-5.1083
X7.7461Y-4.2815
X7.7854Y-5.2559
X7.7953Y-4.8425
X7.8156Y-4.6122
X7.8248Y-5.6693
X7.8346Y-4.0354
X7.8445Y-4.4587
X7.8839Y-5.1969
X7.8937Y-4.7539
X7.9134Y-4.311
X7.9134Y-5.5413
X7.9429Y-5.0197
T2
X7.3917Y-5.1862
X7.3917Y-5.2362
X7.3917Y-5.2862
X7.4016Y-5.7571
X7.4016Y-5.8071
X7.4016Y-5.8571
X7.4213Y-4.9705
X7.4213Y-5.0205
X7.4213Y-5.0705
X7.4311Y-5.5406
X7.4311Y-5.5906
X7.4311Y-5.6406
T3
X6.9268Y-4.5177
X6.9268Y-4.6358
X6.9268Y-5.0984
X6.9268Y-5.6594
X7.2268Y-4.5177
X7.2268Y-4.6358
X7.2268Y-5.0984
X7.2268Y-5.6594
X7.5961Y-4.5177
X7.5961Y-4.6358
X7.5961Y-5.0984
X7.5961Y-5.6594
X7.8961Y-4.5177
X7.8961Y-4.6358
X7.8961Y-5.0984
X7.8961Y-5.6594
T4
X7.3391Y-4.8543
X7.3391Y-5.4173
X7.3391Y-5.9764
X7.4853Y-4.8543
X7.4853Y-5.4173
X7.4853Y-5.9764
X7.6225Y-4.3031
T5
X7.0714Y-5.1827
X7.0714Y-5.7421
X7.1714Y-5.1827
X7.1714Y-5.7421
X7.6528Y-5.1827
X7.6528Y-5.7421
X7.7528Y-5.1827
X7.7528Y-5.7421
T6
X6.8976Y-2.5079
X6.8976Y-2.6079
X6.8976Y-2.7079
X6.8976Y-2.8079
X6.8976Y-2.9079
X6.8976Y-3.0079
X6.8976Y-3.1079
X6.8976Y-3.2079
X7.2545Y-2.2992
X7.3065Y-3.4016
X7.3065Y-3.9724
X7.3545Y-2.2992
X7.4049Y-3.9724
X7.4545Y-2.2992
X7.5033Y-3.4016
X7.5033Y-3.9724
X7.5545Y-2.2992
X7.9094Y-3.5236
X7.9094Y-3.6236
X7.9094Y-3.7236
X7.9094Y-3.8236
X7.9094Y-3.9236
X7.9094Y-4.0236
X7.9094Y-4.1236
X7.9094Y-4.2236
T7
X6.9071Y-4.8543
X6.9071Y-5.4173
X6.9071Y-5.9764
X7.1905Y-4.3031
X7.2441Y-4.8543
X7.2441Y-5.4173
X7.2441Y-5.9764
X7.5275Y-4.3031
X7.5803Y-4.8543
X7.5803Y-5.4173
X7.5803Y-5.9764
X7.9173Y-4.8543
X7.9173Y-5.4173
X7.9173Y-5.9764
T8
G00X7.1844Y-3.7028
M15
G01X7.1844Y-3.6516
M16
G05
G00X7.6254Y-3.7028
M15
G01X7.6254Y-3.6516
M16
G05
M30
