%TF.GenerationSoftware,KiCad,Pcbnew,10.0.5*%
%TF.CreationDate,2026-09-11T17:02:31-03:00*%
%TF.ProjectId,ControlPCB_SMD_V3.1,436f6e74-726f-46c5-9043-425f534d445f,rev?*%
%TF.SameCoordinates,Original*%
%TF.FileFunction,Copper,L2,Bot*%
%TF.FilePolarity,Positive*%
%FSLAX46Y46*%
G04 Gerber Fmt 4.6, Leading zero omitted, Abs format (unit mm)*
G04 Created by KiCad (PCBNEW 10.0.5) date 2026-09-11 17:02:31*
%MOMM*%
%LPD*%
G01*
G04 APERTURE LIST*
%TA.AperFunction,ComponentPad*%
%ADD10C,1.930400*%
%TD*%
%TA.AperFunction,ComponentPad*%
%ADD11R,1.800000X1.800000*%
%TD*%
%TA.AperFunction,ComponentPad*%
%ADD12C,1.800000*%
%TD*%
%TA.AperFunction,ComponentPad*%
%ADD13R,1.700000X1.700000*%
%TD*%
%TA.AperFunction,ComponentPad*%
%ADD14O,1.700000X1.700000*%
%TD*%
%TA.AperFunction,ComponentPad*%
%ADD15R,2.000000X2.000000*%
%TD*%
%TA.AperFunction,ComponentPad*%
%ADD16C,2.000000*%
%TD*%
%TA.AperFunction,ComponentPad*%
%ADD17R,2.000000X3.200000*%
%TD*%
%TA.AperFunction,ComponentPad*%
%ADD18C,1.700000*%
%TD*%
%TA.AperFunction,ComponentPad*%
%ADD19C,1.600000*%
%TD*%
%TA.AperFunction,ComponentPad*%
%ADD20R,1.600000X1.600000*%
%TD*%
%TA.AperFunction,ComponentPad*%
%ADD21O,1.600000X1.600000*%
%TD*%
%TA.AperFunction,ViaPad*%
%ADD22C,0.600000*%
%TD*%
%TA.AperFunction,Conductor*%
%ADD23C,0.200000*%
%TD*%
%TA.AperFunction,Conductor*%
%ADD24C,0.500000*%
%TD*%
G04 APERTURE END LIST*
D10*
%TO.P,J6,1,SIG_1*%
%TO.N,O3_CON*%
X175440200Y-151800000D03*
%TO.P,J6,2,SHEILD_2*%
%TO.N,GND*%
X186413000Y-151800000D03*
%TO.P,J6,3,SW_3*%
%TO.N,unconnected-(J6-SW-Pad3)*%
X184000000Y-151800000D03*
%TD*%
%TO.P,J1,1,SIG_1*%
%TO.N,IN1_CON*%
X182638000Y-109300000D03*
%TO.P,J1,2,SHEILD_2*%
%TO.N,GND*%
X193610800Y-109300000D03*
%TO.P,J1,3,SW_3*%
X191197800Y-109300000D03*
%TD*%
D11*
%TO.P,D3,1,K_1*%
%TO.N,Net-(D3-K)*%
X194380000Y-131640000D03*
D12*
%TO.P,D3,2,A_2*%
%TO.N,Net-(D3-A)*%
X196920000Y-131640000D03*
%TD*%
D11*
%TO.P,D5,1,K_1*%
%TO.N,Net-(D5-K)*%
X194380000Y-145850000D03*
D12*
%TO.P,D5,2,A_2*%
%TO.N,Net-(D5-A)*%
X196920000Y-145850000D03*
%TD*%
D11*
%TO.P,D2,1,K_1*%
%TO.N,Net-(D2-K)*%
X182154200Y-131640000D03*
D12*
%TO.P,D2,2,A_2*%
%TO.N,Net-(D2-A)*%
X179614200Y-131640000D03*
%TD*%
D10*
%TO.P,J4,1,SIG_1*%
%TO.N,O1_CON*%
X175440200Y-137600000D03*
%TO.P,J4,2,SHEILD_2*%
%TO.N,GND*%
X186413000Y-137600000D03*
%TO.P,J4,3,SW_3*%
%TO.N,unconnected-(J4-SW-Pad3)*%
X184000000Y-137600000D03*
%TD*%
%TO.P,J7,1,SIG_1*%
%TO.N,O4_CON*%
X201100000Y-151800000D03*
%TO.P,J7,2,SHEILD_2*%
%TO.N,GND*%
X190127200Y-151800000D03*
%TO.P,J7,3,SW_3*%
%TO.N,unconnected-(J7-SW-Pad3)*%
X192540200Y-151800000D03*
%TD*%
D11*
%TO.P,D4,1,K_1*%
%TO.N,Net-(D4-K)*%
X182154200Y-145850000D03*
D12*
%TO.P,D4,2,A_2*%
%TO.N,Net-(D4-A)*%
X179614200Y-145850000D03*
%TD*%
D10*
%TO.P,J3,1,SIG_1*%
%TO.N,IN3_CON*%
X201100000Y-123300000D03*
%TO.P,J3,2,SHEILD_2*%
%TO.N,GND*%
X190127200Y-123300000D03*
%TO.P,J3,3,SW_3*%
X192540200Y-123300000D03*
%TD*%
%TO.P,J5,1,SIG_1*%
%TO.N,O2_CON*%
X201100000Y-137600000D03*
%TO.P,J5,2,SHEILD_2*%
%TO.N,GND*%
X190127200Y-137600000D03*
%TO.P,J5,3,SW_3*%
%TO.N,unconnected-(J5-SW-Pad3)*%
X192540200Y-137600000D03*
%TD*%
D13*
%TO.P,U1,1,GND_1*%
%TO.N,GND*%
X184264000Y-58400000D03*
D14*
%TO.P,U1,2,VCC_2*%
%TO.N,3.3V*%
X186804000Y-58400000D03*
%TO.P,U1,3,SCL_3*%
%TO.N,SCL*%
X189344000Y-58400000D03*
%TO.P,U1,4,SDA_4*%
%TO.N,SDA*%
X191884000Y-58400000D03*
%TD*%
D10*
%TO.P,J2,1,SIG_1*%
%TO.N,IN2_CON*%
X175440200Y-123300000D03*
%TO.P,J2,2,SHEILD_2*%
%TO.N,GND*%
X186413000Y-123300000D03*
%TO.P,J2,3,SW_3*%
X184000000Y-123300000D03*
%TD*%
D15*
%TO.P,SW1,A,A_A*%
%TO.N,ENC_1*%
X185585000Y-100900000D03*
D16*
%TO.P,SW1,B,B_B*%
%TO.N,ENC_2*%
X190585000Y-100900000D03*
%TO.P,SW1,C,C_C*%
%TO.N,GND*%
X188085000Y-100900000D03*
D17*
%TO.P,SW1,MP,MP_MP*%
X182485000Y-93400000D03*
X193685000Y-93400000D03*
D16*
%TO.P,SW1,S1,S1_S1*%
%TO.N,ENC_SW*%
X190585000Y-86400000D03*
%TO.P,SW1,S2,S2_S2*%
%TO.N,GND*%
X185585000Y-86400000D03*
%TD*%
D13*
%TO.P,J9,1,Pin_1_1*%
%TO.N,GND*%
X175200000Y-63700000D03*
D18*
%TO.P,J9,2,Pin_2_2*%
%TO.N,SDA*%
X175200000Y-66240000D03*
%TO.P,J9,3,Pin_3_3*%
%TO.N,SCL*%
X175200000Y-68780000D03*
%TO.P,J9,4,Pin_4_4*%
%TO.N,3.3V*%
X175200000Y-71320000D03*
%TO.P,J9,5,Pin_5_5*%
%TO.N,5V*%
X175200000Y-73860000D03*
%TO.P,J9,6,Pin_6_6*%
%TO.N,IN1_CON*%
X175200000Y-76400000D03*
%TO.P,J9,7,Pin_7_7*%
%TO.N,IN2_CON*%
X175200000Y-78940000D03*
%TO.P,J9,8,Pin_8_8*%
%TO.N,IN3_CON*%
X175200000Y-81480000D03*
%TD*%
D19*
%TO.P,C2,1*%
%TO.N,3.3V*%
X189000000Y-63250000D03*
%TO.P,C2,2*%
%TO.N,GND*%
X194000000Y-63250000D03*
%TD*%
%TO.P,C1,1*%
%TO.N,3.3V*%
X186514600Y-63250000D03*
%TO.P,C1,2*%
%TO.N,GND*%
X181434600Y-63250000D03*
%TD*%
%TO.P,R34,1*%
%TO.N,Net-(U2C-+)*%
X179250000Y-96810000D03*
%TO.P,R34,2*%
%TO.N,O3_CON*%
X179250000Y-89190000D03*
%TD*%
%TO.P,R30,1*%
%TO.N,GND*%
X200250000Y-61940000D03*
%TO.P,R30,2*%
%TO.N,Net-(U2B-+)*%
X200250000Y-69560000D03*
%TD*%
%TO.P,R35,1*%
%TO.N,GND*%
X179250000Y-106560000D03*
%TO.P,R35,2*%
%TO.N,Net-(U2C-+)*%
X179250000Y-98940000D03*
%TD*%
%TO.P,R26,1*%
%TO.N,Net-(U2A-+)*%
X178500000Y-71690000D03*
%TO.P,R26,2*%
%TO.N,O1_CON*%
X178500000Y-79310000D03*
%TD*%
D13*
%TO.P,J8,1,Pin_1_1*%
%TO.N,ENC_SW*%
X200900000Y-89500000D03*
D18*
%TO.P,J8,2,Pin_2_2*%
%TO.N,ENC_1*%
X200900000Y-92040000D03*
%TO.P,J8,3,Pin_3_3*%
%TO.N,ENC_2*%
X200900000Y-94580000D03*
%TO.P,J8,4,Pin_4_4*%
%TO.N,O1_CON*%
X200900000Y-97120000D03*
%TO.P,J8,5,Pin_5_5*%
%TO.N,O2_CON*%
X200900000Y-99660000D03*
%TO.P,J8,6,Pin_6_6*%
%TO.N,O3_CON*%
X200900000Y-102200000D03*
%TO.P,J8,7,Pin_7_7*%
%TO.N,O4_CON*%
X200900000Y-104740000D03*
%TO.P,J8,8,Pin_8_8*%
%TO.N,GND*%
X200900000Y-107280000D03*
%TD*%
D19*
%TO.P,R29,1*%
%TO.N,Net-(U2B-+)*%
X200250000Y-71690000D03*
%TO.P,R29,2*%
%TO.N,O2_CON*%
X200250000Y-79310000D03*
%TD*%
D20*
%TO.P,U2,1*%
%TO.N,Net-(D2-A)*%
X181900000Y-66450000D03*
D21*
%TO.P,U2,2,-_2*%
%TO.N,Net-(D2-K)*%
X184440000Y-66450000D03*
%TO.P,U2,3,+_3*%
%TO.N,Net-(U2A-+)*%
X186980000Y-66450000D03*
%TO.P,U2,4,V+_4*%
%TO.N,5V*%
X189520000Y-66450000D03*
%TO.P,U2,5,+_5*%
%TO.N,Net-(U2B-+)*%
X192060000Y-66450000D03*
%TO.P,U2,6,-_6*%
%TO.N,Net-(D3-K)*%
X194600000Y-66450000D03*
%TO.P,U2,7*%
%TO.N,Net-(D3-A)*%
X197140000Y-66450000D03*
%TO.P,U2,8*%
%TO.N,Net-(D4-A)*%
X197140000Y-74070000D03*
%TO.P,U2,9,-_9*%
%TO.N,Net-(D4-K)*%
X194600000Y-74070000D03*
%TO.P,U2,10,+_10*%
%TO.N,Net-(U2C-+)*%
X192060000Y-74070000D03*
%TO.P,U2,11,V-_11*%
%TO.N,GND*%
X189520000Y-74070000D03*
%TO.P,U2,12,+_12*%
%TO.N,Net-(U2D-+)*%
X186980000Y-74070000D03*
%TO.P,U2,13,-_13*%
%TO.N,Net-(D5-K)*%
X184440000Y-74070000D03*
%TO.P,U2,14*%
%TO.N,Net-(D5-A)*%
X181900000Y-74070000D03*
%TD*%
D19*
%TO.P,R36,1*%
%TO.N,Net-(U2D-+)*%
X196750000Y-96810000D03*
%TO.P,R36,2*%
%TO.N,O4_CON*%
X196750000Y-89190000D03*
%TD*%
%TO.P,R32,1*%
%TO.N,GND*%
X176130000Y-143500000D03*
%TO.P,R32,2*%
%TO.N,Net-(D4-K)*%
X183750000Y-143500000D03*
%TD*%
%TO.P,R37,1*%
%TO.N,GND*%
X196750000Y-106620000D03*
%TO.P,R37,2*%
%TO.N,Net-(U2D-+)*%
X196750000Y-99000000D03*
%TD*%
%TO.P,R27,1*%
%TO.N,GND*%
X178500000Y-61940000D03*
%TO.P,R27,2*%
%TO.N,Net-(U2A-+)*%
X178500000Y-69560000D03*
%TD*%
%TO.P,R33,1*%
%TO.N,GND*%
X200810000Y-143500000D03*
%TO.P,R33,2*%
%TO.N,Net-(D5-K)*%
X193190000Y-143500000D03*
%TD*%
%TO.P,R31,1*%
%TO.N,GND*%
X200810000Y-129250000D03*
%TO.P,R31,2*%
%TO.N,Net-(D3-K)*%
X193190000Y-129250000D03*
%TD*%
%TO.P,R28,1*%
%TO.N,GND*%
X175940000Y-129500000D03*
%TO.P,R28,2*%
%TO.N,Net-(D2-K)*%
X183560000Y-129500000D03*
%TD*%
D22*
%TO.N,O3_CON*%
X179019265Y-102230735D03*
X198600000Y-90250000D03*
%TO.N,GND*%
X200250000Y-132000000D03*
X201750000Y-127500000D03*
X199250000Y-113250000D03*
X190250000Y-70250000D03*
X196750000Y-135000000D03*
X197000000Y-93250000D03*
X175250000Y-83750000D03*
X187750000Y-109250000D03*
X179250000Y-112500000D03*
X197000000Y-110000000D03*
X189250000Y-65250000D03*
X179250000Y-104750000D03*
%TO.N,IN1_CON*%
X177868628Y-101118628D03*
%TO.N,Net-(D5-K)*%
X193750000Y-75150000D03*
%TO.N,O1_CON*%
X176900000Y-94500000D03*
X178250000Y-94500000D03*
%TO.N,Net-(D4-K)*%
X190519265Y-139980735D03*
%TO.N,IN3_CON*%
X176250000Y-120500000D03*
%TO.N,O2_CON*%
X198050000Y-137500000D03*
X198500000Y-99660000D03*
%TO.N,SCL*%
X188750000Y-61250000D03*
%TO.N,SDA*%
X189928538Y-60791336D03*
%TO.N,ENC_1*%
X187310000Y-91190000D03*
%TO.N,ENC_2*%
X189650000Y-95110000D03*
%TO.N,Net-(D4-A)*%
X183940000Y-76750000D03*
%TO.N,Net-(D5-A)*%
X195200000Y-75750000D03*
%TO.N,Net-(U2C-+)*%
X190852206Y-97397794D03*
%TO.N,Net-(U2D-+)*%
X199750000Y-73500000D03*
%TD*%
%TO.N,O3_CON*%
D23*
X180350000Y-90290000D02*
X179250000Y-89190000D01*
X198560000Y-90290000D02*
X180350000Y-90290000D01*
X198600000Y-90250000D02*
X198560000Y-90290000D01*
X179050000Y-102200000D02*
X179019265Y-102230735D01*
X200900000Y-102200000D02*
X179050000Y-102200000D01*
%TO.N,IN1_CON*%
X177868628Y-101928628D02*
X182638000Y-106698000D01*
X182638000Y-106698000D02*
X182638000Y-109300000D01*
X177868628Y-101118628D02*
X177868628Y-101928628D01*
%TO.N,Net-(D5-K)*%
X193650000Y-75250000D02*
X185620000Y-75250000D01*
X185620000Y-75250000D02*
X184440000Y-74070000D01*
X193750000Y-75150000D02*
X193650000Y-75250000D01*
%TO.N,O1_CON*%
X176900000Y-94500000D02*
X178250000Y-94500000D01*
X179460000Y-95710000D02*
X178250000Y-94500000D01*
X200900000Y-97120000D02*
X199490000Y-95710000D01*
X199490000Y-95710000D02*
X179460000Y-95710000D01*
%TO.N,Net-(D4-K)*%
X190519265Y-139980735D02*
X187000000Y-143500000D01*
X187000000Y-143500000D02*
X183750000Y-143500000D01*
%TO.N,IN3_CON*%
X199050000Y-121250000D02*
X201100000Y-123300000D01*
X176250000Y-120500000D02*
X177000000Y-121250000D01*
X177000000Y-121250000D02*
X199050000Y-121250000D01*
%TO.N,O2_CON*%
X198050000Y-137500000D02*
X198150000Y-137600000D01*
X198150000Y-137600000D02*
X201100000Y-137600000D01*
X198500000Y-99660000D02*
X200900000Y-99660000D01*
%TO.N,SCL*%
X188750000Y-61250000D02*
X181878965Y-61250000D01*
X181878965Y-61250000D02*
X175200000Y-67928965D01*
X175200000Y-67928965D02*
X175200000Y-68780000D01*
%TO.N,SDA*%
X189787202Y-60650000D02*
X181345635Y-60650000D01*
X189928538Y-60791336D02*
X189787202Y-60650000D01*
X181345635Y-60650000D02*
X175755635Y-66240000D01*
%TO.N,ENC_1*%
X200050000Y-91190000D02*
X200900000Y-92040000D01*
X187310000Y-91190000D02*
X200050000Y-91190000D01*
%TO.N,ENC_2*%
X189650000Y-95110000D02*
X190000000Y-95110000D01*
X200180000Y-95300000D02*
X200900000Y-94580000D01*
X190190000Y-95300000D02*
X200180000Y-95300000D01*
X190000000Y-95110000D02*
X190190000Y-95300000D01*
%TO.N,ENC_SW*%
X197800000Y-86400000D02*
X190585000Y-86400000D01*
X200900000Y-89500000D02*
X197800000Y-86400000D01*
%TO.N,3.3V*%
D24*
X180850000Y-65000000D02*
X175200000Y-70650000D01*
X184764600Y-65000000D02*
X180850000Y-65000000D01*
X175200000Y-70650000D02*
X175200000Y-71320000D01*
X186514600Y-63250000D02*
X184764600Y-65000000D01*
X189000000Y-63250000D02*
X186514600Y-63250000D01*
%TO.N,Net-(D4-A)*%
D23*
X196148529Y-76758527D02*
X196157056Y-76750000D01*
X195642944Y-76750000D02*
X195651471Y-76758527D01*
X196157056Y-76750000D02*
X196250000Y-76750000D01*
X196250000Y-76750000D02*
X197140000Y-75860000D01*
X183940000Y-76750000D02*
X195642944Y-76750000D01*
X197140000Y-75860000D02*
X197140000Y-74070000D01*
X195651471Y-76758527D02*
X196148529Y-76758527D01*
%TO.N,Net-(D5-A)*%
X195200000Y-75750000D02*
X183580000Y-75750000D01*
X183580000Y-75750000D02*
X181900000Y-74070000D01*
%TO.N,5V*%
D24*
X178097767Y-73860000D02*
X175200000Y-73860000D01*
X180250000Y-71707767D02*
X178097767Y-73860000D01*
X189520000Y-66450000D02*
X187470000Y-68500000D01*
X180500000Y-68500000D02*
X180250000Y-68750000D01*
X187470000Y-68500000D02*
X180500000Y-68500000D01*
X180250000Y-68750000D02*
X180250000Y-71707767D01*
%TO.N,Net-(U2A-+)*%
D23*
X185995635Y-66450000D02*
X184695635Y-67750000D01*
X180250000Y-67810000D02*
X178500000Y-69560000D01*
X184695635Y-67750000D02*
X180250000Y-67750000D01*
X180250000Y-67750000D02*
X180250000Y-67810000D01*
X186980000Y-66450000D02*
X185995635Y-66450000D01*
X178500000Y-69560000D02*
X178500000Y-71690000D01*
%TO.N,Net-(U2B-+)*%
X198750000Y-67750000D02*
X198750000Y-68060000D01*
X193360000Y-67750000D02*
X198750000Y-67750000D01*
X192060000Y-66450000D02*
X193360000Y-67750000D01*
X198750000Y-68060000D02*
X200250000Y-69560000D01*
X200250000Y-69560000D02*
X200250000Y-71690000D01*
%TO.N,Net-(U2C-+)*%
X179950000Y-96110000D02*
X179250000Y-96810000D01*
X189564412Y-96110000D02*
X179950000Y-96110000D01*
X190852206Y-97397794D02*
X189564412Y-96110000D01*
X179250000Y-96810000D02*
X179250000Y-98940000D01*
%TO.N,Net-(U2D-+)*%
X199000000Y-72750000D02*
X188300000Y-72750000D01*
X199750000Y-73500000D02*
X199000000Y-72750000D01*
X188300000Y-72750000D02*
X186980000Y-74070000D01*
%TD*%
%TA.AperFunction,Conductor*%
%TO.N,GND*%
G36*
X182857039Y-57720185D02*
G01*
X182902794Y-57772989D01*
X182914000Y-57824500D01*
X182914000Y-58150000D01*
X183830988Y-58150000D01*
X183798075Y-58207007D01*
X183764000Y-58334174D01*
X183764000Y-58465826D01*
X183798075Y-58592993D01*
X183830988Y-58650000D01*
X182914000Y-58650000D01*
X182914000Y-59297844D01*
X182920401Y-59357372D01*
X182920403Y-59357379D01*
X182970645Y-59492086D01*
X182970649Y-59492093D01*
X183056809Y-59607187D01*
X183056812Y-59607190D01*
X183171906Y-59693350D01*
X183171913Y-59693354D01*
X183306620Y-59743596D01*
X183306627Y-59743598D01*
X183366155Y-59749999D01*
X183366172Y-59750000D01*
X184014000Y-59750000D01*
X184014000Y-58833012D01*
X184071007Y-58865925D01*
X184198174Y-58900000D01*
X184329826Y-58900000D01*
X184456993Y-58865925D01*
X184514000Y-58833012D01*
X184514000Y-59750000D01*
X185161828Y-59750000D01*
X185161844Y-59749999D01*
X185221372Y-59743598D01*
X185221379Y-59743596D01*
X185356086Y-59693354D01*
X185356093Y-59693350D01*
X185471187Y-59607190D01*
X185471190Y-59607187D01*
X185557350Y-59492093D01*
X185557354Y-59492086D01*
X185606422Y-59360529D01*
X185648293Y-59304595D01*
X185713757Y-59280178D01*
X185782030Y-59295030D01*
X185810285Y-59316181D01*
X185924213Y-59430109D01*
X186096179Y-59555048D01*
X186096181Y-59555049D01*
X186096184Y-59555051D01*
X186285588Y-59651557D01*
X186487757Y-59717246D01*
X186697713Y-59750500D01*
X186697714Y-59750500D01*
X186910286Y-59750500D01*
X186910287Y-59750500D01*
X187120243Y-59717246D01*
X187322412Y-59651557D01*
X187511816Y-59555051D01*
X187598471Y-59492093D01*
X187683786Y-59430109D01*
X187683788Y-59430106D01*
X187683792Y-59430104D01*
X187834104Y-59279792D01*
X187834106Y-59279788D01*
X187834109Y-59279786D01*
X187959048Y-59107820D01*
X187959047Y-59107820D01*
X187959051Y-59107816D01*
X187963514Y-59099054D01*
X188011488Y-59048259D01*
X188079308Y-59031463D01*
X188145444Y-59053999D01*
X188184486Y-59099056D01*
X188188951Y-59107820D01*
X188313890Y-59279786D01*
X188464213Y-59430109D01*
X188636179Y-59555048D01*
X188636181Y-59555049D01*
X188636184Y-59555051D01*
X188825588Y-59651557D01*
X189027757Y-59717246D01*
X189237713Y-59750500D01*
X189237714Y-59750500D01*
X189450286Y-59750500D01*
X189450287Y-59750500D01*
X189660243Y-59717246D01*
X189862412Y-59651557D01*
X190051816Y-59555051D01*
X190138471Y-59492093D01*
X190223786Y-59430109D01*
X190223788Y-59430106D01*
X190223792Y-59430104D01*
X190374104Y-59279792D01*
X190374106Y-59279788D01*
X190374109Y-59279786D01*
X190499048Y-59107820D01*
X190499047Y-59107820D01*
X190499051Y-59107816D01*
X190503514Y-59099054D01*
X190551488Y-59048259D01*
X190619308Y-59031463D01*
X190685444Y-59053999D01*
X190724486Y-59099056D01*
X190728951Y-59107820D01*
X190853890Y-59279786D01*
X191004213Y-59430109D01*
X191176179Y-59555048D01*
X191176181Y-59555049D01*
X191176184Y-59555051D01*
X191365588Y-59651557D01*
X191567757Y-59717246D01*
X191777713Y-59750500D01*
X191777714Y-59750500D01*
X191990286Y-59750500D01*
X191990287Y-59750500D01*
X192200243Y-59717246D01*
X192402412Y-59651557D01*
X192591816Y-59555051D01*
X192678471Y-59492093D01*
X192763786Y-59430109D01*
X192763788Y-59430106D01*
X192763792Y-59430104D01*
X192914104Y-59279792D01*
X192914106Y-59279788D01*
X192914109Y-59279786D01*
X193039048Y-59107820D01*
X193039047Y-59107820D01*
X193039051Y-59107816D01*
X193135557Y-58918412D01*
X193201246Y-58716243D01*
X193234500Y-58506287D01*
X193234500Y-58293713D01*
X193201246Y-58083757D01*
X193135557Y-57881588D01*
X193135555Y-57881585D01*
X193135555Y-57881583D01*
X193135154Y-57880796D01*
X193135091Y-57880463D01*
X193133690Y-57877079D01*
X193134400Y-57876784D01*
X193122257Y-57812127D01*
X193148532Y-57747387D01*
X193205638Y-57707129D01*
X193245638Y-57700500D01*
X201975500Y-57700500D01*
X202042539Y-57720185D01*
X202088294Y-57772989D01*
X202099500Y-57824500D01*
X202099500Y-88067581D01*
X202079815Y-88134620D01*
X202027011Y-88180375D01*
X201957853Y-88190319D01*
X201932168Y-88183763D01*
X201857485Y-88155909D01*
X201857483Y-88155908D01*
X201797883Y-88149501D01*
X201797881Y-88149500D01*
X201797873Y-88149500D01*
X201797865Y-88149500D01*
X200450097Y-88149500D01*
X200383058Y-88129815D01*
X200362416Y-88113181D01*
X198287590Y-86038355D01*
X198287588Y-86038352D01*
X198168717Y-85919481D01*
X198168716Y-85919480D01*
X198081904Y-85869360D01*
X198081904Y-85869359D01*
X198081900Y-85869358D01*
X198031785Y-85840423D01*
X197879057Y-85799499D01*
X197720943Y-85799499D01*
X197713347Y-85799499D01*
X197713331Y-85799500D01*
X192039068Y-85799500D01*
X191972029Y-85779815D01*
X191928583Y-85731795D01*
X191868477Y-85613830D01*
X191868343Y-85613567D01*
X191729517Y-85422490D01*
X191562510Y-85255483D01*
X191371433Y-85116657D01*
X191160996Y-85009433D01*
X190936368Y-84936446D01*
X190703097Y-84899500D01*
X190703092Y-84899500D01*
X190466908Y-84899500D01*
X190466903Y-84899500D01*
X190233631Y-84936446D01*
X190009003Y-85009433D01*
X189798566Y-85116657D01*
X189715047Y-85177338D01*
X189607490Y-85255483D01*
X189607488Y-85255485D01*
X189607487Y-85255485D01*
X189440485Y-85422487D01*
X189440485Y-85422488D01*
X189440483Y-85422490D01*
X189380862Y-85504550D01*
X189301657Y-85613566D01*
X189194433Y-85824003D01*
X189121446Y-86048631D01*
X189084500Y-86281902D01*
X189084500Y-86518097D01*
X189121446Y-86751368D01*
X189194433Y-86975996D01*
X189301519Y-87186163D01*
X189301657Y-87186433D01*
X189440483Y-87377510D01*
X189607490Y-87544517D01*
X189798567Y-87683343D01*
X189897991Y-87734002D01*
X190009003Y-87790566D01*
X190009005Y-87790566D01*
X190009008Y-87790568D01*
X190129412Y-87829689D01*
X190233631Y-87863553D01*
X190466903Y-87900500D01*
X190466908Y-87900500D01*
X190703097Y-87900500D01*
X190936368Y-87863553D01*
X190937870Y-87863065D01*
X191160992Y-87790568D01*
X191371433Y-87683343D01*
X191562510Y-87544517D01*
X191729517Y-87377510D01*
X191868343Y-87186433D01*
X191928583Y-87068204D01*
X191976558Y-87017409D01*
X192039068Y-87000500D01*
X197499903Y-87000500D01*
X197566942Y-87020185D01*
X197587584Y-87036819D01*
X199513181Y-88962416D01*
X199546666Y-89023739D01*
X199549500Y-89050097D01*
X199549500Y-89827099D01*
X199529815Y-89894138D01*
X199477011Y-89939893D01*
X199407853Y-89949837D01*
X199344297Y-89920812D01*
X199310937Y-89874546D01*
X199309394Y-89870821D01*
X199309392Y-89870818D01*
X199309390Y-89870814D01*
X199221789Y-89739711D01*
X199221786Y-89739707D01*
X199110292Y-89628213D01*
X199110288Y-89628210D01*
X198979185Y-89540609D01*
X198979172Y-89540602D01*
X198833501Y-89480264D01*
X198833489Y-89480261D01*
X198678845Y-89449500D01*
X198678842Y-89449500D01*
X198521158Y-89449500D01*
X198521155Y-89449500D01*
X198366510Y-89480261D01*
X198366498Y-89480264D01*
X198220827Y-89540602D01*
X198215446Y-89543479D01*
X198214698Y-89542079D01*
X198155384Y-89560643D01*
X198088007Y-89542148D01*
X198041324Y-89490163D01*
X198030157Y-89421192D01*
X198030708Y-89417307D01*
X198050500Y-89292352D01*
X198050500Y-89087648D01*
X198018477Y-88885466D01*
X197955220Y-88690781D01*
X197955218Y-88690778D01*
X197955218Y-88690776D01*
X197921503Y-88624607D01*
X197862287Y-88508390D01*
X197854556Y-88497749D01*
X197741971Y-88342786D01*
X197597213Y-88198028D01*
X197431613Y-88077715D01*
X197431612Y-88077714D01*
X197431610Y-88077713D01*
X197374653Y-88048691D01*
X197249223Y-87984781D01*
X197054534Y-87921522D01*
X196879995Y-87893878D01*
X196852352Y-87889500D01*
X196647648Y-87889500D01*
X196623329Y-87893351D01*
X196445465Y-87921522D01*
X196250776Y-87984781D01*
X196068386Y-88077715D01*
X195902786Y-88198028D01*
X195758028Y-88342786D01*
X195637715Y-88508386D01*
X195544781Y-88690776D01*
X195481522Y-88885465D01*
X195449500Y-89087648D01*
X195449500Y-89292351D01*
X195481523Y-89494535D01*
X195481524Y-89494542D01*
X195492130Y-89527183D01*
X195494125Y-89597024D01*
X195458044Y-89656857D01*
X195395343Y-89687684D01*
X195374199Y-89689500D01*
X180650097Y-89689500D01*
X180583058Y-89669815D01*
X180562416Y-89653181D01*
X180544077Y-89634842D01*
X180510592Y-89573519D01*
X180513828Y-89508841D01*
X180518477Y-89494534D01*
X180550500Y-89292352D01*
X180550500Y-89087648D01*
X180518477Y-88885466D01*
X180455220Y-88690781D01*
X180455218Y-88690778D01*
X180455218Y-88690776D01*
X180421503Y-88624607D01*
X180362287Y-88508390D01*
X180354556Y-88497749D01*
X180241971Y-88342786D01*
X180097213Y-88198028D01*
X179931613Y-88077715D01*
X179931612Y-88077714D01*
X179931610Y-88077713D01*
X179874653Y-88048691D01*
X179749223Y-87984781D01*
X179554534Y-87921522D01*
X179379995Y-87893878D01*
X179352352Y-87889500D01*
X179147648Y-87889500D01*
X179123329Y-87893351D01*
X178945465Y-87921522D01*
X178750776Y-87984781D01*
X178568386Y-88077715D01*
X178402786Y-88198028D01*
X178258028Y-88342786D01*
X178137715Y-88508386D01*
X178044781Y-88690776D01*
X177981522Y-88885465D01*
X177949500Y-89087648D01*
X177949500Y-89292351D01*
X177981522Y-89494534D01*
X178044781Y-89689223D01*
X178108691Y-89814653D01*
X178137310Y-89870820D01*
X178137715Y-89871613D01*
X178258028Y-90037213D01*
X178402786Y-90181971D01*
X178557749Y-90294556D01*
X178568390Y-90302287D01*
X178684607Y-90361503D01*
X178750776Y-90395218D01*
X178750778Y-90395218D01*
X178750781Y-90395220D01*
X178855137Y-90429127D01*
X178945465Y-90458477D01*
X179046557Y-90474488D01*
X179147648Y-90490500D01*
X179147649Y-90490500D01*
X179352351Y-90490500D01*
X179352352Y-90490500D01*
X179554534Y-90458477D01*
X179568842Y-90453827D01*
X179638682Y-90451831D01*
X179694842Y-90484077D01*
X179865139Y-90654374D01*
X179865149Y-90654385D01*
X179869479Y-90658715D01*
X179869480Y-90658716D01*
X179981284Y-90770520D01*
X180051088Y-90810821D01*
X180118215Y-90849577D01*
X180270943Y-90890501D01*
X180270946Y-90890501D01*
X180436653Y-90890501D01*
X180436669Y-90890500D01*
X186402297Y-90890500D01*
X186469336Y-90910185D01*
X186515091Y-90962989D01*
X186525035Y-91032147D01*
X186523914Y-91038691D01*
X186509500Y-91111153D01*
X186509500Y-91268846D01*
X186540261Y-91423489D01*
X186540264Y-91423501D01*
X186600602Y-91569172D01*
X186600609Y-91569185D01*
X186688210Y-91700288D01*
X186688213Y-91700292D01*
X186799707Y-91811786D01*
X186799711Y-91811789D01*
X186930814Y-91899390D01*
X186930827Y-91899397D01*
X187076498Y-91959735D01*
X187076503Y-91959737D01*
X187231153Y-91990499D01*
X187231156Y-91990500D01*
X187231158Y-91990500D01*
X187388844Y-91990500D01*
X187388845Y-91990499D01*
X187543497Y-91959737D01*
X187689179Y-91899394D01*
X187743663Y-91862989D01*
X187820875Y-91811398D01*
X187887553Y-91790520D01*
X187889766Y-91790500D01*
X192061000Y-91790500D01*
X192128039Y-91810185D01*
X192173794Y-91862989D01*
X192185000Y-91914500D01*
X192185000Y-93150000D01*
X192935000Y-93150000D01*
X192935000Y-93650000D01*
X192185000Y-93650000D01*
X192185000Y-94575500D01*
X192165315Y-94642539D01*
X192112511Y-94688294D01*
X192061000Y-94699500D01*
X190490098Y-94699500D01*
X190423059Y-94679815D01*
X190402417Y-94663181D01*
X190368717Y-94629481D01*
X190368709Y-94629475D01*
X190255421Y-94564069D01*
X190255420Y-94564068D01*
X190224748Y-94546359D01*
X190225745Y-94544631D01*
X190198493Y-94526415D01*
X190160292Y-94488213D01*
X190160288Y-94488210D01*
X190029185Y-94400609D01*
X190029172Y-94400602D01*
X189883501Y-94340264D01*
X189883489Y-94340261D01*
X189728845Y-94309500D01*
X189728842Y-94309500D01*
X189571158Y-94309500D01*
X189571155Y-94309500D01*
X189416510Y-94340261D01*
X189416498Y-94340264D01*
X189270827Y-94400602D01*
X189270814Y-94400609D01*
X189139711Y-94488210D01*
X189139707Y-94488213D01*
X189028213Y-94599707D01*
X189028210Y-94599711D01*
X188940609Y-94730814D01*
X188940602Y-94730827D01*
X188880264Y-94876498D01*
X188880261Y-94876508D01*
X188853769Y-95009692D01*
X188821384Y-95071603D01*
X188760668Y-95106177D01*
X188732152Y-95109500D01*
X184109000Y-95109500D01*
X184041961Y-95089815D01*
X183996206Y-95037011D01*
X183985000Y-94985500D01*
X183985000Y-93650000D01*
X183235000Y-93650000D01*
X183235000Y-93150000D01*
X183985000Y-93150000D01*
X183985000Y-91752172D01*
X183984999Y-91752155D01*
X183978598Y-91692627D01*
X183978596Y-91692620D01*
X183928354Y-91557913D01*
X183928350Y-91557906D01*
X183842190Y-91442812D01*
X183842187Y-91442809D01*
X183727093Y-91356649D01*
X183727086Y-91356645D01*
X183592379Y-91306403D01*
X183592372Y-91306401D01*
X183532844Y-91300000D01*
X182735000Y-91300000D01*
X182735000Y-92041759D01*
X182703767Y-92028822D01*
X182558869Y-92000000D01*
X182411131Y-92000000D01*
X182266233Y-92028822D01*
X182235000Y-92041759D01*
X182235000Y-91300000D01*
X181437155Y-91300000D01*
X181377627Y-91306401D01*
X181377620Y-91306403D01*
X181242913Y-91356645D01*
X181242906Y-91356649D01*
X181127812Y-91442809D01*
X181127809Y-91442812D01*
X181041649Y-91557906D01*
X181041645Y-91557913D01*
X180991403Y-91692620D01*
X180991401Y-91692627D01*
X180985000Y-91752155D01*
X180985000Y-93150000D01*
X181735000Y-93150000D01*
X181735000Y-93650000D01*
X180985000Y-93650000D01*
X180985000Y-94985500D01*
X180965315Y-95052539D01*
X180912511Y-95098294D01*
X180861000Y-95109500D01*
X179760097Y-95109500D01*
X179693058Y-95089815D01*
X179672416Y-95073181D01*
X179084574Y-94485339D01*
X179051089Y-94424016D01*
X179050638Y-94421849D01*
X179019738Y-94266510D01*
X179019737Y-94266503D01*
X178960657Y-94123869D01*
X178959397Y-94120827D01*
X178959390Y-94120814D01*
X178871789Y-93989711D01*
X178871786Y-93989707D01*
X178760292Y-93878213D01*
X178760288Y-93878210D01*
X178629185Y-93790609D01*
X178629172Y-93790602D01*
X178483501Y-93730264D01*
X178483489Y-93730261D01*
X178328845Y-93699500D01*
X178328842Y-93699500D01*
X178171158Y-93699500D01*
X178171155Y-93699500D01*
X178016510Y-93730261D01*
X178016498Y-93730264D01*
X177870827Y-93790602D01*
X177870814Y-93790609D01*
X177739125Y-93878602D01*
X177672447Y-93899480D01*
X177670234Y-93899500D01*
X177479766Y-93899500D01*
X177412727Y-93879815D01*
X177410875Y-93878602D01*
X177279185Y-93790609D01*
X177279172Y-93790602D01*
X177133501Y-93730264D01*
X177133489Y-93730261D01*
X176978845Y-93699500D01*
X176978842Y-93699500D01*
X176821158Y-93699500D01*
X176821155Y-93699500D01*
X176666510Y-93730261D01*
X176666498Y-93730264D01*
X176520827Y-93790602D01*
X176520814Y-93790609D01*
X176389711Y-93878210D01*
X176389707Y-93878213D01*
X176278213Y-93989707D01*
X176278210Y-93989711D01*
X176190609Y-94120814D01*
X176190602Y-94120827D01*
X176130264Y-94266498D01*
X176130261Y-94266510D01*
X176099500Y-94421153D01*
X176099500Y-94578846D01*
X176130261Y-94733489D01*
X176130264Y-94733501D01*
X176190602Y-94879172D01*
X176190609Y-94879185D01*
X176278210Y-95010288D01*
X176278213Y-95010292D01*
X176389707Y-95121786D01*
X176389711Y-95121789D01*
X176520814Y-95209390D01*
X176520827Y-95209397D01*
X176666498Y-95269735D01*
X176666503Y-95269737D01*
X176757392Y-95287816D01*
X176821153Y-95300499D01*
X176821156Y-95300500D01*
X176821158Y-95300500D01*
X176978844Y-95300500D01*
X176978845Y-95300499D01*
X177133497Y-95269737D01*
X177279179Y-95209394D01*
X177292372Y-95200579D01*
X177410875Y-95121398D01*
X177477553Y-95100520D01*
X177479766Y-95100500D01*
X177670234Y-95100500D01*
X177737273Y-95120185D01*
X177739125Y-95121398D01*
X177870814Y-95209390D01*
X177870827Y-95209397D01*
X178016498Y-95269735D01*
X178016503Y-95269737D01*
X178081147Y-95282595D01*
X178171849Y-95300638D01*
X178233760Y-95333023D01*
X178235339Y-95334574D01*
X178483154Y-95582389D01*
X178516639Y-95643712D01*
X178511655Y-95713404D01*
X178469783Y-95769337D01*
X178468359Y-95770388D01*
X178402782Y-95818032D01*
X178258028Y-95962786D01*
X178137715Y-96128386D01*
X178044781Y-96310776D01*
X177981522Y-96505465D01*
X177949500Y-96707648D01*
X177949500Y-96912351D01*
X177981522Y-97114534D01*
X178044781Y-97309223D01*
X178097381Y-97412454D01*
X178130085Y-97476640D01*
X178137715Y-97491613D01*
X178258028Y-97657213D01*
X178388134Y-97787319D01*
X178421619Y-97848642D01*
X178416635Y-97918334D01*
X178388134Y-97962681D01*
X178258032Y-98092782D01*
X178258028Y-98092786D01*
X178137715Y-98258386D01*
X178044781Y-98440776D01*
X177981522Y-98635465D01*
X177949500Y-98837648D01*
X177949500Y-99042351D01*
X177981522Y-99244534D01*
X178044781Y-99439223D01*
X178080792Y-99509897D01*
X178135408Y-99617087D01*
X178137715Y-99621613D01*
X178258028Y-99787213D01*
X178402786Y-99931971D01*
X178532341Y-100026096D01*
X178568390Y-100052287D01*
X178684607Y-100111503D01*
X178750776Y-100145218D01*
X178750778Y-100145218D01*
X178750781Y-100145220D01*
X178827945Y-100170292D01*
X178945465Y-100208477D01*
X179046557Y-100224488D01*
X179147648Y-100240500D01*
X179147649Y-100240500D01*
X179352351Y-100240500D01*
X179352352Y-100240500D01*
X179554534Y-100208477D01*
X179749219Y-100145220D01*
X179931610Y-100052287D01*
X180038012Y-99974982D01*
X180097213Y-99931971D01*
X180097215Y-99931968D01*
X180097219Y-99931966D01*
X180241966Y-99787219D01*
X180241968Y-99787215D01*
X180241971Y-99787213D01*
X180315066Y-99686605D01*
X180362287Y-99621610D01*
X180455220Y-99439219D01*
X180518477Y-99244534D01*
X180550500Y-99042352D01*
X180550500Y-98837648D01*
X180534705Y-98737923D01*
X180518477Y-98635465D01*
X180474715Y-98500781D01*
X180455220Y-98440781D01*
X180455218Y-98440778D01*
X180455218Y-98440776D01*
X180419949Y-98371557D01*
X180362287Y-98258390D01*
X180318625Y-98198294D01*
X180241971Y-98092786D01*
X180111866Y-97962681D01*
X180078381Y-97901358D01*
X180083365Y-97831666D01*
X180111866Y-97787319D01*
X180158606Y-97740579D01*
X180241966Y-97657219D01*
X180241968Y-97657215D01*
X180241971Y-97657213D01*
X180294732Y-97584590D01*
X180362287Y-97491610D01*
X180455220Y-97309219D01*
X180518477Y-97114534D01*
X180550500Y-96912352D01*
X180550500Y-96834500D01*
X180570185Y-96767461D01*
X180622989Y-96721706D01*
X180674500Y-96710500D01*
X189264315Y-96710500D01*
X189331354Y-96730185D01*
X189351996Y-96746819D01*
X190017631Y-97412454D01*
X190051116Y-97473777D01*
X190051567Y-97475943D01*
X190082467Y-97631285D01*
X190082470Y-97631295D01*
X190142808Y-97776966D01*
X190142815Y-97776979D01*
X190230416Y-97908082D01*
X190230419Y-97908086D01*
X190341913Y-98019580D01*
X190341917Y-98019583D01*
X190473020Y-98107184D01*
X190473033Y-98107191D01*
X190576648Y-98150109D01*
X190618709Y-98167531D01*
X190773359Y-98198293D01*
X190773362Y-98198294D01*
X190773364Y-98198294D01*
X190931050Y-98198294D01*
X190931051Y-98198293D01*
X191085703Y-98167531D01*
X191231385Y-98107188D01*
X191362495Y-98019583D01*
X191473995Y-97908083D01*
X191561600Y-97776973D01*
X191621943Y-97631291D01*
X191652706Y-97476636D01*
X191652706Y-97318952D01*
X191652706Y-97318949D01*
X191652705Y-97318947D01*
X191650770Y-97309219D01*
X191621943Y-97164297D01*
X191601331Y-97114534D01*
X191561603Y-97018621D01*
X191561596Y-97018608D01*
X191473995Y-96887505D01*
X191473992Y-96887501D01*
X191362498Y-96776007D01*
X191362494Y-96776004D01*
X191231391Y-96688403D01*
X191231378Y-96688396D01*
X191085707Y-96628058D01*
X191085695Y-96628055D01*
X190930357Y-96597156D01*
X190868446Y-96564771D01*
X190866915Y-96563267D01*
X190825828Y-96522180D01*
X190792343Y-96460857D01*
X190797329Y-96391165D01*
X190839201Y-96335232D01*
X190904665Y-96310816D01*
X190913510Y-96310500D01*
X195374199Y-96310500D01*
X195441238Y-96330185D01*
X195486993Y-96382989D01*
X195496937Y-96452147D01*
X195492130Y-96472817D01*
X195481524Y-96505457D01*
X195481523Y-96505464D01*
X195449500Y-96707648D01*
X195449500Y-96912351D01*
X195481522Y-97114534D01*
X195544781Y-97309223D01*
X195597381Y-97412454D01*
X195630085Y-97476640D01*
X195637715Y-97491613D01*
X195758028Y-97657213D01*
X195902786Y-97801971D01*
X195906523Y-97804686D01*
X195949185Y-97860018D01*
X195955161Y-97929632D01*
X195922552Y-97991425D01*
X195906523Y-98005314D01*
X195902786Y-98008028D01*
X195758028Y-98152786D01*
X195637715Y-98318386D01*
X195544781Y-98500776D01*
X195481522Y-98695465D01*
X195449500Y-98897648D01*
X195449500Y-99102351D01*
X195481522Y-99304534D01*
X195544781Y-99499223D01*
X195604618Y-99616657D01*
X195635537Y-99677340D01*
X195637715Y-99681613D01*
X195758028Y-99847213D01*
X195902786Y-99991971D01*
X195985806Y-100052287D01*
X196068390Y-100112287D01*
X196133021Y-100145218D01*
X196250776Y-100205218D01*
X196250778Y-100205218D01*
X196250781Y-100205220D01*
X196355137Y-100239127D01*
X196445465Y-100268477D01*
X196529494Y-100281786D01*
X196647648Y-100300500D01*
X196647649Y-100300500D01*
X196852351Y-100300500D01*
X196852352Y-100300500D01*
X197054534Y-100268477D01*
X197249219Y-100205220D01*
X197431610Y-100112287D01*
X197532227Y-100039185D01*
X197601161Y-99989103D01*
X197602075Y-99990361D01*
X197659548Y-99964577D01*
X197728639Y-99974982D01*
X197781136Y-100021089D01*
X197787736Y-100033809D01*
X197790609Y-100039185D01*
X197878210Y-100170288D01*
X197878213Y-100170292D01*
X197989707Y-100281786D01*
X197989711Y-100281789D01*
X198120814Y-100369390D01*
X198120827Y-100369397D01*
X198217011Y-100409237D01*
X198266503Y-100429737D01*
X198421153Y-100460499D01*
X198421156Y-100460500D01*
X198421158Y-100460500D01*
X198578844Y-100460500D01*
X198578845Y-100460499D01*
X198733497Y-100429737D01*
X198879179Y-100369394D01*
X198881544Y-100367814D01*
X199010875Y-100281398D01*
X199077553Y-100260520D01*
X199079766Y-100260500D01*
X199614281Y-100260500D01*
X199681320Y-100280185D01*
X199724765Y-100328205D01*
X199744947Y-100367814D01*
X199744948Y-100367815D01*
X199869890Y-100539786D01*
X200020213Y-100690109D01*
X200192182Y-100815050D01*
X200200946Y-100819516D01*
X200251742Y-100867491D01*
X200268536Y-100935312D01*
X200245998Y-101001447D01*
X200200946Y-101040484D01*
X200192182Y-101044949D01*
X200020213Y-101169890D01*
X199869890Y-101320213D01*
X199744948Y-101492184D01*
X199744947Y-101492185D01*
X199724765Y-101531795D01*
X199676791Y-101582591D01*
X199614281Y-101599500D01*
X192106109Y-101599500D01*
X192039070Y-101579815D01*
X191993315Y-101527011D01*
X191983371Y-101457853D01*
X191988178Y-101437181D01*
X191996778Y-101410716D01*
X192048553Y-101251368D01*
X192057090Y-101197470D01*
X192085500Y-101018097D01*
X192085500Y-100781902D01*
X192048553Y-100548631D01*
X191990315Y-100369394D01*
X191975568Y-100324008D01*
X191975566Y-100324005D01*
X191975566Y-100324003D01*
X191916702Y-100208477D01*
X191868343Y-100113567D01*
X191729517Y-99922490D01*
X191562510Y-99755483D01*
X191371433Y-99616657D01*
X191160996Y-99509433D01*
X190936368Y-99436446D01*
X190703097Y-99399500D01*
X190703092Y-99399500D01*
X190466908Y-99399500D01*
X190466903Y-99399500D01*
X190233631Y-99436446D01*
X190009003Y-99509433D01*
X189798566Y-99616657D01*
X189742119Y-99657669D01*
X189607490Y-99755483D01*
X189607488Y-99755485D01*
X189607487Y-99755485D01*
X189440482Y-99922490D01*
X189399615Y-99978739D01*
X189344285Y-100021404D01*
X189312455Y-100026096D01*
X188567962Y-100770589D01*
X188550925Y-100707007D01*
X188485099Y-100592993D01*
X188392007Y-100499901D01*
X188277993Y-100434075D01*
X188214408Y-100417037D01*
X188954105Y-99677340D01*
X188954104Y-99677338D01*
X188871174Y-99617087D01*
X188660802Y-99509897D01*
X188436247Y-99436934D01*
X188436248Y-99436934D01*
X188203052Y-99400000D01*
X187966948Y-99400000D01*
X187733752Y-99436934D01*
X187509197Y-99509897D01*
X187298824Y-99617087D01*
X187203141Y-99686605D01*
X187137334Y-99710085D01*
X187069281Y-99694259D01*
X187030990Y-99660599D01*
X186982843Y-99596284D01*
X186942546Y-99542454D01*
X186942544Y-99542453D01*
X186942544Y-99542452D01*
X186827335Y-99456206D01*
X186827328Y-99456202D01*
X186692482Y-99405908D01*
X186692483Y-99405908D01*
X186632883Y-99399501D01*
X186632881Y-99399500D01*
X186632873Y-99399500D01*
X186632864Y-99399500D01*
X184537129Y-99399500D01*
X184537123Y-99399501D01*
X184477516Y-99405908D01*
X184342671Y-99456202D01*
X184342664Y-99456206D01*
X184227455Y-99542452D01*
X184227452Y-99542455D01*
X184141206Y-99657664D01*
X184141202Y-99657671D01*
X184090908Y-99792517D01*
X184084501Y-99852116D01*
X184084500Y-99852127D01*
X184084500Y-100707007D01*
X184084501Y-101475500D01*
X184064816Y-101542539D01*
X184012013Y-101588294D01*
X183960501Y-101599500D01*
X179553032Y-101599500D01*
X179485993Y-101579815D01*
X179484141Y-101578602D01*
X179398449Y-101521344D01*
X179398437Y-101521337D01*
X179252766Y-101460999D01*
X179252754Y-101460996D01*
X179098110Y-101430235D01*
X179098107Y-101430235D01*
X178940423Y-101430235D01*
X178940420Y-101430235D01*
X178791757Y-101459806D01*
X178722166Y-101453579D01*
X178666988Y-101410716D01*
X178643744Y-101344826D01*
X178645949Y-101313997D01*
X178669128Y-101197472D01*
X178669128Y-101039783D01*
X178669127Y-101039781D01*
X178661502Y-101001447D01*
X178638365Y-100885131D01*
X178631058Y-100867491D01*
X178578025Y-100739455D01*
X178578018Y-100739442D01*
X178490417Y-100608339D01*
X178490414Y-100608335D01*
X178378920Y-100496841D01*
X178378916Y-100496838D01*
X178247813Y-100409237D01*
X178247800Y-100409230D01*
X178102129Y-100348892D01*
X178102117Y-100348889D01*
X177947473Y-100318128D01*
X177947470Y-100318128D01*
X177789786Y-100318128D01*
X177789783Y-100318128D01*
X177635138Y-100348889D01*
X177635126Y-100348892D01*
X177489455Y-100409230D01*
X177489442Y-100409237D01*
X177358339Y-100496838D01*
X177358335Y-100496841D01*
X177246841Y-100608335D01*
X177246838Y-100608339D01*
X177159237Y-100739442D01*
X177159230Y-100739455D01*
X177098892Y-100885126D01*
X177098889Y-100885138D01*
X177068128Y-101039781D01*
X177068128Y-101197474D01*
X177098889Y-101352117D01*
X177098892Y-101352129D01*
X177159230Y-101497800D01*
X177159237Y-101497813D01*
X177247230Y-101629502D01*
X177268108Y-101696179D01*
X177268128Y-101698393D01*
X177268128Y-101841958D01*
X177268127Y-101841976D01*
X177268127Y-102007682D01*
X177268126Y-102007682D01*
X177309051Y-102160414D01*
X177322288Y-102183339D01*
X177322289Y-102183344D01*
X177322290Y-102183344D01*
X177388103Y-102297337D01*
X177388109Y-102297345D01*
X177506977Y-102416213D01*
X177506983Y-102416218D01*
X182001181Y-106910416D01*
X182034666Y-106971739D01*
X182037500Y-106998097D01*
X182037500Y-107884989D01*
X182017815Y-107952028D01*
X181969795Y-107995474D01*
X181869805Y-108046421D01*
X181763317Y-108123789D01*
X181683161Y-108182027D01*
X181683159Y-108182029D01*
X181683158Y-108182029D01*
X181520029Y-108345158D01*
X181520029Y-108345159D01*
X181520027Y-108345161D01*
X181483621Y-108395269D01*
X181384421Y-108531805D01*
X181279685Y-108737362D01*
X181279684Y-108737364D01*
X181279683Y-108737367D01*
X181263944Y-108785805D01*
X181208390Y-108956780D01*
X181172300Y-109184647D01*
X181172300Y-109415352D01*
X181208390Y-109643219D01*
X181241299Y-109744500D01*
X181279683Y-109862633D01*
X181384421Y-110068194D01*
X181520027Y-110254839D01*
X181683161Y-110417973D01*
X181869806Y-110553579D01*
X182075367Y-110658317D01*
X182252850Y-110715984D01*
X182294780Y-110729609D01*
X182408714Y-110747654D01*
X182522647Y-110765700D01*
X182522648Y-110765700D01*
X182753352Y-110765700D01*
X182753353Y-110765700D01*
X182981219Y-110729609D01*
X183200633Y-110658317D01*
X183406194Y-110553579D01*
X183592839Y-110417973D01*
X183755973Y-110254839D01*
X183891579Y-110068194D01*
X183996317Y-109862633D01*
X184067609Y-109643219D01*
X184103700Y-109415353D01*
X184103700Y-109184680D01*
X189732600Y-109184680D01*
X189732600Y-109415319D01*
X189768677Y-109643102D01*
X189839947Y-109862446D01*
X189944650Y-110067935D01*
X190000053Y-110144191D01*
X190000054Y-110144192D01*
X190656457Y-109487789D01*
X190665247Y-109520591D01*
X190740487Y-109650909D01*
X190846891Y-109757313D01*
X190977209Y-109832553D01*
X191010010Y-109841342D01*
X190353606Y-110497744D01*
X190429867Y-110553151D01*
X190635353Y-110657852D01*
X190854697Y-110729122D01*
X191082481Y-110765200D01*
X191313119Y-110765200D01*
X191540902Y-110729122D01*
X191760246Y-110657852D01*
X191965724Y-110553155D01*
X191965730Y-110553151D01*
X192041991Y-110497744D01*
X192041992Y-110497744D01*
X191385589Y-109841342D01*
X191418391Y-109832553D01*
X191548709Y-109757313D01*
X191655113Y-109650909D01*
X191730353Y-109520591D01*
X191739142Y-109487789D01*
X192395620Y-110144268D01*
X192412977Y-110144268D01*
X193173152Y-109384093D01*
X193196592Y-109471571D01*
X193255111Y-109572930D01*
X193337870Y-109655689D01*
X193439229Y-109714208D01*
X193526705Y-109737647D01*
X192766606Y-110497744D01*
X192842867Y-110553151D01*
X193048353Y-110657852D01*
X193267697Y-110729122D01*
X193495481Y-110765200D01*
X193726119Y-110765200D01*
X193953902Y-110729122D01*
X194173246Y-110657852D01*
X194378724Y-110553155D01*
X194378730Y-110553151D01*
X194454991Y-110497744D01*
X194454992Y-110497744D01*
X193694894Y-109737647D01*
X193782371Y-109714208D01*
X193883730Y-109655689D01*
X193966489Y-109572930D01*
X194025008Y-109471571D01*
X194048447Y-109384095D01*
X194808544Y-110144192D01*
X194808544Y-110144191D01*
X194863951Y-110067930D01*
X194863955Y-110067924D01*
X194968652Y-109862446D01*
X195039922Y-109643102D01*
X195076000Y-109415319D01*
X195076000Y-109184680D01*
X195039922Y-108956897D01*
X194968652Y-108737553D01*
X194863951Y-108532067D01*
X194808544Y-108455807D01*
X194808544Y-108455806D01*
X194048447Y-109215904D01*
X194025008Y-109128429D01*
X193966489Y-109027070D01*
X193883730Y-108944311D01*
X193782371Y-108885792D01*
X193694893Y-108862352D01*
X194454992Y-108102254D01*
X194454991Y-108102253D01*
X194378735Y-108046850D01*
X194173246Y-107942147D01*
X193953902Y-107870877D01*
X193726119Y-107834800D01*
X193495481Y-107834800D01*
X193267697Y-107870877D01*
X193048353Y-107942147D01*
X192842869Y-108046847D01*
X192766607Y-108102254D01*
X193526706Y-108862352D01*
X193439229Y-108885792D01*
X193337870Y-108944311D01*
X193255111Y-109027070D01*
X193196592Y-109128429D01*
X193173152Y-109215905D01*
X192412977Y-108455730D01*
X192395621Y-108455730D01*
X191739141Y-109112209D01*
X191730353Y-109079409D01*
X191655113Y-108949091D01*
X191548709Y-108842687D01*
X191418391Y-108767447D01*
X191385588Y-108758657D01*
X192041992Y-108102254D01*
X192041991Y-108102253D01*
X191965735Y-108046850D01*
X191760246Y-107942147D01*
X191540902Y-107870877D01*
X191313119Y-107834800D01*
X191082481Y-107834800D01*
X190854697Y-107870877D01*
X190635353Y-107942147D01*
X190429869Y-108046847D01*
X190353607Y-108102254D01*
X191010011Y-108758657D01*
X190977209Y-108767447D01*
X190846891Y-108842687D01*
X190740487Y-108949091D01*
X190665247Y-109079409D01*
X190656457Y-109112210D01*
X190000054Y-108455807D01*
X189944647Y-108532069D01*
X189839947Y-108737553D01*
X189768677Y-108956897D01*
X189732600Y-109184680D01*
X184103700Y-109184680D01*
X184103700Y-109184647D01*
X184078742Y-109027070D01*
X184067609Y-108956780D01*
X184044543Y-108885792D01*
X183996317Y-108737367D01*
X183891579Y-108531806D01*
X183755973Y-108345161D01*
X183592839Y-108182027D01*
X183406194Y-108046421D01*
X183396960Y-108041716D01*
X183306205Y-107995474D01*
X183295140Y-107985024D01*
X183281297Y-107978702D01*
X183270255Y-107961521D01*
X183255409Y-107947499D01*
X183251167Y-107931819D01*
X183243523Y-107919924D01*
X183238500Y-107884989D01*
X183238500Y-106787060D01*
X183238501Y-106787047D01*
X183238501Y-106618944D01*
X183238501Y-106618943D01*
X183211368Y-106517682D01*
X195450000Y-106517682D01*
X195450000Y-106722317D01*
X195482009Y-106924417D01*
X195545244Y-107119031D01*
X195638141Y-107301350D01*
X195638147Y-107301359D01*
X195670523Y-107345921D01*
X195670524Y-107345922D01*
X196350000Y-106666446D01*
X196350000Y-106672661D01*
X196377259Y-106774394D01*
X196429920Y-106865606D01*
X196504394Y-106940080D01*
X196595606Y-106992741D01*
X196697339Y-107020000D01*
X196703553Y-107020000D01*
X196024076Y-107699474D01*
X196068650Y-107731859D01*
X196250968Y-107824755D01*
X196445582Y-107887990D01*
X196647683Y-107920000D01*
X196852317Y-107920000D01*
X197054417Y-107887990D01*
X197249031Y-107824755D01*
X197431349Y-107731859D01*
X197475921Y-107699474D01*
X196796447Y-107020000D01*
X196802661Y-107020000D01*
X196904394Y-106992741D01*
X196995606Y-106940080D01*
X197070080Y-106865606D01*
X197122741Y-106774394D01*
X197150000Y-106672661D01*
X197150000Y-106666447D01*
X197829474Y-107345921D01*
X197861859Y-107301349D01*
X197954755Y-107119031D01*
X198017990Y-106924417D01*
X198050000Y-106722317D01*
X198050000Y-106517682D01*
X198017990Y-106315582D01*
X197954755Y-106120968D01*
X197861859Y-105938650D01*
X197829474Y-105894077D01*
X197829474Y-105894076D01*
X197150000Y-106573551D01*
X197150000Y-106567339D01*
X197122741Y-106465606D01*
X197070080Y-106374394D01*
X196995606Y-106299920D01*
X196904394Y-106247259D01*
X196802661Y-106220000D01*
X196796446Y-106220000D01*
X197475922Y-105540524D01*
X197475921Y-105540523D01*
X197431359Y-105508147D01*
X197431350Y-105508141D01*
X197249031Y-105415244D01*
X197054417Y-105352009D01*
X196852317Y-105320000D01*
X196647683Y-105320000D01*
X196445582Y-105352009D01*
X196250968Y-105415244D01*
X196068644Y-105508143D01*
X196024077Y-105540523D01*
X196024077Y-105540524D01*
X196703554Y-106220000D01*
X196697339Y-106220000D01*
X196595606Y-106247259D01*
X196504394Y-106299920D01*
X196429920Y-106374394D01*
X196377259Y-106465606D01*
X196350000Y-106567339D01*
X196350000Y-106573553D01*
X195670524Y-105894077D01*
X195670523Y-105894077D01*
X195638143Y-105938644D01*
X195545244Y-106120968D01*
X195482009Y-106315582D01*
X195450000Y-106517682D01*
X183211368Y-106517682D01*
X183197577Y-106466216D01*
X183162584Y-106405606D01*
X183118524Y-106329290D01*
X183118518Y-106329282D01*
X182464700Y-105675464D01*
X179801416Y-103012181D01*
X179767931Y-102950858D01*
X179772915Y-102881166D01*
X179814787Y-102825233D01*
X179880251Y-102800816D01*
X179889097Y-102800500D01*
X199614281Y-102800500D01*
X199681320Y-102820185D01*
X199724765Y-102868205D01*
X199744947Y-102907814D01*
X199744948Y-102907815D01*
X199869890Y-103079786D01*
X200020213Y-103230109D01*
X200192182Y-103355050D01*
X200200946Y-103359516D01*
X200251742Y-103407491D01*
X200268536Y-103475312D01*
X200245998Y-103541447D01*
X200200946Y-103580484D01*
X200192182Y-103584949D01*
X200020213Y-103709890D01*
X199869890Y-103860213D01*
X199744951Y-104032179D01*
X199648444Y-104221585D01*
X199582753Y-104423760D01*
X199549500Y-104633713D01*
X199549500Y-104846286D01*
X199582753Y-105056239D01*
X199648444Y-105258414D01*
X199744951Y-105447820D01*
X199869890Y-105619786D01*
X200020213Y-105770109D01*
X200192179Y-105895048D01*
X200192181Y-105895049D01*
X200192184Y-105895051D01*
X200201493Y-105899794D01*
X200252290Y-105947766D01*
X200269087Y-106015587D01*
X200246552Y-106081722D01*
X200201505Y-106120760D01*
X200192446Y-106125376D01*
X200192440Y-106125380D01*
X200138282Y-106164727D01*
X200138282Y-106164728D01*
X200770591Y-106797037D01*
X200707007Y-106814075D01*
X200592993Y-106879901D01*
X200499901Y-106972993D01*
X200434075Y-107087007D01*
X200417037Y-107150591D01*
X199784728Y-106518282D01*
X199784727Y-106518282D01*
X199745380Y-106572439D01*
X199648904Y-106761782D01*
X199583242Y-106963869D01*
X199583242Y-106963872D01*
X199550000Y-107173753D01*
X199550000Y-107386246D01*
X199583242Y-107596127D01*
X199583242Y-107596130D01*
X199648904Y-107798217D01*
X199745375Y-107987550D01*
X199784728Y-108041716D01*
X200417037Y-107409408D01*
X200434075Y-107472993D01*
X200499901Y-107587007D01*
X200592993Y-107680099D01*
X200707007Y-107745925D01*
X200770590Y-107762962D01*
X200138282Y-108395269D01*
X200138282Y-108395270D01*
X200192449Y-108434624D01*
X200381782Y-108531095D01*
X200583870Y-108596757D01*
X200793754Y-108630000D01*
X201006246Y-108630000D01*
X201216127Y-108596757D01*
X201216130Y-108596757D01*
X201418217Y-108531095D01*
X201607554Y-108434622D01*
X201661716Y-108395270D01*
X201661717Y-108395270D01*
X201029408Y-107762962D01*
X201092993Y-107745925D01*
X201207007Y-107680099D01*
X201300099Y-107587007D01*
X201365925Y-107472993D01*
X201382962Y-107409408D01*
X202033361Y-108059808D01*
X202034140Y-108059972D01*
X202083900Y-108109019D01*
X202099500Y-108169230D01*
X202099500Y-121971110D01*
X202079815Y-122038149D01*
X202027011Y-122083904D01*
X201957853Y-122093848D01*
X201902616Y-122071429D01*
X201868196Y-122046422D01*
X201662637Y-121941685D01*
X201662636Y-121941684D01*
X201662633Y-121941683D01*
X201549944Y-121905068D01*
X201443219Y-121870390D01*
X201246508Y-121839234D01*
X201215353Y-121834300D01*
X200984647Y-121834300D01*
X200908691Y-121846330D01*
X200756779Y-121870391D01*
X200756772Y-121870392D01*
X200650051Y-121905068D01*
X200580210Y-121907063D01*
X200524053Y-121874818D01*
X199537590Y-120888355D01*
X199537588Y-120888352D01*
X199418717Y-120769481D01*
X199418716Y-120769480D01*
X199331904Y-120719360D01*
X199331904Y-120719359D01*
X199331900Y-120719358D01*
X199281785Y-120690423D01*
X199129057Y-120649499D01*
X198970943Y-120649499D01*
X198963347Y-120649499D01*
X198963331Y-120649500D01*
X188731425Y-120649500D01*
X188664386Y-120629815D01*
X188618631Y-120577011D01*
X188608687Y-120507853D01*
X188637712Y-120444297D01*
X188675130Y-120415015D01*
X188681648Y-120411693D01*
X188792816Y-120355051D01*
X188914700Y-120266498D01*
X188964786Y-120230109D01*
X188964788Y-120230106D01*
X188964792Y-120230104D01*
X189115104Y-120079792D01*
X189115106Y-120079788D01*
X189115109Y-120079786D01*
X189240048Y-119907820D01*
X189240047Y-119907820D01*
X189240051Y-119907816D01*
X189336557Y-119718412D01*
X189402246Y-119516243D01*
X189435500Y-119306287D01*
X189435500Y-119093713D01*
X189402246Y-118883757D01*
X189336557Y-118681588D01*
X189240051Y-118492184D01*
X189240049Y-118492181D01*
X189240048Y-118492179D01*
X189115109Y-118320213D01*
X188964786Y-118169890D01*
X188792820Y-118044951D01*
X188603414Y-117948444D01*
X188603413Y-117948443D01*
X188603412Y-117948443D01*
X188401243Y-117882754D01*
X188401241Y-117882753D01*
X188401240Y-117882753D01*
X188239957Y-117857208D01*
X188191287Y-117849500D01*
X187978713Y-117849500D01*
X187930042Y-117857208D01*
X187768760Y-117882753D01*
X187566585Y-117948444D01*
X187377179Y-118044951D01*
X187205213Y-118169890D01*
X187054890Y-118320213D01*
X186929951Y-118492179D01*
X186833444Y-118681585D01*
X186767753Y-118883760D01*
X186734500Y-119093713D01*
X186734500Y-119306286D01*
X186767753Y-119516239D01*
X186833444Y-119718414D01*
X186929951Y-119907820D01*
X187054890Y-120079786D01*
X187205213Y-120230109D01*
X187366134Y-120347023D01*
X187377184Y-120355051D01*
X187485183Y-120410079D01*
X187494870Y-120415015D01*
X187545666Y-120462990D01*
X187562461Y-120530811D01*
X187539924Y-120596946D01*
X187485208Y-120640397D01*
X187438575Y-120649500D01*
X177300097Y-120649500D01*
X177233058Y-120629815D01*
X177212416Y-120613181D01*
X177084574Y-120485339D01*
X177051089Y-120424016D01*
X177050638Y-120421849D01*
X177019738Y-120266510D01*
X177019737Y-120266503D01*
X177004660Y-120230104D01*
X176959397Y-120120827D01*
X176959390Y-120120814D01*
X176871789Y-119989711D01*
X176871786Y-119989707D01*
X176760292Y-119878213D01*
X176760288Y-119878210D01*
X176629185Y-119790609D01*
X176629172Y-119790602D01*
X176483501Y-119730264D01*
X176483489Y-119730261D01*
X176328845Y-119699500D01*
X176328842Y-119699500D01*
X176171158Y-119699500D01*
X176171155Y-119699500D01*
X176016510Y-119730261D01*
X176016498Y-119730264D01*
X175870827Y-119790602D01*
X175870814Y-119790609D01*
X175739711Y-119878210D01*
X175739707Y-119878213D01*
X175628213Y-119989707D01*
X175628210Y-119989711D01*
X175540609Y-120120814D01*
X175540602Y-120120827D01*
X175480264Y-120266498D01*
X175480261Y-120266510D01*
X175449500Y-120421153D01*
X175449500Y-120578846D01*
X175480261Y-120733489D01*
X175480264Y-120733501D01*
X175540602Y-120879172D01*
X175540609Y-120879185D01*
X175628210Y-121010288D01*
X175628213Y-121010292D01*
X175739707Y-121121786D01*
X175739711Y-121121789D01*
X175870814Y-121209390D01*
X175870827Y-121209397D01*
X176016498Y-121269735D01*
X176016503Y-121269737D01*
X176081147Y-121282595D01*
X176171849Y-121300638D01*
X176233760Y-121333023D01*
X176235339Y-121334574D01*
X176515139Y-121614374D01*
X176515149Y-121614385D01*
X176519479Y-121618715D01*
X176519480Y-121618716D01*
X176631284Y-121730520D01*
X176718095Y-121780639D01*
X176718097Y-121780641D01*
X176756151Y-121802611D01*
X176768215Y-121809577D01*
X176920943Y-121850500D01*
X183120685Y-121850500D01*
X183187724Y-121870185D01*
X183233479Y-121922989D01*
X183243423Y-121992147D01*
X183214398Y-122055703D01*
X183193570Y-122074819D01*
X183155807Y-122102254D01*
X183812211Y-122758657D01*
X183779409Y-122767447D01*
X183649091Y-122842687D01*
X183542687Y-122949091D01*
X183467447Y-123079409D01*
X183458657Y-123112210D01*
X182802254Y-122455807D01*
X182746847Y-122532069D01*
X182642147Y-122737553D01*
X182570877Y-122956897D01*
X182534800Y-123184680D01*
X182534800Y-123415319D01*
X182570877Y-123643102D01*
X182642147Y-123862446D01*
X182746850Y-124067935D01*
X182802253Y-124144191D01*
X182802254Y-124144192D01*
X183458657Y-123487789D01*
X183467447Y-123520591D01*
X183542687Y-123650909D01*
X183649091Y-123757313D01*
X183779409Y-123832553D01*
X183812210Y-123841342D01*
X183155806Y-124497744D01*
X183232067Y-124553151D01*
X183437553Y-124657852D01*
X183656897Y-124729122D01*
X183884681Y-124765200D01*
X184115319Y-124765200D01*
X184343102Y-124729122D01*
X184562446Y-124657852D01*
X184767924Y-124553155D01*
X184767930Y-124553151D01*
X184844191Y-124497744D01*
X184844192Y-124497744D01*
X184187789Y-123841342D01*
X184220591Y-123832553D01*
X184350909Y-123757313D01*
X184457313Y-123650909D01*
X184532553Y-123520591D01*
X184541342Y-123487790D01*
X185197820Y-124144268D01*
X185215177Y-124144268D01*
X185975352Y-123384093D01*
X185998792Y-123471571D01*
X186057311Y-123572930D01*
X186140070Y-123655689D01*
X186241429Y-123714208D01*
X186328905Y-123737647D01*
X185568806Y-124497744D01*
X185645067Y-124553151D01*
X185850553Y-124657852D01*
X186069897Y-124729122D01*
X186297681Y-124765200D01*
X186528319Y-124765200D01*
X186756102Y-124729122D01*
X186975446Y-124657852D01*
X187180924Y-124553155D01*
X187180930Y-124553151D01*
X187257191Y-124497744D01*
X187257192Y-124497744D01*
X186497094Y-123737647D01*
X186584571Y-123714208D01*
X186685930Y-123655689D01*
X186768689Y-123572930D01*
X186827208Y-123471571D01*
X186850647Y-123384095D01*
X187610744Y-124144192D01*
X187610744Y-124144191D01*
X187666151Y-124067930D01*
X187666155Y-124067924D01*
X187770852Y-123862446D01*
X187842122Y-123643102D01*
X187878200Y-123415319D01*
X187878200Y-123184680D01*
X187842122Y-122956897D01*
X187770852Y-122737553D01*
X187666151Y-122532067D01*
X187610744Y-122455807D01*
X187610744Y-122455806D01*
X186850647Y-123215904D01*
X186827208Y-123128429D01*
X186768689Y-123027070D01*
X186685930Y-122944311D01*
X186584571Y-122885792D01*
X186497093Y-122862352D01*
X187257192Y-122102254D01*
X187257191Y-122102252D01*
X187219431Y-122074818D01*
X187176765Y-122019488D01*
X187170786Y-121949875D01*
X187203392Y-121888080D01*
X187264230Y-121853723D01*
X187292316Y-121850500D01*
X189247885Y-121850500D01*
X189314924Y-121870185D01*
X189360679Y-121922989D01*
X189370623Y-121992147D01*
X189341598Y-122055703D01*
X189320770Y-122074819D01*
X189283007Y-122102254D01*
X190043106Y-122862352D01*
X189955629Y-122885792D01*
X189854270Y-122944311D01*
X189771511Y-123027070D01*
X189712992Y-123128429D01*
X189689552Y-123215905D01*
X188929454Y-122455807D01*
X188874047Y-122532069D01*
X188769347Y-122737553D01*
X188698077Y-122956897D01*
X188662000Y-123184680D01*
X188662000Y-123415319D01*
X188698077Y-123643102D01*
X188769347Y-123862446D01*
X188874050Y-124067935D01*
X188929453Y-124144191D01*
X188929454Y-124144192D01*
X189689552Y-123384094D01*
X189712992Y-123471571D01*
X189771511Y-123572930D01*
X189854270Y-123655689D01*
X189955629Y-123714208D01*
X190043105Y-123737647D01*
X189283006Y-124497744D01*
X189359267Y-124553151D01*
X189564753Y-124657852D01*
X189784097Y-124729122D01*
X190011881Y-124765200D01*
X190242519Y-124765200D01*
X190470302Y-124729122D01*
X190689646Y-124657852D01*
X190895124Y-124553155D01*
X190895130Y-124553151D01*
X190971391Y-124497744D01*
X190971392Y-124497744D01*
X190211294Y-123737647D01*
X190298771Y-123714208D01*
X190400130Y-123655689D01*
X190482889Y-123572930D01*
X190541408Y-123471571D01*
X190564847Y-123384095D01*
X191325020Y-124144268D01*
X191342377Y-124144268D01*
X191998857Y-123487788D01*
X192007647Y-123520591D01*
X192082887Y-123650909D01*
X192189291Y-123757313D01*
X192319609Y-123832553D01*
X192352410Y-123841342D01*
X191696006Y-124497744D01*
X191772267Y-124553151D01*
X191977753Y-124657852D01*
X192197097Y-124729122D01*
X192424881Y-124765200D01*
X192655519Y-124765200D01*
X192883302Y-124729122D01*
X193102646Y-124657852D01*
X193308124Y-124553155D01*
X193308130Y-124553151D01*
X193384391Y-124497744D01*
X193384392Y-124497744D01*
X192727989Y-123841342D01*
X192760791Y-123832553D01*
X192891109Y-123757313D01*
X192997513Y-123650909D01*
X193072753Y-123520591D01*
X193081542Y-123487790D01*
X193737944Y-124144192D01*
X193737944Y-124144191D01*
X193793351Y-124067930D01*
X193793355Y-124067924D01*
X193898052Y-123862446D01*
X193969322Y-123643102D01*
X194005400Y-123415319D01*
X194005400Y-123184680D01*
X193969322Y-122956897D01*
X193898052Y-122737553D01*
X193793351Y-122532067D01*
X193737944Y-122455807D01*
X193737944Y-122455806D01*
X193081541Y-123112209D01*
X193072753Y-123079409D01*
X192997513Y-122949091D01*
X192891109Y-122842687D01*
X192760791Y-122767447D01*
X192727988Y-122758657D01*
X193384392Y-122102254D01*
X193384391Y-122102252D01*
X193346631Y-122074818D01*
X193303965Y-122019488D01*
X193297986Y-121949875D01*
X193330592Y-121888080D01*
X193391430Y-121853723D01*
X193419516Y-121850500D01*
X198749903Y-121850500D01*
X198816942Y-121870185D01*
X198837584Y-121886819D01*
X199674818Y-122724053D01*
X199708303Y-122785376D01*
X199705068Y-122850051D01*
X199670392Y-122956772D01*
X199670391Y-122956779D01*
X199634300Y-123184647D01*
X199634300Y-123415352D01*
X199670390Y-123643219D01*
X199703299Y-123744500D01*
X199741683Y-123862633D01*
X199846421Y-124068194D01*
X199982027Y-124254839D01*
X200145161Y-124417973D01*
X200331806Y-124553579D01*
X200537367Y-124658317D01*
X200714850Y-124715984D01*
X200756780Y-124729609D01*
X200870714Y-124747654D01*
X200984647Y-124765700D01*
X200984648Y-124765700D01*
X201215352Y-124765700D01*
X201215353Y-124765700D01*
X201443219Y-124729609D01*
X201662633Y-124658317D01*
X201868194Y-124553579D01*
X201902614Y-124528570D01*
X201968420Y-124505091D01*
X202036474Y-124520916D01*
X202085169Y-124571022D01*
X202099500Y-124628889D01*
X202099500Y-128431518D01*
X202079815Y-128498557D01*
X202027011Y-128544312D01*
X201957853Y-128554256D01*
X201894297Y-128525231D01*
X201893530Y-128524396D01*
X201889474Y-128524076D01*
X201210000Y-129203551D01*
X201210000Y-129197339D01*
X201182741Y-129095606D01*
X201130080Y-129004394D01*
X201055606Y-128929920D01*
X200964394Y-128877259D01*
X200862661Y-128850000D01*
X200856446Y-128850000D01*
X201535922Y-128170524D01*
X201535921Y-128170523D01*
X201491359Y-128138147D01*
X201491350Y-128138141D01*
X201309031Y-128045244D01*
X201114417Y-127982009D01*
X200912317Y-127950000D01*
X200707683Y-127950000D01*
X200505582Y-127982009D01*
X200310968Y-128045244D01*
X200128644Y-128138143D01*
X200084077Y-128170523D01*
X200084077Y-128170524D01*
X200763554Y-128850000D01*
X200757339Y-128850000D01*
X200655606Y-128877259D01*
X200564394Y-128929920D01*
X200489920Y-129004394D01*
X200437259Y-129095606D01*
X200410000Y-129197339D01*
X200410000Y-129203553D01*
X199730524Y-128524077D01*
X199730523Y-128524077D01*
X199698143Y-128568644D01*
X199605244Y-128750968D01*
X199542009Y-128945582D01*
X199510000Y-129147682D01*
X199510000Y-129352317D01*
X199542009Y-129554417D01*
X199605244Y-129749031D01*
X199698141Y-129931350D01*
X199698147Y-129931359D01*
X199730523Y-129975921D01*
X199730524Y-129975922D01*
X200410000Y-129296446D01*
X200410000Y-129302661D01*
X200437259Y-129404394D01*
X200489920Y-129495606D01*
X200564394Y-129570080D01*
X200655606Y-129622741D01*
X200757339Y-129650000D01*
X200763553Y-129650000D01*
X200084076Y-130329474D01*
X200128650Y-130361859D01*
X200310968Y-130454755D01*
X200505582Y-130517990D01*
X200707683Y-130550000D01*
X200912317Y-130550000D01*
X201114417Y-130517990D01*
X201309031Y-130454755D01*
X201491349Y-130361859D01*
X201535921Y-130329474D01*
X200856447Y-129650000D01*
X200862661Y-129650000D01*
X200964394Y-129622741D01*
X201055606Y-129570080D01*
X201130080Y-129495606D01*
X201182741Y-129404394D01*
X201210000Y-129302661D01*
X201210000Y-129296448D01*
X201889474Y-129975922D01*
X201901967Y-129974938D01*
X201930513Y-129952927D01*
X202000126Y-129946949D01*
X202061921Y-129979556D01*
X202096278Y-130040395D01*
X202099500Y-130068479D01*
X202099500Y-136271110D01*
X202079815Y-136338149D01*
X202027011Y-136383904D01*
X201957853Y-136393848D01*
X201902616Y-136371429D01*
X201868196Y-136346422D01*
X201662637Y-136241685D01*
X201662636Y-136241684D01*
X201662633Y-136241683D01*
X201572264Y-136212320D01*
X201443219Y-136170390D01*
X201246508Y-136139234D01*
X201215353Y-136134300D01*
X200984647Y-136134300D01*
X200957239Y-136138641D01*
X200756780Y-136170390D01*
X200585805Y-136225944D01*
X200537367Y-136241683D01*
X200537364Y-136241684D01*
X200537362Y-136241685D01*
X200331805Y-136346421D01*
X200225317Y-136423789D01*
X200145161Y-136482027D01*
X200145159Y-136482029D01*
X200145158Y-136482029D01*
X199982029Y-136645158D01*
X199982029Y-136645159D01*
X199982027Y-136645161D01*
X199953589Y-136684303D01*
X199846421Y-136831805D01*
X199795474Y-136931795D01*
X199747499Y-136982591D01*
X199684989Y-136999500D01*
X198732940Y-136999500D01*
X198665901Y-136979815D01*
X198645263Y-136963185D01*
X198560289Y-136878211D01*
X198560288Y-136878210D01*
X198560287Y-136878209D01*
X198429185Y-136790609D01*
X198429172Y-136790602D01*
X198283501Y-136730264D01*
X198283489Y-136730261D01*
X198128845Y-136699500D01*
X198128842Y-136699500D01*
X197971158Y-136699500D01*
X197971155Y-136699500D01*
X197816510Y-136730261D01*
X197816498Y-136730264D01*
X197670827Y-136790602D01*
X197670814Y-136790609D01*
X197539711Y-136878210D01*
X197539707Y-136878213D01*
X197428213Y-136989707D01*
X197428210Y-136989711D01*
X197340609Y-137120814D01*
X197340602Y-137120827D01*
X197280264Y-137266498D01*
X197280261Y-137266510D01*
X197249500Y-137421153D01*
X197249500Y-137578846D01*
X197280261Y-137733489D01*
X197280264Y-137733501D01*
X197340602Y-137879172D01*
X197340609Y-137879185D01*
X197428210Y-138010288D01*
X197428213Y-138010292D01*
X197539707Y-138121786D01*
X197539711Y-138121789D01*
X197670814Y-138209390D01*
X197670827Y-138209397D01*
X197812804Y-138268205D01*
X197816503Y-138269737D01*
X197971153Y-138300499D01*
X197971156Y-138300500D01*
X197971158Y-138300500D01*
X198128844Y-138300500D01*
X198128845Y-138300499D01*
X198283497Y-138269737D01*
X198358963Y-138238478D01*
X198427864Y-138209939D01*
X198475316Y-138200500D01*
X199684989Y-138200500D01*
X199752028Y-138220185D01*
X199795474Y-138268205D01*
X199846421Y-138368194D01*
X199982027Y-138554839D01*
X200145161Y-138717973D01*
X200331806Y-138853579D01*
X200537367Y-138958317D01*
X200714850Y-139015984D01*
X200756780Y-139029609D01*
X200802921Y-139036917D01*
X200984647Y-139065700D01*
X200984648Y-139065700D01*
X201215352Y-139065700D01*
X201215353Y-139065700D01*
X201443219Y-139029609D01*
X201662633Y-138958317D01*
X201868194Y-138853579D01*
X201902614Y-138828570D01*
X201968420Y-138805091D01*
X202036474Y-138820916D01*
X202085169Y-138871022D01*
X202099500Y-138928889D01*
X202099500Y-142681518D01*
X202079815Y-142748557D01*
X202027011Y-142794312D01*
X201957853Y-142804256D01*
X201894297Y-142775231D01*
X201893530Y-142774396D01*
X201889474Y-142774076D01*
X201210000Y-143453551D01*
X201210000Y-143447339D01*
X201182741Y-143345606D01*
X201130080Y-143254394D01*
X201055606Y-143179920D01*
X200964394Y-143127259D01*
X200862661Y-143100000D01*
X200856446Y-143100000D01*
X201535922Y-142420524D01*
X201535921Y-142420523D01*
X201491359Y-142388147D01*
X201491350Y-142388141D01*
X201309031Y-142295244D01*
X201114417Y-142232009D01*
X200912317Y-142200000D01*
X200707683Y-142200000D01*
X200505582Y-142232009D01*
X200310968Y-142295244D01*
X200128644Y-142388143D01*
X200084077Y-142420523D01*
X200084077Y-142420524D01*
X200763554Y-143100000D01*
X200757339Y-143100000D01*
X200655606Y-143127259D01*
X200564394Y-143179920D01*
X200489920Y-143254394D01*
X200437259Y-143345606D01*
X200410000Y-143447339D01*
X200410000Y-143453553D01*
X199730524Y-142774077D01*
X199730523Y-142774077D01*
X199698143Y-142818644D01*
X199605244Y-143000968D01*
X199542009Y-143195582D01*
X199510000Y-143397682D01*
X199510000Y-143602317D01*
X199542009Y-143804417D01*
X199605244Y-143999031D01*
X199698141Y-144181350D01*
X199698147Y-144181359D01*
X199730523Y-144225921D01*
X199730524Y-144225922D01*
X200410000Y-143546446D01*
X200410000Y-143552661D01*
X200437259Y-143654394D01*
X200489920Y-143745606D01*
X200564394Y-143820080D01*
X200655606Y-143872741D01*
X200757339Y-143900000D01*
X200763553Y-143900000D01*
X200084076Y-144579474D01*
X200128650Y-144611859D01*
X200310968Y-144704755D01*
X200505582Y-144767990D01*
X200707683Y-144800000D01*
X200912317Y-144800000D01*
X201114417Y-144767990D01*
X201309031Y-144704755D01*
X201491349Y-144611859D01*
X201535921Y-144579474D01*
X200856447Y-143900000D01*
X200862661Y-143900000D01*
X200964394Y-143872741D01*
X201055606Y-143820080D01*
X201130080Y-143745606D01*
X201182741Y-143654394D01*
X201210000Y-143552661D01*
X201210000Y-143546448D01*
X201889474Y-144225922D01*
X201901967Y-144224938D01*
X201930513Y-144202927D01*
X202000126Y-144196949D01*
X202061921Y-144229556D01*
X202096278Y-144290395D01*
X202099500Y-144318479D01*
X202099500Y-150471110D01*
X202079815Y-150538149D01*
X202027011Y-150583904D01*
X201957853Y-150593848D01*
X201902616Y-150571429D01*
X201868196Y-150546422D01*
X201662637Y-150441685D01*
X201662636Y-150441684D01*
X201662633Y-150441683D01*
X201572264Y-150412320D01*
X201443219Y-150370390D01*
X201246508Y-150339234D01*
X201215353Y-150334300D01*
X200984647Y-150334300D01*
X200957239Y-150338641D01*
X200756780Y-150370390D01*
X200585805Y-150425944D01*
X200537367Y-150441683D01*
X200537364Y-150441684D01*
X200537362Y-150441685D01*
X200331805Y-150546421D01*
X200225317Y-150623789D01*
X200145161Y-150682027D01*
X200145159Y-150682029D01*
X200145158Y-150682029D01*
X199982029Y-150845158D01*
X199982029Y-150845159D01*
X199982027Y-150845161D01*
X199953589Y-150884303D01*
X199846421Y-151031805D01*
X199741685Y-151237362D01*
X199670390Y-151456780D01*
X199634300Y-151684647D01*
X199634300Y-151915352D01*
X199670390Y-152143219D01*
X199703299Y-152244500D01*
X199741683Y-152362633D01*
X199846421Y-152568194D01*
X199982027Y-152754839D01*
X200145161Y-152917973D01*
X200331806Y-153053579D01*
X200537367Y-153158317D01*
X200714850Y-153215984D01*
X200756780Y-153229609D01*
X200870714Y-153247654D01*
X200984647Y-153265700D01*
X200984648Y-153265700D01*
X201215352Y-153265700D01*
X201215353Y-153265700D01*
X201443219Y-153229609D01*
X201662633Y-153158317D01*
X201868194Y-153053579D01*
X201902614Y-153028570D01*
X201968420Y-153005091D01*
X202036474Y-153020916D01*
X202085169Y-153071022D01*
X202099500Y-153128889D01*
X202099500Y-155575500D01*
X202079815Y-155642539D01*
X202027011Y-155688294D01*
X201975500Y-155699500D01*
X174224500Y-155699500D01*
X174157461Y-155679815D01*
X174111706Y-155627011D01*
X174100500Y-155575500D01*
X174100500Y-152831290D01*
X174120185Y-152764251D01*
X174172989Y-152718496D01*
X174242147Y-152708552D01*
X174305703Y-152737577D01*
X174318546Y-152751575D01*
X174319063Y-152751134D01*
X174322224Y-152754835D01*
X174322227Y-152754839D01*
X174485361Y-152917973D01*
X174672006Y-153053579D01*
X174877567Y-153158317D01*
X175055050Y-153215984D01*
X175096980Y-153229609D01*
X175210914Y-153247654D01*
X175324847Y-153265700D01*
X175324848Y-153265700D01*
X175555552Y-153265700D01*
X175555553Y-153265700D01*
X175783419Y-153229609D01*
X176002833Y-153158317D01*
X176208394Y-153053579D01*
X176395039Y-152917973D01*
X176558173Y-152754839D01*
X176693779Y-152568194D01*
X176798517Y-152362633D01*
X176869809Y-152143219D01*
X176905900Y-151915353D01*
X176905900Y-151684647D01*
X182534300Y-151684647D01*
X182534300Y-151915352D01*
X182570390Y-152143219D01*
X182603299Y-152244500D01*
X182641683Y-152362633D01*
X182746421Y-152568194D01*
X182882027Y-152754839D01*
X183045161Y-152917973D01*
X183231806Y-153053579D01*
X183437367Y-153158317D01*
X183614850Y-153215984D01*
X183656780Y-153229609D01*
X183770714Y-153247654D01*
X183884647Y-153265700D01*
X183884648Y-153265700D01*
X184115352Y-153265700D01*
X184115353Y-153265700D01*
X184343219Y-153229609D01*
X184562633Y-153158317D01*
X184768194Y-153053579D01*
X184954839Y-152917973D01*
X185117973Y-152754839D01*
X185162328Y-152693789D01*
X185166723Y-152688920D01*
X185176589Y-152682857D01*
X185975352Y-151884094D01*
X185998792Y-151971571D01*
X186057311Y-152072930D01*
X186140070Y-152155689D01*
X186241429Y-152214208D01*
X186328905Y-152237647D01*
X185568806Y-152997744D01*
X185645067Y-153053151D01*
X185850553Y-153157852D01*
X186069897Y-153229122D01*
X186297681Y-153265200D01*
X186528319Y-153265200D01*
X186756102Y-153229122D01*
X186975446Y-153157852D01*
X187180924Y-153053155D01*
X187180930Y-153053151D01*
X187257191Y-152997744D01*
X187257192Y-152997744D01*
X186497094Y-152237647D01*
X186584571Y-152214208D01*
X186685930Y-152155689D01*
X186768689Y-152072930D01*
X186827208Y-151971571D01*
X186850647Y-151884095D01*
X187610744Y-152644192D01*
X187610744Y-152644191D01*
X187666151Y-152567930D01*
X187666155Y-152567924D01*
X187770852Y-152362446D01*
X187842122Y-152143102D01*
X187878200Y-151915319D01*
X187878200Y-151684680D01*
X188662000Y-151684680D01*
X188662000Y-151915319D01*
X188698077Y-152143102D01*
X188769347Y-152362446D01*
X188874050Y-152567935D01*
X188929453Y-152644191D01*
X188929454Y-152644192D01*
X189689552Y-151884094D01*
X189712992Y-151971571D01*
X189771511Y-152072930D01*
X189854270Y-152155689D01*
X189955629Y-152214208D01*
X190043105Y-152237647D01*
X189283006Y-152997744D01*
X189359267Y-153053151D01*
X189564753Y-153157852D01*
X189784097Y-153229122D01*
X190011881Y-153265200D01*
X190242519Y-153265200D01*
X190470302Y-153229122D01*
X190689646Y-153157852D01*
X190895124Y-153053155D01*
X190895130Y-153053151D01*
X190971391Y-152997744D01*
X190971392Y-152997744D01*
X190211294Y-152237647D01*
X190298771Y-152214208D01*
X190400130Y-152155689D01*
X190482889Y-152072930D01*
X190541408Y-151971571D01*
X190564847Y-151884095D01*
X191365366Y-152684614D01*
X191365252Y-152684727D01*
X191381741Y-152699115D01*
X191419855Y-152751575D01*
X191422227Y-152754839D01*
X191585361Y-152917973D01*
X191772006Y-153053579D01*
X191977567Y-153158317D01*
X192155050Y-153215984D01*
X192196980Y-153229609D01*
X192310914Y-153247654D01*
X192424847Y-153265700D01*
X192424848Y-153265700D01*
X192655552Y-153265700D01*
X192655553Y-153265700D01*
X192883419Y-153229609D01*
X193102833Y-153158317D01*
X193308394Y-153053579D01*
X193495039Y-152917973D01*
X193658173Y-152754839D01*
X193793779Y-152568194D01*
X193898517Y-152362633D01*
X193969809Y-152143219D01*
X194005900Y-151915353D01*
X194005900Y-151684647D01*
X193980942Y-151527070D01*
X193969809Y-151456780D01*
X193946743Y-151385792D01*
X193898517Y-151237367D01*
X193793779Y-151031806D01*
X193658173Y-150845161D01*
X193495039Y-150682027D01*
X193308394Y-150546421D01*
X193102833Y-150441683D01*
X193012464Y-150412320D01*
X192883419Y-150370390D01*
X192686708Y-150339234D01*
X192655553Y-150334300D01*
X192424847Y-150334300D01*
X192397439Y-150338641D01*
X192196980Y-150370390D01*
X192026005Y-150425944D01*
X191977567Y-150441683D01*
X191977564Y-150441684D01*
X191977562Y-150441685D01*
X191772005Y-150546421D01*
X191665517Y-150623789D01*
X191585361Y-150682027D01*
X191585359Y-150682029D01*
X191585358Y-150682029D01*
X191422226Y-150845161D01*
X191381740Y-150900885D01*
X191364307Y-150914326D01*
X191365366Y-150915385D01*
X190564847Y-151715904D01*
X190541408Y-151628429D01*
X190482889Y-151527070D01*
X190400130Y-151444311D01*
X190298771Y-151385792D01*
X190211293Y-151362352D01*
X190971392Y-150602254D01*
X190971391Y-150602253D01*
X190895135Y-150546850D01*
X190689646Y-150442147D01*
X190470302Y-150370877D01*
X190242519Y-150334800D01*
X190011881Y-150334800D01*
X189784097Y-150370877D01*
X189564753Y-150442147D01*
X189359269Y-150546847D01*
X189283007Y-150602254D01*
X190043106Y-151362352D01*
X189955629Y-151385792D01*
X189854270Y-151444311D01*
X189771511Y-151527070D01*
X189712992Y-151628429D01*
X189689552Y-151715905D01*
X188929454Y-150955807D01*
X188874047Y-151032069D01*
X188769347Y-151237553D01*
X188698077Y-151456897D01*
X188662000Y-151684680D01*
X187878200Y-151684680D01*
X187842122Y-151456897D01*
X187770852Y-151237553D01*
X187666151Y-151032067D01*
X187610744Y-150955807D01*
X187610744Y-150955806D01*
X186850647Y-151715904D01*
X186827208Y-151628429D01*
X186768689Y-151527070D01*
X186685930Y-151444311D01*
X186584571Y-151385792D01*
X186497093Y-151362352D01*
X187257192Y-150602254D01*
X187257191Y-150602253D01*
X187180935Y-150546850D01*
X186975446Y-150442147D01*
X186756102Y-150370877D01*
X186528319Y-150334800D01*
X186297681Y-150334800D01*
X186069897Y-150370877D01*
X185850553Y-150442147D01*
X185645069Y-150546847D01*
X185568807Y-150602254D01*
X186328906Y-151362352D01*
X186241429Y-151385792D01*
X186140070Y-151444311D01*
X186057311Y-151527070D01*
X185998792Y-151628429D01*
X185975352Y-151715905D01*
X185184300Y-150924852D01*
X185166722Y-150911078D01*
X185162325Y-150906206D01*
X185117973Y-150845161D01*
X184954839Y-150682027D01*
X184768194Y-150546421D01*
X184562633Y-150441683D01*
X184472264Y-150412320D01*
X184343219Y-150370390D01*
X184146508Y-150339234D01*
X184115353Y-150334300D01*
X183884647Y-150334300D01*
X183857239Y-150338641D01*
X183656780Y-150370390D01*
X183485805Y-150425944D01*
X183437367Y-150441683D01*
X183437364Y-150441684D01*
X183437362Y-150441685D01*
X183231805Y-150546421D01*
X183125317Y-150623789D01*
X183045161Y-150682027D01*
X183045159Y-150682029D01*
X183045158Y-150682029D01*
X182882029Y-150845158D01*
X182882029Y-150845159D01*
X182882027Y-150845161D01*
X182853589Y-150884303D01*
X182746421Y-151031805D01*
X182641685Y-151237362D01*
X182570390Y-151456780D01*
X182534300Y-151684647D01*
X176905900Y-151684647D01*
X176880942Y-151527070D01*
X176869809Y-151456780D01*
X176846743Y-151385792D01*
X176798517Y-151237367D01*
X176693779Y-151031806D01*
X176558173Y-150845161D01*
X176395039Y-150682027D01*
X176208394Y-150546421D01*
X176002833Y-150441683D01*
X175912464Y-150412320D01*
X175783419Y-150370390D01*
X175586708Y-150339234D01*
X175555553Y-150334300D01*
X175324847Y-150334300D01*
X175297439Y-150338641D01*
X175096980Y-150370390D01*
X174926005Y-150425944D01*
X174877567Y-150441683D01*
X174877564Y-150441684D01*
X174877562Y-150441685D01*
X174672005Y-150546421D01*
X174565517Y-150623789D01*
X174485361Y-150682027D01*
X174485359Y-150682029D01*
X174485358Y-150682029D01*
X174322229Y-150845158D01*
X174319063Y-150848866D01*
X174317338Y-150847393D01*
X174269378Y-150884303D01*
X174199759Y-150890216D01*
X174137995Y-150857551D01*
X174103696Y-150796679D01*
X174100500Y-150768709D01*
X174100500Y-145739778D01*
X178213700Y-145739778D01*
X178213700Y-145960221D01*
X178248185Y-146177952D01*
X178316303Y-146387603D01*
X178316304Y-146387606D01*
X178416387Y-146584025D01*
X178545952Y-146762358D01*
X178545956Y-146762363D01*
X178701836Y-146918243D01*
X178701841Y-146918247D01*
X178803803Y-146992326D01*
X178880178Y-147047815D01*
X179008575Y-147113237D01*
X179076593Y-147147895D01*
X179076596Y-147147896D01*
X179181421Y-147181955D01*
X179286249Y-147216015D01*
X179503978Y-147250500D01*
X179503979Y-147250500D01*
X179724421Y-147250500D01*
X179724422Y-147250500D01*
X179942151Y-147216015D01*
X180151806Y-147147895D01*
X180348222Y-147047815D01*
X180526565Y-146918242D01*
X180576736Y-146868070D01*
X180638057Y-146834586D01*
X180707748Y-146839570D01*
X180763682Y-146881441D01*
X180780598Y-146912419D01*
X180810402Y-146992328D01*
X180810406Y-146992335D01*
X180896652Y-147107544D01*
X180896655Y-147107547D01*
X181011864Y-147193793D01*
X181011871Y-147193797D01*
X181146717Y-147244091D01*
X181146716Y-147244091D01*
X181153644Y-147244835D01*
X181206327Y-147250500D01*
X183102072Y-147250499D01*
X183161683Y-147244091D01*
X183296531Y-147193796D01*
X183411746Y-147107546D01*
X183497996Y-146992331D01*
X183548291Y-146857483D01*
X183554700Y-146797873D01*
X183554699Y-144924499D01*
X183574384Y-144857461D01*
X183627187Y-144811706D01*
X183678699Y-144800500D01*
X183852351Y-144800500D01*
X183852352Y-144800500D01*
X184054534Y-144768477D01*
X184249219Y-144705220D01*
X184431610Y-144612287D01*
X184524590Y-144544732D01*
X184597213Y-144491971D01*
X184597215Y-144491968D01*
X184597219Y-144491966D01*
X184741966Y-144347219D01*
X184741968Y-144347215D01*
X184741971Y-144347213D01*
X184862284Y-144181614D01*
X184862285Y-144181613D01*
X184862287Y-144181610D01*
X184869117Y-144168204D01*
X184917091Y-144117409D01*
X184979602Y-144100500D01*
X186913331Y-144100500D01*
X186913347Y-144100501D01*
X186920943Y-144100501D01*
X187079054Y-144100501D01*
X187079057Y-144100501D01*
X187231785Y-144059577D01*
X187281904Y-144030639D01*
X187368716Y-143980520D01*
X187480520Y-143868716D01*
X187480520Y-143868714D01*
X187490728Y-143858507D01*
X187490729Y-143858504D01*
X187951585Y-143397648D01*
X191889500Y-143397648D01*
X191889500Y-143602351D01*
X191921522Y-143804534D01*
X191984781Y-143999223D01*
X192036385Y-144100500D01*
X192077585Y-144181359D01*
X192077715Y-144181613D01*
X192198028Y-144347213D01*
X192342786Y-144491971D01*
X192463226Y-144579474D01*
X192508390Y-144612287D01*
X192624607Y-144671503D01*
X192690776Y-144705218D01*
X192690778Y-144705218D01*
X192690781Y-144705220D01*
X192798082Y-144740084D01*
X192890100Y-144769983D01*
X192889753Y-144771050D01*
X192945726Y-144803178D01*
X192977899Y-144865200D01*
X192979345Y-144898801D01*
X192979436Y-144898806D01*
X192979500Y-144898806D01*
X192979500Y-144898809D01*
X192979678Y-144898819D01*
X192979500Y-144902135D01*
X192979500Y-146797870D01*
X192979501Y-146797876D01*
X192985908Y-146857483D01*
X193036202Y-146992328D01*
X193036206Y-146992335D01*
X193122452Y-147107544D01*
X193122455Y-147107547D01*
X193237664Y-147193793D01*
X193237671Y-147193797D01*
X193372517Y-147244091D01*
X193372516Y-147244091D01*
X193379444Y-147244835D01*
X193432127Y-147250500D01*
X195327872Y-147250499D01*
X195387483Y-147244091D01*
X195522331Y-147193796D01*
X195637546Y-147107546D01*
X195723796Y-146992331D01*
X195751429Y-146918243D01*
X195753601Y-146912420D01*
X195795471Y-146856486D01*
X195860936Y-146832068D01*
X195929209Y-146846919D01*
X195957464Y-146868071D01*
X196007636Y-146918243D01*
X196007641Y-146918247D01*
X196109603Y-146992326D01*
X196185978Y-147047815D01*
X196314375Y-147113237D01*
X196382393Y-147147895D01*
X196382396Y-147147896D01*
X196487221Y-147181955D01*
X196592049Y-147216015D01*
X196809778Y-147250500D01*
X196809779Y-147250500D01*
X197030221Y-147250500D01*
X197030222Y-147250500D01*
X197247951Y-147216015D01*
X197457606Y-147147895D01*
X197654022Y-147047815D01*
X197832365Y-146918242D01*
X197988242Y-146762365D01*
X198117815Y-146584022D01*
X198217895Y-146387606D01*
X198286015Y-146177951D01*
X198320500Y-145960222D01*
X198320500Y-145739778D01*
X198286015Y-145522049D01*
X198217895Y-145312394D01*
X198217895Y-145312393D01*
X198183237Y-145244375D01*
X198117815Y-145115978D01*
X198059501Y-145035715D01*
X197988247Y-144937641D01*
X197988243Y-144937636D01*
X197832363Y-144781756D01*
X197832358Y-144781752D01*
X197654023Y-144652185D01*
X197635408Y-144642700D01*
X197635407Y-144642700D01*
X197457606Y-144552104D01*
X197457603Y-144552103D01*
X197247952Y-144483985D01*
X197139086Y-144466742D01*
X197030222Y-144449500D01*
X196809778Y-144449500D01*
X196737201Y-144460995D01*
X196592047Y-144483985D01*
X196382396Y-144552103D01*
X196382393Y-144552104D01*
X196185974Y-144652187D01*
X196007641Y-144781752D01*
X196007636Y-144781756D01*
X195957463Y-144831929D01*
X195896140Y-144865413D01*
X195826448Y-144860428D01*
X195770515Y-144818557D01*
X195753601Y-144787580D01*
X195723797Y-144707671D01*
X195723793Y-144707664D01*
X195637547Y-144592455D01*
X195637544Y-144592452D01*
X195522335Y-144506206D01*
X195522328Y-144506202D01*
X195387482Y-144455908D01*
X195387483Y-144455908D01*
X195327883Y-144449501D01*
X195327881Y-144449500D01*
X195327873Y-144449500D01*
X195327865Y-144449500D01*
X194351018Y-144449500D01*
X194283979Y-144429815D01*
X194238224Y-144377011D01*
X194228280Y-144307853D01*
X194250700Y-144252615D01*
X194286799Y-144202927D01*
X194302287Y-144181610D01*
X194395220Y-143999219D01*
X194458477Y-143804534D01*
X194490500Y-143602352D01*
X194490500Y-143397648D01*
X194475841Y-143305095D01*
X194458477Y-143195465D01*
X194427458Y-143100000D01*
X194395220Y-143000781D01*
X194395218Y-143000778D01*
X194395218Y-143000776D01*
X194361503Y-142934607D01*
X194302287Y-142818390D01*
X194292018Y-142804256D01*
X194181971Y-142652786D01*
X194037213Y-142508028D01*
X193871613Y-142387715D01*
X193871612Y-142387714D01*
X193871610Y-142387713D01*
X193814653Y-142358691D01*
X193689223Y-142294781D01*
X193494534Y-142231522D01*
X193319995Y-142203878D01*
X193292352Y-142199500D01*
X193087648Y-142199500D01*
X193063329Y-142203351D01*
X192885465Y-142231522D01*
X192690776Y-142294781D01*
X192508386Y-142387715D01*
X192342786Y-142508028D01*
X192198028Y-142652786D01*
X192077715Y-142818386D01*
X191984781Y-143000776D01*
X191921522Y-143195465D01*
X191889500Y-143397648D01*
X187951585Y-143397648D01*
X190533927Y-140815307D01*
X190595248Y-140781824D01*
X190597415Y-140781373D01*
X190655350Y-140769848D01*
X190752762Y-140750472D01*
X190898444Y-140690129D01*
X191029554Y-140602524D01*
X191141054Y-140491024D01*
X191228659Y-140359914D01*
X191289002Y-140214232D01*
X191319765Y-140059577D01*
X191319765Y-139901893D01*
X191319765Y-139901890D01*
X191319764Y-139901888D01*
X191289003Y-139747245D01*
X191289003Y-139747243D01*
X191289002Y-139747238D01*
X191289000Y-139747233D01*
X191228662Y-139601562D01*
X191228655Y-139601549D01*
X191141054Y-139470446D01*
X191141051Y-139470442D01*
X191029557Y-139358948D01*
X191029553Y-139358945D01*
X190898450Y-139271344D01*
X190898437Y-139271337D01*
X190752766Y-139210999D01*
X190752757Y-139210996D01*
X190696416Y-139199789D01*
X190634505Y-139167403D01*
X190599932Y-139106687D01*
X190603673Y-139036917D01*
X190644540Y-138980246D01*
X190682301Y-138960238D01*
X190689645Y-138957852D01*
X190895124Y-138853155D01*
X190895130Y-138853151D01*
X190971391Y-138797744D01*
X190971392Y-138797744D01*
X190211294Y-138037647D01*
X190298771Y-138014208D01*
X190400130Y-137955689D01*
X190482889Y-137872930D01*
X190541408Y-137771571D01*
X190564847Y-137684095D01*
X191365366Y-138484614D01*
X191365252Y-138484727D01*
X191381741Y-138499115D01*
X191419855Y-138551575D01*
X191422227Y-138554839D01*
X191585361Y-138717973D01*
X191772006Y-138853579D01*
X191977567Y-138958317D01*
X192155050Y-139015984D01*
X192196980Y-139029609D01*
X192243121Y-139036917D01*
X192424847Y-139065700D01*
X192424848Y-139065700D01*
X192655552Y-139065700D01*
X192655553Y-139065700D01*
X192883419Y-139029609D01*
X193102833Y-138958317D01*
X193308394Y-138853579D01*
X193495039Y-138717973D01*
X193658173Y-138554839D01*
X193793779Y-138368194D01*
X193898517Y-138162633D01*
X193969809Y-137943219D01*
X194005900Y-137715353D01*
X194005900Y-137484647D01*
X193971348Y-137266498D01*
X193969809Y-137256780D01*
X193946743Y-137185792D01*
X193898517Y-137037367D01*
X193793779Y-136831806D01*
X193658173Y-136645161D01*
X193495039Y-136482027D01*
X193308394Y-136346421D01*
X193102833Y-136241683D01*
X193012464Y-136212320D01*
X192883419Y-136170390D01*
X192686708Y-136139234D01*
X192655553Y-136134300D01*
X192424847Y-136134300D01*
X192397439Y-136138641D01*
X192196980Y-136170390D01*
X192026005Y-136225944D01*
X191977567Y-136241683D01*
X191977564Y-136241684D01*
X191977562Y-136241685D01*
X191772005Y-136346421D01*
X191665517Y-136423789D01*
X191585361Y-136482027D01*
X191585359Y-136482029D01*
X191585358Y-136482029D01*
X191422226Y-136645161D01*
X191381740Y-136700885D01*
X191364307Y-136714326D01*
X191365366Y-136715385D01*
X190564847Y-137515904D01*
X190541408Y-137428429D01*
X190482889Y-137327070D01*
X190400130Y-137244311D01*
X190298771Y-137185792D01*
X190211293Y-137162352D01*
X190971392Y-136402254D01*
X190971391Y-136402253D01*
X190895135Y-136346850D01*
X190689646Y-136242147D01*
X190470302Y-136170877D01*
X190242519Y-136134800D01*
X190011881Y-136134800D01*
X189784097Y-136170877D01*
X189564753Y-136242147D01*
X189359269Y-136346847D01*
X189283007Y-136402254D01*
X190043106Y-137162352D01*
X189955629Y-137185792D01*
X189854270Y-137244311D01*
X189771511Y-137327070D01*
X189712992Y-137428429D01*
X189689552Y-137515905D01*
X188929454Y-136755807D01*
X188874047Y-136832069D01*
X188769347Y-137037553D01*
X188698077Y-137256897D01*
X188662000Y-137484680D01*
X188662000Y-137715319D01*
X188698077Y-137943102D01*
X188769347Y-138162446D01*
X188874050Y-138367935D01*
X188929453Y-138444191D01*
X188929454Y-138444192D01*
X189689552Y-137684094D01*
X189712992Y-137771571D01*
X189771511Y-137872930D01*
X189854270Y-137955689D01*
X189955629Y-138014208D01*
X190043105Y-138037647D01*
X189283006Y-138797744D01*
X189359267Y-138853151D01*
X189564753Y-138957852D01*
X189784097Y-139029122D01*
X190011881Y-139065200D01*
X190039824Y-139065200D01*
X190106863Y-139084885D01*
X190152618Y-139137689D01*
X190162562Y-139206847D01*
X190133537Y-139270403D01*
X190108715Y-139292302D01*
X190008976Y-139358945D01*
X190008972Y-139358948D01*
X189897478Y-139470442D01*
X189897475Y-139470446D01*
X189809874Y-139601549D01*
X189809867Y-139601562D01*
X189749529Y-139747233D01*
X189749526Y-139747243D01*
X189718626Y-139902585D01*
X189686241Y-139964496D01*
X189684690Y-139966074D01*
X186787584Y-142863181D01*
X186726261Y-142896666D01*
X186699903Y-142899500D01*
X184979602Y-142899500D01*
X184912563Y-142879815D01*
X184869117Y-142831795D01*
X184862284Y-142818385D01*
X184741971Y-142652786D01*
X184597213Y-142508028D01*
X184431613Y-142387715D01*
X184431612Y-142387714D01*
X184431610Y-142387713D01*
X184374653Y-142358691D01*
X184249223Y-142294781D01*
X184054534Y-142231522D01*
X183879995Y-142203878D01*
X183852352Y-142199500D01*
X183647648Y-142199500D01*
X183623329Y-142203351D01*
X183445465Y-142231522D01*
X183250776Y-142294781D01*
X183068386Y-142387715D01*
X182902786Y-142508028D01*
X182758028Y-142652786D01*
X182637715Y-142818386D01*
X182544781Y-143000776D01*
X182481522Y-143195465D01*
X182449500Y-143397648D01*
X182449500Y-143602351D01*
X182481522Y-143804534D01*
X182544781Y-143999223D01*
X182596385Y-144100500D01*
X182637585Y-144181359D01*
X182637715Y-144181613D01*
X182689300Y-144252615D01*
X182712780Y-144318421D01*
X182696954Y-144386475D01*
X182646848Y-144435170D01*
X182588982Y-144449500D01*
X181206329Y-144449500D01*
X181206323Y-144449501D01*
X181146716Y-144455908D01*
X181011871Y-144506202D01*
X181011864Y-144506206D01*
X180896655Y-144592452D01*
X180896652Y-144592455D01*
X180810406Y-144707664D01*
X180810403Y-144707669D01*
X180780598Y-144787581D01*
X180738726Y-144843514D01*
X180673262Y-144867931D01*
X180604989Y-144853079D01*
X180576735Y-144831928D01*
X180526563Y-144781756D01*
X180526558Y-144781752D01*
X180348225Y-144652187D01*
X180348224Y-144652186D01*
X180348222Y-144652185D01*
X180230991Y-144592452D01*
X180151806Y-144552104D01*
X180151803Y-144552103D01*
X179942152Y-144483985D01*
X179833286Y-144466742D01*
X179724422Y-144449500D01*
X179503978Y-144449500D01*
X179431401Y-144460995D01*
X179286247Y-144483985D01*
X179076596Y-144552103D01*
X179076593Y-144552104D01*
X178880174Y-144652187D01*
X178701841Y-144781752D01*
X178701836Y-144781756D01*
X178545956Y-144937636D01*
X178545952Y-144937641D01*
X178416387Y-145115974D01*
X178316304Y-145312393D01*
X178316303Y-145312396D01*
X178248185Y-145522047D01*
X178213700Y-145739778D01*
X174100500Y-145739778D01*
X174100500Y-143397682D01*
X174830000Y-143397682D01*
X174830000Y-143602317D01*
X174862009Y-143804417D01*
X174925244Y-143999031D01*
X175018141Y-144181350D01*
X175018147Y-144181359D01*
X175050523Y-144225921D01*
X175050524Y-144225922D01*
X175730000Y-143546446D01*
X175730000Y-143552661D01*
X175757259Y-143654394D01*
X175809920Y-143745606D01*
X175884394Y-143820080D01*
X175975606Y-143872741D01*
X176077339Y-143900000D01*
X176083553Y-143900000D01*
X175404076Y-144579474D01*
X175448650Y-144611859D01*
X175630968Y-144704755D01*
X175825582Y-144767990D01*
X176027683Y-144800000D01*
X176232317Y-144800000D01*
X176434417Y-144767990D01*
X176629031Y-144704755D01*
X176811349Y-144611859D01*
X176855921Y-144579474D01*
X176176447Y-143900000D01*
X176182661Y-143900000D01*
X176284394Y-143872741D01*
X176375606Y-143820080D01*
X176450080Y-143745606D01*
X176502741Y-143654394D01*
X176530000Y-143552661D01*
X176530000Y-143546447D01*
X177209474Y-144225921D01*
X177241859Y-144181349D01*
X177334755Y-143999031D01*
X177397990Y-143804417D01*
X177430000Y-143602317D01*
X177430000Y-143397682D01*
X177397990Y-143195582D01*
X177334755Y-143000968D01*
X177241859Y-142818650D01*
X177209474Y-142774077D01*
X177209474Y-142774076D01*
X176530000Y-143453551D01*
X176530000Y-143447339D01*
X176502741Y-143345606D01*
X176450080Y-143254394D01*
X176375606Y-143179920D01*
X176284394Y-143127259D01*
X176182661Y-143100000D01*
X176176446Y-143100000D01*
X176855922Y-142420524D01*
X176855921Y-142420523D01*
X176811359Y-142388147D01*
X176811350Y-142388141D01*
X176629031Y-142295244D01*
X176434417Y-142232009D01*
X176232317Y-142200000D01*
X176027683Y-142200000D01*
X175825582Y-142232009D01*
X175630968Y-142295244D01*
X175448644Y-142388143D01*
X175404077Y-142420523D01*
X175404077Y-142420524D01*
X176083554Y-143100000D01*
X176077339Y-143100000D01*
X175975606Y-143127259D01*
X175884394Y-143179920D01*
X175809920Y-143254394D01*
X175757259Y-143345606D01*
X175730000Y-143447339D01*
X175730000Y-143453553D01*
X175050524Y-142774077D01*
X175050523Y-142774077D01*
X175018143Y-142818644D01*
X174925244Y-143000968D01*
X174862009Y-143195582D01*
X174830000Y-143397682D01*
X174100500Y-143397682D01*
X174100500Y-138631290D01*
X174120185Y-138564251D01*
X174172989Y-138518496D01*
X174242147Y-138508552D01*
X174305703Y-138537577D01*
X174318546Y-138551575D01*
X174319063Y-138551134D01*
X174322224Y-138554835D01*
X174322227Y-138554839D01*
X174485361Y-138717973D01*
X174672006Y-138853579D01*
X174877567Y-138958317D01*
X175055050Y-139015984D01*
X175096980Y-139029609D01*
X175143121Y-139036917D01*
X175324847Y-139065700D01*
X175324848Y-139065700D01*
X175555552Y-139065700D01*
X175555553Y-139065700D01*
X175783419Y-139029609D01*
X176002833Y-138958317D01*
X176208394Y-138853579D01*
X176395039Y-138717973D01*
X176558173Y-138554839D01*
X176693779Y-138368194D01*
X176798517Y-138162633D01*
X176869809Y-137943219D01*
X176905900Y-137715353D01*
X176905900Y-137484647D01*
X182534300Y-137484647D01*
X182534300Y-137715352D01*
X182570390Y-137943219D01*
X182603299Y-138044500D01*
X182641683Y-138162633D01*
X182746421Y-138368194D01*
X182882027Y-138554839D01*
X183045161Y-138717973D01*
X183231806Y-138853579D01*
X183437367Y-138958317D01*
X183614850Y-139015984D01*
X183656780Y-139029609D01*
X183702921Y-139036917D01*
X183884647Y-139065700D01*
X183884648Y-139065700D01*
X184115352Y-139065700D01*
X184115353Y-139065700D01*
X184343219Y-139029609D01*
X184562633Y-138958317D01*
X184768194Y-138853579D01*
X184954839Y-138717973D01*
X185117973Y-138554839D01*
X185162328Y-138493789D01*
X185166723Y-138488920D01*
X185176589Y-138482857D01*
X185975352Y-137684094D01*
X185998792Y-137771571D01*
X186057311Y-137872930D01*
X186140070Y-137955689D01*
X186241429Y-138014208D01*
X186328905Y-138037647D01*
X185568806Y-138797744D01*
X185645067Y-138853151D01*
X185850553Y-138957852D01*
X186069897Y-139029122D01*
X186297681Y-139065200D01*
X186528319Y-139065200D01*
X186756102Y-139029122D01*
X186975446Y-138957852D01*
X187180924Y-138853155D01*
X187180930Y-138853151D01*
X187257191Y-138797744D01*
X187257192Y-138797744D01*
X186497094Y-138037647D01*
X186584571Y-138014208D01*
X186685930Y-137955689D01*
X186768689Y-137872930D01*
X186827208Y-137771571D01*
X186850647Y-137684095D01*
X187610744Y-138444192D01*
X187610744Y-138444191D01*
X187666151Y-138367930D01*
X187666155Y-138367924D01*
X187770852Y-138162446D01*
X187842122Y-137943102D01*
X187878200Y-137715319D01*
X187878200Y-137484680D01*
X187842122Y-137256897D01*
X187770852Y-137037553D01*
X187666151Y-136832067D01*
X187610744Y-136755807D01*
X187610744Y-136755806D01*
X186850647Y-137515904D01*
X186827208Y-137428429D01*
X186768689Y-137327070D01*
X186685930Y-137244311D01*
X186584571Y-137185792D01*
X186497093Y-137162352D01*
X187257192Y-136402254D01*
X187257191Y-136402253D01*
X187180935Y-136346850D01*
X186975446Y-136242147D01*
X186756102Y-136170877D01*
X186528319Y-136134800D01*
X186297681Y-136134800D01*
X186069897Y-136170877D01*
X185850553Y-136242147D01*
X185645069Y-136346847D01*
X185568807Y-136402254D01*
X186328906Y-137162352D01*
X186241429Y-137185792D01*
X186140070Y-137244311D01*
X186057311Y-137327070D01*
X185998792Y-137428429D01*
X185975352Y-137515905D01*
X185184300Y-136724852D01*
X185166722Y-136711078D01*
X185162325Y-136706206D01*
X185117973Y-136645161D01*
X184954839Y-136482027D01*
X184768194Y-136346421D01*
X184562633Y-136241683D01*
X184472264Y-136212320D01*
X184343219Y-136170390D01*
X184146508Y-136139234D01*
X184115353Y-136134300D01*
X183884647Y-136134300D01*
X183857239Y-136138641D01*
X183656780Y-136170390D01*
X183485805Y-136225944D01*
X183437367Y-136241683D01*
X183437364Y-136241684D01*
X183437362Y-136241685D01*
X183231805Y-136346421D01*
X183125317Y-136423789D01*
X183045161Y-136482027D01*
X183045159Y-136482029D01*
X183045158Y-136482029D01*
X182882029Y-136645158D01*
X182882029Y-136645159D01*
X182882027Y-136645161D01*
X182853589Y-136684303D01*
X182746421Y-136831805D01*
X182641685Y-137037362D01*
X182570390Y-137256780D01*
X182534300Y-137484647D01*
X176905900Y-137484647D01*
X176871348Y-137266498D01*
X176869809Y-137256780D01*
X176846743Y-137185792D01*
X176798517Y-137037367D01*
X176693779Y-136831806D01*
X176558173Y-136645161D01*
X176395039Y-136482027D01*
X176208394Y-136346421D01*
X176002833Y-136241683D01*
X175912464Y-136212320D01*
X175783419Y-136170390D01*
X175586708Y-136139234D01*
X175555553Y-136134300D01*
X175324847Y-136134300D01*
X175297439Y-136138641D01*
X175096980Y-136170390D01*
X174926005Y-136225944D01*
X174877567Y-136241683D01*
X174877564Y-136241684D01*
X174877562Y-136241685D01*
X174672005Y-136346421D01*
X174565517Y-136423789D01*
X174485361Y-136482027D01*
X174485359Y-136482029D01*
X174485358Y-136482029D01*
X174322229Y-136645158D01*
X174319063Y-136648866D01*
X174317338Y-136647393D01*
X174269378Y-136684303D01*
X174199759Y-136690216D01*
X174137995Y-136657551D01*
X174103696Y-136596679D01*
X174100500Y-136568709D01*
X174100500Y-131529778D01*
X178213700Y-131529778D01*
X178213700Y-131750221D01*
X178248185Y-131967952D01*
X178316303Y-132177603D01*
X178316304Y-132177606D01*
X178416387Y-132374025D01*
X178545952Y-132552358D01*
X178545956Y-132552363D01*
X178701836Y-132708243D01*
X178701841Y-132708247D01*
X178803803Y-132782326D01*
X178880178Y-132837815D01*
X179008575Y-132903237D01*
X179076593Y-132937895D01*
X179076596Y-132937896D01*
X179181421Y-132971955D01*
X179286249Y-133006015D01*
X179503978Y-133040500D01*
X179503979Y-133040500D01*
X179724421Y-133040500D01*
X179724422Y-133040500D01*
X179942151Y-133006015D01*
X180151806Y-132937895D01*
X180348222Y-132837815D01*
X180526565Y-132708242D01*
X180576736Y-132658070D01*
X180638057Y-132624586D01*
X180707748Y-132629570D01*
X180763682Y-132671441D01*
X180780598Y-132702419D01*
X180810402Y-132782328D01*
X180810406Y-132782335D01*
X180896652Y-132897544D01*
X180896655Y-132897547D01*
X181011864Y-132983793D01*
X181011871Y-132983797D01*
X181146717Y-133034091D01*
X181146716Y-133034091D01*
X181153644Y-133034835D01*
X181206327Y-133040500D01*
X183102072Y-133040499D01*
X183161683Y-133034091D01*
X183296531Y-132983796D01*
X183411746Y-132897546D01*
X183497996Y-132782331D01*
X183548291Y-132647483D01*
X183554700Y-132587873D01*
X183554699Y-130923455D01*
X183574384Y-130856417D01*
X183627187Y-130810662D01*
X183659301Y-130800983D01*
X183662351Y-130800500D01*
X183662352Y-130800500D01*
X183864534Y-130768477D01*
X184059219Y-130705220D01*
X184241610Y-130612287D01*
X184341299Y-130539859D01*
X184407213Y-130491971D01*
X184407215Y-130491968D01*
X184407219Y-130491966D01*
X184551966Y-130347219D01*
X184551968Y-130347215D01*
X184551971Y-130347213D01*
X184625572Y-130245908D01*
X184672287Y-130181610D01*
X184765220Y-129999219D01*
X184828477Y-129804534D01*
X184860500Y-129602352D01*
X184860500Y-129397648D01*
X184828477Y-129195466D01*
X184828476Y-129195462D01*
X184828476Y-129195461D01*
X184823808Y-129181094D01*
X184812941Y-129147648D01*
X191889500Y-129147648D01*
X191889500Y-129352351D01*
X191921522Y-129554534D01*
X191984781Y-129749223D01*
X192037941Y-129853553D01*
X192077712Y-129931609D01*
X192077715Y-129931613D01*
X192198028Y-130097213D01*
X192342786Y-130241971D01*
X192497749Y-130354556D01*
X192508390Y-130362287D01*
X192624607Y-130421503D01*
X192690776Y-130455218D01*
X192690778Y-130455218D01*
X192690781Y-130455220D01*
X192885466Y-130518477D01*
X192885472Y-130518478D01*
X192889322Y-130519402D01*
X192949919Y-130554184D01*
X192982092Y-130616206D01*
X192983681Y-130653231D01*
X192979500Y-130692127D01*
X192979500Y-130692128D01*
X192979500Y-130692132D01*
X192979500Y-132587870D01*
X192979501Y-132587876D01*
X192985908Y-132647483D01*
X193036202Y-132782328D01*
X193036206Y-132782335D01*
X193122452Y-132897544D01*
X193122455Y-132897547D01*
X193237664Y-132983793D01*
X193237671Y-132983797D01*
X193372517Y-133034091D01*
X193372516Y-133034091D01*
X193379444Y-133034835D01*
X193432127Y-133040500D01*
X195327872Y-133040499D01*
X195387483Y-133034091D01*
X195522331Y-132983796D01*
X195637546Y-132897546D01*
X195723796Y-132782331D01*
X195751429Y-132708243D01*
X195753601Y-132702420D01*
X195795471Y-132646486D01*
X195860936Y-132622068D01*
X195929209Y-132636919D01*
X195957464Y-132658071D01*
X196007636Y-132708243D01*
X196007641Y-132708247D01*
X196109603Y-132782326D01*
X196185978Y-132837815D01*
X196314375Y-132903237D01*
X196382393Y-132937895D01*
X196382396Y-132937896D01*
X196487221Y-132971955D01*
X196592049Y-133006015D01*
X196809778Y-133040500D01*
X196809779Y-133040500D01*
X197030221Y-133040500D01*
X197030222Y-133040500D01*
X197247951Y-133006015D01*
X197457606Y-132937895D01*
X197654022Y-132837815D01*
X197832365Y-132708242D01*
X197988242Y-132552365D01*
X198117815Y-132374022D01*
X198217895Y-132177606D01*
X198286015Y-131967951D01*
X198320500Y-131750222D01*
X198320500Y-131529778D01*
X198286015Y-131312049D01*
X198217895Y-131102394D01*
X198217895Y-131102393D01*
X198183237Y-131034375D01*
X198117815Y-130905978D01*
X198059501Y-130825715D01*
X197988247Y-130727641D01*
X197988243Y-130727636D01*
X197832363Y-130571756D01*
X197832358Y-130571752D01*
X197654025Y-130442187D01*
X197654024Y-130442186D01*
X197654022Y-130442185D01*
X197556902Y-130392699D01*
X197556901Y-130392698D01*
X197457611Y-130342106D01*
X197457603Y-130342103D01*
X197247952Y-130273985D01*
X197139086Y-130256742D01*
X197030222Y-130239500D01*
X196809778Y-130239500D01*
X196737201Y-130250995D01*
X196592047Y-130273985D01*
X196382396Y-130342103D01*
X196382393Y-130342104D01*
X196185974Y-130442187D01*
X196007641Y-130571752D01*
X196007636Y-130571756D01*
X195957463Y-130621929D01*
X195896140Y-130655413D01*
X195826448Y-130650428D01*
X195770515Y-130608557D01*
X195753601Y-130577580D01*
X195723797Y-130497671D01*
X195723793Y-130497664D01*
X195637547Y-130382455D01*
X195637544Y-130382452D01*
X195522335Y-130296206D01*
X195522328Y-130296202D01*
X195387482Y-130245908D01*
X195387483Y-130245908D01*
X195327883Y-130239501D01*
X195327881Y-130239500D01*
X195327873Y-130239500D01*
X195327865Y-130239500D01*
X194321957Y-130239500D01*
X194254918Y-130219815D01*
X194209163Y-130167011D01*
X194199219Y-130097853D01*
X194221638Y-130042615D01*
X194238732Y-130019085D01*
X194302287Y-129931610D01*
X194395220Y-129749219D01*
X194458477Y-129554534D01*
X194490500Y-129352352D01*
X194490500Y-129147648D01*
X194482257Y-129095606D01*
X194458477Y-128945465D01*
X194402789Y-128774076D01*
X194395220Y-128750781D01*
X194395218Y-128750778D01*
X194395218Y-128750776D01*
X194345286Y-128652781D01*
X194302287Y-128568390D01*
X194292018Y-128554256D01*
X194181971Y-128402786D01*
X194037213Y-128258028D01*
X193871613Y-128137715D01*
X193871612Y-128137714D01*
X193871610Y-128137713D01*
X193814653Y-128108691D01*
X193689223Y-128044781D01*
X193494534Y-127981522D01*
X193319995Y-127953878D01*
X193292352Y-127949500D01*
X193087648Y-127949500D01*
X193063329Y-127953351D01*
X192885465Y-127981522D01*
X192690776Y-128044781D01*
X192508386Y-128137715D01*
X192342786Y-128258028D01*
X192198028Y-128402786D01*
X192077715Y-128568386D01*
X191984781Y-128750776D01*
X191921522Y-128945465D01*
X191889500Y-129147648D01*
X184812941Y-129147648D01*
X184766394Y-129004394D01*
X184765220Y-129000781D01*
X184765218Y-129000778D01*
X184765218Y-129000776D01*
X184729114Y-128929920D01*
X184672287Y-128818390D01*
X184640092Y-128774077D01*
X184551971Y-128652786D01*
X184407213Y-128508028D01*
X184241613Y-128387715D01*
X184241612Y-128387714D01*
X184241610Y-128387713D01*
X184184653Y-128358691D01*
X184059223Y-128294781D01*
X183864534Y-128231522D01*
X183689995Y-128203878D01*
X183662352Y-128199500D01*
X183457648Y-128199500D01*
X183433329Y-128203351D01*
X183255465Y-128231522D01*
X183060776Y-128294781D01*
X182878386Y-128387715D01*
X182712786Y-128508028D01*
X182568028Y-128652786D01*
X182447715Y-128818386D01*
X182354781Y-129000776D01*
X182291522Y-129195465D01*
X182259500Y-129397648D01*
X182259500Y-129602351D01*
X182291522Y-129804534D01*
X182354782Y-129999226D01*
X182385344Y-130059206D01*
X182398240Y-130127875D01*
X182371963Y-130192615D01*
X182314857Y-130232872D01*
X182274859Y-130239500D01*
X181206329Y-130239500D01*
X181206323Y-130239501D01*
X181146716Y-130245908D01*
X181011871Y-130296202D01*
X181011864Y-130296206D01*
X180896655Y-130382452D01*
X180896652Y-130382455D01*
X180810406Y-130497664D01*
X180810403Y-130497669D01*
X180780598Y-130577581D01*
X180738726Y-130633514D01*
X180673262Y-130657931D01*
X180604989Y-130643079D01*
X180576735Y-130621928D01*
X180526563Y-130571756D01*
X180526558Y-130571752D01*
X180348225Y-130442187D01*
X180348224Y-130442186D01*
X180348222Y-130442185D01*
X180285296Y-130410122D01*
X180151806Y-130342104D01*
X180151803Y-130342103D01*
X179942152Y-130273985D01*
X179833286Y-130256742D01*
X179724422Y-130239500D01*
X179503978Y-130239500D01*
X179431401Y-130250995D01*
X179286247Y-130273985D01*
X179076596Y-130342103D01*
X179076593Y-130342104D01*
X178880174Y-130442187D01*
X178701841Y-130571752D01*
X178701836Y-130571756D01*
X178545956Y-130727636D01*
X178545952Y-130727641D01*
X178416387Y-130905974D01*
X178316304Y-131102393D01*
X178316303Y-131102396D01*
X178248185Y-131312047D01*
X178213700Y-131529778D01*
X174100500Y-131529778D01*
X174100500Y-129397682D01*
X174640000Y-129397682D01*
X174640000Y-129602317D01*
X174672009Y-129804417D01*
X174735244Y-129999031D01*
X174828141Y-130181350D01*
X174828147Y-130181359D01*
X174860523Y-130225921D01*
X174860524Y-130225922D01*
X175540000Y-129546446D01*
X175540000Y-129552661D01*
X175567259Y-129654394D01*
X175619920Y-129745606D01*
X175694394Y-129820080D01*
X175785606Y-129872741D01*
X175887339Y-129900000D01*
X175893553Y-129900000D01*
X175214076Y-130579474D01*
X175258650Y-130611859D01*
X175440968Y-130704755D01*
X175635582Y-130767990D01*
X175837683Y-130800000D01*
X176042317Y-130800000D01*
X176244417Y-130767990D01*
X176439031Y-130704755D01*
X176621349Y-130611859D01*
X176665921Y-130579474D01*
X175986447Y-129900000D01*
X175992661Y-129900000D01*
X176094394Y-129872741D01*
X176185606Y-129820080D01*
X176260080Y-129745606D01*
X176312741Y-129654394D01*
X176340000Y-129552661D01*
X176340000Y-129546447D01*
X177019474Y-130225921D01*
X177051859Y-130181349D01*
X177144755Y-129999031D01*
X177207990Y-129804417D01*
X177240000Y-129602317D01*
X177240000Y-129397682D01*
X177207990Y-129195582D01*
X177144755Y-129000968D01*
X177051859Y-128818650D01*
X177019474Y-128774077D01*
X177019474Y-128774076D01*
X176340000Y-129453551D01*
X176340000Y-129447339D01*
X176312741Y-129345606D01*
X176260080Y-129254394D01*
X176185606Y-129179920D01*
X176094394Y-129127259D01*
X175992661Y-129100000D01*
X175986446Y-129100000D01*
X176665922Y-128420524D01*
X176665921Y-128420523D01*
X176621359Y-128388147D01*
X176621350Y-128388141D01*
X176439031Y-128295244D01*
X176244417Y-128232009D01*
X176042317Y-128200000D01*
X175837683Y-128200000D01*
X175635582Y-128232009D01*
X175440968Y-128295244D01*
X175258644Y-128388143D01*
X175214077Y-128420523D01*
X175214077Y-128420524D01*
X175893554Y-129100000D01*
X175887339Y-129100000D01*
X175785606Y-129127259D01*
X175694394Y-129179920D01*
X175619920Y-129254394D01*
X175567259Y-129345606D01*
X175540000Y-129447339D01*
X175540000Y-129453553D01*
X174860524Y-128774077D01*
X174860523Y-128774077D01*
X174828143Y-128818644D01*
X174735244Y-129000968D01*
X174672009Y-129195582D01*
X174640000Y-129397682D01*
X174100500Y-129397682D01*
X174100500Y-124331290D01*
X174120185Y-124264251D01*
X174172989Y-124218496D01*
X174242147Y-124208552D01*
X174305703Y-124237577D01*
X174318546Y-124251575D01*
X174319063Y-124251134D01*
X174322225Y-124254836D01*
X174322227Y-124254839D01*
X174485361Y-124417973D01*
X174672006Y-124553579D01*
X174877567Y-124658317D01*
X175055050Y-124715984D01*
X175096980Y-124729609D01*
X175210914Y-124747654D01*
X175324847Y-124765700D01*
X175324848Y-124765700D01*
X175555552Y-124765700D01*
X175555553Y-124765700D01*
X175783419Y-124729609D01*
X176002833Y-124658317D01*
X176208394Y-124553579D01*
X176395039Y-124417973D01*
X176558173Y-124254839D01*
X176693779Y-124068194D01*
X176798517Y-123862633D01*
X176869809Y-123643219D01*
X176905900Y-123415353D01*
X176905900Y-123184647D01*
X176880942Y-123027070D01*
X176869809Y-122956780D01*
X176846743Y-122885792D01*
X176798517Y-122737367D01*
X176693779Y-122531806D01*
X176558173Y-122345161D01*
X176395039Y-122182027D01*
X176208394Y-122046421D01*
X176002833Y-121941683D01*
X175890144Y-121905068D01*
X175783419Y-121870390D01*
X175586708Y-121839234D01*
X175555553Y-121834300D01*
X175324847Y-121834300D01*
X175297439Y-121838641D01*
X175096980Y-121870390D01*
X174935101Y-121922989D01*
X174877567Y-121941683D01*
X174877564Y-121941684D01*
X174877562Y-121941685D01*
X174672005Y-122046421D01*
X174565517Y-122123789D01*
X174485361Y-122182027D01*
X174485359Y-122182029D01*
X174485358Y-122182029D01*
X174322229Y-122345158D01*
X174319063Y-122348866D01*
X174317338Y-122347393D01*
X174269378Y-122384303D01*
X174199759Y-122390216D01*
X174137995Y-122357551D01*
X174103696Y-122296679D01*
X174100500Y-122268709D01*
X174100500Y-106457682D01*
X177950000Y-106457682D01*
X177950000Y-106662317D01*
X177982009Y-106864417D01*
X178045244Y-107059031D01*
X178138141Y-107241350D01*
X178138147Y-107241359D01*
X178170523Y-107285921D01*
X178170524Y-107285922D01*
X178850000Y-106606446D01*
X178850000Y-106612661D01*
X178877259Y-106714394D01*
X178929920Y-106805606D01*
X179004394Y-106880080D01*
X179095606Y-106932741D01*
X179197339Y-106960000D01*
X179203553Y-106960000D01*
X178524076Y-107639474D01*
X178568650Y-107671859D01*
X178750968Y-107764755D01*
X178945582Y-107827990D01*
X179147683Y-107860000D01*
X179352317Y-107860000D01*
X179554417Y-107827990D01*
X179749031Y-107764755D01*
X179931349Y-107671859D01*
X179975921Y-107639474D01*
X179296447Y-106960000D01*
X179302661Y-106960000D01*
X179404394Y-106932741D01*
X179495606Y-106880080D01*
X179570080Y-106805606D01*
X179622741Y-106714394D01*
X179650000Y-106612661D01*
X179650000Y-106606447D01*
X180329474Y-107285921D01*
X180361859Y-107241349D01*
X180454755Y-107059031D01*
X180517990Y-106864417D01*
X180550000Y-106662317D01*
X180550000Y-106457682D01*
X180517990Y-106255582D01*
X180454755Y-106060968D01*
X180361859Y-105878650D01*
X180329474Y-105834077D01*
X180329474Y-105834076D01*
X179650000Y-106513551D01*
X179650000Y-106507339D01*
X179622741Y-106405606D01*
X179570080Y-106314394D01*
X179495606Y-106239920D01*
X179404394Y-106187259D01*
X179302661Y-106160000D01*
X179296446Y-106160000D01*
X179975922Y-105480524D01*
X179975921Y-105480523D01*
X179931359Y-105448147D01*
X179931350Y-105448141D01*
X179749031Y-105355244D01*
X179554417Y-105292009D01*
X179352317Y-105260000D01*
X179147683Y-105260000D01*
X178945582Y-105292009D01*
X178750968Y-105355244D01*
X178568644Y-105448143D01*
X178524077Y-105480523D01*
X178524077Y-105480524D01*
X179203554Y-106160000D01*
X179197339Y-106160000D01*
X179095606Y-106187259D01*
X179004394Y-106239920D01*
X178929920Y-106314394D01*
X178877259Y-106405606D01*
X178850000Y-106507339D01*
X178850000Y-106513553D01*
X178170524Y-105834077D01*
X178170523Y-105834077D01*
X178138143Y-105878644D01*
X178045244Y-106060968D01*
X177982009Y-106255582D01*
X177950000Y-106457682D01*
X174100500Y-106457682D01*
X174100500Y-86281947D01*
X184085000Y-86281947D01*
X184085000Y-86518052D01*
X184121934Y-86751247D01*
X184194897Y-86975802D01*
X184302087Y-87186174D01*
X184362338Y-87269104D01*
X184362340Y-87269105D01*
X185102037Y-86529408D01*
X185119075Y-86592993D01*
X185184901Y-86707007D01*
X185277993Y-86800099D01*
X185392007Y-86865925D01*
X185455590Y-86882962D01*
X184715893Y-87622658D01*
X184798828Y-87682914D01*
X185009197Y-87790102D01*
X185233752Y-87863065D01*
X185233751Y-87863065D01*
X185466948Y-87900000D01*
X185703052Y-87900000D01*
X185936247Y-87863065D01*
X186160802Y-87790102D01*
X186371163Y-87682918D01*
X186371169Y-87682914D01*
X186454104Y-87622658D01*
X186454105Y-87622658D01*
X185714408Y-86882962D01*
X185777993Y-86865925D01*
X185892007Y-86800099D01*
X185985099Y-86707007D01*
X186050925Y-86592993D01*
X186067962Y-86529409D01*
X186807658Y-87269105D01*
X186807658Y-87269104D01*
X186867914Y-87186169D01*
X186867918Y-87186163D01*
X186975102Y-86975802D01*
X187048065Y-86751247D01*
X187085000Y-86518052D01*
X187085000Y-86281947D01*
X187048065Y-86048752D01*
X186975102Y-85824197D01*
X186867914Y-85613828D01*
X186807658Y-85530894D01*
X186807658Y-85530893D01*
X186067962Y-86270590D01*
X186050925Y-86207007D01*
X185985099Y-86092993D01*
X185892007Y-85999901D01*
X185777993Y-85934075D01*
X185714409Y-85917037D01*
X186454105Y-85177340D01*
X186454104Y-85177338D01*
X186371174Y-85117087D01*
X186160802Y-85009897D01*
X185936247Y-84936934D01*
X185936248Y-84936934D01*
X185703052Y-84900000D01*
X185466948Y-84900000D01*
X185233752Y-84936934D01*
X185009197Y-85009897D01*
X184798830Y-85117084D01*
X184715894Y-85177340D01*
X185455591Y-85917037D01*
X185392007Y-85934075D01*
X185277993Y-85999901D01*
X185184901Y-86092993D01*
X185119075Y-86207007D01*
X185102037Y-86270591D01*
X184362340Y-85530894D01*
X184302084Y-85613830D01*
X184194897Y-85824197D01*
X184121934Y-86048752D01*
X184085000Y-86281947D01*
X174100500Y-86281947D01*
X174100500Y-82589758D01*
X174120185Y-82522719D01*
X174172989Y-82476964D01*
X174242147Y-82467020D01*
X174305703Y-82496045D01*
X174312181Y-82502077D01*
X174320213Y-82510109D01*
X174492179Y-82635048D01*
X174492181Y-82635049D01*
X174492184Y-82635051D01*
X174681588Y-82731557D01*
X174883757Y-82797246D01*
X175093713Y-82830500D01*
X175093714Y-82830500D01*
X175306286Y-82830500D01*
X175306287Y-82830500D01*
X175516243Y-82797246D01*
X175718412Y-82731557D01*
X175907816Y-82635051D01*
X175970157Y-82589758D01*
X176079786Y-82510109D01*
X176079788Y-82510106D01*
X176079792Y-82510104D01*
X176230104Y-82359792D01*
X176230106Y-82359788D01*
X176230109Y-82359786D01*
X176355048Y-82187820D01*
X176355047Y-82187820D01*
X176355051Y-82187816D01*
X176451557Y-81998412D01*
X176517246Y-81796243D01*
X176550500Y-81586287D01*
X176550500Y-81373713D01*
X176521991Y-81193713D01*
X186734500Y-81193713D01*
X186734500Y-81406286D01*
X186767753Y-81616239D01*
X186833444Y-81818414D01*
X186929951Y-82007820D01*
X187054890Y-82179786D01*
X187205213Y-82330109D01*
X187377179Y-82455048D01*
X187377181Y-82455049D01*
X187377184Y-82455051D01*
X187566588Y-82551557D01*
X187768757Y-82617246D01*
X187978713Y-82650500D01*
X187978714Y-82650500D01*
X188191286Y-82650500D01*
X188191287Y-82650500D01*
X188401243Y-82617246D01*
X188603412Y-82551557D01*
X188792816Y-82455051D01*
X188923930Y-82359792D01*
X188964786Y-82330109D01*
X188964788Y-82330106D01*
X188964792Y-82330104D01*
X189115104Y-82179792D01*
X189115106Y-82179788D01*
X189115109Y-82179786D01*
X189240048Y-82007820D01*
X189240047Y-82007820D01*
X189240051Y-82007816D01*
X189336557Y-81818412D01*
X189402246Y-81616243D01*
X189435500Y-81406287D01*
X189435500Y-81193713D01*
X189402246Y-80983757D01*
X189336557Y-80781588D01*
X189240051Y-80592184D01*
X189240049Y-80592181D01*
X189240048Y-80592179D01*
X189115109Y-80420213D01*
X188964786Y-80269890D01*
X188792820Y-80144951D01*
X188603414Y-80048444D01*
X188603413Y-80048443D01*
X188603412Y-80048443D01*
X188401243Y-79982754D01*
X188401241Y-79982753D01*
X188401240Y-79982753D01*
X188232610Y-79956045D01*
X188191287Y-79949500D01*
X187978713Y-79949500D01*
X187937390Y-79956045D01*
X187768760Y-79982753D01*
X187566585Y-80048444D01*
X187377179Y-80144951D01*
X187205213Y-80269890D01*
X187054890Y-80420213D01*
X186929951Y-80592179D01*
X186833444Y-80781585D01*
X186767753Y-80983760D01*
X186734500Y-81193713D01*
X176521991Y-81193713D01*
X176517246Y-81163757D01*
X176451557Y-80961588D01*
X176355051Y-80772184D01*
X176355049Y-80772181D01*
X176355048Y-80772179D01*
X176230109Y-80600213D01*
X176079786Y-80449890D01*
X175907820Y-80324951D01*
X175907115Y-80324591D01*
X175899054Y-80320485D01*
X175848259Y-80272512D01*
X175831463Y-80204692D01*
X175853999Y-80138556D01*
X175899054Y-80099515D01*
X175907816Y-80095051D01*
X175970157Y-80049758D01*
X176079786Y-79970109D01*
X176079788Y-79970106D01*
X176079792Y-79970104D01*
X176230104Y-79819792D01*
X176230106Y-79819788D01*
X176230109Y-79819786D01*
X176355048Y-79647820D01*
X176355047Y-79647820D01*
X176355051Y-79647816D01*
X176451557Y-79458412D01*
X176517246Y-79256243D01*
X176524943Y-79207648D01*
X177199500Y-79207648D01*
X177199500Y-79412351D01*
X177231522Y-79614534D01*
X177294781Y-79809223D01*
X177354803Y-79927020D01*
X177383200Y-79982753D01*
X177387715Y-79991613D01*
X177508028Y-80157213D01*
X177652786Y-80301971D01*
X177758931Y-80379088D01*
X177818390Y-80422287D01*
X177934607Y-80481503D01*
X178000776Y-80515218D01*
X178000778Y-80515218D01*
X178000781Y-80515220D01*
X178105137Y-80549127D01*
X178195465Y-80578477D01*
X178282007Y-80592184D01*
X178397648Y-80610500D01*
X178397649Y-80610500D01*
X178602351Y-80610500D01*
X178602352Y-80610500D01*
X178804534Y-80578477D01*
X178999219Y-80515220D01*
X179181610Y-80422287D01*
X179315583Y-80324951D01*
X179347213Y-80301971D01*
X179347215Y-80301968D01*
X179347219Y-80301966D01*
X179491966Y-80157219D01*
X179491968Y-80157215D01*
X179491971Y-80157213D01*
X179570995Y-80048444D01*
X179612287Y-79991610D01*
X179705220Y-79809219D01*
X179768477Y-79614534D01*
X179800500Y-79412352D01*
X179800500Y-79207648D01*
X198949500Y-79207648D01*
X198949500Y-79412351D01*
X198981522Y-79614534D01*
X199044781Y-79809223D01*
X199104803Y-79927020D01*
X199133200Y-79982753D01*
X199137715Y-79991613D01*
X199258028Y-80157213D01*
X199402786Y-80301971D01*
X199508931Y-80379088D01*
X199568390Y-80422287D01*
X199684607Y-80481503D01*
X199750776Y-80515218D01*
X199750778Y-80515218D01*
X199750781Y-80515220D01*
X199855137Y-80549127D01*
X199945465Y-80578477D01*
X200032007Y-80592184D01*
X200147648Y-80610500D01*
X200147649Y-80610500D01*
X200352351Y-80610500D01*
X200352352Y-80610500D01*
X200554534Y-80578477D01*
X200749219Y-80515220D01*
X200931610Y-80422287D01*
X201065583Y-80324951D01*
X201097213Y-80301971D01*
X201097215Y-80301968D01*
X201097219Y-80301966D01*
X201241966Y-80157219D01*
X201241968Y-80157215D01*
X201241971Y-80157213D01*
X201320995Y-80048444D01*
X201362287Y-79991610D01*
X201455220Y-79809219D01*
X201518477Y-79614534D01*
X201550500Y-79412352D01*
X201550500Y-79207648D01*
X201518477Y-79005466D01*
X201455220Y-78810781D01*
X201455218Y-78810778D01*
X201455218Y-78810776D01*
X201421503Y-78744607D01*
X201362287Y-78628390D01*
X201354556Y-78617749D01*
X201241971Y-78462786D01*
X201097213Y-78318028D01*
X200931613Y-78197715D01*
X200931612Y-78197714D01*
X200931610Y-78197713D01*
X200849202Y-78155724D01*
X200749223Y-78104781D01*
X200554534Y-78041522D01*
X200379995Y-78013878D01*
X200352352Y-78009500D01*
X200147648Y-78009500D01*
X200123329Y-78013351D01*
X199945465Y-78041522D01*
X199750776Y-78104781D01*
X199568386Y-78197715D01*
X199402786Y-78318028D01*
X199258028Y-78462786D01*
X199137715Y-78628386D01*
X199044781Y-78810776D01*
X198981522Y-79005465D01*
X198949500Y-79207648D01*
X179800500Y-79207648D01*
X179768477Y-79005466D01*
X179705220Y-78810781D01*
X179705218Y-78810778D01*
X179705218Y-78810776D01*
X179671503Y-78744607D01*
X179612287Y-78628390D01*
X179604556Y-78617749D01*
X179491971Y-78462786D01*
X179347213Y-78318028D01*
X179181613Y-78197715D01*
X179181612Y-78197714D01*
X179181610Y-78197713D01*
X179099202Y-78155724D01*
X178999223Y-78104781D01*
X178804534Y-78041522D01*
X178629995Y-78013878D01*
X178602352Y-78009500D01*
X178397648Y-78009500D01*
X178373329Y-78013351D01*
X178195465Y-78041522D01*
X178000776Y-78104781D01*
X177818386Y-78197715D01*
X177652786Y-78318028D01*
X177508028Y-78462786D01*
X177387715Y-78628386D01*
X177294781Y-78810776D01*
X177231522Y-79005465D01*
X177199500Y-79207648D01*
X176524943Y-79207648D01*
X176550500Y-79046287D01*
X176550500Y-78833713D01*
X176517246Y-78623757D01*
X176451557Y-78421588D01*
X176355051Y-78232184D01*
X176355049Y-78232181D01*
X176355048Y-78232179D01*
X176230109Y-78060213D01*
X176079786Y-77909890D01*
X175907820Y-77784951D01*
X175907115Y-77784591D01*
X175899054Y-77780485D01*
X175848259Y-77732512D01*
X175831463Y-77664692D01*
X175853999Y-77598556D01*
X175899054Y-77559515D01*
X175907816Y-77555051D01*
X175970157Y-77509758D01*
X176079786Y-77430109D01*
X176079788Y-77430106D01*
X176079792Y-77430104D01*
X176230104Y-77279792D01*
X176230106Y-77279788D01*
X176230109Y-77279786D01*
X176355048Y-77107820D01*
X176355047Y-77107820D01*
X176355051Y-77107816D01*
X176451557Y-76918412D01*
X176517246Y-76716243D01*
X176550500Y-76506287D01*
X176550500Y-76293713D01*
X176517246Y-76083757D01*
X176451557Y-75881588D01*
X176355051Y-75692184D01*
X176355049Y-75692181D01*
X176355048Y-75692179D01*
X176230109Y-75520213D01*
X176079786Y-75369890D01*
X175907820Y-75244951D01*
X175907115Y-75244591D01*
X175899054Y-75240485D01*
X175848259Y-75192512D01*
X175831463Y-75124692D01*
X175853999Y-75058556D01*
X175899054Y-75019515D01*
X175907816Y-75015051D01*
X175990818Y-74954747D01*
X176079786Y-74890109D01*
X176079788Y-74890106D01*
X176079792Y-74890104D01*
X176230104Y-74739792D01*
X176230107Y-74739788D01*
X176286903Y-74661615D01*
X176342233Y-74618949D01*
X176387221Y-74610500D01*
X178171687Y-74610500D01*
X178269229Y-74591096D01*
X178316680Y-74581658D01*
X178453262Y-74525084D01*
X178502496Y-74492186D01*
X178576183Y-74442952D01*
X180832951Y-72186183D01*
X180892448Y-72097139D01*
X180915084Y-72063262D01*
X180971658Y-71926680D01*
X180989216Y-71838412D01*
X181000500Y-71781687D01*
X181000500Y-69374500D01*
X181020185Y-69307461D01*
X181072989Y-69261706D01*
X181124500Y-69250500D01*
X187543920Y-69250500D01*
X187641462Y-69231096D01*
X187688913Y-69221658D01*
X187825495Y-69165084D01*
X187874729Y-69132186D01*
X187948416Y-69082952D01*
X189254895Y-67776471D01*
X189316216Y-67742988D01*
X189361971Y-67741681D01*
X189417648Y-67750500D01*
X189417649Y-67750500D01*
X189622351Y-67750500D01*
X189622352Y-67750500D01*
X189824534Y-67718477D01*
X190019219Y-67655220D01*
X190201610Y-67562287D01*
X190298962Y-67491557D01*
X190367213Y-67441971D01*
X190367215Y-67441968D01*
X190367219Y-67441966D01*
X190511966Y-67297219D01*
X190511968Y-67297215D01*
X190511971Y-67297213D01*
X190632284Y-67131614D01*
X190632283Y-67131614D01*
X190632287Y-67131610D01*
X190679516Y-67038917D01*
X190727489Y-66988123D01*
X190795310Y-66971328D01*
X190861445Y-66993865D01*
X190900483Y-67038917D01*
X190927805Y-67092539D01*
X190947715Y-67131614D01*
X191068028Y-67297213D01*
X191212786Y-67441971D01*
X191331807Y-67528443D01*
X191378390Y-67562287D01*
X191492608Y-67620484D01*
X191560776Y-67655218D01*
X191560778Y-67655218D01*
X191560781Y-67655220D01*
X191609178Y-67670945D01*
X191755465Y-67718477D01*
X191827050Y-67729815D01*
X191957648Y-67750500D01*
X191957649Y-67750500D01*
X192162351Y-67750500D01*
X192162352Y-67750500D01*
X192364534Y-67718477D01*
X192378842Y-67713827D01*
X192448679Y-67711831D01*
X192504841Y-67744077D01*
X192991284Y-68230520D01*
X192991286Y-68230521D01*
X192991290Y-68230524D01*
X193096945Y-68291523D01*
X193128216Y-68309577D01*
X193280943Y-68350501D01*
X193280945Y-68350501D01*
X193446654Y-68350501D01*
X193446670Y-68350500D01*
X198152731Y-68350500D01*
X198219770Y-68370185D01*
X198260117Y-68412499D01*
X198269480Y-68428716D01*
X198269482Y-68428718D01*
X198388349Y-68547585D01*
X198388355Y-68547590D01*
X198955922Y-69115157D01*
X198989407Y-69176480D01*
X198986173Y-69241155D01*
X198981522Y-69255468D01*
X198949500Y-69457648D01*
X198949500Y-69662351D01*
X198981522Y-69864534D01*
X199044781Y-70059223D01*
X199096377Y-70160484D01*
X199126237Y-70219088D01*
X199137715Y-70241613D01*
X199258028Y-70407213D01*
X199388134Y-70537319D01*
X199421619Y-70598642D01*
X199416635Y-70668334D01*
X199388134Y-70712681D01*
X199258032Y-70842782D01*
X199258028Y-70842786D01*
X199137715Y-71008386D01*
X199044781Y-71190776D01*
X198981522Y-71385465D01*
X198949500Y-71587648D01*
X198949500Y-71792351D01*
X198981523Y-71994535D01*
X198982011Y-71996569D01*
X198981971Y-71997364D01*
X198982285Y-71999346D01*
X198981868Y-71999411D01*
X198978511Y-72066351D01*
X198937839Y-72123163D01*
X198872909Y-72148968D01*
X198861433Y-72149500D01*
X188386669Y-72149500D01*
X188386653Y-72149499D01*
X188379057Y-72149499D01*
X188220943Y-72149499D01*
X188113587Y-72178265D01*
X188068210Y-72190424D01*
X188068209Y-72190425D01*
X188018096Y-72219359D01*
X188018095Y-72219360D01*
X187974689Y-72244420D01*
X187931285Y-72269479D01*
X187931282Y-72269481D01*
X187819478Y-72381286D01*
X187424842Y-72775921D01*
X187363519Y-72809406D01*
X187298848Y-72806173D01*
X187284534Y-72801522D01*
X187109995Y-72773878D01*
X187082352Y-72769500D01*
X186877648Y-72769500D01*
X186853329Y-72773351D01*
X186675465Y-72801522D01*
X186480776Y-72864781D01*
X186298386Y-72957715D01*
X186132786Y-73078028D01*
X185988028Y-73222786D01*
X185867715Y-73388386D01*
X185820485Y-73481080D01*
X185772510Y-73531876D01*
X185704689Y-73548671D01*
X185638554Y-73526134D01*
X185599515Y-73481080D01*
X185568983Y-73421158D01*
X185552287Y-73388390D01*
X185524759Y-73350500D01*
X185431971Y-73222786D01*
X185287213Y-73078028D01*
X185121613Y-72957715D01*
X185121612Y-72957714D01*
X185121610Y-72957713D01*
X185064653Y-72928691D01*
X184939223Y-72864781D01*
X184744534Y-72801522D01*
X184569995Y-72773878D01*
X184542352Y-72769500D01*
X184337648Y-72769500D01*
X184313329Y-72773351D01*
X184135465Y-72801522D01*
X183940776Y-72864781D01*
X183758386Y-72957715D01*
X183592786Y-73078028D01*
X183448028Y-73222786D01*
X183327715Y-73388386D01*
X183280485Y-73481080D01*
X183232510Y-73531876D01*
X183164689Y-73548671D01*
X183098554Y-73526134D01*
X183059515Y-73481080D01*
X183028983Y-73421158D01*
X183012287Y-73388390D01*
X182984759Y-73350500D01*
X182891971Y-73222786D01*
X182747213Y-73078028D01*
X182581613Y-72957715D01*
X182581612Y-72957714D01*
X182581610Y-72957713D01*
X182524653Y-72928691D01*
X182399223Y-72864781D01*
X182204534Y-72801522D01*
X182029995Y-72773878D01*
X182002352Y-72769500D01*
X181797648Y-72769500D01*
X181773329Y-72773351D01*
X181595465Y-72801522D01*
X181400776Y-72864781D01*
X181218386Y-72957715D01*
X181052786Y-73078028D01*
X180908028Y-73222786D01*
X180787715Y-73388386D01*
X180694781Y-73570776D01*
X180631522Y-73765465D01*
X180599500Y-73967648D01*
X180599500Y-74172351D01*
X180631522Y-74374534D01*
X180694781Y-74569223D01*
X180741858Y-74661615D01*
X180781691Y-74739792D01*
X180787715Y-74751613D01*
X180908028Y-74917213D01*
X181052786Y-75061971D01*
X181171807Y-75148443D01*
X181218390Y-75182287D01*
X181299499Y-75223614D01*
X181400776Y-75275218D01*
X181400778Y-75275218D01*
X181400781Y-75275220D01*
X181474239Y-75299088D01*
X181595465Y-75338477D01*
X181696557Y-75354488D01*
X181797648Y-75370500D01*
X181797649Y-75370500D01*
X182002351Y-75370500D01*
X182002352Y-75370500D01*
X182204534Y-75338477D01*
X182218842Y-75333827D01*
X182288679Y-75331831D01*
X182344841Y-75364077D01*
X183207717Y-76226953D01*
X183241202Y-76288276D01*
X183236218Y-76357968D01*
X183232702Y-76365758D01*
X183170264Y-76516498D01*
X183170261Y-76516510D01*
X183139500Y-76671153D01*
X183139500Y-76828846D01*
X183170261Y-76983489D01*
X183170264Y-76983501D01*
X183230602Y-77129172D01*
X183230609Y-77129185D01*
X183318210Y-77260288D01*
X183318213Y-77260292D01*
X183429707Y-77371786D01*
X183429711Y-77371789D01*
X183560814Y-77459390D01*
X183560827Y-77459397D01*
X183682411Y-77509758D01*
X183706503Y-77519737D01*
X183861153Y-77550499D01*
X183861156Y-77550500D01*
X183861158Y-77550500D01*
X184018844Y-77550500D01*
X184018845Y-77550499D01*
X184173497Y-77519737D01*
X184319179Y-77459394D01*
X184375028Y-77422077D01*
X184450875Y-77371398D01*
X184517553Y-77350520D01*
X184519766Y-77350500D01*
X195524262Y-77350500D01*
X195556355Y-77354725D01*
X195572414Y-77359028D01*
X195572415Y-77359028D01*
X195738124Y-77359028D01*
X195738140Y-77359027D01*
X196061860Y-77359027D01*
X196061876Y-77359028D01*
X196069472Y-77359028D01*
X196227584Y-77359028D01*
X196227586Y-77359028D01*
X196239946Y-77355716D01*
X196243642Y-77354726D01*
X196275734Y-77350501D01*
X196329054Y-77350501D01*
X196329057Y-77350501D01*
X196481785Y-77309577D01*
X196533374Y-77279792D01*
X196533375Y-77279792D01*
X196618709Y-77230524D01*
X196618708Y-77230524D01*
X196618716Y-77230520D01*
X196730520Y-77118716D01*
X196730520Y-77118714D01*
X196740724Y-77108511D01*
X196740728Y-77108506D01*
X197498506Y-76350728D01*
X197498511Y-76350724D01*
X197508714Y-76340520D01*
X197508716Y-76340520D01*
X197620520Y-76228716D01*
X197690120Y-76108165D01*
X197699577Y-76091785D01*
X197740500Y-75939057D01*
X197740500Y-75780943D01*
X197740500Y-75299601D01*
X197760185Y-75232562D01*
X197808206Y-75189116D01*
X197821610Y-75182287D01*
X197987219Y-75061966D01*
X198131966Y-74917219D01*
X198131968Y-74917215D01*
X198131971Y-74917213D01*
X198184732Y-74844590D01*
X198252287Y-74751610D01*
X198345220Y-74569219D01*
X198408477Y-74374534D01*
X198440500Y-74172352D01*
X198440500Y-73967648D01*
X198426487Y-73879172D01*
X198408477Y-73765465D01*
X198347840Y-73578846D01*
X198345220Y-73570781D01*
X198345218Y-73570778D01*
X198345218Y-73570776D01*
X198324846Y-73530795D01*
X198311950Y-73462126D01*
X198338226Y-73397386D01*
X198395332Y-73357128D01*
X198435331Y-73350500D01*
X198699903Y-73350500D01*
X198766942Y-73370185D01*
X198787584Y-73386819D01*
X198915425Y-73514660D01*
X198948910Y-73575983D01*
X198949361Y-73578149D01*
X198980261Y-73733491D01*
X198980264Y-73733501D01*
X199040602Y-73879172D01*
X199040609Y-73879185D01*
X199128210Y-74010288D01*
X199128213Y-74010292D01*
X199239707Y-74121786D01*
X199239711Y-74121789D01*
X199370814Y-74209390D01*
X199370827Y-74209397D01*
X199407034Y-74224394D01*
X199516503Y-74269737D01*
X199671153Y-74300499D01*
X199671156Y-74300500D01*
X199671158Y-74300500D01*
X199828844Y-74300500D01*
X199828845Y-74300499D01*
X199983497Y-74269737D01*
X200129179Y-74209394D01*
X200260289Y-74121789D01*
X200371789Y-74010289D01*
X200459394Y-73879179D01*
X200519737Y-73733497D01*
X200550500Y-73578842D01*
X200550500Y-73421158D01*
X200550500Y-73421155D01*
X200550499Y-73421153D01*
X200543981Y-73388386D01*
X200519737Y-73266503D01*
X200462338Y-73127930D01*
X200454870Y-73058462D01*
X200486145Y-72995983D01*
X200546234Y-72960331D01*
X200550307Y-72959491D01*
X200554534Y-72958477D01*
X200556885Y-72957713D01*
X200749219Y-72895220D01*
X200931610Y-72802287D01*
X201065583Y-72704951D01*
X201097213Y-72681971D01*
X201097215Y-72681968D01*
X201097219Y-72681966D01*
X201241966Y-72537219D01*
X201241968Y-72537215D01*
X201241971Y-72537213D01*
X201320040Y-72429758D01*
X201362287Y-72371610D01*
X201455220Y-72189219D01*
X201518477Y-71994534D01*
X201550500Y-71792352D01*
X201550500Y-71587648D01*
X201518477Y-71385466D01*
X201455220Y-71190781D01*
X201455218Y-71190778D01*
X201455218Y-71190776D01*
X201421503Y-71124607D01*
X201362287Y-71008390D01*
X201354556Y-70997749D01*
X201241971Y-70842786D01*
X201111866Y-70712681D01*
X201078381Y-70651358D01*
X201083365Y-70581666D01*
X201111866Y-70537319D01*
X201137716Y-70511469D01*
X201241966Y-70407219D01*
X201241968Y-70407215D01*
X201241971Y-70407213D01*
X201297045Y-70331408D01*
X201362287Y-70241610D01*
X201455220Y-70059219D01*
X201518477Y-69864534D01*
X201550500Y-69662352D01*
X201550500Y-69457648D01*
X201518477Y-69255465D01*
X201462424Y-69082954D01*
X201455220Y-69060781D01*
X201455218Y-69060778D01*
X201455218Y-69060776D01*
X201421503Y-68994607D01*
X201362287Y-68878390D01*
X201354556Y-68867749D01*
X201241971Y-68712786D01*
X201097213Y-68568028D01*
X200931613Y-68447715D01*
X200931612Y-68447714D01*
X200931610Y-68447713D01*
X200862503Y-68412501D01*
X200749223Y-68354781D01*
X200554534Y-68291522D01*
X200379995Y-68263878D01*
X200352352Y-68259500D01*
X200147648Y-68259500D01*
X200109599Y-68265526D01*
X199945468Y-68291522D01*
X199936717Y-68294365D01*
X199931154Y-68296173D01*
X199861313Y-68298167D01*
X199805157Y-68265922D01*
X199386819Y-67847584D01*
X199353334Y-67786261D01*
X199350500Y-67759903D01*
X199350500Y-67670945D01*
X199350500Y-67670943D01*
X199309577Y-67518216D01*
X199294186Y-67491557D01*
X199230524Y-67381290D01*
X199230518Y-67381282D01*
X199118717Y-67269481D01*
X199118709Y-67269475D01*
X198981790Y-67190426D01*
X198981786Y-67190424D01*
X198981784Y-67190423D01*
X198829057Y-67149500D01*
X198829056Y-67149500D01*
X198445522Y-67149500D01*
X198378483Y-67129815D01*
X198332728Y-67077011D01*
X198322784Y-67007853D01*
X198335037Y-66969206D01*
X198345217Y-66949226D01*
X198345217Y-66949222D01*
X198345220Y-66949219D01*
X198408477Y-66754534D01*
X198440500Y-66552352D01*
X198440500Y-66347648D01*
X198408477Y-66145466D01*
X198345220Y-65950781D01*
X198345218Y-65950778D01*
X198345218Y-65950776D01*
X198289099Y-65840638D01*
X198252287Y-65768390D01*
X198239289Y-65750500D01*
X198131971Y-65602786D01*
X197987213Y-65458028D01*
X197821613Y-65337715D01*
X197821612Y-65337714D01*
X197821610Y-65337713D01*
X197764653Y-65308691D01*
X197639223Y-65244781D01*
X197444534Y-65181522D01*
X197269995Y-65153878D01*
X197242352Y-65149500D01*
X197037648Y-65149500D01*
X197013329Y-65153351D01*
X196835465Y-65181522D01*
X196640776Y-65244781D01*
X196458386Y-65337715D01*
X196292786Y-65458028D01*
X196148028Y-65602786D01*
X196027715Y-65768386D01*
X195980485Y-65861080D01*
X195932510Y-65911876D01*
X195864689Y-65928671D01*
X195798554Y-65906134D01*
X195759515Y-65861080D01*
X195749099Y-65840638D01*
X195712287Y-65768390D01*
X195699289Y-65750500D01*
X195591971Y-65602786D01*
X195447213Y-65458028D01*
X195281613Y-65337715D01*
X195281612Y-65337714D01*
X195281610Y-65337713D01*
X195224653Y-65308691D01*
X195099223Y-65244781D01*
X194904534Y-65181522D01*
X194729995Y-65153878D01*
X194702352Y-65149500D01*
X194497648Y-65149500D01*
X194473329Y-65153351D01*
X194295465Y-65181522D01*
X194100776Y-65244781D01*
X193918386Y-65337715D01*
X193752786Y-65458028D01*
X193608028Y-65602786D01*
X193487715Y-65768386D01*
X193440485Y-65861080D01*
X193392510Y-65911876D01*
X193324689Y-65928671D01*
X193258554Y-65906134D01*
X193219515Y-65861080D01*
X193209099Y-65840638D01*
X193172287Y-65768390D01*
X193159289Y-65750500D01*
X193051971Y-65602786D01*
X192907213Y-65458028D01*
X192741613Y-65337715D01*
X192741612Y-65337714D01*
X192741610Y-65337713D01*
X192684653Y-65308691D01*
X192559223Y-65244781D01*
X192364534Y-65181522D01*
X192189995Y-65153878D01*
X192162352Y-65149500D01*
X191957648Y-65149500D01*
X191933329Y-65153351D01*
X191755465Y-65181522D01*
X191560776Y-65244781D01*
X191378386Y-65337715D01*
X191212786Y-65458028D01*
X191068028Y-65602786D01*
X190947715Y-65768386D01*
X190900485Y-65861080D01*
X190852510Y-65911876D01*
X190784689Y-65928671D01*
X190718554Y-65906134D01*
X190679515Y-65861080D01*
X190669099Y-65840638D01*
X190632287Y-65768390D01*
X190619289Y-65750500D01*
X190511971Y-65602786D01*
X190367213Y-65458028D01*
X190201613Y-65337715D01*
X190201612Y-65337714D01*
X190201610Y-65337713D01*
X190144653Y-65308691D01*
X190019223Y-65244781D01*
X189824534Y-65181522D01*
X189649995Y-65153878D01*
X189622352Y-65149500D01*
X189417648Y-65149500D01*
X189393329Y-65153351D01*
X189215465Y-65181522D01*
X189020776Y-65244781D01*
X188838386Y-65337715D01*
X188672786Y-65458028D01*
X188528028Y-65602786D01*
X188407715Y-65768386D01*
X188360485Y-65861080D01*
X188312510Y-65911876D01*
X188244689Y-65928671D01*
X188178554Y-65906134D01*
X188139515Y-65861080D01*
X188129099Y-65840638D01*
X188092287Y-65768390D01*
X188079289Y-65750500D01*
X187971971Y-65602786D01*
X187827213Y-65458028D01*
X187661613Y-65337715D01*
X187661612Y-65337714D01*
X187661610Y-65337713D01*
X187604653Y-65308691D01*
X187479223Y-65244781D01*
X187284534Y-65181522D01*
X187109995Y-65153878D01*
X187082352Y-65149500D01*
X186877648Y-65149500D01*
X186853329Y-65153351D01*
X186675465Y-65181522D01*
X186480776Y-65244781D01*
X186298386Y-65337715D01*
X186132786Y-65458028D01*
X185988028Y-65602786D01*
X185867713Y-65768388D01*
X185837187Y-65828298D01*
X185789212Y-65879094D01*
X185771085Y-65886653D01*
X185771359Y-65887313D01*
X185763839Y-65890427D01*
X185761573Y-65891736D01*
X185759421Y-65892257D01*
X185756343Y-65893533D01*
X185756143Y-65893052D01*
X185693671Y-65908202D01*
X185627647Y-65885343D01*
X185589099Y-65840638D01*
X185552287Y-65768390D01*
X185552285Y-65768387D01*
X185552284Y-65768385D01*
X185431971Y-65602786D01*
X185415257Y-65586072D01*
X185381772Y-65524749D01*
X185386756Y-65455057D01*
X185415257Y-65410710D01*
X185741018Y-65084949D01*
X186249495Y-64576471D01*
X186310816Y-64542988D01*
X186356571Y-64541681D01*
X186412248Y-64550500D01*
X186412249Y-64550500D01*
X186616951Y-64550500D01*
X186616952Y-64550500D01*
X186819134Y-64518477D01*
X187013819Y-64455220D01*
X187196210Y-64362287D01*
X187289190Y-64294732D01*
X187361813Y-64241971D01*
X187361815Y-64241968D01*
X187361819Y-64241966D01*
X187506566Y-64097219D01*
X187509250Y-64093524D01*
X187539700Y-64051615D01*
X187595029Y-64008949D01*
X187640018Y-64000500D01*
X187874582Y-64000500D01*
X187941621Y-64020185D01*
X187974900Y-64051615D01*
X188008028Y-64097212D01*
X188008032Y-64097217D01*
X188152786Y-64241971D01*
X188307749Y-64354556D01*
X188318390Y-64362287D01*
X188425864Y-64417048D01*
X188500776Y-64455218D01*
X188500778Y-64455218D01*
X188500781Y-64455220D01*
X188605137Y-64489127D01*
X188695465Y-64518477D01*
X188779564Y-64531797D01*
X188897648Y-64550500D01*
X188897649Y-64550500D01*
X189102351Y-64550500D01*
X189102352Y-64550500D01*
X189304534Y-64518477D01*
X189499219Y-64455220D01*
X189681610Y-64362287D01*
X189774590Y-64294732D01*
X189847213Y-64241971D01*
X189847215Y-64241968D01*
X189847219Y-64241966D01*
X189991966Y-64097219D01*
X189991968Y-64097215D01*
X189991971Y-64097213D01*
X190062236Y-64000500D01*
X190112287Y-63931610D01*
X190205220Y-63749219D01*
X190268477Y-63554534D01*
X190300500Y-63352352D01*
X190300500Y-63147682D01*
X192700000Y-63147682D01*
X192700000Y-63352317D01*
X192732009Y-63554417D01*
X192795244Y-63749031D01*
X192888141Y-63931350D01*
X192888147Y-63931359D01*
X192920523Y-63975921D01*
X192920524Y-63975922D01*
X193600000Y-63296446D01*
X193600000Y-63302661D01*
X193627259Y-63404394D01*
X193679920Y-63495606D01*
X193754394Y-63570080D01*
X193845606Y-63622741D01*
X193947339Y-63650000D01*
X193953553Y-63650000D01*
X193274076Y-64329474D01*
X193318650Y-64361859D01*
X193500968Y-64454755D01*
X193695582Y-64517990D01*
X193897683Y-64550000D01*
X194102317Y-64550000D01*
X194304417Y-64517990D01*
X194499031Y-64454755D01*
X194681349Y-64361859D01*
X194725921Y-64329474D01*
X194046447Y-63650000D01*
X194052661Y-63650000D01*
X194154394Y-63622741D01*
X194245606Y-63570080D01*
X194320080Y-63495606D01*
X194372741Y-63404394D01*
X194400000Y-63302661D01*
X194400000Y-63296447D01*
X195079474Y-63975921D01*
X195111859Y-63931349D01*
X195204755Y-63749031D01*
X195267990Y-63554417D01*
X195300000Y-63352317D01*
X195300000Y-63147682D01*
X195275281Y-62991613D01*
X195267989Y-62945581D01*
X195204755Y-62750968D01*
X195111859Y-62568650D01*
X195079474Y-62524077D01*
X195079474Y-62524076D01*
X194400000Y-63203551D01*
X194400000Y-63197339D01*
X194372741Y-63095606D01*
X194320080Y-63004394D01*
X194245606Y-62929920D01*
X194154394Y-62877259D01*
X194052661Y-62850000D01*
X194046446Y-62850000D01*
X194725922Y-62170524D01*
X194725921Y-62170523D01*
X194681359Y-62138147D01*
X194681350Y-62138141D01*
X194499031Y-62045244D01*
X194304417Y-61982009D01*
X194135710Y-61955289D01*
X194102317Y-61950000D01*
X193897683Y-61950000D01*
X193695582Y-61982009D01*
X193500968Y-62045244D01*
X193318644Y-62138143D01*
X193274077Y-62170523D01*
X193274077Y-62170524D01*
X193953554Y-62850000D01*
X193947339Y-62850000D01*
X193845606Y-62877259D01*
X193754394Y-62929920D01*
X193679920Y-63004394D01*
X193627259Y-63095606D01*
X193600000Y-63197339D01*
X193600000Y-63203553D01*
X192920524Y-62524077D01*
X192920523Y-62524077D01*
X192888143Y-62568644D01*
X192795244Y-62750968D01*
X192732009Y-62945582D01*
X192700000Y-63147682D01*
X190300500Y-63147682D01*
X190300500Y-63147648D01*
X190280199Y-63019474D01*
X190268477Y-62945465D01*
X190221912Y-62802155D01*
X190205220Y-62750781D01*
X190205218Y-62750778D01*
X190205218Y-62750776D01*
X190161982Y-62665922D01*
X190112287Y-62568390D01*
X190080092Y-62524077D01*
X189991971Y-62402786D01*
X189847213Y-62258028D01*
X189681613Y-62137715D01*
X189681612Y-62137714D01*
X189681610Y-62137713D01*
X189499219Y-62044780D01*
X189380761Y-62006290D01*
X189323086Y-61966853D01*
X189295888Y-61902495D01*
X189307105Y-61837682D01*
X198950000Y-61837682D01*
X198950000Y-62042317D01*
X198982009Y-62244417D01*
X199045244Y-62439031D01*
X199138141Y-62621350D01*
X199138147Y-62621359D01*
X199170523Y-62665921D01*
X199170524Y-62665922D01*
X199850000Y-61986446D01*
X199850000Y-61992661D01*
X199877259Y-62094394D01*
X199929920Y-62185606D01*
X200004394Y-62260080D01*
X200095606Y-62312741D01*
X200197339Y-62340000D01*
X200203553Y-62340000D01*
X199524076Y-63019474D01*
X199568650Y-63051859D01*
X199750968Y-63144755D01*
X199945582Y-63207990D01*
X200147683Y-63240000D01*
X200352317Y-63240000D01*
X200554417Y-63207990D01*
X200749031Y-63144755D01*
X200931349Y-63051859D01*
X200975921Y-63019474D01*
X200296447Y-62340000D01*
X200302661Y-62340000D01*
X200404394Y-62312741D01*
X200495606Y-62260080D01*
X200570080Y-62185606D01*
X200622741Y-62094394D01*
X200650000Y-61992661D01*
X200650000Y-61986447D01*
X201329474Y-62665921D01*
X201361859Y-62621349D01*
X201454755Y-62439031D01*
X201517990Y-62244417D01*
X201550000Y-62042317D01*
X201550000Y-61837682D01*
X201517990Y-61635582D01*
X201454755Y-61440968D01*
X201361859Y-61258650D01*
X201329474Y-61214077D01*
X201329474Y-61214076D01*
X200650000Y-61893551D01*
X200650000Y-61887339D01*
X200622741Y-61785606D01*
X200570080Y-61694394D01*
X200495606Y-61619920D01*
X200404394Y-61567259D01*
X200302661Y-61540000D01*
X200296446Y-61540000D01*
X200975922Y-60860524D01*
X200975921Y-60860523D01*
X200931359Y-60828147D01*
X200931350Y-60828141D01*
X200749031Y-60735244D01*
X200554417Y-60672009D01*
X200352317Y-60640000D01*
X200147683Y-60640000D01*
X199945582Y-60672009D01*
X199750968Y-60735244D01*
X199568644Y-60828143D01*
X199524077Y-60860523D01*
X199524077Y-60860524D01*
X200203554Y-61540000D01*
X200197339Y-61540000D01*
X200095606Y-61567259D01*
X200004394Y-61619920D01*
X199929920Y-61694394D01*
X199877259Y-61785606D01*
X199850000Y-61887339D01*
X199850000Y-61893553D01*
X199170524Y-61214077D01*
X199170523Y-61214077D01*
X199138143Y-61258644D01*
X199045244Y-61440968D01*
X198982009Y-61635582D01*
X198950000Y-61837682D01*
X189307105Y-61837682D01*
X189307803Y-61833648D01*
X189331400Y-61800678D01*
X189371786Y-61760292D01*
X189371789Y-61760289D01*
X189459394Y-61629179D01*
X189459395Y-61629176D01*
X189459397Y-61629173D01*
X189470530Y-61602295D01*
X189514370Y-61547891D01*
X189580664Y-61525826D01*
X189632543Y-61535186D01*
X189695036Y-61561071D01*
X189695041Y-61561073D01*
X189822599Y-61586446D01*
X189849691Y-61591835D01*
X189849694Y-61591836D01*
X189849696Y-61591836D01*
X190007382Y-61591836D01*
X190007383Y-61591835D01*
X190162035Y-61561073D01*
X190307717Y-61500730D01*
X190438827Y-61413125D01*
X190550327Y-61301625D01*
X190637932Y-61170515D01*
X190698275Y-61024833D01*
X190729038Y-60870178D01*
X190729038Y-60712494D01*
X190729038Y-60712491D01*
X190729037Y-60712489D01*
X190698276Y-60557846D01*
X190698275Y-60557839D01*
X190698273Y-60557834D01*
X190637935Y-60412163D01*
X190637928Y-60412150D01*
X190550327Y-60281047D01*
X190550324Y-60281043D01*
X190438830Y-60169549D01*
X190438826Y-60169546D01*
X190307723Y-60081945D01*
X190307710Y-60081938D01*
X190162039Y-60021600D01*
X190162027Y-60021597D01*
X190007383Y-59990836D01*
X190007380Y-59990836D01*
X189849696Y-59990836D01*
X189849693Y-59990836D01*
X189695048Y-60021597D01*
X189695040Y-60021599D01*
X189650470Y-60040061D01*
X189603017Y-60049500D01*
X181432304Y-60049500D01*
X181432288Y-60049499D01*
X181424692Y-60049499D01*
X181266578Y-60049499D01*
X181159222Y-60078265D01*
X181113845Y-60090424D01*
X181113844Y-60090425D01*
X181063731Y-60119359D01*
X181063730Y-60119360D01*
X181020324Y-60144420D01*
X180976920Y-60169479D01*
X180976917Y-60169481D01*
X180865113Y-60281286D01*
X179825665Y-61320732D01*
X179764342Y-61354217D01*
X179694650Y-61349233D01*
X179638717Y-61307361D01*
X179627498Y-61289344D01*
X179611859Y-61258650D01*
X179579474Y-61214077D01*
X179579474Y-61214076D01*
X178900000Y-61893553D01*
X178900000Y-61887339D01*
X178872741Y-61785606D01*
X178820080Y-61694394D01*
X178745606Y-61619920D01*
X178654394Y-61567259D01*
X178552661Y-61540000D01*
X178546446Y-61540000D01*
X179225922Y-60860524D01*
X179225921Y-60860523D01*
X179181359Y-60828147D01*
X179181350Y-60828141D01*
X178999031Y-60735244D01*
X178804417Y-60672009D01*
X178602317Y-60640000D01*
X178397683Y-60640000D01*
X178195582Y-60672009D01*
X178000968Y-60735244D01*
X177818644Y-60828143D01*
X177774077Y-60860523D01*
X177774077Y-60860524D01*
X178453554Y-61540000D01*
X178447339Y-61540000D01*
X178345606Y-61567259D01*
X178254394Y-61619920D01*
X178179920Y-61694394D01*
X178127259Y-61785606D01*
X178100000Y-61887339D01*
X178100000Y-61893553D01*
X177420524Y-61214077D01*
X177420523Y-61214077D01*
X177388143Y-61258644D01*
X177295244Y-61440968D01*
X177232009Y-61635582D01*
X177200000Y-61837682D01*
X177200000Y-62042317D01*
X177232009Y-62244417D01*
X177295244Y-62439031D01*
X177388141Y-62621350D01*
X177388147Y-62621359D01*
X177420523Y-62665921D01*
X177420524Y-62665922D01*
X178100000Y-61986446D01*
X178100000Y-61992661D01*
X178127259Y-62094394D01*
X178179920Y-62185606D01*
X178254394Y-62260080D01*
X178345606Y-62312741D01*
X178447339Y-62340000D01*
X178453553Y-62340000D01*
X177774076Y-63019474D01*
X177818650Y-63051859D01*
X177849344Y-63067498D01*
X177900141Y-63115472D01*
X177916937Y-63183292D01*
X177894401Y-63249428D01*
X177880732Y-63265665D01*
X176761681Y-64384717D01*
X176700358Y-64418202D01*
X176630666Y-64413218D01*
X176574733Y-64371346D01*
X176550316Y-64305882D01*
X176550000Y-64297036D01*
X176550000Y-63950000D01*
X175633012Y-63950000D01*
X175665925Y-63892993D01*
X175700000Y-63765826D01*
X175700000Y-63634174D01*
X175665925Y-63507007D01*
X175633012Y-63450000D01*
X176550000Y-63450000D01*
X176550000Y-62802172D01*
X176549999Y-62802155D01*
X176543598Y-62742627D01*
X176543596Y-62742620D01*
X176493354Y-62607913D01*
X176493350Y-62607906D01*
X176407190Y-62492812D01*
X176407187Y-62492809D01*
X176292093Y-62406649D01*
X176292086Y-62406645D01*
X176157379Y-62356403D01*
X176157372Y-62356401D01*
X176097844Y-62350000D01*
X175450000Y-62350000D01*
X175450000Y-63266988D01*
X175392993Y-63234075D01*
X175265826Y-63200000D01*
X175134174Y-63200000D01*
X175007007Y-63234075D01*
X174950000Y-63266988D01*
X174950000Y-62350000D01*
X174302155Y-62350000D01*
X174237756Y-62356925D01*
X174168996Y-62344520D01*
X174117859Y-62296910D01*
X174100500Y-62233636D01*
X174100500Y-57824500D01*
X174120185Y-57757461D01*
X174172989Y-57711706D01*
X174224500Y-57700500D01*
X182790000Y-57700500D01*
X182857039Y-57720185D01*
G37*
%TD.AperFunction*%
%TA.AperFunction,Conductor*%
G36*
X185600724Y-121870185D02*
G01*
X185646479Y-121922989D01*
X185656423Y-121992147D01*
X185627398Y-122055703D01*
X185606570Y-122074819D01*
X185568807Y-122102254D01*
X186328906Y-122862352D01*
X186241429Y-122885792D01*
X186140070Y-122944311D01*
X186057311Y-123027070D01*
X185998792Y-123128429D01*
X185975352Y-123215905D01*
X185215177Y-122455730D01*
X185197821Y-122455730D01*
X184541341Y-123112209D01*
X184532553Y-123079409D01*
X184457313Y-122949091D01*
X184350909Y-122842687D01*
X184220591Y-122767447D01*
X184187788Y-122758657D01*
X184844192Y-122102254D01*
X184844191Y-122102252D01*
X184806431Y-122074818D01*
X184763765Y-122019488D01*
X184757786Y-121949875D01*
X184790392Y-121888080D01*
X184851230Y-121853723D01*
X184879316Y-121850500D01*
X185533685Y-121850500D01*
X185600724Y-121870185D01*
G37*
%TD.AperFunction*%
%TA.AperFunction,Conductor*%
G36*
X191727924Y-121870185D02*
G01*
X191773679Y-121922989D01*
X191783623Y-121992147D01*
X191754598Y-122055703D01*
X191733770Y-122074819D01*
X191696007Y-122102254D01*
X192352411Y-122758657D01*
X192319609Y-122767447D01*
X192189291Y-122842687D01*
X192082887Y-122949091D01*
X192007647Y-123079409D01*
X191998857Y-123112210D01*
X191342377Y-122455730D01*
X191325021Y-122455730D01*
X190564847Y-123215904D01*
X190541408Y-123128429D01*
X190482889Y-123027070D01*
X190400130Y-122944311D01*
X190298771Y-122885792D01*
X190211293Y-122862352D01*
X190971392Y-122102254D01*
X190971391Y-122102252D01*
X190933631Y-122074818D01*
X190890965Y-122019488D01*
X190884986Y-121949875D01*
X190917592Y-121888080D01*
X190978430Y-121853723D01*
X191006516Y-121850500D01*
X191660885Y-121850500D01*
X191727924Y-121870185D01*
G37*
%TD.AperFunction*%
%TA.AperFunction,Conductor*%
G36*
X202018834Y-105633576D02*
G01*
X202074767Y-105675448D01*
X202099184Y-105740912D01*
X202099500Y-105749758D01*
X202099500Y-106390768D01*
X202079815Y-106457807D01*
X202049326Y-106484225D01*
X201382962Y-107150590D01*
X201365925Y-107087007D01*
X201300099Y-106972993D01*
X201207007Y-106879901D01*
X201092993Y-106814075D01*
X201029409Y-106797037D01*
X201661716Y-106164728D01*
X201607547Y-106125373D01*
X201607547Y-106125372D01*
X201598500Y-106120763D01*
X201547706Y-106072788D01*
X201530912Y-106004966D01*
X201553451Y-105938832D01*
X201598508Y-105899793D01*
X201607816Y-105895051D01*
X201691740Y-105834077D01*
X201779786Y-105770109D01*
X201779788Y-105770106D01*
X201779792Y-105770104D01*
X201887819Y-105662077D01*
X201949142Y-105628592D01*
X202018834Y-105633576D01*
G37*
%TD.AperFunction*%
%TA.AperFunction,Conductor*%
G36*
X199494037Y-91810185D02*
G01*
X199539792Y-91862989D01*
X199549256Y-91928812D01*
X199549882Y-91928862D01*
X199549663Y-91931640D01*
X199549736Y-91932147D01*
X199549500Y-91933706D01*
X199549500Y-92146286D01*
X199582753Y-92356239D01*
X199648444Y-92558414D01*
X199744951Y-92747820D01*
X199869890Y-92919786D01*
X200020213Y-93070109D01*
X200192182Y-93195050D01*
X200200946Y-93199516D01*
X200251742Y-93247491D01*
X200268536Y-93315312D01*
X200245998Y-93381447D01*
X200200946Y-93420484D01*
X200192182Y-93424949D01*
X200020213Y-93549890D01*
X199869890Y-93700213D01*
X199744951Y-93872179D01*
X199648444Y-94061585D01*
X199582753Y-94263760D01*
X199549500Y-94473713D01*
X199549500Y-94575500D01*
X199529815Y-94642539D01*
X199477011Y-94688294D01*
X199425500Y-94699500D01*
X195309000Y-94699500D01*
X195241961Y-94679815D01*
X195196206Y-94627011D01*
X195185000Y-94575500D01*
X195185000Y-93650000D01*
X194435000Y-93650000D01*
X194435000Y-93150000D01*
X195185000Y-93150000D01*
X195185000Y-91914500D01*
X195204685Y-91847461D01*
X195257489Y-91801706D01*
X195309000Y-91790500D01*
X199426998Y-91790500D01*
X199494037Y-91810185D01*
G37*
%TD.AperFunction*%
%TA.AperFunction,Conductor*%
G36*
X181034600Y-63302661D02*
G01*
X181061859Y-63404394D01*
X181114520Y-63495606D01*
X181188994Y-63570080D01*
X181280206Y-63622741D01*
X181381939Y-63650000D01*
X181388153Y-63650000D01*
X180818373Y-64219779D01*
X180757050Y-64253264D01*
X180754885Y-64253715D01*
X180747244Y-64255235D01*
X180747243Y-64255235D01*
X180631093Y-64278339D01*
X180631083Y-64278342D01*
X180551081Y-64311479D01*
X180551082Y-64311480D01*
X180494505Y-64334915D01*
X180439983Y-64371346D01*
X180419972Y-64384717D01*
X180412372Y-64389795D01*
X180371585Y-64417047D01*
X180371581Y-64417050D01*
X176597719Y-68190911D01*
X176536396Y-68224396D01*
X176466704Y-68219412D01*
X176410771Y-68177540D01*
X176399553Y-68159525D01*
X176355048Y-68072179D01*
X176228344Y-67897784D01*
X176204864Y-67831977D01*
X176220690Y-67763924D01*
X176240977Y-67737222D01*
X180108937Y-63869262D01*
X180170256Y-63835780D01*
X180239948Y-63840764D01*
X180295881Y-63882636D01*
X180307098Y-63900651D01*
X180322735Y-63931340D01*
X180322747Y-63931359D01*
X180355123Y-63975921D01*
X180355124Y-63975922D01*
X181034600Y-63296446D01*
X181034600Y-63302661D01*
G37*
%TD.AperFunction*%
%TA.AperFunction,Conductor*%
G36*
X185947218Y-61870185D02*
G01*
X185992973Y-61922989D01*
X186002917Y-61992147D01*
X185973892Y-62055703D01*
X185936474Y-62084985D01*
X185832986Y-62137715D01*
X185667386Y-62258028D01*
X185522628Y-62402786D01*
X185402315Y-62568386D01*
X185309381Y-62750776D01*
X185246122Y-62945465D01*
X185214100Y-63147648D01*
X185214100Y-63352351D01*
X185222918Y-63408025D01*
X185213964Y-63477318D01*
X185188126Y-63515104D01*
X184490051Y-64213181D01*
X184428728Y-64246666D01*
X184402370Y-64249500D01*
X182558673Y-64249500D01*
X182491634Y-64229815D01*
X182445879Y-64177011D01*
X182435935Y-64107853D01*
X182458355Y-64052614D01*
X182546459Y-63931349D01*
X182639355Y-63749031D01*
X182702590Y-63554417D01*
X182734600Y-63352317D01*
X182734600Y-63147682D01*
X182702590Y-62945582D01*
X182639355Y-62750968D01*
X182546459Y-62568650D01*
X182514074Y-62524077D01*
X182514074Y-62524076D01*
X181834600Y-63203553D01*
X181834600Y-63197339D01*
X181807341Y-63095606D01*
X181754680Y-63004394D01*
X181680206Y-62929920D01*
X181588994Y-62877259D01*
X181487261Y-62850000D01*
X181481046Y-62850000D01*
X182160522Y-62170524D01*
X182160521Y-62170523D01*
X182115959Y-62138147D01*
X182115940Y-62138135D01*
X182085251Y-62122498D01*
X182034455Y-62074524D01*
X182017660Y-62006703D01*
X182040198Y-61940568D01*
X182053851Y-61924348D01*
X182091385Y-61886814D01*
X182152707Y-61853333D01*
X182179062Y-61850500D01*
X185880179Y-61850500D01*
X185947218Y-61870185D01*
G37*
%TD.AperFunction*%
%TD*%
M02*
