%TF.GenerationSoftware,KiCad,Pcbnew,9.0.6*%
%TF.CreationDate,2026-05-11T10:25:40-03:00*%
%TF.ProjectId,MainPCB_V2.2,4d61696e-5043-4425-9f56-322e322e6b69,rev?*%
%TF.SameCoordinates,Original*%
%TF.FileFunction,Legend,Bot*%
%TF.FilePolarity,Positive*%
%FSLAX46Y46*%
G04 Gerber Fmt 4.6, Leading zero omitted, Abs format (unit mm)*
G04 Created by KiCad (PCBNEW 9.0.6) date 2026-05-11 10:25:40*
%MOMM*%
%LPD*%
G01*
G04 APERTURE LIST*
G04 Aperture macros list*
%AMRoundRect*
0 Rectangle with rounded corners*
0 $1 Rounding radius*
0 $2 $3 $4 $5 $6 $7 $8 $9 X,Y pos of 4 corners*
0 Add a 4 corners polygon primitive as box body*
4,1,4,$2,$3,$4,$5,$6,$7,$8,$9,$2,$3,0*
0 Add four circle primitives for the rounded corners*
1,1,$1+$1,$2,$3*
1,1,$1+$1,$4,$5*
1,1,$1+$1,$6,$7*
1,1,$1+$1,$8,$9*
0 Add four rect primitives between the rounded corners*
20,1,$1+$1,$2,$3,$4,$5,0*
20,1,$1+$1,$4,$5,$6,$7,0*
20,1,$1+$1,$6,$7,$8,$9,0*
20,1,$1+$1,$8,$9,$2,$3,0*%
G04 Aperture macros list end*
%ADD10C,0.800000*%
%ADD11C,0.152000*%
%ADD12C,0.150000*%
%ADD13C,0.000000*%
%ADD14C,0.100000*%
%ADD15C,0.250000*%
%ADD16C,0.120000*%
%ADD17C,0.700000*%
%ADD18C,0.300000*%
%ADD19C,1.500000*%
%ADD20R,1.700000X1.700000*%
%ADD21C,1.700000*%
%ADD22O,1.800000X1.800000*%
%ADD23R,1.800000X1.800000*%
%ADD24C,1.650000*%
%ADD25RoundRect,0.412500X0.412500X-0.412500X0.412500X0.412500X-0.412500X0.412500X-0.412500X-0.412500X0*%
%ADD26O,1.727200X2.032000*%
%ADD27C,1.600000*%
%ADD28RoundRect,0.250000X0.350000X-0.350000X0.350000X0.350000X-0.350000X0.350000X-0.350000X-0.350000X0*%
%ADD29C,1.200000*%
%ADD30RoundRect,0.250000X-0.550000X-0.550000X0.550000X-0.550000X0.550000X0.550000X-0.550000X0.550000X0*%
%ADD31RoundRect,0.249999X0.850001X0.850001X-0.850001X0.850001X-0.850001X-0.850001X0.850001X-0.850001X0*%
%ADD32C,2.200000*%
G04 APERTURE END LIST*
D10*
X134435000Y-104500000D02*
X127235000Y-104500000D01*
D11*
X147522738Y-142628571D02*
X147565596Y-142585714D01*
X147565596Y-142585714D02*
X147608453Y-142457142D01*
X147608453Y-142457142D02*
X147608453Y-142371428D01*
X147608453Y-142371428D02*
X147565596Y-142242857D01*
X147565596Y-142242857D02*
X147479881Y-142157142D01*
X147479881Y-142157142D02*
X147394167Y-142114285D01*
X147394167Y-142114285D02*
X147222738Y-142071428D01*
X147222738Y-142071428D02*
X147094167Y-142071428D01*
X147094167Y-142071428D02*
X146922738Y-142114285D01*
X146922738Y-142114285D02*
X146837024Y-142157142D01*
X146837024Y-142157142D02*
X146751310Y-142242857D01*
X146751310Y-142242857D02*
X146708453Y-142371428D01*
X146708453Y-142371428D02*
X146708453Y-142457142D01*
X146708453Y-142457142D02*
X146751310Y-142585714D01*
X146751310Y-142585714D02*
X146794167Y-142628571D01*
X147608453Y-143014285D02*
X146708453Y-143014285D01*
X147608453Y-143400000D02*
X147137024Y-143400000D01*
X147137024Y-143400000D02*
X147051310Y-143357142D01*
X147051310Y-143357142D02*
X147008453Y-143271428D01*
X147008453Y-143271428D02*
X147008453Y-143142857D01*
X147008453Y-143142857D02*
X147051310Y-143057142D01*
X147051310Y-143057142D02*
X147094167Y-143014285D01*
X147522738Y-143828571D02*
X147565596Y-143871428D01*
X147565596Y-143871428D02*
X147608453Y-143828571D01*
X147608453Y-143828571D02*
X147565596Y-143785714D01*
X147565596Y-143785714D02*
X147522738Y-143828571D01*
X147522738Y-143828571D02*
X147608453Y-143828571D01*
X147008453Y-144642857D02*
X147608453Y-144642857D01*
X146665596Y-144428571D02*
X147308453Y-144214285D01*
X147308453Y-144214285D02*
X147308453Y-144771428D01*
X140622738Y-142628571D02*
X140665596Y-142585714D01*
X140665596Y-142585714D02*
X140708453Y-142457142D01*
X140708453Y-142457142D02*
X140708453Y-142371428D01*
X140708453Y-142371428D02*
X140665596Y-142242857D01*
X140665596Y-142242857D02*
X140579881Y-142157142D01*
X140579881Y-142157142D02*
X140494167Y-142114285D01*
X140494167Y-142114285D02*
X140322738Y-142071428D01*
X140322738Y-142071428D02*
X140194167Y-142071428D01*
X140194167Y-142071428D02*
X140022738Y-142114285D01*
X140022738Y-142114285D02*
X139937024Y-142157142D01*
X139937024Y-142157142D02*
X139851310Y-142242857D01*
X139851310Y-142242857D02*
X139808453Y-142371428D01*
X139808453Y-142371428D02*
X139808453Y-142457142D01*
X139808453Y-142457142D02*
X139851310Y-142585714D01*
X139851310Y-142585714D02*
X139894167Y-142628571D01*
X140708453Y-143014285D02*
X139808453Y-143014285D01*
X140708453Y-143400000D02*
X140237024Y-143400000D01*
X140237024Y-143400000D02*
X140151310Y-143357142D01*
X140151310Y-143357142D02*
X140108453Y-143271428D01*
X140108453Y-143271428D02*
X140108453Y-143142857D01*
X140108453Y-143142857D02*
X140151310Y-143057142D01*
X140151310Y-143057142D02*
X140194167Y-143014285D01*
X140622738Y-143828571D02*
X140665596Y-143871428D01*
X140665596Y-143871428D02*
X140708453Y-143828571D01*
X140708453Y-143828571D02*
X140665596Y-143785714D01*
X140665596Y-143785714D02*
X140622738Y-143828571D01*
X140622738Y-143828571D02*
X140708453Y-143828571D01*
X139808453Y-144171428D02*
X139808453Y-144728571D01*
X139808453Y-144728571D02*
X140151310Y-144428571D01*
X140151310Y-144428571D02*
X140151310Y-144557142D01*
X140151310Y-144557142D02*
X140194167Y-144642857D01*
X140194167Y-144642857D02*
X140237024Y-144685714D01*
X140237024Y-144685714D02*
X140322738Y-144728571D01*
X140322738Y-144728571D02*
X140537024Y-144728571D01*
X140537024Y-144728571D02*
X140622738Y-144685714D01*
X140622738Y-144685714D02*
X140665596Y-144642857D01*
X140665596Y-144642857D02*
X140708453Y-144557142D01*
X140708453Y-144557142D02*
X140708453Y-144299999D01*
X140708453Y-144299999D02*
X140665596Y-144214285D01*
X140665596Y-144214285D02*
X140622738Y-144171428D01*
X133822738Y-142528571D02*
X133865596Y-142485714D01*
X133865596Y-142485714D02*
X133908453Y-142357142D01*
X133908453Y-142357142D02*
X133908453Y-142271428D01*
X133908453Y-142271428D02*
X133865596Y-142142857D01*
X133865596Y-142142857D02*
X133779881Y-142057142D01*
X133779881Y-142057142D02*
X133694167Y-142014285D01*
X133694167Y-142014285D02*
X133522738Y-141971428D01*
X133522738Y-141971428D02*
X133394167Y-141971428D01*
X133394167Y-141971428D02*
X133222738Y-142014285D01*
X133222738Y-142014285D02*
X133137024Y-142057142D01*
X133137024Y-142057142D02*
X133051310Y-142142857D01*
X133051310Y-142142857D02*
X133008453Y-142271428D01*
X133008453Y-142271428D02*
X133008453Y-142357142D01*
X133008453Y-142357142D02*
X133051310Y-142485714D01*
X133051310Y-142485714D02*
X133094167Y-142528571D01*
X133908453Y-142914285D02*
X133008453Y-142914285D01*
X133908453Y-143300000D02*
X133437024Y-143300000D01*
X133437024Y-143300000D02*
X133351310Y-143257142D01*
X133351310Y-143257142D02*
X133308453Y-143171428D01*
X133308453Y-143171428D02*
X133308453Y-143042857D01*
X133308453Y-143042857D02*
X133351310Y-142957142D01*
X133351310Y-142957142D02*
X133394167Y-142914285D01*
X133822738Y-143728571D02*
X133865596Y-143771428D01*
X133865596Y-143771428D02*
X133908453Y-143728571D01*
X133908453Y-143728571D02*
X133865596Y-143685714D01*
X133865596Y-143685714D02*
X133822738Y-143728571D01*
X133822738Y-143728571D02*
X133908453Y-143728571D01*
X133094167Y-144114285D02*
X133051310Y-144157142D01*
X133051310Y-144157142D02*
X133008453Y-144242857D01*
X133008453Y-144242857D02*
X133008453Y-144457142D01*
X133008453Y-144457142D02*
X133051310Y-144542857D01*
X133051310Y-144542857D02*
X133094167Y-144585714D01*
X133094167Y-144585714D02*
X133179881Y-144628571D01*
X133179881Y-144628571D02*
X133265596Y-144628571D01*
X133265596Y-144628571D02*
X133394167Y-144585714D01*
X133394167Y-144585714D02*
X133908453Y-144071428D01*
X133908453Y-144071428D02*
X133908453Y-144628571D01*
X127022738Y-142628571D02*
X127065596Y-142585714D01*
X127065596Y-142585714D02*
X127108453Y-142457142D01*
X127108453Y-142457142D02*
X127108453Y-142371428D01*
X127108453Y-142371428D02*
X127065596Y-142242857D01*
X127065596Y-142242857D02*
X126979881Y-142157142D01*
X126979881Y-142157142D02*
X126894167Y-142114285D01*
X126894167Y-142114285D02*
X126722738Y-142071428D01*
X126722738Y-142071428D02*
X126594167Y-142071428D01*
X126594167Y-142071428D02*
X126422738Y-142114285D01*
X126422738Y-142114285D02*
X126337024Y-142157142D01*
X126337024Y-142157142D02*
X126251310Y-142242857D01*
X126251310Y-142242857D02*
X126208453Y-142371428D01*
X126208453Y-142371428D02*
X126208453Y-142457142D01*
X126208453Y-142457142D02*
X126251310Y-142585714D01*
X126251310Y-142585714D02*
X126294167Y-142628571D01*
X127108453Y-143014285D02*
X126208453Y-143014285D01*
X127108453Y-143400000D02*
X126637024Y-143400000D01*
X126637024Y-143400000D02*
X126551310Y-143357142D01*
X126551310Y-143357142D02*
X126508453Y-143271428D01*
X126508453Y-143271428D02*
X126508453Y-143142857D01*
X126508453Y-143142857D02*
X126551310Y-143057142D01*
X126551310Y-143057142D02*
X126594167Y-143014285D01*
X127022738Y-143828571D02*
X127065596Y-143871428D01*
X127065596Y-143871428D02*
X127108453Y-143828571D01*
X127108453Y-143828571D02*
X127065596Y-143785714D01*
X127065596Y-143785714D02*
X127022738Y-143828571D01*
X127022738Y-143828571D02*
X127108453Y-143828571D01*
X127108453Y-144728571D02*
X127108453Y-144214285D01*
X127108453Y-144471428D02*
X126208453Y-144471428D01*
X126208453Y-144471428D02*
X126337024Y-144385714D01*
X126337024Y-144385714D02*
X126422738Y-144299999D01*
X126422738Y-144299999D02*
X126465596Y-144214285D01*
X128708453Y-108571429D02*
X128279881Y-108271429D01*
X128708453Y-108057143D02*
X127808453Y-108057143D01*
X127808453Y-108057143D02*
X127808453Y-108400000D01*
X127808453Y-108400000D02*
X127851310Y-108485715D01*
X127851310Y-108485715D02*
X127894167Y-108528572D01*
X127894167Y-108528572D02*
X127979881Y-108571429D01*
X127979881Y-108571429D02*
X128108453Y-108571429D01*
X128108453Y-108571429D02*
X128194167Y-108528572D01*
X128194167Y-108528572D02*
X128237024Y-108485715D01*
X128237024Y-108485715D02*
X128279881Y-108400000D01*
X128279881Y-108400000D02*
X128279881Y-108057143D01*
X128237024Y-108957143D02*
X128237024Y-109257143D01*
X128708453Y-109385715D02*
X128708453Y-108957143D01*
X128708453Y-108957143D02*
X127808453Y-108957143D01*
X127808453Y-108957143D02*
X127808453Y-109385715D01*
X127851310Y-110242858D02*
X127808453Y-110157144D01*
X127808453Y-110157144D02*
X127808453Y-110028572D01*
X127808453Y-110028572D02*
X127851310Y-109900001D01*
X127851310Y-109900001D02*
X127937024Y-109814286D01*
X127937024Y-109814286D02*
X128022738Y-109771429D01*
X128022738Y-109771429D02*
X128194167Y-109728572D01*
X128194167Y-109728572D02*
X128322738Y-109728572D01*
X128322738Y-109728572D02*
X128494167Y-109771429D01*
X128494167Y-109771429D02*
X128579881Y-109814286D01*
X128579881Y-109814286D02*
X128665596Y-109900001D01*
X128665596Y-109900001D02*
X128708453Y-110028572D01*
X128708453Y-110028572D02*
X128708453Y-110114286D01*
X128708453Y-110114286D02*
X128665596Y-110242858D01*
X128665596Y-110242858D02*
X128622738Y-110285715D01*
X128622738Y-110285715D02*
X128322738Y-110285715D01*
X128322738Y-110285715D02*
X128322738Y-110114286D01*
X127808453Y-110671429D02*
X128537024Y-110671429D01*
X128537024Y-110671429D02*
X128622738Y-110714286D01*
X128622738Y-110714286D02*
X128665596Y-110757144D01*
X128665596Y-110757144D02*
X128708453Y-110842858D01*
X128708453Y-110842858D02*
X128708453Y-111014286D01*
X128708453Y-111014286D02*
X128665596Y-111100001D01*
X128665596Y-111100001D02*
X128622738Y-111142858D01*
X128622738Y-111142858D02*
X128537024Y-111185715D01*
X128537024Y-111185715D02*
X127808453Y-111185715D01*
X128708453Y-112042858D02*
X128708453Y-111614286D01*
X128708453Y-111614286D02*
X127808453Y-111614286D01*
X131238453Y-107614285D02*
X130338453Y-107614285D01*
X130338453Y-107614285D02*
X130338453Y-107957142D01*
X130338453Y-107957142D02*
X130381310Y-108042857D01*
X130381310Y-108042857D02*
X130424167Y-108085714D01*
X130424167Y-108085714D02*
X130509881Y-108128571D01*
X130509881Y-108128571D02*
X130638453Y-108128571D01*
X130638453Y-108128571D02*
X130724167Y-108085714D01*
X130724167Y-108085714D02*
X130767024Y-108042857D01*
X130767024Y-108042857D02*
X130809881Y-107957142D01*
X130809881Y-107957142D02*
X130809881Y-107614285D01*
X130338453Y-108428571D02*
X131238453Y-108642857D01*
X131238453Y-108642857D02*
X130595596Y-108814285D01*
X130595596Y-108814285D02*
X131238453Y-108985714D01*
X131238453Y-108985714D02*
X130338453Y-109200000D01*
X131238453Y-110057142D02*
X130809881Y-109757142D01*
X131238453Y-109542856D02*
X130338453Y-109542856D01*
X130338453Y-109542856D02*
X130338453Y-109885713D01*
X130338453Y-109885713D02*
X130381310Y-109971428D01*
X130381310Y-109971428D02*
X130424167Y-110014285D01*
X130424167Y-110014285D02*
X130509881Y-110057142D01*
X130509881Y-110057142D02*
X130638453Y-110057142D01*
X130638453Y-110057142D02*
X130724167Y-110014285D01*
X130724167Y-110014285D02*
X130767024Y-109971428D01*
X130767024Y-109971428D02*
X130809881Y-109885713D01*
X130809881Y-109885713D02*
X130809881Y-109542856D01*
X131238453Y-111128570D02*
X130338453Y-111128570D01*
X131238453Y-111557141D02*
X130338453Y-111557141D01*
X130338453Y-111557141D02*
X131238453Y-112071427D01*
X131238453Y-112071427D02*
X130338453Y-112071427D01*
X133137024Y-108742857D02*
X133137024Y-109042857D01*
X133608453Y-109171429D02*
X133608453Y-108742857D01*
X133608453Y-108742857D02*
X132708453Y-108742857D01*
X132708453Y-108742857D02*
X132708453Y-109171429D01*
X132708453Y-109557143D02*
X133437024Y-109557143D01*
X133437024Y-109557143D02*
X133522738Y-109600000D01*
X133522738Y-109600000D02*
X133565596Y-109642858D01*
X133565596Y-109642858D02*
X133608453Y-109728572D01*
X133608453Y-109728572D02*
X133608453Y-109900000D01*
X133608453Y-109900000D02*
X133565596Y-109985715D01*
X133565596Y-109985715D02*
X133522738Y-110028572D01*
X133522738Y-110028572D02*
X133437024Y-110071429D01*
X133437024Y-110071429D02*
X132708453Y-110071429D01*
X133608453Y-111014286D02*
X133179881Y-110714286D01*
X133608453Y-110500000D02*
X132708453Y-110500000D01*
X132708453Y-110500000D02*
X132708453Y-110842857D01*
X132708453Y-110842857D02*
X132751310Y-110928572D01*
X132751310Y-110928572D02*
X132794167Y-110971429D01*
X132794167Y-110971429D02*
X132879881Y-111014286D01*
X132879881Y-111014286D02*
X133008453Y-111014286D01*
X133008453Y-111014286D02*
X133094167Y-110971429D01*
X133094167Y-110971429D02*
X133137024Y-110928572D01*
X133137024Y-110928572D02*
X133179881Y-110842857D01*
X133179881Y-110842857D02*
X133179881Y-110500000D01*
X132708453Y-111571429D02*
X132708453Y-111742857D01*
X132708453Y-111742857D02*
X132751310Y-111828572D01*
X132751310Y-111828572D02*
X132837024Y-111914286D01*
X132837024Y-111914286D02*
X133008453Y-111957143D01*
X133008453Y-111957143D02*
X133308453Y-111957143D01*
X133308453Y-111957143D02*
X133479881Y-111914286D01*
X133479881Y-111914286D02*
X133565596Y-111828572D01*
X133565596Y-111828572D02*
X133608453Y-111742857D01*
X133608453Y-111742857D02*
X133608453Y-111571429D01*
X133608453Y-111571429D02*
X133565596Y-111485715D01*
X133565596Y-111485715D02*
X133479881Y-111400000D01*
X133479881Y-111400000D02*
X133308453Y-111357143D01*
X133308453Y-111357143D02*
X133008453Y-111357143D01*
X133008453Y-111357143D02*
X132837024Y-111400000D01*
X132837024Y-111400000D02*
X132751310Y-111485715D01*
X132751310Y-111485715D02*
X132708453Y-111571429D01*
X135908453Y-111100000D02*
X135908453Y-110928571D01*
X135908453Y-110928571D02*
X135951310Y-110842857D01*
X135951310Y-110842857D02*
X135994167Y-110800000D01*
X135994167Y-110800000D02*
X136122738Y-110714285D01*
X136122738Y-110714285D02*
X136294167Y-110671428D01*
X136294167Y-110671428D02*
X136637024Y-110671428D01*
X136637024Y-110671428D02*
X136722738Y-110714285D01*
X136722738Y-110714285D02*
X136765596Y-110757142D01*
X136765596Y-110757142D02*
X136808453Y-110842857D01*
X136808453Y-110842857D02*
X136808453Y-111014285D01*
X136808453Y-111014285D02*
X136765596Y-111100000D01*
X136765596Y-111100000D02*
X136722738Y-111142857D01*
X136722738Y-111142857D02*
X136637024Y-111185714D01*
X136637024Y-111185714D02*
X136422738Y-111185714D01*
X136422738Y-111185714D02*
X136337024Y-111142857D01*
X136337024Y-111142857D02*
X136294167Y-111100000D01*
X136294167Y-111100000D02*
X136251310Y-111014285D01*
X136251310Y-111014285D02*
X136251310Y-110842857D01*
X136251310Y-110842857D02*
X136294167Y-110757142D01*
X136294167Y-110757142D02*
X136337024Y-110714285D01*
X136337024Y-110714285D02*
X136422738Y-110671428D01*
X135908453Y-111442857D02*
X136808453Y-111742857D01*
X136808453Y-111742857D02*
X135908453Y-112042857D01*
X140908453Y-111142857D02*
X140908453Y-110714285D01*
X140908453Y-110714285D02*
X141337024Y-110671428D01*
X141337024Y-110671428D02*
X141294167Y-110714285D01*
X141294167Y-110714285D02*
X141251310Y-110800000D01*
X141251310Y-110800000D02*
X141251310Y-111014285D01*
X141251310Y-111014285D02*
X141294167Y-111100000D01*
X141294167Y-111100000D02*
X141337024Y-111142857D01*
X141337024Y-111142857D02*
X141422738Y-111185714D01*
X141422738Y-111185714D02*
X141637024Y-111185714D01*
X141637024Y-111185714D02*
X141722738Y-111142857D01*
X141722738Y-111142857D02*
X141765596Y-111100000D01*
X141765596Y-111100000D02*
X141808453Y-111014285D01*
X141808453Y-111014285D02*
X141808453Y-110800000D01*
X141808453Y-110800000D02*
X141765596Y-110714285D01*
X141765596Y-110714285D02*
X141722738Y-110671428D01*
X140908453Y-111442857D02*
X141808453Y-111742857D01*
X141808453Y-111742857D02*
X140908453Y-112042857D01*
D12*
X138854819Y-105941477D02*
X137854819Y-105941477D01*
X137854819Y-105941477D02*
X137854819Y-106179572D01*
X137854819Y-106179572D02*
X137902438Y-106322429D01*
X137902438Y-106322429D02*
X137997676Y-106417667D01*
X137997676Y-106417667D02*
X138092914Y-106465286D01*
X138092914Y-106465286D02*
X138283390Y-106512905D01*
X138283390Y-106512905D02*
X138426247Y-106512905D01*
X138426247Y-106512905D02*
X138616723Y-106465286D01*
X138616723Y-106465286D02*
X138711961Y-106417667D01*
X138711961Y-106417667D02*
X138807200Y-106322429D01*
X138807200Y-106322429D02*
X138854819Y-106179572D01*
X138854819Y-106179572D02*
X138854819Y-105941477D01*
X138569104Y-106893858D02*
X138569104Y-107370048D01*
X138854819Y-106798620D02*
X137854819Y-107131953D01*
X137854819Y-107131953D02*
X138854819Y-107465286D01*
X138759580Y-108370048D02*
X138807200Y-108322429D01*
X138807200Y-108322429D02*
X138854819Y-108179572D01*
X138854819Y-108179572D02*
X138854819Y-108084334D01*
X138854819Y-108084334D02*
X138807200Y-107941477D01*
X138807200Y-107941477D02*
X138711961Y-107846239D01*
X138711961Y-107846239D02*
X138616723Y-107798620D01*
X138616723Y-107798620D02*
X138426247Y-107751001D01*
X138426247Y-107751001D02*
X138283390Y-107751001D01*
X138283390Y-107751001D02*
X138092914Y-107798620D01*
X138092914Y-107798620D02*
X137997676Y-107846239D01*
X137997676Y-107846239D02*
X137902438Y-107941477D01*
X137902438Y-107941477D02*
X137854819Y-108084334D01*
X137854819Y-108084334D02*
X137854819Y-108179572D01*
X137854819Y-108179572D02*
X137902438Y-108322429D01*
X137902438Y-108322429D02*
X137950057Y-108370048D01*
X137854819Y-109417668D02*
X138854819Y-109751001D01*
X138854819Y-109751001D02*
X137854819Y-110084334D01*
X138854819Y-110417668D02*
X137854819Y-110417668D01*
X137854819Y-110417668D02*
X137854819Y-110655763D01*
X137854819Y-110655763D02*
X137902438Y-110798620D01*
X137902438Y-110798620D02*
X137997676Y-110893858D01*
X137997676Y-110893858D02*
X138092914Y-110941477D01*
X138092914Y-110941477D02*
X138283390Y-110989096D01*
X138283390Y-110989096D02*
X138426247Y-110989096D01*
X138426247Y-110989096D02*
X138616723Y-110941477D01*
X138616723Y-110941477D02*
X138711961Y-110893858D01*
X138711961Y-110893858D02*
X138807200Y-110798620D01*
X138807200Y-110798620D02*
X138854819Y-110655763D01*
X138854819Y-110655763D02*
X138854819Y-110417668D01*
X138854819Y-111417668D02*
X137854819Y-111417668D01*
X137854819Y-111417668D02*
X137854819Y-111655763D01*
X137854819Y-111655763D02*
X137902438Y-111798620D01*
X137902438Y-111798620D02*
X137997676Y-111893858D01*
X137997676Y-111893858D02*
X138092914Y-111941477D01*
X138092914Y-111941477D02*
X138283390Y-111989096D01*
X138283390Y-111989096D02*
X138426247Y-111989096D01*
X138426247Y-111989096D02*
X138616723Y-111941477D01*
X138616723Y-111941477D02*
X138711961Y-111893858D01*
X138711961Y-111893858D02*
X138807200Y-111798620D01*
X138807200Y-111798620D02*
X138854819Y-111655763D01*
X138854819Y-111655763D02*
X138854819Y-111417668D01*
D13*
G36*
X142673827Y-85340297D02*
G01*
X142801539Y-85679303D01*
X142997410Y-86224009D01*
X143414660Y-87414630D01*
X142701608Y-87220161D01*
X142696256Y-87433205D01*
X142689505Y-87841872D01*
X142684602Y-88251478D01*
X142684797Y-88467338D01*
X142664567Y-88479578D01*
X141858911Y-86581192D01*
X142294668Y-86703268D01*
X142564712Y-86777060D01*
X142701608Y-86812703D01*
X142657150Y-85340076D01*
X142673827Y-85340297D01*
G37*
G36*
X141932994Y-85092906D02*
G01*
X142320052Y-85847883D01*
X142308905Y-85848023D01*
X142292417Y-85847900D01*
X142249962Y-85847252D01*
X142205767Y-85846703D01*
X142187105Y-85846704D01*
X142172913Y-85847016D01*
X141974327Y-85475908D01*
X141840083Y-85222924D01*
X141773977Y-85094018D01*
X141794567Y-85093460D01*
X141819037Y-85093094D01*
X141871453Y-85092795D01*
X141932994Y-85092906D01*
G37*
D14*
X133725000Y-52680000D02*
X151525000Y-52680000D01*
X151525000Y-73580000D01*
X133725000Y-73580000D01*
X133725000Y-52680000D01*
D13*
G36*
X143875548Y-85093094D02*
G01*
X143900019Y-85093460D01*
X143920608Y-85094018D01*
X143822657Y-85285975D01*
X143618354Y-85677671D01*
X143317863Y-86250543D01*
X143303671Y-86250231D01*
X143285009Y-86250230D01*
X143240814Y-86250779D01*
X143198358Y-86251427D01*
X143181871Y-86251550D01*
X143170723Y-86251410D01*
X143761592Y-85092906D01*
X143823132Y-85092795D01*
X143875548Y-85093094D01*
G37*
D14*
X138086000Y-51156000D02*
X147085000Y-51156000D01*
X147085000Y-58636000D01*
X138086000Y-58636000D01*
X138086000Y-51156000D01*
D13*
G36*
X145244842Y-85529998D02*
G01*
X145061070Y-85868881D01*
X144940285Y-86090390D01*
X144760440Y-86420209D01*
X144580715Y-86748730D01*
X144304246Y-87254090D01*
X144088807Y-87647081D01*
X143753951Y-88257906D01*
X143653781Y-88440631D01*
X143342637Y-89007421D01*
X143013039Y-89607829D01*
X142770338Y-90049942D01*
X142769663Y-90051002D01*
X142768774Y-90052220D01*
X142767478Y-90053801D01*
X142765745Y-90055673D01*
X142764705Y-90056695D01*
X142763545Y-90057764D01*
X142762261Y-90058870D01*
X142760848Y-90060003D01*
X142759304Y-90061156D01*
X142757625Y-90062318D01*
X142755806Y-90063482D01*
X142753845Y-90064638D01*
X142751737Y-90065777D01*
X142749479Y-90066890D01*
X142747066Y-90067968D01*
X142744496Y-90069003D01*
X142741764Y-90069985D01*
X142738867Y-90070905D01*
X142735801Y-90071755D01*
X142732563Y-90072525D01*
X142729148Y-90073207D01*
X142725553Y-90073791D01*
X142721773Y-90074269D01*
X142717807Y-90074631D01*
X142713649Y-90074869D01*
X142709295Y-90074974D01*
X142700854Y-90074876D01*
X142693497Y-90074586D01*
X142687115Y-90074095D01*
X142681600Y-90073398D01*
X142676842Y-90072488D01*
X142672734Y-90071357D01*
X142670890Y-90070707D01*
X142669167Y-90070000D01*
X142666032Y-90068410D01*
X142663221Y-90066579D01*
X142660626Y-90064502D01*
X142658137Y-90062172D01*
X142655646Y-90059582D01*
X142650226Y-90053594D01*
X142647079Y-90050184D01*
X142643496Y-90046487D01*
X142403863Y-89607829D01*
X142614231Y-89607829D01*
X142614358Y-89612928D01*
X142614734Y-89617993D01*
X142615358Y-89623014D01*
X142616225Y-89627984D01*
X142617332Y-89632893D01*
X142618675Y-89637734D01*
X142620252Y-89642498D01*
X142622058Y-89647177D01*
X142624089Y-89651763D01*
X142626344Y-89656246D01*
X142628817Y-89660619D01*
X142631505Y-89664872D01*
X142634406Y-89668999D01*
X142637515Y-89672990D01*
X142640829Y-89676836D01*
X142644345Y-89680530D01*
X142648039Y-89684045D01*
X142651886Y-89687359D01*
X142655877Y-89690467D01*
X142660004Y-89693368D01*
X142664258Y-89696056D01*
X142668631Y-89698528D01*
X142673114Y-89700782D01*
X142677700Y-89702813D01*
X142682379Y-89704618D01*
X142687143Y-89706194D01*
X142691984Y-89707537D01*
X142696893Y-89708643D01*
X142701862Y-89709509D01*
X142706882Y-89710132D01*
X142711945Y-89710509D01*
X142717043Y-89710634D01*
X142722332Y-89710500D01*
X142727552Y-89710102D01*
X142732696Y-89709448D01*
X142737757Y-89708544D01*
X142742730Y-89707395D01*
X142747608Y-89706009D01*
X142752383Y-89704393D01*
X142757051Y-89702552D01*
X142761604Y-89700493D01*
X142766036Y-89698222D01*
X142770340Y-89695747D01*
X142774510Y-89693072D01*
X142778540Y-89690206D01*
X142782423Y-89687154D01*
X142786152Y-89683923D01*
X142789722Y-89680519D01*
X142793125Y-89676949D01*
X142796355Y-89673218D01*
X142799407Y-89669335D01*
X142802272Y-89665304D01*
X142804945Y-89661133D01*
X142807420Y-89656828D01*
X142809690Y-89652396D01*
X142811748Y-89647842D01*
X142813588Y-89643174D01*
X142815204Y-89638398D01*
X142816589Y-89633520D01*
X142817736Y-89628546D01*
X142818640Y-89623484D01*
X142819293Y-89618339D01*
X142819690Y-89613119D01*
X142819823Y-89607829D01*
X142819690Y-89602541D01*
X142819293Y-89597322D01*
X142818639Y-89592179D01*
X142817735Y-89587119D01*
X142816588Y-89582147D01*
X142815203Y-89577270D01*
X142813587Y-89572495D01*
X142811747Y-89567828D01*
X142809689Y-89563275D01*
X142807420Y-89558844D01*
X142804945Y-89554540D01*
X142802272Y-89550369D01*
X142799406Y-89546340D01*
X142796355Y-89542457D01*
X142793125Y-89538727D01*
X142789722Y-89535158D01*
X142786153Y-89531754D01*
X142782424Y-89528523D01*
X142778541Y-89525472D01*
X142774512Y-89522606D01*
X142770342Y-89519932D01*
X142766038Y-89517456D01*
X142761607Y-89515186D01*
X142757054Y-89513127D01*
X142752387Y-89511286D01*
X142747611Y-89509669D01*
X142742734Y-89508283D01*
X142737762Y-89507135D01*
X142732700Y-89506230D01*
X142727556Y-89505575D01*
X142722337Y-89505177D01*
X142717048Y-89505042D01*
X142717036Y-89505042D01*
X142711747Y-89505176D01*
X142706526Y-89505572D01*
X142701382Y-89506226D01*
X142696319Y-89507129D01*
X142691346Y-89508277D01*
X142686468Y-89509662D01*
X142681691Y-89511277D01*
X142677023Y-89513118D01*
X142672470Y-89515176D01*
X142668037Y-89517446D01*
X142663732Y-89519921D01*
X142659561Y-89522594D01*
X142655531Y-89525460D01*
X142651647Y-89528511D01*
X142647917Y-89531742D01*
X142644347Y-89535145D01*
X142640943Y-89538715D01*
X142637711Y-89542444D01*
X142634659Y-89546327D01*
X142631793Y-89550357D01*
X142629119Y-89554528D01*
X142626643Y-89558832D01*
X142624373Y-89563264D01*
X142622314Y-89567818D01*
X142620473Y-89572486D01*
X142618856Y-89577262D01*
X142617470Y-89582140D01*
X142616322Y-89587113D01*
X142615417Y-89592175D01*
X142614763Y-89597319D01*
X142614365Y-89602539D01*
X142614231Y-89607829D01*
X142403863Y-89607829D01*
X142075869Y-89007421D01*
X142192285Y-89007421D01*
X142192412Y-89012520D01*
X142192788Y-89017585D01*
X142193412Y-89022606D01*
X142194279Y-89027576D01*
X142195386Y-89032485D01*
X142196730Y-89037326D01*
X142198306Y-89042091D01*
X142200112Y-89046770D01*
X142202144Y-89051355D01*
X142204398Y-89055838D01*
X142206871Y-89060211D01*
X142209560Y-89064465D01*
X142212460Y-89068591D01*
X142215569Y-89072582D01*
X142218884Y-89076428D01*
X142222399Y-89080122D01*
X142226094Y-89083638D01*
X142229940Y-89086951D01*
X142233932Y-89090060D01*
X142238058Y-89092960D01*
X142242312Y-89095648D01*
X142246685Y-89098121D01*
X142251169Y-89100374D01*
X142255754Y-89102405D01*
X142260433Y-89104210D01*
X142265197Y-89105786D01*
X142270038Y-89107129D01*
X142274947Y-89108235D01*
X142279916Y-89109102D01*
X142284936Y-89109725D01*
X142289999Y-89110101D01*
X142295097Y-89110226D01*
X142300386Y-89110092D01*
X142305606Y-89109695D01*
X142310750Y-89109040D01*
X142315812Y-89108136D01*
X142320784Y-89106987D01*
X142325662Y-89105602D01*
X142330437Y-89103985D01*
X142335105Y-89102144D01*
X142339658Y-89100085D01*
X142344090Y-89097815D01*
X142348394Y-89095339D01*
X142352564Y-89092665D01*
X142356594Y-89089798D01*
X142360477Y-89086746D01*
X142364206Y-89083515D01*
X142367776Y-89080111D01*
X142371179Y-89076541D01*
X142374409Y-89072811D01*
X142377461Y-89068927D01*
X142380326Y-89064897D01*
X142383000Y-89060726D01*
X142385474Y-89056421D01*
X142387744Y-89051988D01*
X142389802Y-89047435D01*
X142391642Y-89042766D01*
X142393258Y-89037990D01*
X142394643Y-89033112D01*
X142395790Y-89028138D01*
X142396694Y-89023076D01*
X142397347Y-89017932D01*
X142397744Y-89012711D01*
X142397877Y-89007421D01*
X142397744Y-89002131D01*
X142397347Y-88996910D01*
X142396693Y-88991765D01*
X142395789Y-88986702D01*
X142394641Y-88981729D01*
X142393256Y-88976850D01*
X142391640Y-88972073D01*
X142389800Y-88967405D01*
X142387741Y-88962851D01*
X142385471Y-88958418D01*
X142382996Y-88954113D01*
X142380322Y-88949942D01*
X142377456Y-88945912D01*
X142374405Y-88942028D01*
X142371174Y-88938298D01*
X142367770Y-88934728D01*
X142364200Y-88931324D01*
X142360470Y-88928093D01*
X142356587Y-88925041D01*
X142352557Y-88922175D01*
X142348386Y-88919501D01*
X142344082Y-88917025D01*
X142339649Y-88914755D01*
X142335096Y-88912696D01*
X142330428Y-88910855D01*
X142325652Y-88909239D01*
X142320774Y-88907854D01*
X142315800Y-88906706D01*
X142310738Y-88905801D01*
X142305594Y-88905148D01*
X142300373Y-88904750D01*
X142295087Y-88904616D01*
X142289993Y-88904742D01*
X142284929Y-88905119D01*
X142279909Y-88905742D01*
X142274940Y-88906609D01*
X142270031Y-88907716D01*
X142265191Y-88909059D01*
X142260427Y-88910635D01*
X142255748Y-88912440D01*
X142251163Y-88914472D01*
X142246679Y-88916726D01*
X142242307Y-88919198D01*
X142238053Y-88921887D01*
X142233926Y-88924787D01*
X142229935Y-88927896D01*
X142226089Y-88931210D01*
X142222394Y-88934725D01*
X142218879Y-88938420D01*
X142215565Y-88942266D01*
X142212456Y-88946257D01*
X142209556Y-88950384D01*
X142206868Y-88954638D01*
X142204395Y-88959010D01*
X142202141Y-88963494D01*
X142200109Y-88968079D01*
X142198304Y-88972758D01*
X142196728Y-88977521D01*
X142195385Y-88982362D01*
X142194278Y-88987271D01*
X142193411Y-88992240D01*
X142192788Y-88997260D01*
X142192411Y-89002323D01*
X142192285Y-89007421D01*
X142075869Y-89007421D01*
X141666419Y-88257906D01*
X141791646Y-88257906D01*
X141791779Y-88263197D01*
X141792176Y-88268418D01*
X141792830Y-88273563D01*
X141793734Y-88278626D01*
X141794882Y-88283599D01*
X141796267Y-88288478D01*
X141797883Y-88293255D01*
X141799724Y-88297923D01*
X141801782Y-88302477D01*
X141804052Y-88306910D01*
X141806527Y-88311215D01*
X141809201Y-88315386D01*
X141812067Y-88319416D01*
X141815119Y-88323300D01*
X141818349Y-88327030D01*
X141821753Y-88330600D01*
X141825323Y-88334004D01*
X141829053Y-88337235D01*
X141832936Y-88340287D01*
X141836966Y-88343153D01*
X141841137Y-88345827D01*
X141845442Y-88348303D01*
X141849874Y-88350573D01*
X141854427Y-88352632D01*
X141859095Y-88354473D01*
X141863872Y-88356089D01*
X141868750Y-88357474D01*
X141873723Y-88358622D01*
X141878785Y-88359526D01*
X141883929Y-88360180D01*
X141889150Y-88360578D01*
X141894440Y-88360712D01*
X141899536Y-88360586D01*
X141904599Y-88360209D01*
X141909618Y-88359586D01*
X141914586Y-88358719D01*
X141919494Y-88357612D01*
X141924334Y-88356269D01*
X141929098Y-88354693D01*
X141933776Y-88352888D01*
X141938361Y-88350856D01*
X141942844Y-88348602D01*
X141947217Y-88346129D01*
X141951471Y-88343441D01*
X141955597Y-88340541D01*
X141959588Y-88337432D01*
X141963435Y-88334118D01*
X141967129Y-88330602D01*
X141970644Y-88326908D01*
X141973958Y-88323062D01*
X141977067Y-88319071D01*
X141979967Y-88314944D01*
X141982656Y-88310690D01*
X141985129Y-88306318D01*
X141987383Y-88301834D01*
X141989414Y-88297249D01*
X141991220Y-88292570D01*
X141992796Y-88287806D01*
X141994139Y-88282966D01*
X141995245Y-88278057D01*
X141996112Y-88273088D01*
X141996735Y-88268068D01*
X141997112Y-88263004D01*
X141997238Y-88257906D01*
X141997111Y-88252807D01*
X141996735Y-88247743D01*
X141996111Y-88242722D01*
X141995244Y-88237752D01*
X141994137Y-88232843D01*
X141992794Y-88228002D01*
X141991217Y-88223237D01*
X141989411Y-88218558D01*
X141987380Y-88213973D01*
X141985125Y-88209490D01*
X141982652Y-88205117D01*
X141979964Y-88200863D01*
X141977063Y-88196737D01*
X141973954Y-88192746D01*
X141970640Y-88188900D01*
X141967124Y-88185206D01*
X141963430Y-88181691D01*
X141959583Y-88178377D01*
X141955592Y-88175268D01*
X141951465Y-88172368D01*
X141947211Y-88169680D01*
X141942838Y-88167207D01*
X141938355Y-88164954D01*
X141933769Y-88162923D01*
X141929090Y-88161117D01*
X141924326Y-88159542D01*
X141919486Y-88158199D01*
X141914577Y-88157093D01*
X141909608Y-88156226D01*
X141904587Y-88155603D01*
X141899524Y-88155227D01*
X141894430Y-88155102D01*
X141889143Y-88155236D01*
X141883923Y-88155633D01*
X141878778Y-88156288D01*
X141873716Y-88157192D01*
X141868743Y-88158340D01*
X141863865Y-88159726D01*
X141859089Y-88161343D01*
X141854421Y-88163184D01*
X141849868Y-88165243D01*
X141845436Y-88167513D01*
X141841131Y-88169989D01*
X141836961Y-88172663D01*
X141832931Y-88175530D01*
X141829048Y-88178582D01*
X141825318Y-88181813D01*
X141821748Y-88185217D01*
X141818345Y-88188787D01*
X141815114Y-88192517D01*
X141812063Y-88196401D01*
X141809198Y-88200431D01*
X141806524Y-88204602D01*
X141804049Y-88208907D01*
X141801779Y-88213340D01*
X141799721Y-88217893D01*
X141797881Y-88222562D01*
X141796265Y-88227338D01*
X141794880Y-88232216D01*
X141793733Y-88237190D01*
X141792829Y-88242252D01*
X141792176Y-88247396D01*
X141791779Y-88252617D01*
X141791646Y-88257906D01*
X141666419Y-88257906D01*
X141332734Y-87647081D01*
X141458850Y-87647081D01*
X141458983Y-87652369D01*
X141459380Y-87657588D01*
X141460034Y-87662731D01*
X141460937Y-87667791D01*
X141462085Y-87672763D01*
X141463470Y-87677640D01*
X141465086Y-87682415D01*
X141466926Y-87687082D01*
X141468984Y-87691635D01*
X141471253Y-87696066D01*
X141473728Y-87700370D01*
X141476401Y-87704541D01*
X141479266Y-87708570D01*
X141482317Y-87712453D01*
X141485548Y-87716183D01*
X141488951Y-87719752D01*
X141492520Y-87723156D01*
X141496249Y-87726387D01*
X141500131Y-87729438D01*
X141504161Y-87732304D01*
X141508331Y-87734978D01*
X141512635Y-87737454D01*
X141517066Y-87739724D01*
X141521619Y-87741783D01*
X141526286Y-87743624D01*
X141531062Y-87745241D01*
X141535939Y-87746627D01*
X141540911Y-87747775D01*
X141545973Y-87748680D01*
X141551116Y-87749335D01*
X141556336Y-87749733D01*
X141561625Y-87749868D01*
X141566916Y-87749734D01*
X141572137Y-87749338D01*
X141577283Y-87748684D01*
X141582346Y-87747781D01*
X141587320Y-87746633D01*
X141592199Y-87745248D01*
X141596976Y-87743633D01*
X141601645Y-87741792D01*
X141606199Y-87739734D01*
X141610632Y-87737464D01*
X141614938Y-87734990D01*
X141619109Y-87732316D01*
X141623140Y-87729451D01*
X141627024Y-87726399D01*
X141630754Y-87723169D01*
X141634325Y-87719765D01*
X141637729Y-87716195D01*
X141640961Y-87712466D01*
X141644013Y-87708583D01*
X141646879Y-87704553D01*
X141649554Y-87700382D01*
X141652029Y-87696078D01*
X141654300Y-87691646D01*
X141656359Y-87687093D01*
X141658200Y-87682425D01*
X141659817Y-87677648D01*
X141661203Y-87672771D01*
X141662351Y-87667797D01*
X141663256Y-87662735D01*
X141663910Y-87657591D01*
X141664307Y-87652371D01*
X141664442Y-87647081D01*
X141664315Y-87641982D01*
X141663939Y-87636917D01*
X141663315Y-87631896D01*
X141662448Y-87626927D01*
X141661341Y-87622017D01*
X141659997Y-87617176D01*
X141658421Y-87612412D01*
X141656615Y-87607733D01*
X141654584Y-87603147D01*
X141652329Y-87598664D01*
X141649856Y-87594291D01*
X141647167Y-87590037D01*
X141644267Y-87585911D01*
X141641158Y-87581920D01*
X141637843Y-87578074D01*
X141634328Y-87574380D01*
X141630633Y-87570865D01*
X141626787Y-87567551D01*
X141622795Y-87564443D01*
X141618669Y-87561542D01*
X141614415Y-87558854D01*
X141610042Y-87556382D01*
X141605558Y-87554128D01*
X141600973Y-87552097D01*
X141596294Y-87550292D01*
X141591530Y-87548716D01*
X141586689Y-87547373D01*
X141581780Y-87546267D01*
X141576811Y-87545400D01*
X141571791Y-87544777D01*
X141566728Y-87544401D01*
X141561633Y-87544276D01*
X141556347Y-87544410D01*
X141551127Y-87544808D01*
X141545982Y-87545462D01*
X141540920Y-87546366D01*
X141535947Y-87547515D01*
X141531069Y-87548900D01*
X141526293Y-87550517D01*
X141521625Y-87552358D01*
X141517072Y-87554417D01*
X141512640Y-87556688D01*
X141508335Y-87559163D01*
X141504164Y-87561837D01*
X141500135Y-87564704D01*
X141496251Y-87567756D01*
X141492522Y-87570987D01*
X141488952Y-87574391D01*
X141485549Y-87577961D01*
X141482318Y-87581692D01*
X141479267Y-87585575D01*
X141476401Y-87589606D01*
X141473728Y-87593777D01*
X141471253Y-87598082D01*
X141468983Y-87602514D01*
X141466925Y-87607068D01*
X141465085Y-87611736D01*
X141463469Y-87616512D01*
X141462084Y-87621390D01*
X141460937Y-87626364D01*
X141460033Y-87631426D01*
X141459380Y-87636571D01*
X141458983Y-87641791D01*
X141458850Y-87647081D01*
X141332734Y-87647081D01*
X141154373Y-87320583D01*
X140845237Y-86748730D01*
X140994888Y-86748730D01*
X140995015Y-86753829D01*
X140995391Y-86758894D01*
X140996015Y-86763915D01*
X140996882Y-86768884D01*
X140997989Y-86773794D01*
X140999333Y-86778635D01*
X141000909Y-86783399D01*
X141002715Y-86788078D01*
X141004746Y-86792664D01*
X141007001Y-86797147D01*
X141009474Y-86801520D01*
X141012163Y-86805773D01*
X141015063Y-86809900D01*
X141018172Y-86813891D01*
X141021487Y-86817737D01*
X141025002Y-86821431D01*
X141028697Y-86824946D01*
X141032543Y-86828260D01*
X141036534Y-86831368D01*
X141040661Y-86834268D01*
X141044915Y-86836957D01*
X141049288Y-86839429D01*
X141053771Y-86841683D01*
X141058357Y-86843714D01*
X141063036Y-86845519D01*
X141067800Y-86847095D01*
X141072641Y-86848438D01*
X141077550Y-86849544D01*
X141082519Y-86850410D01*
X141087539Y-86851033D01*
X141092602Y-86851409D01*
X141097700Y-86851535D01*
X141102797Y-86851409D01*
X141107859Y-86851033D01*
X141112879Y-86850409D01*
X141117847Y-86849543D01*
X141122755Y-86848436D01*
X141127595Y-86847093D01*
X141132359Y-86845517D01*
X141137037Y-86843711D01*
X141141622Y-86841680D01*
X141146105Y-86839426D01*
X141150477Y-86836953D01*
X141154731Y-86834265D01*
X141158858Y-86831364D01*
X141162849Y-86828255D01*
X141166695Y-86824942D01*
X141170389Y-86821426D01*
X141173905Y-86817732D01*
X141177219Y-86813885D01*
X141180328Y-86809894D01*
X141183228Y-86805768D01*
X141185916Y-86801514D01*
X141188389Y-86797141D01*
X141190643Y-86792658D01*
X141192675Y-86788073D01*
X141194480Y-86783394D01*
X141196056Y-86778630D01*
X141197399Y-86773789D01*
X141198506Y-86768880D01*
X141199373Y-86763912D01*
X141199996Y-86758891D01*
X141200372Y-86753828D01*
X141200498Y-86748730D01*
X141200365Y-86743441D01*
X141199968Y-86738222D01*
X141199314Y-86733078D01*
X141198410Y-86728017D01*
X141197262Y-86723044D01*
X141195877Y-86718167D01*
X141194261Y-86713391D01*
X141192420Y-86708724D01*
X141190362Y-86704171D01*
X141188092Y-86699739D01*
X141185617Y-86695435D01*
X141182943Y-86691264D01*
X141180077Y-86687235D01*
X141177026Y-86683352D01*
X141173795Y-86679622D01*
X141170391Y-86676052D01*
X141166821Y-86672649D01*
X141163091Y-86669418D01*
X141159208Y-86666366D01*
X141155178Y-86663500D01*
X141151007Y-86660826D01*
X141146703Y-86658351D01*
X141142270Y-86656081D01*
X141137717Y-86654023D01*
X141133049Y-86652182D01*
X141128273Y-86650566D01*
X141123395Y-86649180D01*
X141118421Y-86648032D01*
X141113359Y-86647128D01*
X141108215Y-86646474D01*
X141102994Y-86646077D01*
X141097705Y-86645943D01*
X141097693Y-86645943D01*
X141092404Y-86646076D01*
X141087183Y-86646473D01*
X141082039Y-86647126D01*
X141076976Y-86648030D01*
X141072003Y-86649177D01*
X141067125Y-86650562D01*
X141062349Y-86652178D01*
X141057680Y-86654018D01*
X141053127Y-86656076D01*
X141048694Y-86658346D01*
X141044389Y-86660821D01*
X141040218Y-86663495D01*
X141036188Y-86666360D01*
X141032304Y-86669412D01*
X141028574Y-86672642D01*
X141025004Y-86676046D01*
X141021600Y-86679615D01*
X141018369Y-86683345D01*
X141015316Y-86687228D01*
X141012450Y-86691258D01*
X141009776Y-86695428D01*
X141007300Y-86699733D01*
X141005030Y-86704165D01*
X141002971Y-86708718D01*
X141001130Y-86713386D01*
X140999513Y-86718162D01*
X140998127Y-86723040D01*
X140996979Y-86728013D01*
X140996075Y-86733075D01*
X140995420Y-86738220D01*
X140995023Y-86743440D01*
X140994888Y-86748730D01*
X140845237Y-86748730D01*
X140488482Y-86088791D01*
X140634673Y-86088791D01*
X140634717Y-86093814D01*
X140635007Y-86098823D01*
X140635540Y-86103809D01*
X140636316Y-86108763D01*
X140637332Y-86113677D01*
X140638589Y-86118540D01*
X140640085Y-86123344D01*
X140641819Y-86128081D01*
X140643789Y-86132740D01*
X140645994Y-86137313D01*
X140648433Y-86141791D01*
X140651092Y-86146142D01*
X140653949Y-86150338D01*
X140656999Y-86154374D01*
X140660234Y-86158243D01*
X140663647Y-86161941D01*
X140667231Y-86165461D01*
X140670977Y-86168798D01*
X140674880Y-86171947D01*
X140678932Y-86174902D01*
X140683125Y-86177657D01*
X140687453Y-86180207D01*
X140691908Y-86182546D01*
X140696483Y-86184670D01*
X140701170Y-86186571D01*
X140705963Y-86188245D01*
X140710854Y-86189687D01*
X140715811Y-86190884D01*
X140720798Y-86191830D01*
X140725809Y-86192527D01*
X140730832Y-86192976D01*
X140735860Y-86193177D01*
X140740883Y-86193133D01*
X140745892Y-86192843D01*
X140750878Y-86192310D01*
X140755833Y-86191534D01*
X140760746Y-86190517D01*
X140765610Y-86189260D01*
X140770414Y-86187765D01*
X140775150Y-86186031D01*
X140779809Y-86184061D01*
X140784382Y-86181856D01*
X140788860Y-86179417D01*
X140793211Y-86176758D01*
X140797408Y-86173901D01*
X140801443Y-86170851D01*
X140805312Y-86167616D01*
X140809010Y-86164203D01*
X140812530Y-86160619D01*
X140815867Y-86156873D01*
X140819016Y-86152970D01*
X140821971Y-86148918D01*
X140824726Y-86144725D01*
X140827276Y-86140397D01*
X140829616Y-86135942D01*
X140831739Y-86131368D01*
X140833640Y-86126680D01*
X140835315Y-86121887D01*
X140836756Y-86116996D01*
X140837953Y-86112039D01*
X140838900Y-86107052D01*
X140839597Y-86102041D01*
X140840045Y-86097018D01*
X140840247Y-86091990D01*
X140840202Y-86086967D01*
X140839913Y-86081958D01*
X140839379Y-86076972D01*
X140838604Y-86072017D01*
X140837587Y-86067104D01*
X140836330Y-86062241D01*
X140834834Y-86057436D01*
X140833101Y-86052700D01*
X140831131Y-86048041D01*
X140828925Y-86043468D01*
X140826486Y-86038990D01*
X140823828Y-86034639D01*
X140820970Y-86030443D01*
X140817920Y-86026407D01*
X140814685Y-86022538D01*
X140811272Y-86018840D01*
X140807689Y-86015320D01*
X140803942Y-86011983D01*
X140800039Y-86008834D01*
X140795987Y-86005879D01*
X140791794Y-86003124D01*
X140787466Y-86000574D01*
X140783011Y-85998234D01*
X140778437Y-85996111D01*
X140773749Y-85994210D01*
X140768956Y-85992535D01*
X140764065Y-85991094D01*
X140760799Y-85990275D01*
X140757511Y-85989564D01*
X140754203Y-85988962D01*
X140750878Y-85988468D01*
X140747538Y-85988083D01*
X140744187Y-85987807D01*
X140740826Y-85987641D01*
X140737460Y-85987585D01*
X140733115Y-85987676D01*
X140728809Y-85987947D01*
X140724545Y-85988395D01*
X140720328Y-85989016D01*
X140716161Y-85989808D01*
X140712050Y-85990766D01*
X140704008Y-85993171D01*
X140696237Y-85996206D01*
X140688769Y-85999845D01*
X140681638Y-86004062D01*
X140674878Y-86008831D01*
X140668522Y-86014127D01*
X140662604Y-86019924D01*
X140657157Y-86026196D01*
X140652214Y-86032918D01*
X140647810Y-86040063D01*
X140645821Y-86043787D01*
X140643978Y-86047606D01*
X140642287Y-86051519D01*
X140640751Y-86055522D01*
X140639376Y-86059612D01*
X140638163Y-86063785D01*
X140636966Y-86068741D01*
X140636019Y-86073729D01*
X140635323Y-86078739D01*
X140634874Y-86083763D01*
X140634673Y-86088791D01*
X140488482Y-86088791D01*
X140083626Y-85339873D01*
X140267765Y-85339873D01*
X140267809Y-85344896D01*
X140268099Y-85349905D01*
X140268632Y-85354891D01*
X140269408Y-85359845D01*
X140270425Y-85364759D01*
X140271681Y-85369622D01*
X140273177Y-85374426D01*
X140274911Y-85379163D01*
X140276881Y-85383822D01*
X140279086Y-85388395D01*
X140281525Y-85392872D01*
X140284183Y-85397224D01*
X140287041Y-85401420D01*
X140290091Y-85405456D01*
X140293326Y-85409325D01*
X140296739Y-85413022D01*
X140300323Y-85416543D01*
X140304069Y-85419880D01*
X140307972Y-85423029D01*
X140312024Y-85425983D01*
X140316217Y-85428739D01*
X140320545Y-85431289D01*
X140325000Y-85433628D01*
X140329575Y-85435752D01*
X140334262Y-85437653D01*
X140339055Y-85439327D01*
X140343946Y-85440769D01*
X140348903Y-85441966D01*
X140353891Y-85442912D01*
X140358901Y-85443609D01*
X140363924Y-85444058D01*
X140368952Y-85444259D01*
X140373975Y-85444214D01*
X140378984Y-85443925D01*
X140383971Y-85443392D01*
X140388925Y-85442616D01*
X140393838Y-85441599D01*
X140398702Y-85440342D01*
X140403506Y-85438847D01*
X140408242Y-85437113D01*
X140412901Y-85435143D01*
X140417474Y-85432938D01*
X140421952Y-85430499D01*
X140426303Y-85427840D01*
X140430499Y-85424983D01*
X140434535Y-85421933D01*
X140438404Y-85418698D01*
X140442102Y-85415285D01*
X140445622Y-85411701D01*
X140448959Y-85407955D01*
X140452108Y-85404052D01*
X140455063Y-85400000D01*
X140457818Y-85395807D01*
X140460368Y-85391479D01*
X140462708Y-85387024D01*
X140464831Y-85382449D01*
X140466733Y-85377762D01*
X140468407Y-85372969D01*
X140469848Y-85368078D01*
X140471046Y-85363121D01*
X140471992Y-85358133D01*
X140472689Y-85353123D01*
X140473138Y-85348100D01*
X140473339Y-85343072D01*
X140473325Y-85341472D01*
X141008580Y-85341472D01*
X141008620Y-85343072D01*
X141008706Y-85346571D01*
X141009083Y-85351636D01*
X141009707Y-85356657D01*
X141010574Y-85361627D01*
X141011681Y-85366536D01*
X141013024Y-85371377D01*
X141014601Y-85376142D01*
X141016406Y-85380821D01*
X141018438Y-85385406D01*
X141020692Y-85389889D01*
X141023165Y-85394262D01*
X141025854Y-85398516D01*
X141028755Y-85402642D01*
X141031864Y-85406633D01*
X141035178Y-85410479D01*
X141038694Y-85414173D01*
X141042388Y-85417688D01*
X141046235Y-85421002D01*
X141050226Y-85424111D01*
X141054353Y-85427011D01*
X141058607Y-85429699D01*
X141062980Y-85432171D01*
X141067463Y-85434425D01*
X141072048Y-85436456D01*
X141076727Y-85438261D01*
X141081491Y-85439837D01*
X141086332Y-85441180D01*
X141091241Y-85442286D01*
X141096210Y-85443153D01*
X141101231Y-85443776D01*
X141106294Y-85444152D01*
X141111392Y-85444277D01*
X141116489Y-85444151D01*
X141121551Y-85443775D01*
X141126570Y-85443152D01*
X141131538Y-85442285D01*
X141136447Y-85441178D01*
X141141287Y-85439835D01*
X141146050Y-85438259D01*
X141150729Y-85436454D01*
X141155314Y-85434422D01*
X141159797Y-85432168D01*
X141164169Y-85429695D01*
X141168423Y-85427007D01*
X141172549Y-85424107D01*
X141176540Y-85420998D01*
X141180387Y-85417684D01*
X141184081Y-85414168D01*
X141187597Y-85410474D01*
X141190910Y-85406628D01*
X141194019Y-85402637D01*
X141196920Y-85398510D01*
X141199608Y-85394256D01*
X141202081Y-85389884D01*
X141204335Y-85385400D01*
X141206366Y-85380815D01*
X141208172Y-85376136D01*
X141209748Y-85371372D01*
X141211091Y-85366532D01*
X141212198Y-85361623D01*
X141213064Y-85356654D01*
X141213688Y-85351634D01*
X141214064Y-85346570D01*
X141214190Y-85341472D01*
X141214064Y-85336373D01*
X141213687Y-85331309D01*
X141213063Y-85326288D01*
X141212196Y-85321318D01*
X141211089Y-85316408D01*
X141209746Y-85311567D01*
X141208169Y-85306803D01*
X141206364Y-85302124D01*
X141204332Y-85297539D01*
X141202078Y-85293055D01*
X141199604Y-85288683D01*
X141196916Y-85284429D01*
X141194015Y-85280302D01*
X141190906Y-85276312D01*
X141187592Y-85272465D01*
X141184076Y-85268771D01*
X141180382Y-85265256D01*
X141176535Y-85261942D01*
X141172544Y-85258834D01*
X141168417Y-85255934D01*
X141164163Y-85253246D01*
X141159790Y-85250773D01*
X141155307Y-85248519D01*
X141150722Y-85246488D01*
X141146043Y-85244683D01*
X141141279Y-85243107D01*
X141136438Y-85241765D01*
X141131529Y-85240658D01*
X141126560Y-85239792D01*
X141121539Y-85239169D01*
X141116476Y-85238793D01*
X141111382Y-85238667D01*
X141106287Y-85238793D01*
X141101224Y-85239170D01*
X141096204Y-85239793D01*
X141091235Y-85240660D01*
X141086326Y-85241766D01*
X141081485Y-85243109D01*
X141076721Y-85244685D01*
X141072042Y-85246491D01*
X141067457Y-85248522D01*
X141062974Y-85250776D01*
X141058601Y-85253249D01*
X141054347Y-85255938D01*
X141050221Y-85258838D01*
X141046230Y-85261947D01*
X141042383Y-85265261D01*
X141038689Y-85268776D01*
X141035174Y-85272470D01*
X141031860Y-85276317D01*
X141028751Y-85280308D01*
X141025851Y-85284434D01*
X141023162Y-85288688D01*
X141020689Y-85293061D01*
X141018435Y-85297544D01*
X141016404Y-85302129D01*
X141014598Y-85306808D01*
X141013022Y-85311572D01*
X141011679Y-85316413D01*
X141010573Y-85321322D01*
X141009706Y-85326291D01*
X141009082Y-85331311D01*
X141008706Y-85336374D01*
X141008580Y-85341472D01*
X140473325Y-85341472D01*
X140473294Y-85338049D01*
X140473005Y-85333040D01*
X140472472Y-85328054D01*
X140471696Y-85323099D01*
X140470679Y-85318186D01*
X140469422Y-85313322D01*
X140467927Y-85308518D01*
X140466193Y-85303782D01*
X140464223Y-85299123D01*
X140462018Y-85294550D01*
X140459578Y-85290072D01*
X140456920Y-85285721D01*
X140454062Y-85281524D01*
X140451012Y-85277489D01*
X140447777Y-85273620D01*
X140444364Y-85269922D01*
X140440781Y-85266402D01*
X140437034Y-85263065D01*
X140433131Y-85259916D01*
X140429079Y-85256961D01*
X140424886Y-85254206D01*
X140420558Y-85251656D01*
X140416103Y-85249316D01*
X140411529Y-85247193D01*
X140406841Y-85245292D01*
X140402048Y-85243617D01*
X140397157Y-85242176D01*
X140393891Y-85241357D01*
X140390603Y-85240646D01*
X140387295Y-85240044D01*
X140383970Y-85239550D01*
X140380630Y-85239165D01*
X140377279Y-85238889D01*
X140373919Y-85238723D01*
X140370552Y-85238667D01*
X140366208Y-85238758D01*
X140361901Y-85239029D01*
X140357637Y-85239477D01*
X140353420Y-85240098D01*
X140349253Y-85240890D01*
X140345142Y-85241848D01*
X140337100Y-85244253D01*
X140329329Y-85247288D01*
X140321861Y-85250927D01*
X140314730Y-85255144D01*
X140307970Y-85259913D01*
X140301614Y-85265209D01*
X140295696Y-85271006D01*
X140290249Y-85277278D01*
X140285307Y-85283999D01*
X140280903Y-85291145D01*
X140278913Y-85294868D01*
X140277071Y-85298688D01*
X140275379Y-85302601D01*
X140273844Y-85306604D01*
X140272468Y-85310694D01*
X140271256Y-85314867D01*
X140270058Y-85319823D01*
X140269112Y-85324811D01*
X140268415Y-85329821D01*
X140267966Y-85334845D01*
X140267765Y-85339873D01*
X140083626Y-85339873D01*
X139952006Y-85096397D01*
X141234737Y-85097138D01*
X141360185Y-85341472D01*
X141744702Y-86090390D01*
X141914473Y-86421052D01*
X141876676Y-86414074D01*
X141841355Y-86408062D01*
X141807590Y-86402849D01*
X141774461Y-86398270D01*
X141741047Y-86394158D01*
X141706428Y-86390347D01*
X141629896Y-86382962D01*
X141866525Y-87269267D01*
X141384422Y-86346656D01*
X141249242Y-86090390D01*
X141431068Y-86090390D01*
X141431202Y-86095681D01*
X141431599Y-86100902D01*
X141432253Y-86106047D01*
X141433157Y-86111109D01*
X141434305Y-86116083D01*
X141435690Y-86120962D01*
X141437306Y-86125738D01*
X141439146Y-86130407D01*
X141441205Y-86134961D01*
X141443475Y-86139393D01*
X141445950Y-86143699D01*
X141448624Y-86147870D01*
X141451490Y-86151900D01*
X141454541Y-86155784D01*
X141457772Y-86159514D01*
X141461176Y-86163084D01*
X141464746Y-86166488D01*
X141468476Y-86169719D01*
X141472359Y-86172771D01*
X141476389Y-86175637D01*
X141480560Y-86178311D01*
X141484864Y-86180787D01*
X141489297Y-86183057D01*
X141493850Y-86185116D01*
X141498518Y-86186956D01*
X141503294Y-86188573D01*
X141508172Y-86189958D01*
X141513145Y-86191106D01*
X141518208Y-86192010D01*
X141523352Y-86192664D01*
X141528572Y-86193061D01*
X141533862Y-86193195D01*
X141538959Y-86193069D01*
X141544021Y-86192693D01*
X141549041Y-86192070D01*
X141554009Y-86191203D01*
X141558917Y-86190096D01*
X141563757Y-86188753D01*
X141568520Y-86187177D01*
X141573199Y-86185372D01*
X141577784Y-86183340D01*
X141582267Y-86181086D01*
X141586639Y-86178613D01*
X141590893Y-86175925D01*
X141595020Y-86173025D01*
X141599011Y-86169916D01*
X141602857Y-86166602D01*
X141606551Y-86163086D01*
X141610067Y-86159392D01*
X141613381Y-86155546D01*
X141616490Y-86151555D01*
X141619390Y-86147428D01*
X141622078Y-86143174D01*
X141624551Y-86138802D01*
X141626805Y-86134318D01*
X141628837Y-86129733D01*
X141630642Y-86125054D01*
X141632218Y-86120290D01*
X141633561Y-86115450D01*
X141634668Y-86110541D01*
X141635535Y-86105572D01*
X141636158Y-86100552D01*
X141636535Y-86095488D01*
X141636661Y-86090390D01*
X141636534Y-86085291D01*
X141636157Y-86080227D01*
X141635534Y-86075206D01*
X141634667Y-86070236D01*
X141633560Y-86065327D01*
X141632216Y-86060485D01*
X141630640Y-86055721D01*
X141628834Y-86051042D01*
X141626802Y-86046457D01*
X141624548Y-86041973D01*
X141622075Y-86037601D01*
X141619386Y-86033347D01*
X141616486Y-86029220D01*
X141613376Y-86025230D01*
X141610062Y-86021383D01*
X141606547Y-86017689D01*
X141602852Y-86014174D01*
X141599005Y-86010861D01*
X141595014Y-86007752D01*
X141590888Y-86004852D01*
X141586634Y-86002164D01*
X141582261Y-85999691D01*
X141577777Y-85997438D01*
X141573192Y-85995406D01*
X141568513Y-85993601D01*
X141563749Y-85992026D01*
X141558908Y-85990683D01*
X141553999Y-85989576D01*
X141549030Y-85988710D01*
X141544010Y-85988087D01*
X141538947Y-85987711D01*
X141533852Y-85987585D01*
X141528565Y-85987720D01*
X141523345Y-85988117D01*
X141518201Y-85988771D01*
X141513139Y-85989676D01*
X141508166Y-85990824D01*
X141503288Y-85992210D01*
X141498512Y-85993827D01*
X141493844Y-85995668D01*
X141489290Y-85997727D01*
X141484858Y-85999997D01*
X141480554Y-86002473D01*
X141476383Y-86005147D01*
X141472353Y-86008013D01*
X141468470Y-86011065D01*
X141464741Y-86014297D01*
X141461171Y-86017701D01*
X141457768Y-86021271D01*
X141454537Y-86025001D01*
X141451486Y-86028885D01*
X141448620Y-86032915D01*
X141445947Y-86037086D01*
X141443472Y-86041391D01*
X141441202Y-86045824D01*
X141439144Y-86050377D01*
X141437304Y-86055045D01*
X141435688Y-86059822D01*
X141434303Y-86064700D01*
X141433155Y-86069673D01*
X141432252Y-86074736D01*
X141431598Y-86079880D01*
X141431202Y-86085101D01*
X141431068Y-86090390D01*
X141249242Y-86090390D01*
X140934551Y-85493817D01*
X140900868Y-85493960D01*
X140868880Y-85494608D01*
X140837890Y-85495674D01*
X140807204Y-85497073D01*
X140673577Y-85504271D01*
X140991878Y-86091990D01*
X141347561Y-86748730D01*
X141684443Y-87370758D01*
X141832470Y-87647081D01*
X142159690Y-88257906D01*
X142208341Y-88348723D01*
X142454739Y-88821572D01*
X142548694Y-89007421D01*
X142683087Y-89273261D01*
X142683488Y-89274519D01*
X142683919Y-89275680D01*
X142684377Y-89276745D01*
X142684861Y-89277719D01*
X142685366Y-89278606D01*
X142685891Y-89279410D01*
X142686432Y-89280135D01*
X142686986Y-89280784D01*
X142687552Y-89281361D01*
X142688125Y-89281870D01*
X142688703Y-89282315D01*
X142689283Y-89282701D01*
X142689863Y-89283029D01*
X142690439Y-89283306D01*
X142691009Y-89283533D01*
X142691569Y-89283716D01*
X142692118Y-89283858D01*
X142692652Y-89283963D01*
X142693663Y-89284077D01*
X142694582Y-89284089D01*
X142695384Y-89284030D01*
X142696047Y-89283930D01*
X142696549Y-89283821D01*
X142696978Y-89283697D01*
X142697353Y-89283790D01*
X142697797Y-89283867D01*
X142698389Y-89283925D01*
X142699112Y-89283939D01*
X142699517Y-89283921D01*
X142699949Y-89283881D01*
X142700405Y-89283816D01*
X142700884Y-89283723D01*
X142701382Y-89283597D01*
X142701898Y-89283437D01*
X142702430Y-89283238D01*
X142702976Y-89282996D01*
X142703534Y-89282709D01*
X142704100Y-89282373D01*
X142704675Y-89281985D01*
X142705254Y-89281540D01*
X142705837Y-89281036D01*
X142706420Y-89280469D01*
X142707002Y-89279836D01*
X142707581Y-89279134D01*
X142708155Y-89278358D01*
X142708721Y-89277505D01*
X142709278Y-89276573D01*
X142709823Y-89275557D01*
X142710354Y-89274454D01*
X142710869Y-89273261D01*
X142856027Y-89007421D01*
X143025723Y-89007421D01*
X143025849Y-89012520D01*
X143026226Y-89017585D01*
X143026850Y-89022606D01*
X143027717Y-89027576D01*
X143028824Y-89032485D01*
X143030167Y-89037326D01*
X143031743Y-89042091D01*
X143033549Y-89046770D01*
X143035581Y-89051355D01*
X143037835Y-89055838D01*
X143040308Y-89060211D01*
X143042997Y-89064465D01*
X143045898Y-89068591D01*
X143049007Y-89072582D01*
X143052321Y-89076428D01*
X143055837Y-89080122D01*
X143059531Y-89083638D01*
X143063378Y-89086951D01*
X143067369Y-89090060D01*
X143071496Y-89092960D01*
X143075750Y-89095648D01*
X143080123Y-89098121D01*
X143084606Y-89100374D01*
X143089191Y-89102405D01*
X143093870Y-89104210D01*
X143098634Y-89105786D01*
X143103475Y-89107129D01*
X143108384Y-89108235D01*
X143113353Y-89109102D01*
X143118374Y-89109725D01*
X143123437Y-89110101D01*
X143128535Y-89110226D01*
X143133824Y-89110092D01*
X143139044Y-89109695D01*
X143144188Y-89109040D01*
X143149249Y-89108136D01*
X143154222Y-89106987D01*
X143159099Y-89105602D01*
X143163875Y-89103985D01*
X143168543Y-89102144D01*
X143173095Y-89100085D01*
X143177527Y-89097815D01*
X143181831Y-89095339D01*
X143186002Y-89092665D01*
X143190031Y-89089798D01*
X143193914Y-89086746D01*
X143197644Y-89083515D01*
X143201213Y-89080111D01*
X143204616Y-89076541D01*
X143207847Y-89072811D01*
X143210898Y-89068927D01*
X143213764Y-89064897D01*
X143216437Y-89060726D01*
X143218912Y-89056421D01*
X143221182Y-89051988D01*
X143223240Y-89047435D01*
X143225080Y-89042766D01*
X143226696Y-89037990D01*
X143228080Y-89033112D01*
X143229228Y-89028138D01*
X143230132Y-89023076D01*
X143230785Y-89017932D01*
X143231182Y-89012711D01*
X143231315Y-89007421D01*
X143231181Y-89002131D01*
X143230784Y-88996910D01*
X143230131Y-88991765D01*
X143229227Y-88986702D01*
X143228079Y-88981729D01*
X143226694Y-88976850D01*
X143225078Y-88972073D01*
X143223237Y-88967405D01*
X143221179Y-88962851D01*
X143218908Y-88958418D01*
X143216433Y-88954113D01*
X143213760Y-88949942D01*
X143210894Y-88945912D01*
X143207842Y-88942028D01*
X143204611Y-88938298D01*
X143201208Y-88934728D01*
X143197638Y-88931324D01*
X143193908Y-88928093D01*
X143190025Y-88925041D01*
X143185994Y-88922175D01*
X143181824Y-88919501D01*
X143177519Y-88917025D01*
X143173087Y-88914755D01*
X143168533Y-88912696D01*
X143163865Y-88910855D01*
X143159089Y-88909239D01*
X143154211Y-88907854D01*
X143149238Y-88906706D01*
X143144176Y-88905801D01*
X143139031Y-88905148D01*
X143133811Y-88904750D01*
X143128525Y-88904616D01*
X143123430Y-88904742D01*
X143118367Y-88905119D01*
X143113347Y-88905742D01*
X143108378Y-88906609D01*
X143103469Y-88907716D01*
X143098628Y-88909059D01*
X143093864Y-88910635D01*
X143089185Y-88912440D01*
X143084600Y-88914472D01*
X143080117Y-88916726D01*
X143075744Y-88919198D01*
X143071490Y-88921887D01*
X143067364Y-88924787D01*
X143063373Y-88927896D01*
X143059526Y-88931210D01*
X143055832Y-88934725D01*
X143052317Y-88938420D01*
X143049003Y-88942266D01*
X143045894Y-88946257D01*
X143042993Y-88950384D01*
X143040305Y-88954638D01*
X143037832Y-88959010D01*
X143035578Y-88963494D01*
X143033547Y-88968079D01*
X143031741Y-88972758D01*
X143030165Y-88977521D01*
X143028822Y-88982362D01*
X143027715Y-88987271D01*
X143026849Y-88992240D01*
X143026225Y-88997260D01*
X143025849Y-89002323D01*
X143025723Y-89007421D01*
X142856027Y-89007421D01*
X143265290Y-88257906D01*
X143421479Y-88257906D01*
X143421613Y-88263197D01*
X143422010Y-88268418D01*
X143422664Y-88273563D01*
X143423567Y-88278626D01*
X143424715Y-88283599D01*
X143426100Y-88288478D01*
X143427717Y-88293255D01*
X143429557Y-88297923D01*
X143431616Y-88302477D01*
X143433886Y-88306910D01*
X143436361Y-88311215D01*
X143439034Y-88315386D01*
X143441900Y-88319416D01*
X143444952Y-88323300D01*
X143448183Y-88327030D01*
X143451586Y-88330600D01*
X143455156Y-88334004D01*
X143458886Y-88337235D01*
X143462769Y-88340287D01*
X143466800Y-88343153D01*
X143470970Y-88345827D01*
X143475275Y-88348303D01*
X143479707Y-88350573D01*
X143484261Y-88352632D01*
X143488929Y-88354473D01*
X143493705Y-88356089D01*
X143498583Y-88357474D01*
X143503556Y-88358622D01*
X143508618Y-88359526D01*
X143513763Y-88360180D01*
X143518983Y-88360578D01*
X143524273Y-88360712D01*
X143529370Y-88360586D01*
X143534432Y-88360209D01*
X143539451Y-88359586D01*
X143544419Y-88358719D01*
X143549328Y-88357612D01*
X143554168Y-88356269D01*
X143558931Y-88354693D01*
X143563610Y-88352888D01*
X143568195Y-88350856D01*
X143572678Y-88348602D01*
X143577050Y-88346129D01*
X143581304Y-88343441D01*
X143585431Y-88340541D01*
X143589421Y-88337432D01*
X143593268Y-88334118D01*
X143596962Y-88330602D01*
X143600478Y-88326908D01*
X143603792Y-88323062D01*
X143606900Y-88319071D01*
X143609801Y-88314944D01*
X143612489Y-88310690D01*
X143614962Y-88306318D01*
X143617216Y-88301834D01*
X143619247Y-88297249D01*
X143621053Y-88292570D01*
X143622629Y-88287806D01*
X143623972Y-88282966D01*
X143625079Y-88278057D01*
X143625945Y-88273088D01*
X143626569Y-88268068D01*
X143626945Y-88263004D01*
X143627071Y-88257906D01*
X143626945Y-88252807D01*
X143626568Y-88247743D01*
X143625944Y-88242722D01*
X143625077Y-88237752D01*
X143623970Y-88232843D01*
X143622627Y-88228002D01*
X143621051Y-88223237D01*
X143619245Y-88218558D01*
X143617213Y-88213973D01*
X143614959Y-88209490D01*
X143612486Y-88205117D01*
X143609797Y-88200863D01*
X143606896Y-88196737D01*
X143603787Y-88192746D01*
X143600473Y-88188900D01*
X143596957Y-88185206D01*
X143593263Y-88181691D01*
X143589416Y-88178377D01*
X143585425Y-88175268D01*
X143581298Y-88172368D01*
X143577044Y-88169680D01*
X143572671Y-88167207D01*
X143568188Y-88164954D01*
X143563603Y-88162923D01*
X143558924Y-88161117D01*
X143554160Y-88159542D01*
X143549319Y-88158199D01*
X143544410Y-88157093D01*
X143539441Y-88156226D01*
X143534421Y-88155603D01*
X143529357Y-88155227D01*
X143524263Y-88155102D01*
X143518976Y-88155236D01*
X143513756Y-88155633D01*
X143508612Y-88156288D01*
X143503550Y-88157192D01*
X143498576Y-88158340D01*
X143493698Y-88159726D01*
X143488922Y-88161343D01*
X143484254Y-88163184D01*
X143479701Y-88165243D01*
X143475269Y-88167513D01*
X143470964Y-88169989D01*
X143466794Y-88172663D01*
X143462764Y-88175530D01*
X143458881Y-88178582D01*
X143455151Y-88181813D01*
X143451582Y-88185217D01*
X143448178Y-88188787D01*
X143444948Y-88192517D01*
X143441896Y-88196401D01*
X143439031Y-88200431D01*
X143436357Y-88204602D01*
X143433882Y-88208907D01*
X143431613Y-88213340D01*
X143429554Y-88217893D01*
X143427714Y-88222562D01*
X143426098Y-88227338D01*
X143424714Y-88232216D01*
X143423566Y-88237190D01*
X143422662Y-88242252D01*
X143422009Y-88247396D01*
X143421613Y-88252617D01*
X143421479Y-88257906D01*
X143265290Y-88257906D01*
X143598823Y-87647081D01*
X143755433Y-87647081D01*
X143755567Y-87652369D01*
X143755963Y-87657588D01*
X143756617Y-87662731D01*
X143757521Y-87667791D01*
X143758668Y-87672763D01*
X143760053Y-87677640D01*
X143761669Y-87682415D01*
X143763509Y-87687082D01*
X143765567Y-87691635D01*
X143767837Y-87696066D01*
X143770311Y-87700370D01*
X143772984Y-87704541D01*
X143775850Y-87708570D01*
X143778901Y-87712453D01*
X143782131Y-87716183D01*
X143785534Y-87719752D01*
X143789103Y-87723156D01*
X143792832Y-87726387D01*
X143796715Y-87729438D01*
X143800744Y-87732304D01*
X143804914Y-87734978D01*
X143809218Y-87737454D01*
X143813649Y-87739724D01*
X143818202Y-87741783D01*
X143822869Y-87743624D01*
X143827645Y-87745241D01*
X143832522Y-87746627D01*
X143837495Y-87747775D01*
X143842556Y-87748680D01*
X143847700Y-87749335D01*
X143852919Y-87749733D01*
X143858208Y-87749868D01*
X143863499Y-87749734D01*
X143868721Y-87749338D01*
X143873866Y-87748684D01*
X143878929Y-87747781D01*
X143883903Y-87746633D01*
X143888782Y-87745248D01*
X143893559Y-87743633D01*
X143898228Y-87741792D01*
X143902782Y-87739734D01*
X143907215Y-87737464D01*
X143911521Y-87734990D01*
X143915692Y-87732316D01*
X143919723Y-87729451D01*
X143923607Y-87726399D01*
X143927338Y-87723169D01*
X143930908Y-87719765D01*
X143934312Y-87716195D01*
X143937544Y-87712466D01*
X143940596Y-87708583D01*
X143943463Y-87704553D01*
X143946137Y-87700382D01*
X143948613Y-87696078D01*
X143950883Y-87691646D01*
X143952942Y-87687093D01*
X143954784Y-87682425D01*
X143956400Y-87677648D01*
X143957786Y-87672771D01*
X143958934Y-87667797D01*
X143959839Y-87662735D01*
X143960493Y-87657591D01*
X143960891Y-87652371D01*
X143961025Y-87647081D01*
X143960899Y-87641982D01*
X143960522Y-87636917D01*
X143959898Y-87631896D01*
X143959031Y-87626927D01*
X143957924Y-87622017D01*
X143956581Y-87617176D01*
X143955004Y-87612412D01*
X143953199Y-87607733D01*
X143951167Y-87603147D01*
X143948913Y-87598664D01*
X143946439Y-87594291D01*
X143943751Y-87590037D01*
X143940850Y-87585911D01*
X143937741Y-87581920D01*
X143934427Y-87578074D01*
X143930911Y-87574380D01*
X143927217Y-87570865D01*
X143923370Y-87567551D01*
X143919379Y-87564443D01*
X143915252Y-87561542D01*
X143910998Y-87558854D01*
X143906625Y-87556382D01*
X143902142Y-87554128D01*
X143897556Y-87552097D01*
X143892878Y-87550292D01*
X143888113Y-87548716D01*
X143883273Y-87547373D01*
X143878364Y-87546267D01*
X143873395Y-87545400D01*
X143868374Y-87544777D01*
X143863311Y-87544401D01*
X143858216Y-87544276D01*
X143852930Y-87544410D01*
X143847710Y-87544808D01*
X143842565Y-87545462D01*
X143837503Y-87546366D01*
X143832530Y-87547515D01*
X143827652Y-87548900D01*
X143822876Y-87550517D01*
X143818208Y-87552358D01*
X143813655Y-87554417D01*
X143809223Y-87556688D01*
X143804918Y-87559163D01*
X143800748Y-87561837D01*
X143796718Y-87564704D01*
X143792835Y-87567756D01*
X143789105Y-87570987D01*
X143785535Y-87574391D01*
X143782132Y-87577961D01*
X143778901Y-87581692D01*
X143775850Y-87585575D01*
X143772984Y-87589606D01*
X143770311Y-87593777D01*
X143767836Y-87598082D01*
X143765566Y-87602514D01*
X143763508Y-87607068D01*
X143761668Y-87611736D01*
X143760052Y-87616512D01*
X143758667Y-87621390D01*
X143757520Y-87626364D01*
X143756616Y-87631426D01*
X143755963Y-87636571D01*
X143755566Y-87641791D01*
X143755433Y-87647081D01*
X143598823Y-87647081D01*
X143811401Y-87257769D01*
X144084250Y-86748730D01*
X144236034Y-86748730D01*
X144236160Y-86753829D01*
X144236537Y-86758894D01*
X144237161Y-86763915D01*
X144238028Y-86768884D01*
X144239135Y-86773794D01*
X144240478Y-86778635D01*
X144242055Y-86783399D01*
X144243860Y-86788078D01*
X144245892Y-86792664D01*
X144248146Y-86797147D01*
X144250619Y-86801520D01*
X144253308Y-86805773D01*
X144256209Y-86809900D01*
X144259318Y-86813891D01*
X144262632Y-86817737D01*
X144266148Y-86821431D01*
X144269842Y-86824946D01*
X144273689Y-86828260D01*
X144277680Y-86831368D01*
X144281807Y-86834268D01*
X144286061Y-86836957D01*
X144290434Y-86839429D01*
X144294917Y-86841683D01*
X144299502Y-86843714D01*
X144304181Y-86845519D01*
X144308945Y-86847095D01*
X144313786Y-86848438D01*
X144318695Y-86849544D01*
X144323664Y-86850410D01*
X144328684Y-86851033D01*
X144333748Y-86851409D01*
X144338846Y-86851535D01*
X144343943Y-86851409D01*
X144349005Y-86851033D01*
X144354024Y-86850409D01*
X144358992Y-86849543D01*
X144363901Y-86848436D01*
X144368741Y-86847093D01*
X144373504Y-86845517D01*
X144378183Y-86843711D01*
X144382768Y-86841680D01*
X144387251Y-86839426D01*
X144391623Y-86836953D01*
X144395877Y-86834265D01*
X144400004Y-86831364D01*
X144403994Y-86828255D01*
X144407841Y-86824942D01*
X144411535Y-86821426D01*
X144415051Y-86817732D01*
X144418364Y-86813885D01*
X144421473Y-86809894D01*
X144424374Y-86805768D01*
X144427062Y-86801514D01*
X144429535Y-86797141D01*
X144431789Y-86792658D01*
X144433820Y-86788073D01*
X144435626Y-86783394D01*
X144437202Y-86778630D01*
X144438545Y-86773789D01*
X144439652Y-86768880D01*
X144440518Y-86763912D01*
X144441142Y-86758891D01*
X144441518Y-86753828D01*
X144441644Y-86748730D01*
X144441510Y-86743441D01*
X144441113Y-86738222D01*
X144440460Y-86733078D01*
X144439556Y-86728017D01*
X144438408Y-86723044D01*
X144437023Y-86718167D01*
X144435407Y-86713391D01*
X144433566Y-86708724D01*
X144431508Y-86704171D01*
X144429238Y-86699739D01*
X144426762Y-86695435D01*
X144424089Y-86691264D01*
X144421223Y-86687235D01*
X144418171Y-86683352D01*
X144414940Y-86679622D01*
X144411537Y-86676052D01*
X144407967Y-86672649D01*
X144404237Y-86669418D01*
X144400354Y-86666366D01*
X144396324Y-86663500D01*
X144392153Y-86660826D01*
X144387848Y-86658351D01*
X144383416Y-86656081D01*
X144378863Y-86654023D01*
X144374195Y-86652182D01*
X144369418Y-86650566D01*
X144364540Y-86649180D01*
X144359567Y-86648032D01*
X144354505Y-86647128D01*
X144349361Y-86646474D01*
X144344140Y-86646077D01*
X144338850Y-86645943D01*
X144338839Y-86645943D01*
X144333549Y-86646076D01*
X144328329Y-86646473D01*
X144323184Y-86647126D01*
X144318122Y-86648030D01*
X144313149Y-86649177D01*
X144308271Y-86650562D01*
X144303494Y-86652178D01*
X144298826Y-86654018D01*
X144294272Y-86656076D01*
X144289840Y-86658346D01*
X144285535Y-86660821D01*
X144281364Y-86663495D01*
X144277333Y-86666360D01*
X144273450Y-86669412D01*
X144269720Y-86672642D01*
X144266149Y-86676046D01*
X144262745Y-86679615D01*
X144259514Y-86683345D01*
X144256462Y-86687228D01*
X144253596Y-86691258D01*
X144250921Y-86695428D01*
X144248446Y-86699733D01*
X144246175Y-86704165D01*
X144244116Y-86708718D01*
X144242275Y-86713386D01*
X144240659Y-86718162D01*
X144239273Y-86723040D01*
X144238125Y-86728013D01*
X144237220Y-86733075D01*
X144236566Y-86738220D01*
X144236168Y-86743440D01*
X144236034Y-86748730D01*
X144084250Y-86748730D01*
X144289871Y-86365115D01*
X144434730Y-86090390D01*
X144616652Y-86090390D01*
X144616785Y-86095681D01*
X144617182Y-86100902D01*
X144617836Y-86106047D01*
X144618740Y-86111109D01*
X144619888Y-86116083D01*
X144621273Y-86120962D01*
X144622889Y-86125738D01*
X144624729Y-86130407D01*
X144626788Y-86134961D01*
X144629058Y-86139393D01*
X144631533Y-86143699D01*
X144634207Y-86147870D01*
X144637073Y-86151900D01*
X144640124Y-86155784D01*
X144643355Y-86159514D01*
X144646759Y-86163084D01*
X144650329Y-86166488D01*
X144654059Y-86169719D01*
X144657942Y-86172771D01*
X144661972Y-86175637D01*
X144666143Y-86178311D01*
X144670447Y-86180787D01*
X144674880Y-86183057D01*
X144679433Y-86185116D01*
X144684101Y-86186956D01*
X144688877Y-86188573D01*
X144693755Y-86189958D01*
X144698729Y-86191106D01*
X144703791Y-86192010D01*
X144708935Y-86192664D01*
X144714156Y-86193061D01*
X144719445Y-86193195D01*
X144724542Y-86193069D01*
X144729604Y-86192693D01*
X144734624Y-86192070D01*
X144739592Y-86191203D01*
X144744500Y-86190096D01*
X144749340Y-86188753D01*
X144754104Y-86187177D01*
X144758782Y-86185372D01*
X144763367Y-86183340D01*
X144767850Y-86181086D01*
X144772223Y-86178613D01*
X144776477Y-86175925D01*
X144780603Y-86173025D01*
X144784594Y-86169916D01*
X144788441Y-86166602D01*
X144792135Y-86163086D01*
X144795650Y-86159392D01*
X144798964Y-86155546D01*
X144802073Y-86151555D01*
X144804973Y-86147428D01*
X144807662Y-86143174D01*
X144810135Y-86138802D01*
X144812388Y-86134318D01*
X144814420Y-86129733D01*
X144816225Y-86125054D01*
X144817801Y-86120290D01*
X144819144Y-86115450D01*
X144820251Y-86110541D01*
X144821118Y-86105572D01*
X144821741Y-86100552D01*
X144822118Y-86095488D01*
X144822244Y-86090390D01*
X144822117Y-86085291D01*
X144821741Y-86080227D01*
X144821117Y-86075206D01*
X144820250Y-86070236D01*
X144819143Y-86065327D01*
X144817799Y-86060485D01*
X144816223Y-86055721D01*
X144814417Y-86051042D01*
X144812385Y-86046457D01*
X144810131Y-86041973D01*
X144807658Y-86037601D01*
X144804969Y-86033347D01*
X144802069Y-86029220D01*
X144798960Y-86025230D01*
X144795646Y-86021383D01*
X144792130Y-86017689D01*
X144788435Y-86014174D01*
X144784589Y-86010861D01*
X144780598Y-86007752D01*
X144776471Y-86004852D01*
X144772217Y-86002164D01*
X144767844Y-85999691D01*
X144763360Y-85997438D01*
X144758775Y-85995406D01*
X144754096Y-85993601D01*
X144749332Y-85992026D01*
X144744491Y-85990683D01*
X144739582Y-85989576D01*
X144734613Y-85988710D01*
X144729593Y-85988087D01*
X144724530Y-85987711D01*
X144719435Y-85987585D01*
X144714149Y-85987720D01*
X144708928Y-85988117D01*
X144703784Y-85988771D01*
X144698722Y-85989676D01*
X144693749Y-85990824D01*
X144688871Y-85992210D01*
X144684095Y-85993827D01*
X144679427Y-85995668D01*
X144674874Y-85997727D01*
X144670441Y-85999997D01*
X144666137Y-86002473D01*
X144661966Y-86005147D01*
X144657936Y-86008013D01*
X144654053Y-86011065D01*
X144650324Y-86014297D01*
X144646754Y-86017701D01*
X144643351Y-86021271D01*
X144640120Y-86025001D01*
X144637069Y-86028885D01*
X144634203Y-86032915D01*
X144631530Y-86037086D01*
X144629055Y-86041391D01*
X144626785Y-86045824D01*
X144624727Y-86050377D01*
X144622887Y-86055045D01*
X144621271Y-86059822D01*
X144619886Y-86064700D01*
X144618739Y-86069673D01*
X144617835Y-86074736D01*
X144617182Y-86079880D01*
X144616785Y-86085101D01*
X144616652Y-86090390D01*
X144434730Y-86090390D01*
X144738900Y-85513532D01*
X144604336Y-85509350D01*
X144470348Y-85504271D01*
X144134609Y-86091990D01*
X143585490Y-87053238D01*
X143386174Y-86511287D01*
X143626263Y-86088791D01*
X143783214Y-86088791D01*
X143783259Y-86093814D01*
X143783548Y-86098823D01*
X143784082Y-86103809D01*
X143784857Y-86108763D01*
X143785874Y-86113677D01*
X143787131Y-86118540D01*
X143788627Y-86123344D01*
X143790360Y-86128081D01*
X143792330Y-86132740D01*
X143794536Y-86137313D01*
X143796975Y-86141791D01*
X143799633Y-86146142D01*
X143802491Y-86150338D01*
X143805541Y-86154374D01*
X143808776Y-86158243D01*
X143812189Y-86161941D01*
X143815772Y-86165461D01*
X143819519Y-86168798D01*
X143823422Y-86171947D01*
X143827473Y-86174902D01*
X143831667Y-86177657D01*
X143835994Y-86180207D01*
X143840449Y-86182546D01*
X143845024Y-86184670D01*
X143849711Y-86186571D01*
X143854504Y-86188245D01*
X143859395Y-86189687D01*
X143864352Y-86190884D01*
X143869340Y-86191830D01*
X143874350Y-86192527D01*
X143879374Y-86192976D01*
X143884401Y-86193177D01*
X143889424Y-86193133D01*
X143894433Y-86192843D01*
X143899420Y-86192310D01*
X143904374Y-86191534D01*
X143909287Y-86190517D01*
X143914151Y-86189260D01*
X143918955Y-86187765D01*
X143923691Y-86186031D01*
X143928351Y-86184061D01*
X143932923Y-86181856D01*
X143937401Y-86179417D01*
X143941753Y-86176758D01*
X143945949Y-86173901D01*
X143949984Y-86170851D01*
X143953854Y-86167616D01*
X143957551Y-86164203D01*
X143961071Y-86160619D01*
X143964409Y-86156873D01*
X143967557Y-86152970D01*
X143970512Y-86148918D01*
X143973268Y-86144725D01*
X143975818Y-86140397D01*
X143978157Y-86135942D01*
X143980280Y-86131368D01*
X143982182Y-86126680D01*
X143983856Y-86121887D01*
X143985297Y-86116996D01*
X143986495Y-86112039D01*
X143987441Y-86107052D01*
X143988138Y-86102041D01*
X143988587Y-86097018D01*
X143988788Y-86091990D01*
X143988743Y-86086967D01*
X143988454Y-86081958D01*
X143987921Y-86076972D01*
X143987145Y-86072017D01*
X143986128Y-86067104D01*
X143984871Y-86062241D01*
X143983375Y-86057436D01*
X143981642Y-86052700D01*
X143979672Y-86048041D01*
X143977467Y-86043468D01*
X143975027Y-86038990D01*
X143972369Y-86034639D01*
X143969511Y-86030443D01*
X143966461Y-86026407D01*
X143963226Y-86022538D01*
X143959814Y-86018840D01*
X143956230Y-86015320D01*
X143952483Y-86011983D01*
X143948581Y-86008834D01*
X143944529Y-86005879D01*
X143940336Y-86003124D01*
X143936008Y-86000574D01*
X143931553Y-85998234D01*
X143926978Y-85996111D01*
X143922291Y-85994210D01*
X143917498Y-85992535D01*
X143912607Y-85991094D01*
X143909341Y-85990275D01*
X143906052Y-85989564D01*
X143902744Y-85988962D01*
X143899419Y-85988468D01*
X143896079Y-85988083D01*
X143892728Y-85987807D01*
X143889368Y-85987641D01*
X143886001Y-85987585D01*
X143881657Y-85987676D01*
X143877350Y-85987947D01*
X143873087Y-85988395D01*
X143868869Y-85989016D01*
X143864703Y-85989808D01*
X143860591Y-85990766D01*
X143852549Y-85993171D01*
X143844778Y-85996206D01*
X143837310Y-85999845D01*
X143830179Y-86004062D01*
X143823419Y-86008831D01*
X143817063Y-86014127D01*
X143811145Y-86019924D01*
X143805698Y-86026196D01*
X143800756Y-86032918D01*
X143796352Y-86040063D01*
X143794362Y-86043787D01*
X143792520Y-86047606D01*
X143790828Y-86051519D01*
X143789293Y-86055522D01*
X143787917Y-86059612D01*
X143786705Y-86063785D01*
X143785508Y-86068741D01*
X143784561Y-86073729D01*
X143783864Y-86078739D01*
X143783416Y-86083763D01*
X143783214Y-86088791D01*
X143626263Y-86088791D01*
X144051844Y-85339873D01*
X144212702Y-85339873D01*
X144212747Y-85344896D01*
X144213036Y-85349905D01*
X144213570Y-85354891D01*
X144214345Y-85359845D01*
X144215362Y-85364759D01*
X144216619Y-85369622D01*
X144218115Y-85374426D01*
X144219848Y-85379163D01*
X144221818Y-85383822D01*
X144224023Y-85388395D01*
X144226463Y-85392872D01*
X144229121Y-85397224D01*
X144231979Y-85401420D01*
X144235029Y-85405456D01*
X144238264Y-85409325D01*
X144241677Y-85413022D01*
X144245260Y-85416543D01*
X144249007Y-85419880D01*
X144252910Y-85423029D01*
X144256961Y-85425983D01*
X144261155Y-85428739D01*
X144265482Y-85431289D01*
X144269937Y-85433628D01*
X144274512Y-85435752D01*
X144279199Y-85437653D01*
X144283992Y-85439327D01*
X144288883Y-85440769D01*
X144293840Y-85441966D01*
X144298828Y-85442912D01*
X144303838Y-85443609D01*
X144308862Y-85444058D01*
X144313889Y-85444259D01*
X144318912Y-85444214D01*
X144323921Y-85443925D01*
X144328908Y-85443392D01*
X144333862Y-85442616D01*
X144338775Y-85441599D01*
X144343639Y-85440342D01*
X144348443Y-85438847D01*
X144353179Y-85437113D01*
X144357838Y-85435143D01*
X144362411Y-85432938D01*
X144366889Y-85430499D01*
X144371241Y-85427840D01*
X144375437Y-85424983D01*
X144379472Y-85421933D01*
X144383342Y-85418698D01*
X144387039Y-85415285D01*
X144390559Y-85411701D01*
X144393897Y-85407955D01*
X144397045Y-85404052D01*
X144400000Y-85400000D01*
X144402755Y-85395807D01*
X144405306Y-85391479D01*
X144407645Y-85387024D01*
X144409768Y-85382449D01*
X144411670Y-85377762D01*
X144413344Y-85372969D01*
X144414785Y-85368078D01*
X144415983Y-85363121D01*
X144416929Y-85358133D01*
X144417626Y-85353123D01*
X144418075Y-85348100D01*
X144418276Y-85343072D01*
X144418262Y-85341472D01*
X144953517Y-85341472D01*
X144953557Y-85343072D01*
X144953644Y-85346571D01*
X144954020Y-85351636D01*
X144954644Y-85356657D01*
X144955511Y-85361627D01*
X144956618Y-85366536D01*
X144957961Y-85371377D01*
X144959538Y-85376142D01*
X144961344Y-85380821D01*
X144963375Y-85385406D01*
X144965630Y-85389889D01*
X144968103Y-85394262D01*
X144970791Y-85398516D01*
X144973692Y-85402642D01*
X144976801Y-85406633D01*
X144980115Y-85410479D01*
X144983631Y-85414173D01*
X144987325Y-85417688D01*
X144991172Y-85421002D01*
X144995163Y-85424111D01*
X144999290Y-85427011D01*
X145003544Y-85429699D01*
X145007917Y-85432171D01*
X145012400Y-85434425D01*
X145016986Y-85436456D01*
X145021665Y-85438261D01*
X145026429Y-85439837D01*
X145031270Y-85441180D01*
X145036179Y-85442286D01*
X145041148Y-85443153D01*
X145046168Y-85443776D01*
X145051231Y-85444152D01*
X145056329Y-85444277D01*
X145061426Y-85444151D01*
X145066488Y-85443775D01*
X145071508Y-85443152D01*
X145076476Y-85442285D01*
X145081384Y-85441178D01*
X145086224Y-85439835D01*
X145090988Y-85438259D01*
X145095666Y-85436454D01*
X145100251Y-85434422D01*
X145104734Y-85432168D01*
X145109107Y-85429695D01*
X145113360Y-85427007D01*
X145117487Y-85424107D01*
X145121478Y-85420998D01*
X145125324Y-85417684D01*
X145129019Y-85414168D01*
X145132534Y-85410474D01*
X145135848Y-85406628D01*
X145138957Y-85402637D01*
X145141857Y-85398510D01*
X145144545Y-85394256D01*
X145147018Y-85389884D01*
X145149272Y-85385400D01*
X145151304Y-85380815D01*
X145153109Y-85376136D01*
X145154685Y-85371372D01*
X145156028Y-85366532D01*
X145157135Y-85361623D01*
X145158002Y-85356654D01*
X145158625Y-85351634D01*
X145159001Y-85346570D01*
X145159127Y-85341472D01*
X145159001Y-85336373D01*
X145158624Y-85331309D01*
X145158001Y-85326288D01*
X145157134Y-85321318D01*
X145156027Y-85316408D01*
X145154683Y-85311567D01*
X145153107Y-85306803D01*
X145151301Y-85302124D01*
X145149269Y-85297539D01*
X145147015Y-85293055D01*
X145144542Y-85288683D01*
X145141853Y-85284429D01*
X145138953Y-85280302D01*
X145135844Y-85276312D01*
X145132529Y-85272465D01*
X145129014Y-85268771D01*
X145125319Y-85265256D01*
X145121472Y-85261942D01*
X145117481Y-85258834D01*
X145113355Y-85255934D01*
X145109101Y-85253246D01*
X145104728Y-85250773D01*
X145100244Y-85248519D01*
X145095659Y-85246488D01*
X145090980Y-85244683D01*
X145086216Y-85243107D01*
X145081375Y-85241765D01*
X145076466Y-85240658D01*
X145071497Y-85239792D01*
X145066477Y-85239169D01*
X145061413Y-85238793D01*
X145056319Y-85238667D01*
X145051224Y-85238793D01*
X145046161Y-85239170D01*
X145041141Y-85239793D01*
X145036172Y-85240660D01*
X145031263Y-85241766D01*
X145026422Y-85243109D01*
X145021658Y-85244685D01*
X145016979Y-85246491D01*
X145012394Y-85248522D01*
X145007911Y-85250776D01*
X145003538Y-85253249D01*
X144999284Y-85255938D01*
X144995158Y-85258838D01*
X144991167Y-85261947D01*
X144987320Y-85265261D01*
X144983626Y-85268776D01*
X144980111Y-85272470D01*
X144976797Y-85276317D01*
X144973688Y-85280308D01*
X144970788Y-85284434D01*
X144968099Y-85288688D01*
X144965626Y-85293061D01*
X144963372Y-85297544D01*
X144961341Y-85302129D01*
X144959536Y-85306808D01*
X144957959Y-85311572D01*
X144956616Y-85316413D01*
X144955510Y-85321322D01*
X144954643Y-85326291D01*
X144954020Y-85331311D01*
X144953643Y-85336374D01*
X144953517Y-85341472D01*
X144418262Y-85341472D01*
X144418231Y-85338049D01*
X144417942Y-85333040D01*
X144417408Y-85328054D01*
X144416633Y-85323099D01*
X144415616Y-85318186D01*
X144414359Y-85313322D01*
X144412863Y-85308518D01*
X144411130Y-85303782D01*
X144409160Y-85299123D01*
X144406955Y-85294550D01*
X144404515Y-85290072D01*
X144401857Y-85285721D01*
X144398999Y-85281524D01*
X144395949Y-85277489D01*
X144392714Y-85273620D01*
X144389302Y-85269922D01*
X144385718Y-85266402D01*
X144381971Y-85263065D01*
X144378069Y-85259916D01*
X144374017Y-85256961D01*
X144369824Y-85254206D01*
X144365496Y-85251656D01*
X144361041Y-85249316D01*
X144356466Y-85247193D01*
X144351779Y-85245292D01*
X144346986Y-85243617D01*
X144342095Y-85242176D01*
X144338829Y-85241357D01*
X144335540Y-85240646D01*
X144332232Y-85240044D01*
X144328907Y-85239550D01*
X144325567Y-85239165D01*
X144322216Y-85238889D01*
X144318856Y-85238723D01*
X144315489Y-85238667D01*
X144311145Y-85238758D01*
X144306838Y-85239029D01*
X144302574Y-85239477D01*
X144298357Y-85240098D01*
X144294191Y-85240890D01*
X144290079Y-85241848D01*
X144282037Y-85244253D01*
X144274266Y-85247288D01*
X144266798Y-85250927D01*
X144259667Y-85255144D01*
X144252907Y-85259913D01*
X144246551Y-85265209D01*
X144240633Y-85271006D01*
X144235186Y-85277278D01*
X144230244Y-85283999D01*
X144225840Y-85291145D01*
X144223850Y-85294868D01*
X144222007Y-85298688D01*
X144220316Y-85302601D01*
X144218781Y-85306604D01*
X144217405Y-85310694D01*
X144216193Y-85314867D01*
X144214995Y-85319823D01*
X144214049Y-85324811D01*
X144213352Y-85329821D01*
X144212903Y-85334845D01*
X144212702Y-85339873D01*
X144051844Y-85339873D01*
X144195393Y-85087263D01*
X145482066Y-85086937D01*
X145350461Y-85333451D01*
X145346150Y-85341472D01*
X145244842Y-85529998D01*
G37*
G36*
X141628171Y-85092906D02*
G01*
X142219039Y-86251410D01*
X142207892Y-86251550D01*
X142191404Y-86251427D01*
X142148949Y-86250779D01*
X142104754Y-86250230D01*
X142086092Y-86250231D01*
X142071900Y-86250543D01*
X141771408Y-85677671D01*
X141567106Y-85285975D01*
X141469154Y-85094018D01*
X141489744Y-85093460D01*
X141514215Y-85093094D01*
X141566630Y-85092795D01*
X141628171Y-85092906D01*
G37*
G36*
X143570725Y-85093094D02*
G01*
X143595196Y-85093460D01*
X143615785Y-85094018D01*
X143549679Y-85222924D01*
X143415436Y-85475908D01*
X143216849Y-85847016D01*
X143202658Y-85846704D01*
X143183996Y-85846703D01*
X143139801Y-85847252D01*
X143097345Y-85847900D01*
X143080857Y-85848023D01*
X143069710Y-85847883D01*
X143456769Y-85092906D01*
X143518309Y-85092795D01*
X143570725Y-85093094D01*
G37*
D11*
X145438000Y-57518869D02*
X145438000Y-58280869D01*
X145927857Y-57518869D02*
X145927857Y-58117583D01*
X145927857Y-58117583D02*
X145873428Y-58226441D01*
X145873428Y-58226441D02*
X145764571Y-58280869D01*
X145764571Y-58280869D02*
X145601285Y-58280869D01*
X145601285Y-58280869D02*
X145492428Y-58226441D01*
X145492428Y-58226441D02*
X145438000Y-58172012D01*
X144948142Y-58226441D02*
X144839285Y-58280869D01*
X144839285Y-58280869D02*
X144621571Y-58280869D01*
X144621571Y-58280869D02*
X144512714Y-58226441D01*
X144512714Y-58226441D02*
X144458285Y-58117583D01*
X144458285Y-58117583D02*
X144458285Y-58063155D01*
X144458285Y-58063155D02*
X144512714Y-57954298D01*
X144512714Y-57954298D02*
X144621571Y-57899869D01*
X144621571Y-57899869D02*
X144784857Y-57899869D01*
X144784857Y-57899869D02*
X144893714Y-57845441D01*
X144893714Y-57845441D02*
X144948142Y-57736583D01*
X144948142Y-57736583D02*
X144948142Y-57682155D01*
X144948142Y-57682155D02*
X144893714Y-57573298D01*
X144893714Y-57573298D02*
X144784857Y-57518869D01*
X144784857Y-57518869D02*
X144621571Y-57518869D01*
X144621571Y-57518869D02*
X144512714Y-57573298D01*
X143968428Y-58280869D02*
X143968428Y-57137869D01*
X143968428Y-57573298D02*
X143859571Y-57518869D01*
X143859571Y-57518869D02*
X143641856Y-57518869D01*
X143641856Y-57518869D02*
X143532999Y-57573298D01*
X143532999Y-57573298D02*
X143478571Y-57627726D01*
X143478571Y-57627726D02*
X143424142Y-57736583D01*
X143424142Y-57736583D02*
X143424142Y-58063155D01*
X143424142Y-58063155D02*
X143478571Y-58172012D01*
X143478571Y-58172012D02*
X143532999Y-58226441D01*
X143532999Y-58226441D02*
X143641856Y-58280869D01*
X143641856Y-58280869D02*
X143859571Y-58280869D01*
X143859571Y-58280869D02*
X143968428Y-58226441D01*
X142063428Y-58280869D02*
X142063428Y-57137869D01*
X141573571Y-58280869D02*
X141573571Y-57682155D01*
X141573571Y-57682155D02*
X141627999Y-57573298D01*
X141627999Y-57573298D02*
X141736856Y-57518869D01*
X141736856Y-57518869D02*
X141900142Y-57518869D01*
X141900142Y-57518869D02*
X142008999Y-57573298D01*
X142008999Y-57573298D02*
X142063428Y-57627726D01*
X140593856Y-58226441D02*
X140702713Y-58280869D01*
X140702713Y-58280869D02*
X140920428Y-58280869D01*
X140920428Y-58280869D02*
X141029285Y-58226441D01*
X141029285Y-58226441D02*
X141083713Y-58117583D01*
X141083713Y-58117583D02*
X141083713Y-57682155D01*
X141083713Y-57682155D02*
X141029285Y-57573298D01*
X141029285Y-57573298D02*
X140920428Y-57518869D01*
X140920428Y-57518869D02*
X140702713Y-57518869D01*
X140702713Y-57518869D02*
X140593856Y-57573298D01*
X140593856Y-57573298D02*
X140539428Y-57682155D01*
X140539428Y-57682155D02*
X140539428Y-57791012D01*
X140539428Y-57791012D02*
X141083713Y-57899869D01*
X140049571Y-58280869D02*
X140049571Y-57518869D01*
X140049571Y-57736583D02*
X139995142Y-57627726D01*
X139995142Y-57627726D02*
X139940714Y-57573298D01*
X139940714Y-57573298D02*
X139831856Y-57518869D01*
X139831856Y-57518869D02*
X139722999Y-57518869D01*
X138906571Y-58226441D02*
X139015428Y-58280869D01*
X139015428Y-58280869D02*
X139233143Y-58280869D01*
X139233143Y-58280869D02*
X139342000Y-58226441D01*
X139342000Y-58226441D02*
X139396428Y-58117583D01*
X139396428Y-58117583D02*
X139396428Y-57682155D01*
X139396428Y-57682155D02*
X139342000Y-57573298D01*
X139342000Y-57573298D02*
X139233143Y-57518869D01*
X139233143Y-57518869D02*
X139015428Y-57518869D01*
X139015428Y-57518869D02*
X138906571Y-57573298D01*
X138906571Y-57573298D02*
X138852143Y-57682155D01*
X138852143Y-57682155D02*
X138852143Y-57791012D01*
X138852143Y-57791012D02*
X139396428Y-57899869D01*
X135308453Y-92314285D02*
X134408453Y-92314285D01*
X134408453Y-92314285D02*
X134408453Y-92657142D01*
X134408453Y-92657142D02*
X134451310Y-92742857D01*
X134451310Y-92742857D02*
X134494167Y-92785714D01*
X134494167Y-92785714D02*
X134579881Y-92828571D01*
X134579881Y-92828571D02*
X134708453Y-92828571D01*
X134708453Y-92828571D02*
X134794167Y-92785714D01*
X134794167Y-92785714D02*
X134837024Y-92742857D01*
X134837024Y-92742857D02*
X134879881Y-92657142D01*
X134879881Y-92657142D02*
X134879881Y-92314285D01*
X134408453Y-93385714D02*
X134408453Y-93557142D01*
X134408453Y-93557142D02*
X134451310Y-93642857D01*
X134451310Y-93642857D02*
X134537024Y-93728571D01*
X134537024Y-93728571D02*
X134708453Y-93771428D01*
X134708453Y-93771428D02*
X135008453Y-93771428D01*
X135008453Y-93771428D02*
X135179881Y-93728571D01*
X135179881Y-93728571D02*
X135265596Y-93642857D01*
X135265596Y-93642857D02*
X135308453Y-93557142D01*
X135308453Y-93557142D02*
X135308453Y-93385714D01*
X135308453Y-93385714D02*
X135265596Y-93300000D01*
X135265596Y-93300000D02*
X135179881Y-93214285D01*
X135179881Y-93214285D02*
X135008453Y-93171428D01*
X135008453Y-93171428D02*
X134708453Y-93171428D01*
X134708453Y-93171428D02*
X134537024Y-93214285D01*
X134537024Y-93214285D02*
X134451310Y-93300000D01*
X134451310Y-93300000D02*
X134408453Y-93385714D01*
X134408453Y-94071428D02*
X135308453Y-94285714D01*
X135308453Y-94285714D02*
X134665596Y-94457142D01*
X134665596Y-94457142D02*
X135308453Y-94628571D01*
X135308453Y-94628571D02*
X134408453Y-94842857D01*
X134837024Y-95185713D02*
X134837024Y-95485713D01*
X135308453Y-95614285D02*
X135308453Y-95185713D01*
X135308453Y-95185713D02*
X134408453Y-95185713D01*
X134408453Y-95185713D02*
X134408453Y-95614285D01*
X135308453Y-96514285D02*
X134879881Y-96214285D01*
X135308453Y-95999999D02*
X134408453Y-95999999D01*
X134408453Y-95999999D02*
X134408453Y-96342856D01*
X134408453Y-96342856D02*
X134451310Y-96428571D01*
X134451310Y-96428571D02*
X134494167Y-96471428D01*
X134494167Y-96471428D02*
X134579881Y-96514285D01*
X134579881Y-96514285D02*
X134708453Y-96514285D01*
X134708453Y-96514285D02*
X134794167Y-96471428D01*
X134794167Y-96471428D02*
X134837024Y-96428571D01*
X134837024Y-96428571D02*
X134879881Y-96342856D01*
X134879881Y-96342856D02*
X134879881Y-95999999D01*
X148141714Y-63682869D02*
X147379714Y-64825869D01*
X147379714Y-63682869D02*
X148141714Y-64825869D01*
X146944286Y-64825869D02*
X146944286Y-63682869D01*
X146454428Y-64499298D02*
X145910143Y-64499298D01*
X146563285Y-64825869D02*
X146182285Y-63682869D01*
X146182285Y-63682869D02*
X145801285Y-64825869D01*
X145202571Y-63682869D02*
X144984857Y-63682869D01*
X144984857Y-63682869D02*
X144876000Y-63737298D01*
X144876000Y-63737298D02*
X144767143Y-63846155D01*
X144767143Y-63846155D02*
X144712714Y-64063869D01*
X144712714Y-64063869D02*
X144712714Y-64444869D01*
X144712714Y-64444869D02*
X144767143Y-64662583D01*
X144767143Y-64662583D02*
X144876000Y-64771441D01*
X144876000Y-64771441D02*
X144984857Y-64825869D01*
X144984857Y-64825869D02*
X145202571Y-64825869D01*
X145202571Y-64825869D02*
X145311429Y-64771441D01*
X145311429Y-64771441D02*
X145420286Y-64662583D01*
X145420286Y-64662583D02*
X145474714Y-64444869D01*
X145474714Y-64444869D02*
X145474714Y-64063869D01*
X145474714Y-64063869D02*
X145420286Y-63846155D01*
X145420286Y-63846155D02*
X145311429Y-63737298D01*
X145311429Y-63737298D02*
X145202571Y-63682869D01*
X142698857Y-64825869D02*
X143079857Y-64281583D01*
X143352000Y-64825869D02*
X143352000Y-63682869D01*
X143352000Y-63682869D02*
X142916571Y-63682869D01*
X142916571Y-63682869D02*
X142807714Y-63737298D01*
X142807714Y-63737298D02*
X142753285Y-63791726D01*
X142753285Y-63791726D02*
X142698857Y-63900583D01*
X142698857Y-63900583D02*
X142698857Y-64063869D01*
X142698857Y-64063869D02*
X142753285Y-64172726D01*
X142753285Y-64172726D02*
X142807714Y-64227155D01*
X142807714Y-64227155D02*
X142916571Y-64281583D01*
X142916571Y-64281583D02*
X143352000Y-64281583D01*
X142209000Y-64825869D02*
X142209000Y-63682869D01*
X142209000Y-63682869D02*
X141773571Y-63682869D01*
X141773571Y-63682869D02*
X141664714Y-63737298D01*
X141664714Y-63737298D02*
X141610285Y-63791726D01*
X141610285Y-63791726D02*
X141555857Y-63900583D01*
X141555857Y-63900583D02*
X141555857Y-64063869D01*
X141555857Y-64063869D02*
X141610285Y-64172726D01*
X141610285Y-64172726D02*
X141664714Y-64227155D01*
X141664714Y-64227155D02*
X141773571Y-64281583D01*
X141773571Y-64281583D02*
X142209000Y-64281583D01*
X141120428Y-63791726D02*
X141066000Y-63737298D01*
X141066000Y-63737298D02*
X140957143Y-63682869D01*
X140957143Y-63682869D02*
X140685000Y-63682869D01*
X140685000Y-63682869D02*
X140576143Y-63737298D01*
X140576143Y-63737298D02*
X140521714Y-63791726D01*
X140521714Y-63791726D02*
X140467285Y-63900583D01*
X140467285Y-63900583D02*
X140467285Y-64009441D01*
X140467285Y-64009441D02*
X140521714Y-64172726D01*
X140521714Y-64172726D02*
X141174857Y-64825869D01*
X141174857Y-64825869D02*
X140467285Y-64825869D01*
X139759714Y-63682869D02*
X139650857Y-63682869D01*
X139650857Y-63682869D02*
X139542000Y-63737298D01*
X139542000Y-63737298D02*
X139487572Y-63791726D01*
X139487572Y-63791726D02*
X139433143Y-63900583D01*
X139433143Y-63900583D02*
X139378714Y-64118298D01*
X139378714Y-64118298D02*
X139378714Y-64390441D01*
X139378714Y-64390441D02*
X139433143Y-64608155D01*
X139433143Y-64608155D02*
X139487572Y-64717012D01*
X139487572Y-64717012D02*
X139542000Y-64771441D01*
X139542000Y-64771441D02*
X139650857Y-64825869D01*
X139650857Y-64825869D02*
X139759714Y-64825869D01*
X139759714Y-64825869D02*
X139868572Y-64771441D01*
X139868572Y-64771441D02*
X139923000Y-64717012D01*
X139923000Y-64717012D02*
X139977429Y-64608155D01*
X139977429Y-64608155D02*
X140031857Y-64390441D01*
X140031857Y-64390441D02*
X140031857Y-64118298D01*
X140031857Y-64118298D02*
X139977429Y-63900583D01*
X139977429Y-63900583D02*
X139923000Y-63791726D01*
X139923000Y-63791726D02*
X139868572Y-63737298D01*
X139868572Y-63737298D02*
X139759714Y-63682869D01*
X138399001Y-64063869D02*
X138399001Y-64825869D01*
X138671143Y-63628441D02*
X138943286Y-64444869D01*
X138943286Y-64444869D02*
X138235715Y-64444869D01*
X137582572Y-63682869D02*
X137473715Y-63682869D01*
X137473715Y-63682869D02*
X137364858Y-63737298D01*
X137364858Y-63737298D02*
X137310430Y-63791726D01*
X137310430Y-63791726D02*
X137256001Y-63900583D01*
X137256001Y-63900583D02*
X137201572Y-64118298D01*
X137201572Y-64118298D02*
X137201572Y-64390441D01*
X137201572Y-64390441D02*
X137256001Y-64608155D01*
X137256001Y-64608155D02*
X137310430Y-64717012D01*
X137310430Y-64717012D02*
X137364858Y-64771441D01*
X137364858Y-64771441D02*
X137473715Y-64825869D01*
X137473715Y-64825869D02*
X137582572Y-64825869D01*
X137582572Y-64825869D02*
X137691430Y-64771441D01*
X137691430Y-64771441D02*
X137745858Y-64717012D01*
X137745858Y-64717012D02*
X137800287Y-64608155D01*
X137800287Y-64608155D02*
X137854715Y-64390441D01*
X137854715Y-64390441D02*
X137854715Y-64118298D01*
X137854715Y-64118298D02*
X137800287Y-63900583D01*
X137800287Y-63900583D02*
X137745858Y-63791726D01*
X137745858Y-63791726D02*
X137691430Y-63737298D01*
X137691430Y-63737298D02*
X137582572Y-63682869D01*
D15*
G36*
X143222500Y-119489502D02*
G01*
X141645668Y-119489502D01*
X141645668Y-120363922D01*
X141821523Y-120363922D01*
X141821523Y-119838922D01*
X142349087Y-119838922D01*
X142349087Y-120189990D01*
X142524942Y-120189990D01*
X142524942Y-119838922D01*
X143222500Y-119838922D01*
X143222500Y-119489502D01*
G37*
G36*
X142942858Y-120721147D02*
G01*
X143006323Y-120740266D01*
X143064930Y-120772054D01*
X143119643Y-120817572D01*
X143165117Y-120872279D01*
X143196877Y-120930884D01*
X143215981Y-120994352D01*
X143222500Y-121064044D01*
X143222500Y-121415112D01*
X143215936Y-121484808D01*
X143196694Y-121548286D01*
X143164686Y-121606920D01*
X143118818Y-121661675D01*
X143063683Y-121707305D01*
X143005047Y-121739084D01*
X142941981Y-121758140D01*
X142873171Y-121764624D01*
X142348354Y-121764624D01*
X142278672Y-121758110D01*
X142215076Y-121739005D01*
X142156220Y-121707216D01*
X142101150Y-121661675D01*
X142055238Y-121606914D01*
X142023202Y-121548279D01*
X142003946Y-121484803D01*
X141997377Y-121415112D01*
X141997377Y-121239624D01*
X142172500Y-121239624D01*
X142178251Y-121285087D01*
X142195221Y-121325764D01*
X142224157Y-121362997D01*
X142261214Y-121392145D01*
X142302054Y-121409285D01*
X142348080Y-121415112D01*
X142873080Y-121415112D01*
X142918011Y-121409410D01*
X142958298Y-121392569D01*
X142995262Y-121363821D01*
X143024079Y-121327064D01*
X143041106Y-121286149D01*
X143046919Y-121239624D01*
X143041105Y-121193035D01*
X143024078Y-121152059D01*
X142995262Y-121115243D01*
X142958304Y-121086550D01*
X142918017Y-121069737D01*
X142873080Y-121064044D01*
X142348080Y-121064044D01*
X142302023Y-121069828D01*
X142261182Y-121086828D01*
X142224157Y-121115701D01*
X142195284Y-121152726D01*
X142178284Y-121193567D01*
X142172500Y-121239624D01*
X141997377Y-121239624D01*
X141997377Y-121064044D01*
X142003880Y-120994796D01*
X142022967Y-120931522D01*
X142054751Y-120872884D01*
X142100326Y-120817938D01*
X142154997Y-120772331D01*
X142213829Y-120740424D01*
X142277813Y-120721197D01*
X142348354Y-120714624D01*
X142873171Y-120714624D01*
X142942858Y-120721147D01*
G37*
G36*
X143222500Y-122462090D02*
G01*
X143222500Y-122112670D01*
X141997377Y-122112670D01*
X141997377Y-122462090D01*
X142349087Y-122462090D01*
X142235207Y-122485161D01*
X142149241Y-122521847D01*
X142085305Y-122570350D01*
X142047932Y-122616740D01*
X142020645Y-122671485D01*
X142003469Y-122736230D01*
X141997377Y-122813158D01*
X141997377Y-122987090D01*
X142349087Y-122987090D01*
X142349087Y-122637670D01*
X142354828Y-122591583D01*
X142371688Y-122550740D01*
X142400286Y-122513747D01*
X142437008Y-122484835D01*
X142477368Y-122467856D01*
X142522744Y-122462090D01*
X143222500Y-122462090D01*
G37*
G36*
X142943090Y-123168462D02*
G01*
X143006585Y-123187583D01*
X143065206Y-123219372D01*
X143119918Y-123264885D01*
X143165436Y-123319598D01*
X143197224Y-123378205D01*
X143216342Y-123441670D01*
X143222866Y-123511357D01*
X143222866Y-123686937D01*
X143215608Y-123744394D01*
X143195463Y-123788399D01*
X143162740Y-123822269D01*
X143114954Y-123847286D01*
X143047286Y-123862426D01*
X143398354Y-123862426D01*
X143444326Y-123856604D01*
X143485200Y-123839469D01*
X143522369Y-123810310D01*
X143551414Y-123773064D01*
X143568440Y-123732389D01*
X143574209Y-123686937D01*
X143574209Y-123511357D01*
X143566736Y-123451084D01*
X143546258Y-123406246D01*
X143513406Y-123372938D01*
X143465760Y-123349613D01*
X143398354Y-123337426D01*
X143398354Y-123161937D01*
X143514505Y-123185415D01*
X143601595Y-123223111D01*
X143665836Y-123273141D01*
X143711387Y-123335861D01*
X143739857Y-123413813D01*
X143750064Y-123511357D01*
X143750064Y-123862426D01*
X143743550Y-123931254D01*
X143724402Y-123994338D01*
X143692457Y-124052997D01*
X143646566Y-124108164D01*
X143591528Y-124154131D01*
X143532818Y-124186164D01*
X143469486Y-124205389D01*
X143400186Y-124211937D01*
X141997377Y-124211937D01*
X141997377Y-123686937D01*
X142173232Y-123686937D01*
X142173232Y-123862426D01*
X142873812Y-123862426D01*
X142918744Y-123856724D01*
X142959030Y-123839882D01*
X142995995Y-123811135D01*
X143024812Y-123774377D01*
X143041838Y-123733462D01*
X143047652Y-123686937D01*
X143041838Y-123640348D01*
X143024810Y-123599372D01*
X142995995Y-123562556D01*
X142959037Y-123533864D01*
X142918750Y-123517050D01*
X142873812Y-123511357D01*
X142348812Y-123511357D01*
X142302756Y-123517141D01*
X142261914Y-123534142D01*
X142224890Y-123563014D01*
X142196017Y-123600039D01*
X142179017Y-123640881D01*
X142173232Y-123686937D01*
X141997377Y-123686937D01*
X141997377Y-123511357D01*
X142003880Y-123442109D01*
X142022967Y-123378835D01*
X142054751Y-123320198D01*
X142100326Y-123265252D01*
X142155041Y-123219641D01*
X142213905Y-123187735D01*
X142277906Y-123168509D01*
X142348446Y-123161937D01*
X142873354Y-123161937D01*
X142943090Y-123168462D01*
G37*
G36*
X142942858Y-124566507D02*
G01*
X143006323Y-124585625D01*
X143064930Y-124617413D01*
X143119643Y-124662931D01*
X143165117Y-124717639D01*
X143196877Y-124776244D01*
X143215981Y-124839711D01*
X143222500Y-124909403D01*
X143222500Y-125260472D01*
X143212310Y-125357737D01*
X143183870Y-125435564D01*
X143138340Y-125498272D01*
X143074097Y-125548383D01*
X142986981Y-125586245D01*
X142870790Y-125609983D01*
X142870790Y-125434403D01*
X142937504Y-125426571D01*
X142984772Y-125405614D01*
X143017784Y-125372851D01*
X143038808Y-125326154D01*
X143046645Y-125260472D01*
X143046645Y-125084983D01*
X143040795Y-125038419D01*
X143023656Y-124997444D01*
X142994621Y-124960602D01*
X142957427Y-124931922D01*
X142916866Y-124915101D01*
X142871614Y-124909403D01*
X142694935Y-124909403D01*
X142694935Y-125609983D01*
X142346980Y-125609983D01*
X142277587Y-125603474D01*
X142214238Y-125584378D01*
X142155590Y-125552593D01*
X142100692Y-125507035D01*
X142055002Y-125452301D01*
X142023103Y-125393674D01*
X142003922Y-125330187D01*
X141997377Y-125260472D01*
X141997377Y-125084983D01*
X142169660Y-125084983D01*
X142175412Y-125130447D01*
X142192382Y-125171123D01*
X142221318Y-125208356D01*
X142258375Y-125237504D01*
X142299214Y-125254644D01*
X142345240Y-125260472D01*
X142519080Y-125260472D01*
X142519080Y-124909403D01*
X142345240Y-124909403D01*
X142299184Y-124915187D01*
X142258342Y-124932188D01*
X142221318Y-124961060D01*
X142192445Y-124998085D01*
X142175445Y-125038927D01*
X142169660Y-125084983D01*
X141997377Y-125084983D01*
X141997377Y-124909403D01*
X142003880Y-124840155D01*
X142022967Y-124776881D01*
X142054751Y-124718244D01*
X142100326Y-124663298D01*
X142154997Y-124617690D01*
X142213829Y-124585784D01*
X142277813Y-124566556D01*
X142348354Y-124559983D01*
X142873171Y-124559983D01*
X142942858Y-124566507D01*
G37*
G36*
X141997377Y-126832449D02*
G01*
X141997377Y-126658518D01*
X141928537Y-126642617D01*
X141880466Y-126617936D01*
X141848076Y-126585654D01*
X141828485Y-126544879D01*
X141821523Y-126492829D01*
X141827129Y-126433135D01*
X141842317Y-126388045D01*
X141865761Y-126354161D01*
X141898150Y-126329219D01*
X141940974Y-126313290D01*
X141997469Y-126307449D01*
X142039256Y-126312927D01*
X142079835Y-126329653D01*
X142120293Y-126359106D01*
X142536024Y-126729867D01*
X142616842Y-126788276D01*
X142698249Y-126821533D01*
X142782404Y-126832449D01*
X142870790Y-126832449D01*
X142940098Y-126825979D01*
X143003607Y-126806970D01*
X143062626Y-126775294D01*
X143118086Y-126729867D01*
X143164256Y-126675299D01*
X143196487Y-126616697D01*
X143215878Y-126553076D01*
X143222500Y-126483029D01*
X143222500Y-126307449D01*
X143216110Y-126220106D01*
X143198429Y-126149315D01*
X143170971Y-126092002D01*
X143134206Y-126045773D01*
X143087719Y-126009280D01*
X143030044Y-125981985D01*
X142958764Y-125964390D01*
X142870790Y-125958029D01*
X142870790Y-126133518D01*
X142899824Y-126131961D01*
X142945036Y-126138362D01*
X142980772Y-126156523D01*
X143009367Y-126186915D01*
X143037354Y-126244620D01*
X143046645Y-126307449D01*
X143040759Y-126368130D01*
X143025158Y-126411491D01*
X143001490Y-126441996D01*
X142968977Y-126463769D01*
X142926177Y-126477849D01*
X142870057Y-126483029D01*
X142827630Y-126477509D01*
X142786933Y-126460743D01*
X142746867Y-126431372D01*
X142331410Y-126060611D01*
X142250808Y-126002285D01*
X142169131Y-125968987D01*
X142084206Y-125958029D01*
X141995546Y-125958029D01*
X141926128Y-125964513D01*
X141862752Y-125983532D01*
X141804081Y-126015180D01*
X141749166Y-126060520D01*
X141703436Y-126115077D01*
X141671479Y-126173694D01*
X141652240Y-126237353D01*
X141645668Y-126307449D01*
X141645668Y-126483029D01*
X141653556Y-126574417D01*
X141675433Y-126647955D01*
X141709775Y-126707255D01*
X141756707Y-126754872D01*
X141817981Y-126792027D01*
X141896770Y-126818458D01*
X141997377Y-126832449D01*
G37*
G36*
X142942858Y-127189675D02*
G01*
X143006323Y-127208793D01*
X143064930Y-127240581D01*
X143119643Y-127286100D01*
X143165117Y-127340807D01*
X143196877Y-127399412D01*
X143215981Y-127462879D01*
X143222500Y-127532571D01*
X143222500Y-127883640D01*
X143212310Y-127980905D01*
X143183870Y-128058732D01*
X143138340Y-128121441D01*
X143074097Y-128171552D01*
X142986981Y-128209413D01*
X142870790Y-128233151D01*
X142870790Y-128057571D01*
X142937504Y-128049739D01*
X142984772Y-128028783D01*
X143017784Y-127996019D01*
X143038808Y-127949322D01*
X143046645Y-127883640D01*
X143046645Y-127708151D01*
X143040795Y-127661587D01*
X143023656Y-127620612D01*
X142994621Y-127583771D01*
X142957427Y-127555090D01*
X142916866Y-127538270D01*
X142871614Y-127532571D01*
X142694935Y-127532571D01*
X142694935Y-128233151D01*
X142346980Y-128233151D01*
X142277587Y-128226642D01*
X142214238Y-128207546D01*
X142155590Y-128175761D01*
X142100692Y-128130203D01*
X142055002Y-128075469D01*
X142023103Y-128016842D01*
X142003922Y-127953356D01*
X141997377Y-127883640D01*
X141997377Y-127708151D01*
X142169660Y-127708151D01*
X142175412Y-127753615D01*
X142192382Y-127794291D01*
X142221318Y-127831524D01*
X142258375Y-127860672D01*
X142299214Y-127877812D01*
X142345240Y-127883640D01*
X142519080Y-127883640D01*
X142519080Y-127532571D01*
X142345240Y-127532571D01*
X142299184Y-127538356D01*
X142258342Y-127555356D01*
X142221318Y-127584229D01*
X142192445Y-127621253D01*
X142175445Y-127662095D01*
X142169660Y-127708151D01*
X141997377Y-127708151D01*
X141997377Y-127532571D01*
X142003880Y-127463323D01*
X142022967Y-127400049D01*
X142054751Y-127341412D01*
X142100326Y-127286466D01*
X142154997Y-127240858D01*
X142213829Y-127208952D01*
X142277813Y-127189724D01*
X142348354Y-127183151D01*
X142873171Y-127183151D01*
X142942858Y-127189675D01*
G37*
G36*
X143222500Y-128930617D02*
G01*
X143222500Y-128581197D01*
X141997377Y-128581197D01*
X141997377Y-128930617D01*
X142349087Y-128930617D01*
X142235207Y-128953688D01*
X142149241Y-128990375D01*
X142085305Y-129038878D01*
X142047932Y-129085268D01*
X142020645Y-129140012D01*
X142003469Y-129204758D01*
X141997377Y-129281686D01*
X141997377Y-129455617D01*
X142349087Y-129455617D01*
X142349087Y-129106197D01*
X142354828Y-129060111D01*
X142371688Y-129019267D01*
X142400286Y-128982275D01*
X142437008Y-128953362D01*
X142477368Y-128936383D01*
X142522744Y-128930617D01*
X143222500Y-128930617D01*
G37*
G36*
X141821523Y-129630465D02*
G01*
X141645668Y-129630465D01*
X141645668Y-129979885D01*
X141821523Y-129979885D01*
X141821523Y-129630465D01*
G37*
G36*
X143222500Y-129630465D02*
G01*
X141996919Y-129630465D01*
X141996919Y-129979885D01*
X143222500Y-129979885D01*
X143222500Y-129630465D01*
G37*
G36*
X142942858Y-130337477D02*
G01*
X143006323Y-130356595D01*
X143064930Y-130388383D01*
X143119643Y-130433901D01*
X143165117Y-130488609D01*
X143196877Y-130547214D01*
X143215981Y-130610681D01*
X143222500Y-130680373D01*
X143222500Y-131031442D01*
X143212310Y-131128707D01*
X143183870Y-131206534D01*
X143138340Y-131269242D01*
X143074097Y-131319353D01*
X142986981Y-131357215D01*
X142870790Y-131380953D01*
X142870790Y-131205373D01*
X142937504Y-131197541D01*
X142984772Y-131176584D01*
X143017784Y-131143821D01*
X143038808Y-131097124D01*
X143046645Y-131031442D01*
X143046645Y-130855953D01*
X143040795Y-130809389D01*
X143023656Y-130768414D01*
X142994621Y-130731572D01*
X142957427Y-130702892D01*
X142916866Y-130686071D01*
X142871614Y-130680373D01*
X142694935Y-130680373D01*
X142694935Y-131380953D01*
X142346980Y-131380953D01*
X142277587Y-131374444D01*
X142214238Y-131355348D01*
X142155590Y-131323563D01*
X142100692Y-131278005D01*
X142055002Y-131223271D01*
X142023103Y-131164644D01*
X142003922Y-131101157D01*
X141997377Y-131031442D01*
X141997377Y-130855953D01*
X142169660Y-130855953D01*
X142175412Y-130901417D01*
X142192382Y-130942093D01*
X142221318Y-130979326D01*
X142258375Y-131008474D01*
X142299214Y-131025614D01*
X142345240Y-131031442D01*
X142519080Y-131031442D01*
X142519080Y-130680373D01*
X142345240Y-130680373D01*
X142299184Y-130686157D01*
X142258342Y-130703158D01*
X142221318Y-130732030D01*
X142192445Y-130769055D01*
X142175445Y-130809897D01*
X142169660Y-130855953D01*
X141997377Y-130855953D01*
X141997377Y-130680373D01*
X142003880Y-130611125D01*
X142022967Y-130547851D01*
X142054751Y-130489214D01*
X142100326Y-130434268D01*
X142154997Y-130388660D01*
X142213829Y-130356754D01*
X142277813Y-130337526D01*
X142348354Y-130330953D01*
X142873171Y-130330953D01*
X142942858Y-130337477D01*
G37*
G36*
X142349087Y-132603419D02*
G01*
X142349087Y-132429488D01*
X142280247Y-132413587D01*
X142232176Y-132388906D01*
X142199785Y-132356624D01*
X142180195Y-132315849D01*
X142173232Y-132263799D01*
X142177993Y-132202865D01*
X142190701Y-132157566D01*
X142209777Y-132124306D01*
X142237176Y-132098916D01*
X142272511Y-132083237D01*
X142318312Y-132077595D01*
X142348435Y-132086394D01*
X142389900Y-132119979D01*
X142448377Y-132194697D01*
X142529796Y-132332676D01*
X142612499Y-132470006D01*
X142672067Y-132541727D01*
X142714719Y-132571820D01*
X142790089Y-132595452D01*
X142870790Y-132603419D01*
X142941788Y-132596852D01*
X143006053Y-132577661D01*
X143065003Y-132545860D01*
X143119643Y-132500471D01*
X143165117Y-132445764D01*
X143196877Y-132387158D01*
X143215981Y-132323691D01*
X143222500Y-132253999D01*
X143222500Y-132078419D01*
X143214255Y-131979614D01*
X143191674Y-131902153D01*
X143156737Y-131841567D01*
X143109611Y-131794650D01*
X143048634Y-131759801D01*
X142970536Y-131737243D01*
X142870790Y-131728999D01*
X142870790Y-131904579D01*
X142939602Y-131919542D01*
X142987626Y-131943610D01*
X143020010Y-131975538D01*
X143039644Y-132016244D01*
X143046645Y-132068619D01*
X143041850Y-132129529D01*
X143029051Y-132174794D01*
X143009825Y-132208020D01*
X142982145Y-132233481D01*
X142946640Y-132249183D01*
X142900832Y-132254823D01*
X142871425Y-132246154D01*
X142830375Y-132212846D01*
X142771821Y-132138408D01*
X142689531Y-132000567D01*
X142607373Y-131862717D01*
X142547976Y-131790764D01*
X142505250Y-131760598D01*
X142429663Y-131736940D01*
X142349545Y-131728999D01*
X142278275Y-131735597D01*
X142213854Y-131754865D01*
X142154845Y-131786779D01*
X142100234Y-131832314D01*
X142054703Y-131887254D01*
X142022947Y-131945890D01*
X142003876Y-132009166D01*
X141997377Y-132078419D01*
X141997377Y-132253999D01*
X142005266Y-132345387D01*
X142027143Y-132418925D01*
X142061484Y-132478225D01*
X142108416Y-132525842D01*
X142169690Y-132562997D01*
X142248479Y-132589428D01*
X142349087Y-132603419D01*
G37*
G36*
X141645668Y-134166054D02*
G01*
X141645668Y-134515566D01*
X142623769Y-134515566D01*
X142742565Y-134504441D01*
X142851043Y-134471802D01*
X142951494Y-134417476D01*
X143045546Y-134339619D01*
X143123785Y-134246060D01*
X143178419Y-134145756D01*
X143211283Y-134037044D01*
X143222500Y-133917568D01*
X143222500Y-133465566D01*
X141645668Y-133465566D01*
X141645668Y-133814986D01*
X143046645Y-133814986D01*
X143046645Y-133990566D01*
X143040822Y-134037085D01*
X143023768Y-134078000D01*
X142994896Y-134114763D01*
X142957873Y-134143509D01*
X142917525Y-134160352D01*
X142872530Y-134166054D01*
X141645668Y-134166054D01*
G37*
G36*
X141997377Y-135039100D02*
G01*
X141997377Y-134863612D01*
X141881179Y-134887350D01*
X141794061Y-134925206D01*
X141729819Y-134975307D01*
X141684292Y-135037999D01*
X141655856Y-135115801D01*
X141645668Y-135213032D01*
X141645668Y-135564100D01*
X141652222Y-135633806D01*
X141671433Y-135697289D01*
X141703386Y-135755919D01*
X141749166Y-135810663D01*
X141804108Y-135856224D01*
X141862787Y-135888010D01*
X141926152Y-135907104D01*
X141995546Y-135913612D01*
X142084206Y-135913612D01*
X142146720Y-135904470D01*
X142221149Y-135873853D01*
X142311323Y-135814989D01*
X142421156Y-135718904D01*
X142554709Y-135574816D01*
X142575317Y-135551827D01*
X142710226Y-135405849D01*
X142818619Y-135309595D01*
X142905271Y-135251465D01*
X142974663Y-135221751D01*
X143031074Y-135213032D01*
X143046645Y-135213032D01*
X143046645Y-135913612D01*
X143222500Y-135913612D01*
X143222500Y-134863612D01*
X143046736Y-134863612D01*
X142984199Y-134872732D01*
X142909687Y-134903280D01*
X142819360Y-134962010D01*
X142709293Y-135057865D01*
X142575409Y-135201583D01*
X142554892Y-135225305D01*
X142421344Y-135369382D01*
X142311502Y-135465466D01*
X142221306Y-135524334D01*
X142146848Y-135554956D01*
X142084297Y-135564100D01*
X141995637Y-135564100D01*
X141950192Y-135558254D01*
X141909746Y-135541020D01*
X141872905Y-135511619D01*
X141844074Y-135474137D01*
X141827216Y-135433565D01*
X141821523Y-135388612D01*
X141821523Y-135213032D01*
X141828996Y-135152758D01*
X141849474Y-135107921D01*
X141882326Y-135074613D01*
X141929972Y-135051287D01*
X141997377Y-135039100D01*
G37*
D11*
X127414285Y-131187450D02*
X127114285Y-131187450D01*
X127114285Y-130716021D02*
X127114285Y-131616021D01*
X127114285Y-131616021D02*
X127542857Y-131616021D01*
X128014286Y-130716021D02*
X127928571Y-130758879D01*
X127928571Y-130758879D02*
X127885714Y-130801736D01*
X127885714Y-130801736D02*
X127842857Y-130887450D01*
X127842857Y-130887450D02*
X127842857Y-131144593D01*
X127842857Y-131144593D02*
X127885714Y-131230307D01*
X127885714Y-131230307D02*
X127928571Y-131273164D01*
X127928571Y-131273164D02*
X128014286Y-131316021D01*
X128014286Y-131316021D02*
X128142857Y-131316021D01*
X128142857Y-131316021D02*
X128228571Y-131273164D01*
X128228571Y-131273164D02*
X128271429Y-131230307D01*
X128271429Y-131230307D02*
X128314286Y-131144593D01*
X128314286Y-131144593D02*
X128314286Y-130887450D01*
X128314286Y-130887450D02*
X128271429Y-130801736D01*
X128271429Y-130801736D02*
X128228571Y-130758879D01*
X128228571Y-130758879D02*
X128142857Y-130716021D01*
X128142857Y-130716021D02*
X128014286Y-130716021D01*
X128828572Y-130716021D02*
X128742857Y-130758879D01*
X128742857Y-130758879D02*
X128700000Y-130844593D01*
X128700000Y-130844593D02*
X128700000Y-131616021D01*
X129557144Y-130716021D02*
X129557144Y-131616021D01*
X129557144Y-130758879D02*
X129471429Y-130716021D01*
X129471429Y-130716021D02*
X129300001Y-130716021D01*
X129300001Y-130716021D02*
X129214286Y-130758879D01*
X129214286Y-130758879D02*
X129171429Y-130801736D01*
X129171429Y-130801736D02*
X129128572Y-130887450D01*
X129128572Y-130887450D02*
X129128572Y-131144593D01*
X129128572Y-131144593D02*
X129171429Y-131230307D01*
X129171429Y-131230307D02*
X129214286Y-131273164D01*
X129214286Y-131273164D02*
X129300001Y-131316021D01*
X129300001Y-131316021D02*
X129471429Y-131316021D01*
X129471429Y-131316021D02*
X129557144Y-131273164D01*
X130028572Y-130758879D02*
X130028572Y-130716021D01*
X130028572Y-130716021D02*
X129985715Y-130630307D01*
X129985715Y-130630307D02*
X129942858Y-130587450D01*
X131100000Y-131316021D02*
X131100000Y-130716021D01*
X131100000Y-131230307D02*
X131142857Y-131273164D01*
X131142857Y-131273164D02*
X131228572Y-131316021D01*
X131228572Y-131316021D02*
X131357143Y-131316021D01*
X131357143Y-131316021D02*
X131442857Y-131273164D01*
X131442857Y-131273164D02*
X131485715Y-131187450D01*
X131485715Y-131187450D02*
X131485715Y-130716021D01*
X132042858Y-130716021D02*
X131957143Y-130758879D01*
X131957143Y-130758879D02*
X131914286Y-130801736D01*
X131914286Y-130801736D02*
X131871429Y-130887450D01*
X131871429Y-130887450D02*
X131871429Y-131144593D01*
X131871429Y-131144593D02*
X131914286Y-131230307D01*
X131914286Y-131230307D02*
X131957143Y-131273164D01*
X131957143Y-131273164D02*
X132042858Y-131316021D01*
X132042858Y-131316021D02*
X132171429Y-131316021D01*
X132171429Y-131316021D02*
X132257143Y-131273164D01*
X132257143Y-131273164D02*
X132300001Y-131230307D01*
X132300001Y-131230307D02*
X132342858Y-131144593D01*
X132342858Y-131144593D02*
X132342858Y-130887450D01*
X132342858Y-130887450D02*
X132300001Y-130801736D01*
X132300001Y-130801736D02*
X132257143Y-130758879D01*
X132257143Y-130758879D02*
X132171429Y-130716021D01*
X132171429Y-130716021D02*
X132042858Y-130716021D01*
X132600001Y-131316021D02*
X132942858Y-131316021D01*
X132728572Y-131616021D02*
X132728572Y-130844593D01*
X132728572Y-130844593D02*
X132771429Y-130758879D01*
X132771429Y-130758879D02*
X132857144Y-130716021D01*
X132857144Y-130716021D02*
X132942858Y-130716021D01*
X126985714Y-129867071D02*
X127328571Y-129867071D01*
X127114285Y-130167071D02*
X127114285Y-129395643D01*
X127114285Y-129395643D02*
X127157142Y-129309929D01*
X127157142Y-129309929D02*
X127242857Y-129267071D01*
X127242857Y-129267071D02*
X127328571Y-129267071D01*
X127757143Y-129267071D02*
X127671428Y-129309929D01*
X127671428Y-129309929D02*
X127628571Y-129352786D01*
X127628571Y-129352786D02*
X127585714Y-129438500D01*
X127585714Y-129438500D02*
X127585714Y-129695643D01*
X127585714Y-129695643D02*
X127628571Y-129781357D01*
X127628571Y-129781357D02*
X127671428Y-129824214D01*
X127671428Y-129824214D02*
X127757143Y-129867071D01*
X127757143Y-129867071D02*
X127885714Y-129867071D01*
X127885714Y-129867071D02*
X127971428Y-129824214D01*
X127971428Y-129824214D02*
X128014286Y-129781357D01*
X128014286Y-129781357D02*
X128057143Y-129695643D01*
X128057143Y-129695643D02*
X128057143Y-129438500D01*
X128057143Y-129438500D02*
X128014286Y-129352786D01*
X128014286Y-129352786D02*
X127971428Y-129309929D01*
X127971428Y-129309929D02*
X127885714Y-129267071D01*
X127885714Y-129267071D02*
X127757143Y-129267071D01*
X128828572Y-129867071D02*
X128828572Y-129267071D01*
X128442857Y-129867071D02*
X128442857Y-129395643D01*
X128442857Y-129395643D02*
X128485714Y-129309929D01*
X128485714Y-129309929D02*
X128571429Y-129267071D01*
X128571429Y-129267071D02*
X128700000Y-129267071D01*
X128700000Y-129267071D02*
X128785714Y-129309929D01*
X128785714Y-129309929D02*
X128828572Y-129352786D01*
X129642858Y-129309929D02*
X129557143Y-129267071D01*
X129557143Y-129267071D02*
X129385715Y-129267071D01*
X129385715Y-129267071D02*
X129300000Y-129309929D01*
X129300000Y-129309929D02*
X129257143Y-129352786D01*
X129257143Y-129352786D02*
X129214286Y-129438500D01*
X129214286Y-129438500D02*
X129214286Y-129695643D01*
X129214286Y-129695643D02*
X129257143Y-129781357D01*
X129257143Y-129781357D02*
X129300000Y-129824214D01*
X129300000Y-129824214D02*
X129385715Y-129867071D01*
X129385715Y-129867071D02*
X129557143Y-129867071D01*
X129557143Y-129867071D02*
X129642858Y-129824214D01*
X130028572Y-129267071D02*
X130028572Y-130167071D01*
X130414287Y-129267071D02*
X130414287Y-129738500D01*
X130414287Y-129738500D02*
X130371429Y-129824214D01*
X130371429Y-129824214D02*
X130285715Y-129867071D01*
X130285715Y-129867071D02*
X130157144Y-129867071D01*
X130157144Y-129867071D02*
X130071429Y-129824214D01*
X130071429Y-129824214D02*
X130028572Y-129781357D01*
X130842858Y-129267071D02*
X130842858Y-129867071D01*
X130842858Y-130167071D02*
X130800001Y-130124214D01*
X130800001Y-130124214D02*
X130842858Y-130081357D01*
X130842858Y-130081357D02*
X130885715Y-130124214D01*
X130885715Y-130124214D02*
X130842858Y-130167071D01*
X130842858Y-130167071D02*
X130842858Y-130081357D01*
X131271429Y-129867071D02*
X131271429Y-129267071D01*
X131271429Y-129781357D02*
X131314286Y-129824214D01*
X131314286Y-129824214D02*
X131400001Y-129867071D01*
X131400001Y-129867071D02*
X131528572Y-129867071D01*
X131528572Y-129867071D02*
X131614286Y-129824214D01*
X131614286Y-129824214D02*
X131657144Y-129738500D01*
X131657144Y-129738500D02*
X131657144Y-129267071D01*
X132471430Y-129867071D02*
X132471430Y-129138500D01*
X132471430Y-129138500D02*
X132428572Y-129052786D01*
X132428572Y-129052786D02*
X132385715Y-129009929D01*
X132385715Y-129009929D02*
X132300001Y-128967071D01*
X132300001Y-128967071D02*
X132171430Y-128967071D01*
X132171430Y-128967071D02*
X132085715Y-129009929D01*
X132471430Y-129309929D02*
X132385715Y-129267071D01*
X132385715Y-129267071D02*
X132214287Y-129267071D01*
X132214287Y-129267071D02*
X132128572Y-129309929D01*
X132128572Y-129309929D02*
X132085715Y-129352786D01*
X132085715Y-129352786D02*
X132042858Y-129438500D01*
X132042858Y-129438500D02*
X132042858Y-129695643D01*
X132042858Y-129695643D02*
X132085715Y-129781357D01*
X132085715Y-129781357D02*
X132128572Y-129824214D01*
X132128572Y-129824214D02*
X132214287Y-129867071D01*
X132214287Y-129867071D02*
X132385715Y-129867071D01*
X132385715Y-129867071D02*
X132471430Y-129824214D01*
X133585715Y-129867071D02*
X133585715Y-128967071D01*
X133585715Y-129824214D02*
X133671430Y-129867071D01*
X133671430Y-129867071D02*
X133842858Y-129867071D01*
X133842858Y-129867071D02*
X133928572Y-129824214D01*
X133928572Y-129824214D02*
X133971430Y-129781357D01*
X133971430Y-129781357D02*
X134014287Y-129695643D01*
X134014287Y-129695643D02*
X134014287Y-129438500D01*
X134014287Y-129438500D02*
X133971430Y-129352786D01*
X133971430Y-129352786D02*
X133928572Y-129309929D01*
X133928572Y-129309929D02*
X133842858Y-129267071D01*
X133842858Y-129267071D02*
X133671430Y-129267071D01*
X133671430Y-129267071D02*
X133585715Y-129309929D01*
X134400001Y-129267071D02*
X134400001Y-129867071D01*
X134400001Y-130167071D02*
X134357144Y-130124214D01*
X134357144Y-130124214D02*
X134400001Y-130081357D01*
X134400001Y-130081357D02*
X134442858Y-130124214D01*
X134442858Y-130124214D02*
X134400001Y-130167071D01*
X134400001Y-130167071D02*
X134400001Y-130081357D01*
X134828572Y-129867071D02*
X134828572Y-129267071D01*
X134828572Y-129781357D02*
X134871429Y-129824214D01*
X134871429Y-129824214D02*
X134957144Y-129867071D01*
X134957144Y-129867071D02*
X135085715Y-129867071D01*
X135085715Y-129867071D02*
X135171429Y-129824214D01*
X135171429Y-129824214D02*
X135214287Y-129738500D01*
X135214287Y-129738500D02*
X135214287Y-129267071D01*
X135600001Y-129309929D02*
X135685715Y-129267071D01*
X135685715Y-129267071D02*
X135857144Y-129267071D01*
X135857144Y-129267071D02*
X135942858Y-129309929D01*
X135942858Y-129309929D02*
X135985715Y-129395643D01*
X135985715Y-129395643D02*
X135985715Y-129438500D01*
X135985715Y-129438500D02*
X135942858Y-129524214D01*
X135942858Y-129524214D02*
X135857144Y-129567071D01*
X135857144Y-129567071D02*
X135728573Y-129567071D01*
X135728573Y-129567071D02*
X135642858Y-129609929D01*
X135642858Y-129609929D02*
X135600001Y-129695643D01*
X135600001Y-129695643D02*
X135600001Y-129738500D01*
X135600001Y-129738500D02*
X135642858Y-129824214D01*
X135642858Y-129824214D02*
X135728573Y-129867071D01*
X135728573Y-129867071D02*
X135857144Y-129867071D01*
X135857144Y-129867071D02*
X135942858Y-129824214D01*
X145608453Y-131714285D02*
X144708453Y-131714285D01*
X144708453Y-131714285D02*
X145351310Y-132014285D01*
X145351310Y-132014285D02*
X144708453Y-132314285D01*
X144708453Y-132314285D02*
X145608453Y-132314285D01*
X145137024Y-133042856D02*
X145179881Y-133171428D01*
X145179881Y-133171428D02*
X145222738Y-133214285D01*
X145222738Y-133214285D02*
X145308453Y-133257142D01*
X145308453Y-133257142D02*
X145437024Y-133257142D01*
X145437024Y-133257142D02*
X145522738Y-133214285D01*
X145522738Y-133214285D02*
X145565596Y-133171428D01*
X145565596Y-133171428D02*
X145608453Y-133085713D01*
X145608453Y-133085713D02*
X145608453Y-132742856D01*
X145608453Y-132742856D02*
X144708453Y-132742856D01*
X144708453Y-132742856D02*
X144708453Y-133042856D01*
X144708453Y-133042856D02*
X144751310Y-133128571D01*
X144751310Y-133128571D02*
X144794167Y-133171428D01*
X144794167Y-133171428D02*
X144879881Y-133214285D01*
X144879881Y-133214285D02*
X144965596Y-133214285D01*
X144965596Y-133214285D02*
X145051310Y-133171428D01*
X145051310Y-133171428D02*
X145094167Y-133128571D01*
X145094167Y-133128571D02*
X145137024Y-133042856D01*
X145137024Y-133042856D02*
X145137024Y-132742856D01*
X145008453Y-133557142D02*
X145608453Y-133771428D01*
X145608453Y-133771428D02*
X145008453Y-133985713D01*
X144794167Y-134285713D02*
X144751310Y-134328570D01*
X144751310Y-134328570D02*
X144708453Y-134414285D01*
X144708453Y-134414285D02*
X144708453Y-134628570D01*
X144708453Y-134628570D02*
X144751310Y-134714285D01*
X144751310Y-134714285D02*
X144794167Y-134757142D01*
X144794167Y-134757142D02*
X144879881Y-134799999D01*
X144879881Y-134799999D02*
X144965596Y-134799999D01*
X144965596Y-134799999D02*
X145094167Y-134757142D01*
X145094167Y-134757142D02*
X145608453Y-134242856D01*
X145608453Y-134242856D02*
X145608453Y-134799999D01*
X145522738Y-135185713D02*
X145565596Y-135228570D01*
X145565596Y-135228570D02*
X145608453Y-135185713D01*
X145608453Y-135185713D02*
X145565596Y-135142856D01*
X145565596Y-135142856D02*
X145522738Y-135185713D01*
X145522738Y-135185713D02*
X145608453Y-135185713D01*
X144794167Y-135571427D02*
X144751310Y-135614284D01*
X144751310Y-135614284D02*
X144708453Y-135699999D01*
X144708453Y-135699999D02*
X144708453Y-135914284D01*
X144708453Y-135914284D02*
X144751310Y-135999999D01*
X144751310Y-135999999D02*
X144794167Y-136042856D01*
X144794167Y-136042856D02*
X144879881Y-136085713D01*
X144879881Y-136085713D02*
X144965596Y-136085713D01*
X144965596Y-136085713D02*
X145094167Y-136042856D01*
X145094167Y-136042856D02*
X145608453Y-135528570D01*
X145608453Y-135528570D02*
X145608453Y-136085713D01*
X131371428Y-106008453D02*
X131671428Y-105579881D01*
X131885714Y-106008453D02*
X131885714Y-105108453D01*
X131885714Y-105108453D02*
X131542857Y-105108453D01*
X131542857Y-105108453D02*
X131457142Y-105151310D01*
X131457142Y-105151310D02*
X131414285Y-105194167D01*
X131414285Y-105194167D02*
X131371428Y-105279881D01*
X131371428Y-105279881D02*
X131371428Y-105408453D01*
X131371428Y-105408453D02*
X131414285Y-105494167D01*
X131414285Y-105494167D02*
X131457142Y-105537024D01*
X131457142Y-105537024D02*
X131542857Y-105579881D01*
X131542857Y-105579881D02*
X131885714Y-105579881D01*
X130985714Y-105537024D02*
X130685714Y-105537024D01*
X130557142Y-106008453D02*
X130985714Y-106008453D01*
X130985714Y-106008453D02*
X130985714Y-105108453D01*
X130985714Y-105108453D02*
X130557142Y-105108453D01*
X130171428Y-106008453D02*
X130171428Y-105108453D01*
X130171428Y-105108453D02*
X129957142Y-105108453D01*
X129957142Y-105108453D02*
X129828571Y-105151310D01*
X129828571Y-105151310D02*
X129742856Y-105237024D01*
X129742856Y-105237024D02*
X129699999Y-105322738D01*
X129699999Y-105322738D02*
X129657142Y-105494167D01*
X129657142Y-105494167D02*
X129657142Y-105622738D01*
X129657142Y-105622738D02*
X129699999Y-105794167D01*
X129699999Y-105794167D02*
X129742856Y-105879881D01*
X129742856Y-105879881D02*
X129828571Y-105965596D01*
X129828571Y-105965596D02*
X129957142Y-106008453D01*
X129957142Y-106008453D02*
X130171428Y-106008453D01*
D15*
G36*
X151081956Y-77685668D02*
G01*
X150732444Y-77685668D01*
X150732444Y-78663769D01*
X150743569Y-78782565D01*
X150776208Y-78891043D01*
X150830534Y-78991494D01*
X150908391Y-79085546D01*
X151001950Y-79163785D01*
X151102254Y-79218419D01*
X151210966Y-79251283D01*
X151330443Y-79262500D01*
X151782444Y-79262500D01*
X151782444Y-77685668D01*
X151433025Y-77685668D01*
X151433025Y-79086645D01*
X151257444Y-79086645D01*
X151210925Y-79080822D01*
X151170011Y-79063768D01*
X151133247Y-79034896D01*
X151104501Y-78997873D01*
X151087659Y-78957525D01*
X151081956Y-78912530D01*
X151081956Y-77685668D01*
G37*
G36*
X150104226Y-78043880D02*
G01*
X150167500Y-78062967D01*
X150226138Y-78094751D01*
X150281084Y-78140326D01*
X150326691Y-78194997D01*
X150358598Y-78253829D01*
X150377826Y-78317813D01*
X150384398Y-78388354D01*
X150384398Y-78913171D01*
X150377875Y-78982858D01*
X150358756Y-79046323D01*
X150326968Y-79104930D01*
X150281450Y-79159643D01*
X150226743Y-79205117D01*
X150168138Y-79236877D01*
X150104670Y-79255981D01*
X150034978Y-79262500D01*
X149683910Y-79262500D01*
X149614214Y-79255936D01*
X149550736Y-79236694D01*
X149492102Y-79204686D01*
X149437347Y-79158818D01*
X149391718Y-79103683D01*
X149359938Y-79045047D01*
X149340882Y-78981981D01*
X149334398Y-78913171D01*
X149334398Y-78388354D01*
X149334424Y-78388080D01*
X149683910Y-78388080D01*
X149683910Y-78913080D01*
X149689612Y-78958011D01*
X149706453Y-78998298D01*
X149735201Y-79035262D01*
X149771958Y-79064079D01*
X149812873Y-79081106D01*
X149859398Y-79086919D01*
X149905987Y-79081105D01*
X149946964Y-79064078D01*
X149983779Y-79035262D01*
X150012472Y-78998304D01*
X150029285Y-78958017D01*
X150034978Y-78913080D01*
X150034978Y-78388080D01*
X150029194Y-78342023D01*
X150012194Y-78301182D01*
X149983321Y-78264157D01*
X149946296Y-78235284D01*
X149905455Y-78218284D01*
X149859398Y-78212500D01*
X149813935Y-78218251D01*
X149773258Y-78235221D01*
X149736025Y-78264157D01*
X149706877Y-78301214D01*
X149689737Y-78342054D01*
X149683910Y-78388080D01*
X149334424Y-78388080D01*
X149340912Y-78318672D01*
X149360017Y-78255076D01*
X149391806Y-78196220D01*
X149437347Y-78141150D01*
X149492108Y-78095238D01*
X149550743Y-78063202D01*
X149614219Y-78043946D01*
X149683910Y-78037377D01*
X150034978Y-78037377D01*
X150104226Y-78043880D01*
G37*
G36*
X148986352Y-79262500D02*
G01*
X148986352Y-77685668D01*
X148636932Y-77685668D01*
X148636932Y-79262500D01*
X148986352Y-79262500D01*
G37*
G36*
X148110375Y-77685668D02*
G01*
X147760864Y-77685668D01*
X147760864Y-78037377D01*
X147585375Y-78037377D01*
X147585375Y-78213232D01*
X147760864Y-78213232D01*
X147760864Y-78913263D01*
X147754198Y-78966898D01*
X147735530Y-79009031D01*
X147705085Y-79042406D01*
X147648591Y-79077099D01*
X147601770Y-79087103D01*
X147585375Y-79087103D01*
X147585375Y-79262500D01*
X147760864Y-79262500D01*
X147831043Y-79255960D01*
X147894748Y-79236823D01*
X147953367Y-79205058D01*
X148007885Y-79159643D01*
X148053179Y-79105002D01*
X148084830Y-79046435D01*
X148103875Y-78982975D01*
X148110375Y-78913263D01*
X148110375Y-78213232D01*
X148285864Y-78213232D01*
X148285864Y-78037377D01*
X148110375Y-78037377D01*
X148110375Y-77685668D01*
G37*
G36*
X146984756Y-78047586D02*
G01*
X147062725Y-78076060D01*
X147125447Y-78121614D01*
X147175469Y-78185855D01*
X147213148Y-78272942D01*
X147236597Y-78389087D01*
X147061108Y-78389087D01*
X147046584Y-78321268D01*
X147022004Y-78273431D01*
X146988449Y-78240685D01*
X146944634Y-78220511D01*
X146887177Y-78213232D01*
X146711597Y-78213232D01*
X146666139Y-78218992D01*
X146625463Y-78235991D01*
X146588223Y-78264981D01*
X146559077Y-78302097D01*
X146541936Y-78342997D01*
X146536108Y-78389087D01*
X146536108Y-78559080D01*
X146887177Y-78559080D01*
X146956400Y-78565607D01*
X147019663Y-78584769D01*
X147078308Y-78616690D01*
X147133282Y-78662486D01*
X147178955Y-78717392D01*
X147210857Y-78776227D01*
X147230047Y-78839961D01*
X147236597Y-78909965D01*
X147236597Y-78911614D01*
X147230068Y-78981637D01*
X147210940Y-79045396D01*
X147179148Y-79104256D01*
X147133648Y-79159185D01*
X147078913Y-79204880D01*
X147020300Y-79236778D01*
X146956844Y-79255957D01*
X146887177Y-79262500D01*
X146711597Y-79262500D01*
X146654139Y-79255242D01*
X146610135Y-79235096D01*
X146576265Y-79202374D01*
X146551248Y-79154588D01*
X146536108Y-79086919D01*
X146536108Y-79262500D01*
X146186597Y-79262500D01*
X146186597Y-78910515D01*
X146536108Y-78910515D01*
X146541810Y-78955446D01*
X146558651Y-78995733D01*
X146587399Y-79032698D01*
X146624156Y-79061515D01*
X146665071Y-79078541D01*
X146711597Y-79084355D01*
X146758125Y-79078543D01*
X146799072Y-79061518D01*
X146835886Y-79032698D01*
X146864633Y-78995733D01*
X146881475Y-78955446D01*
X146887177Y-78910515D01*
X146887177Y-78908866D01*
X146881410Y-78863427D01*
X146864430Y-78823006D01*
X146835519Y-78786226D01*
X146798520Y-78757573D01*
X146757677Y-78740685D01*
X146711597Y-78734935D01*
X146536108Y-78734935D01*
X146536108Y-78910515D01*
X146186597Y-78910515D01*
X146186597Y-78388354D01*
X146193110Y-78318672D01*
X146212215Y-78255076D01*
X146244004Y-78196220D01*
X146289545Y-78141150D01*
X146344306Y-78095238D01*
X146402941Y-78063202D01*
X146466417Y-78043946D01*
X146536108Y-78037377D01*
X146887177Y-78037377D01*
X146984756Y-78047586D01*
G37*
G36*
X145558378Y-78043880D02*
G01*
X145621653Y-78062967D01*
X145680290Y-78094751D01*
X145735236Y-78140326D01*
X145780846Y-78195041D01*
X145812753Y-78253905D01*
X145831979Y-78317906D01*
X145838550Y-78388446D01*
X145838550Y-78913354D01*
X145832025Y-78983090D01*
X145812904Y-79046585D01*
X145781116Y-79105206D01*
X145735602Y-79159918D01*
X145680889Y-79205436D01*
X145622283Y-79237224D01*
X145558818Y-79256342D01*
X145489131Y-79262866D01*
X145313550Y-79262866D01*
X145256093Y-79255608D01*
X145212089Y-79235463D01*
X145178219Y-79202740D01*
X145153202Y-79154954D01*
X145138062Y-79087286D01*
X145138062Y-79438354D01*
X145143883Y-79484326D01*
X145161018Y-79525200D01*
X145190177Y-79562369D01*
X145227423Y-79591414D01*
X145268099Y-79608440D01*
X145313550Y-79614209D01*
X145489131Y-79614209D01*
X145549404Y-79606736D01*
X145594242Y-79586258D01*
X145627549Y-79553406D01*
X145650875Y-79505760D01*
X145663062Y-79438354D01*
X145838550Y-79438354D01*
X145815073Y-79554505D01*
X145777376Y-79641595D01*
X145727346Y-79705836D01*
X145664627Y-79751387D01*
X145586675Y-79779857D01*
X145489131Y-79790064D01*
X145138062Y-79790064D01*
X145069233Y-79783550D01*
X145006149Y-79764402D01*
X144947490Y-79732457D01*
X144892323Y-79686566D01*
X144846356Y-79631528D01*
X144814324Y-79572818D01*
X144795099Y-79509486D01*
X144788550Y-79440186D01*
X144788550Y-78913812D01*
X145138062Y-78913812D01*
X145143764Y-78958744D01*
X145160605Y-78999030D01*
X145189353Y-79035995D01*
X145226110Y-79064812D01*
X145267025Y-79081838D01*
X145313550Y-79087652D01*
X145360139Y-79081838D01*
X145401116Y-79064810D01*
X145437931Y-79035995D01*
X145466624Y-78999037D01*
X145483437Y-78958750D01*
X145489131Y-78913812D01*
X145489131Y-78388812D01*
X145483346Y-78342756D01*
X145466346Y-78301914D01*
X145437473Y-78264890D01*
X145400448Y-78236017D01*
X145359607Y-78219017D01*
X145313550Y-78213232D01*
X145138062Y-78213232D01*
X145138062Y-78913812D01*
X144788550Y-78913812D01*
X144788550Y-78037377D01*
X145489131Y-78037377D01*
X145558378Y-78043880D01*
G37*
G36*
X144160332Y-78043880D02*
G01*
X144223607Y-78062967D01*
X144282244Y-78094751D01*
X144337190Y-78140326D01*
X144382797Y-78194997D01*
X144414704Y-78253829D01*
X144433932Y-78317813D01*
X144440504Y-78388354D01*
X144440504Y-78913171D01*
X144433981Y-78982858D01*
X144414862Y-79046323D01*
X144383074Y-79104930D01*
X144337556Y-79159643D01*
X144282849Y-79205117D01*
X144224244Y-79236877D01*
X144160777Y-79255981D01*
X144091085Y-79262500D01*
X143740016Y-79262500D01*
X143642750Y-79252310D01*
X143564924Y-79223870D01*
X143502215Y-79178340D01*
X143452104Y-79114097D01*
X143414243Y-79026981D01*
X143390504Y-78910790D01*
X143566085Y-78910790D01*
X143573917Y-78977504D01*
X143594873Y-79024772D01*
X143627637Y-79057784D01*
X143674333Y-79078808D01*
X143740016Y-79086645D01*
X143915504Y-79086645D01*
X143962069Y-79080795D01*
X144003044Y-79063656D01*
X144039885Y-79034621D01*
X144068565Y-78997427D01*
X144085386Y-78956866D01*
X144091085Y-78911614D01*
X144091085Y-78734935D01*
X143390504Y-78734935D01*
X143390504Y-78386980D01*
X143390667Y-78385240D01*
X143740016Y-78385240D01*
X143740016Y-78559080D01*
X144091085Y-78559080D01*
X144091085Y-78385240D01*
X144085300Y-78339184D01*
X144068300Y-78298342D01*
X144039427Y-78261318D01*
X144002402Y-78232445D01*
X143961561Y-78215445D01*
X143915504Y-78209660D01*
X143870041Y-78215412D01*
X143829364Y-78232382D01*
X143792131Y-78261318D01*
X143762983Y-78298375D01*
X143745844Y-78339214D01*
X143740016Y-78385240D01*
X143390667Y-78385240D01*
X143397014Y-78317587D01*
X143416109Y-78254238D01*
X143447895Y-78195590D01*
X143493453Y-78140692D01*
X143548186Y-78095002D01*
X143606814Y-78063103D01*
X143670300Y-78043922D01*
X143740016Y-78037377D01*
X144091085Y-78037377D01*
X144160332Y-78043880D01*
G37*
G36*
X142531014Y-79262500D02*
G01*
X142531014Y-77685668D01*
X141656594Y-77685668D01*
X141656594Y-77861523D01*
X142181594Y-77861523D01*
X142181594Y-78389087D01*
X141830525Y-78389087D01*
X141830525Y-78564942D01*
X142181594Y-78564942D01*
X142181594Y-79262500D01*
X142531014Y-79262500D01*
G37*
G36*
X141025720Y-78043880D02*
G01*
X141088994Y-78062967D01*
X141147631Y-78094751D01*
X141202577Y-78140326D01*
X141248185Y-78194997D01*
X141280091Y-78253829D01*
X141299319Y-78317813D01*
X141305892Y-78388354D01*
X141305892Y-78913171D01*
X141299368Y-78982858D01*
X141280250Y-79046323D01*
X141248462Y-79104930D01*
X141202943Y-79159643D01*
X141148236Y-79205117D01*
X141089631Y-79236877D01*
X141026164Y-79255981D01*
X140956472Y-79262500D01*
X140605403Y-79262500D01*
X140535707Y-79255936D01*
X140472229Y-79236694D01*
X140413596Y-79204686D01*
X140358840Y-79158818D01*
X140313211Y-79103683D01*
X140281431Y-79045047D01*
X140262375Y-78981981D01*
X140255892Y-78913171D01*
X140255892Y-78388354D01*
X140255918Y-78388080D01*
X140605403Y-78388080D01*
X140605403Y-78913080D01*
X140611105Y-78958011D01*
X140627946Y-78998298D01*
X140656694Y-79035262D01*
X140693451Y-79064079D01*
X140734366Y-79081106D01*
X140780892Y-79086919D01*
X140827481Y-79081105D01*
X140868457Y-79064078D01*
X140905272Y-79035262D01*
X140933965Y-78998304D01*
X140950778Y-78958017D01*
X140956472Y-78913080D01*
X140956472Y-78388080D01*
X140950687Y-78342023D01*
X140933687Y-78301182D01*
X140904814Y-78264157D01*
X140867790Y-78235284D01*
X140826948Y-78218284D01*
X140780892Y-78212500D01*
X140735428Y-78218251D01*
X140694752Y-78235221D01*
X140657519Y-78264157D01*
X140628371Y-78301214D01*
X140611231Y-78342054D01*
X140605403Y-78388080D01*
X140255918Y-78388080D01*
X140262405Y-78318672D01*
X140281510Y-78255076D01*
X140313299Y-78196220D01*
X140358840Y-78141150D01*
X140413601Y-78095238D01*
X140472236Y-78063202D01*
X140535712Y-78043946D01*
X140605403Y-78037377D01*
X140956472Y-78037377D01*
X141025720Y-78043880D01*
G37*
G36*
X138857846Y-78037377D02*
G01*
X138857846Y-79262500D01*
X139207357Y-79262500D01*
X139207357Y-79087011D01*
X139222494Y-79154637D01*
X139247508Y-79202397D01*
X139281376Y-79235105D01*
X139325382Y-79255244D01*
X139382846Y-79262500D01*
X139558426Y-79262500D01*
X139628118Y-79255981D01*
X139691585Y-79236877D01*
X139750190Y-79205117D01*
X139804897Y-79159643D01*
X139850416Y-79104930D01*
X139882203Y-79046323D01*
X139901322Y-78982858D01*
X139907846Y-78913171D01*
X139907846Y-78037377D01*
X139558426Y-78037377D01*
X139558426Y-78913538D01*
X139552732Y-78958475D01*
X139535919Y-78998762D01*
X139507226Y-79035720D01*
X139470411Y-79064536D01*
X139429435Y-79081563D01*
X139382846Y-79087377D01*
X139336320Y-79081564D01*
X139295405Y-79064537D01*
X139258648Y-79035720D01*
X139229900Y-78998755D01*
X139213059Y-78958469D01*
X139207357Y-78913538D01*
X139207357Y-78037377D01*
X138857846Y-78037377D01*
G37*
G36*
X138509800Y-79262500D02*
G01*
X138509800Y-78037377D01*
X138160380Y-78037377D01*
X138160380Y-78212866D01*
X138148591Y-78155494D01*
X138130115Y-78112527D01*
X138105883Y-78080883D01*
X138074077Y-78057346D01*
X138034462Y-78042647D01*
X137984800Y-78037377D01*
X137809311Y-78037377D01*
X137739620Y-78043946D01*
X137676144Y-78063202D01*
X137617509Y-78095238D01*
X137562748Y-78141150D01*
X137517207Y-78196220D01*
X137485418Y-78255076D01*
X137466313Y-78318672D01*
X137459800Y-78388354D01*
X137459800Y-79262500D01*
X137809311Y-79262500D01*
X137809311Y-78388080D01*
X137815139Y-78342054D01*
X137832279Y-78301214D01*
X137861426Y-78264157D01*
X137898660Y-78235221D01*
X137939336Y-78218251D01*
X137984800Y-78212500D01*
X138030856Y-78218284D01*
X138071697Y-78235284D01*
X138108722Y-78264157D01*
X138137595Y-78301182D01*
X138154595Y-78342023D01*
X138160380Y-78388080D01*
X138160380Y-79262500D01*
X138509800Y-79262500D01*
G37*
G36*
X136411265Y-78037377D02*
G01*
X136762334Y-78037377D01*
X136831581Y-78043880D01*
X136894856Y-78062967D01*
X136953493Y-78094751D01*
X137008439Y-78140326D01*
X137054047Y-78194997D01*
X137085953Y-78253829D01*
X137105181Y-78317813D01*
X137111754Y-78388354D01*
X137111754Y-78913171D01*
X137105230Y-78982858D01*
X137086111Y-79046323D01*
X137054324Y-79104930D01*
X137008805Y-79159643D01*
X136954098Y-79205117D01*
X136895493Y-79236877D01*
X136832026Y-79255981D01*
X136762334Y-79262500D01*
X136586754Y-79262500D01*
X136529309Y-79255238D01*
X136485308Y-79235078D01*
X136451434Y-79202327D01*
X136426410Y-79154489D01*
X136411265Y-79086736D01*
X136411265Y-79262500D01*
X136061754Y-79262500D01*
X136061754Y-78913812D01*
X136411265Y-78913812D01*
X136416967Y-78958744D01*
X136433808Y-78999030D01*
X136462556Y-79035995D01*
X136499313Y-79064812D01*
X136540228Y-79081838D01*
X136586754Y-79087652D01*
X136633343Y-79081838D01*
X136674319Y-79064810D01*
X136711134Y-79035995D01*
X136739827Y-78999037D01*
X136756640Y-78958750D01*
X136762334Y-78913812D01*
X136762334Y-78388812D01*
X136756549Y-78342756D01*
X136739549Y-78301914D01*
X136710676Y-78264890D01*
X136673651Y-78236017D01*
X136632810Y-78219017D01*
X136586754Y-78213232D01*
X136411265Y-78213232D01*
X136411265Y-78913812D01*
X136061754Y-78913812D01*
X136061754Y-77685668D01*
X136411265Y-77685668D01*
X136411265Y-78037377D01*
G37*
G36*
X135364288Y-79262500D02*
G01*
X135713708Y-79262500D01*
X135713708Y-78037377D01*
X135364288Y-78037377D01*
X135364288Y-78389087D01*
X135341216Y-78275207D01*
X135304530Y-78189241D01*
X135256027Y-78125305D01*
X135209637Y-78087932D01*
X135154893Y-78060645D01*
X135090147Y-78043469D01*
X135013219Y-78037377D01*
X134839288Y-78037377D01*
X134839288Y-78389087D01*
X135188708Y-78389087D01*
X135234794Y-78394828D01*
X135275638Y-78411688D01*
X135312630Y-78440286D01*
X135341542Y-78477008D01*
X135358521Y-78517368D01*
X135364288Y-78562744D01*
X135364288Y-79262500D01*
G37*
G36*
X134488952Y-79438354D02*
G01*
X134476765Y-79505760D01*
X134453439Y-79553406D01*
X134420132Y-79586258D01*
X134375294Y-79606736D01*
X134315020Y-79614209D01*
X134139440Y-79614209D01*
X134093988Y-79608440D01*
X134053313Y-79591414D01*
X134016067Y-79562369D01*
X133986908Y-79525200D01*
X133969773Y-79484326D01*
X133963952Y-79438354D01*
X133963952Y-79087286D01*
X133979091Y-79154954D01*
X134004109Y-79202740D01*
X134037979Y-79235463D01*
X134081983Y-79255608D01*
X134139440Y-79262866D01*
X134315020Y-79262866D01*
X134384707Y-79256342D01*
X134448172Y-79237224D01*
X134506779Y-79205436D01*
X134561492Y-79159918D01*
X134607005Y-79105206D01*
X134638794Y-79046585D01*
X134657915Y-78983090D01*
X134664440Y-78913354D01*
X134664440Y-78037377D01*
X134315020Y-78037377D01*
X134315020Y-78913538D01*
X134309327Y-78958475D01*
X134292514Y-78998762D01*
X134263821Y-79035720D01*
X134227005Y-79064536D01*
X134186029Y-79081563D01*
X134139440Y-79087377D01*
X134092915Y-79081564D01*
X134052000Y-79064537D01*
X134015243Y-79035720D01*
X133986495Y-78998755D01*
X133969654Y-78958469D01*
X133963952Y-78913538D01*
X133963952Y-78037377D01*
X133614440Y-78037377D01*
X133614440Y-79440186D01*
X133620989Y-79509486D01*
X133640213Y-79572818D01*
X133672246Y-79631528D01*
X133718213Y-79686566D01*
X133773380Y-79732457D01*
X133832039Y-79764402D01*
X133895123Y-79783550D01*
X133963952Y-79790064D01*
X134315020Y-79790064D01*
X134412565Y-79779857D01*
X134490517Y-79751387D01*
X134553236Y-79705836D01*
X134603266Y-79641595D01*
X134640963Y-79554505D01*
X134664440Y-79438354D01*
X134488952Y-79438354D01*
G37*
G36*
X147245388Y-81782500D02*
G01*
X147245388Y-80205668D01*
X147165796Y-80205668D01*
X146417680Y-80952135D01*
X145670480Y-80205668D01*
X145494900Y-80205668D01*
X145494900Y-81782500D01*
X145845969Y-81782500D01*
X145845969Y-80818320D01*
X146460361Y-81432805D01*
X147069900Y-80818320D01*
X147069900Y-81782500D01*
X147245388Y-81782500D01*
G37*
G36*
X144865216Y-80563880D02*
G01*
X144928491Y-80582967D01*
X144987128Y-80614751D01*
X145042074Y-80660326D01*
X145087681Y-80714997D01*
X145119588Y-80773829D01*
X145138816Y-80837813D01*
X145145388Y-80908354D01*
X145145388Y-81433171D01*
X145138865Y-81502858D01*
X145119746Y-81566323D01*
X145087958Y-81624930D01*
X145042440Y-81679643D01*
X144987733Y-81725117D01*
X144929128Y-81756877D01*
X144865661Y-81775981D01*
X144795969Y-81782500D01*
X144444900Y-81782500D01*
X144375204Y-81775936D01*
X144311726Y-81756694D01*
X144253092Y-81724686D01*
X144198337Y-81678818D01*
X144152708Y-81623683D01*
X144120928Y-81565047D01*
X144101872Y-81501981D01*
X144095388Y-81433171D01*
X144095388Y-80908354D01*
X144095414Y-80908080D01*
X144444900Y-80908080D01*
X144444900Y-81433080D01*
X144450602Y-81478011D01*
X144467443Y-81518298D01*
X144496191Y-81555262D01*
X144532948Y-81584079D01*
X144573863Y-81601106D01*
X144620388Y-81606919D01*
X144666977Y-81601105D01*
X144707954Y-81584078D01*
X144744769Y-81555262D01*
X144773462Y-81518304D01*
X144790275Y-81478017D01*
X144795969Y-81433080D01*
X144795969Y-80908080D01*
X144790184Y-80862023D01*
X144773184Y-80821182D01*
X144744311Y-80784157D01*
X144707286Y-80755284D01*
X144666445Y-80738284D01*
X144620388Y-80732500D01*
X144574925Y-80738251D01*
X144534248Y-80755221D01*
X144497015Y-80784157D01*
X144467867Y-80821214D01*
X144450727Y-80862054D01*
X144444900Y-80908080D01*
X144095414Y-80908080D01*
X144101902Y-80838672D01*
X144121007Y-80775076D01*
X144152796Y-80716220D01*
X144198337Y-80661150D01*
X144253098Y-80615238D01*
X144311733Y-80583202D01*
X144375209Y-80563946D01*
X144444900Y-80557377D01*
X144795969Y-80557377D01*
X144865216Y-80563880D01*
G37*
G36*
X143046854Y-80557377D02*
G01*
X143397922Y-80557377D01*
X143467170Y-80563880D01*
X143530444Y-80582967D01*
X143589082Y-80614751D01*
X143644028Y-80660326D01*
X143689635Y-80714997D01*
X143721542Y-80773829D01*
X143740770Y-80837813D01*
X143747342Y-80908354D01*
X143747342Y-81433171D01*
X143740819Y-81502858D01*
X143721700Y-81566323D01*
X143689912Y-81624930D01*
X143644394Y-81679643D01*
X143589687Y-81725117D01*
X143531082Y-81756877D01*
X143467614Y-81775981D01*
X143397922Y-81782500D01*
X143222342Y-81782500D01*
X143164897Y-81775238D01*
X143120896Y-81755078D01*
X143087023Y-81722327D01*
X143061999Y-81674489D01*
X143046854Y-81606736D01*
X143046854Y-81782500D01*
X142697342Y-81782500D01*
X142697342Y-81433812D01*
X143046854Y-81433812D01*
X143052556Y-81478744D01*
X143069397Y-81519030D01*
X143098145Y-81555995D01*
X143134902Y-81584812D01*
X143175817Y-81601838D01*
X143222342Y-81607652D01*
X143268931Y-81601838D01*
X143309908Y-81584810D01*
X143346723Y-81555995D01*
X143375416Y-81519037D01*
X143392229Y-81478750D01*
X143397922Y-81433812D01*
X143397922Y-80908812D01*
X143392138Y-80862756D01*
X143375138Y-80821914D01*
X143346265Y-80784890D01*
X143309240Y-80756017D01*
X143268399Y-80739017D01*
X143222342Y-80733232D01*
X143046854Y-80733232D01*
X143046854Y-81433812D01*
X142697342Y-81433812D01*
X142697342Y-80205668D01*
X143046854Y-80205668D01*
X143046854Y-80557377D01*
G37*
G36*
X141299296Y-80557377D02*
G01*
X141299296Y-81782500D01*
X141648808Y-81782500D01*
X141648808Y-81607011D01*
X141663945Y-81674637D01*
X141688959Y-81722397D01*
X141722827Y-81755105D01*
X141766833Y-81775244D01*
X141824296Y-81782500D01*
X141999876Y-81782500D01*
X142069568Y-81775981D01*
X142133036Y-81756877D01*
X142191641Y-81725117D01*
X142246348Y-81679643D01*
X142291866Y-81624930D01*
X142323654Y-81566323D01*
X142342773Y-81502858D01*
X142349296Y-81433171D01*
X142349296Y-80557377D01*
X141999876Y-80557377D01*
X141999876Y-81433538D01*
X141994183Y-81478475D01*
X141977370Y-81518762D01*
X141948677Y-81555720D01*
X141911861Y-81584536D01*
X141870885Y-81601563D01*
X141824296Y-81607377D01*
X141777771Y-81601564D01*
X141736856Y-81584537D01*
X141700099Y-81555720D01*
X141671351Y-81518755D01*
X141654510Y-81478469D01*
X141648808Y-81433538D01*
X141648808Y-80557377D01*
X141299296Y-80557377D01*
G37*
G36*
X140951250Y-81782500D02*
G01*
X140951250Y-80205668D01*
X140601830Y-80205668D01*
X140601830Y-81782500D01*
X140951250Y-81782500D01*
G37*
G36*
X139998921Y-80567586D02*
G01*
X140076890Y-80596060D01*
X140139612Y-80641614D01*
X140189634Y-80705855D01*
X140227313Y-80792942D01*
X140250762Y-80909087D01*
X140075273Y-80909087D01*
X140060749Y-80841268D01*
X140036169Y-80793431D01*
X140002615Y-80760685D01*
X139958799Y-80740511D01*
X139901342Y-80733232D01*
X139725762Y-80733232D01*
X139680304Y-80738992D01*
X139639628Y-80755991D01*
X139602389Y-80784981D01*
X139573243Y-80822097D01*
X139556101Y-80862997D01*
X139550273Y-80909087D01*
X139550273Y-81079080D01*
X139901342Y-81079080D01*
X139970565Y-81085607D01*
X140033829Y-81104769D01*
X140092473Y-81136690D01*
X140147447Y-81182486D01*
X140193121Y-81237392D01*
X140225022Y-81296227D01*
X140244213Y-81359961D01*
X140250762Y-81429965D01*
X140250762Y-81431614D01*
X140244233Y-81501637D01*
X140225105Y-81565396D01*
X140193313Y-81624256D01*
X140147813Y-81679185D01*
X140093079Y-81724880D01*
X140034466Y-81756778D01*
X139971009Y-81775957D01*
X139901342Y-81782500D01*
X139725762Y-81782500D01*
X139668304Y-81775242D01*
X139624300Y-81755096D01*
X139590430Y-81722374D01*
X139565413Y-81674588D01*
X139550273Y-81606919D01*
X139550273Y-81782500D01*
X139200762Y-81782500D01*
X139200762Y-81430515D01*
X139550273Y-81430515D01*
X139555975Y-81475446D01*
X139572816Y-81515733D01*
X139601564Y-81552698D01*
X139638321Y-81581515D01*
X139679236Y-81598541D01*
X139725762Y-81604355D01*
X139772290Y-81598543D01*
X139813237Y-81581518D01*
X139850051Y-81552698D01*
X139878799Y-81515733D01*
X139895640Y-81475446D01*
X139901342Y-81430515D01*
X139901342Y-81428866D01*
X139895575Y-81383427D01*
X139878595Y-81343006D01*
X139849684Y-81306226D01*
X139812686Y-81277573D01*
X139771842Y-81260685D01*
X139725762Y-81254935D01*
X139550273Y-81254935D01*
X139550273Y-81430515D01*
X139200762Y-81430515D01*
X139200762Y-80908354D01*
X139207275Y-80838672D01*
X139226380Y-80775076D01*
X139258169Y-80716220D01*
X139303710Y-80661150D01*
X139358471Y-80615238D01*
X139417106Y-80583202D01*
X139480582Y-80563946D01*
X139550273Y-80557377D01*
X139901342Y-80557377D01*
X139998921Y-80567586D01*
G37*
G36*
X138503296Y-81782500D02*
G01*
X138852716Y-81782500D01*
X138852716Y-80557377D01*
X138503296Y-80557377D01*
X138503296Y-80909087D01*
X138480225Y-80795207D01*
X138443538Y-80709241D01*
X138395035Y-80645305D01*
X138348645Y-80607932D01*
X138293901Y-80580645D01*
X138229155Y-80563469D01*
X138152227Y-80557377D01*
X137978296Y-80557377D01*
X137978296Y-80909087D01*
X138327716Y-80909087D01*
X138373802Y-80914828D01*
X138414646Y-80931688D01*
X138451638Y-80960286D01*
X138480551Y-80997008D01*
X138497530Y-81037368D01*
X138503296Y-81082744D01*
X138503296Y-81782500D01*
G37*
D12*
X132261904Y-115154819D02*
X132261904Y-115964342D01*
X132261904Y-115964342D02*
X132214285Y-116059580D01*
X132214285Y-116059580D02*
X132166666Y-116107200D01*
X132166666Y-116107200D02*
X132071428Y-116154819D01*
X132071428Y-116154819D02*
X131880952Y-116154819D01*
X131880952Y-116154819D02*
X131785714Y-116107200D01*
X131785714Y-116107200D02*
X131738095Y-116059580D01*
X131738095Y-116059580D02*
X131690476Y-115964342D01*
X131690476Y-115964342D02*
X131690476Y-115154819D01*
X131261904Y-115250057D02*
X131214285Y-115202438D01*
X131214285Y-115202438D02*
X131119047Y-115154819D01*
X131119047Y-115154819D02*
X130880952Y-115154819D01*
X130880952Y-115154819D02*
X130785714Y-115202438D01*
X130785714Y-115202438D02*
X130738095Y-115250057D01*
X130738095Y-115250057D02*
X130690476Y-115345295D01*
X130690476Y-115345295D02*
X130690476Y-115440533D01*
X130690476Y-115440533D02*
X130738095Y-115583390D01*
X130738095Y-115583390D02*
X131309523Y-116154819D01*
X131309523Y-116154819D02*
X130690476Y-116154819D01*
X133055238Y-124954819D02*
X133531428Y-124954819D01*
X133531428Y-124954819D02*
X133531428Y-123954819D01*
X132817142Y-123954819D02*
X132150476Y-123954819D01*
X132150476Y-123954819D02*
X132579047Y-124954819D01*
X131626666Y-124383390D02*
X131721904Y-124335771D01*
X131721904Y-124335771D02*
X131769523Y-124288152D01*
X131769523Y-124288152D02*
X131817142Y-124192914D01*
X131817142Y-124192914D02*
X131817142Y-124145295D01*
X131817142Y-124145295D02*
X131769523Y-124050057D01*
X131769523Y-124050057D02*
X131721904Y-124002438D01*
X131721904Y-124002438D02*
X131626666Y-123954819D01*
X131626666Y-123954819D02*
X131436190Y-123954819D01*
X131436190Y-123954819D02*
X131340952Y-124002438D01*
X131340952Y-124002438D02*
X131293333Y-124050057D01*
X131293333Y-124050057D02*
X131245714Y-124145295D01*
X131245714Y-124145295D02*
X131245714Y-124192914D01*
X131245714Y-124192914D02*
X131293333Y-124288152D01*
X131293333Y-124288152D02*
X131340952Y-124335771D01*
X131340952Y-124335771D02*
X131436190Y-124383390D01*
X131436190Y-124383390D02*
X131626666Y-124383390D01*
X131626666Y-124383390D02*
X131721904Y-124431009D01*
X131721904Y-124431009D02*
X131769523Y-124478628D01*
X131769523Y-124478628D02*
X131817142Y-124573866D01*
X131817142Y-124573866D02*
X131817142Y-124764342D01*
X131817142Y-124764342D02*
X131769523Y-124859580D01*
X131769523Y-124859580D02*
X131721904Y-124907200D01*
X131721904Y-124907200D02*
X131626666Y-124954819D01*
X131626666Y-124954819D02*
X131436190Y-124954819D01*
X131436190Y-124954819D02*
X131340952Y-124907200D01*
X131340952Y-124907200D02*
X131293333Y-124859580D01*
X131293333Y-124859580D02*
X131245714Y-124764342D01*
X131245714Y-124764342D02*
X131245714Y-124573866D01*
X131245714Y-124573866D02*
X131293333Y-124478628D01*
X131293333Y-124478628D02*
X131340952Y-124431009D01*
X131340952Y-124431009D02*
X131436190Y-124383390D01*
X130626666Y-123954819D02*
X130531428Y-123954819D01*
X130531428Y-123954819D02*
X130436190Y-124002438D01*
X130436190Y-124002438D02*
X130388571Y-124050057D01*
X130388571Y-124050057D02*
X130340952Y-124145295D01*
X130340952Y-124145295D02*
X130293333Y-124335771D01*
X130293333Y-124335771D02*
X130293333Y-124573866D01*
X130293333Y-124573866D02*
X130340952Y-124764342D01*
X130340952Y-124764342D02*
X130388571Y-124859580D01*
X130388571Y-124859580D02*
X130436190Y-124907200D01*
X130436190Y-124907200D02*
X130531428Y-124954819D01*
X130531428Y-124954819D02*
X130626666Y-124954819D01*
X130626666Y-124954819D02*
X130721904Y-124907200D01*
X130721904Y-124907200D02*
X130769523Y-124859580D01*
X130769523Y-124859580D02*
X130817142Y-124764342D01*
X130817142Y-124764342D02*
X130864761Y-124573866D01*
X130864761Y-124573866D02*
X130864761Y-124335771D01*
X130864761Y-124335771D02*
X130817142Y-124145295D01*
X130817142Y-124145295D02*
X130769523Y-124050057D01*
X130769523Y-124050057D02*
X130721904Y-124002438D01*
X130721904Y-124002438D02*
X130626666Y-123954819D01*
X129388571Y-123954819D02*
X129864761Y-123954819D01*
X129864761Y-123954819D02*
X129912380Y-124431009D01*
X129912380Y-124431009D02*
X129864761Y-124383390D01*
X129864761Y-124383390D02*
X129769523Y-124335771D01*
X129769523Y-124335771D02*
X129531428Y-124335771D01*
X129531428Y-124335771D02*
X129436190Y-124383390D01*
X129436190Y-124383390D02*
X129388571Y-124431009D01*
X129388571Y-124431009D02*
X129340952Y-124526247D01*
X129340952Y-124526247D02*
X129340952Y-124764342D01*
X129340952Y-124764342D02*
X129388571Y-124859580D01*
X129388571Y-124859580D02*
X129436190Y-124907200D01*
X129436190Y-124907200D02*
X129531428Y-124954819D01*
X129531428Y-124954819D02*
X129769523Y-124954819D01*
X129769523Y-124954819D02*
X129864761Y-124907200D01*
X129864761Y-124907200D02*
X129912380Y-124859580D01*
X153033333Y-105234819D02*
X153033333Y-105949104D01*
X153033333Y-105949104D02*
X153080952Y-106091961D01*
X153080952Y-106091961D02*
X153176190Y-106187200D01*
X153176190Y-106187200D02*
X153319047Y-106234819D01*
X153319047Y-106234819D02*
X153414285Y-106234819D01*
X152128571Y-105568152D02*
X152128571Y-106234819D01*
X152366666Y-105187200D02*
X152604761Y-105901485D01*
X152604761Y-105901485D02*
X151985714Y-105901485D01*
X151054819Y-112714285D02*
X150054819Y-112714285D01*
X150054819Y-112714285D02*
X150769104Y-113047618D01*
X150769104Y-113047618D02*
X150054819Y-113380951D01*
X150054819Y-113380951D02*
X151054819Y-113380951D01*
X150959580Y-114428570D02*
X151007200Y-114380951D01*
X151007200Y-114380951D02*
X151054819Y-114238094D01*
X151054819Y-114238094D02*
X151054819Y-114142856D01*
X151054819Y-114142856D02*
X151007200Y-113999999D01*
X151007200Y-113999999D02*
X150911961Y-113904761D01*
X150911961Y-113904761D02*
X150816723Y-113857142D01*
X150816723Y-113857142D02*
X150626247Y-113809523D01*
X150626247Y-113809523D02*
X150483390Y-113809523D01*
X150483390Y-113809523D02*
X150292914Y-113857142D01*
X150292914Y-113857142D02*
X150197676Y-113904761D01*
X150197676Y-113904761D02*
X150102438Y-113999999D01*
X150102438Y-113999999D02*
X150054819Y-114142856D01*
X150054819Y-114142856D02*
X150054819Y-114238094D01*
X150054819Y-114238094D02*
X150102438Y-114380951D01*
X150102438Y-114380951D02*
X150150057Y-114428570D01*
X151054819Y-114857142D02*
X150054819Y-114857142D01*
X150054819Y-114857142D02*
X150054819Y-115238094D01*
X150054819Y-115238094D02*
X150102438Y-115333332D01*
X150102438Y-115333332D02*
X150150057Y-115380951D01*
X150150057Y-115380951D02*
X150245295Y-115428570D01*
X150245295Y-115428570D02*
X150388152Y-115428570D01*
X150388152Y-115428570D02*
X150483390Y-115380951D01*
X150483390Y-115380951D02*
X150531009Y-115333332D01*
X150531009Y-115333332D02*
X150578628Y-115238094D01*
X150578628Y-115238094D02*
X150578628Y-114857142D01*
X150388152Y-116285713D02*
X151054819Y-116285713D01*
X150007200Y-116047618D02*
X150721485Y-115809523D01*
X150721485Y-115809523D02*
X150721485Y-116428570D01*
X150054819Y-116714285D02*
X150054819Y-117380951D01*
X150054819Y-117380951D02*
X151054819Y-116952380D01*
X150054819Y-118238094D02*
X150054819Y-117761904D01*
X150054819Y-117761904D02*
X150531009Y-117714285D01*
X150531009Y-117714285D02*
X150483390Y-117761904D01*
X150483390Y-117761904D02*
X150435771Y-117857142D01*
X150435771Y-117857142D02*
X150435771Y-118095237D01*
X150435771Y-118095237D02*
X150483390Y-118190475D01*
X150483390Y-118190475D02*
X150531009Y-118238094D01*
X150531009Y-118238094D02*
X150626247Y-118285713D01*
X150626247Y-118285713D02*
X150864342Y-118285713D01*
X150864342Y-118285713D02*
X150959580Y-118238094D01*
X150959580Y-118238094D02*
X151007200Y-118190475D01*
X151007200Y-118190475D02*
X151054819Y-118095237D01*
X151054819Y-118095237D02*
X151054819Y-117857142D01*
X151054819Y-117857142D02*
X151007200Y-117761904D01*
X151007200Y-117761904D02*
X150959580Y-117714285D01*
X150483390Y-118857142D02*
X150435771Y-118761904D01*
X150435771Y-118761904D02*
X150388152Y-118714285D01*
X150388152Y-118714285D02*
X150292914Y-118666666D01*
X150292914Y-118666666D02*
X150245295Y-118666666D01*
X150245295Y-118666666D02*
X150150057Y-118714285D01*
X150150057Y-118714285D02*
X150102438Y-118761904D01*
X150102438Y-118761904D02*
X150054819Y-118857142D01*
X150054819Y-118857142D02*
X150054819Y-119047618D01*
X150054819Y-119047618D02*
X150102438Y-119142856D01*
X150102438Y-119142856D02*
X150150057Y-119190475D01*
X150150057Y-119190475D02*
X150245295Y-119238094D01*
X150245295Y-119238094D02*
X150292914Y-119238094D01*
X150292914Y-119238094D02*
X150388152Y-119190475D01*
X150388152Y-119190475D02*
X150435771Y-119142856D01*
X150435771Y-119142856D02*
X150483390Y-119047618D01*
X150483390Y-119047618D02*
X150483390Y-118857142D01*
X150483390Y-118857142D02*
X150531009Y-118761904D01*
X150531009Y-118761904D02*
X150578628Y-118714285D01*
X150578628Y-118714285D02*
X150673866Y-118666666D01*
X150673866Y-118666666D02*
X150864342Y-118666666D01*
X150864342Y-118666666D02*
X150959580Y-118714285D01*
X150959580Y-118714285D02*
X151007200Y-118761904D01*
X151007200Y-118761904D02*
X151054819Y-118857142D01*
X151054819Y-118857142D02*
X151054819Y-119047618D01*
X151054819Y-119047618D02*
X151007200Y-119142856D01*
X151007200Y-119142856D02*
X150959580Y-119190475D01*
X150959580Y-119190475D02*
X150864342Y-119238094D01*
X150864342Y-119238094D02*
X150673866Y-119238094D01*
X150673866Y-119238094D02*
X150578628Y-119190475D01*
X150578628Y-119190475D02*
X150531009Y-119142856D01*
X150531009Y-119142856D02*
X150483390Y-119047618D01*
X150531009Y-120761904D02*
X150578628Y-120904761D01*
X150578628Y-120904761D02*
X150626247Y-120952380D01*
X150626247Y-120952380D02*
X150721485Y-120999999D01*
X150721485Y-120999999D02*
X150864342Y-120999999D01*
X150864342Y-120999999D02*
X150959580Y-120952380D01*
X150959580Y-120952380D02*
X151007200Y-120904761D01*
X151007200Y-120904761D02*
X151054819Y-120809523D01*
X151054819Y-120809523D02*
X151054819Y-120428571D01*
X151054819Y-120428571D02*
X150054819Y-120428571D01*
X150054819Y-120428571D02*
X150054819Y-120761904D01*
X150054819Y-120761904D02*
X150102438Y-120857142D01*
X150102438Y-120857142D02*
X150150057Y-120904761D01*
X150150057Y-120904761D02*
X150245295Y-120952380D01*
X150245295Y-120952380D02*
X150340533Y-120952380D01*
X150340533Y-120952380D02*
X150435771Y-120904761D01*
X150435771Y-120904761D02*
X150483390Y-120857142D01*
X150483390Y-120857142D02*
X150531009Y-120761904D01*
X150531009Y-120761904D02*
X150531009Y-120428571D01*
X151054819Y-121571428D02*
X151007200Y-121476190D01*
X151007200Y-121476190D02*
X150959580Y-121428571D01*
X150959580Y-121428571D02*
X150864342Y-121380952D01*
X150864342Y-121380952D02*
X150578628Y-121380952D01*
X150578628Y-121380952D02*
X150483390Y-121428571D01*
X150483390Y-121428571D02*
X150435771Y-121476190D01*
X150435771Y-121476190D02*
X150388152Y-121571428D01*
X150388152Y-121571428D02*
X150388152Y-121714285D01*
X150388152Y-121714285D02*
X150435771Y-121809523D01*
X150435771Y-121809523D02*
X150483390Y-121857142D01*
X150483390Y-121857142D02*
X150578628Y-121904761D01*
X150578628Y-121904761D02*
X150864342Y-121904761D01*
X150864342Y-121904761D02*
X150959580Y-121857142D01*
X150959580Y-121857142D02*
X151007200Y-121809523D01*
X151007200Y-121809523D02*
X151054819Y-121714285D01*
X151054819Y-121714285D02*
X151054819Y-121571428D01*
X151054819Y-122761904D02*
X150531009Y-122761904D01*
X150531009Y-122761904D02*
X150435771Y-122714285D01*
X150435771Y-122714285D02*
X150388152Y-122619047D01*
X150388152Y-122619047D02*
X150388152Y-122428571D01*
X150388152Y-122428571D02*
X150435771Y-122333333D01*
X151007200Y-122761904D02*
X151054819Y-122666666D01*
X151054819Y-122666666D02*
X151054819Y-122428571D01*
X151054819Y-122428571D02*
X151007200Y-122333333D01*
X151007200Y-122333333D02*
X150911961Y-122285714D01*
X150911961Y-122285714D02*
X150816723Y-122285714D01*
X150816723Y-122285714D02*
X150721485Y-122333333D01*
X150721485Y-122333333D02*
X150673866Y-122428571D01*
X150673866Y-122428571D02*
X150673866Y-122666666D01*
X150673866Y-122666666D02*
X150626247Y-122761904D01*
X151054819Y-123238095D02*
X150388152Y-123238095D01*
X150578628Y-123238095D02*
X150483390Y-123285714D01*
X150483390Y-123285714D02*
X150435771Y-123333333D01*
X150435771Y-123333333D02*
X150388152Y-123428571D01*
X150388152Y-123428571D02*
X150388152Y-123523809D01*
X151054819Y-124285714D02*
X150054819Y-124285714D01*
X151007200Y-124285714D02*
X151054819Y-124190476D01*
X151054819Y-124190476D02*
X151054819Y-124000000D01*
X151054819Y-124000000D02*
X151007200Y-123904762D01*
X151007200Y-123904762D02*
X150959580Y-123857143D01*
X150959580Y-123857143D02*
X150864342Y-123809524D01*
X150864342Y-123809524D02*
X150578628Y-123809524D01*
X150578628Y-123809524D02*
X150483390Y-123857143D01*
X150483390Y-123857143D02*
X150435771Y-123904762D01*
X150435771Y-123904762D02*
X150388152Y-124000000D01*
X150388152Y-124000000D02*
X150388152Y-124190476D01*
X150388152Y-124190476D02*
X150435771Y-124285714D01*
D16*
%TO.C,J5*%
X128180000Y-103580000D02*
X129560000Y-103580000D01*
X128180000Y-102200000D02*
X128180000Y-103580000D01*
X128180000Y-100930000D02*
X128180000Y-83040000D01*
X128180000Y-100930000D02*
X130830000Y-100930000D01*
X128180000Y-83040000D02*
X133480000Y-83040000D01*
X130830000Y-103580000D02*
X133480000Y-103580000D01*
X130830000Y-100930000D02*
X130830000Y-103580000D01*
X133480000Y-103580000D02*
X133480000Y-83040000D01*
%TO.C,U2*%
X136580000Y-120821000D02*
X126340000Y-120821000D01*
X136580000Y-117690000D02*
X126340000Y-117690000D01*
X136580000Y-116180000D02*
X136580000Y-120821000D01*
X136580000Y-116180000D02*
X126340000Y-116180000D01*
D17*
X135280000Y-116910000D02*
X127600000Y-116910000D01*
D16*
X126340000Y-116180000D02*
X126340000Y-120821000D01*
%TO.C,RV3*%
X146310000Y-139200000D02*
X141090000Y-139200000D01*
X146310000Y-146300000D02*
X146310000Y-139200000D01*
X146310000Y-149120000D02*
X146310000Y-147000000D01*
X146310000Y-149120000D02*
X141090000Y-149120000D01*
X141090000Y-149120000D02*
X141090000Y-139200000D01*
X146640000Y-146940000D02*
X146310000Y-146700000D01*
X146640000Y-146460000D01*
X146640000Y-146940000D01*
G36*
X146640000Y-146940000D02*
G01*
X146310000Y-146700000D01*
X146640000Y-146460000D01*
X146640000Y-146940000D01*
G37*
%TO.C,RV1*%
X132710000Y-139200000D02*
X127490000Y-139200000D01*
X132710000Y-146300000D02*
X132710000Y-139200000D01*
X132710000Y-149120000D02*
X132710000Y-147000000D01*
X132710000Y-149120000D02*
X127490000Y-149120000D01*
X127490000Y-149120000D02*
X127490000Y-139200000D01*
X133040000Y-146940000D02*
X132710000Y-146700000D01*
X133040000Y-146460000D01*
X133040000Y-146940000D01*
G36*
X133040000Y-146940000D02*
G01*
X132710000Y-146700000D01*
X133040000Y-146460000D01*
X133040000Y-146940000D01*
G37*
%TO.C,RV4*%
X153110000Y-139200000D02*
X147890000Y-139200000D01*
X153110000Y-146300000D02*
X153110000Y-139200000D01*
X153110000Y-149120000D02*
X153110000Y-147000000D01*
X153110000Y-149120000D02*
X147890000Y-149120000D01*
X147890000Y-149120000D02*
X147890000Y-139200000D01*
X153440000Y-146940000D02*
X153110000Y-146700000D01*
X153440000Y-146460000D01*
X153440000Y-146940000D01*
G36*
X153440000Y-146940000D02*
G01*
X153110000Y-146700000D01*
X153440000Y-146460000D01*
X153440000Y-146940000D01*
G37*
D12*
%TO.C,J8*%
X142610000Y-112330000D02*
X142610000Y-114870000D01*
X134990000Y-112330000D02*
X142610000Y-112330000D01*
X134990000Y-114870000D02*
X134990000Y-112330000D01*
X142610000Y-114870000D02*
X134990000Y-114870000D01*
D16*
%TO.C,J4*%
X151320000Y-109430000D02*
X151320000Y-132400000D01*
X154080000Y-106780000D02*
X152700000Y-106780000D01*
X154080000Y-108160000D02*
X154080000Y-106780000D01*
X154080000Y-109430000D02*
X151320000Y-109430000D01*
X154080000Y-109430000D02*
X154080000Y-132400000D01*
X154080000Y-132400000D02*
X151320000Y-132400000D01*
%TO.C,J6*%
X148905000Y-55229750D02*
X148905000Y-56559750D01*
X148905000Y-57829750D02*
X148905000Y-73129750D01*
X150235000Y-55229750D02*
X148905000Y-55229750D01*
X151565000Y-57829750D02*
X148905000Y-57829750D01*
X151565000Y-57829750D02*
X151565000Y-73129750D01*
X151565000Y-73129750D02*
X148905000Y-73129750D01*
D18*
%TO.C,U2*%
X126500000Y-122887500D02*
X126500000Y-132887500D01*
X126500000Y-122887500D02*
X136500000Y-122887500D01*
X126500000Y-132887500D02*
X126500000Y-137187500D01*
X126500000Y-132887500D02*
X136500000Y-132887500D01*
X126500000Y-136887500D02*
X126500000Y-137387500D01*
D12*
X126500000Y-137187500D02*
X126500000Y-137387500D01*
D18*
X126500000Y-137387500D02*
X127000000Y-137887500D01*
X126500000Y-137387500D02*
X127000000Y-137887500D01*
D12*
X127000000Y-137887500D02*
X127400000Y-137887500D01*
D18*
X127000000Y-137887500D02*
X128200000Y-137887500D01*
X127200000Y-137887500D02*
X135300000Y-137887500D01*
D19*
X128960000Y-122189500D02*
X128960000Y-120665500D01*
X131500000Y-122189500D02*
X131500000Y-120665500D01*
X134040000Y-122189500D02*
X134040000Y-120665500D01*
D18*
X135200000Y-137887500D02*
X136000000Y-137887500D01*
X136000000Y-137887500D02*
X136500000Y-137387500D01*
X136500000Y-122887500D02*
X136500000Y-132887500D01*
X136500000Y-137387500D02*
X136500000Y-132887500D01*
X132931782Y-135387500D02*
G75*
G02*
X130068218Y-135387500I-1431782J0D01*
G01*
X130068218Y-135387500D02*
G75*
G02*
X132931782Y-135387500I1431782J0D01*
G01*
D12*
%TO.C,J3*%
X126790000Y-112330000D02*
X134410000Y-112330000D01*
X126790000Y-114870000D02*
X126790000Y-112330000D01*
X134410000Y-112330000D02*
X134410000Y-114870000D01*
X134410000Y-114870000D02*
X126790000Y-114870000D01*
D16*
%TO.C,J7*%
X133997175Y-55129750D02*
X136657175Y-55129750D01*
X133997175Y-70429750D02*
X133997175Y-55129750D01*
X133997175Y-70429750D02*
X136657175Y-70429750D01*
X135327175Y-73029750D02*
X136657175Y-73029750D01*
X136657175Y-70429750D02*
X136657175Y-55129750D01*
X136657175Y-73029750D02*
X136657175Y-71699750D01*
%TD*%
%LPC*%
D20*
%TO.C,J5*%
X129560000Y-102200000D03*
D21*
X132100000Y-102200000D03*
X129560000Y-99660000D03*
X132100000Y-99660000D03*
X129560000Y-97120000D03*
X132100000Y-97120000D03*
X129560000Y-94580000D03*
X132100000Y-94580000D03*
X129560000Y-92040000D03*
X132100000Y-92040000D03*
X129560000Y-89500000D03*
X132100000Y-89500000D03*
X129560000Y-86960000D03*
X132100000Y-86960000D03*
X129560000Y-84420000D03*
X132100000Y-84420000D03*
%TD*%
D22*
%TO.C,U2*%
X128920000Y-118800000D03*
X131460000Y-118800000D03*
D23*
X134000000Y-118800000D03*
%TD*%
D24*
%TO.C,RV2*%
X136900000Y-141620000D03*
X136900000Y-144160000D03*
D25*
X136900000Y-146700000D03*
%TD*%
%TO.C,RV3*%
X143700000Y-146700000D03*
D24*
X143700000Y-144160000D03*
X143700000Y-141620000D03*
%TD*%
D25*
%TO.C,RV1*%
X130100000Y-146700000D03*
D24*
X130100000Y-144160000D03*
X130100000Y-141620000D03*
%TD*%
D25*
%TO.C,RV4*%
X150500000Y-146700000D03*
D24*
X150500000Y-144160000D03*
X150500000Y-141620000D03*
%TD*%
D26*
%TO.C,J8*%
X141340000Y-113600000D03*
X138800000Y-113600000D03*
X136260000Y-113600000D03*
%TD*%
D27*
%TO.C,R3*%
X146500000Y-90000000D03*
X138880000Y-90000000D03*
%TD*%
%TO.C,R4*%
X128400000Y-127280000D03*
X128400000Y-134900000D03*
%TD*%
%TO.C,R9*%
X147400000Y-83610000D03*
X147400000Y-75990000D03*
%TD*%
D20*
%TO.C,J2*%
X127300000Y-57460000D03*
D21*
X127300000Y-60000000D03*
X127300000Y-62540000D03*
X127300000Y-65080000D03*
X127300000Y-67620000D03*
X127300000Y-70160000D03*
X127300000Y-72700000D03*
X127300000Y-75240000D03*
%TD*%
D27*
%TO.C,R1*%
X146500000Y-86700000D03*
X138880000Y-86700000D03*
%TD*%
%TO.C,R8*%
X134500000Y-127280000D03*
X134500000Y-134900000D03*
%TD*%
%TO.C,C5*%
X143800000Y-108400000D03*
X148800000Y-108400000D03*
%TD*%
D28*
%TO.C,C2*%
X129600000Y-110100000D03*
D29*
X129600000Y-108100000D03*
%TD*%
D27*
%TO.C,R11*%
X141000000Y-83620000D03*
X141000000Y-76000000D03*
%TD*%
%TO.C,R5*%
X146500000Y-93300000D03*
X138880000Y-93300000D03*
%TD*%
%TO.C,R7*%
X146500000Y-96600000D03*
X138880000Y-96600000D03*
%TD*%
D28*
%TO.C,C6*%
X139700000Y-110200000D03*
D29*
X139700000Y-108200000D03*
%TD*%
D28*
%TO.C,C4*%
X134700000Y-110100000D03*
D29*
X134700000Y-108100000D03*
%TD*%
D27*
%TO.C,C3*%
X143800000Y-116100000D03*
X148800000Y-116100000D03*
%TD*%
%TO.C,R6*%
X131500000Y-127290000D03*
X131500000Y-134910000D03*
%TD*%
D30*
%TO.C,U1*%
X139700000Y-120260000D03*
D27*
X139700000Y-122800000D03*
X139700000Y-125340000D03*
X139700000Y-127880000D03*
X139700000Y-130420000D03*
X139700000Y-132960000D03*
X139700000Y-135500000D03*
X147320000Y-135500000D03*
X147320000Y-132960000D03*
X147320000Y-130420000D03*
X147320000Y-127880000D03*
X147320000Y-125340000D03*
X147320000Y-122800000D03*
X147320000Y-120260000D03*
%TD*%
%TO.C,R13*%
X146500000Y-99800000D03*
X138880000Y-99800000D03*
%TD*%
D31*
%TO.C,D1*%
X147800000Y-103100000D03*
D32*
X137640000Y-103100000D03*
%TD*%
D27*
%TO.C,C1*%
X143800000Y-112200000D03*
X148800000Y-112200000D03*
%TD*%
%TO.C,R10*%
X144200000Y-83610000D03*
X144200000Y-75990000D03*
%TD*%
%TO.C,R12*%
X137800000Y-83620000D03*
X137800000Y-76000000D03*
%TD*%
D20*
%TO.C,J1*%
X153100000Y-83320000D03*
D21*
X153100000Y-85860000D03*
X153100000Y-88400000D03*
X153100000Y-90940000D03*
X153100000Y-93480000D03*
X153100000Y-96020000D03*
X153100000Y-98560000D03*
X153100000Y-101100000D03*
%TD*%
D27*
%TO.C,R2*%
X127690000Y-124400000D03*
X135310000Y-124400000D03*
%TD*%
D20*
%TO.C,J4*%
X152700000Y-108160000D03*
D21*
X152700000Y-110700000D03*
X152700000Y-113240000D03*
X152700000Y-115780000D03*
X152700000Y-118320000D03*
X152700000Y-120860000D03*
X152700000Y-123400000D03*
X152700000Y-125940000D03*
X152700000Y-128480000D03*
X152700000Y-131020000D03*
%TD*%
D20*
%TO.C,J6*%
X150235000Y-56559750D03*
D21*
X150235000Y-59099750D03*
X150235000Y-61639750D03*
X150235000Y-64179750D03*
X150235000Y-66719750D03*
X150235000Y-69259750D03*
X150235000Y-71799750D03*
%TD*%
D26*
%TO.C,J3*%
X133140000Y-113600000D03*
X130600000Y-113600000D03*
X128060000Y-113600000D03*
%TD*%
D20*
%TO.C,J7*%
X135327175Y-71699750D03*
D21*
X135327175Y-69159750D03*
X135327175Y-66619750D03*
X135327175Y-64079750D03*
X135327175Y-61539750D03*
X135327175Y-58999750D03*
X135327175Y-56459750D03*
%TD*%
%LPD*%
M02*
