M48
; DRILL file {KiCad 9.0.6} date 2026-05-11T10:25:40-0300
; FORMAT={-:-/ absolute / inch / decimal}
; #@! TF.CreationDate,2026-05-11T10:25:40-03:00
; #@! TF.GenerationSoftware,Kicad,Pcbnew,9.0.6
; #@! TF.FileFunction,Plated,1,2,PTH
FMAT,2
INCH
; #@! TA.AperFunction,Plated,PTH,ViaDrill
T1C0.0118
; #@! TA.AperFunction,Plated,PTH,ViaDrill
T2C0.0236
; #@! TA.AperFunction,Plated,PTH,ComponentDrill
T3C0.0236
; #@! TA.AperFunction,Plated,PTH,ComponentDrill
T4C0.0315
; #@! TA.AperFunction,Plated,PTH,ComponentDrill
T5C0.0335
; #@! TA.AperFunction,Plated,PTH,ComponentDrill
T6C0.0394
; #@! TA.AperFunction,Plated,PTH,ComponentDrill
T7C0.0400
; #@! TA.AperFunction,Plated,PTH,ComponentDrill
T8C0.0433
%
G90
G05
T1
X5.1063Y-3.1339
X5.1811Y-2.3228
X5.1811Y-2.4173
X5.1811Y-2.5197
X5.1811Y-2.7283
X5.252Y-5.5118
X5.3294Y-3.1339
X5.374Y-4.2323
X5.3937Y-4.3386
X5.4016Y-4.7992
X5.4055Y-4.5276
X5.4094Y-3.7795
X5.4134Y-4.1496
X5.4216Y-2.6019
X5.4528Y-2.7323
X5.4606Y-3.4803
X5.4606Y-4.6457
X5.5039Y-4.6519
X5.5394Y-4.7874
X5.5525Y-3.1339
X5.5827Y-4.9567
X5.5984Y-4.7913
X5.6024Y-4.6991
X5.6378Y-4.3465
X5.6417Y-3.6654
X5.6457Y-4.5197
X5.6817Y-4.1443
X5.753Y-2.4477
X5.753Y-2.5276
X5.753Y-2.6575
X5.7756Y-3.1339
X5.7943Y-4.1427
X5.8617Y-2.523
X5.8622Y-3.5394
X5.8661Y-3.6457
X5.8661Y-3.7283
X5.9882Y-3.1654
X6.0512Y-2.0551
X6.0512Y-5.8701
X6.0608Y-3.2244
X6.0608Y-3.3335
X6.0608Y-3.4291
X6.0608Y-3.5315
X6.0608Y-3.6299
X6.0608Y-3.7323
X6.0608Y-3.8307
X6.0608Y-3.9291
X6.0608Y-4.0512
T2
X5.6417Y-3.811
X5.8623Y-3.4764
T3
X5.1024Y-4.2559
X5.1024Y-4.3346
X5.3031Y-4.2559
X5.3031Y-4.3346
X5.5Y-4.2598
X5.5Y-4.3386
T4
X5.0272Y-4.8976
X5.0551Y-5.011
X5.0551Y-5.311
X5.1772Y-5.0114
X5.1772Y-5.3114
X5.2953Y-5.011
X5.2953Y-5.311
X5.3272Y-4.8976
X5.4252Y-2.9921
X5.4252Y-3.2921
X5.4677Y-3.4134
X5.4677Y-3.5433
X5.4677Y-3.6732
X5.4677Y-3.8031
X5.4677Y-3.9291
X5.5Y-4.7346
X5.5Y-4.8346
X5.5Y-4.9346
X5.5Y-5.0346
X5.5Y-5.1346
X5.5Y-5.2346
X5.5Y-5.3346
X5.5512Y-2.9921
X5.5512Y-3.2921
X5.6614Y-4.2677
X5.6614Y-4.4173
X5.6614Y-4.5709
X5.6772Y-2.9917
X5.6772Y-3.2917
X5.7677Y-3.4134
X5.7677Y-3.5433
X5.7677Y-3.6732
X5.7677Y-3.8031
X5.7677Y-3.9291
X5.8Y-4.7346
X5.8Y-4.8346
X5.8Y-4.9346
X5.8Y-5.0346
X5.8Y-5.1346
X5.8Y-5.2346
X5.8Y-5.3346
X5.8031Y-2.9917
X5.8031Y-3.2917
X5.8583Y-4.2677
X5.8583Y-4.4173
X5.8583Y-4.5709
T5
X5.122Y-5.5756
X5.122Y-5.6756
X5.122Y-5.7756
X5.3898Y-5.5756
X5.3898Y-5.6756
X5.3898Y-5.7756
X5.6575Y-5.5756
X5.6575Y-5.6756
X5.6575Y-5.7756
X5.9252Y-5.5756
X5.9252Y-5.6756
X5.9252Y-5.7756
T6
X5.0118Y-2.2622
X5.0118Y-2.3622
X5.0118Y-2.4622
X5.0118Y-2.5622
X5.0118Y-2.6622
X5.0118Y-2.7622
X5.0118Y-2.8622
X5.0118Y-2.9622
X5.0756Y-4.6772
X5.1008Y-3.3236
X5.1008Y-3.4236
X5.1008Y-3.5236
X5.1008Y-3.6236
X5.1008Y-3.7236
X5.1008Y-3.8236
X5.1008Y-3.9236
X5.1008Y-4.0236
X5.1756Y-4.6772
X5.2008Y-3.3236
X5.2008Y-3.4236
X5.2008Y-3.5236
X5.2008Y-3.6236
X5.2008Y-3.7236
X5.2008Y-3.8236
X5.2008Y-3.9236
X5.2008Y-4.0236
X5.2756Y-4.6772
X5.3278Y-2.2228
X5.3278Y-2.3228
X5.3278Y-2.4228
X5.3278Y-2.5228
X5.3278Y-2.6228
X5.3278Y-2.7228
X5.3278Y-2.8228
X5.9148Y-2.2268
X5.9148Y-2.3268
X5.9148Y-2.4268
X5.9148Y-2.5268
X5.9148Y-2.6268
X5.9148Y-2.7268
X5.9148Y-2.8268
X6.0118Y-4.2583
X6.0118Y-4.3583
X6.0118Y-4.4583
X6.0118Y-4.5583
X6.0118Y-4.6583
X6.0118Y-4.7583
X6.0118Y-4.8583
X6.0118Y-4.9583
X6.0118Y-5.0583
X6.0118Y-5.1583
X6.0276Y-3.2803
X6.0276Y-3.3803
X6.0276Y-3.4803
X6.0276Y-3.5803
X6.0276Y-3.6803
X6.0276Y-3.7803
X6.0276Y-3.8803
X6.0276Y-3.9803
T7
X5.0417Y-4.4724
X5.1417Y-4.4724
X5.2417Y-4.4724
X5.3646Y-4.4724
X5.4646Y-4.4724
X5.5646Y-4.4724
T8
X5.4189Y-4.0591
X5.8189Y-4.0591
M30
