%TF.GenerationSoftware,KiCad,Pcbnew,10.0.5*%
%TF.CreationDate,2026-09-09T19:32:05-03:00*%
%TF.ProjectId,Expander1_V1.0,45787061-6e64-4657-9231-5f56312e302e,rev?*%
%TF.SameCoordinates,Original*%
%TF.FileFunction,Copper,L1,Top*%
%TF.FilePolarity,Positive*%
%FSLAX46Y46*%
G04 Gerber Fmt 4.6, Leading zero omitted, Abs format (unit mm)*
G04 Created by KiCad (PCBNEW 10.0.5) date 2026-09-09 19:32:05*
%MOMM*%
%LPD*%
G01*
G04 APERTURE LIST*
G04 Aperture macros list*
%AMRoundRect*
0 Rectangle with rounded corners*
0 $1 Rounding radius*
0 $2 $3 $4 $5 $6 $7 $8 $9 X,Y pos of 4 corners*
0 Add a 4 corners polygon primitive as box body*
4,1,4,$2,$3,$4,$5,$6,$7,$8,$9,$2,$3,0*
0 Add four circle primitives for the rounded corners*
1,1,$1+$1,$2,$3*
1,1,$1+$1,$4,$5*
1,1,$1+$1,$6,$7*
1,1,$1+$1,$8,$9*
0 Add four rect primitives between the rounded corners*
20,1,$1+$1,$2,$3,$4,$5,0*
20,1,$1+$1,$4,$5,$6,$7,0*
20,1,$1+$1,$6,$7,$8,$9,0*
20,1,$1+$1,$8,$9,$2,$3,0*%
G04 Aperture macros list end*
%TA.AperFunction,ComponentPad*%
%ADD10C,1.930400*%
%TD*%
%TA.AperFunction,ComponentPad*%
%ADD11R,1.800000X1.800000*%
%TD*%
%TA.AperFunction,ComponentPad*%
%ADD12C,1.800000*%
%TD*%
%TA.AperFunction,ComponentPad*%
%ADD13RoundRect,0.412500X-0.412500X-0.412500X0.412500X-0.412500X0.412500X0.412500X-0.412500X0.412500X0*%
%TD*%
%TA.AperFunction,ComponentPad*%
%ADD14C,1.650000*%
%TD*%
%TA.AperFunction,ComponentPad*%
%ADD15R,1.700000X1.700000*%
%TD*%
%TA.AperFunction,ComponentPad*%
%ADD16C,1.700000*%
%TD*%
%TA.AperFunction,ViaPad*%
%ADD17C,0.600000*%
%TD*%
%TA.AperFunction,Conductor*%
%ADD18C,0.400000*%
%TD*%
%TA.AperFunction,Conductor*%
%ADD19C,0.200000*%
%TD*%
%TA.AperFunction,Conductor*%
%ADD20C,0.500000*%
%TD*%
G04 APERTURE END LIST*
D10*
%TO.P,J6,3,SW_3*%
%TO.N,unconnected-(J6-SW-Pad3)*%
X128634800Y-94575000D03*
%TO.P,J6,2,SHEILD_2*%
%TO.N,GND*%
X131047800Y-94575000D03*
%TO.P,J6,1,SIG_1*%
%TO.N,O3_CON*%
X120075000Y-94575000D03*
%TD*%
%TO.P,J7,3,SW_3*%
%TO.N,unconnected-(J7-SW-Pad3)*%
X128634800Y-109175000D03*
%TO.P,J7,2,SHEILD_2*%
%TO.N,GND*%
X131047800Y-109175000D03*
%TO.P,J7,1,SIG_1*%
%TO.N,O4_CON*%
X120075000Y-109175000D03*
%TD*%
D11*
%TO.P,D4,1,K_1*%
%TO.N,Net-(D4-K)*%
X123930308Y-73994355D03*
D12*
%TO.P,D4,2,A_2*%
%TO.N,ARD_3*%
X126470308Y-73994355D03*
%TD*%
D10*
%TO.P,J4,1,SIG_1*%
%TO.N,O1_CON*%
X119753308Y-65369355D03*
%TO.P,J4,2,SHEILD_2*%
%TO.N,GND*%
X130726108Y-65369355D03*
%TO.P,J4,3,SW_3*%
%TO.N,unconnected-(J4-SW-Pad3)*%
X128313108Y-65369355D03*
%TD*%
D11*
%TO.P,D5,1,K_1*%
%TO.N,Net-(D5-K)*%
X123930308Y-88619355D03*
D12*
%TO.P,D5,2,A_2*%
%TO.N,ARD_3*%
X126470308Y-88619355D03*
%TD*%
D11*
%TO.P,D6,1,K_1*%
%TO.N,Net-(D6-K)*%
X123930308Y-103219355D03*
D12*
%TO.P,D6,2,A_2*%
%TO.N,ARD_3*%
X126470308Y-103219355D03*
%TD*%
D11*
%TO.P,D3,1,K_1*%
%TO.N,Net-(D3-K)*%
X123930308Y-59394355D03*
D12*
%TO.P,D3,2,A_2*%
%TO.N,ARD_3*%
X126470308Y-59394355D03*
%TD*%
D10*
%TO.P,J5,1,SIG_1*%
%TO.N,O2_CON*%
X120075000Y-79975000D03*
%TO.P,J5,2,SHEILD_2*%
%TO.N,GND*%
X131047800Y-79975000D03*
%TO.P,J5,3,SW_3*%
%TO.N,unconnected-(J5-SW-Pad3)*%
X128634800Y-79975000D03*
%TD*%
%TO.P,J8,1,SIG_1*%
%TO.N,Net-(J8-SIG)*%
X120037000Y-46700000D03*
%TO.P,J8,2,SHEILD_2*%
%TO.N,GND*%
X131009800Y-46700000D03*
%TO.P,J8,3,SW_3*%
X128596800Y-46700000D03*
%TD*%
D13*
%TO.P,RV2,1,1_1*%
%TO.N,Net-(R8-Pad2)*%
X126785000Y-123412500D03*
D14*
%TO.P,RV2,2,2_2*%
%TO.N,O2_CON*%
X129325000Y-123412500D03*
%TO.P,RV2,3,3_3*%
X131865000Y-123412500D03*
%TD*%
D13*
%TO.P,RV3,1,1_1*%
%TO.N,Net-(R15-Pad2)*%
X126785000Y-128950000D03*
D14*
%TO.P,RV3,2,2_2*%
%TO.N,O3_CON*%
X129325000Y-128950000D03*
%TO.P,RV3,3,3_3*%
X131865000Y-128950000D03*
%TD*%
D13*
%TO.P,RV1,1,1_1*%
%TO.N,Net-(R7-Pad2)*%
X126785000Y-117875000D03*
D14*
%TO.P,RV1,2,2_2*%
%TO.N,O1_CON*%
X129325000Y-117875000D03*
%TO.P,RV1,3,3_3*%
X131865000Y-117875000D03*
%TD*%
D13*
%TO.P,RV4,1,1_1*%
%TO.N,Net-(R16-Pad2)*%
X126785000Y-134487500D03*
D14*
%TO.P,RV4,2,2_2*%
%TO.N,O4_CON*%
X129325000Y-134487500D03*
%TO.P,RV4,3,3_3*%
X131865000Y-134487500D03*
%TD*%
D15*
%TO.P,J2,1,Pin_1_1*%
%TO.N,ARD_3*%
X118300000Y-135500000D03*
D16*
%TO.P,J2,2,Pin_2_2*%
%TO.N,SCL2*%
X120840000Y-135500000D03*
%TO.P,J2,3,Pin_3_3*%
%TO.N,OPAMP_V*%
X118300000Y-132960000D03*
%TO.P,J2,4,Pin_4_4*%
%TO.N,SDA2*%
X120840000Y-132960000D03*
%TO.P,J2,5,Pin_5_5*%
%TO.N,-10V*%
X118300000Y-130420000D03*
%TO.P,J2,6,Pin_6_6*%
%TO.N,LDACn*%
X120840000Y-130420000D03*
%TO.P,J2,7,Pin_7_7*%
%TO.N,GND*%
X118300000Y-127880000D03*
%TO.P,J2,8,Pin_8_8*%
%TO.N,IN_4*%
X120840000Y-127880000D03*
%TD*%
D17*
%TO.N,GND*%
X121500000Y-63000000D03*
%TO.N,Net-(R18-Pad1)*%
X121751500Y-55825000D03*
X120075000Y-58000000D03*
%TO.N,Net-(R17-Pad1)*%
X129371500Y-50875000D03*
X131000000Y-50000000D03*
%TO.N,Net-(R10-Pad1)*%
X131175000Y-58200000D03*
X129500000Y-56000000D03*
%TO.N,O2_CON*%
X133770343Y-69495343D03*
X132875000Y-58200000D03*
%TO.N,GND*%
X125500000Y-47750000D03*
X118250000Y-55500000D03*
%TO.N,ARD_3*%
X127325000Y-40525000D03*
X123055548Y-123177888D03*
%TO.N,O1_CON*%
X118375000Y-49200000D03*
X130250000Y-69675000D03*
%TO.N,GND*%
X121095150Y-57329880D03*
X131250000Y-115875000D03*
X134191592Y-85750009D03*
X125575000Y-53600000D03*
X121705548Y-121202888D03*
X121130548Y-114727888D03*
X121150000Y-64550000D03*
X134075000Y-82975000D03*
X124612500Y-107350000D03*
X128700000Y-61625000D03*
X118850000Y-126275000D03*
X119275000Y-67500000D03*
X124187500Y-64475000D03*
X122175000Y-107325000D03*
X132875000Y-61200000D03*
X125561500Y-55825000D03*
X131175000Y-68975000D03*
X131575000Y-85525000D03*
X118375000Y-52625000D03*
X127925000Y-57500000D03*
X132850000Y-67525000D03*
X119775000Y-72425000D03*
X126800000Y-119725000D03*
X119225000Y-75650000D03*
X131575000Y-82900000D03*
X123675000Y-53000000D03*
X129675000Y-63775000D03*
X124462500Y-79000000D03*
%TO.N,O4_CON*%
X134196164Y-114025072D03*
X117593406Y-64655123D03*
X118375000Y-58000000D03*
%TO.N,O3_CON*%
X134193758Y-99150033D03*
%TO.N,O2_CON*%
X134191394Y-84525005D03*
%TO.N,OPAMP_V*%
X125550000Y-52325000D03*
%TO.N,O_3*%
X117749279Y-72325722D03*
X120168949Y-71675000D03*
%TO.N,Net-(R8-Pad2)*%
X132875000Y-59500000D03*
%TO.N,IN_4*%
X132729190Y-44000000D03*
X125720308Y-61325000D03*
X128750000Y-54250000D03*
%TO.N,O_2*%
X117775000Y-71499997D03*
X120900000Y-71075000D03*
%TO.N,Net-(U1C--)*%
X131175000Y-59500000D03*
X128101500Y-55825000D03*
%TO.N,Net-(R16-Pad2)*%
X127220308Y-67275000D03*
%TO.N,Net-(R15-Pad2)*%
X132750000Y-51475000D03*
%TO.N,Net-(R7-Pad2)*%
X124612500Y-114400000D03*
X127220308Y-54350000D03*
%TO.N,-10V*%
X125629190Y-43725000D03*
%TD*%
%TO.N,OPAMP_V*%
D18*
X123250000Y-54625000D02*
X125550000Y-52325000D01*
X123250000Y-57250000D02*
X123250000Y-54625000D01*
X122250000Y-58250000D02*
X123250000Y-57250000D01*
X122250000Y-71025000D02*
X122250000Y-58250000D01*
X117682893Y-75592107D02*
X122250000Y-71025000D01*
X117682844Y-75592107D02*
X117682893Y-75592107D01*
X117389999Y-75885048D02*
X117390032Y-75885015D01*
X117390032Y-76089273D02*
X117389999Y-75885048D01*
X117533371Y-75741629D02*
X117682844Y-75592107D01*
X117390032Y-76299180D02*
X117390032Y-76089273D01*
X117390032Y-75885015D02*
X117390032Y-75884968D01*
X117397704Y-123568561D02*
X117390066Y-76299214D01*
X117390066Y-76299214D02*
X117390032Y-76299180D01*
X117390032Y-75884968D02*
X117533371Y-75741629D01*
%TO.N,Net-(R18-Pad1)*%
D19*
X120075000Y-57501500D02*
X121751500Y-55825000D01*
X120075000Y-58000000D02*
X120075000Y-57501500D01*
%TO.N,Net-(R17-Pad1)*%
X130246500Y-50000000D02*
X129371500Y-50875000D01*
X131000000Y-50000000D02*
X130246500Y-50000000D01*
%TO.N,Net-(R10-Pad1)*%
X129500000Y-56000000D02*
X131175000Y-57675000D01*
X131175000Y-57675000D02*
X131175000Y-58200000D01*
%TO.N,O2_CON*%
X134388227Y-64922504D02*
X134388227Y-68877459D01*
X134387405Y-59838761D02*
X134388227Y-64922504D01*
X134387405Y-59671719D02*
X134387405Y-59838761D01*
X132915686Y-58200000D02*
X134387405Y-59671719D01*
X132875000Y-58200000D02*
X132915686Y-58200000D01*
X134388227Y-68877459D02*
X133770343Y-69495343D01*
%TO.N,-10V*%
D20*
X116736954Y-57045949D02*
X116748561Y-128868561D01*
X118525000Y-40225000D02*
X116736954Y-42013046D01*
X116748561Y-128868561D02*
X118300000Y-130420000D01*
X122129190Y-40225000D02*
X118525000Y-40225000D01*
X116736954Y-42013046D02*
X116736954Y-57045949D01*
X125629190Y-43725000D02*
X122129190Y-40225000D01*
%TO.N,IN_4*%
D19*
X133350000Y-44620810D02*
X132729190Y-44000000D01*
X133350000Y-47750000D02*
X133350000Y-44620810D01*
X131750000Y-49350000D02*
X133350000Y-47750000D01*
X131750000Y-51250000D02*
X131750000Y-49350000D01*
X128750000Y-54250000D02*
X131750000Y-51250000D01*
%TO.N,OPAMP_V*%
D18*
X119550000Y-125925000D02*
X117397644Y-123772644D01*
X119550000Y-131710000D02*
X119550000Y-125925000D01*
X118300000Y-132960000D02*
X119550000Y-131710000D01*
%TO.N,ARD_3*%
D20*
X126470308Y-103219355D02*
X123100000Y-106589663D01*
X126000000Y-102749047D02*
X126000000Y-89089663D01*
X123100000Y-135800000D02*
X122100000Y-136800000D01*
X126470308Y-59394355D02*
X126470308Y-41379692D01*
X119600000Y-136800000D02*
X118300000Y-135500000D01*
X126470308Y-103219355D02*
X126000000Y-102749047D01*
X122100000Y-136800000D02*
X119600000Y-136800000D01*
X126025000Y-88174047D02*
X126025000Y-74439663D01*
X126000000Y-89089663D02*
X126470308Y-88619355D01*
X126470308Y-41379692D02*
X127325000Y-40525000D01*
X126470308Y-73994355D02*
X126470308Y-59394355D01*
X123100000Y-106589663D02*
X123100000Y-135800000D01*
%TO.N,O1_CON*%
D19*
X133593921Y-99987711D02*
X133593921Y-100154802D01*
X133475000Y-84675715D02*
X133175000Y-84975714D01*
X132796162Y-113445172D02*
X132796162Y-114604972D01*
X130050000Y-72050000D02*
X133475000Y-75475001D01*
X132996162Y-116743838D02*
X131865000Y-117875000D01*
X119475000Y-65091047D02*
X119475000Y-51300000D01*
X133595939Y-112645395D02*
X132796162Y-113445172D01*
X133594505Y-103438144D02*
X133594505Y-103769523D01*
X130250000Y-69675000D02*
X130050000Y-69875000D01*
X119475000Y-51300000D02*
X118375000Y-50200000D01*
X129325000Y-117875000D02*
X131865000Y-117875000D01*
X133475000Y-75475001D02*
X133475000Y-84675715D01*
X133175000Y-84975714D02*
X133175000Y-99568789D01*
X133594451Y-103438090D02*
X133594505Y-103438144D01*
X133175000Y-99568789D02*
X133593921Y-99987711D01*
X133594505Y-103769523D02*
X133595939Y-112645395D01*
X118375000Y-50200000D02*
X118375000Y-49200000D01*
X133593921Y-100154802D02*
X133594451Y-103438090D01*
X130050000Y-69875000D02*
X130050000Y-72050000D01*
X132796162Y-114604972D02*
X132996162Y-114804972D01*
X132996162Y-114804972D02*
X132996162Y-116743838D01*
%TO.N,O4_CON*%
X129325000Y-134487500D02*
X131865000Y-134487500D01*
X118375000Y-63873529D02*
X118375000Y-58000000D01*
X134196162Y-114025074D02*
X134196162Y-132156338D01*
X134196164Y-114025072D02*
X134196162Y-114025074D01*
X134196162Y-132156338D02*
X131865000Y-134487500D01*
X117593406Y-64655123D02*
X118375000Y-63873529D01*
%TO.N,O3_CON*%
X134395993Y-112976713D02*
X134393791Y-99350066D01*
X133596162Y-113776544D02*
X134395993Y-112976713D01*
X133796162Y-114473602D02*
X133596162Y-114273602D01*
X133596162Y-114273602D02*
X133596162Y-113776544D01*
X133796162Y-127018838D02*
X133796162Y-114473602D01*
X129325000Y-128950000D02*
X131865000Y-128950000D01*
X131865000Y-128950000D02*
X133796162Y-127018838D01*
X134393791Y-99350066D02*
X134193758Y-99150033D01*
%TO.N,O2_CON*%
X133396162Y-114639288D02*
X133196162Y-114439287D01*
X134191394Y-84525005D02*
X133575000Y-85141399D01*
X131865000Y-123412500D02*
X133396162Y-121881338D01*
X133575000Y-85141399D02*
X133575000Y-99379804D01*
X133993925Y-99798729D02*
X133993925Y-100175000D01*
X133196162Y-113610858D02*
X133995966Y-112811054D01*
X133995966Y-112811054D02*
X133993925Y-100175000D01*
X133575000Y-99379804D02*
X133993925Y-99798729D01*
X133196162Y-114439287D02*
X133196162Y-113610858D01*
X133396162Y-121881338D02*
X133396162Y-114639288D01*
X129325000Y-123412500D02*
X131865000Y-123412500D01*
%TO.N,O_3*%
X118023529Y-72099997D02*
X118223529Y-71899997D01*
X117749279Y-72325722D02*
X117975004Y-72099997D01*
X117975004Y-72099997D02*
X118023529Y-72099997D01*
X118223529Y-71899997D02*
X118915689Y-71899997D01*
X119140685Y-71675000D02*
X120168949Y-71675000D01*
X118915689Y-71899997D02*
X119140685Y-71675000D01*
%TO.N,Net-(R8-Pad2)*%
X133075000Y-75640686D02*
X129650000Y-72215685D01*
X133194505Y-112430495D02*
X133194505Y-103770970D01*
X128200000Y-117409009D02*
X128859009Y-116750000D01*
X128200000Y-121997500D02*
X128200000Y-117409009D01*
X129650000Y-69426471D02*
X133988254Y-65088217D01*
X133650000Y-59500000D02*
X132875000Y-59500000D01*
X128875000Y-116750000D02*
X133194505Y-112430495D01*
X133987405Y-59837405D02*
X133650000Y-59500000D01*
X133193921Y-100153396D02*
X132775000Y-99734474D01*
X133194478Y-103603840D02*
X133194478Y-103603803D01*
X126785000Y-123412500D02*
X128200000Y-121997500D01*
X132775000Y-99734474D02*
X132775001Y-84810028D01*
X133988254Y-65088217D02*
X133987405Y-59837405D01*
X133194478Y-103603903D02*
X133194505Y-103603876D01*
X133193921Y-103603246D02*
X133193921Y-100153396D01*
X133194505Y-103603867D02*
X133194478Y-103603840D01*
X133194478Y-103603803D02*
X133193921Y-103603246D01*
X132775001Y-84810028D02*
X133075000Y-84510029D01*
X133194505Y-103770970D02*
X133194478Y-103603903D01*
X128859009Y-116750000D02*
X128875000Y-116750000D01*
X133194505Y-103603876D02*
X133194505Y-103603867D01*
X133075000Y-84510029D02*
X133075000Y-75640686D01*
X129650000Y-72215685D02*
X129650000Y-69426471D01*
%TO.N,IN_4*%
X123200000Y-70782106D02*
X123200000Y-63920308D01*
X123200000Y-63920308D02*
X125720308Y-61400000D01*
X117890032Y-76092074D02*
X123200000Y-70782106D01*
X120830000Y-127880000D02*
X120050000Y-127100000D01*
X125720308Y-61400000D02*
X125720308Y-61325000D01*
X117897704Y-123565598D02*
X117890032Y-76092074D01*
X120050000Y-125717894D02*
X117897704Y-123565598D01*
X120050000Y-127100000D02*
X120050000Y-125717894D01*
%TO.N,O_2*%
X118750003Y-71499997D02*
X117775000Y-71499997D01*
X119175000Y-71075000D02*
X118750003Y-71499997D01*
X120900000Y-71075000D02*
X119175000Y-71075000D01*
%TO.N,Net-(U1C--)*%
X128101500Y-56689000D02*
X128101500Y-55825000D01*
X130912500Y-59500000D02*
X128101500Y-56689000D01*
X131175000Y-59500000D02*
X130912500Y-59500000D01*
%TO.N,Net-(R16-Pad2)*%
X127670308Y-103716412D02*
X127670308Y-102722298D01*
X127220308Y-72945308D02*
X127220308Y-67275000D01*
X125375000Y-112337500D02*
X125375000Y-106011720D01*
X126550000Y-101601990D02*
X126550000Y-90236720D01*
X125375000Y-106011720D02*
X127670308Y-103716412D01*
X127670308Y-89116412D02*
X127670308Y-88122298D01*
X123700000Y-131402500D02*
X123700000Y-114012500D01*
X126575000Y-75586720D02*
X127670308Y-74491412D01*
X126550000Y-90236720D02*
X127670308Y-89116412D01*
X127670308Y-73395308D02*
X127670308Y-74491412D01*
X127670308Y-88122298D02*
X126575000Y-87026990D01*
X123700000Y-114012500D02*
X125375000Y-112337500D01*
X127220308Y-72945308D02*
X127670308Y-73395308D01*
X127670308Y-102722298D02*
X126550000Y-101601990D01*
X126575000Y-87026990D02*
X126575000Y-75586720D01*
X126785000Y-134487500D02*
X123700000Y-131402500D01*
%TO.N,Net-(R15-Pad2)*%
X129250000Y-72381372D02*
X129250000Y-69260786D01*
X132675000Y-75806371D02*
X129250000Y-72381372D01*
X132794505Y-112264809D02*
X132794505Y-103769616D01*
X133587848Y-62575000D02*
X133587848Y-61061377D01*
X132675000Y-84344344D02*
X132675000Y-75806371D01*
X132793921Y-103768932D02*
X132793921Y-100319080D01*
X132250000Y-59723529D02*
X132250000Y-57598529D01*
X125660000Y-127825000D02*
X125660000Y-117167372D01*
X133588227Y-64922559D02*
X133587848Y-62575000D01*
X128709314Y-116350000D02*
X132794505Y-112264809D01*
X132375000Y-84644344D02*
X132675000Y-84344344D01*
X132793921Y-100319080D02*
X132375000Y-99900159D01*
X132794505Y-103769616D02*
X132794478Y-103769589D01*
X125660000Y-117167372D02*
X126102372Y-116725000D01*
X129250000Y-69260786D02*
X133588227Y-64922559D01*
X132750000Y-57098529D02*
X132750000Y-51475000D01*
X132794478Y-103769589D02*
X132794478Y-103769488D01*
X128693323Y-116350000D02*
X128709314Y-116350000D01*
X132375000Y-99900159D02*
X132375000Y-84644344D01*
X126785000Y-128950000D02*
X125660000Y-127825000D01*
X132250000Y-57598529D02*
X132750000Y-57098529D01*
X132794478Y-103769488D02*
X132793921Y-103768932D01*
X133587848Y-61061377D02*
X132250000Y-59723529D01*
X128318323Y-116725000D02*
X128693323Y-116350000D01*
X126102372Y-116725000D02*
X128318323Y-116725000D01*
%TO.N,Net-(R7-Pad2)*%
X127820308Y-66665818D02*
X127020308Y-65865818D01*
X126975000Y-75752406D02*
X128070308Y-74657098D01*
X128070308Y-74657098D02*
X128070308Y-73229622D01*
X127620308Y-72779622D02*
X127620308Y-68175000D01*
X128070308Y-103882097D02*
X128070308Y-102556612D01*
X125775000Y-106177405D02*
X128070308Y-103882097D01*
X127670308Y-59891412D02*
X127670308Y-58897298D01*
X125775000Y-112503185D02*
X125775000Y-106177405D01*
X124612500Y-113665686D02*
X125775000Y-112503185D01*
X128070308Y-89282097D02*
X128070308Y-87956612D01*
X127220308Y-58447298D02*
X127220308Y-54350000D01*
X128070308Y-73229622D02*
X127620308Y-72779622D01*
X127020308Y-60541412D02*
X127670308Y-59891412D01*
X126950000Y-101436304D02*
X126950000Y-90402406D01*
X128070308Y-102556612D02*
X126950000Y-101436304D01*
X124612500Y-114400000D02*
X124612500Y-113665686D01*
X127670308Y-58897298D02*
X127220308Y-58447298D01*
X127820308Y-67975000D02*
X127820308Y-66665818D01*
X128070308Y-87956612D02*
X126975000Y-86861304D01*
X127620308Y-68175000D02*
X127820308Y-67975000D01*
X127020308Y-65865818D02*
X127020308Y-60541412D01*
X126950000Y-90402406D02*
X128070308Y-89282097D01*
X126975000Y-86861304D02*
X126975000Y-75752406D01*
%TD*%
%TA.AperFunction,Conductor*%
%TO.N,GND*%
G36*
X125879561Y-61876765D02*
G01*
X125937425Y-61915926D01*
X125964931Y-61980154D01*
X125965808Y-61994878D01*
X125965808Y-72879697D01*
X125946123Y-72946736D01*
X125898104Y-72990181D01*
X125865220Y-73006936D01*
X125791710Y-73060345D01*
X125718202Y-73113752D01*
X125718200Y-73113754D01*
X125718199Y-73113754D01*
X125589707Y-73242246D01*
X125589707Y-73242247D01*
X125589705Y-73242249D01*
X125543833Y-73305385D01*
X125482891Y-73389264D01*
X125400391Y-73551180D01*
X125400389Y-73551183D01*
X125344236Y-73724004D01*
X125344236Y-73724005D01*
X125331280Y-73805807D01*
X125301350Y-73868941D01*
X125242039Y-73905872D01*
X125172176Y-73904874D01*
X125113944Y-73866264D01*
X125085830Y-73802300D01*
X125084807Y-73786408D01*
X125084807Y-73069291D01*
X125084807Y-73069289D01*
X125070042Y-72995054D01*
X125037232Y-72945951D01*
X125013792Y-72910870D01*
X124963327Y-72877151D01*
X124929609Y-72854621D01*
X124929607Y-72854620D01*
X124929604Y-72854619D01*
X124855377Y-72839855D01*
X123005244Y-72839855D01*
X122931006Y-72854621D01*
X122846823Y-72910870D01*
X122790574Y-72995054D01*
X122790572Y-72995058D01*
X122775808Y-73069283D01*
X122775808Y-74919418D01*
X122790574Y-74993656D01*
X122846823Y-75077839D01*
X122876028Y-75097353D01*
X122931007Y-75134089D01*
X122931010Y-75134089D01*
X122931011Y-75134090D01*
X122955974Y-75139055D01*
X123005241Y-75148855D01*
X124855374Y-75148854D01*
X124929609Y-75134089D01*
X125013792Y-75077839D01*
X125070042Y-74993656D01*
X125084808Y-74919422D01*
X125084807Y-74202300D01*
X125104491Y-74135264D01*
X125157295Y-74089509D01*
X125226454Y-74079565D01*
X125290010Y-74108590D01*
X125327784Y-74167368D01*
X125331280Y-74182904D01*
X125344236Y-74264704D01*
X125344236Y-74264705D01*
X125400389Y-74437526D01*
X125400391Y-74437529D01*
X125482891Y-74599446D01*
X125496817Y-74618612D01*
X125520298Y-74684418D01*
X125520500Y-74691499D01*
X125520500Y-87922210D01*
X125500815Y-87989249D01*
X125496820Y-87995093D01*
X125482892Y-88014264D01*
X125400390Y-88176180D01*
X125400389Y-88176183D01*
X125344236Y-88349004D01*
X125344236Y-88349005D01*
X125331280Y-88430807D01*
X125301350Y-88493941D01*
X125242039Y-88530872D01*
X125172176Y-88529874D01*
X125113944Y-88491264D01*
X125085830Y-88427300D01*
X125084807Y-88411408D01*
X125084807Y-87694291D01*
X125084807Y-87694289D01*
X125070042Y-87620054D01*
X125051376Y-87592120D01*
X125013792Y-87535870D01*
X124963327Y-87502151D01*
X124929609Y-87479621D01*
X124929607Y-87479620D01*
X124929604Y-87479619D01*
X124855377Y-87464855D01*
X123005244Y-87464855D01*
X122931006Y-87479621D01*
X122846823Y-87535870D01*
X122790574Y-87620054D01*
X122790572Y-87620058D01*
X122775808Y-87694283D01*
X122775808Y-89544418D01*
X122790574Y-89618656D01*
X122846823Y-89702839D01*
X122880542Y-89725369D01*
X122931007Y-89759089D01*
X122931010Y-89759089D01*
X122931011Y-89759090D01*
X122955974Y-89764055D01*
X123005241Y-89773855D01*
X124855374Y-89773854D01*
X124929609Y-89759089D01*
X125013792Y-89702839D01*
X125070042Y-89618656D01*
X125084808Y-89544422D01*
X125084807Y-88827300D01*
X125104491Y-88760264D01*
X125157295Y-88714509D01*
X125226454Y-88704565D01*
X125290010Y-88733590D01*
X125327784Y-88792368D01*
X125331280Y-88807904D01*
X125344236Y-88889704D01*
X125344236Y-88889705D01*
X125400389Y-89062526D01*
X125400390Y-89062529D01*
X125481985Y-89222666D01*
X125495500Y-89278961D01*
X125495500Y-102559748D01*
X125481985Y-102616043D01*
X125400391Y-102776180D01*
X125400389Y-102776183D01*
X125344236Y-102949004D01*
X125344236Y-102949007D01*
X125331280Y-103030808D01*
X125301351Y-103093943D01*
X125242039Y-103130874D01*
X125172177Y-103129876D01*
X125113944Y-103091266D01*
X125085830Y-103027302D01*
X125084807Y-103011410D01*
X125084807Y-102294291D01*
X125084807Y-102294289D01*
X125070042Y-102220054D01*
X125051376Y-102192120D01*
X125013792Y-102135870D01*
X124963327Y-102102151D01*
X124929609Y-102079621D01*
X124929607Y-102079620D01*
X124929604Y-102079619D01*
X124855377Y-102064855D01*
X123005244Y-102064855D01*
X122931006Y-102079621D01*
X122846823Y-102135870D01*
X122790574Y-102220054D01*
X122790572Y-102220058D01*
X122775808Y-102294283D01*
X122775808Y-104144418D01*
X122790574Y-104218656D01*
X122846823Y-104302839D01*
X122858349Y-104310540D01*
X122931007Y-104359089D01*
X122931010Y-104359089D01*
X122931011Y-104359090D01*
X122955974Y-104364055D01*
X123005241Y-104373855D01*
X124302975Y-104373854D01*
X124370014Y-104393539D01*
X124415769Y-104446342D01*
X124425713Y-104515501D01*
X124396688Y-104579057D01*
X124390656Y-104585535D01*
X122696300Y-106279891D01*
X122696296Y-106279896D01*
X122679744Y-106308567D01*
X122676471Y-106314237D01*
X122629881Y-106394933D01*
X122595500Y-106523244D01*
X122595500Y-106523246D01*
X122595500Y-122832488D01*
X122578887Y-122894488D01*
X122538837Y-122963856D01*
X122538836Y-122963859D01*
X122501048Y-123104887D01*
X122501048Y-123250889D01*
X122532263Y-123367384D01*
X122538836Y-123391916D01*
X122538837Y-123391919D01*
X122578887Y-123461287D01*
X122595500Y-123523287D01*
X122595500Y-135539667D01*
X122575815Y-135606706D01*
X122559181Y-135627348D01*
X122002712Y-136183816D01*
X121941389Y-136217301D01*
X121871697Y-136212317D01*
X121815764Y-136170445D01*
X121791347Y-136104981D01*
X121804547Y-136039839D01*
X121863580Y-135923981D01*
X121917303Y-135758638D01*
X121944500Y-135586926D01*
X121944500Y-135413074D01*
X121917303Y-135241362D01*
X121917302Y-135241358D01*
X121917302Y-135241357D01*
X121863581Y-135076021D01*
X121801362Y-134953910D01*
X121784653Y-134921116D01*
X121682465Y-134780467D01*
X121559533Y-134657535D01*
X121418884Y-134555347D01*
X121409760Y-134550698D01*
X121263978Y-134476418D01*
X121098641Y-134422697D01*
X120969854Y-134402299D01*
X120926926Y-134395500D01*
X120753074Y-134395500D01*
X120695836Y-134404565D01*
X120581360Y-134422697D01*
X120581357Y-134422697D01*
X120416021Y-134476418D01*
X120261115Y-134555347D01*
X120180869Y-134613649D01*
X120120467Y-134657535D01*
X120120465Y-134657537D01*
X120120464Y-134657537D01*
X119997537Y-134780464D01*
X119997537Y-134780465D01*
X119997535Y-134780467D01*
X119953649Y-134840869D01*
X119895347Y-134921115D01*
X119816418Y-135076021D01*
X119762697Y-135241357D01*
X119762697Y-135241360D01*
X119735500Y-135413074D01*
X119735500Y-135586925D01*
X119762697Y-135758639D01*
X119762697Y-135758642D01*
X119816418Y-135923978D01*
X119854676Y-135999063D01*
X119867572Y-136067732D01*
X119841296Y-136132473D01*
X119784189Y-136172730D01*
X119714384Y-136175722D01*
X119656510Y-136143039D01*
X119440818Y-135927347D01*
X119407333Y-135866024D01*
X119404499Y-135839666D01*
X119404499Y-134624936D01*
X119404499Y-134624934D01*
X119389734Y-134550699D01*
X119340102Y-134476420D01*
X119333484Y-134466515D01*
X119267905Y-134422697D01*
X119249301Y-134410266D01*
X119249299Y-134410265D01*
X119249296Y-134410264D01*
X119175069Y-134395500D01*
X117424936Y-134395500D01*
X117350698Y-134410266D01*
X117266515Y-134466515D01*
X117210266Y-134550699D01*
X117210264Y-134550703D01*
X117195500Y-134624928D01*
X117195500Y-136375063D01*
X117210266Y-136449301D01*
X117266515Y-136533484D01*
X117300234Y-136556014D01*
X117350699Y-136589734D01*
X117350702Y-136589734D01*
X117350703Y-136589735D01*
X117375666Y-136594700D01*
X117424933Y-136604500D01*
X118639666Y-136604499D01*
X118706705Y-136624184D01*
X118727347Y-136640818D01*
X119143348Y-137056819D01*
X119176833Y-137118142D01*
X119171849Y-137187834D01*
X119129977Y-137243767D01*
X119064513Y-137268184D01*
X119055667Y-137268500D01*
X116624399Y-137268500D01*
X116557360Y-137248815D01*
X116511605Y-137196011D01*
X116500399Y-137144520D01*
X116500103Y-135314373D01*
X116499184Y-129632035D01*
X116518858Y-129564994D01*
X116571654Y-129519231D01*
X116640811Y-129509276D01*
X116704372Y-129538291D01*
X116710865Y-129544336D01*
X117194763Y-130028234D01*
X117228248Y-130089557D01*
X117225013Y-130154233D01*
X117222697Y-130161360D01*
X117195500Y-130333074D01*
X117195500Y-130506925D01*
X117222697Y-130678639D01*
X117222697Y-130678642D01*
X117276418Y-130843978D01*
X117276420Y-130843981D01*
X117355347Y-130998884D01*
X117457535Y-131139533D01*
X117580467Y-131262465D01*
X117721116Y-131364653D01*
X117776295Y-131392768D01*
X117876021Y-131443581D01*
X118041358Y-131497302D01*
X118041359Y-131497302D01*
X118041362Y-131497303D01*
X118213074Y-131524500D01*
X118213075Y-131524500D01*
X118386925Y-131524500D01*
X118386926Y-131524500D01*
X118558638Y-131497303D01*
X118558641Y-131497302D01*
X118558642Y-131497302D01*
X118723978Y-131443581D01*
X118723978Y-131443580D01*
X118723981Y-131443580D01*
X118878884Y-131364653D01*
X118898614Y-131350317D01*
X118964420Y-131326838D01*
X119032474Y-131342663D01*
X119081169Y-131392768D01*
X119095500Y-131450636D01*
X119095500Y-131470377D01*
X119075815Y-131537416D01*
X119059181Y-131558058D01*
X118745135Y-131872103D01*
X118683812Y-131905588D01*
X118619137Y-131902353D01*
X118558640Y-131882697D01*
X118558641Y-131882697D01*
X118429854Y-131862299D01*
X118386926Y-131855500D01*
X118213074Y-131855500D01*
X118155836Y-131864565D01*
X118041360Y-131882697D01*
X118041357Y-131882697D01*
X117876021Y-131936418D01*
X117721115Y-132015347D01*
X117640869Y-132073649D01*
X117580467Y-132117535D01*
X117580465Y-132117537D01*
X117580464Y-132117537D01*
X117457537Y-132240464D01*
X117457537Y-132240465D01*
X117457535Y-132240467D01*
X117431913Y-132275733D01*
X117355347Y-132381115D01*
X117276418Y-132536021D01*
X117222697Y-132701357D01*
X117222697Y-132701360D01*
X117195500Y-132873074D01*
X117195500Y-133046925D01*
X117222697Y-133218639D01*
X117222697Y-133218642D01*
X117276418Y-133383978D01*
X117343521Y-133515674D01*
X117355347Y-133538884D01*
X117457535Y-133679533D01*
X117580467Y-133802465D01*
X117721116Y-133904653D01*
X117862090Y-133976483D01*
X117876021Y-133983581D01*
X118041358Y-134037302D01*
X118041359Y-134037302D01*
X118041362Y-134037303D01*
X118213074Y-134064500D01*
X118213075Y-134064500D01*
X118386925Y-134064500D01*
X118386926Y-134064500D01*
X118558638Y-134037303D01*
X118558641Y-134037302D01*
X118558642Y-134037302D01*
X118723978Y-133983581D01*
X118723978Y-133983580D01*
X118723981Y-133983580D01*
X118878884Y-133904653D01*
X119019533Y-133802465D01*
X119142465Y-133679533D01*
X119244653Y-133538884D01*
X119323580Y-133383981D01*
X119377303Y-133218638D01*
X119404500Y-133046926D01*
X119404500Y-132873074D01*
X119377303Y-132701362D01*
X119357644Y-132640861D01*
X119355650Y-132571021D01*
X119387893Y-132514865D01*
X119774136Y-132128624D01*
X119835458Y-132095140D01*
X119905150Y-132100124D01*
X119961083Y-132141996D01*
X119985500Y-132207460D01*
X119970648Y-132275733D01*
X119962134Y-132289192D01*
X119895347Y-132381115D01*
X119816418Y-132536021D01*
X119762697Y-132701357D01*
X119762697Y-132701360D01*
X119735500Y-132873074D01*
X119735500Y-133046925D01*
X119762697Y-133218639D01*
X119762697Y-133218642D01*
X119816418Y-133383978D01*
X119883521Y-133515674D01*
X119895347Y-133538884D01*
X119997535Y-133679533D01*
X120120467Y-133802465D01*
X120261116Y-133904653D01*
X120402090Y-133976483D01*
X120416021Y-133983581D01*
X120581358Y-134037302D01*
X120581359Y-134037302D01*
X120581362Y-134037303D01*
X120753074Y-134064500D01*
X120753075Y-134064500D01*
X120926925Y-134064500D01*
X120926926Y-134064500D01*
X121098638Y-134037303D01*
X121098641Y-134037302D01*
X121098642Y-134037302D01*
X121263978Y-133983581D01*
X121263978Y-133983580D01*
X121263981Y-133983580D01*
X121418884Y-133904653D01*
X121559533Y-133802465D01*
X121682465Y-133679533D01*
X121784653Y-133538884D01*
X121863580Y-133383981D01*
X121917303Y-133218638D01*
X121944500Y-133046926D01*
X121944500Y-132873074D01*
X121917303Y-132701362D01*
X121917302Y-132701358D01*
X121917302Y-132701357D01*
X121863581Y-132536021D01*
X121784652Y-132381115D01*
X121779440Y-132373941D01*
X121682465Y-132240467D01*
X121559533Y-132117535D01*
X121418884Y-132015347D01*
X121378768Y-131994907D01*
X121263978Y-131936418D01*
X121098641Y-131882697D01*
X120969854Y-131862299D01*
X120926926Y-131855500D01*
X120753074Y-131855500D01*
X120695836Y-131864565D01*
X120581360Y-131882697D01*
X120581357Y-131882697D01*
X120416021Y-131936418D01*
X120261115Y-132015347D01*
X120180869Y-132073649D01*
X120120467Y-132117535D01*
X120120465Y-132117537D01*
X120116763Y-132120699D01*
X120115763Y-132119528D01*
X120060396Y-132149745D01*
X119990706Y-132144745D01*
X119934782Y-132102860D01*
X119910380Y-132037390D01*
X119925248Y-131969121D01*
X119926658Y-131966608D01*
X119944088Y-131936420D01*
X119944090Y-131936418D01*
X119950830Y-131924741D01*
X119973527Y-131885431D01*
X119989452Y-131825997D01*
X120004501Y-131769836D01*
X120004501Y-131650164D01*
X120004501Y-131642569D01*
X120004500Y-131642551D01*
X120004500Y-131421574D01*
X120024185Y-131354535D01*
X120076989Y-131308780D01*
X120146147Y-131298836D01*
X120201384Y-131321255D01*
X120261116Y-131364653D01*
X120316295Y-131392768D01*
X120416021Y-131443581D01*
X120581358Y-131497302D01*
X120581359Y-131497302D01*
X120581362Y-131497303D01*
X120753074Y-131524500D01*
X120753075Y-131524500D01*
X120926925Y-131524500D01*
X120926926Y-131524500D01*
X121098638Y-131497303D01*
X121098641Y-131497302D01*
X121098642Y-131497302D01*
X121263978Y-131443581D01*
X121263978Y-131443580D01*
X121263981Y-131443580D01*
X121418884Y-131364653D01*
X121559533Y-131262465D01*
X121682465Y-131139533D01*
X121784653Y-130998884D01*
X121863580Y-130843981D01*
X121917303Y-130678638D01*
X121944500Y-130506926D01*
X121944500Y-130333074D01*
X121917303Y-130161362D01*
X121917302Y-130161358D01*
X121917302Y-130161357D01*
X121863581Y-129996021D01*
X121810278Y-129891408D01*
X121784653Y-129841116D01*
X121682465Y-129700467D01*
X121559533Y-129577535D01*
X121418884Y-129475347D01*
X121263978Y-129396418D01*
X121098641Y-129342697D01*
X120964233Y-129321409D01*
X120926926Y-129315500D01*
X120753074Y-129315500D01*
X120715767Y-129321409D01*
X120581360Y-129342697D01*
X120581357Y-129342697D01*
X120416021Y-129396418D01*
X120261112Y-129475349D01*
X120201385Y-129518743D01*
X120135578Y-129542223D01*
X120067525Y-129526397D01*
X120018830Y-129476291D01*
X120004500Y-129418425D01*
X120004500Y-128881574D01*
X120024185Y-128814535D01*
X120076989Y-128768780D01*
X120146147Y-128758836D01*
X120201384Y-128781255D01*
X120261116Y-128824653D01*
X120340384Y-128865042D01*
X120416021Y-128903581D01*
X120581358Y-128957302D01*
X120581359Y-128957302D01*
X120581362Y-128957303D01*
X120753074Y-128984500D01*
X120753075Y-128984500D01*
X120926925Y-128984500D01*
X120926926Y-128984500D01*
X121098638Y-128957303D01*
X121098641Y-128957302D01*
X121098642Y-128957302D01*
X121263978Y-128903581D01*
X121263978Y-128903580D01*
X121263981Y-128903580D01*
X121418884Y-128824653D01*
X121559533Y-128722465D01*
X121682465Y-128599533D01*
X121784653Y-128458884D01*
X121863580Y-128303981D01*
X121877304Y-128261743D01*
X121917302Y-128138642D01*
X121917302Y-128138641D01*
X121917303Y-128138638D01*
X121944500Y-127966926D01*
X121944500Y-127793074D01*
X121917303Y-127621362D01*
X121917302Y-127621358D01*
X121917302Y-127621357D01*
X121863581Y-127456021D01*
X121784652Y-127301115D01*
X121682465Y-127160467D01*
X121559533Y-127037535D01*
X121418884Y-126935347D01*
X121365837Y-126908318D01*
X121263978Y-126856418D01*
X121098641Y-126802697D01*
X120969854Y-126782299D01*
X120926926Y-126775500D01*
X120753074Y-126775500D01*
X120695836Y-126784565D01*
X120581360Y-126802697D01*
X120581359Y-126802697D01*
X120566813Y-126807423D01*
X120496971Y-126809415D01*
X120437140Y-126773331D01*
X120406315Y-126710629D01*
X120404500Y-126689490D01*
X120404500Y-125671224D01*
X120404500Y-125671223D01*
X120380341Y-125581062D01*
X120333671Y-125500226D01*
X120267668Y-125434223D01*
X118288490Y-123455045D01*
X118255005Y-123393722D01*
X118252171Y-123367390D01*
X118249862Y-109079007D01*
X118855300Y-109079007D01*
X118855300Y-109270992D01*
X118885333Y-109460615D01*
X118944657Y-109643199D01*
X119031821Y-109814265D01*
X119144659Y-109969575D01*
X119144663Y-109969580D01*
X119280419Y-110105336D01*
X119280424Y-110105340D01*
X119415893Y-110203763D01*
X119435738Y-110218181D01*
X119606798Y-110305341D01*
X119606800Y-110305342D01*
X119698092Y-110335004D01*
X119789386Y-110364667D01*
X119979007Y-110394700D01*
X119979008Y-110394700D01*
X120170992Y-110394700D01*
X120170993Y-110394700D01*
X120360614Y-110364667D01*
X120543202Y-110305341D01*
X120714262Y-110218181D01*
X120869582Y-110105335D01*
X121005335Y-109969582D01*
X121118181Y-109814262D01*
X121205341Y-109643202D01*
X121264667Y-109460614D01*
X121294700Y-109270993D01*
X121294700Y-109079007D01*
X121264667Y-108889386D01*
X121205341Y-108706798D01*
X121118181Y-108535738D01*
X121103763Y-108515893D01*
X121005340Y-108380424D01*
X121005336Y-108380419D01*
X120869580Y-108244663D01*
X120869575Y-108244659D01*
X120714265Y-108131821D01*
X120714264Y-108131820D01*
X120714262Y-108131819D01*
X120628732Y-108088239D01*
X120543199Y-108044657D01*
X120360615Y-107985333D01*
X120265803Y-107970316D01*
X120170993Y-107955300D01*
X119979007Y-107955300D01*
X119915800Y-107965311D01*
X119789384Y-107985333D01*
X119606800Y-108044657D01*
X119435734Y-108131821D01*
X119280424Y-108244659D01*
X119280419Y-108244663D01*
X119144663Y-108380419D01*
X119144659Y-108380424D01*
X119031821Y-108535734D01*
X118944657Y-108706800D01*
X118885333Y-108889384D01*
X118855300Y-109079007D01*
X118249862Y-109079007D01*
X118247502Y-94479007D01*
X118855300Y-94479007D01*
X118855300Y-94670992D01*
X118885333Y-94860615D01*
X118944657Y-95043199D01*
X119031821Y-95214265D01*
X119144659Y-95369575D01*
X119144663Y-95369580D01*
X119280419Y-95505336D01*
X119280424Y-95505340D01*
X119415893Y-95603763D01*
X119435738Y-95618181D01*
X119606798Y-95705341D01*
X119606800Y-95705342D01*
X119698092Y-95735004D01*
X119789386Y-95764667D01*
X119979007Y-95794700D01*
X119979008Y-95794700D01*
X120170992Y-95794700D01*
X120170993Y-95794700D01*
X120360614Y-95764667D01*
X120543202Y-95705341D01*
X120714262Y-95618181D01*
X120869582Y-95505335D01*
X121005335Y-95369582D01*
X121118181Y-95214262D01*
X121205341Y-95043202D01*
X121264667Y-94860614D01*
X121294700Y-94670993D01*
X121294700Y-94479007D01*
X121264667Y-94289386D01*
X121205341Y-94106798D01*
X121118181Y-93935738D01*
X121103763Y-93915893D01*
X121005340Y-93780424D01*
X121005336Y-93780419D01*
X120869580Y-93644663D01*
X120869575Y-93644659D01*
X120714265Y-93531821D01*
X120714264Y-93531820D01*
X120714262Y-93531819D01*
X120628732Y-93488239D01*
X120543199Y-93444657D01*
X120360615Y-93385333D01*
X120265803Y-93370316D01*
X120170993Y-93355300D01*
X119979007Y-93355300D01*
X119915800Y-93365311D01*
X119789384Y-93385333D01*
X119606800Y-93444657D01*
X119435734Y-93531821D01*
X119280424Y-93644659D01*
X119280419Y-93644663D01*
X119144663Y-93780419D01*
X119144659Y-93780424D01*
X119031821Y-93935734D01*
X118944657Y-94106800D01*
X118885333Y-94289384D01*
X118855300Y-94479007D01*
X118247502Y-94479007D01*
X118245143Y-79879007D01*
X118855300Y-79879007D01*
X118855300Y-80070992D01*
X118885333Y-80260615D01*
X118944657Y-80443199D01*
X119031821Y-80614265D01*
X119144659Y-80769575D01*
X119144663Y-80769580D01*
X119280419Y-80905336D01*
X119280424Y-80905340D01*
X119335714Y-80945510D01*
X119435738Y-81018181D01*
X119606798Y-81105341D01*
X119606800Y-81105342D01*
X119698092Y-81135004D01*
X119789386Y-81164667D01*
X119979007Y-81194700D01*
X119979008Y-81194700D01*
X120170992Y-81194700D01*
X120170993Y-81194700D01*
X120360614Y-81164667D01*
X120543202Y-81105341D01*
X120714262Y-81018181D01*
X120869582Y-80905335D01*
X121005335Y-80769582D01*
X121118181Y-80614262D01*
X121205341Y-80443202D01*
X121264667Y-80260614D01*
X121294700Y-80070993D01*
X121294700Y-79879007D01*
X121264667Y-79689386D01*
X121205341Y-79506798D01*
X121118181Y-79335738D01*
X121103763Y-79315893D01*
X121005340Y-79180424D01*
X121005336Y-79180419D01*
X120869580Y-79044663D01*
X120869575Y-79044659D01*
X120714265Y-78931821D01*
X120714264Y-78931820D01*
X120714262Y-78931819D01*
X120628732Y-78888239D01*
X120543199Y-78844657D01*
X120360615Y-78785333D01*
X120265803Y-78770316D01*
X120170993Y-78755300D01*
X119979007Y-78755300D01*
X119915800Y-78765311D01*
X119789384Y-78785333D01*
X119606800Y-78844657D01*
X119435734Y-78931821D01*
X119280424Y-79044659D01*
X119280419Y-79044663D01*
X119144663Y-79180419D01*
X119144659Y-79180424D01*
X119031821Y-79335734D01*
X118944657Y-79506800D01*
X118885333Y-79689384D01*
X118855300Y-79879007D01*
X118245143Y-79879007D01*
X118244563Y-76290260D01*
X118264237Y-76223219D01*
X118280877Y-76202566D01*
X123483671Y-70999774D01*
X123515007Y-70945497D01*
X123530341Y-70918938D01*
X123554500Y-70828777D01*
X123554500Y-64118509D01*
X123574185Y-64051470D01*
X123590819Y-64030828D01*
X125705828Y-61915819D01*
X125767151Y-61882334D01*
X125792407Y-61879618D01*
X125793299Y-61879500D01*
X125793309Y-61879500D01*
X125809714Y-61875104D01*
X125879561Y-61876765D01*
G37*
%TD.AperFunction*%
%TA.AperFunction,Conductor*%
G36*
X130633592Y-94746571D02*
G01*
X130692111Y-94847930D01*
X130774870Y-94930689D01*
X130876229Y-94989208D01*
X130963704Y-95012647D01*
X130203606Y-95772744D01*
X130279867Y-95828151D01*
X130485353Y-95932852D01*
X130704697Y-96004122D01*
X130932481Y-96040200D01*
X131163119Y-96040200D01*
X131390902Y-96004122D01*
X131610246Y-95932852D01*
X131815733Y-95828151D01*
X131823613Y-95822426D01*
X131889419Y-95798945D01*
X131957473Y-95814769D01*
X132006169Y-95864874D01*
X132020500Y-95922743D01*
X132020500Y-99853488D01*
X132020500Y-99946830D01*
X132044659Y-100036991D01*
X132091328Y-100117825D01*
X132091330Y-100117828D01*
X132403102Y-100429600D01*
X132436587Y-100490923D01*
X132439421Y-100517281D01*
X132439421Y-103714220D01*
X132439372Y-103714970D01*
X132439421Y-103769251D01*
X132439421Y-103819608D01*
X132440005Y-103828278D01*
X132440005Y-108216825D01*
X132420320Y-108283864D01*
X132367516Y-108329619D01*
X132298358Y-108339563D01*
X132286189Y-108334005D01*
X132245544Y-108330806D01*
X131485447Y-109090904D01*
X131462008Y-109003429D01*
X131403489Y-108902070D01*
X131320730Y-108819311D01*
X131219371Y-108760792D01*
X131131893Y-108737352D01*
X131891992Y-107977254D01*
X131891991Y-107977253D01*
X131815735Y-107921850D01*
X131610246Y-107817147D01*
X131390902Y-107745877D01*
X131163119Y-107709800D01*
X130932481Y-107709800D01*
X130704697Y-107745877D01*
X130485353Y-107817147D01*
X130279869Y-107921847D01*
X130203607Y-107977254D01*
X130963706Y-108737352D01*
X130876229Y-108760792D01*
X130774870Y-108819311D01*
X130692111Y-108902070D01*
X130633592Y-109003429D01*
X130610152Y-109090905D01*
X129850054Y-108330807D01*
X129791785Y-108411010D01*
X129790600Y-108410149D01*
X129743613Y-108452633D01*
X129674680Y-108464034D01*
X129610526Y-108436357D01*
X129589414Y-108413835D01*
X129565138Y-108380421D01*
X129429380Y-108244663D01*
X129429375Y-108244659D01*
X129274065Y-108131821D01*
X129274064Y-108131820D01*
X129274062Y-108131819D01*
X129188532Y-108088239D01*
X129102999Y-108044657D01*
X128920415Y-107985333D01*
X128825603Y-107970316D01*
X128730793Y-107955300D01*
X128538807Y-107955300D01*
X128475600Y-107965311D01*
X128349184Y-107985333D01*
X128166600Y-108044657D01*
X127995534Y-108131821D01*
X127840224Y-108244659D01*
X127840219Y-108244663D01*
X127704463Y-108380419D01*
X127704459Y-108380424D01*
X127591621Y-108535734D01*
X127504457Y-108706800D01*
X127445133Y-108889384D01*
X127415100Y-109079007D01*
X127415100Y-109270992D01*
X127445133Y-109460615D01*
X127504457Y-109643199D01*
X127591621Y-109814265D01*
X127704459Y-109969575D01*
X127704463Y-109969580D01*
X127840219Y-110105336D01*
X127840224Y-110105340D01*
X127975693Y-110203763D01*
X127995538Y-110218181D01*
X128166598Y-110305341D01*
X128166600Y-110305342D01*
X128257892Y-110335004D01*
X128349186Y-110364667D01*
X128538807Y-110394700D01*
X128538808Y-110394700D01*
X128730792Y-110394700D01*
X128730793Y-110394700D01*
X128920414Y-110364667D01*
X129103002Y-110305341D01*
X129274062Y-110218181D01*
X129429382Y-110105335D01*
X129565135Y-109969582D01*
X129589414Y-109936163D01*
X129644742Y-109893498D01*
X129714355Y-109887517D01*
X129776151Y-109920122D01*
X129791443Y-109939238D01*
X129791784Y-109938991D01*
X129850053Y-110019191D01*
X129850054Y-110019192D01*
X130610152Y-109259094D01*
X130633592Y-109346571D01*
X130692111Y-109447930D01*
X130774870Y-109530689D01*
X130876229Y-109589208D01*
X130963705Y-109612647D01*
X130203606Y-110372744D01*
X130279867Y-110428151D01*
X130485353Y-110532852D01*
X130704697Y-110604122D01*
X130932481Y-110640200D01*
X131163119Y-110640200D01*
X131390902Y-110604122D01*
X131610246Y-110532852D01*
X131815724Y-110428155D01*
X131815730Y-110428151D01*
X131891991Y-110372744D01*
X131891992Y-110372744D01*
X131131894Y-109612647D01*
X131219371Y-109589208D01*
X131320730Y-109530689D01*
X131403489Y-109447930D01*
X131462008Y-109346571D01*
X131485447Y-109259095D01*
X132245544Y-110019192D01*
X132302533Y-110014707D01*
X132302549Y-110014913D01*
X132340628Y-110011642D01*
X132402424Y-110044247D01*
X132436782Y-110105085D01*
X132440005Y-110133173D01*
X132440005Y-112066607D01*
X132420320Y-112133646D01*
X132403686Y-112154288D01*
X128525031Y-116032942D01*
X128499352Y-116052647D01*
X128475652Y-116066330D01*
X128207803Y-116334181D01*
X128146480Y-116367666D01*
X128120122Y-116370500D01*
X126149043Y-116370500D01*
X126055700Y-116370500D01*
X126020549Y-116379919D01*
X125985397Y-116389338D01*
X125985396Y-116389337D01*
X125965541Y-116394658D01*
X125965539Y-116394659D01*
X125884705Y-116441328D01*
X125884702Y-116441330D01*
X125818699Y-116507334D01*
X125424891Y-116901141D01*
X125376330Y-116949702D01*
X125376328Y-116949705D01*
X125329659Y-117030539D01*
X125329659Y-117030540D01*
X125305500Y-117120701D01*
X125305500Y-127778329D01*
X125305500Y-127871671D01*
X125326518Y-127950110D01*
X125329659Y-127961832D01*
X125376328Y-128042666D01*
X125376330Y-128042669D01*
X125673743Y-128340082D01*
X125707228Y-128401405D01*
X125709553Y-128438983D01*
X125705500Y-128483590D01*
X125705500Y-129416407D01*
X125711606Y-129483609D01*
X125711606Y-129483611D01*
X125711607Y-129483613D01*
X125757857Y-129632037D01*
X125759795Y-129638256D01*
X125843594Y-129776876D01*
X125958123Y-129891405D01*
X125958125Y-129891406D01*
X125958127Y-129891408D01*
X126096744Y-129975205D01*
X126251387Y-130023393D01*
X126318590Y-130029500D01*
X126318593Y-130029500D01*
X127251407Y-130029500D01*
X127251410Y-130029500D01*
X127318613Y-130023393D01*
X127473256Y-129975205D01*
X127611873Y-129891408D01*
X127726408Y-129776873D01*
X127810205Y-129638256D01*
X127858393Y-129483613D01*
X127864500Y-129416410D01*
X127864500Y-128483590D01*
X127858393Y-128416387D01*
X127810205Y-128261744D01*
X127726408Y-128123127D01*
X127726406Y-128123125D01*
X127726405Y-128123123D01*
X127611876Y-128008594D01*
X127561555Y-127978174D01*
X127473256Y-127924795D01*
X127318613Y-127876607D01*
X127318611Y-127876606D01*
X127318609Y-127876606D01*
X127271559Y-127872331D01*
X127251410Y-127870500D01*
X126318590Y-127870500D01*
X126273983Y-127874553D01*
X126205438Y-127861016D01*
X126175082Y-127838743D01*
X126050819Y-127714480D01*
X126017334Y-127653157D01*
X126014500Y-127626799D01*
X126014500Y-124580596D01*
X126034185Y-124513557D01*
X126086989Y-124467802D01*
X126156147Y-124457858D01*
X126175378Y-124462208D01*
X126251387Y-124485893D01*
X126318590Y-124492000D01*
X126318593Y-124492000D01*
X127251407Y-124492000D01*
X127251410Y-124492000D01*
X127318613Y-124485893D01*
X127473256Y-124437705D01*
X127611873Y-124353908D01*
X127726408Y-124239373D01*
X127810205Y-124100756D01*
X127858393Y-123946113D01*
X127864500Y-123878910D01*
X127864500Y-122946090D01*
X127860446Y-122901483D01*
X127873982Y-122832939D01*
X127896253Y-122802585D01*
X128483671Y-122215168D01*
X128530341Y-122134332D01*
X128554500Y-122044171D01*
X128554500Y-121950829D01*
X128554500Y-118892897D01*
X128574185Y-118825858D01*
X128626989Y-118780103D01*
X128696147Y-118770159D01*
X128751389Y-118792582D01*
X128759219Y-118798271D01*
X128830745Y-118834715D01*
X128910611Y-118875410D01*
X128910613Y-118875410D01*
X128910616Y-118875412D01*
X128986918Y-118900204D01*
X129072215Y-118927919D01*
X129240037Y-118954500D01*
X129240042Y-118954500D01*
X129409963Y-118954500D01*
X129577784Y-118927919D01*
X129601054Y-118920358D01*
X129739384Y-118875412D01*
X129890781Y-118798271D01*
X130028247Y-118698396D01*
X130148396Y-118578247D01*
X130248271Y-118440781D01*
X130321427Y-118297205D01*
X130369402Y-118246409D01*
X130431912Y-118229500D01*
X130758088Y-118229500D01*
X130825127Y-118249185D01*
X130868573Y-118297205D01*
X130941729Y-118440781D01*
X131041604Y-118578247D01*
X131161753Y-118698396D01*
X131299219Y-118798271D01*
X131370745Y-118834715D01*
X131450611Y-118875410D01*
X131450613Y-118875410D01*
X131450616Y-118875412D01*
X131526918Y-118900204D01*
X131612215Y-118927919D01*
X131780037Y-118954500D01*
X131780042Y-118954500D01*
X131949963Y-118954500D01*
X132117784Y-118927919D01*
X132141054Y-118920358D01*
X132279384Y-118875412D01*
X132430781Y-118798271D01*
X132568247Y-118698396D01*
X132688396Y-118578247D01*
X132788271Y-118440781D01*
X132807177Y-118403675D01*
X132855151Y-118352880D01*
X132922972Y-118336084D01*
X132989107Y-118358621D01*
X133032559Y-118413336D01*
X133041662Y-118459970D01*
X133041662Y-121683136D01*
X133021977Y-121750175D01*
X133005343Y-121770817D01*
X132397034Y-122379125D01*
X132335711Y-122412610D01*
X132271035Y-122409375D01*
X132117786Y-122359581D01*
X131949963Y-122333000D01*
X131949958Y-122333000D01*
X131780042Y-122333000D01*
X131780037Y-122333000D01*
X131612215Y-122359580D01*
X131450611Y-122412089D01*
X131299218Y-122489229D01*
X131263236Y-122515372D01*
X131161753Y-122589104D01*
X131161751Y-122589106D01*
X131161750Y-122589106D01*
X131041606Y-122709250D01*
X131041606Y-122709251D01*
X131041604Y-122709253D01*
X130998711Y-122768289D01*
X130941729Y-122846718D01*
X130868573Y-122990295D01*
X130820598Y-123041091D01*
X130758088Y-123058000D01*
X130431912Y-123058000D01*
X130364873Y-123038315D01*
X130321427Y-122990295D01*
X130307957Y-122963859D01*
X130248271Y-122846719D01*
X130148396Y-122709253D01*
X130028247Y-122589104D01*
X129890781Y-122489229D01*
X129739388Y-122412089D01*
X129577784Y-122359580D01*
X129409963Y-122333000D01*
X129409958Y-122333000D01*
X129240042Y-122333000D01*
X129240037Y-122333000D01*
X129072215Y-122359580D01*
X128910611Y-122412089D01*
X128759218Y-122489229D01*
X128723236Y-122515372D01*
X128621753Y-122589104D01*
X128621751Y-122589106D01*
X128621750Y-122589106D01*
X128501606Y-122709250D01*
X128501606Y-122709251D01*
X128501604Y-122709253D01*
X128458711Y-122768289D01*
X128401729Y-122846718D01*
X128324589Y-122998111D01*
X128272080Y-123159715D01*
X128245500Y-123327536D01*
X128245500Y-123497463D01*
X128272080Y-123665284D01*
X128324589Y-123826888D01*
X128401729Y-123978281D01*
X128501604Y-124115747D01*
X128621753Y-124235896D01*
X128759219Y-124335771D01*
X128794809Y-124353905D01*
X128910611Y-124412910D01*
X128910613Y-124412910D01*
X128910616Y-124412912D01*
X128986918Y-124437704D01*
X129072215Y-124465419D01*
X129240037Y-124492000D01*
X129240042Y-124492000D01*
X129409963Y-124492000D01*
X129577784Y-124465419D01*
X129604612Y-124456702D01*
X129739384Y-124412912D01*
X129890781Y-124335771D01*
X130028247Y-124235896D01*
X130148396Y-124115747D01*
X130248271Y-123978281D01*
X130321427Y-123834705D01*
X130369402Y-123783909D01*
X130431912Y-123767000D01*
X130758088Y-123767000D01*
X130825127Y-123786685D01*
X130868573Y-123834705D01*
X130941729Y-123978281D01*
X131041604Y-124115747D01*
X131161753Y-124235896D01*
X131299219Y-124335771D01*
X131334809Y-124353905D01*
X131450611Y-124412910D01*
X131450613Y-124412910D01*
X131450616Y-124412912D01*
X131526918Y-124437704D01*
X131612215Y-124465419D01*
X131780037Y-124492000D01*
X131780042Y-124492000D01*
X131949963Y-124492000D01*
X132117784Y-124465419D01*
X132144612Y-124456702D01*
X132279384Y-124412912D01*
X132430781Y-124335771D01*
X132568247Y-124235896D01*
X132688396Y-124115747D01*
X132788271Y-123978281D01*
X132865412Y-123826884D01*
X132917919Y-123665284D01*
X132944500Y-123497463D01*
X132944500Y-123327536D01*
X132917919Y-123159715D01*
X132884869Y-123058000D01*
X132868122Y-123006459D01*
X132866127Y-122936623D01*
X132898371Y-122880466D01*
X133229982Y-122548856D01*
X133291304Y-122515372D01*
X133360996Y-122520356D01*
X133416929Y-122562228D01*
X133441346Y-122627692D01*
X133441662Y-122636538D01*
X133441662Y-126820637D01*
X133421977Y-126887676D01*
X133405343Y-126908318D01*
X132397035Y-127916625D01*
X132335712Y-127950110D01*
X132271036Y-127946875D01*
X132117786Y-127897081D01*
X131949963Y-127870500D01*
X131949958Y-127870500D01*
X131780042Y-127870500D01*
X131780037Y-127870500D01*
X131612215Y-127897080D01*
X131450611Y-127949589D01*
X131299218Y-128026729D01*
X131277279Y-128042669D01*
X131161753Y-128126604D01*
X131161751Y-128126606D01*
X131161750Y-128126606D01*
X131041606Y-128246750D01*
X131041606Y-128246751D01*
X131041604Y-128246753D01*
X131017377Y-128280099D01*
X130941729Y-128384218D01*
X130868573Y-128527795D01*
X130820598Y-128578591D01*
X130758088Y-128595500D01*
X130431912Y-128595500D01*
X130364873Y-128575815D01*
X130321427Y-128527795D01*
X130286315Y-128458884D01*
X130248271Y-128384219D01*
X130148396Y-128246753D01*
X130028247Y-128126604D01*
X129890781Y-128026729D01*
X129739388Y-127949589D01*
X129577784Y-127897080D01*
X129409963Y-127870500D01*
X129409958Y-127870500D01*
X129240042Y-127870500D01*
X129240037Y-127870500D01*
X129072215Y-127897080D01*
X128910611Y-127949589D01*
X128759218Y-128026729D01*
X128737279Y-128042669D01*
X128621753Y-128126604D01*
X128621751Y-128126606D01*
X128621750Y-128126606D01*
X128501606Y-128246750D01*
X128501606Y-128246751D01*
X128501604Y-128246753D01*
X128477377Y-128280099D01*
X128401729Y-128384218D01*
X128324589Y-128535611D01*
X128272080Y-128697215D01*
X128245500Y-128865036D01*
X128245500Y-129034963D01*
X128272080Y-129202784D01*
X128324589Y-129364388D01*
X128401729Y-129515781D01*
X128501604Y-129653247D01*
X128621753Y-129773396D01*
X128759219Y-129873271D01*
X128794809Y-129891405D01*
X128910611Y-129950410D01*
X128910613Y-129950410D01*
X128910616Y-129950412D01*
X128986918Y-129975204D01*
X129072215Y-130002919D01*
X129240037Y-130029500D01*
X129240042Y-130029500D01*
X129409963Y-130029500D01*
X129577784Y-130002919D01*
X129599020Y-129996019D01*
X129739384Y-129950412D01*
X129890781Y-129873271D01*
X130028247Y-129773396D01*
X130148396Y-129653247D01*
X130248271Y-129515781D01*
X130321427Y-129372205D01*
X130369402Y-129321409D01*
X130431912Y-129304500D01*
X130758088Y-129304500D01*
X130825127Y-129324185D01*
X130868573Y-129372205D01*
X130941729Y-129515781D01*
X131041604Y-129653247D01*
X131161753Y-129773396D01*
X131299219Y-129873271D01*
X131334809Y-129891405D01*
X131450611Y-129950410D01*
X131450613Y-129950410D01*
X131450616Y-129950412D01*
X131526918Y-129975204D01*
X131612215Y-130002919D01*
X131780037Y-130029500D01*
X131780042Y-130029500D01*
X131949963Y-130029500D01*
X132117784Y-130002919D01*
X132139020Y-129996019D01*
X132279384Y-129950412D01*
X132430781Y-129873271D01*
X132568247Y-129773396D01*
X132688396Y-129653247D01*
X132788271Y-129515781D01*
X132865412Y-129364384D01*
X132917919Y-129202784D01*
X132944500Y-129034963D01*
X132944500Y-128865036D01*
X132917919Y-128697215D01*
X132905683Y-128659556D01*
X132868122Y-128543959D01*
X132866128Y-128474122D01*
X132898371Y-128417965D01*
X133629982Y-127686355D01*
X133691304Y-127652871D01*
X133760996Y-127657855D01*
X133816929Y-127699727D01*
X133841346Y-127765191D01*
X133841662Y-127774037D01*
X133841662Y-131958136D01*
X133821977Y-132025175D01*
X133805343Y-132045817D01*
X132397034Y-133454125D01*
X132335711Y-133487610D01*
X132271035Y-133484375D01*
X132117786Y-133434581D01*
X131949963Y-133408000D01*
X131949958Y-133408000D01*
X131780042Y-133408000D01*
X131780037Y-133408000D01*
X131612215Y-133434580D01*
X131450611Y-133487089D01*
X131299218Y-133564229D01*
X131220789Y-133621211D01*
X131161753Y-133664104D01*
X131161751Y-133664106D01*
X131161750Y-133664106D01*
X131041606Y-133784250D01*
X131041606Y-133784251D01*
X131041604Y-133784253D01*
X130998711Y-133843289D01*
X130941729Y-133921718D01*
X130868573Y-134065295D01*
X130820598Y-134116091D01*
X130758088Y-134133000D01*
X130431912Y-134133000D01*
X130364873Y-134113315D01*
X130321427Y-134065295D01*
X130296826Y-134017013D01*
X130248271Y-133921719D01*
X130148396Y-133784253D01*
X130028247Y-133664104D01*
X129890781Y-133564229D01*
X129739388Y-133487089D01*
X129577784Y-133434580D01*
X129409963Y-133408000D01*
X129409958Y-133408000D01*
X129240042Y-133408000D01*
X129240037Y-133408000D01*
X129072215Y-133434580D01*
X128910611Y-133487089D01*
X128759218Y-133564229D01*
X128680789Y-133621211D01*
X128621753Y-133664104D01*
X128621751Y-133664106D01*
X128621750Y-133664106D01*
X128501606Y-133784250D01*
X128501606Y-133784251D01*
X128501604Y-133784253D01*
X128458711Y-133843289D01*
X128401729Y-133921718D01*
X128324589Y-134073111D01*
X128272080Y-134234715D01*
X128245500Y-134402536D01*
X128245500Y-134572463D01*
X128272080Y-134740284D01*
X128324589Y-134901888D01*
X128401729Y-135053281D01*
X128501604Y-135190747D01*
X128621753Y-135310896D01*
X128759219Y-135410771D01*
X128794809Y-135428905D01*
X128910611Y-135487910D01*
X128910613Y-135487910D01*
X128910616Y-135487912D01*
X128986918Y-135512704D01*
X129072215Y-135540419D01*
X129240037Y-135567000D01*
X129240042Y-135567000D01*
X129409963Y-135567000D01*
X129577784Y-135540419D01*
X129580098Y-135539667D01*
X129739384Y-135487912D01*
X129890781Y-135410771D01*
X130028247Y-135310896D01*
X130148396Y-135190747D01*
X130248271Y-135053281D01*
X130321427Y-134909705D01*
X130369402Y-134858909D01*
X130431912Y-134842000D01*
X130758088Y-134842000D01*
X130825127Y-134861685D01*
X130868573Y-134909705D01*
X130941729Y-135053281D01*
X131041604Y-135190747D01*
X131161753Y-135310896D01*
X131299219Y-135410771D01*
X131334809Y-135428905D01*
X131450611Y-135487910D01*
X131450613Y-135487910D01*
X131450616Y-135487912D01*
X131526918Y-135512704D01*
X131612215Y-135540419D01*
X131780037Y-135567000D01*
X131780042Y-135567000D01*
X131949963Y-135567000D01*
X132117784Y-135540419D01*
X132120098Y-135539667D01*
X132279384Y-135487912D01*
X132430781Y-135410771D01*
X132568247Y-135310896D01*
X132688396Y-135190747D01*
X132788271Y-135053281D01*
X132865412Y-134901884D01*
X132917919Y-134740284D01*
X132931025Y-134657537D01*
X132944500Y-134572463D01*
X132944500Y-134402536D01*
X132917919Y-134234715D01*
X132884869Y-134133000D01*
X132868122Y-134081459D01*
X132866127Y-134011623D01*
X132898371Y-133955466D01*
X134286992Y-132566847D01*
X134348315Y-132533362D01*
X134418007Y-132538346D01*
X134473940Y-132580218D01*
X134498357Y-132645682D01*
X134498673Y-132654508D01*
X134499399Y-137144480D01*
X134479725Y-137211523D01*
X134426929Y-137257286D01*
X134375399Y-137268500D01*
X122644333Y-137268500D01*
X122577294Y-137248815D01*
X122531539Y-137196011D01*
X122521595Y-137126853D01*
X122550620Y-137063297D01*
X122556652Y-137056819D01*
X123023738Y-136589733D01*
X123503701Y-136109770D01*
X123570120Y-135994729D01*
X123604500Y-135866418D01*
X123604500Y-135733581D01*
X123604500Y-132107701D01*
X123624185Y-132040662D01*
X123676989Y-131994907D01*
X123746147Y-131984963D01*
X123809703Y-132013988D01*
X123816181Y-132020020D01*
X125673743Y-133877582D01*
X125707228Y-133938905D01*
X125709553Y-133976483D01*
X125705500Y-134021090D01*
X125705500Y-134953907D01*
X125711606Y-135021109D01*
X125759795Y-135175756D01*
X125843594Y-135314376D01*
X125958123Y-135428905D01*
X125958125Y-135428906D01*
X125958127Y-135428908D01*
X126096744Y-135512705D01*
X126251387Y-135560893D01*
X126318590Y-135567000D01*
X126318593Y-135567000D01*
X127251407Y-135567000D01*
X127251410Y-135567000D01*
X127318613Y-135560893D01*
X127473256Y-135512705D01*
X127611873Y-135428908D01*
X127726408Y-135314373D01*
X127810205Y-135175756D01*
X127858393Y-135021113D01*
X127864500Y-134953910D01*
X127864500Y-134021090D01*
X127858393Y-133953887D01*
X127810205Y-133799244D01*
X127726408Y-133660627D01*
X127726406Y-133660625D01*
X127726405Y-133660623D01*
X127611876Y-133546094D01*
X127599949Y-133538884D01*
X127473256Y-133462295D01*
X127318613Y-133414107D01*
X127318611Y-133414106D01*
X127318609Y-133414106D01*
X127271559Y-133409831D01*
X127251410Y-133408000D01*
X126318590Y-133408000D01*
X126273983Y-133412053D01*
X126205438Y-133398516D01*
X126175082Y-133376243D01*
X124090819Y-131291980D01*
X124057334Y-131230657D01*
X124054500Y-131204299D01*
X124054500Y-114925544D01*
X124074185Y-114858505D01*
X124126989Y-114812750D01*
X124196147Y-114802806D01*
X124259703Y-114831831D01*
X124266181Y-114837863D01*
X124272029Y-114843711D01*
X124398471Y-114916712D01*
X124539499Y-114954500D01*
X124539501Y-114954500D01*
X124685499Y-114954500D01*
X124685501Y-114954500D01*
X124826529Y-114916712D01*
X124952971Y-114843711D01*
X125056211Y-114740471D01*
X125129212Y-114614029D01*
X125167000Y-114473001D01*
X125167000Y-114326999D01*
X125129212Y-114185971D01*
X125056211Y-114059529D01*
X125003319Y-114006637D01*
X124969834Y-113945314D01*
X124967000Y-113918956D01*
X124967000Y-113863886D01*
X124986685Y-113796847D01*
X125003319Y-113776205D01*
X125472225Y-113307299D01*
X126058671Y-112720853D01*
X126089277Y-112667841D01*
X126105341Y-112640017D01*
X126129500Y-112549856D01*
X126129500Y-106375606D01*
X126149185Y-106308567D01*
X126165819Y-106287925D01*
X126725695Y-105728049D01*
X128353979Y-104099765D01*
X128370637Y-104070912D01*
X128400649Y-104018929D01*
X128424808Y-103928768D01*
X128424808Y-102509941D01*
X128400649Y-102419780D01*
X128353979Y-102338944D01*
X128287976Y-102272941D01*
X127340819Y-101325784D01*
X127307334Y-101264461D01*
X127304500Y-101238103D01*
X127304500Y-95167257D01*
X127324185Y-95100218D01*
X127376989Y-95054463D01*
X127446147Y-95044519D01*
X127509703Y-95073544D01*
X127538985Y-95110962D01*
X127591621Y-95214265D01*
X127704459Y-95369575D01*
X127704463Y-95369580D01*
X127840219Y-95505336D01*
X127840224Y-95505340D01*
X127975693Y-95603763D01*
X127995538Y-95618181D01*
X128166598Y-95705341D01*
X128166600Y-95705342D01*
X128257892Y-95735004D01*
X128349186Y-95764667D01*
X128538807Y-95794700D01*
X128538808Y-95794700D01*
X128730792Y-95794700D01*
X128730793Y-95794700D01*
X128920414Y-95764667D01*
X129103002Y-95705341D01*
X129274062Y-95618181D01*
X129429382Y-95505335D01*
X129565135Y-95369582D01*
X129589414Y-95336163D01*
X129644742Y-95293498D01*
X129714355Y-95287517D01*
X129776151Y-95320122D01*
X129791443Y-95339238D01*
X129791784Y-95338991D01*
X129850053Y-95419191D01*
X129850054Y-95419192D01*
X130610152Y-94659094D01*
X130633592Y-94746571D01*
G37*
%TD.AperFunction*%
%TA.AperFunction,Conductor*%
G36*
X117457554Y-124475762D02*
G01*
X117464047Y-124481807D01*
X119059181Y-126076941D01*
X119092666Y-126138264D01*
X119095500Y-126164622D01*
X119095500Y-126567837D01*
X119075815Y-126634876D01*
X119023011Y-126680631D01*
X118953853Y-126690575D01*
X118915205Y-126678322D01*
X118818217Y-126628904D01*
X118616129Y-126563242D01*
X118406246Y-126530000D01*
X118193754Y-126530000D01*
X117983872Y-126563242D01*
X117983869Y-126563242D01*
X117781782Y-126628904D01*
X117592446Y-126725376D01*
X117449599Y-126829160D01*
X117383792Y-126852639D01*
X117315738Y-126836813D01*
X117267044Y-126786707D01*
X117252715Y-126728865D01*
X117252366Y-124569506D01*
X117272040Y-124502465D01*
X117324836Y-124456702D01*
X117393993Y-124446747D01*
X117457554Y-124475762D01*
G37*
%TD.AperFunction*%
%TA.AperFunction,Conductor*%
G36*
X127764834Y-118765962D02*
G01*
X127820767Y-118807834D01*
X127845184Y-118873298D01*
X127845500Y-118882144D01*
X127845500Y-121799298D01*
X127825815Y-121866337D01*
X127809181Y-121886979D01*
X127394916Y-122301243D01*
X127333593Y-122334728D01*
X127296014Y-122337053D01*
X127266937Y-122334411D01*
X127251410Y-122333000D01*
X126318590Y-122333000D01*
X126300272Y-122334664D01*
X126251390Y-122339106D01*
X126251387Y-122339107D01*
X126175387Y-122362789D01*
X126105529Y-122363939D01*
X126046137Y-122327138D01*
X126016069Y-122264069D01*
X126014500Y-122244403D01*
X126014500Y-119043096D01*
X126034185Y-118976057D01*
X126086989Y-118930302D01*
X126156147Y-118920358D01*
X126175378Y-118924708D01*
X126251387Y-118948393D01*
X126318590Y-118954500D01*
X126318593Y-118954500D01*
X127251407Y-118954500D01*
X127251410Y-118954500D01*
X127318613Y-118948393D01*
X127473256Y-118900205D01*
X127611873Y-118816408D01*
X127620447Y-118807834D01*
X127633819Y-118794463D01*
X127695142Y-118760978D01*
X127764834Y-118765962D01*
G37*
%TD.AperFunction*%
%TA.AperFunction,Conductor*%
G36*
X132360996Y-113867857D02*
G01*
X132416929Y-113909729D01*
X132441346Y-113975193D01*
X132441662Y-113984039D01*
X132441662Y-114558301D01*
X132441662Y-114651643D01*
X132465463Y-114740467D01*
X132465821Y-114741804D01*
X132512490Y-114822638D01*
X132512492Y-114822641D01*
X132605343Y-114915492D01*
X132638828Y-114976815D01*
X132641662Y-115003173D01*
X132641662Y-116545636D01*
X132621977Y-116612675D01*
X132605343Y-116633317D01*
X132397034Y-116841625D01*
X132335711Y-116875110D01*
X132271035Y-116871875D01*
X132117786Y-116822081D01*
X131949963Y-116795500D01*
X131949958Y-116795500D01*
X131780042Y-116795500D01*
X131780037Y-116795500D01*
X131612215Y-116822080D01*
X131450611Y-116874589D01*
X131299218Y-116951729D01*
X131220789Y-117008711D01*
X131161753Y-117051604D01*
X131161751Y-117051606D01*
X131161750Y-117051606D01*
X131041606Y-117171750D01*
X131041606Y-117171751D01*
X131041604Y-117171753D01*
X131021316Y-117199677D01*
X130941729Y-117309218D01*
X130868573Y-117452795D01*
X130820598Y-117503591D01*
X130758088Y-117520500D01*
X130431912Y-117520500D01*
X130364873Y-117500815D01*
X130321427Y-117452795D01*
X130296826Y-117404513D01*
X130248271Y-117309219D01*
X130148396Y-117171753D01*
X130028247Y-117051604D01*
X129890781Y-116951729D01*
X129886803Y-116949702D01*
X129739388Y-116874589D01*
X129577784Y-116822080D01*
X129573056Y-116820946D01*
X129573580Y-116818761D01*
X129518850Y-116792788D01*
X129481943Y-116733461D01*
X129482970Y-116663599D01*
X129513738Y-116612600D01*
X132229981Y-113896358D01*
X132291304Y-113862873D01*
X132360996Y-113867857D01*
G37*
%TD.AperFunction*%
%TA.AperFunction,Conductor*%
G36*
X126164858Y-104334020D02*
G01*
X126199962Y-104345427D01*
X126253099Y-104353843D01*
X126316234Y-104383772D01*
X126353166Y-104443083D01*
X126352168Y-104512945D01*
X126321383Y-104563997D01*
X125157332Y-105728049D01*
X125091330Y-105794050D01*
X125091328Y-105794053D01*
X125044659Y-105874887D01*
X125020500Y-105965050D01*
X125020500Y-112139299D01*
X125000815Y-112206338D01*
X124984181Y-112226980D01*
X123816181Y-113394980D01*
X123754858Y-113428465D01*
X123685166Y-113423481D01*
X123629233Y-113381609D01*
X123604816Y-113316145D01*
X123604500Y-113307299D01*
X123604500Y-106849994D01*
X123624185Y-106782955D01*
X123640814Y-106762318D01*
X126038862Y-104364269D01*
X126100183Y-104330786D01*
X126164858Y-104334020D01*
G37*
%TD.AperFunction*%
%TA.AperFunction,Conductor*%
G36*
X134404756Y-85062274D02*
G01*
X134462619Y-85101436D01*
X134490123Y-85165665D01*
X134491000Y-85180366D01*
X134493152Y-98494575D01*
X134473478Y-98561618D01*
X134420682Y-98607381D01*
X134351525Y-98617336D01*
X134337064Y-98614371D01*
X134266759Y-98595533D01*
X134120757Y-98595533D01*
X134120755Y-98595533D01*
X134085592Y-98604955D01*
X134015742Y-98603292D01*
X133957880Y-98564128D01*
X133930377Y-98499900D01*
X133929500Y-98485180D01*
X133929500Y-85339600D01*
X133949185Y-85272561D01*
X133965819Y-85251919D01*
X134101914Y-85115824D01*
X134163237Y-85082339D01*
X134189595Y-85079505D01*
X134264392Y-85079505D01*
X134264395Y-85079505D01*
X134334908Y-85060611D01*
X134404756Y-85062274D01*
G37*
%TD.AperFunction*%
%TA.AperFunction,Conductor*%
G36*
X130633592Y-80146571D02*
G01*
X130692111Y-80247930D01*
X130774870Y-80330689D01*
X130876229Y-80389208D01*
X130963705Y-80412647D01*
X130203606Y-81172744D01*
X130279867Y-81228151D01*
X130485353Y-81332852D01*
X130704697Y-81404122D01*
X130932481Y-81440200D01*
X131163119Y-81440200D01*
X131390902Y-81404122D01*
X131610246Y-81332852D01*
X131815724Y-81228155D01*
X131815730Y-81228151D01*
X131891991Y-81172744D01*
X131891992Y-81172744D01*
X131131894Y-80412647D01*
X131219371Y-80389208D01*
X131320730Y-80330689D01*
X131403489Y-80247930D01*
X131462008Y-80146571D01*
X131485447Y-80059095D01*
X132284181Y-80857829D01*
X132317666Y-80919152D01*
X132320500Y-80945510D01*
X132320500Y-84146143D01*
X132300815Y-84213182D01*
X132284181Y-84233824D01*
X132091330Y-84426674D01*
X132091328Y-84426677D01*
X132044659Y-84507511D01*
X132020500Y-84597674D01*
X132020500Y-93227256D01*
X132000815Y-93294295D01*
X131948011Y-93340050D01*
X131878853Y-93349994D01*
X131823618Y-93327577D01*
X131815733Y-93321848D01*
X131610246Y-93217147D01*
X131390902Y-93145877D01*
X131163119Y-93109800D01*
X130932481Y-93109800D01*
X130704697Y-93145877D01*
X130485353Y-93217147D01*
X130279869Y-93321847D01*
X130203607Y-93377254D01*
X130963705Y-94137352D01*
X130876229Y-94160792D01*
X130774870Y-94219311D01*
X130692111Y-94302070D01*
X130633592Y-94403429D01*
X130610152Y-94490905D01*
X129850054Y-93730807D01*
X129791785Y-93811010D01*
X129790600Y-93810149D01*
X129743613Y-93852633D01*
X129674680Y-93864034D01*
X129610526Y-93836357D01*
X129589414Y-93813835D01*
X129565138Y-93780421D01*
X129429380Y-93644663D01*
X129429375Y-93644659D01*
X129274065Y-93531821D01*
X129274064Y-93531820D01*
X129274062Y-93531819D01*
X129188532Y-93488239D01*
X129102999Y-93444657D01*
X128920415Y-93385333D01*
X128825603Y-93370316D01*
X128730793Y-93355300D01*
X128538807Y-93355300D01*
X128475600Y-93365311D01*
X128349184Y-93385333D01*
X128166600Y-93444657D01*
X127995534Y-93531821D01*
X127840224Y-93644659D01*
X127840219Y-93644663D01*
X127704463Y-93780419D01*
X127704459Y-93780424D01*
X127591621Y-93935734D01*
X127538985Y-94039037D01*
X127491010Y-94089833D01*
X127423189Y-94106628D01*
X127357054Y-94084090D01*
X127313603Y-94029375D01*
X127304500Y-93982742D01*
X127304500Y-90600605D01*
X127324185Y-90533566D01*
X127340815Y-90512928D01*
X128277766Y-89575975D01*
X128277771Y-89575972D01*
X128287974Y-89565768D01*
X128287976Y-89565768D01*
X128353979Y-89499765D01*
X128400649Y-89418929D01*
X128424808Y-89328768D01*
X128424808Y-87909941D01*
X128400649Y-87819780D01*
X128353979Y-87738944D01*
X128287976Y-87672941D01*
X128283645Y-87668610D01*
X128283634Y-87668600D01*
X127365819Y-86750784D01*
X127332334Y-86689461D01*
X127329500Y-86663103D01*
X127329500Y-80616322D01*
X127349185Y-80549283D01*
X127401989Y-80503528D01*
X127471147Y-80493584D01*
X127534703Y-80522609D01*
X127563985Y-80560027D01*
X127591621Y-80614265D01*
X127704459Y-80769575D01*
X127704463Y-80769580D01*
X127840219Y-80905336D01*
X127840224Y-80905340D01*
X127895514Y-80945510D01*
X127995538Y-81018181D01*
X128166598Y-81105341D01*
X128166600Y-81105342D01*
X128257892Y-81135004D01*
X128349186Y-81164667D01*
X128538807Y-81194700D01*
X128538808Y-81194700D01*
X128730792Y-81194700D01*
X128730793Y-81194700D01*
X128920414Y-81164667D01*
X129103002Y-81105341D01*
X129274062Y-81018181D01*
X129429382Y-80905335D01*
X129565135Y-80769582D01*
X129589414Y-80736163D01*
X129644742Y-80693498D01*
X129714355Y-80687517D01*
X129776151Y-80720122D01*
X129791443Y-80739238D01*
X129791784Y-80738991D01*
X129850053Y-80819191D01*
X129850054Y-80819192D01*
X130610152Y-80059094D01*
X130633592Y-80146571D01*
G37*
%TD.AperFunction*%
%TA.AperFunction,Conductor*%
G36*
X133953061Y-65727262D02*
G01*
X134008994Y-65769134D01*
X134033411Y-65834598D01*
X134033727Y-65843444D01*
X134033727Y-68679258D01*
X134014042Y-68746297D01*
X133997408Y-68766939D01*
X133859823Y-68904524D01*
X133798500Y-68938009D01*
X133772142Y-68940843D01*
X133697342Y-68940843D01*
X133556314Y-68978631D01*
X133556311Y-68978632D01*
X133429875Y-69051629D01*
X133429870Y-69051633D01*
X133326633Y-69154870D01*
X133326629Y-69154875D01*
X133253632Y-69281311D01*
X133253631Y-69281314D01*
X133215843Y-69422342D01*
X133215843Y-69568344D01*
X133251057Y-69699763D01*
X133253631Y-69709371D01*
X133253632Y-69709374D01*
X133326629Y-69835810D01*
X133326631Y-69835812D01*
X133326632Y-69835814D01*
X133429872Y-69939054D01*
X133556314Y-70012055D01*
X133697342Y-70049843D01*
X133697344Y-70049843D01*
X133843342Y-70049843D01*
X133843344Y-70049843D01*
X133984372Y-70012055D01*
X134110814Y-69939054D01*
X134214054Y-69835814D01*
X134257131Y-69761201D01*
X134307697Y-69712987D01*
X134376304Y-69699763D01*
X134441169Y-69725731D01*
X134481698Y-69782645D01*
X134488518Y-69823182D01*
X134490788Y-83869547D01*
X134471114Y-83936590D01*
X134418318Y-83982353D01*
X134349161Y-83992308D01*
X134334700Y-83989343D01*
X134264395Y-83970505D01*
X134118393Y-83970505D01*
X133985593Y-84006088D01*
X133915743Y-84004425D01*
X133857881Y-83965262D01*
X133830377Y-83901033D01*
X133829500Y-83886313D01*
X133829500Y-75428331D01*
X133829500Y-75428330D01*
X133805341Y-75338169D01*
X133758671Y-75257333D01*
X133692668Y-75191330D01*
X132225342Y-73724004D01*
X130440819Y-71939480D01*
X130407334Y-71878157D01*
X130404500Y-71851799D01*
X130404500Y-70297672D01*
X130424185Y-70230633D01*
X130466498Y-70190286D01*
X130590471Y-70118711D01*
X130693711Y-70015471D01*
X130766712Y-69889029D01*
X130804500Y-69748001D01*
X130804500Y-69601999D01*
X130766712Y-69460971D01*
X130693711Y-69334529D01*
X130590471Y-69231289D01*
X130575761Y-69222796D01*
X130527546Y-69172230D01*
X130514322Y-69103623D01*
X130540290Y-69038758D01*
X130550071Y-69027737D01*
X133822048Y-65755761D01*
X133883369Y-65722278D01*
X133953061Y-65727262D01*
G37*
%TD.AperFunction*%
%TA.AperFunction,Conductor*%
G36*
X130311900Y-65540926D02*
G01*
X130370419Y-65642285D01*
X130453178Y-65725044D01*
X130554537Y-65783563D01*
X130642013Y-65807002D01*
X129881914Y-66567099D01*
X129958175Y-66622506D01*
X130163661Y-66727207D01*
X130383005Y-66798477D01*
X130610789Y-66834555D01*
X130841424Y-66834555D01*
X130860709Y-66831500D01*
X130930003Y-66840453D01*
X130983456Y-66885448D01*
X131004097Y-66952199D01*
X130985374Y-67019513D01*
X130967791Y-67041654D01*
X129014891Y-68994555D01*
X128966330Y-69043116D01*
X128966328Y-69043119D01*
X128919659Y-69123953D01*
X128919659Y-69123954D01*
X128895500Y-69214115D01*
X128895500Y-72334701D01*
X128895500Y-72428043D01*
X128919659Y-72518204D01*
X128966329Y-72599040D01*
X130631994Y-74264705D01*
X132284181Y-75916891D01*
X132317666Y-75978214D01*
X132320500Y-76004572D01*
X132320500Y-79004489D01*
X132300815Y-79071528D01*
X132284181Y-79092170D01*
X131485447Y-79890904D01*
X131462008Y-79803429D01*
X131403489Y-79702070D01*
X131320730Y-79619311D01*
X131219371Y-79560792D01*
X131131893Y-79537352D01*
X131891992Y-78777254D01*
X131891991Y-78777253D01*
X131815735Y-78721850D01*
X131610246Y-78617147D01*
X131390902Y-78545877D01*
X131163119Y-78509800D01*
X130932481Y-78509800D01*
X130704697Y-78545877D01*
X130485353Y-78617147D01*
X130279869Y-78721847D01*
X130203607Y-78777254D01*
X130963706Y-79537352D01*
X130876229Y-79560792D01*
X130774870Y-79619311D01*
X130692111Y-79702070D01*
X130633592Y-79803429D01*
X130610152Y-79890905D01*
X129850054Y-79130807D01*
X129791785Y-79211010D01*
X129790600Y-79210149D01*
X129743613Y-79252633D01*
X129674680Y-79264034D01*
X129610526Y-79236357D01*
X129589414Y-79213835D01*
X129565138Y-79180421D01*
X129429380Y-79044663D01*
X129429375Y-79044659D01*
X129274065Y-78931821D01*
X129274064Y-78931820D01*
X129274062Y-78931819D01*
X129188532Y-78888239D01*
X129102999Y-78844657D01*
X128920415Y-78785333D01*
X128825603Y-78770316D01*
X128730793Y-78755300D01*
X128538807Y-78755300D01*
X128475600Y-78765311D01*
X128349184Y-78785333D01*
X128166600Y-78844657D01*
X127995534Y-78931821D01*
X127840224Y-79044659D01*
X127840219Y-79044663D01*
X127704463Y-79180419D01*
X127704459Y-79180424D01*
X127591619Y-79335736D01*
X127563984Y-79389973D01*
X127516010Y-79440768D01*
X127448189Y-79457563D01*
X127382054Y-79435025D01*
X127338603Y-79380310D01*
X127329500Y-79333677D01*
X127329500Y-75950605D01*
X127349185Y-75883566D01*
X127365815Y-75862928D01*
X128277766Y-74950976D01*
X128277771Y-74950973D01*
X128287974Y-74940769D01*
X128287976Y-74940769D01*
X128353979Y-74874766D01*
X128400649Y-74793930D01*
X128424808Y-74703769D01*
X128424808Y-73182951D01*
X128400649Y-73092790D01*
X128353979Y-73011954D01*
X128287976Y-72945951D01*
X128011127Y-72669102D01*
X127977642Y-72607779D01*
X127974808Y-72581421D01*
X127974808Y-68373201D01*
X127994493Y-68306162D01*
X128011127Y-68285520D01*
X128103979Y-68192668D01*
X128150649Y-68111832D01*
X128174808Y-68021671D01*
X128174808Y-66713055D01*
X128194493Y-66646016D01*
X128247297Y-66600261D01*
X128298808Y-66589055D01*
X128409100Y-66589055D01*
X128409101Y-66589055D01*
X128598722Y-66559022D01*
X128781310Y-66499696D01*
X128952370Y-66412536D01*
X129107690Y-66299690D01*
X129243443Y-66163937D01*
X129267722Y-66130518D01*
X129323050Y-66087853D01*
X129392663Y-66081872D01*
X129454459Y-66114477D01*
X129469751Y-66133593D01*
X129470092Y-66133346D01*
X129528361Y-66213546D01*
X129528362Y-66213547D01*
X130288460Y-65453449D01*
X130311900Y-65540926D01*
G37*
%TD.AperFunction*%
%TA.AperFunction,Conductor*%
G36*
X119754944Y-72049185D02*
G01*
X119775586Y-72065819D01*
X119828478Y-72118711D01*
X119954920Y-72191712D01*
X120095948Y-72229500D01*
X120095950Y-72229500D01*
X120103377Y-72229500D01*
X120170416Y-72249185D01*
X120216171Y-72301989D01*
X120226115Y-72371147D01*
X120197090Y-72434703D01*
X120191058Y-72441181D01*
X117456050Y-75176188D01*
X117394727Y-75209673D01*
X117325035Y-75204689D01*
X117269102Y-75162817D01*
X117244685Y-75097353D01*
X117244369Y-75088542D01*
X117244013Y-72889081D01*
X117263687Y-72822040D01*
X117316483Y-72776277D01*
X117385640Y-72766322D01*
X117430013Y-72781676D01*
X117488991Y-72815727D01*
X117535250Y-72842434D01*
X117676278Y-72880222D01*
X117676280Y-72880222D01*
X117822278Y-72880222D01*
X117822280Y-72880222D01*
X117963308Y-72842434D01*
X118089750Y-72769433D01*
X118192990Y-72666193D01*
X118265991Y-72539751D01*
X118303779Y-72398723D01*
X118303779Y-72378497D01*
X118323464Y-72311458D01*
X118376268Y-72265703D01*
X118427779Y-72254497D01*
X118962358Y-72254497D01*
X118962361Y-72254497D01*
X119052521Y-72230338D01*
X119119424Y-72191712D01*
X119133357Y-72183668D01*
X119199360Y-72117665D01*
X119199360Y-72117664D01*
X119216790Y-72100234D01*
X119216795Y-72100227D01*
X119251208Y-72065816D01*
X119312532Y-72032333D01*
X119338887Y-72029500D01*
X119687905Y-72029500D01*
X119754944Y-72049185D01*
G37*
%TD.AperFunction*%
%TA.AperFunction,Conductor*%
G36*
X121935896Y-40749185D02*
G01*
X121956538Y-40765819D01*
X125082823Y-43892103D01*
X125109702Y-43932329D01*
X125112477Y-43939028D01*
X125185476Y-44065467D01*
X125185478Y-44065470D01*
X125185479Y-44065471D01*
X125288719Y-44168711D01*
X125415161Y-44241712D01*
X125556189Y-44279500D01*
X125556191Y-44279500D01*
X125702188Y-44279500D01*
X125702191Y-44279500D01*
X125809719Y-44250688D01*
X125879564Y-44252351D01*
X125937426Y-44291513D01*
X125964931Y-44355741D01*
X125965808Y-44370463D01*
X125965808Y-51710010D01*
X125946123Y-51777049D01*
X125893319Y-51822804D01*
X125824161Y-51832748D01*
X125779811Y-51817399D01*
X125764031Y-51808289D01*
X125764030Y-51808288D01*
X125764029Y-51808288D01*
X125623001Y-51770500D01*
X125476999Y-51770500D01*
X125335971Y-51808288D01*
X125335968Y-51808289D01*
X125209532Y-51881286D01*
X125209527Y-51881290D01*
X125106290Y-51984527D01*
X125106286Y-51984532D01*
X125033289Y-52110968D01*
X125009684Y-52199062D01*
X124977590Y-52254648D01*
X122970932Y-54261307D01*
X122886311Y-54345927D01*
X122886306Y-54345933D01*
X122826474Y-54449565D01*
X122826472Y-54449570D01*
X122819928Y-54473995D01*
X122795499Y-54565164D01*
X122795499Y-54694825D01*
X122795500Y-54694838D01*
X122795500Y-57010377D01*
X122775815Y-57077416D01*
X122759181Y-57098058D01*
X121886311Y-57970927D01*
X121886307Y-57970933D01*
X121826472Y-58074568D01*
X121826473Y-58074568D01*
X121826473Y-58074569D01*
X121826473Y-58074570D01*
X121803284Y-58161113D01*
X121795499Y-58190165D01*
X121795499Y-58319825D01*
X121795500Y-58319838D01*
X121795500Y-70785377D01*
X121775815Y-70852416D01*
X121759181Y-70873058D01*
X121643506Y-70988733D01*
X121582183Y-71022218D01*
X121512491Y-71017234D01*
X121456558Y-70975362D01*
X121436051Y-70933148D01*
X121416712Y-70860971D01*
X121343711Y-70734529D01*
X121240471Y-70631289D01*
X121240470Y-70631288D01*
X121240467Y-70631286D01*
X121114031Y-70558289D01*
X121114030Y-70558288D01*
X121114029Y-70558288D01*
X120973001Y-70520500D01*
X120826999Y-70520500D01*
X120685971Y-70558288D01*
X120685968Y-70558289D01*
X120559532Y-70631286D01*
X120559527Y-70631290D01*
X120506637Y-70684181D01*
X120445314Y-70717666D01*
X120418956Y-70720500D01*
X119229284Y-70720500D01*
X119229268Y-70720499D01*
X119221672Y-70720499D01*
X119128329Y-70720499D01*
X119075959Y-70734532D01*
X119038169Y-70744658D01*
X119038162Y-70744661D01*
X118957338Y-70791324D01*
X118957330Y-70791330D01*
X118639483Y-71109178D01*
X118578160Y-71142663D01*
X118551802Y-71145497D01*
X118256044Y-71145497D01*
X118189005Y-71125812D01*
X118168363Y-71109178D01*
X118115472Y-71056287D01*
X118115467Y-71056283D01*
X117989031Y-70983286D01*
X117989030Y-70983285D01*
X117989029Y-70983285D01*
X117848001Y-70945497D01*
X117701999Y-70945497D01*
X117560971Y-70983285D01*
X117560970Y-70983285D01*
X117429699Y-71059074D01*
X117361799Y-71075546D01*
X117295772Y-71052693D01*
X117252582Y-70997771D01*
X117243700Y-70951706D01*
X117243695Y-70918938D01*
X117242786Y-65296852D01*
X117262460Y-65229812D01*
X117315256Y-65184049D01*
X117384413Y-65174094D01*
X117398871Y-65177058D01*
X117520405Y-65209623D01*
X117520407Y-65209623D01*
X117666405Y-65209623D01*
X117666407Y-65209623D01*
X117807435Y-65171835D01*
X117933877Y-65098834D01*
X118037117Y-64995594D01*
X118110118Y-64869152D01*
X118147906Y-64728124D01*
X118147906Y-64653324D01*
X118167591Y-64586285D01*
X118184225Y-64565643D01*
X118391929Y-64357939D01*
X118658671Y-64091197D01*
X118705341Y-64010361D01*
X118729500Y-63920200D01*
X118729500Y-58481044D01*
X118749185Y-58414005D01*
X118765819Y-58393363D01*
X118769001Y-58390181D01*
X118818711Y-58340471D01*
X118889113Y-58218529D01*
X118939679Y-58170315D01*
X119008286Y-58157091D01*
X119073151Y-58183059D01*
X119113680Y-58239973D01*
X119120500Y-58280530D01*
X119120500Y-64258303D01*
X119100815Y-64325342D01*
X119069385Y-64358621D01*
X118958732Y-64439014D01*
X118958727Y-64439018D01*
X118822971Y-64574774D01*
X118822967Y-64574779D01*
X118710129Y-64730089D01*
X118622965Y-64901155D01*
X118563641Y-65083739D01*
X118533608Y-65273362D01*
X118533608Y-65465347D01*
X118563641Y-65654970D01*
X118622965Y-65837554D01*
X118710129Y-66008620D01*
X118822967Y-66163930D01*
X118822971Y-66163935D01*
X118958727Y-66299691D01*
X118958732Y-66299695D01*
X119094201Y-66398118D01*
X119114046Y-66412536D01*
X119285106Y-66499696D01*
X119285108Y-66499697D01*
X119376400Y-66529359D01*
X119467694Y-66559022D01*
X119657315Y-66589055D01*
X119657316Y-66589055D01*
X119849300Y-66589055D01*
X119849301Y-66589055D01*
X120038922Y-66559022D01*
X120221510Y-66499696D01*
X120392570Y-66412536D01*
X120547890Y-66299690D01*
X120683643Y-66163937D01*
X120796489Y-66008617D01*
X120883649Y-65837557D01*
X120942975Y-65654969D01*
X120973008Y-65465348D01*
X120973008Y-65273362D01*
X120942975Y-65083741D01*
X120883649Y-64901153D01*
X120796489Y-64730093D01*
X120782071Y-64710248D01*
X120683648Y-64574779D01*
X120683644Y-64574774D01*
X120547888Y-64439018D01*
X120547883Y-64439014D01*
X120392573Y-64326176D01*
X120392572Y-64326175D01*
X120392570Y-64326174D01*
X120259367Y-64258303D01*
X120221507Y-64239012D01*
X120038923Y-64179688D01*
X119934102Y-64163086D01*
X119870967Y-64133157D01*
X119834036Y-64073845D01*
X119829500Y-64040613D01*
X119829500Y-58669878D01*
X119849185Y-58602839D01*
X119901989Y-58557084D01*
X119971147Y-58547140D01*
X119985582Y-58550101D01*
X120001999Y-58554500D01*
X120002001Y-58554500D01*
X120147999Y-58554500D01*
X120148001Y-58554500D01*
X120289029Y-58516712D01*
X120415471Y-58443711D01*
X120518711Y-58340471D01*
X120591712Y-58214029D01*
X120629500Y-58073001D01*
X120629500Y-57926999D01*
X120591712Y-57785971D01*
X120529534Y-57678276D01*
X120513062Y-57610377D01*
X120535915Y-57544350D01*
X120549235Y-57528602D01*
X121662020Y-56415819D01*
X121723343Y-56382334D01*
X121749701Y-56379500D01*
X121824499Y-56379500D01*
X121824501Y-56379500D01*
X121965529Y-56341712D01*
X122091971Y-56268711D01*
X122195211Y-56165471D01*
X122268212Y-56039029D01*
X122306000Y-55898001D01*
X122306000Y-55751999D01*
X122268212Y-55610971D01*
X122195211Y-55484529D01*
X122091971Y-55381289D01*
X122091970Y-55381288D01*
X122091967Y-55381286D01*
X121965531Y-55308289D01*
X121965530Y-55308288D01*
X121965529Y-55308288D01*
X121824501Y-55270500D01*
X121678499Y-55270500D01*
X121537471Y-55308288D01*
X121537468Y-55308289D01*
X121411032Y-55381286D01*
X121411027Y-55381290D01*
X121307790Y-55484527D01*
X121307786Y-55484532D01*
X121234789Y-55610968D01*
X121234788Y-55610971D01*
X121197000Y-55751999D01*
X121197000Y-55826799D01*
X121177315Y-55893838D01*
X121160681Y-55914480D01*
X120041181Y-57033980D01*
X119979858Y-57067465D01*
X119910166Y-57062481D01*
X119854233Y-57020609D01*
X119829816Y-56955145D01*
X119829500Y-56946299D01*
X119829500Y-51253330D01*
X119819356Y-51215472D01*
X119805341Y-51163168D01*
X119758671Y-51082332D01*
X119692668Y-51016329D01*
X118765819Y-50089480D01*
X118732334Y-50028157D01*
X118729500Y-50001799D01*
X118729500Y-49681044D01*
X118749185Y-49614005D01*
X118765819Y-49593363D01*
X118818711Y-49540471D01*
X118891712Y-49414029D01*
X118929500Y-49273001D01*
X118929500Y-49126999D01*
X118891712Y-48985971D01*
X118818711Y-48859529D01*
X118715471Y-48756289D01*
X118715470Y-48756288D01*
X118715467Y-48756286D01*
X118589031Y-48683289D01*
X118589030Y-48683288D01*
X118589029Y-48683288D01*
X118448001Y-48645500D01*
X118301999Y-48645500D01*
X118160971Y-48683288D01*
X118160968Y-48683289D01*
X118034532Y-48756286D01*
X118034527Y-48756290D01*
X117931290Y-48859527D01*
X117931286Y-48859532D01*
X117858289Y-48985968D01*
X117858288Y-48985971D01*
X117820500Y-49126999D01*
X117820500Y-49273001D01*
X117828627Y-49303329D01*
X117858288Y-49414028D01*
X117858289Y-49414031D01*
X117931286Y-49540467D01*
X117931290Y-49540472D01*
X117984181Y-49593363D01*
X118017666Y-49654686D01*
X118020500Y-49681044D01*
X118020500Y-50153329D01*
X118020500Y-50246671D01*
X118044659Y-50336832D01*
X118066224Y-50374185D01*
X118091328Y-50417666D01*
X118091330Y-50417669D01*
X119084181Y-51410520D01*
X119117666Y-51471843D01*
X119120500Y-51498201D01*
X119120500Y-57719469D01*
X119100815Y-57786508D01*
X119048011Y-57832263D01*
X118978853Y-57842207D01*
X118915297Y-57813182D01*
X118889113Y-57781469D01*
X118818713Y-57659532D01*
X118818709Y-57659527D01*
X118715472Y-57556290D01*
X118715467Y-57556286D01*
X118589031Y-57483289D01*
X118589030Y-57483288D01*
X118589029Y-57483288D01*
X118448001Y-57445500D01*
X118301999Y-57445500D01*
X118160971Y-57483288D01*
X118160968Y-57483289D01*
X118034532Y-57556286D01*
X118034527Y-57556290D01*
X117931290Y-57659527D01*
X117931286Y-57659532D01*
X117858289Y-57785968D01*
X117858288Y-57785971D01*
X117820500Y-57926999D01*
X117820500Y-58073001D01*
X117851894Y-58190164D01*
X117858288Y-58214028D01*
X117858289Y-58214031D01*
X117931286Y-58340467D01*
X117931290Y-58340472D01*
X117984181Y-58393363D01*
X118017666Y-58454686D01*
X118020500Y-58481044D01*
X118020500Y-63675328D01*
X118000815Y-63742367D01*
X117984181Y-63763009D01*
X117682886Y-64064304D01*
X117621563Y-64097789D01*
X117595205Y-64100623D01*
X117520405Y-64100623D01*
X117398672Y-64133241D01*
X117328822Y-64131578D01*
X117270960Y-64092415D01*
X117243456Y-64028187D01*
X117242579Y-64013486D01*
X117242578Y-64010361D01*
X117241454Y-57047511D01*
X117241454Y-46604007D01*
X118817300Y-46604007D01*
X118817300Y-46795992D01*
X118847333Y-46985615D01*
X118906657Y-47168199D01*
X118993821Y-47339265D01*
X119106659Y-47494575D01*
X119106663Y-47494580D01*
X119242419Y-47630336D01*
X119242424Y-47630340D01*
X119377893Y-47728763D01*
X119397738Y-47743181D01*
X119568798Y-47830341D01*
X119568800Y-47830342D01*
X119660092Y-47860004D01*
X119751386Y-47889667D01*
X119941007Y-47919700D01*
X119941008Y-47919700D01*
X120132992Y-47919700D01*
X120132993Y-47919700D01*
X120322614Y-47889667D01*
X120505202Y-47830341D01*
X120676262Y-47743181D01*
X120831582Y-47630335D01*
X120967335Y-47494582D01*
X121080181Y-47339262D01*
X121167341Y-47168202D01*
X121226667Y-46985614D01*
X121256700Y-46795993D01*
X121256700Y-46604007D01*
X121226667Y-46414386D01*
X121167341Y-46231798D01*
X121080181Y-46060738D01*
X120986697Y-45932067D01*
X120967340Y-45905424D01*
X120967336Y-45905419D01*
X120831580Y-45769663D01*
X120831575Y-45769659D01*
X120676265Y-45656821D01*
X120676264Y-45656820D01*
X120676262Y-45656819D01*
X120590732Y-45613239D01*
X120505199Y-45569657D01*
X120322615Y-45510333D01*
X120227803Y-45495316D01*
X120132993Y-45480300D01*
X119941007Y-45480300D01*
X119877800Y-45490311D01*
X119751384Y-45510333D01*
X119568800Y-45569657D01*
X119397734Y-45656821D01*
X119242424Y-45769659D01*
X119242419Y-45769663D01*
X119106663Y-45905419D01*
X119106659Y-45905424D01*
X118993821Y-46060734D01*
X118906657Y-46231800D01*
X118847333Y-46414384D01*
X118817300Y-46604007D01*
X117241454Y-46604007D01*
X117241454Y-42273379D01*
X117261139Y-42206340D01*
X117277773Y-42185698D01*
X118697652Y-40765819D01*
X118758975Y-40732334D01*
X118785333Y-40729500D01*
X121868857Y-40729500D01*
X121935896Y-40749185D01*
G37*
%TD.AperFunction*%
%TA.AperFunction,Conductor*%
G36*
X127780011Y-56854804D02*
G01*
X127806196Y-56886519D01*
X127817826Y-56906664D01*
X127817830Y-56906669D01*
X130691957Y-59780796D01*
X130711664Y-59806479D01*
X130731286Y-59840467D01*
X130731288Y-59840470D01*
X130731289Y-59840471D01*
X130834529Y-59943711D01*
X130834530Y-59943712D01*
X130834532Y-59943713D01*
X130880122Y-59970034D01*
X130960971Y-60016712D01*
X131101999Y-60054500D01*
X131102001Y-60054500D01*
X131247999Y-60054500D01*
X131248001Y-60054500D01*
X131389029Y-60016712D01*
X131515471Y-59943711D01*
X131618711Y-59840471D01*
X131670941Y-59750004D01*
X131721506Y-59701791D01*
X131790113Y-59688567D01*
X131854978Y-59714535D01*
X131895507Y-59771448D01*
X131898101Y-59779911D01*
X131919657Y-59860356D01*
X131919659Y-59860361D01*
X131966328Y-59941195D01*
X131966330Y-59941198D01*
X133197029Y-61171897D01*
X133230514Y-61233220D01*
X133233348Y-61259578D01*
X133233348Y-62520242D01*
X133233339Y-62520380D01*
X133233348Y-62577822D01*
X133233348Y-62629753D01*
X133233356Y-62629878D01*
X133233694Y-64724370D01*
X133214020Y-64791413D01*
X133197375Y-64812071D01*
X132398407Y-65611038D01*
X132337084Y-65644523D01*
X132267392Y-65639539D01*
X132211459Y-65597667D01*
X132187042Y-65532203D01*
X132188253Y-65503956D01*
X132191308Y-65484670D01*
X132191308Y-65254035D01*
X132155230Y-65026252D01*
X132083960Y-64806908D01*
X131979259Y-64601422D01*
X131923852Y-64525162D01*
X131923852Y-64525161D01*
X131163755Y-65285260D01*
X131140316Y-65197784D01*
X131081797Y-65096425D01*
X130999038Y-65013666D01*
X130897679Y-64955147D01*
X130810201Y-64931707D01*
X131570300Y-64171609D01*
X131570299Y-64171608D01*
X131494043Y-64116205D01*
X131288554Y-64011502D01*
X131069210Y-63940232D01*
X130841427Y-63904155D01*
X130610789Y-63904155D01*
X130383005Y-63940232D01*
X130163661Y-64011502D01*
X129958177Y-64116202D01*
X129881915Y-64171609D01*
X130642014Y-64931707D01*
X130554537Y-64955147D01*
X130453178Y-65013666D01*
X130370419Y-65096425D01*
X130311900Y-65197784D01*
X130288460Y-65285260D01*
X129528362Y-64525162D01*
X129470093Y-64605365D01*
X129468908Y-64604504D01*
X129421921Y-64646988D01*
X129352988Y-64658389D01*
X129288834Y-64630712D01*
X129267722Y-64608190D01*
X129243446Y-64574776D01*
X129107688Y-64439018D01*
X129107683Y-64439014D01*
X128952373Y-64326176D01*
X128952372Y-64326175D01*
X128952370Y-64326174D01*
X128819167Y-64258303D01*
X128781307Y-64239012D01*
X128598723Y-64179688D01*
X128493901Y-64163086D01*
X128409101Y-64149655D01*
X128217115Y-64149655D01*
X128153908Y-64159666D01*
X128027492Y-64179688D01*
X127844908Y-64239012D01*
X127673842Y-64326176D01*
X127571693Y-64400391D01*
X127505886Y-64423871D01*
X127437833Y-64408045D01*
X127389138Y-64357939D01*
X127374808Y-64300073D01*
X127374808Y-60739613D01*
X127394493Y-60672574D01*
X127411127Y-60651932D01*
X127681290Y-60381769D01*
X127953979Y-60109080D01*
X127971906Y-60078029D01*
X128000649Y-60028244D01*
X128024808Y-59938083D01*
X128024808Y-58850627D01*
X128000649Y-58760466D01*
X127953979Y-58679630D01*
X127887976Y-58613627D01*
X127611127Y-58336778D01*
X127577642Y-58275455D01*
X127574808Y-58249097D01*
X127574808Y-56948517D01*
X127594493Y-56881478D01*
X127647297Y-56835723D01*
X127716455Y-56825779D01*
X127780011Y-56854804D01*
G37*
%TD.AperFunction*%
%TA.AperFunction,Conductor*%
G36*
X125913735Y-52838982D02*
G01*
X125956926Y-52893903D01*
X125965808Y-52939989D01*
X125965808Y-58279697D01*
X125946123Y-58346736D01*
X125898104Y-58390181D01*
X125865220Y-58406936D01*
X125814602Y-58443713D01*
X125718202Y-58513752D01*
X125718200Y-58513754D01*
X125718199Y-58513754D01*
X125589707Y-58642246D01*
X125589707Y-58642247D01*
X125589705Y-58642249D01*
X125543833Y-58705385D01*
X125482891Y-58789264D01*
X125400391Y-58951180D01*
X125400389Y-58951183D01*
X125344236Y-59124004D01*
X125344236Y-59124005D01*
X125331280Y-59205807D01*
X125301350Y-59268941D01*
X125242039Y-59305872D01*
X125172176Y-59304874D01*
X125113944Y-59266264D01*
X125085830Y-59202300D01*
X125084807Y-59186408D01*
X125084807Y-58469291D01*
X125084807Y-58469289D01*
X125070042Y-58395054D01*
X125033571Y-58340472D01*
X125013792Y-58310870D01*
X124957115Y-58273000D01*
X124929609Y-58254621D01*
X124929607Y-58254620D01*
X124929604Y-58254619D01*
X124855379Y-58239855D01*
X123202265Y-58239855D01*
X123135226Y-58220170D01*
X123089471Y-58167366D01*
X123079527Y-58098208D01*
X123108552Y-58034652D01*
X123114563Y-58028195D01*
X123518860Y-57623898D01*
X123518865Y-57623895D01*
X123529068Y-57613691D01*
X123529070Y-57613691D01*
X123613691Y-57529070D01*
X123661940Y-57445500D01*
X123673528Y-57425430D01*
X123704501Y-57309836D01*
X123704501Y-57190164D01*
X123704501Y-57182569D01*
X123704500Y-57182551D01*
X123704500Y-54864621D01*
X123724185Y-54797582D01*
X123740814Y-54776945D01*
X125620352Y-52897406D01*
X125675935Y-52865315D01*
X125764029Y-52841712D01*
X125779808Y-52832601D01*
X125847708Y-52816129D01*
X125913735Y-52838982D01*
G37*
%TD.AperFunction*%
%TA.AperFunction,Conductor*%
G36*
X134426640Y-39289185D02*
G01*
X134472395Y-39341989D01*
X134483601Y-39393480D01*
X134486764Y-58970357D01*
X134467090Y-59037400D01*
X134414294Y-59083163D01*
X134345137Y-59093118D01*
X134281576Y-59064103D01*
X134275083Y-59058058D01*
X133465819Y-58248794D01*
X133432334Y-58187471D01*
X133429500Y-58161113D01*
X133429500Y-58127001D01*
X133429500Y-58126999D01*
X133391712Y-57985971D01*
X133355211Y-57922750D01*
X133318713Y-57859532D01*
X133318709Y-57859527D01*
X133215472Y-57756290D01*
X133215467Y-57756286D01*
X133089031Y-57683289D01*
X133089030Y-57683288D01*
X133089029Y-57683288D01*
X132963308Y-57649601D01*
X132903648Y-57613237D01*
X132873119Y-57550390D01*
X132881414Y-57481015D01*
X132907717Y-57442150D01*
X133033671Y-57316197D01*
X133037343Y-57309836D01*
X133080341Y-57235361D01*
X133104500Y-57145200D01*
X133104500Y-51956044D01*
X133124185Y-51889005D01*
X133140819Y-51868363D01*
X133193711Y-51815471D01*
X133266712Y-51689029D01*
X133304500Y-51548001D01*
X133304500Y-51401999D01*
X133266712Y-51260971D01*
X133210245Y-51163167D01*
X133193713Y-51134532D01*
X133193709Y-51134527D01*
X133090472Y-51031290D01*
X133090467Y-51031286D01*
X132964031Y-50958289D01*
X132964030Y-50958288D01*
X132964029Y-50958288D01*
X132823001Y-50920500D01*
X132676999Y-50920500D01*
X132535971Y-50958288D01*
X132535968Y-50958289D01*
X132409532Y-51031286D01*
X132409527Y-51031290D01*
X132316181Y-51124637D01*
X132254858Y-51158122D01*
X132185166Y-51153138D01*
X132129233Y-51111266D01*
X132104816Y-51045802D01*
X132104500Y-51036956D01*
X132104500Y-49548201D01*
X132124185Y-49481162D01*
X132140819Y-49460520D01*
X132845053Y-48756286D01*
X133633671Y-47967668D01*
X133678700Y-47889674D01*
X133678704Y-47889668D01*
X133680339Y-47886835D01*
X133680341Y-47886832D01*
X133704500Y-47796671D01*
X133704500Y-44574139D01*
X133680341Y-44483978D01*
X133633671Y-44403142D01*
X133567668Y-44337139D01*
X133320009Y-44089480D01*
X133286524Y-44028157D01*
X133283690Y-44001799D01*
X133283690Y-43927001D01*
X133283690Y-43926999D01*
X133245902Y-43785971D01*
X133172901Y-43659529D01*
X133069661Y-43556289D01*
X133069660Y-43556288D01*
X133069657Y-43556286D01*
X132943221Y-43483289D01*
X132943220Y-43483288D01*
X132943219Y-43483288D01*
X132802191Y-43445500D01*
X132656189Y-43445500D01*
X132515161Y-43483288D01*
X132515158Y-43483289D01*
X132388722Y-43556286D01*
X132388717Y-43556290D01*
X132285480Y-43659527D01*
X132285476Y-43659532D01*
X132212479Y-43785968D01*
X132212478Y-43785971D01*
X132174690Y-43926999D01*
X132174690Y-44073001D01*
X132179106Y-44089480D01*
X132212478Y-44214028D01*
X132212479Y-44214031D01*
X132285476Y-44340467D01*
X132285478Y-44340470D01*
X132285479Y-44340471D01*
X132388719Y-44443711D01*
X132515161Y-44516712D01*
X132656189Y-44554500D01*
X132730989Y-44554500D01*
X132798028Y-44574185D01*
X132818670Y-44590819D01*
X132959181Y-44731330D01*
X132992666Y-44792653D01*
X132995500Y-44819011D01*
X132995500Y-47551799D01*
X132975815Y-47618838D01*
X132959181Y-47639480D01*
X131466330Y-49132330D01*
X131466328Y-49132333D01*
X131419659Y-49213167D01*
X131395500Y-49303330D01*
X131395500Y-49373286D01*
X131375815Y-49440325D01*
X131323011Y-49486080D01*
X131253853Y-49496024D01*
X131222103Y-49485036D01*
X131221539Y-49486399D01*
X131214031Y-49483289D01*
X131214029Y-49483288D01*
X131073001Y-49445500D01*
X130926999Y-49445500D01*
X130785971Y-49483288D01*
X130785968Y-49483289D01*
X130659532Y-49556286D01*
X130659527Y-49556290D01*
X130606637Y-49609181D01*
X130545314Y-49642666D01*
X130518956Y-49645500D01*
X130199829Y-49645500D01*
X130139721Y-49661606D01*
X130109667Y-49669659D01*
X130049321Y-49704500D01*
X130028833Y-49716328D01*
X130028830Y-49716330D01*
X129460980Y-50284181D01*
X129399657Y-50317666D01*
X129373299Y-50320500D01*
X129298499Y-50320500D01*
X129157471Y-50358288D01*
X129157468Y-50358289D01*
X129031032Y-50431286D01*
X129031027Y-50431290D01*
X128927790Y-50534527D01*
X128927786Y-50534532D01*
X128854789Y-50660968D01*
X128854788Y-50660971D01*
X128817000Y-50801999D01*
X128817000Y-50948001D01*
X128844813Y-51051799D01*
X128854788Y-51089028D01*
X128854789Y-51089031D01*
X128927786Y-51215467D01*
X128927788Y-51215470D01*
X128927789Y-51215471D01*
X129031029Y-51318711D01*
X129157471Y-51391712D01*
X129298499Y-51429500D01*
X129298501Y-51429500D01*
X129444499Y-51429500D01*
X129444501Y-51429500D01*
X129585529Y-51391712D01*
X129711971Y-51318711D01*
X129815211Y-51215471D01*
X129888212Y-51089029D01*
X129926000Y-50948001D01*
X129926000Y-50873201D01*
X129945685Y-50806162D01*
X129962319Y-50785520D01*
X130357020Y-50390819D01*
X130418343Y-50357334D01*
X130444701Y-50354500D01*
X130518956Y-50354500D01*
X130585995Y-50374185D01*
X130606637Y-50390819D01*
X130659529Y-50443711D01*
X130785971Y-50516712D01*
X130926999Y-50554500D01*
X130927001Y-50554500D01*
X131072999Y-50554500D01*
X131073001Y-50554500D01*
X131214029Y-50516712D01*
X131214037Y-50516707D01*
X131221539Y-50513601D01*
X131222596Y-50516154D01*
X131277369Y-50502852D01*
X131343401Y-50525687D01*
X131386606Y-50580598D01*
X131395500Y-50626713D01*
X131395500Y-51051799D01*
X131375815Y-51118838D01*
X131359181Y-51139480D01*
X128839480Y-53659181D01*
X128778157Y-53692666D01*
X128751799Y-53695500D01*
X128676999Y-53695500D01*
X128535971Y-53733288D01*
X128535968Y-53733289D01*
X128409532Y-53806286D01*
X128409527Y-53806290D01*
X128306290Y-53909527D01*
X128306286Y-53909532D01*
X128233289Y-54035968D01*
X128233288Y-54035971D01*
X128195500Y-54176999D01*
X128195500Y-54323001D01*
X128229414Y-54449569D01*
X128233288Y-54464028D01*
X128233289Y-54464031D01*
X128306286Y-54590467D01*
X128306288Y-54590470D01*
X128306289Y-54590471D01*
X128409529Y-54693711D01*
X128409530Y-54693712D01*
X128409532Y-54693713D01*
X128411481Y-54694838D01*
X128535971Y-54766712D01*
X128676999Y-54804500D01*
X128677001Y-54804500D01*
X128822999Y-54804500D01*
X128823001Y-54804500D01*
X128964029Y-54766712D01*
X129090471Y-54693711D01*
X129193711Y-54590471D01*
X129266712Y-54464029D01*
X129304500Y-54323001D01*
X129304500Y-54248201D01*
X129324185Y-54181162D01*
X129340819Y-54160520D01*
X130662357Y-52838982D01*
X131992459Y-51508879D01*
X132053780Y-51475396D01*
X132123472Y-51480380D01*
X132179405Y-51522252D01*
X132199913Y-51564469D01*
X132233288Y-51689028D01*
X132233289Y-51689031D01*
X132306286Y-51815467D01*
X132306290Y-51815472D01*
X132359181Y-51868363D01*
X132392666Y-51929686D01*
X132395500Y-51956044D01*
X132395500Y-56900328D01*
X132375815Y-56967367D01*
X132359181Y-56988009D01*
X131966330Y-57380859D01*
X131966328Y-57380862D01*
X131919659Y-57461696D01*
X131913873Y-57483289D01*
X131895894Y-57550390D01*
X131895500Y-57551859D01*
X131895500Y-57876167D01*
X131875815Y-57943206D01*
X131823011Y-57988961D01*
X131753853Y-57998905D01*
X131690297Y-57969880D01*
X131664113Y-57938167D01*
X131618713Y-57859532D01*
X131618709Y-57859527D01*
X131565819Y-57806637D01*
X131532334Y-57745314D01*
X131529500Y-57718956D01*
X131529500Y-57628330D01*
X131525578Y-57613692D01*
X131505341Y-57538168D01*
X131458671Y-57457332D01*
X131392668Y-57391329D01*
X130090819Y-56089480D01*
X130057334Y-56028157D01*
X130054500Y-56001799D01*
X130054500Y-55927001D01*
X130054500Y-55926999D01*
X130016712Y-55785971D01*
X129943711Y-55659529D01*
X129840471Y-55556289D01*
X129840470Y-55556288D01*
X129840467Y-55556286D01*
X129714031Y-55483289D01*
X129714030Y-55483288D01*
X129714029Y-55483288D01*
X129573001Y-55445500D01*
X129426999Y-55445500D01*
X129285971Y-55483288D01*
X129285968Y-55483289D01*
X129159532Y-55556286D01*
X129159527Y-55556290D01*
X129056290Y-55659527D01*
X129056286Y-55659532D01*
X128983289Y-55785968D01*
X128983288Y-55785971D01*
X128945500Y-55926999D01*
X128945500Y-56073001D01*
X128970278Y-56165472D01*
X128983288Y-56214028D01*
X128983289Y-56214031D01*
X129056286Y-56340467D01*
X129056288Y-56340470D01*
X129056289Y-56340471D01*
X129159529Y-56443711D01*
X129285971Y-56516712D01*
X129426999Y-56554500D01*
X129501799Y-56554500D01*
X129568838Y-56574185D01*
X129589480Y-56590819D01*
X130710457Y-57711796D01*
X130743942Y-57773119D01*
X130738958Y-57842811D01*
X130730164Y-57861476D01*
X130658288Y-57985970D01*
X130658288Y-57985971D01*
X130620500Y-58126999D01*
X130620500Y-58273001D01*
X130656387Y-58406936D01*
X130659456Y-58418387D01*
X130657793Y-58488237D01*
X130618630Y-58546099D01*
X130554402Y-58573603D01*
X130485500Y-58562016D01*
X130452000Y-58538161D01*
X128492319Y-56578480D01*
X128458834Y-56517157D01*
X128456000Y-56490799D01*
X128456000Y-56306044D01*
X128475685Y-56239005D01*
X128492319Y-56218363D01*
X128496654Y-56214028D01*
X128545211Y-56165471D01*
X128618212Y-56039029D01*
X128656000Y-55898001D01*
X128656000Y-55751999D01*
X128618212Y-55610971D01*
X128545211Y-55484529D01*
X128441971Y-55381289D01*
X128441970Y-55381288D01*
X128441967Y-55381286D01*
X128315531Y-55308289D01*
X128315530Y-55308288D01*
X128315529Y-55308288D01*
X128174501Y-55270500D01*
X128028499Y-55270500D01*
X127887471Y-55308288D01*
X127887464Y-55308291D01*
X127760807Y-55381416D01*
X127692907Y-55397889D01*
X127626880Y-55375036D01*
X127583690Y-55320115D01*
X127574808Y-55274029D01*
X127574808Y-54831044D01*
X127594493Y-54764005D01*
X127611127Y-54743363D01*
X127664019Y-54690471D01*
X127737020Y-54564029D01*
X127774808Y-54423001D01*
X127774808Y-54276999D01*
X127737020Y-54135971D01*
X127679285Y-54035971D01*
X127664021Y-54009532D01*
X127664017Y-54009527D01*
X127560780Y-53906290D01*
X127560775Y-53906286D01*
X127434339Y-53833289D01*
X127434338Y-53833288D01*
X127434337Y-53833288D01*
X127293309Y-53795500D01*
X127147307Y-53795500D01*
X127147305Y-53795500D01*
X127130900Y-53799896D01*
X127061050Y-53798233D01*
X127003188Y-53759069D01*
X126975685Y-53694840D01*
X126974808Y-53680121D01*
X126974808Y-47232413D01*
X126994493Y-47165374D01*
X127047297Y-47119619D01*
X127116455Y-47109675D01*
X127180011Y-47138700D01*
X127216739Y-47194095D01*
X127238947Y-47262444D01*
X127343650Y-47467935D01*
X127399053Y-47544191D01*
X127399054Y-47544192D01*
X128055457Y-46887789D01*
X128064247Y-46920591D01*
X128139487Y-47050909D01*
X128245891Y-47157313D01*
X128376209Y-47232553D01*
X128409010Y-47241342D01*
X127752606Y-47897744D01*
X127828867Y-47953151D01*
X128034353Y-48057852D01*
X128253697Y-48129122D01*
X128481481Y-48165200D01*
X128712119Y-48165200D01*
X128939902Y-48129122D01*
X129159246Y-48057852D01*
X129364724Y-47953155D01*
X129364730Y-47953151D01*
X129440991Y-47897744D01*
X129440992Y-47897744D01*
X128784589Y-47241342D01*
X128817391Y-47232553D01*
X128947709Y-47157313D01*
X129054113Y-47050909D01*
X129129353Y-46920591D01*
X129138142Y-46887789D01*
X129794620Y-47544268D01*
X129811977Y-47544268D01*
X130572152Y-46784093D01*
X130595592Y-46871571D01*
X130654111Y-46972930D01*
X130736870Y-47055689D01*
X130838229Y-47114208D01*
X130925705Y-47137647D01*
X130165606Y-47897744D01*
X130241867Y-47953151D01*
X130447353Y-48057852D01*
X130666697Y-48129122D01*
X130894481Y-48165200D01*
X131125119Y-48165200D01*
X131352902Y-48129122D01*
X131572246Y-48057852D01*
X131777724Y-47953155D01*
X131777730Y-47953151D01*
X131853991Y-47897744D01*
X131853992Y-47897744D01*
X131093894Y-47137647D01*
X131181371Y-47114208D01*
X131282730Y-47055689D01*
X131365489Y-46972930D01*
X131424008Y-46871571D01*
X131447447Y-46784095D01*
X132207544Y-47544192D01*
X132207544Y-47544191D01*
X132262951Y-47467930D01*
X132262955Y-47467924D01*
X132367652Y-47262446D01*
X132438922Y-47043102D01*
X132475000Y-46815319D01*
X132475000Y-46584680D01*
X132438922Y-46356897D01*
X132367652Y-46137553D01*
X132262951Y-45932067D01*
X132207544Y-45855807D01*
X132207544Y-45855806D01*
X131447447Y-46615904D01*
X131424008Y-46528429D01*
X131365489Y-46427070D01*
X131282730Y-46344311D01*
X131181371Y-46285792D01*
X131093893Y-46262352D01*
X131853992Y-45502254D01*
X131853991Y-45502253D01*
X131777735Y-45446850D01*
X131572246Y-45342147D01*
X131352902Y-45270877D01*
X131125119Y-45234800D01*
X130894481Y-45234800D01*
X130666697Y-45270877D01*
X130447353Y-45342147D01*
X130241869Y-45446847D01*
X130165607Y-45502254D01*
X130925706Y-46262352D01*
X130838229Y-46285792D01*
X130736870Y-46344311D01*
X130654111Y-46427070D01*
X130595592Y-46528429D01*
X130572152Y-46615905D01*
X129811977Y-45855730D01*
X129794621Y-45855730D01*
X129138141Y-46512209D01*
X129129353Y-46479409D01*
X129054113Y-46349091D01*
X128947709Y-46242687D01*
X128817391Y-46167447D01*
X128784588Y-46158657D01*
X129440992Y-45502254D01*
X129440991Y-45502253D01*
X129364735Y-45446850D01*
X129159246Y-45342147D01*
X128939902Y-45270877D01*
X128712119Y-45234800D01*
X128481481Y-45234800D01*
X128253697Y-45270877D01*
X128034353Y-45342147D01*
X127828869Y-45446847D01*
X127752607Y-45502254D01*
X128409011Y-46158657D01*
X128376209Y-46167447D01*
X128245891Y-46242687D01*
X128139487Y-46349091D01*
X128064247Y-46479409D01*
X128055457Y-46512210D01*
X127399054Y-45855807D01*
X127343647Y-45932069D01*
X127238947Y-46137553D01*
X127216739Y-46205905D01*
X127177301Y-46263580D01*
X127112942Y-46290778D01*
X127044096Y-46278863D01*
X126992620Y-46231619D01*
X126974808Y-46167586D01*
X126974808Y-41640024D01*
X126994493Y-41572985D01*
X127011123Y-41552347D01*
X127492107Y-41071362D01*
X127532338Y-41044482D01*
X127539021Y-41041714D01*
X127539029Y-41041712D01*
X127665471Y-40968711D01*
X127768711Y-40865471D01*
X127841712Y-40739029D01*
X127879500Y-40598001D01*
X127879500Y-40451999D01*
X127841712Y-40310971D01*
X127768711Y-40184529D01*
X127665471Y-40081289D01*
X127665470Y-40081288D01*
X127665467Y-40081286D01*
X127539031Y-40008289D01*
X127539030Y-40008288D01*
X127539029Y-40008288D01*
X127398001Y-39970500D01*
X127251999Y-39970500D01*
X127110971Y-40008288D01*
X127110968Y-40008289D01*
X126984532Y-40081286D01*
X126984527Y-40081290D01*
X126881290Y-40184527D01*
X126881288Y-40184530D01*
X126808284Y-40310977D01*
X126805511Y-40317673D01*
X126778635Y-40357892D01*
X126066609Y-41069919D01*
X126066603Y-41069928D01*
X126024498Y-41142852D01*
X126024499Y-41142853D01*
X126000190Y-41184957D01*
X126000189Y-41184962D01*
X125965808Y-41313273D01*
X125965808Y-41313275D01*
X125965808Y-43048785D01*
X125946123Y-43115824D01*
X125893319Y-43161579D01*
X125824161Y-43171523D01*
X125760605Y-43142498D01*
X125754127Y-43136466D01*
X122438962Y-39821301D01*
X122438961Y-39821300D01*
X122438960Y-39821299D01*
X122413510Y-39806605D01*
X122366028Y-39779191D01*
X122366027Y-39779191D01*
X122323920Y-39754881D01*
X122323921Y-39754881D01*
X122291842Y-39746285D01*
X122195609Y-39720500D01*
X118458581Y-39720500D01*
X118368387Y-39744667D01*
X118330265Y-39754882D01*
X118288161Y-39779191D01*
X118215236Y-39821295D01*
X118215227Y-39821301D01*
X116696581Y-41339946D01*
X116635258Y-41373431D01*
X116565566Y-41368447D01*
X116509633Y-41326575D01*
X116485216Y-41261111D01*
X116484900Y-41252305D01*
X116484601Y-39393520D01*
X116504275Y-39326477D01*
X116557071Y-39280714D01*
X116608601Y-39269500D01*
X134359601Y-39269500D01*
X134426640Y-39289185D01*
G37*
%TD.AperFunction*%
%TD*%
M02*
