%TF.GenerationSoftware,KiCad,Pcbnew,10.0.5*%
%TF.CreationDate,2026-09-09T19:32:05-03:00*%
%TF.ProjectId,Expander1_V1.0,45787061-6e64-4657-9231-5f56312e302e,rev?*%
%TF.SameCoordinates,Original*%
%TF.FileFunction,Soldermask,Bot*%
%TF.FilePolarity,Negative*%
%FSLAX46Y46*%
G04 Gerber Fmt 4.6, Leading zero omitted, Abs format (unit mm)*
G04 Created by KiCad (PCBNEW 10.0.5) date 2026-09-09 19:32:05*
%MOMM*%
%LPD*%
G01*
G04 APERTURE LIST*
G04 Aperture macros list*
%AMRoundRect*
0 Rectangle with rounded corners*
0 $1 Rounding radius*
0 $2 $3 $4 $5 $6 $7 $8 $9 X,Y pos of 4 corners*
0 Add a 4 corners polygon primitive as box body*
4,1,4,$2,$3,$4,$5,$6,$7,$8,$9,$2,$3,0*
0 Add four circle primitives for the rounded corners*
1,1,$1+$1,$2,$3*
1,1,$1+$1,$4,$5*
1,1,$1+$1,$6,$7*
1,1,$1+$1,$8,$9*
0 Add four rect primitives between the rounded corners*
20,1,$1+$1,$2,$3,$4,$5,0*
20,1,$1+$1,$4,$5,$6,$7,0*
20,1,$1+$1,$6,$7,$8,$9,0*
20,1,$1+$1,$8,$9,$2,$3,0*%
G04 Aperture macros list end*
%ADD10R,0.700000X1.300000*%
%ADD11R,1.300000X0.700000*%
%ADD12R,1.000000X1.000000*%
%ADD13RoundRect,0.150000X-0.150000X0.825000X-0.150000X-0.825000X0.150000X-0.825000X0.150000X0.825000X0*%
%ADD14RoundRect,0.087500X0.087500X-0.662500X0.087500X0.662500X-0.087500X0.662500X-0.087500X-0.662500X0*%
%ADD15C,1.930400*%
%ADD16R,1.800000X1.800000*%
%ADD17C,1.800000*%
%ADD18RoundRect,0.412500X-0.412500X-0.412500X0.412500X-0.412500X0.412500X0.412500X-0.412500X0.412500X0*%
%ADD19C,1.650000*%
%ADD20RoundRect,0.150000X-0.587500X-0.150000X0.587500X-0.150000X0.587500X0.150000X-0.587500X0.150000X0*%
%ADD21R,1.700000X1.700000*%
%ADD22C,1.700000*%
%ADD23RoundRect,0.150000X0.512500X0.150000X-0.512500X0.150000X-0.512500X-0.150000X0.512500X-0.150000X0*%
G04 APERTURE END LIST*
D10*
%TO.C,C5*%
X126625000Y-48750000D03*
X128525000Y-48750000D03*
%TD*%
D11*
%TO.C,C2*%
X121600000Y-119700000D03*
X121600000Y-117800000D03*
%TD*%
D12*
%TO.C,C18*%
X132850000Y-56500000D03*
X131150000Y-56500000D03*
%TD*%
%TO.C,C21*%
X120100000Y-56500000D03*
X118400000Y-56500000D03*
%TD*%
%TO.C,C20*%
X131000000Y-48500000D03*
X132700000Y-48500000D03*
%TD*%
%TO.C,C19*%
X118000000Y-45750000D03*
X118000000Y-47450000D03*
%TD*%
%TO.C,R9*%
X120075000Y-49200000D03*
X118375000Y-49200000D03*
%TD*%
%TO.C,R10*%
X132875000Y-58200000D03*
X131175000Y-58200000D03*
%TD*%
%TO.C,R17*%
X132700000Y-50000000D03*
X131000000Y-50000000D03*
%TD*%
%TO.C,R18*%
X118375000Y-58000000D03*
X120075000Y-58000000D03*
%TD*%
D13*
%TO.C,U1*%
X121751500Y-55825000D03*
X123021500Y-55825000D03*
X124291500Y-55825000D03*
X125561500Y-55825000D03*
X126831500Y-55825000D03*
X128101500Y-55825000D03*
X129371500Y-55825000D03*
X129371500Y-50875000D03*
X128101500Y-50875000D03*
X126831500Y-50875000D03*
X125561500Y-50875000D03*
X124291500Y-50875000D03*
X123021500Y-50875000D03*
X121751500Y-50875000D03*
%TD*%
D14*
%TO.C,U5*%
X119800000Y-116552888D03*
X119300000Y-116552888D03*
X118800000Y-116552888D03*
X118300000Y-116552888D03*
X117800000Y-116552888D03*
X117800000Y-120752888D03*
X118300000Y-120752888D03*
X118800000Y-120752888D03*
X119300000Y-120752888D03*
X119800000Y-120752888D03*
%TD*%
D15*
%TO.C,J6*%
X128634800Y-94575000D03*
X131047800Y-94575000D03*
X120075000Y-94575000D03*
%TD*%
%TO.C,J7*%
X128634800Y-109175000D03*
X131047800Y-109175000D03*
X120075000Y-109175000D03*
%TD*%
D16*
%TO.C,D4*%
X123930308Y-73994355D03*
D17*
X126470308Y-73994355D03*
%TD*%
D15*
%TO.C,J4*%
X119753308Y-65369355D03*
X130726108Y-65369355D03*
X128313108Y-65369355D03*
%TD*%
D16*
%TO.C,D5*%
X123930308Y-88619355D03*
D17*
X126470308Y-88619355D03*
%TD*%
D16*
%TO.C,D6*%
X123930308Y-103219355D03*
D17*
X126470308Y-103219355D03*
%TD*%
D16*
%TO.C,D3*%
X123930308Y-59394355D03*
D17*
X126470308Y-59394355D03*
%TD*%
D15*
%TO.C,J5*%
X120075000Y-79975000D03*
X131047800Y-79975000D03*
X128634800Y-79975000D03*
%TD*%
%TO.C,J8*%
X120037000Y-46700000D03*
X131009800Y-46700000D03*
X128596800Y-46700000D03*
%TD*%
D12*
%TO.C,R11*%
X132700000Y-54975000D03*
X131000000Y-54975000D03*
%TD*%
D18*
%TO.C,RV2*%
X126785000Y-123412500D03*
D19*
X129325000Y-123412500D03*
X131865000Y-123412500D03*
%TD*%
D12*
%TO.C,R22*%
X132729190Y-44000000D03*
X132729190Y-42300000D03*
%TD*%
%TO.C,R5*%
X132875000Y-63300000D03*
X131175000Y-63300000D03*
%TD*%
%TO.C,R8*%
X131175000Y-59875000D03*
X132875000Y-59875000D03*
%TD*%
%TO.C,R29*%
X124675000Y-77250000D03*
X122975000Y-77250000D03*
%TD*%
%TO.C,R16*%
X120075000Y-59675000D03*
X118375000Y-59675000D03*
%TD*%
D20*
%TO.C,Q5*%
X124612500Y-109250000D03*
X124612500Y-107350000D03*
X126487500Y-108300000D03*
%TD*%
D12*
%TO.C,R14*%
X118375000Y-61350000D03*
X120075000Y-61350000D03*
%TD*%
D18*
%TO.C,RV3*%
X126785000Y-128950000D03*
D19*
X129325000Y-128950000D03*
X131865000Y-128950000D03*
%TD*%
D12*
%TO.C,R12*%
X132700000Y-53325000D03*
X131000000Y-53325000D03*
%TD*%
%TO.C,R32*%
X122525000Y-111000000D03*
X124225000Y-111000000D03*
%TD*%
%TO.C,C6*%
X124700000Y-48750000D03*
X123000000Y-48750000D03*
%TD*%
%TO.C,R21*%
X123929190Y-41950000D03*
X125629190Y-41950000D03*
%TD*%
D18*
%TO.C,RV1*%
X126785000Y-117875000D03*
D19*
X129325000Y-117875000D03*
X131865000Y-117875000D03*
%TD*%
D12*
%TO.C,R3*%
X118375000Y-54325000D03*
X120075000Y-54325000D03*
%TD*%
%TO.C,R4*%
X118375000Y-52625000D03*
X120075000Y-52625000D03*
%TD*%
%TO.C,R30*%
X122650000Y-97075000D03*
X124350000Y-97075000D03*
%TD*%
%TO.C,C4*%
X128804190Y-40300000D03*
X130504190Y-40300000D03*
%TD*%
%TO.C,C16*%
X119979190Y-41950000D03*
X121679190Y-41950000D03*
%TD*%
%TO.C,R28*%
X122800000Y-82525000D03*
X124500000Y-82525000D03*
%TD*%
%TO.C,R7*%
X120075000Y-50900000D03*
X118375000Y-50900000D03*
%TD*%
%TO.C,R6*%
X132875000Y-61575000D03*
X131175000Y-61575000D03*
%TD*%
%TO.C,R19*%
X125629190Y-43725000D03*
X123929190Y-43725000D03*
%TD*%
%TO.C,R13*%
X118375000Y-63025000D03*
X120075000Y-63025000D03*
%TD*%
%TO.C,R15*%
X131000000Y-51650000D03*
X132700000Y-51650000D03*
%TD*%
D20*
%TO.C,Q2*%
X124187500Y-66375000D03*
X124187500Y-64475000D03*
X126062500Y-65425000D03*
%TD*%
D12*
%TO.C,C3*%
X123400000Y-119600000D03*
X123400000Y-117900000D03*
%TD*%
D18*
%TO.C,RV4*%
X126785000Y-134487500D03*
D19*
X129325000Y-134487500D03*
X131865000Y-134487500D03*
%TD*%
D12*
%TO.C,R27*%
X124300000Y-62825000D03*
X122600000Y-62825000D03*
%TD*%
%TO.C,R26*%
X122475000Y-68000000D03*
X124175000Y-68000000D03*
%TD*%
%TO.C,R31*%
X124400000Y-91875000D03*
X122700000Y-91875000D03*
%TD*%
D20*
%TO.C,Q3*%
X124462500Y-80900000D03*
X124462500Y-79000000D03*
X126337500Y-79950000D03*
%TD*%
D12*
%TO.C,R20*%
X119979190Y-43725000D03*
X121679190Y-43725000D03*
%TD*%
D21*
%TO.C,J2*%
X118300000Y-135500000D03*
D22*
X120840000Y-135500000D03*
X118300000Y-132960000D03*
X120840000Y-132960000D03*
X118300000Y-130420000D03*
X120840000Y-130420000D03*
X118300000Y-127880000D03*
X120840000Y-127880000D03*
%TD*%
D12*
%TO.C,R33*%
X124325000Y-105775000D03*
X122625000Y-105775000D03*
%TD*%
D20*
%TO.C,Q4*%
X124462500Y-95500000D03*
X124462500Y-93600000D03*
X126337500Y-94550000D03*
%TD*%
D23*
%TO.C,U2*%
X130491690Y-42175000D03*
X130491690Y-43125000D03*
X130491690Y-44075000D03*
X128216690Y-44075000D03*
X128216690Y-42175000D03*
%TD*%
D12*
%TO.C,C15*%
X123929190Y-40250000D03*
X125629190Y-40250000D03*
%TD*%
M02*
