%TF.GenerationSoftware,KiCad,Pcbnew,10.0.5*%
%TF.CreationDate,2026-09-09T19:32:05-03:00*%
%TF.ProjectId,Expander1_V1.0,45787061-6e64-4657-9231-5f56312e302e,rev?*%
%TF.SameCoordinates,Original*%
%TF.FileFunction,Legend,Top*%
%TF.FilePolarity,Positive*%
%FSLAX46Y46*%
G04 Gerber Fmt 4.6, Leading zero omitted, Abs format (unit mm)*
G04 Created by KiCad (PCBNEW 10.0.5) date 2026-09-09 19:32:05*
%MOMM*%
%LPD*%
G01*
G04 APERTURE LIST*
G04 Aperture macros list*
%AMRoundRect*
0 Rectangle with rounded corners*
0 $1 Rounding radius*
0 $2 $3 $4 $5 $6 $7 $8 $9 X,Y pos of 4 corners*
0 Add a 4 corners polygon primitive as box body*
4,1,4,$2,$3,$4,$5,$6,$7,$8,$9,$2,$3,0*
0 Add four circle primitives for the rounded corners*
1,1,$1+$1,$2,$3*
1,1,$1+$1,$4,$5*
1,1,$1+$1,$6,$7*
1,1,$1+$1,$8,$9*
0 Add four rect primitives between the rounded corners*
20,1,$1+$1,$2,$3,$4,$5,0*
20,1,$1+$1,$4,$5,$6,$7,0*
20,1,$1+$1,$6,$7,$8,$9,0*
20,1,$1+$1,$8,$9,$2,$3,0*%
G04 Aperture macros list end*
%ADD10C,0.150000*%
%ADD11C,0.127000*%
%ADD12C,0.120000*%
%ADD13C,1.930400*%
%ADD14R,1.800000X1.800000*%
%ADD15C,1.800000*%
%ADD16RoundRect,0.412500X-0.412500X-0.412500X0.412500X-0.412500X0.412500X0.412500X-0.412500X0.412500X0*%
%ADD17C,1.650000*%
%ADD18R,1.700000X1.700000*%
%ADD19C,1.700000*%
G04 APERTURE END LIST*
D10*
X119299255Y-99954819D02*
X119489731Y-99954819D01*
X119489731Y-99954819D02*
X119584969Y-100002438D01*
X119584969Y-100002438D02*
X119680207Y-100097676D01*
X119680207Y-100097676D02*
X119727826Y-100288152D01*
X119727826Y-100288152D02*
X119727826Y-100621485D01*
X119727826Y-100621485D02*
X119680207Y-100811961D01*
X119680207Y-100811961D02*
X119584969Y-100907200D01*
X119584969Y-100907200D02*
X119489731Y-100954819D01*
X119489731Y-100954819D02*
X119299255Y-100954819D01*
X119299255Y-100954819D02*
X119204017Y-100907200D01*
X119204017Y-100907200D02*
X119108779Y-100811961D01*
X119108779Y-100811961D02*
X119061160Y-100621485D01*
X119061160Y-100621485D02*
X119061160Y-100288152D01*
X119061160Y-100288152D02*
X119108779Y-100097676D01*
X119108779Y-100097676D02*
X119204017Y-100002438D01*
X119204017Y-100002438D02*
X119299255Y-99954819D01*
X120584969Y-100288152D02*
X120584969Y-100954819D01*
X120156398Y-100288152D02*
X120156398Y-100811961D01*
X120156398Y-100811961D02*
X120204017Y-100907200D01*
X120204017Y-100907200D02*
X120299255Y-100954819D01*
X120299255Y-100954819D02*
X120442112Y-100954819D01*
X120442112Y-100954819D02*
X120537350Y-100907200D01*
X120537350Y-100907200D02*
X120584969Y-100859580D01*
X120918303Y-100288152D02*
X121299255Y-100288152D01*
X121061160Y-99954819D02*
X121061160Y-100811961D01*
X121061160Y-100811961D02*
X121108779Y-100907200D01*
X121108779Y-100907200D02*
X121204017Y-100954819D01*
X121204017Y-100954819D02*
X121299255Y-100954819D01*
X122299256Y-99954819D02*
X122965922Y-99954819D01*
X122965922Y-99954819D02*
X122537351Y-100954819D01*
X119299255Y-114369819D02*
X119489731Y-114369819D01*
X119489731Y-114369819D02*
X119584969Y-114417438D01*
X119584969Y-114417438D02*
X119680207Y-114512676D01*
X119680207Y-114512676D02*
X119727826Y-114703152D01*
X119727826Y-114703152D02*
X119727826Y-115036485D01*
X119727826Y-115036485D02*
X119680207Y-115226961D01*
X119680207Y-115226961D02*
X119584969Y-115322200D01*
X119584969Y-115322200D02*
X119489731Y-115369819D01*
X119489731Y-115369819D02*
X119299255Y-115369819D01*
X119299255Y-115369819D02*
X119204017Y-115322200D01*
X119204017Y-115322200D02*
X119108779Y-115226961D01*
X119108779Y-115226961D02*
X119061160Y-115036485D01*
X119061160Y-115036485D02*
X119061160Y-114703152D01*
X119061160Y-114703152D02*
X119108779Y-114512676D01*
X119108779Y-114512676D02*
X119204017Y-114417438D01*
X119204017Y-114417438D02*
X119299255Y-114369819D01*
X120584969Y-114703152D02*
X120584969Y-115369819D01*
X120156398Y-114703152D02*
X120156398Y-115226961D01*
X120156398Y-115226961D02*
X120204017Y-115322200D01*
X120204017Y-115322200D02*
X120299255Y-115369819D01*
X120299255Y-115369819D02*
X120442112Y-115369819D01*
X120442112Y-115369819D02*
X120537350Y-115322200D01*
X120537350Y-115322200D02*
X120584969Y-115274580D01*
X120918303Y-114703152D02*
X121299255Y-114703152D01*
X121061160Y-114369819D02*
X121061160Y-115226961D01*
X121061160Y-115226961D02*
X121108779Y-115322200D01*
X121108779Y-115322200D02*
X121204017Y-115369819D01*
X121204017Y-115369819D02*
X121299255Y-115369819D01*
X122537351Y-114798390D02*
X122442113Y-114750771D01*
X122442113Y-114750771D02*
X122394494Y-114703152D01*
X122394494Y-114703152D02*
X122346875Y-114607914D01*
X122346875Y-114607914D02*
X122346875Y-114560295D01*
X122346875Y-114560295D02*
X122394494Y-114465057D01*
X122394494Y-114465057D02*
X122442113Y-114417438D01*
X122442113Y-114417438D02*
X122537351Y-114369819D01*
X122537351Y-114369819D02*
X122727827Y-114369819D01*
X122727827Y-114369819D02*
X122823065Y-114417438D01*
X122823065Y-114417438D02*
X122870684Y-114465057D01*
X122870684Y-114465057D02*
X122918303Y-114560295D01*
X122918303Y-114560295D02*
X122918303Y-114607914D01*
X122918303Y-114607914D02*
X122870684Y-114703152D01*
X122870684Y-114703152D02*
X122823065Y-114750771D01*
X122823065Y-114750771D02*
X122727827Y-114798390D01*
X122727827Y-114798390D02*
X122537351Y-114798390D01*
X122537351Y-114798390D02*
X122442113Y-114846009D01*
X122442113Y-114846009D02*
X122394494Y-114893628D01*
X122394494Y-114893628D02*
X122346875Y-114988866D01*
X122346875Y-114988866D02*
X122346875Y-115179342D01*
X122346875Y-115179342D02*
X122394494Y-115274580D01*
X122394494Y-115274580D02*
X122442113Y-115322200D01*
X122442113Y-115322200D02*
X122537351Y-115369819D01*
X122537351Y-115369819D02*
X122727827Y-115369819D01*
X122727827Y-115369819D02*
X122823065Y-115322200D01*
X122823065Y-115322200D02*
X122870684Y-115274580D01*
X122870684Y-115274580D02*
X122918303Y-115179342D01*
X122918303Y-115179342D02*
X122918303Y-114988866D01*
X122918303Y-114988866D02*
X122870684Y-114893628D01*
X122870684Y-114893628D02*
X122823065Y-114846009D01*
X122823065Y-114846009D02*
X122727827Y-114798390D01*
X128261905Y-74454819D02*
X128261905Y-73454819D01*
X128261905Y-73454819D02*
X128500000Y-73454819D01*
X128500000Y-73454819D02*
X128642857Y-73502438D01*
X128642857Y-73502438D02*
X128738095Y-73597676D01*
X128738095Y-73597676D02*
X128785714Y-73692914D01*
X128785714Y-73692914D02*
X128833333Y-73883390D01*
X128833333Y-73883390D02*
X128833333Y-74026247D01*
X128833333Y-74026247D02*
X128785714Y-74216723D01*
X128785714Y-74216723D02*
X128738095Y-74311961D01*
X128738095Y-74311961D02*
X128642857Y-74407200D01*
X128642857Y-74407200D02*
X128500000Y-74454819D01*
X128500000Y-74454819D02*
X128261905Y-74454819D01*
X129690476Y-73788152D02*
X129690476Y-74454819D01*
X129452381Y-73407200D02*
X129214286Y-74121485D01*
X129214286Y-74121485D02*
X129833333Y-74121485D01*
X118977563Y-70749174D02*
X119168039Y-70749174D01*
X119168039Y-70749174D02*
X119263277Y-70796793D01*
X119263277Y-70796793D02*
X119358515Y-70892031D01*
X119358515Y-70892031D02*
X119406134Y-71082507D01*
X119406134Y-71082507D02*
X119406134Y-71415840D01*
X119406134Y-71415840D02*
X119358515Y-71606316D01*
X119358515Y-71606316D02*
X119263277Y-71701555D01*
X119263277Y-71701555D02*
X119168039Y-71749174D01*
X119168039Y-71749174D02*
X118977563Y-71749174D01*
X118977563Y-71749174D02*
X118882325Y-71701555D01*
X118882325Y-71701555D02*
X118787087Y-71606316D01*
X118787087Y-71606316D02*
X118739468Y-71415840D01*
X118739468Y-71415840D02*
X118739468Y-71082507D01*
X118739468Y-71082507D02*
X118787087Y-70892031D01*
X118787087Y-70892031D02*
X118882325Y-70796793D01*
X118882325Y-70796793D02*
X118977563Y-70749174D01*
X120263277Y-71082507D02*
X120263277Y-71749174D01*
X119834706Y-71082507D02*
X119834706Y-71606316D01*
X119834706Y-71606316D02*
X119882325Y-71701555D01*
X119882325Y-71701555D02*
X119977563Y-71749174D01*
X119977563Y-71749174D02*
X120120420Y-71749174D01*
X120120420Y-71749174D02*
X120215658Y-71701555D01*
X120215658Y-71701555D02*
X120263277Y-71653935D01*
X120596611Y-71082507D02*
X120977563Y-71082507D01*
X120739468Y-70749174D02*
X120739468Y-71606316D01*
X120739468Y-71606316D02*
X120787087Y-71701555D01*
X120787087Y-71701555D02*
X120882325Y-71749174D01*
X120882325Y-71749174D02*
X120977563Y-71749174D01*
X122548992Y-70749174D02*
X122072802Y-70749174D01*
X122072802Y-70749174D02*
X122025183Y-71225364D01*
X122025183Y-71225364D02*
X122072802Y-71177745D01*
X122072802Y-71177745D02*
X122168040Y-71130126D01*
X122168040Y-71130126D02*
X122406135Y-71130126D01*
X122406135Y-71130126D02*
X122501373Y-71177745D01*
X122501373Y-71177745D02*
X122548992Y-71225364D01*
X122548992Y-71225364D02*
X122596611Y-71320602D01*
X122596611Y-71320602D02*
X122596611Y-71558697D01*
X122596611Y-71558697D02*
X122548992Y-71653935D01*
X122548992Y-71653935D02*
X122501373Y-71701555D01*
X122501373Y-71701555D02*
X122406135Y-71749174D01*
X122406135Y-71749174D02*
X122168040Y-71749174D01*
X122168040Y-71749174D02*
X122072802Y-71701555D01*
X122072802Y-71701555D02*
X122025183Y-71653935D01*
X128261905Y-88954819D02*
X128261905Y-87954819D01*
X128261905Y-87954819D02*
X128500000Y-87954819D01*
X128500000Y-87954819D02*
X128642857Y-88002438D01*
X128642857Y-88002438D02*
X128738095Y-88097676D01*
X128738095Y-88097676D02*
X128785714Y-88192914D01*
X128785714Y-88192914D02*
X128833333Y-88383390D01*
X128833333Y-88383390D02*
X128833333Y-88526247D01*
X128833333Y-88526247D02*
X128785714Y-88716723D01*
X128785714Y-88716723D02*
X128738095Y-88811961D01*
X128738095Y-88811961D02*
X128642857Y-88907200D01*
X128642857Y-88907200D02*
X128500000Y-88954819D01*
X128500000Y-88954819D02*
X128261905Y-88954819D01*
X129738095Y-87954819D02*
X129261905Y-87954819D01*
X129261905Y-87954819D02*
X129214286Y-88431009D01*
X129214286Y-88431009D02*
X129261905Y-88383390D01*
X129261905Y-88383390D02*
X129357143Y-88335771D01*
X129357143Y-88335771D02*
X129595238Y-88335771D01*
X129595238Y-88335771D02*
X129690476Y-88383390D01*
X129690476Y-88383390D02*
X129738095Y-88431009D01*
X129738095Y-88431009D02*
X129785714Y-88526247D01*
X129785714Y-88526247D02*
X129785714Y-88764342D01*
X129785714Y-88764342D02*
X129738095Y-88859580D01*
X129738095Y-88859580D02*
X129690476Y-88907200D01*
X129690476Y-88907200D02*
X129595238Y-88954819D01*
X129595238Y-88954819D02*
X129357143Y-88954819D01*
X129357143Y-88954819D02*
X129261905Y-88907200D01*
X129261905Y-88907200D02*
X129214286Y-88859580D01*
X128261905Y-103704819D02*
X128261905Y-102704819D01*
X128261905Y-102704819D02*
X128500000Y-102704819D01*
X128500000Y-102704819D02*
X128642857Y-102752438D01*
X128642857Y-102752438D02*
X128738095Y-102847676D01*
X128738095Y-102847676D02*
X128785714Y-102942914D01*
X128785714Y-102942914D02*
X128833333Y-103133390D01*
X128833333Y-103133390D02*
X128833333Y-103276247D01*
X128833333Y-103276247D02*
X128785714Y-103466723D01*
X128785714Y-103466723D02*
X128738095Y-103561961D01*
X128738095Y-103561961D02*
X128642857Y-103657200D01*
X128642857Y-103657200D02*
X128500000Y-103704819D01*
X128500000Y-103704819D02*
X128261905Y-103704819D01*
X129690476Y-102704819D02*
X129500000Y-102704819D01*
X129500000Y-102704819D02*
X129404762Y-102752438D01*
X129404762Y-102752438D02*
X129357143Y-102800057D01*
X129357143Y-102800057D02*
X129261905Y-102942914D01*
X129261905Y-102942914D02*
X129214286Y-103133390D01*
X129214286Y-103133390D02*
X129214286Y-103514342D01*
X129214286Y-103514342D02*
X129261905Y-103609580D01*
X129261905Y-103609580D02*
X129309524Y-103657200D01*
X129309524Y-103657200D02*
X129404762Y-103704819D01*
X129404762Y-103704819D02*
X129595238Y-103704819D01*
X129595238Y-103704819D02*
X129690476Y-103657200D01*
X129690476Y-103657200D02*
X129738095Y-103609580D01*
X129738095Y-103609580D02*
X129785714Y-103514342D01*
X129785714Y-103514342D02*
X129785714Y-103276247D01*
X129785714Y-103276247D02*
X129738095Y-103181009D01*
X129738095Y-103181009D02*
X129690476Y-103133390D01*
X129690476Y-103133390D02*
X129595238Y-103085771D01*
X129595238Y-103085771D02*
X129404762Y-103085771D01*
X129404762Y-103085771D02*
X129309524Y-103133390D01*
X129309524Y-103133390D02*
X129261905Y-103181009D01*
X129261905Y-103181009D02*
X129214286Y-103276247D01*
X128136905Y-59779819D02*
X128136905Y-58779819D01*
X128136905Y-58779819D02*
X128375000Y-58779819D01*
X128375000Y-58779819D02*
X128517857Y-58827438D01*
X128517857Y-58827438D02*
X128613095Y-58922676D01*
X128613095Y-58922676D02*
X128660714Y-59017914D01*
X128660714Y-59017914D02*
X128708333Y-59208390D01*
X128708333Y-59208390D02*
X128708333Y-59351247D01*
X128708333Y-59351247D02*
X128660714Y-59541723D01*
X128660714Y-59541723D02*
X128613095Y-59636961D01*
X128613095Y-59636961D02*
X128517857Y-59732200D01*
X128517857Y-59732200D02*
X128375000Y-59779819D01*
X128375000Y-59779819D02*
X128136905Y-59779819D01*
X129041667Y-58779819D02*
X129660714Y-58779819D01*
X129660714Y-58779819D02*
X129327381Y-59160771D01*
X129327381Y-59160771D02*
X129470238Y-59160771D01*
X129470238Y-59160771D02*
X129565476Y-59208390D01*
X129565476Y-59208390D02*
X129613095Y-59256009D01*
X129613095Y-59256009D02*
X129660714Y-59351247D01*
X129660714Y-59351247D02*
X129660714Y-59589342D01*
X129660714Y-59589342D02*
X129613095Y-59684580D01*
X129613095Y-59684580D02*
X129565476Y-59732200D01*
X129565476Y-59732200D02*
X129470238Y-59779819D01*
X129470238Y-59779819D02*
X129184524Y-59779819D01*
X129184524Y-59779819D02*
X129089286Y-59732200D01*
X129089286Y-59732200D02*
X129041667Y-59684580D01*
X119299255Y-85354819D02*
X119489731Y-85354819D01*
X119489731Y-85354819D02*
X119584969Y-85402438D01*
X119584969Y-85402438D02*
X119680207Y-85497676D01*
X119680207Y-85497676D02*
X119727826Y-85688152D01*
X119727826Y-85688152D02*
X119727826Y-86021485D01*
X119727826Y-86021485D02*
X119680207Y-86211961D01*
X119680207Y-86211961D02*
X119584969Y-86307200D01*
X119584969Y-86307200D02*
X119489731Y-86354819D01*
X119489731Y-86354819D02*
X119299255Y-86354819D01*
X119299255Y-86354819D02*
X119204017Y-86307200D01*
X119204017Y-86307200D02*
X119108779Y-86211961D01*
X119108779Y-86211961D02*
X119061160Y-86021485D01*
X119061160Y-86021485D02*
X119061160Y-85688152D01*
X119061160Y-85688152D02*
X119108779Y-85497676D01*
X119108779Y-85497676D02*
X119204017Y-85402438D01*
X119204017Y-85402438D02*
X119299255Y-85354819D01*
X120584969Y-85688152D02*
X120584969Y-86354819D01*
X120156398Y-85688152D02*
X120156398Y-86211961D01*
X120156398Y-86211961D02*
X120204017Y-86307200D01*
X120204017Y-86307200D02*
X120299255Y-86354819D01*
X120299255Y-86354819D02*
X120442112Y-86354819D01*
X120442112Y-86354819D02*
X120537350Y-86307200D01*
X120537350Y-86307200D02*
X120584969Y-86259580D01*
X120918303Y-85688152D02*
X121299255Y-85688152D01*
X121061160Y-85354819D02*
X121061160Y-86211961D01*
X121061160Y-86211961D02*
X121108779Y-86307200D01*
X121108779Y-86307200D02*
X121204017Y-86354819D01*
X121204017Y-86354819D02*
X121299255Y-86354819D01*
X122823065Y-85354819D02*
X122632589Y-85354819D01*
X122632589Y-85354819D02*
X122537351Y-85402438D01*
X122537351Y-85402438D02*
X122489732Y-85450057D01*
X122489732Y-85450057D02*
X122394494Y-85592914D01*
X122394494Y-85592914D02*
X122346875Y-85783390D01*
X122346875Y-85783390D02*
X122346875Y-86164342D01*
X122346875Y-86164342D02*
X122394494Y-86259580D01*
X122394494Y-86259580D02*
X122442113Y-86307200D01*
X122442113Y-86307200D02*
X122537351Y-86354819D01*
X122537351Y-86354819D02*
X122727827Y-86354819D01*
X122727827Y-86354819D02*
X122823065Y-86307200D01*
X122823065Y-86307200D02*
X122870684Y-86259580D01*
X122870684Y-86259580D02*
X122918303Y-86164342D01*
X122918303Y-86164342D02*
X122918303Y-85926247D01*
X122918303Y-85926247D02*
X122870684Y-85831009D01*
X122870684Y-85831009D02*
X122823065Y-85783390D01*
X122823065Y-85783390D02*
X122727827Y-85735771D01*
X122727827Y-85735771D02*
X122537351Y-85735771D01*
X122537351Y-85735771D02*
X122442113Y-85783390D01*
X122442113Y-85783390D02*
X122394494Y-85831009D01*
X122394494Y-85831009D02*
X122346875Y-85926247D01*
X119070779Y-53079819D02*
X119070779Y-52079819D01*
X119546969Y-53079819D02*
X119546969Y-52079819D01*
X119546969Y-52079819D02*
X120118397Y-53079819D01*
X120118397Y-53079819D02*
X120118397Y-52079819D01*
X121023159Y-52413152D02*
X121023159Y-53079819D01*
X120785064Y-52032200D02*
X120546969Y-52746485D01*
X120546969Y-52746485D02*
X121166016Y-52746485D01*
%TO.C,J6*%
D11*
X127482000Y-94575000D02*
G75*
G02*
X123056600Y-94575000I-2212700J0D01*
G01*
X123056600Y-94575000D02*
G75*
G02*
X127482000Y-94575000I2212700J0D01*
G01*
X126844100Y-94575000D02*
G75*
G02*
X123694500Y-94575000I-1574800J0D01*
G01*
X123694500Y-94575000D02*
G75*
G02*
X126844100Y-94575000I1574800J0D01*
G01*
D12*
X129587800Y-99075000D02*
X119079800Y-99075000D01*
X129587800Y-95375000D02*
X129587800Y-99075000D01*
X129587800Y-90075000D02*
X129587800Y-93775000D01*
X125282000Y-96075000D02*
X125282000Y-93075000D01*
X123782000Y-94575000D02*
X126782000Y-94575000D01*
X119079800Y-90075000D02*
X129587800Y-90075000D01*
X119079800Y-90075000D02*
X119082000Y-93975000D01*
X119077600Y-95175000D02*
X119079800Y-99075000D01*
%TO.C,J7*%
D11*
X127482000Y-109175000D02*
G75*
G02*
X123056600Y-109175000I-2212700J0D01*
G01*
X123056600Y-109175000D02*
G75*
G02*
X127482000Y-109175000I2212700J0D01*
G01*
X126844100Y-109175000D02*
G75*
G02*
X123694500Y-109175000I-1574800J0D01*
G01*
X123694500Y-109175000D02*
G75*
G02*
X126844100Y-109175000I1574800J0D01*
G01*
D12*
X129587800Y-113675000D02*
X119079800Y-113675000D01*
X129587800Y-109975000D02*
X129587800Y-113675000D01*
X129587800Y-104675000D02*
X129587800Y-108375000D01*
X125282000Y-110675000D02*
X125282000Y-107675000D01*
X123782000Y-109175000D02*
X126782000Y-109175000D01*
X119079800Y-104675000D02*
X129587800Y-104675000D01*
X119079800Y-104675000D02*
X119082000Y-108575000D01*
X119077600Y-109775000D02*
X119079800Y-113675000D01*
%TO.C,D4*%
X122740308Y-72684355D02*
X127660308Y-72684355D01*
X122740308Y-75304355D02*
X122740308Y-72684355D01*
X122860308Y-72684355D02*
X122860308Y-72914355D01*
X122860308Y-75074355D02*
X122860308Y-75304355D01*
X122980308Y-72684355D02*
X122980308Y-72914355D01*
X122980308Y-75074355D02*
X122980308Y-75304355D01*
X127660308Y-72684355D02*
X127660308Y-75304355D01*
X127660308Y-75304355D02*
X122740308Y-75304355D01*
%TO.C,J4*%
X118755908Y-65969355D02*
X118758108Y-69869355D01*
X118758108Y-60869355D02*
X118760308Y-64769355D01*
X118758108Y-60869355D02*
X129266108Y-60869355D01*
X123460308Y-65369355D02*
X126460308Y-65369355D01*
X124960308Y-66869355D02*
X124960308Y-63869355D01*
X129266108Y-60869355D02*
X129266108Y-64569355D01*
X129266108Y-66169355D02*
X129266108Y-69869355D01*
X129266108Y-69869355D02*
X118758108Y-69869355D01*
D11*
X126522408Y-65369355D02*
G75*
G02*
X123372808Y-65369355I-1574800J0D01*
G01*
X123372808Y-65369355D02*
G75*
G02*
X126522408Y-65369355I1574800J0D01*
G01*
X127160308Y-65369355D02*
G75*
G02*
X122734908Y-65369355I-2212700J0D01*
G01*
X122734908Y-65369355D02*
G75*
G02*
X127160308Y-65369355I2212700J0D01*
G01*
%TO.C,D5*%
D12*
X122740308Y-87309355D02*
X127660308Y-87309355D01*
X122740308Y-89929355D02*
X122740308Y-87309355D01*
X122860308Y-87309355D02*
X122860308Y-87539355D01*
X122860308Y-89699355D02*
X122860308Y-89929355D01*
X122980308Y-87309355D02*
X122980308Y-87539355D01*
X122980308Y-89699355D02*
X122980308Y-89929355D01*
X127660308Y-87309355D02*
X127660308Y-89929355D01*
X127660308Y-89929355D02*
X122740308Y-89929355D01*
%TO.C,D6*%
X122740308Y-101909355D02*
X127660308Y-101909355D01*
X122740308Y-104529355D02*
X122740308Y-101909355D01*
X122860308Y-101909355D02*
X122860308Y-102139355D01*
X122860308Y-104299355D02*
X122860308Y-104529355D01*
X122980308Y-101909355D02*
X122980308Y-102139355D01*
X122980308Y-104299355D02*
X122980308Y-104529355D01*
X127660308Y-101909355D02*
X127660308Y-104529355D01*
X127660308Y-104529355D02*
X122740308Y-104529355D01*
%TO.C,D3*%
X122740308Y-58084355D02*
X127660308Y-58084355D01*
X122740308Y-60704355D02*
X122740308Y-58084355D01*
X122860308Y-58084355D02*
X122860308Y-58314355D01*
X122860308Y-60474355D02*
X122860308Y-60704355D01*
X122980308Y-58084355D02*
X122980308Y-58314355D01*
X122980308Y-60474355D02*
X122980308Y-60704355D01*
X127660308Y-58084355D02*
X127660308Y-60704355D01*
X127660308Y-60704355D02*
X122740308Y-60704355D01*
%TO.C,J5*%
X119077600Y-80575000D02*
X119079800Y-84475000D01*
X119079800Y-75475000D02*
X119082000Y-79375000D01*
X119079800Y-75475000D02*
X129587800Y-75475000D01*
X123782000Y-79975000D02*
X126782000Y-79975000D01*
X125282000Y-81475000D02*
X125282000Y-78475000D01*
X129587800Y-75475000D02*
X129587800Y-79175000D01*
X129587800Y-80775000D02*
X129587800Y-84475000D01*
X129587800Y-84475000D02*
X119079800Y-84475000D01*
D11*
X126844100Y-79975000D02*
G75*
G02*
X123694500Y-79975000I-1574800J0D01*
G01*
X123694500Y-79975000D02*
G75*
G02*
X126844100Y-79975000I1574800J0D01*
G01*
X127482000Y-79975000D02*
G75*
G02*
X123056600Y-79975000I-2212700J0D01*
G01*
X123056600Y-79975000D02*
G75*
G02*
X127482000Y-79975000I2212700J0D01*
G01*
%TO.C,J8*%
D12*
X119039600Y-47300000D02*
X119041800Y-51200000D01*
X119041800Y-42200000D02*
X119044000Y-46100000D01*
X119041800Y-42200000D02*
X129549800Y-42200000D01*
X123744000Y-46700000D02*
X126744000Y-46700000D01*
X125244000Y-48200000D02*
X125244000Y-45200000D01*
X129549800Y-42200000D02*
X129549800Y-45900000D01*
X129549800Y-47500000D02*
X129549800Y-51200000D01*
X129549800Y-51200000D02*
X119041800Y-51200000D01*
D11*
X126806100Y-46700000D02*
G75*
G02*
X123656500Y-46700000I-1574800J0D01*
G01*
X123656500Y-46700000D02*
G75*
G02*
X126806100Y-46700000I1574800J0D01*
G01*
X127444000Y-46700000D02*
G75*
G02*
X123018600Y-46700000I-2212700J0D01*
G01*
X123018600Y-46700000D02*
G75*
G02*
X127444000Y-46700000I2212700J0D01*
G01*
%TD*%
%LPC*%
D13*
%TO.C,J6*%
X128634800Y-94575000D03*
X131047800Y-94575000D03*
X120075000Y-94575000D03*
%TD*%
%TO.C,J7*%
X128634800Y-109175000D03*
X131047800Y-109175000D03*
X120075000Y-109175000D03*
%TD*%
D14*
%TO.C,D4*%
X123930308Y-73994355D03*
D15*
X126470308Y-73994355D03*
%TD*%
D13*
%TO.C,J4*%
X119753308Y-65369355D03*
X130726108Y-65369355D03*
X128313108Y-65369355D03*
%TD*%
D14*
%TO.C,D5*%
X123930308Y-88619355D03*
D15*
X126470308Y-88619355D03*
%TD*%
D14*
%TO.C,D6*%
X123930308Y-103219355D03*
D15*
X126470308Y-103219355D03*
%TD*%
D14*
%TO.C,D3*%
X123930308Y-59394355D03*
D15*
X126470308Y-59394355D03*
%TD*%
D13*
%TO.C,J5*%
X120075000Y-79975000D03*
X131047800Y-79975000D03*
X128634800Y-79975000D03*
%TD*%
%TO.C,J8*%
X120037000Y-46700000D03*
X131009800Y-46700000D03*
X128596800Y-46700000D03*
%TD*%
D16*
%TO.C,RV2*%
X126785000Y-123412500D03*
D17*
X129325000Y-123412500D03*
X131865000Y-123412500D03*
%TD*%
D16*
%TO.C,RV3*%
X126785000Y-128950000D03*
D17*
X129325000Y-128950000D03*
X131865000Y-128950000D03*
%TD*%
D16*
%TO.C,RV1*%
X126785000Y-117875000D03*
D17*
X129325000Y-117875000D03*
X131865000Y-117875000D03*
%TD*%
D16*
%TO.C,RV4*%
X126785000Y-134487500D03*
D17*
X129325000Y-134487500D03*
X131865000Y-134487500D03*
%TD*%
D18*
%TO.C,J2*%
X118300000Y-135500000D03*
D19*
X120840000Y-135500000D03*
X118300000Y-132960000D03*
X120840000Y-132960000D03*
X118300000Y-130420000D03*
X120840000Y-130420000D03*
X118300000Y-127880000D03*
X120840000Y-127880000D03*
%TD*%
%LPD*%
M02*
