M48
; DRILL file KiCad 10.0.5 date 2026-09-09T19:32:05
; FORMAT={-:-/ absolute / inch / decimal}
; #@! TF.CreationDate,2026-09-09T19:32:05-03:00
; #@! TF.GenerationSoftware,Kicad,Pcbnew,10.0.5
; #@! TF.FileFunction,Plated,1,2,PTH
FMAT,2
INCH
; #@! TA.AperFunction,Plated,PTH,ViaDrill
T1C0.0118
; #@! TA.AperFunction,Plated,PTH,ComponentDrill
T2C0.0335
; #@! TA.AperFunction,Plated,PTH,ComponentDrill
T3C0.0350
; #@! TA.AperFunction,Plated,PTH,ComponentDrill
T4C0.0354
; #@! TA.AperFunction,Plated,PTH,ComponentDrill
T5C0.0394
; #@! TA.AperFunction,Plated,PTH,ComponentDrill
T6C0.0450
%
G90
G05
T1
X4.6297Y-2.5455
X4.6358Y-2.8475
X4.6368Y-2.815
X4.6555Y-2.185
X4.6604Y-1.937
X4.6604Y-2.0719
X4.6604Y-2.2835
X4.6791Y-4.9715
X4.6939Y-2.9783
X4.6959Y-2.6575
X4.7156Y-2.8514
X4.7274Y-2.2835
X4.7311Y-2.8219
X4.7598Y-2.7982
X4.7675Y-2.2571
X4.7689Y-4.5168
X4.7697Y-2.5413
X4.7835Y-2.4803
X4.7916Y-4.7718
X4.7934Y-2.1978
X4.81Y-4.2254
X4.8447Y-4.8495
X4.8691Y-2.0866
X4.8893Y-2.5384
X4.9001Y-3.1102
X4.906Y-4.2264
X4.906Y-4.5039
X4.9409Y-1.8799
X4.9429Y-2.06
X4.9434Y-2.1978
X4.9439Y-2.1102
X4.946Y-1.7215
X4.9496Y-2.4144
X4.9921Y-4.7136
X5.0087Y-2.1398
X5.0087Y-2.6486
X5.0128Y-1.5955
X5.0364Y-2.2638
X5.0434Y-2.1978
X5.0669Y-2.4262
X5.0689Y-2.1358
X5.0934Y-2.003
X5.0984Y-2.2047
X5.1053Y-2.5108
X5.128Y-2.7431
X5.1575Y-1.9685
X5.1644Y-2.2913
X5.1644Y-2.3425
X5.1644Y-2.7156
X5.1673Y-4.562
X5.1801Y-3.2638
X5.1801Y-3.3671
X5.2256Y-1.7323
X5.2264Y-2.0266
X5.2303Y-2.6585
X5.2313Y-2.2913
X5.2313Y-2.3425
X5.2313Y-2.4094
X5.2665Y-2.736
X5.2785Y-3.2667
X5.2831Y-3.3278
X5.2831Y-3.376
X5.2832Y-3.9035
X5.2833Y-4.4892
T2
X4.9915Y-4.6407
X4.9915Y-4.8588
X4.9915Y-5.0768
X4.9915Y-5.2948
X5.0915Y-4.6407
X5.0915Y-4.8588
X5.0915Y-5.0768
X5.0915Y-5.2948
X5.1915Y-4.6407
X5.1915Y-4.8588
X5.1915Y-5.0768
X5.1915Y-5.2948
T3
X5.1467Y-2.5736
X5.1579Y-1.8386
X5.1594Y-3.1486
X5.1594Y-3.7234
X5.1594Y-4.2982
T4
X4.8791Y-2.3384
X4.8791Y-2.9132
X4.8791Y-3.489
X4.8791Y-4.0638
X4.9791Y-2.3384
X4.9791Y-2.9132
X4.9791Y-3.489
X4.9791Y-4.0638
T5
X4.6575Y-5.0346
X4.6575Y-5.1346
X4.6575Y-5.2346
X4.6575Y-5.3346
X4.7575Y-5.0346
X4.7575Y-5.1346
X4.7575Y-5.2346
X4.7575Y-5.3346
T6
X4.7147Y-2.5736
X4.7259Y-1.8386
X4.7274Y-3.1486
X4.7274Y-3.7234
X4.7274Y-4.2982
X5.0517Y-2.5736
X5.0629Y-1.8386
X5.0644Y-3.1486
X5.0644Y-3.7234
X5.0644Y-4.2982
M30
